G75*
G70*
%OFA0B0*%
%FSLAX24Y24*%
%IPPOS*%
%LPD*%
%AMOC8*
5,1,8,0,0,1.08239X$1,22.5*
%
%ADD10C,0.0827*%
%ADD11C,0.0520*%
%ADD12C,0.0594*%
%ADD13C,0.1581*%
%ADD14C,0.0554*%
%ADD15C,0.1700*%
%ADD16C,0.0400*%
%ADD17C,0.0396*%
%ADD18C,0.0160*%
%ADD19C,0.0600*%
D10*
X012422Y025522D03*
X012422Y029522D03*
X017922Y029522D03*
X017922Y025522D03*
X028032Y017503D03*
X031532Y017503D03*
X034232Y017803D03*
X035632Y017803D03*
X037032Y017803D03*
X037532Y021003D03*
X033732Y021003D03*
X034232Y025803D03*
X035632Y025803D03*
X037032Y025803D03*
X037532Y029003D03*
X033732Y029003D03*
X034232Y033803D03*
X035632Y033803D03*
X037032Y033803D03*
X037532Y037003D03*
X033732Y037003D03*
X034232Y041803D03*
X035632Y041803D03*
X037032Y041803D03*
X037532Y013003D03*
X033732Y013003D03*
X031532Y012503D03*
X028032Y012503D03*
D11*
X027882Y037103D03*
X026882Y037103D03*
X025882Y037103D03*
X024882Y037103D03*
X023882Y037103D03*
X022882Y037103D03*
X021882Y037103D03*
X020882Y037103D03*
X019882Y037103D03*
X018882Y037103D03*
X017882Y037103D03*
X016882Y037103D03*
X015882Y037103D03*
X014882Y037103D03*
X013882Y037103D03*
X012882Y037103D03*
X011882Y037103D03*
X010882Y037103D03*
X010882Y043103D03*
X011882Y043103D03*
X012882Y043103D03*
X013882Y043103D03*
X014882Y043103D03*
X015882Y043103D03*
X016882Y043103D03*
X017882Y043103D03*
X018882Y043103D03*
X019882Y043103D03*
X020882Y043103D03*
X021882Y043103D03*
X022882Y043103D03*
X023882Y043103D03*
X024882Y043103D03*
X025882Y043103D03*
X026882Y043103D03*
X027882Y043103D03*
X028882Y043103D03*
X029882Y043103D03*
X029882Y037103D03*
X028882Y037103D03*
X024272Y045963D03*
X022372Y045963D03*
X013387Y044655D03*
X011387Y044655D03*
D12*
X007422Y027522D03*
X022422Y027522D03*
X029782Y022503D03*
X029782Y007503D03*
D13*
X029723Y029713D03*
X053345Y053335D03*
X053345Y006091D03*
X006101Y006091D03*
X006101Y053335D03*
D14*
X007753Y041715D03*
X007753Y040635D03*
X007753Y039555D03*
X007753Y038475D03*
X007753Y037395D03*
X006633Y037935D03*
X006633Y039015D03*
X006633Y040095D03*
X006633Y041175D03*
X017710Y051594D03*
X018790Y051594D03*
X019870Y051594D03*
X020950Y051594D03*
X022030Y051594D03*
X021490Y052714D03*
X020410Y052714D03*
X019330Y052714D03*
X018250Y052714D03*
X037395Y051594D03*
X038475Y051594D03*
X039555Y051594D03*
X040635Y051594D03*
X041715Y051594D03*
X041175Y052714D03*
X040095Y052714D03*
X039015Y052714D03*
X037935Y052714D03*
X051594Y041715D03*
X051594Y040635D03*
X051594Y039555D03*
X051594Y038475D03*
X051594Y037395D03*
X052714Y037935D03*
X052714Y039015D03*
X052714Y040095D03*
X052714Y041175D03*
X051594Y023650D03*
X051594Y022570D03*
X051594Y021490D03*
X051594Y020410D03*
X051594Y019330D03*
X051594Y018250D03*
X051594Y017170D03*
X051594Y016090D03*
X052714Y016630D03*
X052714Y017710D03*
X052714Y018790D03*
X052714Y019870D03*
X052714Y020950D03*
X052714Y022030D03*
X052714Y023110D03*
X041715Y007753D03*
X040635Y007753D03*
X039555Y007753D03*
X038475Y007753D03*
X037395Y007753D03*
X037935Y006633D03*
X039015Y006633D03*
X040095Y006633D03*
X041175Y006633D03*
X022030Y007753D03*
X020950Y007753D03*
X019870Y007753D03*
X018790Y007753D03*
X017710Y007753D03*
X018250Y006633D03*
X019330Y006633D03*
X020410Y006633D03*
X021490Y006633D03*
X007753Y014515D03*
X007753Y015595D03*
X007753Y016675D03*
X007753Y017755D03*
X007753Y018835D03*
X007753Y019915D03*
X007753Y020995D03*
X007753Y022075D03*
X006633Y021535D03*
X006633Y020455D03*
X006633Y019375D03*
X006633Y018295D03*
X006633Y017215D03*
X006633Y016135D03*
X006633Y015055D03*
D15*
X007193Y011735D03*
X014940Y007193D03*
X024800Y007193D03*
X034625Y007193D03*
X044485Y007193D03*
X052154Y013310D03*
X052154Y026430D03*
X052154Y034625D03*
X052154Y044485D03*
X044485Y052154D03*
X034625Y052154D03*
X024800Y052154D03*
X014940Y052154D03*
X007193Y044485D03*
X007193Y034625D03*
X007193Y024855D03*
D16*
X007753Y019915D02*
X008915Y019915D01*
X006633Y018295D02*
X005795Y018295D01*
X007753Y014515D02*
X007753Y012295D01*
X015500Y007753D02*
X017710Y007753D01*
X022030Y007753D02*
X024240Y007753D01*
X035185Y007753D02*
X037395Y007753D01*
X041715Y007753D02*
X043925Y007753D01*
X050224Y017170D02*
X051594Y017170D01*
X052714Y022030D02*
X054030Y022030D01*
X051594Y035185D02*
X051594Y037395D01*
X051594Y038475D01*
X051594Y039555D01*
X051594Y040635D01*
X051594Y041715D01*
X051594Y043925D01*
X043925Y051594D02*
X041715Y051594D01*
X040635Y051594D01*
X039555Y051594D01*
X038475Y051594D01*
X037395Y051594D01*
X035185Y051594D01*
X024240Y051594D02*
X022030Y051594D01*
X020950Y051594D01*
X019870Y051594D01*
X018790Y051594D01*
X017710Y051594D01*
X015500Y051594D01*
X007753Y043925D02*
X007753Y041715D01*
X007753Y040635D01*
X007753Y039555D01*
X007753Y038475D01*
X007753Y037395D01*
X007753Y035185D01*
D17*
X005282Y033732D03*
X005282Y032732D03*
X006277Y031054D03*
X006032Y029272D03*
X007032Y029272D03*
X008032Y029272D03*
X009772Y031422D03*
X010422Y030872D03*
X010422Y029722D03*
X009772Y032222D03*
X012122Y033122D03*
X012122Y035122D03*
X014882Y033582D03*
X016122Y033122D03*
X017972Y032122D03*
X018322Y032722D03*
X020122Y035122D03*
X022122Y034122D03*
X022122Y032122D03*
X024722Y030622D03*
X025422Y031722D03*
X027622Y033922D03*
X028722Y033922D03*
X032122Y034122D03*
X034122Y031122D03*
X038122Y031122D03*
X038122Y033122D03*
X040122Y034122D03*
X042122Y033122D03*
X041122Y036122D03*
X040132Y036622D03*
X041122Y040122D03*
X040132Y040632D03*
X040132Y041632D03*
X040132Y042632D03*
X040132Y046132D03*
X040132Y047172D03*
X040122Y049122D03*
X038122Y049122D03*
X038122Y047122D03*
X042122Y046122D03*
X042122Y049122D03*
X044122Y049122D03*
X046122Y049122D03*
X046122Y051122D03*
X048122Y049122D03*
X050022Y049322D03*
X050122Y047122D03*
X050122Y045122D03*
X048122Y047122D03*
X046622Y046352D03*
X045122Y046852D03*
X046622Y044852D03*
X046622Y043352D03*
X048122Y043122D03*
X048122Y041122D03*
X046622Y040302D03*
X046622Y038802D03*
X046622Y037302D03*
X047922Y036022D03*
X046622Y033552D03*
X046622Y032052D03*
X046622Y030552D03*
X046622Y029052D03*
X045122Y027302D03*
X046622Y025302D03*
X046622Y023802D03*
X046622Y022302D03*
X045122Y020302D03*
X046622Y019302D03*
X046622Y017802D03*
X046622Y016302D03*
X045122Y014122D03*
X046622Y013622D03*
X046622Y012122D03*
X046622Y011122D03*
X048122Y013122D03*
X050122Y013122D03*
X050122Y007122D03*
X048122Y007122D03*
X048122Y005122D03*
X050122Y005122D03*
X046122Y005122D03*
X044122Y005122D03*
X046122Y007122D03*
X042122Y009122D03*
X040122Y009122D03*
X039493Y011014D03*
X038693Y011014D03*
X038122Y009122D03*
X036122Y009122D03*
X034122Y009122D03*
X032122Y009122D03*
X032122Y007122D03*
X030122Y009122D03*
X028122Y009122D03*
X028122Y007122D03*
X026122Y010122D03*
X026122Y012122D03*
X025122Y013622D03*
X025122Y014522D03*
X023122Y013622D03*
X021122Y013622D03*
X019122Y014122D03*
X017122Y014122D03*
X016122Y012122D03*
X016122Y010122D03*
X018122Y010122D03*
X019880Y009985D03*
X019880Y009085D03*
X022122Y010122D03*
X024122Y010122D03*
X028122Y011122D03*
X030122Y011122D03*
X028122Y015122D03*
X028122Y019122D03*
X026622Y019822D03*
X024322Y020922D03*
X022303Y022191D03*
X021622Y020822D03*
X020612Y020752D03*
X020612Y021652D03*
X020612Y022652D03*
X018939Y021391D03*
X018122Y023122D03*
X022212Y024226D03*
X023712Y027526D03*
X028582Y024222D03*
X030122Y025122D03*
X030122Y021122D03*
X032122Y021122D03*
X034122Y023122D03*
X034226Y024766D03*
X038122Y023122D03*
X040122Y021122D03*
X039922Y020122D03*
X039922Y019122D03*
X039922Y018122D03*
X042122Y019122D03*
X042122Y021122D03*
X042122Y023122D03*
X039782Y025622D03*
X039782Y026622D03*
X039782Y027622D03*
X040122Y029122D03*
X042122Y029122D03*
X045122Y034052D03*
X048122Y030122D03*
X048473Y029373D03*
X053172Y029572D03*
X045122Y040802D03*
X034226Y042766D03*
X033372Y044412D03*
X030622Y044122D03*
X028122Y047122D03*
X026122Y047122D03*
X026122Y051122D03*
X028122Y051122D03*
X030122Y051122D03*
X030122Y053122D03*
X032122Y051122D03*
X032195Y047642D03*
X030695Y047642D03*
X027122Y054122D03*
X018122Y049122D03*
X016122Y045122D03*
X012122Y046622D03*
X011122Y045622D03*
X010122Y044622D03*
X010122Y047122D03*
X009422Y049322D03*
X010122Y041172D03*
X010122Y040172D03*
X010122Y039172D03*
X012122Y039122D03*
X011882Y040172D03*
X012882Y040172D03*
X013882Y040172D03*
X012122Y041122D03*
X017882Y040172D03*
X019882Y040172D03*
X020882Y040172D03*
X021882Y040172D03*
X022122Y041122D03*
X022882Y040172D03*
X023882Y040172D03*
X024882Y040172D03*
X025882Y040172D03*
X026122Y041122D03*
X026882Y040172D03*
X026122Y039122D03*
X024122Y041122D03*
X022122Y039122D03*
X020122Y039122D03*
X021122Y045122D03*
X034122Y038122D03*
X049122Y052122D03*
X049122Y054122D03*
X047122Y054122D03*
X016122Y029122D03*
X016322Y027123D03*
X014362Y027123D03*
X012122Y023122D03*
X012122Y021122D03*
X010122Y021122D03*
X014820Y018521D03*
X015820Y018521D03*
X016820Y018521D03*
X017620Y018521D03*
X017122Y017122D03*
X019122Y017122D03*
X021122Y017122D03*
X014122Y014122D03*
X014122Y012122D03*
X014122Y010122D03*
X012122Y010122D03*
X012122Y012122D03*
X012122Y014122D03*
X010122Y013122D03*
X010122Y015122D03*
X012122Y016122D03*
X010122Y011122D03*
X010122Y007122D03*
X010122Y005122D03*
X012122Y005122D03*
X008972Y027272D03*
X006122Y027122D03*
X034226Y016766D03*
X034122Y015122D03*
X037922Y017122D03*
X038122Y015122D03*
X038693Y013266D03*
X039493Y013266D03*
X040393Y013266D03*
X042122Y015122D03*
D18*
X004272Y013947D02*
X004272Y004262D01*
X022722Y004262D01*
X022722Y005960D01*
X016947Y005960D01*
X016947Y008585D01*
X019734Y008585D01*
X019587Y008646D01*
X019441Y008791D01*
X019362Y008982D01*
X019362Y009188D01*
X019441Y009378D01*
X019587Y009524D01*
X019613Y009535D01*
X019587Y009546D01*
X019441Y009691D01*
X019362Y009882D01*
X019362Y010088D01*
X019441Y010278D01*
X019587Y010424D01*
X019777Y010503D01*
X019983Y010503D01*
X020174Y010424D01*
X020319Y010278D01*
X020398Y010088D01*
X020398Y009882D01*
X020319Y009691D01*
X020174Y009546D01*
X020148Y009535D01*
X020174Y009524D01*
X020319Y009378D01*
X020398Y009188D01*
X020398Y008982D01*
X020319Y008791D01*
X020174Y008646D01*
X020027Y008585D01*
X022797Y008585D01*
X022797Y004262D01*
X042447Y004262D01*
X042447Y005960D01*
X036622Y005960D01*
X036622Y008585D01*
X042497Y008585D01*
X042497Y004262D01*
X055173Y004262D01*
X055173Y024347D01*
X053460Y024347D01*
X053460Y015347D01*
X050835Y015347D01*
X050835Y024397D01*
X055173Y024397D01*
X055173Y042422D01*
X053460Y042422D01*
X053460Y036647D01*
X050835Y036647D01*
X050835Y042472D01*
X055173Y042472D01*
X055173Y055163D01*
X036697Y055163D01*
X036697Y053460D01*
X042472Y053460D01*
X042472Y050835D01*
X036647Y050835D01*
X036647Y055163D01*
X016972Y055163D01*
X016972Y053460D01*
X022772Y053460D01*
X022772Y050835D01*
X016947Y050835D01*
X016947Y055163D01*
X004272Y055163D01*
X004272Y036705D01*
X005960Y036797D01*
X005960Y042472D01*
X008585Y042472D01*
X008585Y036647D01*
X004272Y036647D01*
X004272Y013997D01*
X005960Y013997D01*
X005960Y022797D01*
X008585Y022797D01*
X008585Y013947D01*
X004272Y013947D01*
X004272Y013793D02*
X011718Y013793D01*
X011683Y013829D02*
X011829Y013683D01*
X012019Y013604D01*
X012225Y013604D01*
X012416Y013683D01*
X012561Y013829D01*
X012640Y014019D01*
X012640Y014225D01*
X012561Y014416D01*
X012416Y014561D01*
X012225Y014640D01*
X012019Y014640D01*
X011829Y014561D01*
X011683Y014416D01*
X011604Y014225D01*
X011604Y014019D01*
X011683Y013829D01*
X011632Y013952D02*
X008585Y013952D01*
X008585Y014110D02*
X011604Y014110D01*
X011622Y014269D02*
X008585Y014269D01*
X008585Y014428D02*
X011695Y014428D01*
X011888Y014586D02*
X008585Y014586D01*
X008585Y014745D02*
X024654Y014745D01*
X024683Y014816D02*
X024604Y014625D01*
X024604Y014419D01*
X024683Y014229D01*
X024829Y014083D01*
X024855Y014072D01*
X024829Y014061D01*
X024683Y013916D01*
X024604Y013725D01*
X024604Y013519D01*
X024683Y013329D01*
X024829Y013183D01*
X025019Y013104D01*
X025225Y013104D01*
X025416Y013183D01*
X025561Y013329D01*
X025640Y013519D01*
X025640Y013725D01*
X025561Y013916D01*
X025416Y014061D01*
X025390Y014072D01*
X025416Y014083D01*
X025561Y014229D01*
X025640Y014419D01*
X025640Y014625D01*
X025561Y014816D01*
X025416Y014961D01*
X025225Y015040D01*
X025019Y015040D01*
X024829Y014961D01*
X024683Y014816D01*
X024770Y014903D02*
X008585Y014903D01*
X008585Y015062D02*
X055173Y015062D01*
X055173Y015220D02*
X008585Y015220D01*
X008585Y015379D02*
X050835Y015379D01*
X050835Y015537D02*
X008585Y015537D01*
X008585Y015696D02*
X011816Y015696D01*
X011829Y015683D02*
X012019Y015604D01*
X012225Y015604D01*
X012416Y015683D01*
X012561Y015829D01*
X012640Y016019D01*
X012640Y016225D01*
X012561Y016416D01*
X012416Y016561D01*
X012225Y016640D01*
X012019Y016640D01*
X011829Y016561D01*
X011683Y016416D01*
X011604Y016225D01*
X011604Y016019D01*
X011683Y015829D01*
X011829Y015683D01*
X011672Y015854D02*
X008585Y015854D01*
X008585Y016013D02*
X011607Y016013D01*
X011604Y016171D02*
X008585Y016171D01*
X008585Y016330D02*
X011648Y016330D01*
X011756Y016489D02*
X008585Y016489D01*
X008585Y016647D02*
X016915Y016647D01*
X016829Y016683D02*
X017019Y016604D01*
X017225Y016604D01*
X017416Y016683D01*
X017561Y016829D01*
X017640Y017019D01*
X017640Y017225D01*
X017561Y017416D01*
X017416Y017561D01*
X017225Y017640D01*
X017019Y017640D01*
X016829Y017561D01*
X016683Y017416D01*
X016604Y017225D01*
X016604Y017019D01*
X016683Y016829D01*
X016829Y016683D01*
X016706Y016806D02*
X008585Y016806D01*
X008585Y016964D02*
X016627Y016964D01*
X016604Y017123D02*
X008585Y017123D01*
X008585Y017281D02*
X016627Y017281D01*
X016707Y017440D02*
X008585Y017440D01*
X008585Y017598D02*
X016918Y017598D01*
X016923Y018003D02*
X017113Y018082D01*
X017220Y018188D01*
X017326Y018082D01*
X017517Y018003D01*
X017723Y018003D01*
X017913Y018082D01*
X018059Y018228D01*
X018138Y018418D01*
X018138Y018624D01*
X018059Y018814D01*
X017913Y018960D01*
X017723Y019039D01*
X017517Y019039D01*
X017326Y018960D01*
X017220Y018854D01*
X017113Y018960D01*
X016923Y019039D01*
X016717Y019039D01*
X016526Y018960D01*
X016381Y018814D01*
X016320Y018668D01*
X016259Y018814D01*
X016113Y018960D01*
X015923Y019039D01*
X015717Y019039D01*
X015526Y018960D01*
X015381Y018814D01*
X015320Y018668D01*
X015259Y018814D01*
X015113Y018960D01*
X014923Y019039D01*
X014717Y019039D01*
X014526Y018960D01*
X014381Y018814D01*
X014302Y018624D01*
X014302Y018418D01*
X014381Y018228D01*
X014526Y018082D01*
X014717Y018003D01*
X014923Y018003D01*
X015113Y018082D01*
X015259Y018228D01*
X015320Y018374D01*
X015381Y018228D01*
X015526Y018082D01*
X015717Y018003D01*
X015923Y018003D01*
X016113Y018082D01*
X016259Y018228D01*
X016320Y018374D01*
X016381Y018228D01*
X016526Y018082D01*
X016717Y018003D01*
X016923Y018003D01*
X017095Y018074D02*
X017345Y018074D01*
X017326Y017598D02*
X018918Y017598D01*
X018829Y017561D02*
X018683Y017416D01*
X018604Y017225D01*
X018604Y017019D01*
X018683Y016829D01*
X018829Y016683D01*
X019019Y016604D01*
X019225Y016604D01*
X019416Y016683D01*
X019561Y016829D01*
X019640Y017019D01*
X019640Y017225D01*
X019561Y017416D01*
X019416Y017561D01*
X019225Y017640D01*
X019019Y017640D01*
X018829Y017561D01*
X018707Y017440D02*
X017537Y017440D01*
X017617Y017281D02*
X018627Y017281D01*
X018604Y017123D02*
X017640Y017123D01*
X017618Y016964D02*
X018627Y016964D01*
X018706Y016806D02*
X017538Y016806D01*
X017329Y016647D02*
X018915Y016647D01*
X019329Y016647D02*
X020915Y016647D01*
X020829Y016683D02*
X021019Y016604D01*
X021225Y016604D01*
X021416Y016683D01*
X021561Y016829D01*
X021640Y017019D01*
X021640Y017225D01*
X021561Y017416D01*
X021416Y017561D01*
X021225Y017640D01*
X021019Y017640D01*
X020829Y017561D01*
X020683Y017416D01*
X020604Y017225D01*
X020604Y017019D01*
X020683Y016829D01*
X020829Y016683D01*
X020706Y016806D02*
X019538Y016806D01*
X019618Y016964D02*
X020627Y016964D01*
X020604Y017123D02*
X019640Y017123D01*
X019617Y017281D02*
X020627Y017281D01*
X020707Y017440D02*
X019537Y017440D01*
X019326Y017598D02*
X020918Y017598D01*
X021326Y017598D02*
X027299Y017598D01*
X027299Y017649D02*
X027299Y017357D01*
X027410Y017088D01*
X027617Y016882D01*
X027886Y016770D01*
X028178Y016770D01*
X028448Y016882D01*
X028654Y017088D01*
X028766Y017357D01*
X028766Y017649D01*
X028654Y017919D01*
X028448Y018125D01*
X028178Y018237D01*
X027886Y018237D01*
X027617Y018125D01*
X027410Y017919D01*
X027299Y017649D01*
X027343Y017757D02*
X008585Y017757D01*
X008585Y017915D02*
X027409Y017915D01*
X027566Y018074D02*
X017895Y018074D01*
X018061Y018233D02*
X027876Y018233D01*
X028188Y018233D02*
X031376Y018233D01*
X031386Y018237D02*
X031117Y018125D01*
X030910Y017919D01*
X030799Y017649D01*
X030799Y017357D01*
X030910Y017088D01*
X031117Y016882D01*
X031386Y016770D01*
X031678Y016770D01*
X031948Y016882D01*
X032154Y017088D01*
X032266Y017357D01*
X032266Y017649D01*
X032154Y017919D01*
X031948Y018125D01*
X031678Y018237D01*
X031386Y018237D01*
X031688Y018233D02*
X033624Y018233D01*
X033610Y018219D02*
X033499Y017949D01*
X033499Y017657D01*
X033610Y017388D01*
X033817Y017182D01*
X033881Y017155D01*
X033786Y017060D01*
X033707Y016869D01*
X033707Y016663D01*
X033786Y016473D01*
X033932Y016327D01*
X034122Y016248D01*
X034329Y016248D01*
X034519Y016327D01*
X034665Y016473D01*
X034744Y016663D01*
X034744Y016869D01*
X034665Y017060D01*
X034573Y017151D01*
X034648Y017182D01*
X034854Y017388D01*
X034966Y017657D01*
X034966Y017949D01*
X034854Y018219D01*
X034648Y018425D01*
X034378Y018537D01*
X034086Y018537D01*
X033817Y018425D01*
X033610Y018219D01*
X033551Y018074D02*
X031999Y018074D01*
X032155Y017915D02*
X033499Y017915D01*
X033499Y017757D02*
X032221Y017757D01*
X032266Y017598D02*
X033523Y017598D01*
X033589Y017440D02*
X032266Y017440D01*
X032234Y017281D02*
X033717Y017281D01*
X033849Y017123D02*
X032168Y017123D01*
X032030Y016964D02*
X033747Y016964D01*
X033707Y016806D02*
X031764Y016806D01*
X031300Y016806D02*
X028264Y016806D01*
X028530Y016964D02*
X031034Y016964D01*
X030896Y017123D02*
X028668Y017123D01*
X028734Y017281D02*
X030830Y017281D01*
X030799Y017440D02*
X028766Y017440D01*
X028766Y017598D02*
X030799Y017598D01*
X030843Y017757D02*
X028721Y017757D01*
X028655Y017915D02*
X030909Y017915D01*
X031066Y018074D02*
X028499Y018074D01*
X027299Y017440D02*
X021537Y017440D01*
X021617Y017281D02*
X027330Y017281D01*
X027396Y017123D02*
X021640Y017123D01*
X021618Y016964D02*
X027534Y016964D01*
X027800Y016806D02*
X021538Y016806D01*
X021329Y016647D02*
X033714Y016647D01*
X033780Y016489D02*
X012489Y016489D01*
X012597Y016330D02*
X033929Y016330D01*
X034522Y016330D02*
X046104Y016330D01*
X046104Y016405D02*
X046104Y016199D01*
X046183Y016009D01*
X046329Y015863D01*
X046519Y015784D01*
X046725Y015784D01*
X046916Y015863D01*
X047061Y016009D01*
X047140Y016199D01*
X047140Y016405D01*
X047061Y016596D01*
X046916Y016741D01*
X046725Y016820D01*
X046519Y016820D01*
X046329Y016741D01*
X046183Y016596D01*
X046104Y016405D01*
X046139Y016489D02*
X034671Y016489D01*
X034737Y016647D02*
X037715Y016647D01*
X037629Y016683D02*
X037819Y016604D01*
X038025Y016604D01*
X038216Y016683D01*
X038361Y016829D01*
X038440Y017019D01*
X038440Y017225D01*
X038361Y017416D01*
X038216Y017561D01*
X038025Y017640D01*
X037819Y017640D01*
X037746Y017610D01*
X037766Y017657D01*
X037766Y017949D01*
X037654Y018219D01*
X037448Y018425D01*
X037178Y018537D01*
X036886Y018537D01*
X036617Y018425D01*
X036410Y018219D01*
X036299Y017949D01*
X036299Y017657D01*
X036410Y017388D01*
X036617Y017182D01*
X036886Y017070D01*
X037178Y017070D01*
X037404Y017164D01*
X037404Y017019D01*
X037483Y016829D01*
X037629Y016683D01*
X037506Y016806D02*
X034744Y016806D01*
X034704Y016964D02*
X037427Y016964D01*
X037404Y017123D02*
X037306Y017123D01*
X036759Y017123D02*
X034602Y017123D01*
X034747Y017281D02*
X035350Y017281D01*
X035321Y017296D02*
X035404Y017253D01*
X035493Y017225D01*
X035574Y017212D01*
X035574Y017745D01*
X035690Y017745D01*
X035690Y017212D01*
X035771Y017225D01*
X035860Y017253D01*
X035943Y017296D01*
X036019Y017351D01*
X036085Y017417D01*
X036140Y017492D01*
X036182Y017576D01*
X036211Y017664D01*
X036224Y017745D01*
X035690Y017745D01*
X035690Y017861D01*
X036224Y017861D01*
X036211Y017942D01*
X036182Y018031D01*
X036140Y018114D01*
X036085Y018190D01*
X036019Y018256D01*
X035943Y018311D01*
X035860Y018353D01*
X035771Y018382D01*
X035690Y018395D01*
X035690Y017861D01*
X035574Y017861D01*
X035574Y017745D01*
X035041Y017745D01*
X035053Y017664D01*
X035082Y017576D01*
X035125Y017492D01*
X035180Y017417D01*
X035246Y017351D01*
X035321Y017296D01*
X035163Y017440D02*
X034875Y017440D01*
X034941Y017598D02*
X035075Y017598D01*
X034966Y017757D02*
X035574Y017757D01*
X035574Y017861D02*
X035041Y017861D01*
X035053Y017942D01*
X035082Y018031D01*
X035125Y018114D01*
X035180Y018190D01*
X035246Y018256D01*
X035321Y018311D01*
X035404Y018353D01*
X035493Y018382D01*
X035574Y018395D01*
X035574Y017861D01*
X035574Y017915D02*
X035690Y017915D01*
X035690Y017757D02*
X036299Y017757D01*
X036299Y017915D02*
X036215Y017915D01*
X036160Y018074D02*
X036351Y018074D01*
X036424Y018233D02*
X036042Y018233D01*
X035690Y018233D02*
X035574Y018233D01*
X035574Y018391D02*
X035690Y018391D01*
X035714Y018391D02*
X036583Y018391D01*
X036323Y017598D02*
X036189Y017598D01*
X036102Y017440D02*
X036389Y017440D01*
X036517Y017281D02*
X035915Y017281D01*
X035690Y017281D02*
X035574Y017281D01*
X035574Y017440D02*
X035690Y017440D01*
X035690Y017598D02*
X035574Y017598D01*
X035574Y018074D02*
X035690Y018074D01*
X035550Y018391D02*
X034681Y018391D01*
X034840Y018233D02*
X035222Y018233D01*
X035104Y018074D02*
X034914Y018074D01*
X034966Y017915D02*
X035049Y017915D01*
X033783Y018391D02*
X018127Y018391D01*
X018138Y018550D02*
X039617Y018550D01*
X039629Y018561D02*
X039483Y018416D01*
X039404Y018225D01*
X039404Y018019D01*
X039483Y017829D01*
X039629Y017683D01*
X039819Y017604D01*
X040025Y017604D01*
X040216Y017683D01*
X040361Y017829D01*
X040440Y018019D01*
X040440Y018225D01*
X040361Y018416D01*
X040216Y018561D01*
X040069Y018622D01*
X040216Y018683D01*
X040361Y018829D01*
X040440Y019019D01*
X040440Y019225D01*
X040361Y019416D01*
X040216Y019561D01*
X040069Y019622D01*
X040216Y019683D01*
X040361Y019829D01*
X040440Y020019D01*
X040440Y020225D01*
X040361Y020416D01*
X040216Y020561D01*
X040025Y020640D01*
X039819Y020640D01*
X039629Y020561D01*
X039483Y020416D01*
X039404Y020225D01*
X039404Y020019D01*
X039483Y019829D01*
X039629Y019683D01*
X039775Y019622D01*
X039629Y019561D01*
X039483Y019416D01*
X039404Y019225D01*
X039404Y019019D01*
X039483Y018829D01*
X039629Y018683D01*
X039775Y018622D01*
X039629Y018561D01*
X039603Y018708D02*
X018103Y018708D01*
X018007Y018867D02*
X039467Y018867D01*
X039404Y019025D02*
X017756Y019025D01*
X017483Y019025D02*
X016956Y019025D01*
X016683Y019025D02*
X015956Y019025D01*
X015683Y019025D02*
X014956Y019025D01*
X014683Y019025D02*
X008585Y019025D01*
X008585Y018867D02*
X014433Y018867D01*
X014337Y018708D02*
X008585Y018708D01*
X008585Y018550D02*
X014302Y018550D01*
X014313Y018391D02*
X008585Y018391D01*
X008585Y018233D02*
X014378Y018233D01*
X014545Y018074D02*
X008585Y018074D01*
X008585Y019184D02*
X039404Y019184D01*
X039453Y019342D02*
X026818Y019342D01*
X026725Y019304D02*
X026916Y019383D01*
X027061Y019529D01*
X027140Y019719D01*
X027140Y019925D01*
X027061Y020116D01*
X026916Y020261D01*
X026725Y020340D01*
X026519Y020340D01*
X026329Y020261D01*
X026183Y020116D01*
X026104Y019925D01*
X026104Y019719D01*
X026183Y019529D01*
X026329Y019383D01*
X026519Y019304D01*
X026725Y019304D01*
X026427Y019342D02*
X008585Y019342D01*
X008585Y019501D02*
X026211Y019501D01*
X026129Y019659D02*
X008585Y019659D01*
X008585Y019818D02*
X026104Y019818D01*
X026125Y019977D02*
X008585Y019977D01*
X008585Y020135D02*
X026202Y020135D01*
X026406Y020294D02*
X020859Y020294D01*
X020906Y020313D02*
X021051Y020459D01*
X021130Y020649D01*
X021130Y020855D01*
X021051Y021046D01*
X020906Y021191D01*
X020880Y021202D01*
X020906Y021213D01*
X021051Y021359D01*
X021130Y021549D01*
X021130Y021755D01*
X021051Y021946D01*
X020906Y022091D01*
X020759Y022152D01*
X020906Y022213D01*
X021051Y022359D01*
X021130Y022549D01*
X021130Y022755D01*
X021051Y022946D01*
X020906Y023091D01*
X020715Y023170D01*
X020509Y023170D01*
X020319Y023091D01*
X020173Y022946D01*
X020094Y022755D01*
X020094Y022549D01*
X020173Y022359D01*
X020319Y022213D01*
X020465Y022152D01*
X020319Y022091D01*
X020173Y021946D01*
X020094Y021755D01*
X020094Y021549D01*
X020173Y021359D01*
X020319Y021213D01*
X020345Y021202D01*
X020319Y021191D01*
X020173Y021046D01*
X020094Y020855D01*
X020094Y020649D01*
X020173Y020459D01*
X020319Y020313D01*
X020509Y020234D01*
X020715Y020234D01*
X020906Y020313D01*
X021045Y020452D02*
X024103Y020452D01*
X024029Y020483D02*
X024219Y020404D01*
X024425Y020404D01*
X024616Y020483D01*
X024761Y020629D01*
X024840Y020819D01*
X024840Y021025D01*
X024761Y021216D01*
X024616Y021361D01*
X024425Y021440D01*
X024219Y021440D01*
X024029Y021361D01*
X023883Y021216D01*
X023804Y021025D01*
X023804Y020819D01*
X023883Y020629D01*
X024029Y020483D01*
X023901Y020611D02*
X021114Y020611D01*
X021130Y020769D02*
X023825Y020769D01*
X023804Y020928D02*
X021100Y020928D01*
X021011Y021086D02*
X023829Y021086D01*
X023912Y021245D02*
X020938Y021245D01*
X021070Y021403D02*
X024130Y021403D01*
X024514Y021403D02*
X033104Y021403D01*
X033110Y021419D02*
X032999Y021149D01*
X032999Y020857D01*
X033110Y020588D01*
X033317Y020382D01*
X033586Y020270D01*
X033878Y020270D01*
X034148Y020382D01*
X034354Y020588D01*
X034466Y020857D01*
X034466Y021149D01*
X034354Y021419D01*
X034148Y021625D01*
X033878Y021737D01*
X033586Y021737D01*
X033317Y021625D01*
X033110Y021419D01*
X033039Y021245D02*
X024732Y021245D01*
X024815Y021086D02*
X032999Y021086D01*
X032999Y020928D02*
X024840Y020928D01*
X024820Y020769D02*
X033035Y020769D01*
X033101Y020611D02*
X024743Y020611D01*
X024541Y020452D02*
X033246Y020452D01*
X033529Y020294D02*
X026838Y020294D01*
X027042Y020135D02*
X039404Y020135D01*
X039422Y019977D02*
X027119Y019977D01*
X027140Y019818D02*
X039494Y019818D01*
X039685Y019659D02*
X027116Y019659D01*
X027034Y019501D02*
X039568Y019501D01*
X040159Y019659D02*
X046247Y019659D01*
X046183Y019596D02*
X046104Y019405D01*
X046104Y019199D01*
X046183Y019009D01*
X046329Y018863D01*
X046519Y018784D01*
X046725Y018784D01*
X046916Y018863D01*
X047061Y019009D01*
X047140Y019199D01*
X047140Y019405D01*
X047061Y019596D01*
X046916Y019741D01*
X046725Y019820D01*
X046519Y019820D01*
X046329Y019741D01*
X046183Y019596D01*
X046144Y019501D02*
X040276Y019501D01*
X040392Y019342D02*
X046104Y019342D01*
X046110Y019184D02*
X040440Y019184D01*
X040440Y019025D02*
X046176Y019025D01*
X046325Y018867D02*
X040377Y018867D01*
X040241Y018708D02*
X050835Y018708D01*
X050835Y018550D02*
X040227Y018550D01*
X040372Y018391D02*
X050835Y018391D01*
X050835Y018233D02*
X046925Y018233D01*
X046916Y018241D02*
X046725Y018320D01*
X046519Y018320D01*
X046329Y018241D01*
X046183Y018096D01*
X046104Y017905D01*
X046104Y017699D01*
X046183Y017509D01*
X046329Y017363D01*
X046519Y017284D01*
X046725Y017284D01*
X046916Y017363D01*
X047061Y017509D01*
X047140Y017699D01*
X047140Y017905D01*
X047061Y018096D01*
X046916Y018241D01*
X047070Y018074D02*
X050835Y018074D01*
X050835Y017915D02*
X047136Y017915D01*
X047140Y017757D02*
X050835Y017757D01*
X050835Y017598D02*
X047099Y017598D01*
X046993Y017440D02*
X050835Y017440D01*
X050835Y017281D02*
X038417Y017281D01*
X038440Y017123D02*
X050835Y017123D01*
X050835Y016964D02*
X038418Y016964D01*
X038338Y016806D02*
X046484Y016806D01*
X046761Y016806D02*
X050835Y016806D01*
X050835Y016647D02*
X047010Y016647D01*
X047106Y016489D02*
X050835Y016489D01*
X050835Y016330D02*
X047140Y016330D01*
X047129Y016171D02*
X050835Y016171D01*
X050835Y016013D02*
X047063Y016013D01*
X046895Y015854D02*
X050835Y015854D01*
X050835Y015696D02*
X012429Y015696D01*
X012572Y015854D02*
X046349Y015854D01*
X046181Y016013D02*
X012638Y016013D01*
X012640Y016171D02*
X046116Y016171D01*
X046234Y016647D02*
X038129Y016647D01*
X038337Y017440D02*
X046252Y017440D01*
X046146Y017598D02*
X038126Y017598D01*
X037766Y017757D02*
X039555Y017757D01*
X039447Y017915D02*
X037766Y017915D01*
X037714Y018074D02*
X039404Y018074D01*
X039407Y018233D02*
X037640Y018233D01*
X037481Y018391D02*
X039473Y018391D01*
X040290Y017757D02*
X046104Y017757D01*
X046108Y017915D02*
X040397Y017915D01*
X040440Y018074D02*
X046174Y018074D01*
X046320Y018233D02*
X040437Y018233D01*
X040351Y019818D02*
X044937Y019818D01*
X045019Y019784D02*
X045225Y019784D01*
X045416Y019863D01*
X045561Y020009D01*
X045640Y020199D01*
X045640Y020405D01*
X045561Y020596D01*
X045416Y020741D01*
X045225Y020820D01*
X045019Y020820D01*
X044829Y020741D01*
X044683Y020596D01*
X044604Y020405D01*
X044604Y020199D01*
X044683Y020009D01*
X044829Y019863D01*
X045019Y019784D01*
X045307Y019818D02*
X046514Y019818D01*
X046731Y019818D02*
X050835Y019818D01*
X050835Y019977D02*
X045529Y019977D01*
X045614Y020135D02*
X050835Y020135D01*
X050835Y020294D02*
X045640Y020294D01*
X045621Y020452D02*
X050835Y020452D01*
X050835Y020611D02*
X045546Y020611D01*
X045348Y020769D02*
X050835Y020769D01*
X050835Y020928D02*
X038266Y020928D01*
X038266Y020857D02*
X038154Y020588D01*
X037948Y020382D01*
X037678Y020270D01*
X037386Y020270D01*
X037117Y020382D01*
X036910Y020588D01*
X036799Y020857D01*
X036799Y021149D01*
X036910Y021419D01*
X037117Y021625D01*
X037386Y021737D01*
X037678Y021737D01*
X037948Y021625D01*
X038154Y021419D01*
X038266Y021149D01*
X038266Y020857D01*
X038229Y020769D02*
X044896Y020769D01*
X044698Y020611D02*
X040097Y020611D01*
X040325Y020452D02*
X044624Y020452D01*
X044604Y020294D02*
X040412Y020294D01*
X040440Y020135D02*
X044631Y020135D01*
X044715Y019977D02*
X040423Y019977D01*
X039748Y020611D02*
X038163Y020611D01*
X038018Y020452D02*
X039519Y020452D01*
X039432Y020294D02*
X037735Y020294D01*
X037329Y020294D02*
X033935Y020294D01*
X034218Y020452D02*
X037046Y020452D01*
X036901Y020611D02*
X034363Y020611D01*
X034429Y020769D02*
X036835Y020769D01*
X036799Y020928D02*
X034466Y020928D01*
X034466Y021086D02*
X036799Y021086D01*
X036839Y021245D02*
X034426Y021245D01*
X034360Y021403D02*
X036904Y021403D01*
X037054Y021562D02*
X034211Y021562D01*
X033917Y021721D02*
X037347Y021721D01*
X037717Y021721D02*
X050835Y021721D01*
X050835Y021879D02*
X046932Y021879D01*
X046916Y021863D02*
X047061Y022009D01*
X047140Y022199D01*
X047140Y022405D01*
X047061Y022596D01*
X046916Y022741D01*
X046725Y022820D01*
X046519Y022820D01*
X046329Y022741D01*
X046183Y022596D01*
X046104Y022405D01*
X046104Y022199D01*
X046183Y022009D01*
X046329Y021863D01*
X046519Y021784D01*
X046725Y021784D01*
X046916Y021863D01*
X047073Y022038D02*
X050835Y022038D01*
X050835Y022196D02*
X047139Y022196D01*
X047140Y022355D02*
X050835Y022355D01*
X050835Y022513D02*
X047096Y022513D01*
X046985Y022672D02*
X050835Y022672D01*
X050835Y022830D02*
X030314Y022830D01*
X030305Y022853D02*
X030132Y023026D01*
X029905Y023120D01*
X029659Y023120D01*
X029433Y023026D01*
X029259Y022853D01*
X029165Y022626D01*
X029165Y022381D01*
X029259Y022154D01*
X029433Y021980D01*
X029659Y021886D01*
X029905Y021886D01*
X030132Y021980D01*
X030305Y022154D01*
X030399Y022381D01*
X030399Y022626D01*
X030305Y022853D01*
X030169Y022989D02*
X050835Y022989D01*
X050835Y023147D02*
X020771Y023147D01*
X021008Y022989D02*
X029395Y022989D01*
X029250Y022830D02*
X021099Y022830D01*
X021130Y022672D02*
X022110Y022672D01*
X022200Y022709D02*
X022010Y022630D01*
X021864Y022485D01*
X021785Y022294D01*
X021785Y022088D01*
X021864Y021898D01*
X022010Y021752D01*
X022200Y021673D01*
X022406Y021673D01*
X022597Y021752D01*
X022743Y021898D01*
X022821Y022088D01*
X022821Y022294D01*
X022743Y022485D01*
X022597Y022630D01*
X022406Y022709D01*
X022200Y022709D01*
X022497Y022672D02*
X029184Y022672D01*
X029165Y022513D02*
X022714Y022513D01*
X022796Y022355D02*
X029176Y022355D01*
X029242Y022196D02*
X022821Y022196D01*
X022800Y022038D02*
X029376Y022038D01*
X030189Y022038D02*
X046171Y022038D01*
X046105Y022196D02*
X030323Y022196D01*
X030388Y022355D02*
X046104Y022355D01*
X046149Y022513D02*
X030399Y022513D01*
X030380Y022672D02*
X046259Y022672D01*
X046519Y023284D02*
X046725Y023284D01*
X046916Y023363D01*
X047061Y023509D01*
X047140Y023699D01*
X047140Y023905D01*
X047061Y024096D01*
X046916Y024241D01*
X046725Y024320D01*
X046519Y024320D01*
X046329Y024241D01*
X046183Y024096D01*
X046104Y023905D01*
X046104Y023699D01*
X046183Y023509D01*
X046329Y023363D01*
X046519Y023284D01*
X046466Y023306D02*
X004272Y023306D01*
X004272Y023464D02*
X046227Y023464D01*
X046136Y023623D02*
X004272Y023623D01*
X004272Y023782D02*
X021931Y023782D01*
X021919Y023786D02*
X022109Y023708D01*
X022315Y023708D01*
X022506Y023786D01*
X022651Y023932D01*
X022730Y024123D01*
X022730Y024329D01*
X022651Y024519D01*
X022506Y024665D01*
X022315Y024744D01*
X022109Y024744D01*
X021919Y024665D01*
X021773Y024519D01*
X021694Y024329D01*
X021694Y024123D01*
X021773Y023932D01*
X021919Y023786D01*
X021770Y023940D02*
X007666Y023940D01*
X007692Y023953D02*
X007790Y024014D01*
X007880Y024086D01*
X007962Y024168D01*
X008034Y024258D01*
X008096Y024356D01*
X008146Y024461D01*
X008184Y024570D01*
X008210Y024683D01*
X008221Y024775D01*
X007273Y024775D01*
X007273Y023828D01*
X007366Y023838D01*
X007479Y023864D01*
X007588Y023902D01*
X007692Y023953D01*
X007893Y024099D02*
X021704Y024099D01*
X021694Y024257D02*
X008033Y024257D01*
X008125Y024416D02*
X021730Y024416D01*
X021828Y024574D02*
X008185Y024574D01*
X008216Y024733D02*
X022083Y024733D01*
X022342Y024733D02*
X028461Y024733D01*
X028479Y024740D02*
X028289Y024661D01*
X028143Y024516D01*
X028064Y024325D01*
X028064Y024119D01*
X028143Y023929D01*
X028289Y023783D01*
X028479Y023704D01*
X028685Y023704D01*
X028876Y023783D01*
X029021Y023929D01*
X029100Y024119D01*
X029100Y024325D01*
X029021Y024516D01*
X028876Y024661D01*
X028685Y024740D01*
X028479Y024740D01*
X028703Y024733D02*
X033707Y024733D01*
X033707Y024663D02*
X033786Y024473D01*
X033932Y024327D01*
X034122Y024248D01*
X034329Y024248D01*
X034519Y024327D01*
X034665Y024473D01*
X034744Y024663D01*
X034744Y024869D01*
X034665Y025060D01*
X034573Y025151D01*
X034648Y025182D01*
X034854Y025388D01*
X034966Y025657D01*
X034966Y025949D01*
X034854Y026219D01*
X034648Y026425D01*
X034378Y026537D01*
X034086Y026537D01*
X033817Y026425D01*
X033610Y026219D01*
X033499Y025949D01*
X033499Y025657D01*
X033610Y025388D01*
X033817Y025182D01*
X033881Y025155D01*
X033786Y025060D01*
X033707Y024869D01*
X033707Y024663D01*
X033744Y024574D02*
X028963Y024574D01*
X029063Y024416D02*
X033843Y024416D01*
X034100Y024257D02*
X029100Y024257D01*
X029092Y024099D02*
X046186Y024099D01*
X046119Y023940D02*
X029026Y023940D01*
X028872Y023782D02*
X046104Y023782D01*
X046367Y024257D02*
X034351Y024257D01*
X034608Y024416D02*
X055173Y024416D01*
X055173Y024574D02*
X034707Y024574D01*
X034744Y024733D02*
X055173Y024733D01*
X055173Y024891D02*
X046944Y024891D01*
X046916Y024863D02*
X047061Y025009D01*
X047140Y025199D01*
X047140Y025405D01*
X047061Y025596D01*
X046916Y025741D01*
X046725Y025820D01*
X046519Y025820D01*
X046329Y025741D01*
X046183Y025596D01*
X046104Y025405D01*
X046104Y025199D01*
X046183Y025009D01*
X046329Y024863D01*
X046519Y024784D01*
X046725Y024784D01*
X046916Y024863D01*
X047078Y025050D02*
X055173Y025050D01*
X055173Y025208D02*
X047140Y025208D01*
X047140Y025367D02*
X055173Y025367D01*
X055173Y025526D02*
X052649Y025526D01*
X052653Y025527D02*
X052751Y025589D01*
X052841Y025661D01*
X052923Y025743D01*
X052995Y025833D01*
X053057Y025931D01*
X053107Y026035D01*
X053145Y026145D01*
X053171Y026257D01*
X053181Y026350D01*
X052234Y026350D01*
X052234Y026510D01*
X053181Y026510D01*
X053171Y026603D01*
X053145Y026716D01*
X053107Y026825D01*
X053057Y026929D01*
X052995Y027027D01*
X052923Y027118D01*
X052841Y027199D01*
X052751Y027272D01*
X052653Y027333D01*
X052548Y027383D01*
X052439Y027421D01*
X052326Y027447D01*
X052234Y027458D01*
X052234Y026510D01*
X052074Y026510D01*
X052074Y027458D01*
X051981Y027447D01*
X051868Y027421D01*
X051759Y027383D01*
X051655Y027333D01*
X051557Y027272D01*
X051466Y027199D01*
X051384Y027118D01*
X051312Y027027D01*
X051251Y026929D01*
X051201Y026825D01*
X051162Y026716D01*
X051137Y026603D01*
X051126Y026510D01*
X052074Y026510D01*
X052074Y026350D01*
X052234Y026350D01*
X052234Y025403D01*
X052326Y025413D01*
X052439Y025439D01*
X052548Y025477D01*
X052653Y025527D01*
X052864Y025684D02*
X055173Y025684D01*
X055173Y025843D02*
X053001Y025843D01*
X053090Y026001D02*
X055173Y026001D01*
X055173Y026160D02*
X053148Y026160D01*
X053178Y026318D02*
X055173Y026318D01*
X055173Y026477D02*
X052234Y026477D01*
X052234Y026635D02*
X052074Y026635D01*
X052074Y026477D02*
X040283Y026477D01*
X040300Y026519D02*
X040300Y026725D01*
X040221Y026916D01*
X040076Y027061D01*
X039929Y027122D01*
X040076Y027183D01*
X040221Y027329D01*
X040300Y027519D01*
X040300Y027725D01*
X040221Y027916D01*
X040076Y028061D01*
X039885Y028140D01*
X039679Y028140D01*
X039489Y028061D01*
X039343Y027916D01*
X039264Y027725D01*
X039264Y027519D01*
X039343Y027329D01*
X039489Y027183D01*
X039636Y027122D01*
X039489Y027061D01*
X039343Y026916D01*
X039264Y026725D01*
X039264Y026519D01*
X039343Y026329D01*
X039489Y026183D01*
X039636Y026122D01*
X039489Y026061D01*
X039343Y025916D01*
X039264Y025725D01*
X039264Y025519D01*
X039343Y025329D01*
X039489Y025183D01*
X039679Y025104D01*
X039885Y025104D01*
X040076Y025183D01*
X040221Y025329D01*
X040300Y025519D01*
X040300Y025725D01*
X040221Y025916D01*
X040076Y026061D01*
X039929Y026122D01*
X040076Y026183D01*
X040221Y026329D01*
X040300Y026519D01*
X040300Y026635D02*
X051144Y026635D01*
X051190Y026794D02*
X045249Y026794D01*
X045225Y026784D02*
X045416Y026863D01*
X045561Y027009D01*
X045640Y027199D01*
X045640Y027405D01*
X045561Y027596D01*
X045416Y027741D01*
X045225Y027820D01*
X045019Y027820D01*
X044829Y027741D01*
X044683Y027596D01*
X044604Y027405D01*
X044604Y027199D01*
X044683Y027009D01*
X044829Y026863D01*
X045019Y026784D01*
X045225Y026784D01*
X044995Y026794D02*
X040272Y026794D01*
X040185Y026952D02*
X044739Y026952D01*
X044641Y027111D02*
X039956Y027111D01*
X040162Y027270D02*
X044604Y027270D01*
X044614Y027428D02*
X040263Y027428D01*
X040300Y027587D02*
X044679Y027587D01*
X044838Y027745D02*
X040292Y027745D01*
X040226Y027904D02*
X055173Y027904D01*
X055173Y028062D02*
X040074Y028062D01*
X039491Y028062D02*
X022730Y028062D01*
X022772Y028045D02*
X022545Y028139D01*
X022299Y028139D01*
X022073Y028045D01*
X021899Y027872D01*
X021805Y027645D01*
X021805Y027399D01*
X021899Y027173D01*
X022073Y026999D01*
X022299Y026905D01*
X022545Y026905D01*
X022772Y026999D01*
X022945Y027173D01*
X023039Y027399D01*
X023039Y027645D01*
X022945Y027872D01*
X022772Y028045D01*
X022913Y027904D02*
X023357Y027904D01*
X023419Y027965D02*
X023273Y027819D01*
X023194Y027629D01*
X023194Y027423D01*
X023273Y027232D01*
X023419Y027086D01*
X023609Y027008D01*
X023815Y027008D01*
X024006Y027086D01*
X024151Y027232D01*
X024230Y027423D01*
X024230Y027629D01*
X024151Y027819D01*
X024006Y027965D01*
X023815Y028044D01*
X023609Y028044D01*
X023419Y027965D01*
X023242Y027745D02*
X022998Y027745D01*
X023039Y027587D02*
X023194Y027587D01*
X023194Y027428D02*
X023039Y027428D01*
X022985Y027270D02*
X023257Y027270D01*
X023394Y027111D02*
X022883Y027111D01*
X022659Y026952D02*
X039380Y026952D01*
X039293Y026794D02*
X016725Y026794D01*
X016761Y026830D02*
X016840Y027020D01*
X016840Y027226D01*
X016761Y027417D01*
X016616Y027563D01*
X016425Y027641D01*
X016219Y027641D01*
X016029Y027563D01*
X015883Y027417D01*
X015804Y027226D01*
X015804Y027020D01*
X015883Y026830D01*
X016029Y026684D01*
X016219Y026605D01*
X016425Y026605D01*
X016616Y026684D01*
X016761Y026830D01*
X016812Y026952D02*
X022186Y026952D01*
X021961Y027111D02*
X016840Y027111D01*
X016822Y027270D02*
X021859Y027270D01*
X021805Y027428D02*
X016750Y027428D01*
X016558Y027587D02*
X021805Y027587D01*
X021847Y027745D02*
X009184Y027745D01*
X009266Y027711D02*
X009075Y027790D01*
X008869Y027790D01*
X008679Y027711D01*
X008533Y027566D01*
X008454Y027375D01*
X008454Y027169D01*
X008533Y026979D01*
X008679Y026833D01*
X008869Y026754D01*
X009075Y026754D01*
X009266Y026833D01*
X009411Y026979D01*
X009490Y027169D01*
X009490Y027375D01*
X009411Y027566D01*
X009266Y027711D01*
X009390Y027587D02*
X014127Y027587D01*
X014069Y027563D02*
X013923Y027417D01*
X013844Y027226D01*
X013844Y027020D01*
X013923Y026830D01*
X014069Y026684D01*
X014259Y026605D01*
X014465Y026605D01*
X014656Y026684D01*
X014801Y026830D01*
X014880Y027020D01*
X014880Y027226D01*
X014801Y027417D01*
X014656Y027563D01*
X014465Y027641D01*
X014259Y027641D01*
X014069Y027563D01*
X013934Y027428D02*
X009468Y027428D01*
X009490Y027270D02*
X013862Y027270D01*
X013844Y027111D02*
X009466Y027111D01*
X009385Y026952D02*
X013872Y026952D01*
X013959Y026794D02*
X009171Y026794D01*
X008773Y026794D02*
X004272Y026794D01*
X004272Y026952D02*
X008559Y026952D01*
X008478Y027111D02*
X007665Y027111D01*
X007672Y027114D02*
X007733Y027158D01*
X007786Y027212D01*
X007830Y027272D01*
X007864Y027339D01*
X007887Y027411D01*
X007899Y027485D01*
X007899Y027504D01*
X007441Y027504D01*
X007441Y027541D01*
X007899Y027541D01*
X007899Y027560D01*
X007887Y027634D01*
X007864Y027705D01*
X007830Y027772D01*
X007786Y027833D01*
X007733Y027886D01*
X007672Y027930D01*
X007605Y027964D01*
X007534Y027987D01*
X007460Y027999D01*
X007441Y027999D01*
X007441Y027541D01*
X007404Y027541D01*
X007404Y027999D01*
X007385Y027999D01*
X007311Y027987D01*
X007239Y027964D01*
X007172Y027930D01*
X007112Y027886D01*
X007058Y027833D01*
X007014Y027772D01*
X006980Y027705D01*
X006957Y027634D01*
X006945Y027560D01*
X006945Y027541D01*
X007404Y027541D01*
X007404Y027504D01*
X007441Y027504D01*
X007441Y027045D01*
X007460Y027045D01*
X007534Y027057D01*
X007605Y027080D01*
X007672Y027114D01*
X007828Y027270D02*
X008454Y027270D01*
X008476Y027428D02*
X007890Y027428D01*
X007895Y027587D02*
X008554Y027587D01*
X008760Y027745D02*
X007844Y027745D01*
X007708Y027904D02*
X021931Y027904D01*
X022114Y028062D02*
X004272Y028062D01*
X004272Y027904D02*
X007136Y027904D01*
X007001Y027745D02*
X004272Y027745D01*
X004272Y027587D02*
X006950Y027587D01*
X006945Y027504D02*
X006945Y027485D01*
X006957Y027411D01*
X006980Y027339D01*
X007014Y027272D01*
X007058Y027212D01*
X007112Y027158D01*
X007172Y027114D01*
X007239Y027080D01*
X007311Y027057D01*
X007385Y027045D01*
X007404Y027045D01*
X007404Y027504D01*
X006945Y027504D01*
X006954Y027428D02*
X004272Y027428D01*
X004272Y027270D02*
X007016Y027270D01*
X007179Y027111D02*
X004272Y027111D01*
X004272Y026635D02*
X014186Y026635D01*
X014538Y026635D02*
X016146Y026635D01*
X015919Y026794D02*
X014765Y026794D01*
X014852Y026952D02*
X015832Y026952D01*
X015804Y027111D02*
X014880Y027111D01*
X014862Y027270D02*
X015822Y027270D01*
X015894Y027428D02*
X014790Y027428D01*
X014598Y027587D02*
X016087Y027587D01*
X016498Y026635D02*
X039264Y026635D01*
X039282Y026477D02*
X037323Y026477D01*
X037448Y026425D02*
X037178Y026537D01*
X036886Y026537D01*
X036617Y026425D01*
X036410Y026219D01*
X036299Y025949D01*
X036299Y025657D01*
X036410Y025388D01*
X036617Y025182D01*
X036886Y025070D01*
X037178Y025070D01*
X037448Y025182D01*
X037654Y025388D01*
X037766Y025657D01*
X037766Y025949D01*
X037654Y026219D01*
X037448Y026425D01*
X037554Y026318D02*
X039353Y026318D01*
X039545Y026160D02*
X037678Y026160D01*
X037744Y026001D02*
X039428Y026001D01*
X039313Y025843D02*
X037766Y025843D01*
X037766Y025684D02*
X039264Y025684D01*
X039264Y025526D02*
X037711Y025526D01*
X037633Y025367D02*
X039327Y025367D01*
X039463Y025208D02*
X037474Y025208D01*
X036590Y025208D02*
X034674Y025208D01*
X034669Y025050D02*
X046166Y025050D01*
X046104Y025208D02*
X040101Y025208D01*
X040237Y025367D02*
X046104Y025367D01*
X046154Y025526D02*
X040300Y025526D01*
X040300Y025684D02*
X046271Y025684D01*
X046973Y025684D02*
X051443Y025684D01*
X051466Y025661D02*
X051557Y025589D01*
X051655Y025527D01*
X051759Y025477D01*
X051868Y025439D01*
X051981Y025413D01*
X052074Y025403D01*
X052074Y026350D01*
X051126Y026350D01*
X051137Y026257D01*
X051162Y026145D01*
X051201Y026035D01*
X051251Y025931D01*
X051312Y025833D01*
X051384Y025743D01*
X051466Y025661D01*
X051658Y025526D02*
X047090Y025526D01*
X046300Y024891D02*
X034734Y024891D01*
X034833Y025367D02*
X035229Y025367D01*
X035246Y025351D02*
X035321Y025296D01*
X035404Y025253D01*
X035493Y025225D01*
X035574Y025212D01*
X035574Y025745D01*
X035690Y025745D01*
X035690Y025212D01*
X035771Y025225D01*
X035860Y025253D01*
X035943Y025296D01*
X036019Y025351D01*
X036085Y025417D01*
X036140Y025492D01*
X036182Y025576D01*
X036211Y025664D01*
X036224Y025745D01*
X035690Y025745D01*
X035690Y025861D01*
X036224Y025861D01*
X036211Y025942D01*
X036182Y026031D01*
X036140Y026114D01*
X036085Y026190D01*
X036019Y026256D01*
X035943Y026311D01*
X035860Y026353D01*
X035771Y026382D01*
X035690Y026395D01*
X035690Y025861D01*
X035574Y025861D01*
X035574Y025745D01*
X035041Y025745D01*
X035053Y025664D01*
X035082Y025576D01*
X035125Y025492D01*
X035180Y025417D01*
X035246Y025351D01*
X035108Y025526D02*
X034911Y025526D01*
X034966Y025684D02*
X035050Y025684D01*
X035041Y025861D02*
X035574Y025861D01*
X035574Y026395D01*
X035493Y026382D01*
X035404Y026353D01*
X035321Y026311D01*
X035246Y026256D01*
X035180Y026190D01*
X035125Y026114D01*
X035082Y026031D01*
X035053Y025942D01*
X035041Y025861D01*
X034966Y025843D02*
X035574Y025843D01*
X035690Y025843D02*
X036299Y025843D01*
X036299Y025684D02*
X036214Y025684D01*
X036157Y025526D02*
X036353Y025526D01*
X036431Y025367D02*
X036035Y025367D01*
X035690Y025367D02*
X035574Y025367D01*
X035574Y025526D02*
X035690Y025526D01*
X035690Y025684D02*
X035574Y025684D01*
X035574Y026001D02*
X035690Y026001D01*
X035690Y026160D02*
X035574Y026160D01*
X035574Y026318D02*
X035690Y026318D01*
X035929Y026318D02*
X036510Y026318D01*
X036386Y026160D02*
X036107Y026160D01*
X036192Y026001D02*
X036320Y026001D01*
X036742Y026477D02*
X034523Y026477D01*
X034754Y026318D02*
X035336Y026318D01*
X035158Y026160D02*
X034878Y026160D01*
X034944Y026001D02*
X035073Y026001D01*
X033942Y026477D02*
X004272Y026477D01*
X004272Y026318D02*
X033710Y026318D01*
X033586Y026160D02*
X018299Y026160D01*
X018338Y026144D02*
X018068Y026256D01*
X017776Y026256D01*
X017507Y026144D01*
X017300Y025938D01*
X017189Y025668D01*
X017189Y025376D01*
X017300Y025107D01*
X017507Y024900D01*
X017776Y024789D01*
X018068Y024789D01*
X018338Y024900D01*
X018544Y025107D01*
X018656Y025376D01*
X018656Y025668D01*
X018544Y025938D01*
X018338Y026144D01*
X018480Y026001D02*
X033520Y026001D01*
X033499Y025843D02*
X018583Y025843D01*
X018649Y025684D02*
X033499Y025684D01*
X033553Y025526D02*
X018656Y025526D01*
X018652Y025367D02*
X033631Y025367D01*
X033790Y025208D02*
X018586Y025208D01*
X018487Y025050D02*
X033782Y025050D01*
X033717Y024891D02*
X018316Y024891D01*
X017529Y024891D02*
X012816Y024891D01*
X012838Y024900D02*
X013044Y025107D01*
X013156Y025376D01*
X013156Y025668D01*
X013044Y025938D01*
X012838Y026144D01*
X012568Y026256D01*
X012276Y026256D01*
X012007Y026144D01*
X011800Y025938D01*
X011689Y025668D01*
X011689Y025376D01*
X011800Y025107D01*
X012007Y024900D01*
X012276Y024789D01*
X012568Y024789D01*
X012838Y024900D01*
X012987Y025050D02*
X017357Y025050D01*
X017258Y025208D02*
X013086Y025208D01*
X013152Y025367D02*
X017193Y025367D01*
X017189Y025526D02*
X013156Y025526D01*
X013149Y025684D02*
X017195Y025684D01*
X017261Y025843D02*
X013083Y025843D01*
X012980Y026001D02*
X017364Y026001D01*
X017545Y026160D02*
X012799Y026160D01*
X012045Y026160D02*
X004272Y026160D01*
X004272Y026001D02*
X011864Y026001D01*
X011761Y025843D02*
X007490Y025843D01*
X007479Y025847D02*
X007366Y025872D01*
X007273Y025883D01*
X007273Y024936D01*
X007113Y024936D01*
X007113Y025883D01*
X007020Y025872D01*
X006907Y025847D01*
X006798Y025809D01*
X006694Y025758D01*
X006596Y025697D01*
X006506Y025625D01*
X006424Y025543D01*
X006352Y025452D01*
X006290Y025354D01*
X006240Y025250D01*
X006202Y025141D01*
X006176Y025028D01*
X006166Y024935D01*
X007113Y024935D01*
X007113Y024775D01*
X007273Y024775D01*
X007273Y024935D01*
X008221Y024935D01*
X008210Y025028D01*
X008184Y025141D01*
X008146Y025250D01*
X008096Y025354D01*
X008034Y025452D01*
X007962Y025543D01*
X007880Y025625D01*
X007790Y025697D01*
X007692Y025758D01*
X007588Y025809D01*
X007479Y025847D01*
X007273Y025843D02*
X007113Y025843D01*
X007113Y025684D02*
X007273Y025684D01*
X007273Y025526D02*
X007113Y025526D01*
X007113Y025367D02*
X007273Y025367D01*
X007273Y025208D02*
X007113Y025208D01*
X007113Y025050D02*
X007273Y025050D01*
X007273Y024891D02*
X012029Y024891D01*
X011857Y025050D02*
X008205Y025050D01*
X008161Y025208D02*
X011758Y025208D01*
X011693Y025367D02*
X008088Y025367D01*
X007976Y025526D02*
X011689Y025526D01*
X011695Y025684D02*
X007806Y025684D01*
X006896Y025843D02*
X004272Y025843D01*
X004272Y025684D02*
X006580Y025684D01*
X006410Y025526D02*
X004272Y025526D01*
X004272Y025367D02*
X006298Y025367D01*
X006225Y025208D02*
X004272Y025208D01*
X004272Y025050D02*
X006181Y025050D01*
X006166Y024775D02*
X006176Y024683D01*
X006202Y024570D01*
X006240Y024461D01*
X006290Y024356D01*
X006352Y024258D01*
X006424Y024168D01*
X006506Y024086D01*
X006596Y024014D01*
X006694Y023953D01*
X006798Y023902D01*
X006907Y023864D01*
X007020Y023838D01*
X007113Y023828D01*
X007113Y024775D01*
X006166Y024775D01*
X006170Y024733D02*
X004272Y024733D01*
X004272Y024891D02*
X007113Y024891D01*
X007113Y024733D02*
X007273Y024733D01*
X007273Y024574D02*
X007113Y024574D01*
X007113Y024416D02*
X007273Y024416D01*
X007273Y024257D02*
X007113Y024257D01*
X007113Y024099D02*
X007273Y024099D01*
X007273Y023940D02*
X007113Y023940D01*
X006720Y023940D02*
X004272Y023940D01*
X004272Y024099D02*
X006493Y024099D01*
X006353Y024257D02*
X004272Y024257D01*
X004272Y024416D02*
X006262Y024416D01*
X006201Y024574D02*
X004272Y024574D01*
X004272Y023147D02*
X020454Y023147D01*
X020216Y022989D02*
X004272Y022989D01*
X004272Y022830D02*
X020125Y022830D01*
X020094Y022672D02*
X008585Y022672D01*
X008585Y022513D02*
X020109Y022513D01*
X020177Y022355D02*
X008585Y022355D01*
X008585Y022196D02*
X020359Y022196D01*
X020265Y022038D02*
X008585Y022038D01*
X008585Y021879D02*
X018763Y021879D01*
X018836Y021909D02*
X018646Y021830D01*
X018500Y021685D01*
X018421Y021494D01*
X018421Y021288D01*
X018500Y021098D01*
X018646Y020952D01*
X018836Y020873D01*
X019043Y020873D01*
X019233Y020952D01*
X019379Y021098D01*
X019458Y021288D01*
X019458Y021494D01*
X019379Y021685D01*
X019233Y021830D01*
X019043Y021909D01*
X018836Y021909D01*
X019116Y021879D02*
X020145Y021879D01*
X020094Y021721D02*
X019343Y021721D01*
X019430Y021562D02*
X020094Y021562D01*
X020154Y021403D02*
X019458Y021403D01*
X019440Y021245D02*
X020287Y021245D01*
X020214Y021086D02*
X019367Y021086D01*
X019175Y020928D02*
X020124Y020928D01*
X020094Y020769D02*
X008585Y020769D01*
X008585Y020611D02*
X020110Y020611D01*
X020179Y020452D02*
X008585Y020452D01*
X008585Y020294D02*
X020365Y020294D01*
X021130Y021562D02*
X033254Y021562D01*
X033547Y021721D02*
X022521Y021721D01*
X022724Y021879D02*
X046313Y021879D01*
X046778Y023306D02*
X050835Y023306D01*
X050835Y023464D02*
X047017Y023464D01*
X047109Y023623D02*
X050835Y023623D01*
X050835Y023782D02*
X047140Y023782D01*
X047126Y023940D02*
X050835Y023940D01*
X050835Y024099D02*
X047058Y024099D01*
X046878Y024257D02*
X050835Y024257D01*
X051306Y025843D02*
X040252Y025843D01*
X040136Y026001D02*
X051217Y026001D01*
X051159Y026160D02*
X040020Y026160D01*
X040211Y026318D02*
X051130Y026318D01*
X051265Y026952D02*
X045505Y026952D01*
X045604Y027111D02*
X051379Y027111D01*
X051554Y027270D02*
X045640Y027270D01*
X045631Y027428D02*
X051897Y027428D01*
X052074Y027428D02*
X052234Y027428D01*
X052234Y027270D02*
X052074Y027270D01*
X052074Y027111D02*
X052234Y027111D01*
X052234Y026952D02*
X052074Y026952D01*
X052074Y026794D02*
X052234Y026794D01*
X052234Y026318D02*
X052074Y026318D01*
X052074Y026160D02*
X052234Y026160D01*
X052234Y026001D02*
X052074Y026001D01*
X052074Y025843D02*
X052234Y025843D01*
X052234Y025684D02*
X052074Y025684D01*
X052074Y025526D02*
X052234Y025526D01*
X053163Y026635D02*
X055173Y026635D01*
X055173Y026794D02*
X053118Y026794D01*
X053042Y026952D02*
X055173Y026952D01*
X055173Y027111D02*
X052928Y027111D01*
X052753Y027270D02*
X055173Y027270D01*
X055173Y027428D02*
X052411Y027428D01*
X055173Y027587D02*
X045565Y027587D01*
X045407Y027745D02*
X055173Y027745D01*
X055173Y028221D02*
X004272Y028221D01*
X004272Y028379D02*
X033322Y028379D01*
X033317Y028382D02*
X033586Y028270D01*
X033878Y028270D01*
X034148Y028382D01*
X034354Y028588D01*
X034466Y028857D01*
X034466Y029149D01*
X034354Y029419D01*
X034148Y029625D01*
X033878Y029737D01*
X033586Y029737D01*
X033317Y029625D01*
X033110Y029419D01*
X032999Y029149D01*
X032999Y028857D01*
X033110Y028588D01*
X033317Y028382D01*
X033160Y028538D02*
X004272Y028538D01*
X004272Y028696D02*
X033065Y028696D01*
X033000Y028855D02*
X030178Y028855D01*
X030193Y028862D02*
X030285Y028920D01*
X030370Y028988D01*
X030448Y029065D01*
X030516Y029150D01*
X030574Y029243D01*
X030621Y029341D01*
X030657Y029444D01*
X030681Y029550D01*
X030690Y029633D01*
X029803Y029633D01*
X029803Y029793D01*
X030690Y029793D01*
X030681Y029876D01*
X030657Y029982D01*
X030621Y030085D01*
X030574Y030183D01*
X030516Y030275D01*
X030448Y030360D01*
X030370Y030438D01*
X030285Y030506D01*
X030193Y030564D01*
X030095Y030611D01*
X029992Y030647D01*
X029886Y030671D01*
X029803Y030680D01*
X029803Y029793D01*
X029643Y029793D01*
X029643Y030680D01*
X029560Y030671D01*
X029454Y030647D01*
X029351Y030611D01*
X029253Y030564D01*
X029160Y030506D01*
X029075Y030438D01*
X028998Y030360D01*
X028930Y030275D01*
X028872Y030183D01*
X028825Y030085D01*
X028789Y029982D01*
X028764Y029876D01*
X028755Y029793D01*
X029643Y029793D01*
X029643Y029633D01*
X029803Y029633D01*
X029803Y028745D01*
X029886Y028754D01*
X029992Y028779D01*
X030095Y028815D01*
X030193Y028862D01*
X030396Y029014D02*
X032999Y029014D01*
X033008Y029172D02*
X030529Y029172D01*
X030616Y029331D02*
X033074Y029331D01*
X033181Y029489D02*
X030667Y029489D01*
X030689Y029806D02*
X048174Y029806D01*
X048180Y029813D02*
X048034Y029667D01*
X047955Y029476D01*
X047955Y029270D01*
X048034Y029080D01*
X048180Y028934D01*
X048370Y028855D01*
X048576Y028855D01*
X048767Y028934D01*
X048913Y029080D01*
X048991Y029270D01*
X048991Y029476D01*
X048913Y029667D01*
X048767Y029813D01*
X048576Y029891D01*
X048370Y029891D01*
X048180Y029813D01*
X048026Y029648D02*
X037893Y029648D01*
X037948Y029625D02*
X037678Y029737D01*
X037386Y029737D01*
X037117Y029625D01*
X036910Y029419D01*
X036799Y029149D01*
X036799Y028857D01*
X036910Y028588D01*
X037117Y028382D01*
X037386Y028270D01*
X037678Y028270D01*
X037948Y028382D01*
X038154Y028588D01*
X038266Y028857D01*
X038266Y029149D01*
X038154Y029419D01*
X037948Y029625D01*
X038083Y029489D02*
X046326Y029489D01*
X046329Y029491D02*
X046183Y029346D01*
X046104Y029155D01*
X046104Y028949D01*
X046183Y028759D01*
X046329Y028613D01*
X046519Y028534D01*
X046725Y028534D01*
X046916Y028613D01*
X047061Y028759D01*
X047140Y028949D01*
X047140Y029155D01*
X047061Y029346D01*
X046916Y029491D01*
X046725Y029570D01*
X046519Y029570D01*
X046329Y029491D01*
X046177Y029331D02*
X038190Y029331D01*
X038256Y029172D02*
X046111Y029172D01*
X046104Y029014D02*
X038266Y029014D01*
X038265Y028855D02*
X046143Y028855D01*
X046245Y028696D02*
X038199Y028696D01*
X038104Y028538D02*
X046510Y028538D01*
X046734Y028538D02*
X055173Y028538D01*
X055173Y028696D02*
X046999Y028696D01*
X047101Y028855D02*
X055173Y028855D01*
X055173Y029014D02*
X048846Y029014D01*
X048951Y029172D02*
X055173Y029172D01*
X055173Y029331D02*
X048991Y029331D01*
X048986Y029489D02*
X055173Y029489D01*
X055173Y029648D02*
X048921Y029648D01*
X048773Y029806D02*
X055173Y029806D01*
X055173Y029965D02*
X030661Y029965D01*
X030602Y030123D02*
X046318Y030123D01*
X046329Y030113D02*
X046519Y030034D01*
X046725Y030034D01*
X046916Y030113D01*
X047061Y030259D01*
X047140Y030449D01*
X047140Y030655D01*
X047061Y030846D01*
X046916Y030991D01*
X046725Y031070D01*
X046519Y031070D01*
X046329Y030991D01*
X046183Y030846D01*
X046104Y030655D01*
X046104Y030449D01*
X046183Y030259D01*
X046329Y030113D01*
X046173Y030282D02*
X030510Y030282D01*
X030367Y030440D02*
X046108Y030440D01*
X046104Y030599D02*
X030119Y030599D01*
X029803Y030599D02*
X029643Y030599D01*
X029643Y030440D02*
X029803Y030440D01*
X029803Y030282D02*
X029643Y030282D01*
X029643Y030123D02*
X029803Y030123D01*
X029803Y029965D02*
X029643Y029965D01*
X029643Y029806D02*
X029803Y029806D01*
X029803Y029648D02*
X033372Y029648D01*
X034093Y029648D02*
X037172Y029648D01*
X036981Y029489D02*
X034283Y029489D01*
X034390Y029331D02*
X036874Y029331D01*
X036808Y029172D02*
X034456Y029172D01*
X034466Y029014D02*
X036799Y029014D01*
X036800Y028855D02*
X034465Y028855D01*
X034399Y028696D02*
X036865Y028696D01*
X036960Y028538D02*
X034304Y028538D01*
X034142Y028379D02*
X037122Y028379D01*
X037942Y028379D02*
X055173Y028379D01*
X055173Y030123D02*
X046926Y030123D01*
X047071Y030282D02*
X055173Y030282D01*
X055173Y030440D02*
X047137Y030440D01*
X047140Y030599D02*
X055173Y030599D01*
X055173Y030757D02*
X047098Y030757D01*
X046991Y030916D02*
X055173Y030916D01*
X055173Y031075D02*
X024984Y031075D01*
X025016Y031061D02*
X024825Y031140D01*
X024619Y031140D01*
X024429Y031061D01*
X024283Y030916D01*
X010940Y030916D01*
X010940Y030975D02*
X010861Y031166D01*
X010716Y031311D01*
X010525Y031390D01*
X010319Y031390D01*
X010290Y031378D01*
X010290Y031525D01*
X010211Y031716D01*
X010105Y031822D01*
X010211Y031929D01*
X010290Y032119D01*
X010290Y032325D01*
X010211Y032516D01*
X010066Y032661D01*
X009875Y032740D01*
X009669Y032740D01*
X009479Y032661D01*
X009333Y032516D01*
X009254Y032325D01*
X009254Y032119D01*
X009333Y031929D01*
X009439Y031822D01*
X009333Y031716D01*
X009254Y031525D01*
X009254Y031319D01*
X009333Y031129D01*
X009479Y030983D01*
X009669Y030904D01*
X009875Y030904D01*
X009904Y030916D01*
X009904Y030916D01*
X009904Y030769D01*
X009983Y030579D01*
X010129Y030433D01*
X010319Y030354D01*
X010525Y030354D01*
X010716Y030433D01*
X010861Y030579D01*
X010940Y030769D01*
X010940Y030975D01*
X010899Y031075D02*
X024460Y031075D01*
X024283Y030916D02*
X024204Y030725D01*
X024204Y030519D01*
X024283Y030329D01*
X024429Y030183D01*
X024619Y030104D01*
X024825Y030104D01*
X025016Y030183D01*
X025161Y030329D01*
X025240Y030519D01*
X025240Y030725D01*
X025161Y030916D01*
X046253Y030916D01*
X046146Y030757D02*
X025227Y030757D01*
X025240Y030599D02*
X029326Y030599D01*
X029079Y030440D02*
X025208Y030440D01*
X025115Y030282D02*
X028935Y030282D01*
X028843Y030123D02*
X024872Y030123D01*
X024573Y030123D02*
X018358Y030123D01*
X018338Y030144D02*
X018068Y030256D01*
X017776Y030256D01*
X017507Y030144D01*
X017300Y029938D01*
X017189Y029668D01*
X017189Y029376D01*
X017300Y029107D01*
X017507Y028900D01*
X017776Y028789D01*
X018068Y028789D01*
X018338Y028900D01*
X018544Y029107D01*
X018656Y029376D01*
X018656Y029668D01*
X018544Y029938D01*
X018338Y030144D01*
X018517Y029965D02*
X028785Y029965D01*
X028757Y029806D02*
X018598Y029806D01*
X018656Y029648D02*
X029643Y029648D01*
X029643Y029633D02*
X028755Y029633D01*
X028764Y029550D01*
X028789Y029444D01*
X028825Y029341D01*
X028872Y029243D01*
X028930Y029150D01*
X028998Y029065D01*
X029075Y028988D01*
X029160Y028920D01*
X029253Y028862D01*
X029351Y028815D01*
X029454Y028779D01*
X029560Y028754D01*
X029643Y028745D01*
X029643Y029633D01*
X029643Y029489D02*
X029803Y029489D01*
X029803Y029331D02*
X029643Y029331D01*
X029643Y029172D02*
X029803Y029172D01*
X029803Y029014D02*
X029643Y029014D01*
X029643Y028855D02*
X029803Y028855D01*
X029267Y028855D02*
X018228Y028855D01*
X018451Y029014D02*
X029049Y029014D01*
X028916Y029172D02*
X018571Y029172D01*
X018637Y029331D02*
X028830Y029331D01*
X028778Y029489D02*
X018656Y029489D01*
X017617Y028855D02*
X012728Y028855D01*
X012838Y028900D02*
X013044Y029107D01*
X013156Y029376D01*
X013156Y029668D01*
X013044Y029938D01*
X012838Y030144D01*
X012568Y030256D01*
X012276Y030256D01*
X012007Y030144D01*
X011800Y029938D01*
X011689Y029668D01*
X011689Y029376D01*
X011800Y029107D01*
X012007Y028900D01*
X012276Y028789D01*
X012568Y028789D01*
X012838Y028900D01*
X012951Y029014D02*
X017394Y029014D01*
X017273Y029172D02*
X013071Y029172D01*
X013137Y029331D02*
X017208Y029331D01*
X017189Y029489D02*
X013156Y029489D01*
X013156Y029648D02*
X017189Y029648D01*
X017246Y029806D02*
X013098Y029806D01*
X013017Y029965D02*
X017328Y029965D01*
X017486Y030123D02*
X012858Y030123D01*
X011986Y030123D02*
X004272Y030123D01*
X004272Y029965D02*
X011828Y029965D01*
X011746Y029806D02*
X004272Y029806D01*
X004272Y029648D02*
X005675Y029648D01*
X005739Y029711D02*
X005593Y029566D01*
X005514Y029375D01*
X005514Y029169D01*
X005593Y028979D01*
X005739Y028833D01*
X005929Y028754D01*
X006135Y028754D01*
X006326Y028833D01*
X006471Y028979D01*
X006532Y029126D01*
X006593Y028979D01*
X006739Y028833D01*
X006929Y028754D01*
X007135Y028754D01*
X007326Y028833D01*
X007471Y028979D01*
X007532Y029126D01*
X007593Y028979D01*
X007739Y028833D01*
X007929Y028754D01*
X008135Y028754D01*
X008326Y028833D01*
X008471Y028979D01*
X008550Y029169D01*
X008550Y029375D01*
X008471Y029566D01*
X008326Y029711D01*
X008135Y029790D01*
X007929Y029790D01*
X007739Y029711D01*
X007593Y029566D01*
X007532Y029419D01*
X007471Y029566D01*
X007326Y029711D01*
X007135Y029790D01*
X006929Y029790D01*
X006739Y029711D01*
X006593Y029566D01*
X006532Y029419D01*
X006471Y029566D01*
X006326Y029711D01*
X006135Y029790D01*
X005929Y029790D01*
X005739Y029711D01*
X005561Y029489D02*
X004272Y029489D01*
X004272Y029331D02*
X005514Y029331D01*
X005514Y029172D02*
X004272Y029172D01*
X004272Y029014D02*
X005579Y029014D01*
X005717Y028855D02*
X004272Y028855D01*
X004272Y030282D02*
X024330Y030282D01*
X024237Y030440D02*
X010723Y030440D01*
X010870Y030599D02*
X024204Y030599D01*
X024217Y030757D02*
X010935Y030757D01*
X010794Y031233D02*
X025249Y031233D01*
X025319Y031204D02*
X025525Y031204D01*
X025716Y031283D01*
X025861Y031429D01*
X025940Y031619D01*
X025940Y031825D01*
X025861Y032016D01*
X025716Y032161D01*
X025525Y032240D01*
X025319Y032240D01*
X025129Y032161D01*
X024983Y032016D01*
X024904Y031825D01*
X024904Y031619D01*
X024983Y031429D01*
X025129Y031283D01*
X025319Y031204D01*
X025595Y031233D02*
X055173Y031233D01*
X055173Y031392D02*
X025824Y031392D01*
X025912Y031550D02*
X046480Y031550D01*
X046519Y031534D02*
X046725Y031534D01*
X046916Y031613D01*
X047061Y031759D01*
X047140Y031949D01*
X047140Y032155D01*
X047061Y032346D01*
X046916Y032491D01*
X046725Y032570D01*
X046519Y032570D01*
X046329Y032491D01*
X046183Y032346D01*
X046104Y032155D01*
X046104Y031949D01*
X046183Y031759D01*
X046329Y031613D01*
X046519Y031534D01*
X046764Y031550D02*
X055173Y031550D01*
X055173Y031709D02*
X047011Y031709D01*
X047106Y031867D02*
X055173Y031867D01*
X055173Y032026D02*
X047140Y032026D01*
X047128Y032184D02*
X055173Y032184D01*
X055173Y032343D02*
X047063Y032343D01*
X046891Y032501D02*
X055173Y032501D01*
X055173Y032660D02*
X018840Y032660D01*
X018840Y032619D02*
X018840Y032825D01*
X018761Y033016D01*
X018616Y033161D01*
X018425Y033240D01*
X018219Y033240D01*
X018029Y033161D01*
X017883Y033016D01*
X017804Y032825D01*
X017804Y032619D01*
X017806Y032614D01*
X017679Y032561D01*
X017533Y032416D01*
X017454Y032225D01*
X017454Y032019D01*
X017533Y031829D01*
X017679Y031683D01*
X017869Y031604D01*
X018075Y031604D01*
X018266Y031683D01*
X018411Y031829D01*
X018490Y032019D01*
X018490Y032225D01*
X018488Y032230D01*
X018616Y032283D01*
X018761Y032429D01*
X018840Y032619D01*
X018792Y032501D02*
X046353Y032501D01*
X046182Y032343D02*
X018676Y032343D01*
X018490Y032184D02*
X025184Y032184D01*
X024993Y032026D02*
X018490Y032026D01*
X018427Y031867D02*
X024922Y031867D01*
X024904Y031709D02*
X018291Y031709D01*
X017653Y031709D02*
X010214Y031709D01*
X010150Y031867D02*
X017517Y031867D01*
X017454Y032026D02*
X010252Y032026D01*
X010290Y032184D02*
X017454Y032184D01*
X017503Y032343D02*
X010283Y032343D01*
X010217Y032501D02*
X017619Y032501D01*
X017804Y032660D02*
X010067Y032660D01*
X009477Y032660D02*
X005800Y032660D01*
X005800Y032629D02*
X005800Y032835D01*
X005721Y033026D01*
X005576Y033171D01*
X005429Y033232D01*
X005576Y033293D01*
X005721Y033439D01*
X005800Y033629D01*
X005800Y033835D01*
X005721Y034026D01*
X005576Y034171D01*
X005385Y034250D01*
X005179Y034250D01*
X004989Y034171D01*
X004843Y034026D01*
X004764Y033835D01*
X004764Y033629D01*
X004843Y033439D01*
X004989Y033293D01*
X005135Y033232D01*
X004989Y033171D01*
X004843Y033026D01*
X004764Y032835D01*
X004764Y032629D01*
X004843Y032439D01*
X004989Y032293D01*
X005179Y032214D01*
X005385Y032214D01*
X005576Y032293D01*
X005721Y032439D01*
X005800Y032629D01*
X005747Y032501D02*
X009327Y032501D01*
X009261Y032343D02*
X005626Y032343D01*
X005800Y032819D02*
X017804Y032819D01*
X017867Y032977D02*
X005742Y032977D01*
X005611Y033136D02*
X014606Y033136D01*
X014589Y033143D02*
X014779Y033064D01*
X014985Y033064D01*
X015176Y033143D01*
X015321Y033289D01*
X015400Y033479D01*
X015400Y033685D01*
X015321Y033876D01*
X015176Y034021D01*
X014985Y034100D01*
X014779Y034100D01*
X014589Y034021D01*
X014443Y033876D01*
X014364Y033685D01*
X014364Y033479D01*
X014443Y033289D01*
X014589Y033143D01*
X014441Y033294D02*
X005577Y033294D01*
X005727Y033453D02*
X014375Y033453D01*
X014364Y033611D02*
X007379Y033611D01*
X007366Y033608D02*
X007479Y033634D01*
X007588Y033672D01*
X007692Y033722D01*
X007790Y033784D01*
X007880Y033856D01*
X007962Y033938D01*
X008034Y034028D01*
X008096Y034126D01*
X008146Y034230D01*
X008184Y034340D01*
X008210Y034452D01*
X008221Y034545D01*
X007273Y034545D01*
X007273Y033598D01*
X007366Y033608D01*
X007273Y033611D02*
X007113Y033611D01*
X007113Y033598D02*
X007113Y034545D01*
X007273Y034545D01*
X007273Y034705D01*
X008221Y034705D01*
X008210Y034798D01*
X008184Y034911D01*
X008146Y035020D01*
X008096Y035124D01*
X008034Y035222D01*
X007962Y035313D01*
X007880Y035394D01*
X007790Y035467D01*
X007692Y035528D01*
X007588Y035578D01*
X007479Y035617D01*
X007366Y035642D01*
X007273Y035653D01*
X007273Y034705D01*
X007113Y034705D01*
X007113Y034545D01*
X006166Y034545D01*
X006176Y034452D01*
X006202Y034340D01*
X006240Y034230D01*
X006290Y034126D01*
X006352Y034028D01*
X006424Y033938D01*
X006506Y033856D01*
X006596Y033784D01*
X006694Y033722D01*
X006798Y033672D01*
X006907Y033634D01*
X007020Y033608D01*
X007113Y033598D01*
X007007Y033611D02*
X005793Y033611D01*
X005800Y033770D02*
X006619Y033770D01*
X006433Y033928D02*
X005762Y033928D01*
X005660Y034087D02*
X006315Y034087D01*
X006235Y034245D02*
X005397Y034245D01*
X005167Y034245D02*
X004272Y034245D01*
X004272Y034087D02*
X004904Y034087D01*
X004803Y033928D02*
X004272Y033928D01*
X004272Y033770D02*
X004764Y033770D01*
X004771Y033611D02*
X004272Y033611D01*
X004272Y033453D02*
X004837Y033453D01*
X004987Y033294D02*
X004272Y033294D01*
X004272Y033136D02*
X004953Y033136D01*
X004823Y032977D02*
X004272Y032977D01*
X004272Y032819D02*
X004764Y032819D01*
X004764Y032660D02*
X004272Y032660D01*
X004272Y032501D02*
X004817Y032501D01*
X004939Y032343D02*
X004272Y032343D01*
X004272Y032184D02*
X009254Y032184D01*
X009293Y032026D02*
X004272Y032026D01*
X004272Y031867D02*
X009394Y031867D01*
X009330Y031709D02*
X004272Y031709D01*
X004272Y031550D02*
X006120Y031550D01*
X006174Y031573D02*
X005984Y031494D01*
X005838Y031348D01*
X005759Y031158D01*
X005759Y030951D01*
X005838Y030761D01*
X005984Y030615D01*
X006174Y030536D01*
X006380Y030536D01*
X006571Y030615D01*
X006716Y030761D01*
X006795Y030951D01*
X006795Y031158D01*
X006716Y031348D01*
X006571Y031494D01*
X006380Y031573D01*
X006174Y031573D01*
X006434Y031550D02*
X009264Y031550D01*
X009254Y031392D02*
X006673Y031392D01*
X006764Y031233D02*
X009290Y031233D01*
X009387Y031075D02*
X006795Y031075D01*
X006781Y030916D02*
X009640Y030916D01*
X009909Y030757D02*
X006713Y030757D01*
X006531Y030599D02*
X009975Y030599D01*
X010121Y030440D02*
X004272Y030440D01*
X004272Y030599D02*
X006023Y030599D01*
X005841Y030757D02*
X004272Y030757D01*
X004272Y030916D02*
X005774Y030916D01*
X005759Y031075D02*
X004272Y031075D01*
X004272Y031233D02*
X005790Y031233D01*
X005882Y031392D02*
X004272Y031392D01*
X006389Y029648D02*
X006675Y029648D01*
X006561Y029489D02*
X006503Y029489D01*
X006486Y029014D02*
X006579Y029014D01*
X006717Y028855D02*
X006348Y028855D01*
X007348Y028855D02*
X007717Y028855D01*
X007579Y029014D02*
X007486Y029014D01*
X007503Y029489D02*
X007561Y029489D01*
X007675Y029648D02*
X007389Y029648D01*
X008389Y029648D02*
X011689Y029648D01*
X011689Y029489D02*
X008503Y029489D01*
X008550Y029331D02*
X011708Y029331D01*
X011773Y029172D02*
X008550Y029172D01*
X008486Y029014D02*
X011894Y029014D01*
X012117Y028855D02*
X008348Y028855D01*
X007441Y027904D02*
X007404Y027904D01*
X007404Y027745D02*
X007441Y027745D01*
X007441Y027587D02*
X007404Y027587D01*
X007404Y027428D02*
X007441Y027428D01*
X007441Y027270D02*
X007404Y027270D01*
X007404Y027111D02*
X007441Y027111D01*
X005960Y022672D02*
X004272Y022672D01*
X004272Y022513D02*
X005960Y022513D01*
X005960Y022355D02*
X004272Y022355D01*
X004272Y022196D02*
X005960Y022196D01*
X005960Y022038D02*
X004272Y022038D01*
X004272Y021879D02*
X005960Y021879D01*
X005960Y021721D02*
X004272Y021721D01*
X004272Y021562D02*
X005960Y021562D01*
X005960Y021403D02*
X004272Y021403D01*
X004272Y021245D02*
X005960Y021245D01*
X005960Y021086D02*
X004272Y021086D01*
X004272Y020928D02*
X005960Y020928D01*
X005960Y020769D02*
X004272Y020769D01*
X004272Y020611D02*
X005960Y020611D01*
X005960Y020452D02*
X004272Y020452D01*
X004272Y020294D02*
X005960Y020294D01*
X005960Y020135D02*
X004272Y020135D01*
X004272Y019977D02*
X005960Y019977D01*
X005960Y019818D02*
X004272Y019818D01*
X004272Y019659D02*
X005960Y019659D01*
X005960Y019501D02*
X004272Y019501D01*
X004272Y019342D02*
X005960Y019342D01*
X005960Y019184D02*
X004272Y019184D01*
X004272Y019025D02*
X005960Y019025D01*
X005960Y018867D02*
X004272Y018867D01*
X004272Y018708D02*
X005960Y018708D01*
X005960Y018550D02*
X004272Y018550D01*
X004272Y018391D02*
X005960Y018391D01*
X005960Y018233D02*
X004272Y018233D01*
X004272Y018074D02*
X005960Y018074D01*
X005960Y017915D02*
X004272Y017915D01*
X004272Y017757D02*
X005960Y017757D01*
X005960Y017598D02*
X004272Y017598D01*
X004272Y017440D02*
X005960Y017440D01*
X005960Y017281D02*
X004272Y017281D01*
X004272Y017123D02*
X005960Y017123D01*
X005960Y016964D02*
X004272Y016964D01*
X004272Y016806D02*
X005960Y016806D01*
X005960Y016647D02*
X004272Y016647D01*
X004272Y016489D02*
X005960Y016489D01*
X005960Y016330D02*
X004272Y016330D01*
X004272Y016171D02*
X005960Y016171D01*
X005960Y016013D02*
X004272Y016013D01*
X004272Y015854D02*
X005960Y015854D01*
X005960Y015696D02*
X004272Y015696D01*
X004272Y015537D02*
X005960Y015537D01*
X005960Y015379D02*
X004272Y015379D01*
X004272Y015220D02*
X005960Y015220D01*
X005960Y015062D02*
X004272Y015062D01*
X004272Y014903D02*
X005960Y014903D01*
X005960Y014745D02*
X004272Y014745D01*
X004272Y014586D02*
X005960Y014586D01*
X005960Y014428D02*
X004272Y014428D01*
X004272Y014269D02*
X005960Y014269D01*
X005960Y014110D02*
X004272Y014110D01*
X004272Y013635D02*
X011945Y013635D01*
X012299Y013635D02*
X013945Y013635D01*
X014019Y013604D02*
X014225Y013604D01*
X014416Y013683D01*
X014561Y013829D01*
X014640Y014019D01*
X014640Y014225D01*
X014561Y014416D01*
X014416Y014561D01*
X014225Y014640D01*
X014019Y014640D01*
X013829Y014561D01*
X013683Y014416D01*
X013604Y014225D01*
X013604Y014019D01*
X013683Y013829D01*
X013829Y013683D01*
X014019Y013604D01*
X014299Y013635D02*
X016945Y013635D01*
X017019Y013604D02*
X017225Y013604D01*
X017416Y013683D01*
X017561Y013829D01*
X017640Y014019D01*
X017640Y014225D01*
X017561Y014416D01*
X017416Y014561D01*
X017225Y014640D01*
X017019Y014640D01*
X016829Y014561D01*
X016683Y014416D01*
X016604Y014225D01*
X016604Y014019D01*
X016683Y013829D01*
X016829Y013683D01*
X017019Y013604D01*
X017299Y013635D02*
X018945Y013635D01*
X019019Y013604D02*
X018829Y013683D01*
X018683Y013829D01*
X018604Y014019D01*
X018604Y014225D01*
X018683Y014416D01*
X018829Y014561D01*
X019019Y014640D01*
X019225Y014640D01*
X019416Y014561D01*
X019561Y014416D01*
X019640Y014225D01*
X019640Y014019D01*
X019561Y013829D01*
X019416Y013683D01*
X019225Y013604D01*
X019019Y013604D01*
X019299Y013635D02*
X020604Y013635D01*
X020604Y013725D02*
X020604Y013519D01*
X020683Y013329D01*
X020829Y013183D01*
X021019Y013104D01*
X021225Y013104D01*
X021416Y013183D01*
X021561Y013329D01*
X021640Y013519D01*
X021640Y013725D01*
X021561Y013916D01*
X021416Y014061D01*
X021225Y014140D01*
X021019Y014140D01*
X020829Y014061D01*
X020683Y013916D01*
X020604Y013725D01*
X020632Y013793D02*
X019526Y013793D01*
X019612Y013952D02*
X020719Y013952D01*
X020947Y014110D02*
X019640Y014110D01*
X019622Y014269D02*
X024666Y014269D01*
X024604Y014428D02*
X019550Y014428D01*
X019356Y014586D02*
X024604Y014586D01*
X024801Y014110D02*
X023297Y014110D01*
X023225Y014140D02*
X023019Y014140D01*
X022829Y014061D01*
X022683Y013916D01*
X022604Y013725D01*
X022604Y013519D01*
X022683Y013329D01*
X022829Y013183D01*
X023019Y013104D01*
X023225Y013104D01*
X023416Y013183D01*
X023561Y013329D01*
X023640Y013519D01*
X023640Y013725D01*
X023561Y013916D01*
X023416Y014061D01*
X023225Y014140D01*
X022947Y014110D02*
X021297Y014110D01*
X021525Y013952D02*
X022719Y013952D01*
X022632Y013793D02*
X021612Y013793D01*
X021640Y013635D02*
X022604Y013635D01*
X022622Y013476D02*
X021623Y013476D01*
X021550Y013318D02*
X022694Y013318D01*
X022886Y013159D02*
X021358Y013159D01*
X020886Y013159D02*
X004272Y013159D01*
X004272Y013001D02*
X027492Y013001D01*
X027410Y012919D02*
X027299Y012649D01*
X027299Y012357D01*
X027410Y012088D01*
X027617Y011882D01*
X027886Y011770D01*
X028178Y011770D01*
X028448Y011882D01*
X028654Y012088D01*
X028766Y012357D01*
X028766Y012649D01*
X028654Y012919D01*
X028448Y013125D01*
X028178Y013237D01*
X027886Y013237D01*
X027617Y013125D01*
X027410Y012919D01*
X027379Y012842D02*
X004272Y012842D01*
X004272Y012684D02*
X006788Y012684D01*
X006798Y012689D02*
X006694Y012638D01*
X006596Y012577D01*
X006506Y012505D01*
X006424Y012423D01*
X006352Y012332D01*
X006290Y012234D01*
X006240Y012130D01*
X006202Y012021D01*
X006176Y011908D01*
X006166Y011815D01*
X007113Y011815D01*
X007113Y011655D01*
X007273Y011655D01*
X007273Y010708D01*
X007366Y010718D01*
X007479Y010744D01*
X007588Y010782D01*
X007692Y010833D01*
X007790Y010894D01*
X007880Y010966D01*
X007962Y011048D01*
X008034Y011138D01*
X008096Y011236D01*
X008146Y011341D01*
X008184Y011450D01*
X008210Y011563D01*
X008221Y011655D01*
X007273Y011655D01*
X007273Y011815D01*
X008221Y011815D01*
X008210Y011908D01*
X008184Y012021D01*
X008146Y012130D01*
X008096Y012234D01*
X008034Y012332D01*
X007962Y012423D01*
X007880Y012505D01*
X007790Y012577D01*
X007692Y012638D01*
X007588Y012689D01*
X007479Y012727D01*
X007366Y012752D01*
X007273Y012763D01*
X007273Y011816D01*
X007113Y011816D01*
X007113Y012763D01*
X007020Y012752D01*
X006907Y012727D01*
X006798Y012689D01*
X006531Y012525D02*
X004272Y012525D01*
X004272Y012366D02*
X006379Y012366D01*
X006277Y012208D02*
X004272Y012208D01*
X004272Y012049D02*
X006212Y012049D01*
X006174Y011891D02*
X004272Y011891D01*
X004272Y011732D02*
X007113Y011732D01*
X007113Y011655D02*
X006166Y011655D01*
X006176Y011563D01*
X006202Y011450D01*
X006240Y011341D01*
X006290Y011236D01*
X006352Y011138D01*
X006424Y011048D01*
X006506Y010966D01*
X006596Y010894D01*
X006694Y010833D01*
X006798Y010782D01*
X006907Y010744D01*
X007020Y010718D01*
X007113Y010708D01*
X007113Y011655D01*
X007113Y011574D02*
X007273Y011574D01*
X007273Y011732D02*
X011779Y011732D01*
X011829Y011683D02*
X012019Y011604D01*
X012225Y011604D01*
X012416Y011683D01*
X012561Y011829D01*
X012640Y012019D01*
X012640Y012225D01*
X012561Y012416D01*
X012416Y012561D01*
X012225Y012640D01*
X012019Y012640D01*
X011829Y012561D01*
X011683Y012416D01*
X011604Y012225D01*
X011604Y012019D01*
X011683Y011829D01*
X011829Y011683D01*
X011657Y011891D02*
X008212Y011891D01*
X008174Y012049D02*
X011604Y012049D01*
X011604Y012208D02*
X008109Y012208D01*
X008007Y012366D02*
X011663Y012366D01*
X011792Y012525D02*
X007855Y012525D01*
X007598Y012684D02*
X027313Y012684D01*
X027299Y012525D02*
X026452Y012525D01*
X026416Y012561D02*
X026225Y012640D01*
X026019Y012640D01*
X025829Y012561D01*
X025683Y012416D01*
X025604Y012225D01*
X025604Y012019D01*
X025683Y011829D01*
X025829Y011683D01*
X026019Y011604D01*
X026225Y011604D01*
X026416Y011683D01*
X026561Y011829D01*
X026640Y012019D01*
X026640Y012225D01*
X026561Y012416D01*
X026416Y012561D01*
X026582Y012366D02*
X027299Y012366D01*
X027361Y012208D02*
X026640Y012208D01*
X026640Y012049D02*
X027449Y012049D01*
X027608Y011891D02*
X026587Y011891D01*
X026465Y011732D02*
X046279Y011732D01*
X046329Y011683D02*
X046183Y011829D01*
X046104Y012019D01*
X046104Y012225D01*
X046183Y012416D01*
X046329Y012561D01*
X046519Y012640D01*
X046725Y012640D01*
X046916Y012561D01*
X047061Y012416D01*
X047140Y012225D01*
X047140Y012019D01*
X047061Y011829D01*
X046916Y011683D01*
X046769Y011622D01*
X046916Y011561D01*
X047061Y011416D01*
X047140Y011225D01*
X047140Y011019D01*
X047061Y010829D01*
X046916Y010683D01*
X046725Y010604D01*
X046519Y010604D01*
X046329Y010683D01*
X046183Y010829D01*
X046104Y011019D01*
X046104Y011225D01*
X046183Y011416D01*
X046329Y011561D01*
X046476Y011622D01*
X046329Y011683D01*
X046358Y011574D02*
X008211Y011574D01*
X008172Y011415D02*
X038361Y011415D01*
X038400Y011454D02*
X038254Y011308D01*
X038175Y011118D01*
X038175Y010911D01*
X038254Y010721D01*
X038400Y010575D01*
X038590Y010496D01*
X038796Y010496D01*
X038987Y010575D01*
X039093Y010682D01*
X039200Y010575D01*
X039390Y010496D01*
X039596Y010496D01*
X039787Y010575D01*
X039933Y010721D01*
X040012Y010911D01*
X040012Y011118D01*
X039933Y011308D01*
X039787Y011454D01*
X039596Y011533D01*
X039390Y011533D01*
X039200Y011454D01*
X039093Y011347D01*
X038987Y011454D01*
X038796Y011533D01*
X038590Y011533D01*
X038400Y011454D01*
X038233Y011257D02*
X008106Y011257D01*
X008002Y011098D02*
X038175Y011098D01*
X038175Y010940D02*
X007847Y010940D01*
X007584Y010781D02*
X038229Y010781D01*
X038353Y010622D02*
X026268Y010622D01*
X026225Y010640D02*
X026019Y010640D01*
X025829Y010561D01*
X025683Y010416D01*
X025604Y010225D01*
X025604Y010019D01*
X025683Y009829D01*
X025829Y009683D01*
X026019Y009604D01*
X026225Y009604D01*
X026416Y009683D01*
X026561Y009829D01*
X026640Y010019D01*
X026640Y010225D01*
X026561Y010416D01*
X026416Y010561D01*
X026225Y010640D01*
X025976Y010622D02*
X024268Y010622D01*
X024225Y010640D02*
X024019Y010640D01*
X023829Y010561D01*
X023683Y010416D01*
X023604Y010225D01*
X023604Y010019D01*
X023683Y009829D01*
X023829Y009683D01*
X024019Y009604D01*
X024225Y009604D01*
X024416Y009683D01*
X024561Y009829D01*
X024640Y010019D01*
X024640Y010225D01*
X024561Y010416D01*
X024416Y010561D01*
X024225Y010640D01*
X023976Y010622D02*
X022268Y010622D01*
X022225Y010640D02*
X022019Y010640D01*
X021829Y010561D01*
X021683Y010416D01*
X021604Y010225D01*
X021604Y010019D01*
X021683Y009829D01*
X021829Y009683D01*
X022019Y009604D01*
X022225Y009604D01*
X022416Y009683D01*
X022561Y009829D01*
X022640Y010019D01*
X022640Y010225D01*
X022561Y010416D01*
X022416Y010561D01*
X022225Y010640D01*
X021976Y010622D02*
X018268Y010622D01*
X018225Y010640D02*
X018019Y010640D01*
X017829Y010561D01*
X017683Y010416D01*
X017604Y010225D01*
X017604Y010019D01*
X017683Y009829D01*
X017829Y009683D01*
X018019Y009604D01*
X018225Y009604D01*
X018416Y009683D01*
X018561Y009829D01*
X018640Y010019D01*
X018640Y010225D01*
X018561Y010416D01*
X018416Y010561D01*
X018225Y010640D01*
X017976Y010622D02*
X016268Y010622D01*
X016225Y010640D02*
X016019Y010640D01*
X015829Y010561D01*
X015683Y010416D01*
X015604Y010225D01*
X015604Y010019D01*
X015683Y009829D01*
X015829Y009683D01*
X016019Y009604D01*
X016225Y009604D01*
X016416Y009683D01*
X016561Y009829D01*
X016640Y010019D01*
X016640Y010225D01*
X016561Y010416D01*
X016416Y010561D01*
X016225Y010640D01*
X015976Y010622D02*
X014268Y010622D01*
X014225Y010640D02*
X014416Y010561D01*
X014561Y010416D01*
X014640Y010225D01*
X014640Y010019D01*
X014561Y009829D01*
X014416Y009683D01*
X014225Y009604D01*
X014019Y009604D01*
X013829Y009683D01*
X013683Y009829D01*
X013604Y010019D01*
X013604Y010225D01*
X013683Y010416D01*
X013829Y010561D01*
X014019Y010640D01*
X014225Y010640D01*
X013976Y010622D02*
X012268Y010622D01*
X012225Y010640D02*
X012019Y010640D01*
X011829Y010561D01*
X011683Y010416D01*
X011604Y010225D01*
X011604Y010019D01*
X011683Y009829D01*
X011829Y009683D01*
X012019Y009604D01*
X012225Y009604D01*
X012416Y009683D01*
X012561Y009829D01*
X012640Y010019D01*
X012640Y010225D01*
X012561Y010416D01*
X012416Y010561D01*
X012225Y010640D01*
X011976Y010622D02*
X004272Y010622D01*
X004272Y010464D02*
X011731Y010464D01*
X011637Y010305D02*
X004272Y010305D01*
X004272Y010147D02*
X011604Y010147D01*
X011617Y009988D02*
X004272Y009988D01*
X004272Y009830D02*
X011682Y009830D01*
X011857Y009671D02*
X004272Y009671D01*
X004272Y009513D02*
X019575Y009513D01*
X019461Y009671D02*
X018387Y009671D01*
X018562Y009830D02*
X019384Y009830D01*
X019362Y009988D02*
X018627Y009988D01*
X018640Y010147D02*
X019387Y010147D01*
X019468Y010305D02*
X018607Y010305D01*
X018513Y010464D02*
X019683Y010464D01*
X020077Y010464D02*
X021731Y010464D01*
X021637Y010305D02*
X020292Y010305D01*
X020374Y010147D02*
X021604Y010147D01*
X021617Y009988D02*
X020398Y009988D01*
X020377Y009830D02*
X021682Y009830D01*
X021857Y009671D02*
X020299Y009671D01*
X020185Y009513D02*
X055173Y009513D01*
X055173Y009671D02*
X026387Y009671D01*
X026562Y009830D02*
X055173Y009830D01*
X055173Y009988D02*
X026627Y009988D01*
X026640Y010147D02*
X055173Y010147D01*
X055173Y010305D02*
X026607Y010305D01*
X026513Y010464D02*
X055173Y010464D01*
X055173Y010622D02*
X046770Y010622D01*
X047014Y010781D02*
X055173Y010781D01*
X055173Y010940D02*
X047107Y010940D01*
X047140Y011098D02*
X055173Y011098D01*
X055173Y011257D02*
X047127Y011257D01*
X047062Y011415D02*
X055173Y011415D01*
X055173Y011574D02*
X046886Y011574D01*
X046965Y011732D02*
X055173Y011732D01*
X055173Y011891D02*
X047087Y011891D01*
X047140Y012049D02*
X055173Y012049D01*
X055173Y012208D02*
X047140Y012208D01*
X047082Y012366D02*
X051739Y012366D01*
X051759Y012357D02*
X051868Y012319D01*
X051981Y012293D01*
X052074Y012283D01*
X052074Y013230D01*
X052234Y013230D01*
X052234Y013390D01*
X053181Y013390D01*
X053171Y013483D01*
X053145Y013596D01*
X053107Y013705D01*
X053057Y013809D01*
X052995Y013907D01*
X052923Y013998D01*
X052841Y014079D01*
X052751Y014152D01*
X052653Y014213D01*
X052548Y014263D01*
X052439Y014301D01*
X052326Y014327D01*
X052234Y014338D01*
X052234Y013390D01*
X052074Y013390D01*
X052074Y014338D01*
X051981Y014327D01*
X051868Y014301D01*
X051759Y014263D01*
X051655Y014213D01*
X051557Y014152D01*
X051466Y014079D01*
X051384Y013998D01*
X051312Y013907D01*
X051251Y013809D01*
X051201Y013705D01*
X051162Y013596D01*
X051137Y013483D01*
X051126Y013390D01*
X052074Y013390D01*
X052074Y013230D01*
X051126Y013230D01*
X051137Y013137D01*
X051162Y013025D01*
X051201Y012915D01*
X051251Y012811D01*
X051312Y012713D01*
X051384Y012623D01*
X051466Y012541D01*
X051557Y012469D01*
X051655Y012407D01*
X051759Y012357D01*
X052074Y012366D02*
X052234Y012366D01*
X052234Y012283D02*
X052326Y012293D01*
X052439Y012319D01*
X052548Y012357D01*
X052653Y012407D01*
X052751Y012469D01*
X052841Y012541D01*
X052923Y012623D01*
X052995Y012713D01*
X053057Y012811D01*
X053107Y012915D01*
X053145Y013025D01*
X053171Y013137D01*
X053181Y013230D01*
X052234Y013230D01*
X052234Y012283D01*
X052234Y012525D02*
X052074Y012525D01*
X052074Y012684D02*
X052234Y012684D01*
X052234Y012842D02*
X052074Y012842D01*
X052074Y013001D02*
X052234Y013001D01*
X052234Y013159D02*
X052074Y013159D01*
X052074Y013318D02*
X047050Y013318D01*
X047061Y013329D02*
X047140Y013519D01*
X047140Y013725D01*
X047061Y013916D01*
X046916Y014061D01*
X046725Y014140D01*
X046519Y014140D01*
X046329Y014061D01*
X046183Y013916D01*
X046104Y013725D01*
X046104Y013519D01*
X046183Y013329D01*
X046329Y013183D01*
X046519Y013104D01*
X046725Y013104D01*
X046916Y013183D01*
X047061Y013329D01*
X047123Y013476D02*
X051136Y013476D01*
X051176Y013635D02*
X047140Y013635D01*
X047112Y013793D02*
X051243Y013793D01*
X051348Y013952D02*
X047025Y013952D01*
X046797Y014110D02*
X051505Y014110D01*
X051775Y014269D02*
X045622Y014269D01*
X045640Y014225D02*
X045561Y014416D01*
X045416Y014561D01*
X045225Y014640D01*
X045019Y014640D01*
X044829Y014561D01*
X044683Y014416D01*
X044604Y014225D01*
X044604Y014019D01*
X044683Y013829D01*
X044829Y013683D01*
X045019Y013604D01*
X045225Y013604D01*
X045416Y013683D01*
X045561Y013829D01*
X045640Y014019D01*
X045640Y014225D01*
X045640Y014110D02*
X046447Y014110D01*
X046219Y013952D02*
X045612Y013952D01*
X045526Y013793D02*
X046132Y013793D01*
X046104Y013635D02*
X045299Y013635D01*
X044945Y013635D02*
X040757Y013635D01*
X040687Y013705D02*
X040833Y013560D01*
X040912Y013369D01*
X040912Y013163D01*
X040833Y012973D01*
X040687Y012827D01*
X040496Y012748D01*
X040290Y012748D01*
X040100Y012827D01*
X039954Y012973D01*
X039943Y012999D01*
X039933Y012973D01*
X039787Y012827D01*
X039596Y012748D01*
X039390Y012748D01*
X039200Y012827D01*
X039093Y012933D01*
X038987Y012827D01*
X038796Y012748D01*
X038590Y012748D01*
X038400Y012827D01*
X038266Y012961D01*
X038266Y012857D01*
X038154Y012588D01*
X037948Y012382D01*
X037678Y012270D01*
X037386Y012270D01*
X037117Y012382D01*
X036910Y012588D01*
X036799Y012857D01*
X036799Y013149D01*
X036910Y013419D01*
X037117Y013625D01*
X037386Y013737D01*
X037678Y013737D01*
X037948Y013625D01*
X038154Y013419D01*
X038175Y013367D01*
X038175Y013369D01*
X038254Y013560D01*
X038400Y013705D01*
X038590Y013784D01*
X038796Y013784D01*
X038987Y013705D01*
X039093Y013599D01*
X039200Y013705D01*
X039390Y013784D01*
X039596Y013784D01*
X039787Y013705D01*
X039933Y013560D01*
X039943Y013534D01*
X039954Y013560D01*
X040100Y013705D01*
X040290Y013784D01*
X040496Y013784D01*
X040687Y013705D01*
X040867Y013476D02*
X046122Y013476D01*
X046194Y013318D02*
X040912Y013318D01*
X040910Y013159D02*
X046386Y013159D01*
X046858Y013159D02*
X051134Y013159D01*
X051171Y013001D02*
X040844Y013001D01*
X040702Y012842D02*
X051236Y012842D01*
X051336Y012684D02*
X038194Y012684D01*
X038259Y012842D02*
X038385Y012842D01*
X038091Y012525D02*
X046292Y012525D01*
X046163Y012366D02*
X037911Y012366D01*
X037153Y012366D02*
X034111Y012366D01*
X034148Y012382D02*
X034354Y012588D01*
X034466Y012857D01*
X034466Y013149D01*
X034354Y013419D01*
X034148Y013625D01*
X033878Y013737D01*
X033586Y013737D01*
X033317Y013625D01*
X033110Y013419D01*
X032999Y013149D01*
X032999Y012857D01*
X033110Y012588D01*
X033317Y012382D01*
X033586Y012270D01*
X033878Y012270D01*
X034148Y012382D01*
X034291Y012525D02*
X036973Y012525D01*
X036871Y012684D02*
X034394Y012684D01*
X034459Y012842D02*
X036805Y012842D01*
X036799Y013001D02*
X034466Y013001D01*
X034461Y013159D02*
X036803Y013159D01*
X036869Y013318D02*
X034396Y013318D01*
X034296Y013476D02*
X036968Y013476D01*
X037140Y013635D02*
X034124Y013635D01*
X033340Y013635D02*
X025640Y013635D01*
X025623Y013476D02*
X033168Y013476D01*
X033069Y013318D02*
X025550Y013318D01*
X025358Y013159D02*
X027699Y013159D01*
X028365Y013159D02*
X031199Y013159D01*
X031117Y013125D02*
X030910Y012919D01*
X030799Y012649D01*
X030799Y012357D01*
X030910Y012088D01*
X031117Y011882D01*
X031386Y011770D01*
X031678Y011770D01*
X031948Y011882D01*
X032154Y012088D01*
X032266Y012357D01*
X032266Y012649D01*
X032154Y012919D01*
X031948Y013125D01*
X031678Y013237D01*
X031386Y013237D01*
X031117Y013125D01*
X030992Y013001D02*
X028572Y013001D01*
X028686Y012842D02*
X030879Y012842D01*
X030813Y012684D02*
X028751Y012684D01*
X028766Y012525D02*
X030799Y012525D01*
X030799Y012366D02*
X028766Y012366D01*
X028704Y012208D02*
X030861Y012208D01*
X030949Y012049D02*
X028615Y012049D01*
X028457Y011891D02*
X031108Y011891D01*
X031957Y011891D02*
X046157Y011891D01*
X046104Y012049D02*
X032115Y012049D01*
X032204Y012208D02*
X046104Y012208D01*
X046183Y011415D02*
X039825Y011415D01*
X039954Y011257D02*
X046117Y011257D01*
X046104Y011098D02*
X040012Y011098D01*
X040012Y010940D02*
X046137Y010940D01*
X046231Y010781D02*
X039958Y010781D01*
X039834Y010622D02*
X046475Y010622D01*
X046952Y012525D02*
X051486Y012525D01*
X052074Y013476D02*
X052234Y013476D01*
X052234Y013318D02*
X055173Y013318D01*
X055173Y013476D02*
X053171Y013476D01*
X053131Y013635D02*
X055173Y013635D01*
X055173Y013793D02*
X053064Y013793D01*
X052959Y013952D02*
X055173Y013952D01*
X055173Y014110D02*
X052802Y014110D01*
X052532Y014269D02*
X055173Y014269D01*
X055173Y014428D02*
X045550Y014428D01*
X045356Y014586D02*
X055173Y014586D01*
X055173Y014745D02*
X025591Y014745D01*
X025640Y014586D02*
X044888Y014586D01*
X044695Y014428D02*
X025640Y014428D01*
X025578Y014269D02*
X044622Y014269D01*
X044604Y014110D02*
X025443Y014110D01*
X025525Y013952D02*
X044632Y013952D01*
X044718Y013793D02*
X025612Y013793D01*
X024719Y013952D02*
X023525Y013952D01*
X023612Y013793D02*
X024632Y013793D01*
X024604Y013635D02*
X023640Y013635D01*
X023623Y013476D02*
X024622Y013476D01*
X024694Y013318D02*
X023550Y013318D01*
X023358Y013159D02*
X024886Y013159D01*
X025792Y012525D02*
X016452Y012525D01*
X016416Y012561D02*
X016225Y012640D01*
X016019Y012640D01*
X015829Y012561D01*
X015683Y012416D01*
X015604Y012225D01*
X015604Y012019D01*
X015683Y011829D01*
X015829Y011683D01*
X016019Y011604D01*
X016225Y011604D01*
X016416Y011683D01*
X016561Y011829D01*
X016640Y012019D01*
X016640Y012225D01*
X016561Y012416D01*
X016416Y012561D01*
X016582Y012366D02*
X025663Y012366D01*
X025604Y012208D02*
X016640Y012208D01*
X016640Y012049D02*
X025604Y012049D01*
X025657Y011891D02*
X016587Y011891D01*
X016465Y011732D02*
X025779Y011732D01*
X025731Y010464D02*
X024513Y010464D01*
X024607Y010305D02*
X025637Y010305D01*
X025604Y010147D02*
X024640Y010147D01*
X024627Y009988D02*
X025617Y009988D01*
X025682Y009830D02*
X024562Y009830D01*
X024387Y009671D02*
X025857Y009671D01*
X025195Y008146D02*
X025086Y008184D01*
X024973Y008210D01*
X024880Y008221D01*
X024880Y007273D01*
X024720Y007273D01*
X024720Y007113D01*
X023773Y007113D01*
X023783Y007020D01*
X023809Y006907D01*
X023847Y006798D01*
X023897Y006694D01*
X023959Y006596D01*
X024031Y006506D01*
X024113Y006424D01*
X024203Y006352D01*
X024301Y006290D01*
X024405Y006240D01*
X024515Y006202D01*
X024627Y006176D01*
X024720Y006166D01*
X024720Y007113D01*
X024880Y007113D01*
X024880Y006166D01*
X024973Y006176D01*
X025086Y006202D01*
X025195Y006240D01*
X025299Y006290D01*
X025397Y006352D01*
X025488Y006424D01*
X025569Y006506D01*
X025642Y006596D01*
X025703Y006694D01*
X025753Y006798D01*
X025791Y006907D01*
X025817Y007020D01*
X025828Y007113D01*
X024880Y007113D01*
X024880Y007273D01*
X025828Y007273D01*
X025817Y007366D01*
X025791Y007479D01*
X025753Y007588D01*
X025703Y007692D01*
X025642Y007790D01*
X025569Y007880D01*
X025488Y007962D01*
X025397Y008034D01*
X025299Y008096D01*
X025195Y008146D01*
X025315Y008086D02*
X034110Y008086D01*
X034126Y008096D02*
X034028Y008034D01*
X033938Y007962D01*
X033856Y007880D01*
X033784Y007790D01*
X033722Y007692D01*
X033672Y007588D01*
X033634Y007479D01*
X033608Y007366D01*
X033598Y007273D01*
X034545Y007273D01*
X034545Y007113D01*
X033598Y007113D01*
X033608Y007020D01*
X033634Y006907D01*
X033672Y006798D01*
X033722Y006694D01*
X033784Y006596D01*
X033856Y006506D01*
X033938Y006424D01*
X034028Y006352D01*
X034126Y006290D01*
X034230Y006240D01*
X034340Y006202D01*
X034452Y006176D01*
X034545Y006166D01*
X034545Y007113D01*
X034705Y007113D01*
X034705Y006166D01*
X034798Y006176D01*
X034911Y006202D01*
X035020Y006240D01*
X035124Y006290D01*
X035222Y006352D01*
X035313Y006424D01*
X035394Y006506D01*
X035467Y006596D01*
X035528Y006694D01*
X035578Y006798D01*
X035617Y006907D01*
X035642Y007020D01*
X035653Y007113D01*
X034705Y007113D01*
X034705Y007273D01*
X034545Y007273D01*
X034545Y008221D01*
X034452Y008210D01*
X034340Y008184D01*
X034230Y008146D01*
X034126Y008096D01*
X033903Y007927D02*
X030000Y007927D01*
X030032Y007911D02*
X029965Y007945D01*
X029894Y007968D01*
X029820Y007980D01*
X029801Y007980D01*
X029801Y007522D01*
X030259Y007522D01*
X030259Y007541D01*
X030247Y007615D01*
X030224Y007686D01*
X030190Y007753D01*
X030146Y007814D01*
X030093Y007867D01*
X030032Y007911D01*
X030179Y007769D02*
X033771Y007769D01*
X033683Y007610D02*
X030248Y007610D01*
X030259Y007485D02*
X029801Y007485D01*
X029801Y007522D01*
X029764Y007522D01*
X029764Y007980D01*
X029745Y007980D01*
X029671Y007968D01*
X029599Y007945D01*
X029532Y007911D01*
X029472Y007867D01*
X029418Y007814D01*
X029374Y007753D01*
X029340Y007686D01*
X029317Y007615D01*
X029305Y007541D01*
X029305Y007522D01*
X029764Y007522D01*
X029764Y007485D01*
X029801Y007485D01*
X029801Y007026D01*
X029820Y007026D01*
X029894Y007038D01*
X029965Y007061D01*
X030032Y007095D01*
X030093Y007140D01*
X030146Y007193D01*
X030190Y007253D01*
X030224Y007320D01*
X030247Y007392D01*
X030259Y007466D01*
X030259Y007485D01*
X030257Y007452D02*
X033628Y007452D01*
X033600Y007293D02*
X030210Y007293D01*
X030086Y007135D02*
X034545Y007135D01*
X034545Y007293D02*
X034705Y007293D01*
X034705Y007273D02*
X034705Y008221D01*
X034798Y008210D01*
X034911Y008184D01*
X035020Y008146D01*
X035124Y008096D01*
X035222Y008034D01*
X035313Y007962D01*
X035394Y007880D01*
X035467Y007790D01*
X035528Y007692D01*
X035578Y007588D01*
X035617Y007479D01*
X035642Y007366D01*
X035653Y007273D01*
X034705Y007273D01*
X034705Y007135D02*
X036622Y007135D01*
X036622Y007293D02*
X035650Y007293D01*
X035623Y007452D02*
X036622Y007452D01*
X036622Y007610D02*
X035568Y007610D01*
X035480Y007769D02*
X036622Y007769D01*
X036622Y007927D02*
X035348Y007927D01*
X035140Y008086D02*
X036622Y008086D01*
X036622Y008244D02*
X022797Y008244D01*
X022797Y008086D02*
X024285Y008086D01*
X024301Y008096D02*
X024203Y008034D01*
X024113Y007962D01*
X024031Y007880D01*
X023959Y007790D01*
X023897Y007692D01*
X023847Y007588D01*
X023809Y007479D01*
X023783Y007366D01*
X023773Y007273D01*
X024720Y007273D01*
X024720Y008221D01*
X024627Y008210D01*
X024515Y008184D01*
X024405Y008146D01*
X024301Y008096D01*
X024078Y007927D02*
X022797Y007927D01*
X022797Y007769D02*
X023945Y007769D01*
X023858Y007610D02*
X022797Y007610D01*
X022797Y007452D02*
X023803Y007452D01*
X023775Y007293D02*
X022797Y007293D01*
X022797Y007135D02*
X024720Y007135D01*
X024720Y007293D02*
X024880Y007293D01*
X024880Y007135D02*
X029478Y007135D01*
X029472Y007140D02*
X029532Y007095D01*
X029599Y007061D01*
X029671Y007038D01*
X029745Y007026D01*
X029764Y007026D01*
X029764Y007485D01*
X029305Y007485D01*
X029305Y007466D01*
X029317Y007392D01*
X029340Y007320D01*
X029374Y007253D01*
X029418Y007193D01*
X029472Y007140D01*
X029354Y007293D02*
X025825Y007293D01*
X025798Y007452D02*
X029308Y007452D01*
X029316Y007610D02*
X025743Y007610D01*
X025655Y007769D02*
X029386Y007769D01*
X029564Y007927D02*
X025523Y007927D01*
X024880Y007927D02*
X024720Y007927D01*
X024720Y007769D02*
X024880Y007769D01*
X024880Y007610D02*
X024720Y007610D01*
X024720Y007452D02*
X024880Y007452D01*
X024880Y006976D02*
X024720Y006976D01*
X024720Y006817D02*
X024880Y006817D01*
X024880Y006659D02*
X024720Y006659D01*
X024720Y006500D02*
X024880Y006500D01*
X024880Y006342D02*
X024720Y006342D01*
X024720Y006183D02*
X024880Y006183D01*
X025005Y006183D02*
X034421Y006183D01*
X034545Y006183D02*
X034705Y006183D01*
X034830Y006183D02*
X036622Y006183D01*
X036622Y006025D02*
X022797Y006025D01*
X022797Y006183D02*
X024596Y006183D01*
X024219Y006342D02*
X022797Y006342D01*
X022797Y006500D02*
X024036Y006500D01*
X023919Y006659D02*
X022797Y006659D01*
X022797Y006817D02*
X023840Y006817D01*
X023793Y006976D02*
X022797Y006976D01*
X022797Y005866D02*
X042447Y005866D01*
X042497Y005866D02*
X052401Y005866D01*
X052411Y005822D02*
X052447Y005719D01*
X052494Y005620D01*
X052552Y005528D01*
X052620Y005443D01*
X052697Y005366D01*
X052782Y005298D01*
X052875Y005240D01*
X052973Y005193D01*
X053076Y005157D01*
X053182Y005132D01*
X053265Y005123D01*
X053265Y006011D01*
X052377Y006011D01*
X052386Y005928D01*
X052411Y005822D01*
X052452Y005708D02*
X042497Y005708D01*
X042447Y005708D02*
X022797Y005708D01*
X022722Y005708D02*
X006993Y005708D01*
X006999Y005719D02*
X007035Y005822D01*
X007059Y005928D01*
X007068Y006011D01*
X006181Y006011D01*
X006181Y006171D01*
X007068Y006171D01*
X007059Y006254D01*
X007035Y006360D01*
X006999Y006463D01*
X006951Y006561D01*
X006893Y006653D01*
X006826Y006738D01*
X006748Y006816D01*
X006663Y006883D01*
X006571Y006941D01*
X006473Y006989D01*
X006370Y007025D01*
X006264Y007049D01*
X006181Y007058D01*
X006181Y006171D01*
X006021Y006171D01*
X006021Y007058D01*
X005938Y007049D01*
X005832Y007025D01*
X005729Y006989D01*
X005630Y006941D01*
X005538Y006883D01*
X005453Y006816D01*
X005376Y006738D01*
X005308Y006653D01*
X005250Y006561D01*
X005203Y006463D01*
X005167Y006360D01*
X005142Y006254D01*
X005133Y006171D01*
X006021Y006171D01*
X006021Y006011D01*
X006181Y006011D01*
X006181Y005123D01*
X006264Y005132D01*
X006370Y005157D01*
X006473Y005193D01*
X006571Y005240D01*
X006663Y005298D01*
X006748Y005366D01*
X006826Y005443D01*
X006893Y005528D01*
X006951Y005620D01*
X006999Y005719D01*
X007045Y005866D02*
X022722Y005866D01*
X022722Y005549D02*
X006907Y005549D01*
X006773Y005391D02*
X022722Y005391D01*
X022797Y005391D02*
X042447Y005391D01*
X042497Y005391D02*
X052672Y005391D01*
X052539Y005549D02*
X042497Y005549D01*
X042447Y005549D02*
X022797Y005549D01*
X022797Y005232D02*
X042447Y005232D01*
X042497Y005232D02*
X052891Y005232D01*
X053265Y005232D02*
X053425Y005232D01*
X053425Y005123D02*
X053508Y005132D01*
X053614Y005157D01*
X053717Y005193D01*
X053815Y005240D01*
X053907Y005298D01*
X053993Y005366D01*
X054070Y005443D01*
X054138Y005528D01*
X054196Y005620D01*
X054243Y005719D01*
X054279Y005822D01*
X054303Y005928D01*
X054312Y006011D01*
X053425Y006011D01*
X053425Y006171D01*
X053265Y006171D01*
X053265Y007058D01*
X053182Y007049D01*
X053076Y007025D01*
X052973Y006989D01*
X052875Y006941D01*
X052782Y006883D01*
X052697Y006816D01*
X052620Y006738D01*
X052552Y006653D01*
X052494Y006561D01*
X052447Y006463D01*
X052411Y006360D01*
X052386Y006254D01*
X052377Y006171D01*
X053265Y006171D01*
X053265Y006011D01*
X053425Y006011D01*
X053425Y005123D01*
X053425Y005391D02*
X053265Y005391D01*
X053265Y005549D02*
X053425Y005549D01*
X053425Y005708D02*
X053265Y005708D01*
X053265Y005866D02*
X053425Y005866D01*
X053425Y006025D02*
X055173Y006025D01*
X055173Y006183D02*
X054311Y006183D01*
X054312Y006171D02*
X054303Y006254D01*
X054279Y006360D01*
X054243Y006463D01*
X054196Y006561D01*
X054138Y006653D01*
X054070Y006738D01*
X053993Y006816D01*
X053907Y006883D01*
X053815Y006941D01*
X053717Y006989D01*
X053614Y007025D01*
X053508Y007049D01*
X053425Y007058D01*
X053425Y006171D01*
X054312Y006171D01*
X054283Y006342D02*
X055173Y006342D01*
X055173Y006500D02*
X054225Y006500D01*
X054133Y006659D02*
X055173Y006659D01*
X055173Y006817D02*
X053990Y006817D01*
X053743Y006976D02*
X055173Y006976D01*
X055173Y007135D02*
X044565Y007135D01*
X044565Y007113D02*
X044565Y007273D01*
X044405Y007273D01*
X044405Y007113D01*
X043458Y007113D01*
X043468Y007020D01*
X043494Y006907D01*
X043532Y006798D01*
X043582Y006694D01*
X043644Y006596D01*
X043716Y006506D01*
X043798Y006424D01*
X043888Y006352D01*
X043986Y006290D01*
X044090Y006240D01*
X044200Y006202D01*
X044312Y006176D01*
X044405Y006166D01*
X044405Y007113D01*
X044565Y007113D01*
X044565Y006166D01*
X044658Y006176D01*
X044771Y006202D01*
X044880Y006240D01*
X044984Y006290D01*
X045082Y006352D01*
X045173Y006424D01*
X045254Y006506D01*
X045327Y006596D01*
X045388Y006694D01*
X045438Y006798D01*
X045477Y006907D01*
X045502Y007020D01*
X045513Y007113D01*
X044565Y007113D01*
X044565Y006976D02*
X044405Y006976D01*
X044405Y006817D02*
X044565Y006817D01*
X044565Y006659D02*
X044405Y006659D01*
X044405Y006500D02*
X044565Y006500D01*
X044565Y006342D02*
X044405Y006342D01*
X044405Y006183D02*
X044565Y006183D01*
X044690Y006183D02*
X052379Y006183D01*
X052407Y006342D02*
X045066Y006342D01*
X045249Y006500D02*
X052465Y006500D01*
X052557Y006659D02*
X045366Y006659D01*
X045445Y006817D02*
X052699Y006817D01*
X052946Y006976D02*
X045492Y006976D01*
X045513Y007273D02*
X044565Y007273D01*
X044565Y008221D01*
X044658Y008210D01*
X044771Y008184D01*
X044880Y008146D01*
X044984Y008096D01*
X045082Y008034D01*
X045173Y007962D01*
X045254Y007880D01*
X045327Y007790D01*
X045388Y007692D01*
X045438Y007588D01*
X045477Y007479D01*
X045502Y007366D01*
X045513Y007273D01*
X045510Y007293D02*
X055173Y007293D01*
X055173Y007452D02*
X045483Y007452D01*
X045428Y007610D02*
X055173Y007610D01*
X055173Y007769D02*
X045340Y007769D01*
X045208Y007927D02*
X055173Y007927D01*
X055173Y008086D02*
X045000Y008086D01*
X044565Y008086D02*
X044405Y008086D01*
X044405Y008221D02*
X044312Y008210D01*
X044200Y008184D01*
X044090Y008146D01*
X043986Y008096D01*
X043888Y008034D01*
X043798Y007962D01*
X043716Y007880D01*
X043644Y007790D01*
X043582Y007692D01*
X043532Y007588D01*
X043494Y007479D01*
X043468Y007366D01*
X043458Y007273D01*
X044405Y007273D01*
X044405Y008221D01*
X044405Y007927D02*
X044565Y007927D01*
X044565Y007769D02*
X044405Y007769D01*
X044405Y007610D02*
X044565Y007610D01*
X044565Y007452D02*
X044405Y007452D01*
X044405Y007293D02*
X044565Y007293D01*
X044405Y007135D02*
X042497Y007135D01*
X042497Y007293D02*
X043460Y007293D01*
X043488Y007452D02*
X042497Y007452D01*
X042497Y007610D02*
X043543Y007610D01*
X043631Y007769D02*
X042497Y007769D01*
X042497Y007927D02*
X043763Y007927D01*
X043970Y008086D02*
X042497Y008086D01*
X042497Y008244D02*
X055173Y008244D01*
X055173Y008403D02*
X042497Y008403D01*
X042497Y008561D02*
X055173Y008561D01*
X055173Y008720D02*
X020248Y008720D01*
X020356Y008879D02*
X055173Y008879D01*
X055173Y009037D02*
X020398Y009037D01*
X020395Y009196D02*
X055173Y009196D01*
X055173Y009354D02*
X020329Y009354D01*
X019431Y009354D02*
X004272Y009354D01*
X004272Y009196D02*
X019365Y009196D01*
X019362Y009037D02*
X004272Y009037D01*
X004272Y008879D02*
X019405Y008879D01*
X019512Y008720D02*
X004272Y008720D01*
X004272Y008561D02*
X016947Y008561D01*
X016947Y008403D02*
X004272Y008403D01*
X004272Y008244D02*
X016947Y008244D01*
X016947Y008086D02*
X015455Y008086D01*
X015439Y008096D02*
X015335Y008146D01*
X015226Y008184D01*
X015113Y008210D01*
X015020Y008221D01*
X015020Y007273D01*
X014860Y007273D01*
X014860Y007113D01*
X013913Y007113D01*
X013923Y007020D01*
X013949Y006907D01*
X013987Y006798D01*
X014037Y006694D01*
X014099Y006596D01*
X014171Y006506D01*
X014253Y006424D01*
X014343Y006352D01*
X014441Y006290D01*
X014545Y006240D01*
X014655Y006202D01*
X014767Y006176D01*
X014860Y006166D01*
X014860Y007113D01*
X015020Y007113D01*
X015020Y006166D01*
X015113Y006176D01*
X015226Y006202D01*
X015335Y006240D01*
X015439Y006290D01*
X015537Y006352D01*
X015628Y006424D01*
X015709Y006506D01*
X015782Y006596D01*
X015843Y006694D01*
X015893Y006798D01*
X015931Y006907D01*
X015957Y007020D01*
X015968Y007113D01*
X015020Y007113D01*
X015020Y007273D01*
X015968Y007273D01*
X015957Y007366D01*
X015931Y007479D01*
X015893Y007588D01*
X015843Y007692D01*
X015782Y007790D01*
X015709Y007880D01*
X015628Y007962D01*
X015537Y008034D01*
X015439Y008096D01*
X015663Y007927D02*
X016947Y007927D01*
X016947Y007769D02*
X015795Y007769D01*
X015883Y007610D02*
X016947Y007610D01*
X016947Y007452D02*
X015938Y007452D01*
X015965Y007293D02*
X016947Y007293D01*
X016947Y007135D02*
X015020Y007135D01*
X015020Y007293D02*
X014860Y007293D01*
X014860Y007273D02*
X014860Y008221D01*
X014767Y008210D01*
X014655Y008184D01*
X014545Y008146D01*
X014441Y008096D01*
X014343Y008034D01*
X014253Y007962D01*
X014171Y007880D01*
X014099Y007790D01*
X014037Y007692D01*
X013987Y007588D01*
X013949Y007479D01*
X013923Y007366D01*
X013913Y007273D01*
X014860Y007273D01*
X014860Y007135D02*
X004272Y007135D01*
X004272Y007293D02*
X013915Y007293D01*
X013943Y007452D02*
X004272Y007452D01*
X004272Y007610D02*
X013998Y007610D01*
X014085Y007769D02*
X004272Y007769D01*
X004272Y007927D02*
X014218Y007927D01*
X014425Y008086D02*
X004272Y008086D01*
X004272Y006976D02*
X005702Y006976D01*
X005455Y006817D02*
X004272Y006817D01*
X004272Y006659D02*
X005312Y006659D01*
X005221Y006500D02*
X004272Y006500D01*
X004272Y006342D02*
X005163Y006342D01*
X005134Y006183D02*
X004272Y006183D01*
X004272Y006025D02*
X006021Y006025D01*
X006021Y006011D02*
X005133Y006011D01*
X005142Y005928D01*
X005167Y005822D01*
X005203Y005719D01*
X005250Y005620D01*
X005308Y005528D01*
X005376Y005443D01*
X005453Y005366D01*
X005538Y005298D01*
X005630Y005240D01*
X005729Y005193D01*
X005832Y005157D01*
X005938Y005132D01*
X006021Y005123D01*
X006021Y006011D01*
X006021Y005866D02*
X006181Y005866D01*
X006181Y005708D02*
X006021Y005708D01*
X006021Y005549D02*
X006181Y005549D01*
X006181Y005391D02*
X006021Y005391D01*
X006021Y005232D02*
X006181Y005232D01*
X006554Y005232D02*
X022722Y005232D01*
X022722Y005073D02*
X004272Y005073D01*
X004272Y004915D02*
X022722Y004915D01*
X022797Y004915D02*
X042447Y004915D01*
X042497Y004915D02*
X055173Y004915D01*
X055173Y005073D02*
X042497Y005073D01*
X042447Y005073D02*
X022797Y005073D01*
X022797Y004756D02*
X042447Y004756D01*
X042497Y004756D02*
X055173Y004756D01*
X055173Y004598D02*
X042497Y004598D01*
X042447Y004598D02*
X022797Y004598D01*
X022722Y004598D02*
X004272Y004598D01*
X004272Y004756D02*
X022722Y004756D01*
X022722Y004439D02*
X004272Y004439D01*
X004272Y004281D02*
X022722Y004281D01*
X022797Y004281D02*
X042447Y004281D01*
X042497Y004281D02*
X055173Y004281D01*
X055173Y004439D02*
X042497Y004439D01*
X042447Y004439D02*
X022797Y004439D01*
X025381Y006342D02*
X034044Y006342D01*
X033861Y006500D02*
X025564Y006500D01*
X025681Y006659D02*
X033744Y006659D01*
X033665Y006817D02*
X025760Y006817D01*
X025807Y006976D02*
X033618Y006976D01*
X034545Y006976D02*
X034705Y006976D01*
X034705Y006817D02*
X034545Y006817D01*
X034545Y006659D02*
X034705Y006659D01*
X034705Y006500D02*
X034545Y006500D01*
X034545Y006342D02*
X034705Y006342D01*
X035206Y006342D02*
X036622Y006342D01*
X036622Y006500D02*
X035389Y006500D01*
X035506Y006659D02*
X036622Y006659D01*
X036622Y006817D02*
X035585Y006817D01*
X035632Y006976D02*
X036622Y006976D01*
X036622Y008403D02*
X022797Y008403D01*
X022797Y008561D02*
X036622Y008561D01*
X034705Y008086D02*
X034545Y008086D01*
X034545Y007927D02*
X034705Y007927D01*
X034705Y007769D02*
X034545Y007769D01*
X034545Y007610D02*
X034705Y007610D01*
X034705Y007452D02*
X034545Y007452D01*
X039034Y010622D02*
X039153Y010622D01*
X039161Y011415D02*
X039025Y011415D01*
X039002Y012842D02*
X039185Y012842D01*
X039802Y012842D02*
X040085Y012842D01*
X040029Y013635D02*
X039857Y013635D01*
X039129Y013635D02*
X039057Y013635D01*
X038329Y013635D02*
X037924Y013635D01*
X038096Y013476D02*
X038220Y013476D01*
X033353Y012366D02*
X032266Y012366D01*
X032266Y012525D02*
X033173Y012525D01*
X033071Y012684D02*
X032251Y012684D01*
X032186Y012842D02*
X033005Y012842D01*
X032999Y013001D02*
X032072Y013001D01*
X031865Y013159D02*
X033003Y013159D01*
X029801Y007927D02*
X029764Y007927D01*
X029764Y007769D02*
X029801Y007769D01*
X029801Y007610D02*
X029764Y007610D01*
X029764Y007452D02*
X029801Y007452D01*
X029801Y007293D02*
X029764Y007293D01*
X029764Y007135D02*
X029801Y007135D01*
X024880Y008086D02*
X024720Y008086D01*
X023857Y009671D02*
X022387Y009671D01*
X022562Y009830D02*
X023682Y009830D01*
X023617Y009988D02*
X022627Y009988D01*
X022640Y010147D02*
X023604Y010147D01*
X023637Y010305D02*
X022607Y010305D01*
X022513Y010464D02*
X023731Y010464D01*
X020694Y013318D02*
X004272Y013318D01*
X004272Y013476D02*
X020622Y013476D01*
X018718Y013793D02*
X017526Y013793D01*
X017612Y013952D02*
X018632Y013952D01*
X018604Y014110D02*
X017640Y014110D01*
X017622Y014269D02*
X018622Y014269D01*
X018695Y014428D02*
X017550Y014428D01*
X017356Y014586D02*
X018888Y014586D01*
X016888Y014586D02*
X014356Y014586D01*
X014550Y014428D02*
X016695Y014428D01*
X016622Y014269D02*
X014622Y014269D01*
X014640Y014110D02*
X016604Y014110D01*
X016632Y013952D02*
X014612Y013952D01*
X014526Y013793D02*
X016718Y013793D01*
X015792Y012525D02*
X014452Y012525D01*
X014416Y012561D02*
X014225Y012640D01*
X014019Y012640D01*
X013829Y012561D01*
X013683Y012416D01*
X013604Y012225D01*
X013604Y012019D01*
X013683Y011829D01*
X013829Y011683D01*
X014019Y011604D01*
X014225Y011604D01*
X014416Y011683D01*
X014561Y011829D01*
X014640Y012019D01*
X014640Y012225D01*
X014561Y012416D01*
X014416Y012561D01*
X014582Y012366D02*
X015663Y012366D01*
X015604Y012208D02*
X014640Y012208D01*
X014640Y012049D02*
X015604Y012049D01*
X015657Y011891D02*
X014587Y011891D01*
X014465Y011732D02*
X015779Y011732D01*
X015731Y010464D02*
X014513Y010464D01*
X014607Y010305D02*
X015637Y010305D01*
X015604Y010147D02*
X014640Y010147D01*
X014627Y009988D02*
X015617Y009988D01*
X015682Y009830D02*
X014562Y009830D01*
X014387Y009671D02*
X015857Y009671D01*
X016387Y009671D02*
X017857Y009671D01*
X017682Y009830D02*
X016562Y009830D01*
X016627Y009988D02*
X017617Y009988D01*
X017604Y010147D02*
X016640Y010147D01*
X016607Y010305D02*
X017637Y010305D01*
X017731Y010464D02*
X016513Y010464D01*
X013857Y009671D02*
X012387Y009671D01*
X012562Y009830D02*
X013682Y009830D01*
X013617Y009988D02*
X012627Y009988D01*
X012640Y010147D02*
X013604Y010147D01*
X013637Y010305D02*
X012607Y010305D01*
X012513Y010464D02*
X013731Y010464D01*
X013779Y011732D02*
X012465Y011732D01*
X012587Y011891D02*
X013657Y011891D01*
X013604Y012049D02*
X012640Y012049D01*
X012640Y012208D02*
X013604Y012208D01*
X013663Y012366D02*
X012582Y012366D01*
X012452Y012525D02*
X013792Y012525D01*
X013718Y013793D02*
X012526Y013793D01*
X012612Y013952D02*
X013632Y013952D01*
X013604Y014110D02*
X012640Y014110D01*
X012622Y014269D02*
X013622Y014269D01*
X013695Y014428D02*
X012550Y014428D01*
X012356Y014586D02*
X013888Y014586D01*
X015095Y018074D02*
X015545Y018074D01*
X015379Y018233D02*
X015261Y018233D01*
X015303Y018708D02*
X015337Y018708D01*
X015433Y018867D02*
X015207Y018867D01*
X016207Y018867D02*
X016433Y018867D01*
X016337Y018708D02*
X016303Y018708D01*
X016261Y018233D02*
X016379Y018233D01*
X016545Y018074D02*
X016095Y018074D01*
X017207Y018867D02*
X017233Y018867D01*
X018704Y020928D02*
X008585Y020928D01*
X008585Y021086D02*
X018512Y021086D01*
X018439Y021245D02*
X008585Y021245D01*
X008585Y021403D02*
X018421Y021403D01*
X018449Y021562D02*
X008585Y021562D01*
X008585Y021721D02*
X018536Y021721D01*
X020865Y022196D02*
X021785Y022196D01*
X021806Y022038D02*
X020959Y022038D01*
X021079Y021879D02*
X021883Y021879D01*
X022085Y021721D02*
X021130Y021721D01*
X021047Y022355D02*
X021810Y022355D01*
X021893Y022513D02*
X021115Y022513D01*
X022494Y023782D02*
X028292Y023782D01*
X028138Y023940D02*
X022655Y023940D01*
X022720Y024099D02*
X028073Y024099D01*
X028064Y024257D02*
X022730Y024257D01*
X022694Y024416D02*
X028102Y024416D01*
X028202Y024574D02*
X022596Y024574D01*
X024030Y027111D02*
X039608Y027111D01*
X039402Y027270D02*
X024167Y027270D01*
X024230Y027428D02*
X039302Y027428D01*
X039264Y027587D02*
X024230Y027587D01*
X024182Y027745D02*
X039272Y027745D01*
X039338Y027904D02*
X024067Y027904D01*
X025161Y030916D02*
X025016Y031061D01*
X025020Y031392D02*
X010290Y031392D01*
X010280Y031550D02*
X024933Y031550D01*
X025660Y032184D02*
X046116Y032184D01*
X046104Y032026D02*
X025851Y032026D01*
X025923Y031867D02*
X046138Y031867D01*
X046233Y031709D02*
X025940Y031709D01*
X027329Y033483D02*
X027183Y033629D01*
X027104Y033819D01*
X027104Y034025D01*
X027183Y034216D01*
X027329Y034361D01*
X027519Y034440D01*
X027725Y034440D01*
X027916Y034361D01*
X028061Y034216D01*
X028140Y034025D01*
X028140Y033819D01*
X028061Y033629D01*
X027916Y033483D01*
X027725Y033404D01*
X027519Y033404D01*
X027329Y033483D01*
X027402Y033453D02*
X015389Y033453D01*
X015400Y033611D02*
X027200Y033611D01*
X027124Y033770D02*
X015365Y033770D01*
X015269Y033928D02*
X027104Y033928D01*
X027130Y034087D02*
X015018Y034087D01*
X014747Y034087D02*
X008071Y034087D01*
X008151Y034245D02*
X027213Y034245D01*
X027431Y034404D02*
X008199Y034404D01*
X008219Y034721D02*
X051128Y034721D01*
X051126Y034705D02*
X052074Y034705D01*
X052074Y034545D01*
X052234Y034545D01*
X052234Y034705D01*
X053181Y034705D01*
X053171Y034798D01*
X053145Y034911D01*
X053107Y035020D01*
X053057Y035124D01*
X052995Y035222D01*
X052923Y035313D01*
X052841Y035394D01*
X052751Y035467D01*
X052653Y035528D01*
X052548Y035578D01*
X052439Y035617D01*
X052326Y035642D01*
X052234Y035653D01*
X052234Y034705D01*
X052074Y034705D01*
X052074Y035653D01*
X051981Y035642D01*
X051868Y035617D01*
X051759Y035578D01*
X051655Y035528D01*
X051557Y035467D01*
X051466Y035394D01*
X051384Y035313D01*
X051312Y035222D01*
X051251Y035124D01*
X051201Y035020D01*
X051162Y034911D01*
X051137Y034798D01*
X051126Y034705D01*
X051126Y034545D02*
X051137Y034452D01*
X051162Y034340D01*
X051201Y034230D01*
X051251Y034126D01*
X051312Y034028D01*
X051384Y033938D01*
X051466Y033856D01*
X051557Y033784D01*
X051655Y033722D01*
X051759Y033672D01*
X051868Y033634D01*
X051981Y033608D01*
X052074Y033598D01*
X052074Y034545D01*
X051126Y034545D01*
X051148Y034404D02*
X045503Y034404D01*
X045561Y034346D02*
X045416Y034491D01*
X045225Y034570D01*
X045019Y034570D01*
X044829Y034491D01*
X044683Y034346D01*
X044604Y034155D01*
X044604Y033949D01*
X044683Y033759D01*
X044829Y033613D01*
X045019Y033534D01*
X045225Y033534D01*
X045416Y033613D01*
X045561Y033759D01*
X045640Y033949D01*
X045640Y034155D01*
X045561Y034346D01*
X045603Y034245D02*
X051195Y034245D01*
X051275Y034087D02*
X045640Y034087D01*
X045632Y033928D02*
X046266Y033928D01*
X046329Y033991D02*
X046183Y033846D01*
X046104Y033655D01*
X046104Y033449D01*
X046183Y033259D01*
X046329Y033113D01*
X046519Y033034D01*
X046725Y033034D01*
X046916Y033113D01*
X047061Y033259D01*
X047140Y033449D01*
X047140Y033655D01*
X047061Y033846D01*
X046916Y033991D01*
X046725Y034070D01*
X046519Y034070D01*
X046329Y033991D01*
X046152Y033770D02*
X045566Y033770D01*
X045412Y033611D02*
X046104Y033611D01*
X046104Y033453D02*
X037681Y033453D01*
X037654Y033388D02*
X037766Y033657D01*
X037766Y033949D01*
X037654Y034219D01*
X037448Y034425D01*
X037178Y034537D01*
X036886Y034537D01*
X036617Y034425D01*
X036410Y034219D01*
X036299Y033949D01*
X036299Y033657D01*
X036410Y033388D01*
X036617Y033182D01*
X036886Y033070D01*
X037178Y033070D01*
X037448Y033182D01*
X037654Y033388D01*
X037560Y033294D02*
X046168Y033294D01*
X046306Y033136D02*
X037337Y033136D01*
X036728Y033136D02*
X034537Y033136D01*
X034648Y033182D02*
X034854Y033388D01*
X034966Y033657D01*
X034966Y033949D01*
X034854Y034219D01*
X034648Y034425D01*
X034378Y034537D01*
X034086Y034537D01*
X033817Y034425D01*
X033610Y034219D01*
X033499Y033949D01*
X033499Y033657D01*
X033610Y033388D01*
X033817Y033182D01*
X034086Y033070D01*
X034378Y033070D01*
X034648Y033182D01*
X034760Y033294D02*
X035324Y033294D01*
X035321Y033296D02*
X035404Y033253D01*
X035493Y033225D01*
X035574Y033212D01*
X035574Y033745D01*
X035690Y033745D01*
X035690Y033212D01*
X035771Y033225D01*
X035860Y033253D01*
X035943Y033296D01*
X036019Y033351D01*
X036085Y033417D01*
X036140Y033492D01*
X036182Y033576D01*
X036211Y033664D01*
X036224Y033745D01*
X035690Y033745D01*
X035690Y033861D01*
X036224Y033861D01*
X036211Y033942D01*
X036182Y034031D01*
X036140Y034114D01*
X036085Y034190D01*
X036019Y034256D01*
X035943Y034311D01*
X035860Y034353D01*
X035771Y034382D01*
X035690Y034395D01*
X035690Y033861D01*
X035574Y033861D01*
X035574Y033745D01*
X035041Y033745D01*
X035053Y033664D01*
X035082Y033576D01*
X035125Y033492D01*
X035180Y033417D01*
X035246Y033351D01*
X035321Y033296D01*
X035153Y033453D02*
X034881Y033453D01*
X034946Y033611D02*
X035071Y033611D01*
X034966Y033770D02*
X035574Y033770D01*
X035574Y033861D02*
X035041Y033861D01*
X035053Y033942D01*
X035082Y034031D01*
X035125Y034114D01*
X035180Y034190D01*
X035246Y034256D01*
X035321Y034311D01*
X035404Y034353D01*
X035493Y034382D01*
X035574Y034395D01*
X035574Y033861D01*
X035574Y033928D02*
X035690Y033928D01*
X035690Y033770D02*
X036299Y033770D01*
X036299Y033928D02*
X036213Y033928D01*
X036154Y034087D02*
X036356Y034087D01*
X036437Y034245D02*
X036029Y034245D01*
X035690Y034245D02*
X035574Y034245D01*
X035574Y034087D02*
X035690Y034087D01*
X035690Y033611D02*
X035574Y033611D01*
X035574Y033453D02*
X035690Y033453D01*
X035690Y033294D02*
X035574Y033294D01*
X035940Y033294D02*
X036504Y033294D01*
X036384Y033453D02*
X036111Y033453D01*
X036194Y033611D02*
X036318Y033611D01*
X036596Y034404D02*
X034669Y034404D01*
X034827Y034245D02*
X035235Y034245D01*
X035111Y034087D02*
X034909Y034087D01*
X034966Y033928D02*
X035051Y033928D01*
X033928Y033136D02*
X018641Y033136D01*
X018777Y032977D02*
X055173Y032977D01*
X055173Y032819D02*
X018840Y032819D01*
X018003Y033136D02*
X015158Y033136D01*
X015324Y033294D02*
X033704Y033294D01*
X033584Y033453D02*
X028943Y033453D01*
X029016Y033483D02*
X029161Y033629D01*
X029240Y033819D01*
X029240Y034025D01*
X029161Y034216D01*
X029016Y034361D01*
X028825Y034440D01*
X028619Y034440D01*
X028429Y034361D01*
X028283Y034216D01*
X028204Y034025D01*
X028204Y033819D01*
X028283Y033629D01*
X028429Y033483D01*
X028619Y033404D01*
X028825Y033404D01*
X029016Y033483D01*
X029144Y033611D02*
X033518Y033611D01*
X033499Y033770D02*
X029220Y033770D01*
X029240Y033928D02*
X033499Y033928D01*
X033556Y034087D02*
X029215Y034087D01*
X029132Y034245D02*
X033637Y034245D01*
X033796Y034404D02*
X028913Y034404D01*
X028531Y034404D02*
X027813Y034404D01*
X028032Y034245D02*
X028313Y034245D01*
X028230Y034087D02*
X028115Y034087D01*
X028140Y033928D02*
X028204Y033928D01*
X028224Y033770D02*
X028120Y033770D01*
X028044Y033611D02*
X028300Y033611D01*
X028502Y033453D02*
X027843Y033453D01*
X027767Y036523D02*
X027998Y036523D01*
X028211Y036612D01*
X028374Y036775D01*
X028382Y036795D01*
X028391Y036775D01*
X028554Y036612D01*
X028767Y036523D01*
X028998Y036523D01*
X029211Y036612D01*
X029374Y036775D01*
X029382Y036795D01*
X029391Y036775D01*
X029554Y036612D01*
X029767Y036523D01*
X029998Y036523D01*
X030211Y036612D01*
X030374Y036775D01*
X030462Y036988D01*
X030462Y037219D01*
X030374Y037432D01*
X030211Y037595D01*
X029998Y037683D01*
X029767Y037683D01*
X029554Y037595D01*
X029391Y037432D01*
X029382Y037412D01*
X029374Y037432D01*
X029211Y037595D01*
X028998Y037683D01*
X028767Y037683D01*
X028554Y037595D01*
X028391Y037432D01*
X028382Y037412D01*
X028374Y037432D01*
X028211Y037595D01*
X027998Y037683D01*
X027767Y037683D01*
X027554Y037595D01*
X027391Y037432D01*
X027382Y037412D01*
X027374Y037432D01*
X027211Y037595D01*
X026998Y037683D01*
X026767Y037683D01*
X026554Y037595D01*
X026391Y037432D01*
X026382Y037412D01*
X026374Y037432D01*
X026211Y037595D01*
X025998Y037683D01*
X025767Y037683D01*
X025554Y037595D01*
X025391Y037432D01*
X025382Y037412D01*
X025374Y037432D01*
X025211Y037595D01*
X024998Y037683D01*
X024767Y037683D01*
X024554Y037595D01*
X024391Y037432D01*
X024382Y037412D01*
X024374Y037432D01*
X024211Y037595D01*
X023998Y037683D01*
X023767Y037683D01*
X023554Y037595D01*
X023391Y037432D01*
X023382Y037412D01*
X023374Y037432D01*
X023211Y037595D01*
X022998Y037683D01*
X022767Y037683D01*
X022554Y037595D01*
X022391Y037432D01*
X022382Y037412D01*
X022374Y037432D01*
X022211Y037595D01*
X021998Y037683D01*
X021767Y037683D01*
X021554Y037595D01*
X021391Y037432D01*
X021382Y037412D01*
X021374Y037432D01*
X021211Y037595D01*
X020998Y037683D01*
X020767Y037683D01*
X020554Y037595D01*
X020391Y037432D01*
X020305Y037226D01*
X020290Y037272D01*
X020259Y037334D01*
X020218Y037390D01*
X020169Y037439D01*
X020113Y037480D01*
X020051Y037511D01*
X019985Y037532D01*
X019917Y037543D01*
X019882Y037543D01*
X019848Y037543D01*
X019779Y037532D01*
X019713Y037511D01*
X019652Y037480D01*
X019596Y037439D01*
X019547Y037390D01*
X019506Y037334D01*
X019474Y037272D01*
X019459Y037226D01*
X019374Y037432D01*
X019211Y037595D01*
X018998Y037683D01*
X018767Y037683D01*
X018554Y037595D01*
X018391Y037432D01*
X018382Y037412D01*
X018374Y037432D01*
X018211Y037595D01*
X017998Y037683D01*
X017767Y037683D01*
X017554Y037595D01*
X017391Y037432D01*
X017382Y037412D01*
X017374Y037432D01*
X017211Y037595D01*
X016998Y037683D01*
X016767Y037683D01*
X016554Y037595D01*
X016391Y037432D01*
X016305Y037226D01*
X016290Y037272D01*
X016259Y037334D01*
X016218Y037390D01*
X016169Y037439D01*
X016113Y037480D01*
X016051Y037511D01*
X015985Y037532D01*
X015917Y037543D01*
X015882Y037543D01*
X015848Y037543D01*
X015779Y037532D01*
X015713Y037511D01*
X015652Y037480D01*
X015596Y037439D01*
X015547Y037390D01*
X015506Y037334D01*
X015474Y037272D01*
X015459Y037226D01*
X015374Y037432D01*
X015211Y037595D01*
X014998Y037683D01*
X014767Y037683D01*
X014554Y037595D01*
X014391Y037432D01*
X014382Y037412D01*
X014374Y037432D01*
X014211Y037595D01*
X013998Y037683D01*
X013767Y037683D01*
X013554Y037595D01*
X013391Y037432D01*
X013382Y037412D01*
X013374Y037432D01*
X013211Y037595D01*
X012998Y037683D01*
X012767Y037683D01*
X012554Y037595D01*
X012391Y037432D01*
X012382Y037412D01*
X012374Y037432D01*
X012211Y037595D01*
X011998Y037683D01*
X011767Y037683D01*
X011554Y037595D01*
X011391Y037432D01*
X011382Y037412D01*
X011374Y037432D01*
X011211Y037595D01*
X010998Y037683D01*
X010767Y037683D01*
X010554Y037595D01*
X010391Y037432D01*
X010302Y037219D01*
X010302Y036988D01*
X010391Y036775D01*
X010554Y036612D01*
X010767Y036523D01*
X010998Y036523D01*
X011211Y036612D01*
X011374Y036775D01*
X011382Y036795D01*
X011391Y036775D01*
X011554Y036612D01*
X011767Y036523D01*
X011998Y036523D01*
X012211Y036612D01*
X012374Y036775D01*
X012382Y036795D01*
X012391Y036775D01*
X012554Y036612D01*
X012767Y036523D01*
X012998Y036523D01*
X013211Y036612D01*
X013374Y036775D01*
X013382Y036795D01*
X013391Y036775D01*
X013554Y036612D01*
X013767Y036523D01*
X013998Y036523D01*
X014211Y036612D01*
X014374Y036775D01*
X014382Y036795D01*
X014391Y036775D01*
X014554Y036612D01*
X014767Y036523D01*
X014998Y036523D01*
X015211Y036612D01*
X015374Y036775D01*
X015459Y036981D01*
X015474Y036934D01*
X015506Y036873D01*
X015547Y036817D01*
X015596Y036768D01*
X015652Y036727D01*
X015713Y036696D01*
X015779Y036674D01*
X015848Y036663D01*
X015882Y036663D01*
X015882Y037103D01*
X015882Y037103D01*
X015882Y036663D01*
X015917Y036663D01*
X015985Y036674D01*
X016051Y036696D01*
X016113Y036727D01*
X016169Y036768D01*
X016218Y036817D01*
X016259Y036873D01*
X016290Y036934D01*
X016305Y036981D01*
X016391Y036775D01*
X016554Y036612D01*
X016767Y036523D01*
X016998Y036523D01*
X017211Y036612D01*
X017374Y036775D01*
X017382Y036795D01*
X017391Y036775D01*
X017554Y036612D01*
X017767Y036523D01*
X017998Y036523D01*
X018211Y036612D01*
X018374Y036775D01*
X018382Y036795D01*
X018391Y036775D01*
X018554Y036612D01*
X018767Y036523D01*
X018998Y036523D01*
X019211Y036612D01*
X019374Y036775D01*
X019459Y036981D01*
X019474Y036934D01*
X019506Y036873D01*
X019547Y036817D01*
X019596Y036768D01*
X019652Y036727D01*
X019713Y036696D01*
X019779Y036674D01*
X019848Y036663D01*
X019882Y036663D01*
X019882Y037103D01*
X019882Y037103D01*
X019882Y036663D01*
X019917Y036663D01*
X019985Y036674D01*
X020051Y036696D01*
X020113Y036727D01*
X020169Y036768D01*
X020218Y036817D01*
X020259Y036873D01*
X020290Y036934D01*
X020305Y036981D01*
X020391Y036775D01*
X020554Y036612D01*
X020767Y036523D01*
X020998Y036523D01*
X021211Y036612D01*
X021374Y036775D01*
X021382Y036795D01*
X021391Y036775D01*
X021554Y036612D01*
X021767Y036523D01*
X021998Y036523D01*
X022211Y036612D01*
X022374Y036775D01*
X022382Y036795D01*
X022391Y036775D01*
X022554Y036612D01*
X022767Y036523D01*
X022998Y036523D01*
X023211Y036612D01*
X023374Y036775D01*
X023382Y036795D01*
X023391Y036775D01*
X023554Y036612D01*
X023767Y036523D01*
X023998Y036523D01*
X024211Y036612D01*
X024374Y036775D01*
X024382Y036795D01*
X024391Y036775D01*
X024554Y036612D01*
X024767Y036523D01*
X024998Y036523D01*
X025211Y036612D01*
X025374Y036775D01*
X025382Y036795D01*
X025391Y036775D01*
X025554Y036612D01*
X025767Y036523D01*
X025998Y036523D01*
X026211Y036612D01*
X026374Y036775D01*
X026382Y036795D01*
X026391Y036775D01*
X026554Y036612D01*
X026767Y036523D01*
X026998Y036523D01*
X027211Y036612D01*
X027374Y036775D01*
X027382Y036795D01*
X027391Y036775D01*
X027554Y036612D01*
X027767Y036523D01*
X027542Y036624D02*
X027223Y036624D01*
X027377Y036782D02*
X027387Y036782D01*
X028223Y036624D02*
X028542Y036624D01*
X028387Y036782D02*
X028377Y036782D01*
X028380Y037416D02*
X028384Y037416D01*
X028534Y037575D02*
X028231Y037575D01*
X027534Y037575D02*
X027231Y037575D01*
X027380Y037416D02*
X027384Y037416D01*
X026534Y037575D02*
X026231Y037575D01*
X026380Y037416D02*
X026384Y037416D01*
X025534Y037575D02*
X025231Y037575D01*
X025380Y037416D02*
X025384Y037416D01*
X024534Y037575D02*
X024231Y037575D01*
X024380Y037416D02*
X024384Y037416D01*
X024377Y036782D02*
X024387Y036782D01*
X024542Y036624D02*
X024223Y036624D01*
X023542Y036624D02*
X023223Y036624D01*
X023377Y036782D02*
X023387Y036782D01*
X023380Y037416D02*
X023384Y037416D01*
X023534Y037575D02*
X023231Y037575D01*
X022534Y037575D02*
X022231Y037575D01*
X022380Y037416D02*
X022384Y037416D01*
X021534Y037575D02*
X021231Y037575D01*
X021380Y037416D02*
X021384Y037416D01*
X021377Y036782D02*
X021387Y036782D01*
X021542Y036624D02*
X021223Y036624D01*
X020542Y036624D02*
X019223Y036624D01*
X019377Y036782D02*
X019581Y036782D01*
X019472Y036941D02*
X019443Y036941D01*
X019446Y037258D02*
X019470Y037258D01*
X019380Y037416D02*
X019573Y037416D01*
X019882Y037416D02*
X019882Y037416D01*
X019882Y037543D02*
X019882Y037104D01*
X019882Y037104D01*
X019882Y037543D01*
X019882Y037258D02*
X019882Y037258D01*
X019882Y037099D02*
X019882Y037099D01*
X019882Y036941D02*
X019882Y036941D01*
X019882Y036782D02*
X019882Y036782D01*
X020183Y036782D02*
X020387Y036782D01*
X020322Y036941D02*
X020292Y036941D01*
X020295Y037258D02*
X020318Y037258D01*
X020384Y037416D02*
X020191Y037416D01*
X020534Y037575D02*
X019231Y037575D01*
X018534Y037575D02*
X018231Y037575D01*
X018380Y037416D02*
X018384Y037416D01*
X017534Y037575D02*
X017231Y037575D01*
X017380Y037416D02*
X017384Y037416D01*
X017377Y036782D02*
X017387Y036782D01*
X017542Y036624D02*
X017223Y036624D01*
X018223Y036624D02*
X018542Y036624D01*
X018387Y036782D02*
X018377Y036782D01*
X016542Y036624D02*
X015223Y036624D01*
X015377Y036782D02*
X015581Y036782D01*
X015472Y036941D02*
X015443Y036941D01*
X015446Y037258D02*
X015470Y037258D01*
X015380Y037416D02*
X015573Y037416D01*
X015882Y037416D02*
X015882Y037416D01*
X015882Y037543D02*
X015882Y037104D01*
X015882Y037104D01*
X015882Y037543D01*
X015882Y037258D02*
X015882Y037258D01*
X015882Y037099D02*
X015882Y037099D01*
X015882Y036941D02*
X015882Y036941D01*
X015882Y036782D02*
X015882Y036782D01*
X016183Y036782D02*
X016387Y036782D01*
X016322Y036941D02*
X016292Y036941D01*
X016295Y037258D02*
X016318Y037258D01*
X016384Y037416D02*
X016191Y037416D01*
X016534Y037575D02*
X015231Y037575D01*
X014534Y037575D02*
X014231Y037575D01*
X014380Y037416D02*
X014384Y037416D01*
X014377Y036782D02*
X014387Y036782D01*
X014542Y036624D02*
X014223Y036624D01*
X013542Y036624D02*
X013223Y036624D01*
X013377Y036782D02*
X013387Y036782D01*
X012542Y036624D02*
X012223Y036624D01*
X012377Y036782D02*
X012387Y036782D01*
X011542Y036624D02*
X011223Y036624D01*
X011377Y036782D02*
X011387Y036782D01*
X011380Y037416D02*
X011384Y037416D01*
X011534Y037575D02*
X011231Y037575D01*
X010534Y037575D02*
X008585Y037575D01*
X008585Y037733D02*
X033578Y037733D01*
X033586Y037737D02*
X033317Y037625D01*
X033110Y037419D01*
X032999Y037149D01*
X032999Y036857D01*
X033110Y036588D01*
X033317Y036382D01*
X033586Y036270D01*
X033878Y036270D01*
X034148Y036382D01*
X034354Y036588D01*
X034466Y036857D01*
X034466Y037149D01*
X034354Y037419D01*
X034148Y037625D01*
X033878Y037737D01*
X033586Y037737D01*
X033886Y037733D02*
X037378Y037733D01*
X037386Y037737D02*
X037117Y037625D01*
X036910Y037419D01*
X036799Y037149D01*
X036799Y036857D01*
X036910Y036588D01*
X037117Y036382D01*
X037386Y036270D01*
X037678Y036270D01*
X037948Y036382D01*
X038154Y036588D01*
X038266Y036857D01*
X038266Y037149D01*
X038154Y037419D01*
X037948Y037625D01*
X037678Y037737D01*
X037386Y037737D01*
X037686Y037733D02*
X046321Y037733D01*
X046329Y037741D02*
X046183Y037596D01*
X046104Y037405D01*
X046104Y037199D01*
X046183Y037009D01*
X046329Y036863D01*
X046519Y036784D01*
X046725Y036784D01*
X046916Y036863D01*
X047061Y037009D01*
X047140Y037199D01*
X047140Y037405D01*
X047061Y037596D01*
X046916Y037741D01*
X046725Y037820D01*
X046519Y037820D01*
X046329Y037741D01*
X046174Y037575D02*
X037998Y037575D01*
X038155Y037416D02*
X046109Y037416D01*
X046104Y037258D02*
X038221Y037258D01*
X038266Y037099D02*
X039930Y037099D01*
X039839Y037061D02*
X039693Y036916D01*
X039614Y036725D01*
X039614Y036519D01*
X039693Y036329D01*
X039839Y036183D01*
X040029Y036104D01*
X040235Y036104D01*
X040426Y036183D01*
X040571Y036329D01*
X040650Y036519D01*
X040650Y036725D01*
X040571Y036916D01*
X040426Y037061D01*
X040235Y037140D01*
X040029Y037140D01*
X039839Y037061D01*
X039718Y036941D02*
X038266Y036941D01*
X038234Y036782D02*
X039638Y036782D01*
X039614Y036624D02*
X038169Y036624D01*
X038031Y036465D02*
X039636Y036465D01*
X039715Y036306D02*
X037766Y036306D01*
X037298Y036306D02*
X033966Y036306D01*
X034231Y036465D02*
X037033Y036465D01*
X036896Y036624D02*
X034369Y036624D01*
X034434Y036782D02*
X036830Y036782D01*
X036799Y036941D02*
X034466Y036941D01*
X034466Y037099D02*
X036799Y037099D01*
X036844Y037258D02*
X034421Y037258D01*
X034355Y037416D02*
X036909Y037416D01*
X037067Y037575D02*
X034198Y037575D01*
X033267Y037575D02*
X030231Y037575D01*
X030380Y037416D02*
X033109Y037416D01*
X033044Y037258D02*
X030446Y037258D01*
X030462Y037099D02*
X032999Y037099D01*
X032999Y036941D02*
X030443Y036941D01*
X030377Y036782D02*
X033030Y036782D01*
X033096Y036624D02*
X030223Y036624D01*
X029542Y036624D02*
X029223Y036624D01*
X029377Y036782D02*
X029387Y036782D01*
X029380Y037416D02*
X029384Y037416D01*
X029534Y037575D02*
X029231Y037575D01*
X027176Y039733D02*
X027321Y039879D01*
X027400Y040069D01*
X027400Y040275D01*
X027321Y040466D01*
X027176Y040611D01*
X026985Y040690D01*
X026779Y040690D01*
X026589Y040611D01*
X026443Y040466D01*
X026382Y040319D01*
X026321Y040466D01*
X026176Y040611D01*
X025985Y040690D01*
X025779Y040690D01*
X025589Y040611D01*
X025443Y040466D01*
X025382Y040319D01*
X025321Y040466D01*
X025176Y040611D01*
X024985Y040690D01*
X024779Y040690D01*
X024589Y040611D01*
X024443Y040466D01*
X024382Y040319D01*
X024321Y040466D01*
X024176Y040611D01*
X023985Y040690D01*
X023779Y040690D01*
X023589Y040611D01*
X023443Y040466D01*
X023382Y040319D01*
X023321Y040466D01*
X023176Y040611D01*
X022985Y040690D01*
X022779Y040690D01*
X022589Y040611D01*
X022443Y040466D01*
X022382Y040319D01*
X022321Y040466D01*
X022176Y040611D01*
X021985Y040690D01*
X021779Y040690D01*
X021589Y040611D01*
X021443Y040466D01*
X021382Y040319D01*
X021321Y040466D01*
X021176Y040611D01*
X020985Y040690D01*
X020779Y040690D01*
X020589Y040611D01*
X020443Y040466D01*
X020382Y040319D01*
X020321Y040466D01*
X020176Y040611D01*
X019985Y040690D01*
X019779Y040690D01*
X019589Y040611D01*
X019443Y040466D01*
X019364Y040275D01*
X019364Y040069D01*
X019443Y039879D01*
X019589Y039733D01*
X019779Y039654D01*
X019985Y039654D01*
X020176Y039733D01*
X020321Y039879D01*
X020382Y040025D01*
X020443Y039879D01*
X020589Y039733D01*
X020779Y039654D01*
X020985Y039654D01*
X021176Y039733D01*
X021321Y039879D01*
X021382Y040025D01*
X021443Y039879D01*
X021589Y039733D01*
X021779Y039654D01*
X021985Y039654D01*
X022176Y039733D01*
X022321Y039879D01*
X022382Y040025D01*
X022443Y039879D01*
X022589Y039733D01*
X022779Y039654D01*
X022985Y039654D01*
X023176Y039733D01*
X023321Y039879D01*
X023382Y040025D01*
X023443Y039879D01*
X023589Y039733D01*
X023779Y039654D01*
X023985Y039654D01*
X024176Y039733D01*
X024321Y039879D01*
X024382Y040025D01*
X024443Y039879D01*
X024589Y039733D01*
X024779Y039654D01*
X024985Y039654D01*
X025176Y039733D01*
X025321Y039879D01*
X025382Y040026D01*
X025443Y039879D01*
X025589Y039733D01*
X025779Y039654D01*
X025985Y039654D01*
X026176Y039733D01*
X026321Y039879D01*
X026382Y040026D01*
X026443Y039879D01*
X026589Y039733D01*
X026779Y039654D01*
X026985Y039654D01*
X027176Y039733D01*
X027237Y039794D02*
X046494Y039794D01*
X046519Y039784D02*
X046725Y039784D01*
X046916Y039863D01*
X047061Y040009D01*
X047140Y040199D01*
X047140Y040405D01*
X047061Y040596D01*
X046916Y040741D01*
X046725Y040820D01*
X046519Y040820D01*
X046329Y040741D01*
X046183Y040596D01*
X046104Y040405D01*
X046104Y040199D01*
X046183Y040009D01*
X046329Y039863D01*
X046519Y039784D01*
X046750Y039794D02*
X050835Y039794D01*
X050835Y039636D02*
X010357Y039636D01*
X010416Y039611D02*
X010269Y039672D01*
X010416Y039733D01*
X010561Y039879D01*
X010640Y040069D01*
X010640Y040275D01*
X010561Y040466D01*
X010416Y040611D01*
X010269Y040672D01*
X010416Y040733D01*
X010561Y040879D01*
X010640Y041069D01*
X010640Y041275D01*
X010561Y041466D01*
X010416Y041611D01*
X010225Y041690D01*
X010019Y041690D01*
X009829Y041611D01*
X009683Y041466D01*
X009604Y041275D01*
X009604Y041069D01*
X009683Y040879D01*
X009829Y040733D01*
X009975Y040672D01*
X009829Y040611D01*
X009683Y040466D01*
X009604Y040275D01*
X009604Y040069D01*
X009683Y039879D01*
X009829Y039733D01*
X009975Y039672D01*
X009829Y039611D01*
X009683Y039466D01*
X009604Y039275D01*
X009604Y039069D01*
X009683Y038879D01*
X009829Y038733D01*
X010019Y038654D01*
X010225Y038654D01*
X010416Y038733D01*
X010561Y038879D01*
X010640Y039069D01*
X010640Y039275D01*
X010561Y039466D01*
X010416Y039611D01*
X010550Y039477D02*
X050835Y039477D01*
X050835Y039319D02*
X046729Y039319D01*
X046725Y039320D02*
X046519Y039320D01*
X046329Y039241D01*
X046183Y039096D01*
X046104Y038905D01*
X046104Y038699D01*
X046183Y038509D01*
X046329Y038363D01*
X046519Y038284D01*
X046725Y038284D01*
X046916Y038363D01*
X047061Y038509D01*
X047140Y038699D01*
X047140Y038905D01*
X047061Y039096D01*
X046916Y039241D01*
X046725Y039320D01*
X046516Y039319D02*
X010622Y039319D01*
X010640Y039160D02*
X046248Y039160D01*
X046144Y039002D02*
X010612Y039002D01*
X010526Y038843D02*
X046104Y038843D01*
X046110Y038685D02*
X010299Y038685D01*
X009945Y038685D02*
X008585Y038685D01*
X008585Y038843D02*
X009718Y038843D01*
X009632Y039002D02*
X008585Y039002D01*
X008585Y039160D02*
X009604Y039160D01*
X009622Y039319D02*
X008585Y039319D01*
X008585Y039477D02*
X009695Y039477D01*
X009888Y039636D02*
X008585Y039636D01*
X008585Y039794D02*
X009767Y039794D01*
X009652Y039953D02*
X008585Y039953D01*
X008585Y040112D02*
X009604Y040112D01*
X009604Y040270D02*
X008585Y040270D01*
X008585Y040429D02*
X009668Y040429D01*
X009804Y040587D02*
X008585Y040587D01*
X008585Y040746D02*
X009816Y040746D01*
X009672Y040904D02*
X008585Y040904D01*
X008585Y041063D02*
X009607Y041063D01*
X009604Y041221D02*
X008585Y041221D01*
X008585Y041380D02*
X009647Y041380D01*
X009756Y041538D02*
X008585Y041538D01*
X008585Y041697D02*
X033499Y041697D01*
X033499Y041657D02*
X033610Y041388D01*
X033817Y041182D01*
X034086Y041070D01*
X034378Y041070D01*
X034648Y041182D01*
X034854Y041388D01*
X034966Y041657D01*
X034966Y041949D01*
X034854Y042219D01*
X034648Y042425D01*
X034626Y042434D01*
X034665Y042473D01*
X034744Y042663D01*
X034744Y042869D01*
X034665Y043060D01*
X034519Y043205D01*
X034329Y043284D01*
X034122Y043284D01*
X033932Y043205D01*
X033786Y043060D01*
X033707Y042869D01*
X033707Y042663D01*
X033786Y042473D01*
X033829Y042430D01*
X033817Y042425D01*
X033610Y042219D01*
X033499Y041949D01*
X033499Y041657D01*
X033548Y041538D02*
X010489Y041538D01*
X010597Y041380D02*
X033618Y041380D01*
X033777Y041221D02*
X010640Y041221D01*
X010638Y041063D02*
X039830Y041063D01*
X039839Y041071D02*
X039693Y040926D01*
X039614Y040735D01*
X039614Y040529D01*
X039693Y040339D01*
X039839Y040193D01*
X040029Y040114D01*
X040235Y040114D01*
X040426Y040193D01*
X040571Y040339D01*
X040650Y040529D01*
X040650Y040735D01*
X040571Y040926D01*
X040426Y041071D01*
X040279Y041132D01*
X040426Y041193D01*
X040571Y041339D01*
X040650Y041529D01*
X040650Y041735D01*
X040571Y041926D01*
X040426Y042071D01*
X040279Y042132D01*
X040426Y042193D01*
X040571Y042339D01*
X040650Y042529D01*
X040650Y042735D01*
X040571Y042926D01*
X040426Y043071D01*
X040235Y043150D01*
X040029Y043150D01*
X039839Y043071D01*
X039693Y042926D01*
X039614Y042735D01*
X039614Y042529D01*
X039693Y042339D01*
X039839Y042193D01*
X039986Y042132D01*
X039839Y042071D01*
X039693Y041926D01*
X039614Y041735D01*
X039614Y041529D01*
X039693Y041339D01*
X039839Y041193D01*
X039986Y041132D01*
X039839Y041071D01*
X039810Y041221D02*
X037487Y041221D01*
X037448Y041182D02*
X037654Y041388D01*
X037766Y041657D01*
X037766Y041949D01*
X037654Y042219D01*
X037448Y042425D01*
X037178Y042537D01*
X036886Y042537D01*
X036617Y042425D01*
X036410Y042219D01*
X036299Y041949D01*
X036299Y041657D01*
X036410Y041388D01*
X036617Y041182D01*
X036886Y041070D01*
X037178Y041070D01*
X037448Y041182D01*
X037646Y041380D02*
X039676Y041380D01*
X039614Y041538D02*
X037716Y041538D01*
X037766Y041697D02*
X039614Y041697D01*
X039664Y041856D02*
X037766Y041856D01*
X037739Y042014D02*
X039781Y042014D01*
X039888Y042173D02*
X037673Y042173D01*
X037541Y042331D02*
X039701Y042331D01*
X039630Y042490D02*
X037291Y042490D01*
X036773Y042490D02*
X034672Y042490D01*
X034737Y042648D02*
X039614Y042648D01*
X039644Y042807D02*
X034744Y042807D01*
X034704Y042965D02*
X039733Y042965D01*
X039965Y043124D02*
X034601Y043124D01*
X034333Y043282D02*
X046104Y043282D01*
X046104Y043249D02*
X046183Y043059D01*
X046329Y042913D01*
X046519Y042834D01*
X046725Y042834D01*
X046916Y042913D01*
X047061Y043059D01*
X047140Y043249D01*
X047140Y043455D01*
X047061Y043646D01*
X046916Y043791D01*
X046725Y043870D01*
X046519Y043870D01*
X046329Y043791D01*
X046183Y043646D01*
X046104Y043455D01*
X046104Y043249D01*
X046156Y043124D02*
X040299Y043124D01*
X040532Y042965D02*
X046276Y042965D01*
X046104Y043441D02*
X030365Y043441D01*
X030374Y043432D02*
X030211Y043595D01*
X029998Y043683D01*
X029767Y043683D01*
X029554Y043595D01*
X029391Y043432D01*
X029382Y043412D01*
X029374Y043432D01*
X029211Y043595D01*
X028998Y043683D01*
X028767Y043683D01*
X028554Y043595D01*
X028391Y043432D01*
X028382Y043412D01*
X028374Y043432D01*
X028211Y043595D01*
X027998Y043683D01*
X027767Y043683D01*
X027554Y043595D01*
X027391Y043432D01*
X027382Y043412D01*
X027374Y043432D01*
X027211Y043595D01*
X026998Y043683D01*
X026767Y043683D01*
X026554Y043595D01*
X026391Y043432D01*
X026382Y043412D01*
X026374Y043432D01*
X026211Y043595D01*
X025998Y043683D01*
X025767Y043683D01*
X025554Y043595D01*
X025391Y043432D01*
X025382Y043412D01*
X025374Y043432D01*
X025211Y043595D01*
X024998Y043683D01*
X024767Y043683D01*
X024554Y043595D01*
X024391Y043432D01*
X024382Y043412D01*
X024374Y043432D01*
X024211Y043595D01*
X023998Y043683D01*
X023767Y043683D01*
X023554Y043595D01*
X023391Y043432D01*
X023382Y043412D01*
X023374Y043432D01*
X023211Y043595D01*
X022998Y043683D01*
X022767Y043683D01*
X022554Y043595D01*
X022391Y043432D01*
X022305Y043226D01*
X022290Y043272D01*
X022259Y043334D01*
X022218Y043390D01*
X022169Y043439D01*
X022113Y043480D01*
X022051Y043511D01*
X021985Y043532D01*
X021917Y043543D01*
X021882Y043543D01*
X021848Y043543D01*
X021779Y043532D01*
X021713Y043511D01*
X021652Y043480D01*
X021596Y043439D01*
X021547Y043390D01*
X021506Y043334D01*
X021474Y043272D01*
X021459Y043226D01*
X021374Y043432D01*
X021211Y043595D01*
X020998Y043683D01*
X020767Y043683D01*
X020554Y043595D01*
X020391Y043432D01*
X020382Y043412D01*
X020374Y043432D01*
X020211Y043595D01*
X019998Y043683D01*
X019767Y043683D01*
X019554Y043595D01*
X019391Y043432D01*
X019382Y043412D01*
X019374Y043432D01*
X019211Y043595D01*
X018998Y043683D01*
X018767Y043683D01*
X018554Y043595D01*
X018391Y043432D01*
X018382Y043412D01*
X018374Y043432D01*
X018211Y043595D01*
X017998Y043683D01*
X017767Y043683D01*
X017554Y043595D01*
X017391Y043432D01*
X017382Y043412D01*
X017374Y043432D01*
X017211Y043595D01*
X016998Y043683D01*
X016767Y043683D01*
X016554Y043595D01*
X016391Y043432D01*
X016305Y043226D01*
X016290Y043272D01*
X016259Y043334D01*
X016218Y043390D01*
X016169Y043439D01*
X016113Y043480D01*
X016051Y043511D01*
X015985Y043532D01*
X015917Y043543D01*
X015882Y043543D01*
X015848Y043543D01*
X015779Y043532D01*
X015713Y043511D01*
X015652Y043480D01*
X015596Y043439D01*
X015547Y043390D01*
X015506Y043334D01*
X015474Y043272D01*
X015459Y043226D01*
X015374Y043432D01*
X015211Y043595D01*
X014998Y043683D01*
X014767Y043683D01*
X014554Y043595D01*
X014391Y043432D01*
X014382Y043412D01*
X014374Y043432D01*
X014211Y043595D01*
X013998Y043683D01*
X013767Y043683D01*
X013554Y043595D01*
X013391Y043432D01*
X013382Y043412D01*
X013374Y043432D01*
X013211Y043595D01*
X012998Y043683D01*
X012767Y043683D01*
X012554Y043595D01*
X012391Y043432D01*
X012382Y043412D01*
X012374Y043432D01*
X012211Y043595D01*
X011998Y043683D01*
X011767Y043683D01*
X011554Y043595D01*
X011391Y043432D01*
X011382Y043412D01*
X011374Y043432D01*
X011211Y043595D01*
X010998Y043683D01*
X010767Y043683D01*
X010554Y043595D01*
X010391Y043432D01*
X010302Y043219D01*
X010302Y042988D01*
X010391Y042775D01*
X010554Y042612D01*
X010767Y042523D01*
X010998Y042523D01*
X011211Y042612D01*
X011374Y042775D01*
X011382Y042795D01*
X011391Y042775D01*
X011554Y042612D01*
X011767Y042523D01*
X011998Y042523D01*
X012211Y042612D01*
X012374Y042775D01*
X012382Y042795D01*
X012391Y042775D01*
X012554Y042612D01*
X012767Y042523D01*
X012998Y042523D01*
X013211Y042612D01*
X013374Y042775D01*
X013382Y042795D01*
X013391Y042775D01*
X013554Y042612D01*
X013767Y042523D01*
X013998Y042523D01*
X014211Y042612D01*
X014374Y042775D01*
X014382Y042795D01*
X014391Y042775D01*
X014554Y042612D01*
X014767Y042523D01*
X014998Y042523D01*
X015211Y042612D01*
X015374Y042775D01*
X015459Y042981D01*
X015474Y042934D01*
X015506Y042873D01*
X015547Y042817D01*
X015596Y042768D01*
X015652Y042727D01*
X015713Y042696D01*
X015779Y042674D01*
X015848Y042663D01*
X015882Y042663D01*
X015882Y043103D01*
X015882Y043103D01*
X015882Y042663D01*
X015917Y042663D01*
X015985Y042674D01*
X016051Y042696D01*
X016113Y042727D01*
X016169Y042768D01*
X016218Y042817D01*
X016259Y042873D01*
X016290Y042934D01*
X016305Y042981D01*
X016391Y042775D01*
X016554Y042612D01*
X016767Y042523D01*
X016998Y042523D01*
X017211Y042612D01*
X017374Y042775D01*
X017382Y042795D01*
X017391Y042775D01*
X017554Y042612D01*
X017767Y042523D01*
X017998Y042523D01*
X018211Y042612D01*
X018374Y042775D01*
X018382Y042795D01*
X018391Y042775D01*
X018554Y042612D01*
X018767Y042523D01*
X018998Y042523D01*
X019211Y042612D01*
X019374Y042775D01*
X019382Y042795D01*
X019391Y042775D01*
X019554Y042612D01*
X019767Y042523D01*
X019998Y042523D01*
X020211Y042612D01*
X020374Y042775D01*
X020382Y042795D01*
X020391Y042775D01*
X020554Y042612D01*
X020767Y042523D01*
X020998Y042523D01*
X021211Y042612D01*
X021374Y042775D01*
X021459Y042981D01*
X021474Y042934D01*
X021506Y042873D01*
X021547Y042817D01*
X021596Y042768D01*
X021652Y042727D01*
X021713Y042696D01*
X021779Y042674D01*
X021848Y042663D01*
X021882Y042663D01*
X021882Y043103D01*
X021882Y043103D01*
X021882Y042663D01*
X021917Y042663D01*
X021985Y042674D01*
X022051Y042696D01*
X022113Y042727D01*
X022169Y042768D01*
X022218Y042817D01*
X022259Y042873D01*
X022290Y042934D01*
X022305Y042981D01*
X022391Y042775D01*
X022554Y042612D01*
X022767Y042523D01*
X022998Y042523D01*
X023211Y042612D01*
X023374Y042775D01*
X023382Y042795D01*
X023391Y042775D01*
X023554Y042612D01*
X023767Y042523D01*
X023998Y042523D01*
X024211Y042612D01*
X024374Y042775D01*
X024382Y042795D01*
X024391Y042775D01*
X024554Y042612D01*
X024767Y042523D01*
X024998Y042523D01*
X025211Y042612D01*
X025374Y042775D01*
X025382Y042795D01*
X025391Y042775D01*
X025554Y042612D01*
X025767Y042523D01*
X025998Y042523D01*
X026211Y042612D01*
X026374Y042775D01*
X026382Y042795D01*
X026391Y042775D01*
X026554Y042612D01*
X026767Y042523D01*
X026998Y042523D01*
X027211Y042612D01*
X027374Y042775D01*
X027382Y042795D01*
X027391Y042775D01*
X027554Y042612D01*
X027767Y042523D01*
X027998Y042523D01*
X028211Y042612D01*
X028374Y042775D01*
X028382Y042795D01*
X028391Y042775D01*
X028554Y042612D01*
X028767Y042523D01*
X028998Y042523D01*
X029211Y042612D01*
X029374Y042775D01*
X029382Y042795D01*
X029391Y042775D01*
X029554Y042612D01*
X029767Y042523D01*
X029998Y042523D01*
X030211Y042612D01*
X030374Y042775D01*
X030462Y042988D01*
X030462Y043219D01*
X030374Y043432D01*
X030436Y043282D02*
X034118Y043282D01*
X033851Y043124D02*
X030462Y043124D01*
X030453Y042965D02*
X033747Y042965D01*
X033707Y042807D02*
X030387Y042807D01*
X030247Y042648D02*
X033714Y042648D01*
X033779Y042490D02*
X004272Y042490D01*
X004272Y042648D02*
X010517Y042648D01*
X010377Y042807D02*
X004272Y042807D01*
X004272Y042965D02*
X010312Y042965D01*
X010302Y043124D02*
X004272Y043124D01*
X004272Y043282D02*
X010329Y043282D01*
X010400Y043441D02*
X004272Y043441D01*
X004272Y043599D02*
X006667Y043599D01*
X006694Y043582D02*
X006798Y043532D01*
X006907Y043494D01*
X007020Y043468D01*
X007113Y043458D01*
X007113Y044405D01*
X007273Y044405D01*
X007273Y043458D01*
X007366Y043468D01*
X007479Y043494D01*
X007588Y043532D01*
X007692Y043582D01*
X007790Y043644D01*
X007880Y043716D01*
X007962Y043798D01*
X008034Y043888D01*
X008096Y043986D01*
X008146Y044090D01*
X008184Y044200D01*
X008210Y044312D01*
X008221Y044405D01*
X007273Y044405D01*
X007273Y044565D01*
X008221Y044565D01*
X008210Y044658D01*
X008184Y044771D01*
X008146Y044880D01*
X008096Y044984D01*
X008034Y045082D01*
X007962Y045173D01*
X007880Y045254D01*
X007790Y045327D01*
X007692Y045388D01*
X007588Y045438D01*
X007479Y045477D01*
X007366Y045502D01*
X007273Y045513D01*
X007273Y044565D01*
X007113Y044565D01*
X007113Y044405D01*
X006166Y044405D01*
X006176Y044312D01*
X006202Y044200D01*
X006240Y044090D01*
X006290Y043986D01*
X006352Y043888D01*
X006424Y043798D01*
X006506Y043716D01*
X006596Y043644D01*
X006694Y043582D01*
X006464Y043758D02*
X004272Y043758D01*
X004272Y043917D02*
X006334Y043917D01*
X006247Y044075D02*
X004272Y044075D01*
X004272Y044234D02*
X006194Y044234D01*
X006167Y044392D02*
X004272Y044392D01*
X004272Y044551D02*
X007113Y044551D01*
X007113Y044565D02*
X006166Y044565D01*
X006176Y044658D01*
X006202Y044771D01*
X006240Y044880D01*
X006290Y044984D01*
X006352Y045082D01*
X006424Y045173D01*
X006506Y045254D01*
X006596Y045327D01*
X006694Y045388D01*
X006798Y045438D01*
X006907Y045477D01*
X007020Y045502D01*
X007113Y045513D01*
X007113Y044565D01*
X007113Y044709D02*
X007273Y044709D01*
X007273Y044551D02*
X009604Y044551D01*
X009604Y044519D02*
X009683Y044329D01*
X009829Y044183D01*
X010019Y044104D01*
X010225Y044104D01*
X010416Y044183D01*
X010561Y044329D01*
X010640Y044519D01*
X010640Y044725D01*
X010561Y044916D01*
X010416Y045061D01*
X010225Y045140D01*
X010019Y045140D01*
X009829Y045061D01*
X009683Y044916D01*
X009604Y044725D01*
X009604Y044519D01*
X009657Y044392D02*
X008219Y044392D01*
X008192Y044234D02*
X009778Y044234D01*
X009604Y044709D02*
X008198Y044709D01*
X008150Y044868D02*
X009663Y044868D01*
X009794Y045026D02*
X008070Y045026D01*
X007950Y045185D02*
X010827Y045185D01*
X010829Y045183D02*
X011017Y045105D01*
X010896Y044984D01*
X010807Y044771D01*
X010807Y044540D01*
X010896Y044327D01*
X011059Y044164D01*
X011272Y044075D01*
X011503Y044075D01*
X011716Y044164D01*
X011879Y044327D01*
X011967Y044540D01*
X011967Y044771D01*
X011879Y044984D01*
X011716Y045147D01*
X011503Y045235D01*
X011468Y045235D01*
X011561Y045329D01*
X011640Y045519D01*
X011640Y045725D01*
X011561Y045916D01*
X011416Y046061D01*
X011225Y046140D01*
X011019Y046140D01*
X010829Y046061D01*
X010683Y045916D01*
X010604Y045725D01*
X010604Y045519D01*
X010683Y045329D01*
X010829Y045183D01*
X010938Y045026D02*
X010451Y045026D01*
X010581Y044868D02*
X010847Y044868D01*
X010807Y044709D02*
X010640Y044709D01*
X010640Y044551D02*
X010807Y044551D01*
X010868Y044392D02*
X010588Y044392D01*
X010466Y044234D02*
X010989Y044234D01*
X011200Y043599D02*
X011565Y043599D01*
X011400Y043441D02*
X011365Y043441D01*
X012200Y043599D02*
X012565Y043599D01*
X012400Y043441D02*
X012365Y043441D01*
X011786Y044234D02*
X012989Y044234D01*
X013059Y044164D02*
X012896Y044327D01*
X012807Y044540D01*
X012807Y044771D01*
X012896Y044984D01*
X013059Y045147D01*
X013272Y045235D01*
X013503Y045235D01*
X013716Y045147D01*
X013879Y044984D01*
X013967Y044771D01*
X013967Y044540D01*
X013879Y044327D01*
X013716Y044164D01*
X013503Y044075D01*
X013272Y044075D01*
X013059Y044164D01*
X012868Y044392D02*
X011906Y044392D01*
X011967Y044551D02*
X012807Y044551D01*
X012807Y044709D02*
X011967Y044709D01*
X011927Y044868D02*
X012847Y044868D01*
X012938Y045026D02*
X011836Y045026D01*
X011624Y045185D02*
X013150Y045185D01*
X013624Y045185D02*
X046222Y045185D01*
X046183Y045146D02*
X046104Y044955D01*
X046104Y044749D01*
X046183Y044559D01*
X046329Y044413D01*
X046519Y044334D01*
X046725Y044334D01*
X046916Y044413D01*
X047061Y044559D01*
X047140Y044749D01*
X047140Y044955D01*
X047061Y045146D01*
X046916Y045291D01*
X046725Y045370D01*
X046519Y045370D01*
X046329Y045291D01*
X046183Y045146D01*
X046134Y045026D02*
X013836Y045026D01*
X013927Y044868D02*
X033118Y044868D01*
X033079Y044851D02*
X032933Y044706D01*
X032854Y044515D01*
X032854Y044309D01*
X032933Y044119D01*
X033079Y043973D01*
X033269Y043894D01*
X033475Y043894D01*
X033666Y043973D01*
X033811Y044119D01*
X033890Y044309D01*
X033890Y044515D01*
X033811Y044706D01*
X033666Y044851D01*
X033475Y044930D01*
X033269Y044930D01*
X033079Y044851D01*
X032937Y044709D02*
X013967Y044709D01*
X013967Y044551D02*
X030318Y044551D01*
X030329Y044561D02*
X030183Y044416D01*
X030104Y044225D01*
X030104Y044019D01*
X030183Y043829D01*
X030329Y043683D01*
X030519Y043604D01*
X030725Y043604D01*
X030916Y043683D01*
X031061Y043829D01*
X031140Y044019D01*
X031140Y044225D01*
X031061Y044416D01*
X030916Y044561D01*
X030725Y044640D01*
X030519Y044640D01*
X030329Y044561D01*
X030173Y044392D02*
X013906Y044392D01*
X013786Y044234D02*
X030108Y044234D01*
X030104Y044075D02*
X008139Y044075D01*
X008052Y043917D02*
X030147Y043917D01*
X030254Y043758D02*
X007922Y043758D01*
X007719Y043599D02*
X010565Y043599D01*
X011247Y042648D02*
X011517Y042648D01*
X012247Y042648D02*
X012517Y042648D01*
X013247Y042648D02*
X013517Y042648D01*
X014247Y042648D02*
X014517Y042648D01*
X015247Y042648D02*
X016517Y042648D01*
X016377Y042807D02*
X016208Y042807D01*
X016300Y042965D02*
X016312Y042965D01*
X016329Y043282D02*
X016285Y043282D01*
X016400Y043441D02*
X016166Y043441D01*
X015882Y043441D02*
X015882Y043441D01*
X015882Y043543D02*
X015882Y043104D01*
X015882Y043104D01*
X015882Y043543D01*
X015882Y043282D02*
X015882Y043282D01*
X015882Y043124D02*
X015882Y043124D01*
X015882Y042965D02*
X015882Y042965D01*
X015882Y042807D02*
X015882Y042807D01*
X015556Y042807D02*
X015387Y042807D01*
X015453Y042965D02*
X015464Y042965D01*
X015480Y043282D02*
X015436Y043282D01*
X015365Y043441D02*
X015598Y043441D01*
X015200Y043599D02*
X016565Y043599D01*
X017200Y043599D02*
X017565Y043599D01*
X017400Y043441D02*
X017365Y043441D01*
X018200Y043599D02*
X018565Y043599D01*
X018400Y043441D02*
X018365Y043441D01*
X018247Y042648D02*
X018517Y042648D01*
X019247Y042648D02*
X019517Y042648D01*
X020247Y042648D02*
X020517Y042648D01*
X021247Y042648D02*
X022517Y042648D01*
X022377Y042807D02*
X022208Y042807D01*
X022300Y042965D02*
X022312Y042965D01*
X022329Y043282D02*
X022285Y043282D01*
X022400Y043441D02*
X022166Y043441D01*
X021882Y043441D02*
X021882Y043441D01*
X021882Y043543D02*
X021882Y043104D01*
X021882Y043104D01*
X021882Y043543D01*
X021882Y043282D02*
X021882Y043282D01*
X021882Y043124D02*
X021882Y043124D01*
X021882Y042965D02*
X021882Y042965D01*
X021882Y042807D02*
X021882Y042807D01*
X021556Y042807D02*
X021387Y042807D01*
X021453Y042965D02*
X021464Y042965D01*
X021480Y043282D02*
X021436Y043282D01*
X021365Y043441D02*
X021598Y043441D01*
X021200Y043599D02*
X022565Y043599D01*
X023200Y043599D02*
X023565Y043599D01*
X023400Y043441D02*
X023365Y043441D01*
X024200Y043599D02*
X024565Y043599D01*
X024400Y043441D02*
X024365Y043441D01*
X025200Y043599D02*
X025565Y043599D01*
X025400Y043441D02*
X025365Y043441D01*
X025247Y042648D02*
X025517Y042648D01*
X024517Y042648D02*
X024247Y042648D01*
X023517Y042648D02*
X023247Y042648D01*
X023200Y040587D02*
X023564Y040587D01*
X023428Y040429D02*
X023337Y040429D01*
X023352Y039953D02*
X023412Y039953D01*
X023527Y039794D02*
X023237Y039794D01*
X024237Y039794D02*
X024527Y039794D01*
X024412Y039953D02*
X024352Y039953D01*
X024337Y040429D02*
X024428Y040429D01*
X024564Y040587D02*
X024200Y040587D01*
X025200Y040587D02*
X025564Y040587D01*
X025428Y040429D02*
X025337Y040429D01*
X025352Y039953D02*
X025412Y039953D01*
X025527Y039794D02*
X025237Y039794D01*
X026237Y039794D02*
X026527Y039794D01*
X026412Y039953D02*
X026352Y039953D01*
X026337Y040429D02*
X026428Y040429D01*
X026564Y040587D02*
X026200Y040587D01*
X027200Y040587D02*
X039614Y040587D01*
X039618Y040746D02*
X010428Y040746D01*
X010440Y040587D02*
X011564Y040587D01*
X011589Y040611D02*
X011443Y040466D01*
X011364Y040275D01*
X011364Y040069D01*
X011443Y039879D01*
X011589Y039733D01*
X011779Y039654D01*
X011985Y039654D01*
X012176Y039733D01*
X012321Y039879D01*
X012382Y040025D01*
X012443Y039879D01*
X012589Y039733D01*
X012779Y039654D01*
X012985Y039654D01*
X013176Y039733D01*
X013321Y039879D01*
X013382Y040025D01*
X013443Y039879D01*
X013589Y039733D01*
X013779Y039654D01*
X013985Y039654D01*
X014176Y039733D01*
X014321Y039879D01*
X014400Y040069D01*
X014400Y040275D01*
X014321Y040466D01*
X014176Y040611D01*
X013985Y040690D01*
X013779Y040690D01*
X013589Y040611D01*
X013443Y040466D01*
X013382Y040319D01*
X013321Y040466D01*
X013176Y040611D01*
X012985Y040690D01*
X012779Y040690D01*
X012589Y040611D01*
X012443Y040466D01*
X012382Y040319D01*
X012321Y040466D01*
X012176Y040611D01*
X011985Y040690D01*
X011779Y040690D01*
X011589Y040611D01*
X011428Y040429D02*
X010577Y040429D01*
X010640Y040270D02*
X011364Y040270D01*
X011364Y040112D02*
X010640Y040112D01*
X010592Y039953D02*
X011412Y039953D01*
X011527Y039794D02*
X010477Y039794D01*
X010572Y040904D02*
X039684Y040904D01*
X039656Y040429D02*
X027337Y040429D01*
X027400Y040270D02*
X039762Y040270D01*
X040503Y040270D02*
X046104Y040270D01*
X046114Y040429D02*
X045481Y040429D01*
X045416Y040363D02*
X045561Y040509D01*
X045640Y040699D01*
X045640Y040905D01*
X045561Y041096D01*
X045416Y041241D01*
X045225Y041320D01*
X045019Y041320D01*
X044829Y041241D01*
X044683Y041096D01*
X044604Y040905D01*
X044604Y040699D01*
X044683Y040509D01*
X044829Y040363D01*
X045019Y040284D01*
X045225Y040284D01*
X045416Y040363D01*
X045594Y040587D02*
X046179Y040587D01*
X046339Y040746D02*
X045640Y040746D01*
X045640Y040904D02*
X050835Y040904D01*
X050835Y040746D02*
X046905Y040746D01*
X047065Y040587D02*
X050835Y040587D01*
X050835Y040429D02*
X047131Y040429D01*
X047140Y040270D02*
X050835Y040270D01*
X050835Y040112D02*
X047104Y040112D01*
X047006Y039953D02*
X050835Y039953D01*
X050835Y039160D02*
X046997Y039160D01*
X047100Y039002D02*
X050835Y039002D01*
X050835Y038843D02*
X047140Y038843D01*
X047134Y038685D02*
X050835Y038685D01*
X050835Y038526D02*
X047069Y038526D01*
X046920Y038368D02*
X050835Y038368D01*
X050835Y038209D02*
X008585Y038209D01*
X008585Y038368D02*
X046324Y038368D01*
X046176Y038526D02*
X008585Y038526D01*
X008585Y038050D02*
X050835Y038050D01*
X050835Y037892D02*
X008585Y037892D01*
X008585Y037416D02*
X010384Y037416D01*
X010318Y037258D02*
X008585Y037258D01*
X008585Y037099D02*
X010302Y037099D01*
X010322Y036941D02*
X008585Y036941D01*
X008585Y036782D02*
X010387Y036782D01*
X010542Y036624D02*
X004272Y036624D01*
X004272Y036782D02*
X005683Y036782D01*
X005960Y036941D02*
X004272Y036941D01*
X004272Y037099D02*
X005960Y037099D01*
X005960Y037258D02*
X004272Y037258D01*
X004272Y037416D02*
X005960Y037416D01*
X005960Y037575D02*
X004272Y037575D01*
X004272Y037733D02*
X005960Y037733D01*
X005960Y037892D02*
X004272Y037892D01*
X004272Y038050D02*
X005960Y038050D01*
X005960Y038209D02*
X004272Y038209D01*
X004272Y038368D02*
X005960Y038368D01*
X005960Y038526D02*
X004272Y038526D01*
X004272Y038685D02*
X005960Y038685D01*
X005960Y038843D02*
X004272Y038843D01*
X004272Y039002D02*
X005960Y039002D01*
X005960Y039160D02*
X004272Y039160D01*
X004272Y039319D02*
X005960Y039319D01*
X005960Y039477D02*
X004272Y039477D01*
X004272Y039636D02*
X005960Y039636D01*
X005960Y039794D02*
X004272Y039794D01*
X004272Y039953D02*
X005960Y039953D01*
X005960Y040112D02*
X004272Y040112D01*
X004272Y040270D02*
X005960Y040270D01*
X005960Y040429D02*
X004272Y040429D01*
X004272Y040587D02*
X005960Y040587D01*
X005960Y040746D02*
X004272Y040746D01*
X004272Y040904D02*
X005960Y040904D01*
X005960Y041063D02*
X004272Y041063D01*
X004272Y041221D02*
X005960Y041221D01*
X005960Y041380D02*
X004272Y041380D01*
X004272Y041538D02*
X005960Y041538D01*
X005960Y041697D02*
X004272Y041697D01*
X004272Y041856D02*
X005960Y041856D01*
X005960Y042014D02*
X004272Y042014D01*
X004272Y042173D02*
X005960Y042173D01*
X005960Y042331D02*
X004272Y042331D01*
X004272Y044709D02*
X006188Y044709D01*
X006236Y044868D02*
X004272Y044868D01*
X004272Y045026D02*
X006317Y045026D01*
X006436Y045185D02*
X004272Y045185D01*
X004272Y045343D02*
X006623Y045343D01*
X007019Y045502D02*
X004272Y045502D01*
X004272Y045661D02*
X010604Y045661D01*
X010611Y045502D02*
X007367Y045502D01*
X007273Y045502D02*
X007113Y045502D01*
X007113Y045343D02*
X007273Y045343D01*
X007273Y045185D02*
X007113Y045185D01*
X007113Y045026D02*
X007273Y045026D01*
X007273Y044868D02*
X007113Y044868D01*
X007113Y044392D02*
X007273Y044392D01*
X007273Y044234D02*
X007113Y044234D01*
X007113Y044075D02*
X007273Y044075D01*
X007273Y043917D02*
X007113Y043917D01*
X007113Y043758D02*
X007273Y043758D01*
X007273Y043599D02*
X007113Y043599D01*
X007763Y045343D02*
X010677Y045343D01*
X010643Y045819D02*
X004272Y045819D01*
X004272Y045978D02*
X010745Y045978D01*
X011009Y046136D02*
X004272Y046136D01*
X004272Y046295D02*
X011717Y046295D01*
X011683Y046329D02*
X011829Y046183D01*
X012019Y046104D01*
X012225Y046104D01*
X012416Y046183D01*
X012561Y046329D01*
X012640Y046519D01*
X012640Y046725D01*
X012561Y046916D01*
X012416Y047061D01*
X012225Y047140D01*
X012019Y047140D01*
X011829Y047061D01*
X011683Y046916D01*
X011604Y046725D01*
X011604Y046519D01*
X011683Y046329D01*
X011631Y046453D02*
X004272Y046453D01*
X004272Y046612D02*
X011604Y046612D01*
X011623Y046770D02*
X004272Y046770D01*
X004272Y046929D02*
X011696Y046929D01*
X011892Y047087D02*
X004272Y047087D01*
X004272Y047246D02*
X030358Y047246D01*
X030401Y047203D02*
X030592Y047124D01*
X030798Y047124D01*
X030988Y047203D01*
X031134Y047349D01*
X031213Y047539D01*
X031213Y047745D01*
X031134Y047936D01*
X030988Y048081D01*
X030798Y048160D01*
X030592Y048160D01*
X030401Y048081D01*
X030255Y047936D01*
X030177Y047745D01*
X030177Y047539D01*
X030255Y047349D01*
X030401Y047203D01*
X030232Y047405D02*
X004272Y047405D01*
X004272Y047563D02*
X030177Y047563D01*
X030177Y047722D02*
X004272Y047722D01*
X004272Y047880D02*
X030232Y047880D01*
X030358Y048039D02*
X004272Y048039D01*
X004272Y048197D02*
X055173Y048197D01*
X055173Y048039D02*
X032531Y048039D01*
X032488Y048081D02*
X032634Y047936D01*
X032713Y047745D01*
X032713Y047539D01*
X032634Y047349D01*
X032488Y047203D01*
X032298Y047124D01*
X032092Y047124D01*
X031901Y047203D01*
X031755Y047349D01*
X031677Y047539D01*
X031677Y047745D01*
X031755Y047936D01*
X031901Y048081D01*
X032092Y048160D01*
X032298Y048160D01*
X032488Y048081D01*
X032657Y047880D02*
X055173Y047880D01*
X055173Y047722D02*
X032713Y047722D01*
X032713Y047563D02*
X039790Y047563D01*
X039839Y047611D02*
X039693Y047466D01*
X039614Y047275D01*
X039614Y047069D01*
X039693Y046879D01*
X039839Y046733D01*
X040029Y046654D01*
X040235Y046654D01*
X040426Y046733D01*
X040571Y046879D01*
X040650Y047069D01*
X040650Y047275D01*
X040571Y047466D01*
X040426Y047611D01*
X040235Y047690D01*
X040029Y047690D01*
X039839Y047611D01*
X039668Y047405D02*
X032657Y047405D01*
X032531Y047246D02*
X039614Y047246D01*
X039614Y047087D02*
X012353Y047087D01*
X012548Y046929D02*
X039672Y046929D01*
X039801Y046770D02*
X012622Y046770D01*
X012640Y046612D02*
X039936Y046612D01*
X040029Y046650D02*
X039839Y046571D01*
X039693Y046426D01*
X039614Y046235D01*
X039614Y046029D01*
X039693Y045839D01*
X039839Y045693D01*
X040029Y045614D01*
X040235Y045614D01*
X040426Y045693D01*
X040571Y045839D01*
X040650Y046029D01*
X040650Y046235D01*
X040571Y046426D01*
X040426Y046571D01*
X040235Y046650D01*
X040029Y046650D01*
X040328Y046612D02*
X044661Y046612D01*
X044683Y046559D02*
X044829Y046413D01*
X045019Y046334D01*
X045225Y046334D01*
X045416Y046413D01*
X045561Y046559D01*
X045640Y046749D01*
X045640Y046955D01*
X045561Y047146D01*
X045416Y047291D01*
X045225Y047370D01*
X045019Y047370D01*
X044829Y047291D01*
X044683Y047146D01*
X044604Y046955D01*
X044604Y046749D01*
X044683Y046559D01*
X044788Y046453D02*
X040544Y046453D01*
X040626Y046295D02*
X046104Y046295D01*
X046104Y046249D02*
X046104Y046455D01*
X046183Y046646D01*
X046329Y046791D01*
X046519Y046870D01*
X046725Y046870D01*
X046916Y046791D01*
X047061Y046646D01*
X047140Y046455D01*
X047140Y046249D01*
X047061Y046059D01*
X046916Y045913D01*
X046725Y045834D01*
X046519Y045834D01*
X046329Y045913D01*
X046183Y046059D01*
X046104Y046249D01*
X046151Y046136D02*
X040650Y046136D01*
X040629Y045978D02*
X046264Y045978D01*
X046104Y046453D02*
X045456Y046453D01*
X045583Y046612D02*
X046169Y046612D01*
X046308Y046770D02*
X045640Y046770D01*
X045640Y046929D02*
X055173Y046929D01*
X055173Y047087D02*
X045586Y047087D01*
X045461Y047246D02*
X055173Y047246D01*
X055173Y047405D02*
X040597Y047405D01*
X040650Y047246D02*
X044783Y047246D01*
X044659Y047087D02*
X040650Y047087D01*
X040592Y046929D02*
X044604Y046929D01*
X044604Y046770D02*
X040463Y046770D01*
X040552Y045819D02*
X055173Y045819D01*
X055173Y045661D02*
X040347Y045661D01*
X039917Y045661D02*
X024775Y045661D01*
X024764Y045635D02*
X024852Y045848D01*
X024852Y046079D01*
X024764Y046292D01*
X024601Y046455D01*
X024388Y046543D01*
X024157Y046543D01*
X023944Y046455D01*
X023781Y046292D01*
X023692Y046079D01*
X023692Y045848D01*
X023781Y045635D01*
X023944Y045472D01*
X024157Y045383D01*
X024388Y045383D01*
X024601Y045472D01*
X024764Y045635D01*
X024631Y045502D02*
X051980Y045502D01*
X051981Y045502D02*
X051868Y045477D01*
X051759Y045438D01*
X051655Y045388D01*
X051557Y045327D01*
X051466Y045254D01*
X051384Y045173D01*
X051312Y045082D01*
X051251Y044984D01*
X051201Y044880D01*
X051162Y044771D01*
X051137Y044658D01*
X051126Y044565D01*
X052074Y044565D01*
X052074Y044405D01*
X052234Y044405D01*
X052234Y044565D01*
X053181Y044565D01*
X053171Y044658D01*
X053145Y044771D01*
X053107Y044880D01*
X053057Y044984D01*
X052995Y045082D01*
X052923Y045173D01*
X052841Y045254D01*
X052751Y045327D01*
X052653Y045388D01*
X052548Y045438D01*
X052439Y045477D01*
X052326Y045502D01*
X052234Y045513D01*
X052234Y044565D01*
X052074Y044565D01*
X052074Y045513D01*
X051981Y045502D01*
X052074Y045502D02*
X052234Y045502D01*
X052328Y045502D02*
X055173Y045502D01*
X055173Y045343D02*
X052724Y045343D01*
X052911Y045185D02*
X055173Y045185D01*
X055173Y045026D02*
X053030Y045026D01*
X053111Y044868D02*
X055173Y044868D01*
X055173Y044709D02*
X053159Y044709D01*
X053181Y044405D02*
X052234Y044405D01*
X052234Y043458D01*
X052326Y043468D01*
X052439Y043494D01*
X052548Y043532D01*
X052653Y043582D01*
X052751Y043644D01*
X052841Y043716D01*
X052923Y043798D01*
X052995Y043888D01*
X053057Y043986D01*
X053107Y044090D01*
X053145Y044200D01*
X053171Y044312D01*
X053181Y044405D01*
X053180Y044392D02*
X055173Y044392D01*
X055173Y044234D02*
X053153Y044234D01*
X053099Y044075D02*
X055173Y044075D01*
X055173Y043917D02*
X053013Y043917D01*
X052883Y043758D02*
X055173Y043758D01*
X055173Y043599D02*
X052680Y043599D01*
X052234Y043599D02*
X052074Y043599D01*
X052074Y043458D02*
X052074Y044405D01*
X051126Y044405D01*
X051137Y044312D01*
X051162Y044200D01*
X051201Y044090D01*
X051251Y043986D01*
X051312Y043888D01*
X051384Y043798D01*
X051466Y043716D01*
X051557Y043644D01*
X051655Y043582D01*
X051759Y043532D01*
X051868Y043494D01*
X051981Y043468D01*
X052074Y043458D01*
X052074Y043758D02*
X052234Y043758D01*
X052234Y043917D02*
X052074Y043917D01*
X052074Y044075D02*
X052234Y044075D01*
X052234Y044234D02*
X052074Y044234D01*
X052074Y044392D02*
X052234Y044392D01*
X052234Y044551D02*
X055173Y044551D01*
X055173Y043441D02*
X047140Y043441D01*
X047140Y043282D02*
X055173Y043282D01*
X055173Y043124D02*
X047088Y043124D01*
X046968Y042965D02*
X055173Y042965D01*
X055173Y042807D02*
X040621Y042807D01*
X040650Y042648D02*
X055173Y042648D01*
X055173Y042490D02*
X040634Y042490D01*
X040564Y042331D02*
X050835Y042331D01*
X050835Y042173D02*
X040376Y042173D01*
X040483Y042014D02*
X050835Y042014D01*
X050835Y041856D02*
X040600Y041856D01*
X040650Y041697D02*
X050835Y041697D01*
X050835Y041538D02*
X040650Y041538D01*
X040588Y041380D02*
X050835Y041380D01*
X050835Y041221D02*
X045436Y041221D01*
X045575Y041063D02*
X050835Y041063D01*
X051627Y043599D02*
X047081Y043599D01*
X046949Y043758D02*
X051424Y043758D01*
X051295Y043917D02*
X033529Y043917D01*
X033768Y044075D02*
X051208Y044075D01*
X051155Y044234D02*
X033859Y044234D01*
X033890Y044392D02*
X046379Y044392D01*
X046191Y044551D02*
X033876Y044551D01*
X033808Y044709D02*
X046121Y044709D01*
X046104Y044868D02*
X033626Y044868D01*
X032869Y044551D02*
X030926Y044551D01*
X031071Y044392D02*
X032854Y044392D01*
X032885Y044234D02*
X031137Y044234D01*
X031140Y044075D02*
X032977Y044075D01*
X033215Y043917D02*
X031098Y043917D01*
X030991Y043758D02*
X046295Y043758D01*
X046164Y043599D02*
X030200Y043599D01*
X029565Y043599D02*
X029200Y043599D01*
X029365Y043441D02*
X029400Y043441D01*
X028565Y043599D02*
X028200Y043599D01*
X028365Y043441D02*
X028400Y043441D01*
X027565Y043599D02*
X027200Y043599D01*
X027365Y043441D02*
X027400Y043441D01*
X027517Y042648D02*
X027247Y042648D01*
X026517Y042648D02*
X026247Y042648D01*
X026365Y043441D02*
X026400Y043441D01*
X026565Y043599D02*
X026200Y043599D01*
X028247Y042648D02*
X028517Y042648D01*
X029247Y042648D02*
X029517Y042648D01*
X027400Y040112D02*
X046140Y040112D01*
X046239Y039953D02*
X027352Y039953D01*
X026387Y036782D02*
X026377Y036782D01*
X026223Y036624D02*
X026542Y036624D01*
X025542Y036624D02*
X025223Y036624D01*
X025377Y036782D02*
X025387Y036782D01*
X022542Y036624D02*
X022223Y036624D01*
X022377Y036782D02*
X022387Y036782D01*
X022237Y039794D02*
X022527Y039794D01*
X022412Y039953D02*
X022352Y039953D01*
X022337Y040429D02*
X022428Y040429D01*
X022564Y040587D02*
X022200Y040587D01*
X021564Y040587D02*
X021200Y040587D01*
X021337Y040429D02*
X021428Y040429D01*
X021412Y039953D02*
X021352Y039953D01*
X021237Y039794D02*
X021527Y039794D01*
X020527Y039794D02*
X020237Y039794D01*
X020352Y039953D02*
X020412Y039953D01*
X020428Y040429D02*
X020337Y040429D01*
X020200Y040587D02*
X020564Y040587D01*
X019564Y040587D02*
X018200Y040587D01*
X018176Y040611D02*
X017985Y040690D01*
X017779Y040690D01*
X017589Y040611D01*
X017443Y040466D01*
X017364Y040275D01*
X017364Y040069D01*
X017443Y039879D01*
X017589Y039733D01*
X017779Y039654D01*
X017985Y039654D01*
X018176Y039733D01*
X018321Y039879D01*
X018400Y040069D01*
X018400Y040275D01*
X018321Y040466D01*
X018176Y040611D01*
X018337Y040429D02*
X019428Y040429D01*
X019364Y040270D02*
X018400Y040270D01*
X018400Y040112D02*
X019364Y040112D01*
X019412Y039953D02*
X018352Y039953D01*
X018237Y039794D02*
X019527Y039794D01*
X017527Y039794D02*
X014237Y039794D01*
X014352Y039953D02*
X017412Y039953D01*
X017364Y040112D02*
X014400Y040112D01*
X014400Y040270D02*
X017364Y040270D01*
X017428Y040429D02*
X014337Y040429D01*
X014200Y040587D02*
X017564Y040587D01*
X017517Y042648D02*
X017247Y042648D01*
X019200Y043599D02*
X019565Y043599D01*
X019400Y043441D02*
X019365Y043441D01*
X020200Y043599D02*
X020565Y043599D01*
X020400Y043441D02*
X020365Y043441D01*
X022044Y045472D02*
X021881Y045635D01*
X021792Y045848D01*
X021792Y046079D01*
X021881Y046292D01*
X022044Y046455D01*
X022257Y046543D01*
X022488Y046543D01*
X022701Y046455D01*
X022864Y046292D01*
X022952Y046079D01*
X022952Y045848D01*
X022864Y045635D01*
X022701Y045472D01*
X022488Y045383D01*
X022257Y045383D01*
X022044Y045472D01*
X022013Y045502D02*
X011633Y045502D01*
X011640Y045661D02*
X021870Y045661D01*
X021804Y045819D02*
X011601Y045819D01*
X011499Y045978D02*
X021792Y045978D01*
X021816Y046136D02*
X012303Y046136D01*
X012527Y046295D02*
X021883Y046295D01*
X022042Y046453D02*
X012613Y046453D01*
X011942Y046136D02*
X011235Y046136D01*
X011568Y045343D02*
X046454Y045343D01*
X046790Y045343D02*
X051584Y045343D01*
X051397Y045185D02*
X047022Y045185D01*
X047111Y045026D02*
X051277Y045026D01*
X051196Y044868D02*
X047140Y044868D01*
X047124Y044709D02*
X051148Y044709D01*
X051128Y044392D02*
X046866Y044392D01*
X047053Y044551D02*
X052074Y044551D01*
X052074Y044709D02*
X052234Y044709D01*
X052234Y044868D02*
X052074Y044868D01*
X052074Y045026D02*
X052234Y045026D01*
X052234Y045185D02*
X052074Y045185D01*
X052074Y045343D02*
X052234Y045343D01*
X055173Y045978D02*
X046980Y045978D01*
X047093Y046136D02*
X055173Y046136D01*
X055173Y046295D02*
X047140Y046295D01*
X047140Y046453D02*
X055173Y046453D01*
X055173Y046612D02*
X047075Y046612D01*
X046937Y046770D02*
X055173Y046770D01*
X055173Y047563D02*
X040474Y047563D01*
X039721Y046453D02*
X024602Y046453D01*
X024761Y046295D02*
X039639Y046295D01*
X039614Y046136D02*
X024828Y046136D01*
X024852Y045978D02*
X039635Y045978D01*
X039713Y045819D02*
X024840Y045819D01*
X023913Y045502D02*
X022731Y045502D01*
X022875Y045661D02*
X023770Y045661D01*
X023704Y045819D02*
X022940Y045819D01*
X022952Y045978D02*
X023692Y045978D01*
X023716Y046136D02*
X022928Y046136D01*
X022861Y046295D02*
X023783Y046295D01*
X023942Y046453D02*
X022702Y046453D01*
X022772Y050892D02*
X036647Y050892D01*
X036647Y051051D02*
X022772Y051051D01*
X022772Y051210D02*
X024387Y051210D01*
X024405Y051201D02*
X024515Y051162D01*
X024627Y051137D01*
X024720Y051126D01*
X024720Y052074D01*
X023773Y052074D01*
X023783Y051981D01*
X023809Y051868D01*
X023847Y051759D01*
X023897Y051655D01*
X023959Y051557D01*
X024031Y051466D01*
X024113Y051384D01*
X024203Y051312D01*
X024301Y051251D01*
X024405Y051201D01*
X024720Y051210D02*
X024880Y051210D01*
X024880Y051126D02*
X024973Y051137D01*
X025086Y051162D01*
X025195Y051201D01*
X025299Y051251D01*
X025397Y051312D01*
X025488Y051384D01*
X025569Y051466D01*
X025642Y051557D01*
X025703Y051655D01*
X025753Y051759D01*
X025791Y051868D01*
X025817Y051981D01*
X025828Y052074D01*
X024880Y052074D01*
X024880Y052234D01*
X024720Y052234D01*
X024720Y053181D01*
X024627Y053171D01*
X024515Y053145D01*
X024405Y053107D01*
X024301Y053057D01*
X024203Y052995D01*
X024113Y052923D01*
X024031Y052841D01*
X023959Y052751D01*
X023897Y052653D01*
X023847Y052548D01*
X023809Y052439D01*
X023783Y052326D01*
X023773Y052234D01*
X024720Y052234D01*
X024720Y052074D01*
X024880Y052074D01*
X024880Y051126D01*
X024880Y051368D02*
X024720Y051368D01*
X024720Y051527D02*
X024880Y051527D01*
X024880Y051685D02*
X024720Y051685D01*
X024720Y051844D02*
X024880Y051844D01*
X024880Y052002D02*
X024720Y052002D01*
X024720Y052161D02*
X022772Y052161D01*
X022772Y052319D02*
X023782Y052319D01*
X023822Y052478D02*
X022772Y052478D01*
X022772Y052636D02*
X023890Y052636D01*
X023994Y052795D02*
X022772Y052795D01*
X022772Y052954D02*
X024151Y052954D01*
X024421Y053112D02*
X022772Y053112D01*
X022772Y053271D02*
X036647Y053271D01*
X036647Y053429D02*
X022772Y053429D01*
X022772Y052002D02*
X023781Y052002D01*
X023817Y051844D02*
X022772Y051844D01*
X022772Y051685D02*
X023883Y051685D01*
X023983Y051527D02*
X022772Y051527D01*
X022772Y051368D02*
X024133Y051368D01*
X024880Y052161D02*
X034545Y052161D01*
X034545Y052234D02*
X034545Y052074D01*
X033598Y052074D01*
X033608Y051981D01*
X033634Y051868D01*
X033672Y051759D01*
X033722Y051655D01*
X033784Y051557D01*
X033856Y051466D01*
X033938Y051384D01*
X034028Y051312D01*
X034126Y051251D01*
X034230Y051201D01*
X034340Y051162D01*
X034452Y051137D01*
X034545Y051126D01*
X034545Y052074D01*
X034705Y052074D01*
X034705Y052234D01*
X034545Y052234D01*
X034545Y053181D01*
X034452Y053171D01*
X034340Y053145D01*
X034230Y053107D01*
X034126Y053057D01*
X034028Y052995D01*
X033938Y052923D01*
X033856Y052841D01*
X033784Y052751D01*
X033722Y052653D01*
X033672Y052548D01*
X033634Y052439D01*
X033608Y052326D01*
X033598Y052234D01*
X034545Y052234D01*
X034545Y052319D02*
X034705Y052319D01*
X034705Y052234D02*
X034705Y053181D01*
X034798Y053171D01*
X034911Y053145D01*
X035020Y053107D01*
X035124Y053057D01*
X035222Y052995D01*
X035313Y052923D01*
X035394Y052841D01*
X035467Y052751D01*
X035528Y052653D01*
X035578Y052548D01*
X035617Y052439D01*
X035642Y052326D01*
X035653Y052234D01*
X034705Y052234D01*
X034705Y052161D02*
X036647Y052161D01*
X036647Y052319D02*
X035643Y052319D01*
X035603Y052478D02*
X036647Y052478D01*
X036647Y052636D02*
X035536Y052636D01*
X035431Y052795D02*
X036647Y052795D01*
X036647Y052954D02*
X035274Y052954D01*
X035005Y053112D02*
X036647Y053112D01*
X036647Y053588D02*
X016972Y053588D01*
X016947Y053588D02*
X007038Y053588D01*
X007035Y053604D02*
X006999Y053707D01*
X006951Y053805D01*
X006893Y053897D01*
X006826Y053983D01*
X006748Y054060D01*
X006663Y054128D01*
X006571Y054186D01*
X006473Y054233D01*
X006370Y054269D01*
X006264Y054293D01*
X006181Y054302D01*
X006181Y053415D01*
X007068Y053415D01*
X007059Y053498D01*
X007035Y053604D01*
X006980Y053746D02*
X016947Y053746D01*
X016972Y053746D02*
X026765Y053746D01*
X026829Y053683D02*
X027019Y053604D01*
X027225Y053604D01*
X027416Y053683D01*
X027561Y053829D01*
X027640Y054019D01*
X027640Y054225D01*
X027561Y054416D01*
X027416Y054561D01*
X027225Y054640D01*
X027019Y054640D01*
X026829Y054561D01*
X026683Y054416D01*
X026604Y054225D01*
X026604Y054019D01*
X026683Y053829D01*
X026829Y053683D01*
X026651Y053905D02*
X016972Y053905D01*
X016947Y053905D02*
X006887Y053905D01*
X006744Y054063D02*
X016947Y054063D01*
X016972Y054063D02*
X026604Y054063D01*
X026604Y054222D02*
X016972Y054222D01*
X016947Y054222D02*
X006495Y054222D01*
X006181Y054222D02*
X006021Y054222D01*
X006021Y054302D02*
X005938Y054293D01*
X005832Y054269D01*
X005729Y054233D01*
X005630Y054186D01*
X005538Y054128D01*
X005453Y054060D01*
X005376Y053983D01*
X005308Y053897D01*
X005250Y053805D01*
X005203Y053707D01*
X005167Y053604D01*
X005142Y053498D01*
X005133Y053415D01*
X006021Y053415D01*
X006021Y054302D01*
X006021Y054063D02*
X006181Y054063D01*
X006181Y053905D02*
X006021Y053905D01*
X006021Y053746D02*
X006181Y053746D01*
X006181Y053588D02*
X006021Y053588D01*
X006021Y053429D02*
X006181Y053429D01*
X006181Y053415D02*
X006021Y053415D01*
X006021Y053255D01*
X006181Y053255D01*
X006181Y053415D01*
X006181Y053271D02*
X016947Y053271D01*
X016947Y053429D02*
X007067Y053429D01*
X007068Y053255D02*
X006181Y053255D01*
X006181Y052367D01*
X006264Y052376D01*
X006370Y052401D01*
X006473Y052437D01*
X006571Y052484D01*
X006663Y052542D01*
X006748Y052610D01*
X006826Y052687D01*
X006893Y052772D01*
X006951Y052865D01*
X006999Y052963D01*
X007035Y053066D01*
X007059Y053172D01*
X007068Y053255D01*
X007045Y053112D02*
X014561Y053112D01*
X014545Y053107D02*
X014441Y053057D01*
X014343Y052995D01*
X014253Y052923D01*
X014171Y052841D01*
X014099Y052751D01*
X014037Y052653D01*
X013987Y052548D01*
X013949Y052439D01*
X013923Y052326D01*
X013913Y052234D01*
X014860Y052234D01*
X014860Y053181D01*
X014767Y053171D01*
X014655Y053145D01*
X014545Y053107D01*
X014291Y052954D02*
X006994Y052954D01*
X006908Y052795D02*
X014134Y052795D01*
X014030Y052636D02*
X006775Y052636D01*
X006558Y052478D02*
X013962Y052478D01*
X013922Y052319D02*
X004272Y052319D01*
X004272Y052161D02*
X014860Y052161D01*
X014860Y052234D02*
X014860Y052074D01*
X013913Y052074D01*
X013923Y051981D01*
X013949Y051868D01*
X013987Y051759D01*
X014037Y051655D01*
X014099Y051557D01*
X014171Y051466D01*
X014253Y051384D01*
X014343Y051312D01*
X014441Y051251D01*
X014545Y051201D01*
X014655Y051162D01*
X014767Y051137D01*
X014860Y051126D01*
X014860Y052074D01*
X015020Y052074D01*
X015020Y052234D01*
X014860Y052234D01*
X014860Y052319D02*
X015020Y052319D01*
X015020Y052234D02*
X015020Y053181D01*
X015113Y053171D01*
X015226Y053145D01*
X015335Y053107D01*
X015439Y053057D01*
X015537Y052995D01*
X015628Y052923D01*
X015709Y052841D01*
X015782Y052751D01*
X015843Y052653D01*
X015893Y052548D01*
X015931Y052439D01*
X015957Y052326D01*
X015968Y052234D01*
X015020Y052234D01*
X015020Y052161D02*
X016947Y052161D01*
X016947Y052319D02*
X015958Y052319D01*
X015918Y052478D02*
X016947Y052478D01*
X016947Y052636D02*
X015851Y052636D01*
X015746Y052795D02*
X016947Y052795D01*
X016947Y052954D02*
X015589Y052954D01*
X015320Y053112D02*
X016947Y053112D01*
X016947Y052002D02*
X015960Y052002D01*
X015957Y051981D02*
X015968Y052074D01*
X015020Y052074D01*
X015020Y051126D01*
X015113Y051137D01*
X015226Y051162D01*
X015335Y051201D01*
X015439Y051251D01*
X015537Y051312D01*
X015628Y051384D01*
X015709Y051466D01*
X015782Y051557D01*
X015843Y051655D01*
X015893Y051759D01*
X015931Y051868D01*
X015957Y051981D01*
X015923Y051844D02*
X016947Y051844D01*
X016947Y051685D02*
X015858Y051685D01*
X015758Y051527D02*
X016947Y051527D01*
X016947Y051368D02*
X015607Y051368D01*
X015354Y051210D02*
X016947Y051210D01*
X016947Y051051D02*
X004272Y051051D01*
X004272Y050892D02*
X016947Y050892D01*
X015020Y051210D02*
X014860Y051210D01*
X014860Y051368D02*
X015020Y051368D01*
X015020Y051527D02*
X014860Y051527D01*
X014860Y051685D02*
X015020Y051685D01*
X015020Y051844D02*
X014860Y051844D01*
X014860Y052002D02*
X015020Y052002D01*
X015020Y052478D02*
X014860Y052478D01*
X014860Y052636D02*
X015020Y052636D01*
X015020Y052795D02*
X014860Y052795D01*
X014860Y052954D02*
X015020Y052954D01*
X015020Y053112D02*
X014860Y053112D01*
X013921Y052002D02*
X004272Y052002D01*
X004272Y051844D02*
X013957Y051844D01*
X014023Y051685D02*
X004272Y051685D01*
X004272Y051527D02*
X014123Y051527D01*
X014273Y051368D02*
X004272Y051368D01*
X004272Y051210D02*
X014527Y051210D01*
X016947Y054380D02*
X004272Y054380D01*
X004272Y054222D02*
X005706Y054222D01*
X005458Y054063D02*
X004272Y054063D01*
X004272Y053905D02*
X005314Y053905D01*
X005222Y053746D02*
X004272Y053746D01*
X004272Y053588D02*
X005163Y053588D01*
X005135Y053429D02*
X004272Y053429D01*
X004272Y053271D02*
X006021Y053271D01*
X006021Y053255D02*
X005133Y053255D01*
X005142Y053172D01*
X005167Y053066D01*
X005203Y052963D01*
X005250Y052865D01*
X005308Y052772D01*
X005376Y052687D01*
X005453Y052610D01*
X005538Y052542D01*
X005630Y052484D01*
X005729Y052437D01*
X005832Y052401D01*
X005938Y052376D01*
X006021Y052367D01*
X006021Y053255D01*
X006021Y053112D02*
X006181Y053112D01*
X006181Y052954D02*
X006021Y052954D01*
X006021Y052795D02*
X006181Y052795D01*
X006181Y052636D02*
X006021Y052636D01*
X006021Y052478D02*
X006181Y052478D01*
X005643Y052478D02*
X004272Y052478D01*
X004272Y052636D02*
X005426Y052636D01*
X005294Y052795D02*
X004272Y052795D01*
X004272Y052954D02*
X005207Y052954D01*
X005156Y053112D02*
X004272Y053112D01*
X004272Y054539D02*
X016947Y054539D01*
X016972Y054539D02*
X026806Y054539D01*
X026668Y054380D02*
X016972Y054380D01*
X016972Y054698D02*
X036647Y054698D01*
X036697Y054698D02*
X055173Y054698D01*
X055173Y054856D02*
X036697Y054856D01*
X036647Y054856D02*
X016972Y054856D01*
X016947Y054856D02*
X004272Y054856D01*
X004272Y054698D02*
X016947Y054698D01*
X016947Y055015D02*
X004272Y055015D01*
X004272Y050734D02*
X055173Y050734D01*
X055173Y050892D02*
X042472Y050892D01*
X042472Y051051D02*
X055173Y051051D01*
X055173Y051210D02*
X044899Y051210D01*
X044880Y051201D02*
X044984Y051251D01*
X045082Y051312D01*
X045173Y051384D01*
X045254Y051466D01*
X045327Y051557D01*
X045388Y051655D01*
X045438Y051759D01*
X045477Y051868D01*
X045502Y051981D01*
X045513Y052074D01*
X044565Y052074D01*
X044565Y052234D01*
X044405Y052234D01*
X044405Y053181D01*
X044312Y053171D01*
X044200Y053145D01*
X044090Y053107D01*
X043986Y053057D01*
X043888Y052995D01*
X043798Y052923D01*
X043716Y052841D01*
X043644Y052751D01*
X043582Y052653D01*
X043532Y052548D01*
X043494Y052439D01*
X043468Y052326D01*
X043458Y052234D01*
X044405Y052234D01*
X044405Y052074D01*
X043458Y052074D01*
X043468Y051981D01*
X043494Y051868D01*
X043532Y051759D01*
X043582Y051655D01*
X043644Y051557D01*
X043716Y051466D01*
X043798Y051384D01*
X043888Y051312D01*
X043986Y051251D01*
X044090Y051201D01*
X044200Y051162D01*
X044312Y051137D01*
X044405Y051126D01*
X044405Y052074D01*
X044565Y052074D01*
X044565Y051126D01*
X044658Y051137D01*
X044771Y051162D01*
X044880Y051201D01*
X044565Y051210D02*
X044405Y051210D01*
X044405Y051368D02*
X044565Y051368D01*
X044565Y051527D02*
X044405Y051527D01*
X044405Y051685D02*
X044565Y051685D01*
X044565Y051844D02*
X044405Y051844D01*
X044405Y052002D02*
X044565Y052002D01*
X044565Y052161D02*
X055173Y052161D01*
X055173Y052319D02*
X045503Y052319D01*
X045502Y052326D02*
X045477Y052439D01*
X045438Y052548D01*
X045388Y052653D01*
X045327Y052751D01*
X045254Y052841D01*
X045173Y052923D01*
X045082Y052995D01*
X044984Y053057D01*
X044880Y053107D01*
X044771Y053145D01*
X044658Y053171D01*
X044565Y053181D01*
X044565Y052234D01*
X045513Y052234D01*
X045502Y052326D01*
X045463Y052478D02*
X052887Y052478D01*
X052875Y052484D02*
X052973Y052437D01*
X053076Y052401D01*
X053182Y052376D01*
X053265Y052367D01*
X053265Y053255D01*
X053425Y053255D01*
X053425Y053415D01*
X054312Y053415D01*
X054303Y053498D01*
X054279Y053604D01*
X054243Y053707D01*
X054196Y053805D01*
X054138Y053897D01*
X054070Y053983D01*
X053993Y054060D01*
X053907Y054128D01*
X053815Y054186D01*
X053717Y054233D01*
X053614Y054269D01*
X053508Y054293D01*
X053425Y054302D01*
X053425Y053415D01*
X053265Y053415D01*
X053265Y054302D01*
X053182Y054293D01*
X053076Y054269D01*
X052973Y054233D01*
X052875Y054186D01*
X052782Y054128D01*
X052697Y054060D01*
X052620Y053983D01*
X052552Y053897D01*
X052494Y053805D01*
X052447Y053707D01*
X052411Y053604D01*
X052386Y053498D01*
X052377Y053415D01*
X053265Y053415D01*
X053265Y053255D01*
X052377Y053255D01*
X052386Y053172D01*
X052411Y053066D01*
X052447Y052963D01*
X052494Y052865D01*
X052552Y052772D01*
X052620Y052687D01*
X052697Y052610D01*
X052782Y052542D01*
X052875Y052484D01*
X052671Y052636D02*
X045396Y052636D01*
X045291Y052795D02*
X052538Y052795D01*
X052451Y052954D02*
X045134Y052954D01*
X044865Y053112D02*
X052400Y053112D01*
X052379Y053429D02*
X042472Y053429D01*
X042472Y053271D02*
X053265Y053271D01*
X053265Y053429D02*
X053425Y053429D01*
X053425Y053271D02*
X055173Y053271D01*
X055173Y053429D02*
X054311Y053429D01*
X054283Y053588D02*
X055173Y053588D01*
X055173Y053746D02*
X054224Y053746D01*
X054132Y053905D02*
X055173Y053905D01*
X055173Y054063D02*
X053988Y054063D01*
X053740Y054222D02*
X055173Y054222D01*
X055173Y054380D02*
X036697Y054380D01*
X036647Y054380D02*
X027576Y054380D01*
X027640Y054222D02*
X036647Y054222D01*
X036697Y054222D02*
X052950Y054222D01*
X052702Y054063D02*
X036697Y054063D01*
X036647Y054063D02*
X027640Y054063D01*
X027593Y053905D02*
X036647Y053905D01*
X036697Y053905D02*
X052558Y053905D01*
X052466Y053746D02*
X036697Y053746D01*
X036647Y053746D02*
X027479Y053746D01*
X027438Y054539D02*
X036647Y054539D01*
X036697Y054539D02*
X055173Y054539D01*
X055173Y055015D02*
X036697Y055015D01*
X036647Y055015D02*
X016972Y055015D01*
X009861Y049616D02*
X009716Y049761D01*
X009525Y049840D01*
X009319Y049840D01*
X009129Y049761D01*
X008983Y049616D01*
X008904Y049425D01*
X008904Y049219D01*
X008983Y049029D01*
X009129Y048883D01*
X009319Y048804D01*
X009525Y048804D01*
X009716Y048883D01*
X009861Y049029D01*
X009940Y049219D01*
X009940Y049425D01*
X009861Y049616D01*
X009853Y049624D02*
X049591Y049624D01*
X049583Y049616D02*
X049504Y049425D01*
X049504Y049219D01*
X049583Y049029D01*
X049729Y048883D01*
X049919Y048804D01*
X050125Y048804D01*
X050316Y048883D01*
X050461Y049029D01*
X050540Y049219D01*
X050540Y049425D01*
X050461Y049616D01*
X050316Y049761D01*
X050125Y049840D01*
X049919Y049840D01*
X049729Y049761D01*
X049583Y049616D01*
X049521Y049466D02*
X009924Y049466D01*
X009940Y049307D02*
X049504Y049307D01*
X049533Y049149D02*
X009911Y049149D01*
X009823Y048990D02*
X049622Y048990D01*
X049853Y048831D02*
X009591Y048831D01*
X009253Y048831D02*
X004272Y048831D01*
X004272Y048673D02*
X055173Y048673D01*
X055173Y048831D02*
X050191Y048831D01*
X050423Y048990D02*
X055173Y048990D01*
X055173Y049149D02*
X050511Y049149D01*
X050540Y049307D02*
X055173Y049307D01*
X055173Y049466D02*
X050524Y049466D01*
X050453Y049624D02*
X055173Y049624D01*
X055173Y049783D02*
X050264Y049783D01*
X049780Y049783D02*
X009664Y049783D01*
X009180Y049783D02*
X004272Y049783D01*
X004272Y049941D02*
X055173Y049941D01*
X055173Y050100D02*
X004272Y050100D01*
X004272Y050258D02*
X055173Y050258D01*
X055173Y050417D02*
X004272Y050417D01*
X004272Y050575D02*
X055173Y050575D01*
X055173Y051368D02*
X045152Y051368D01*
X045303Y051527D02*
X055173Y051527D01*
X055173Y051685D02*
X045403Y051685D01*
X045468Y051844D02*
X055173Y051844D01*
X055173Y052002D02*
X045505Y052002D01*
X044565Y052319D02*
X044405Y052319D01*
X044405Y052161D02*
X042472Y052161D01*
X042472Y052319D02*
X043467Y052319D01*
X043508Y052478D02*
X042472Y052478D01*
X042472Y052636D02*
X043575Y052636D01*
X043679Y052795D02*
X042472Y052795D01*
X042472Y052954D02*
X043836Y052954D01*
X044106Y053112D02*
X042472Y053112D01*
X042472Y052002D02*
X043466Y052002D01*
X043502Y051844D02*
X042472Y051844D01*
X042472Y051685D02*
X043568Y051685D01*
X043668Y051527D02*
X042472Y051527D01*
X042472Y051368D02*
X043818Y051368D01*
X044072Y051210D02*
X042472Y051210D01*
X044405Y052478D02*
X044565Y052478D01*
X044565Y052636D02*
X044405Y052636D01*
X044405Y052795D02*
X044565Y052795D01*
X044565Y052954D02*
X044405Y052954D01*
X044405Y053112D02*
X044565Y053112D01*
X052407Y053588D02*
X036697Y053588D01*
X036647Y052002D02*
X035645Y052002D01*
X035642Y051981D02*
X035653Y052074D01*
X034705Y052074D01*
X034705Y051126D01*
X034798Y051137D01*
X034911Y051162D01*
X035020Y051201D01*
X035124Y051251D01*
X035222Y051312D01*
X035313Y051384D01*
X035394Y051466D01*
X035467Y051557D01*
X035528Y051655D01*
X035578Y051759D01*
X035617Y051868D01*
X035642Y051981D01*
X035608Y051844D02*
X036647Y051844D01*
X036647Y051685D02*
X035543Y051685D01*
X035443Y051527D02*
X036647Y051527D01*
X036647Y051368D02*
X035292Y051368D01*
X035039Y051210D02*
X036647Y051210D01*
X034705Y051210D02*
X034545Y051210D01*
X034545Y051368D02*
X034705Y051368D01*
X034705Y051527D02*
X034545Y051527D01*
X034545Y051685D02*
X034705Y051685D01*
X034705Y051844D02*
X034545Y051844D01*
X034545Y052002D02*
X034705Y052002D01*
X034705Y052478D02*
X034545Y052478D01*
X034545Y052636D02*
X034705Y052636D01*
X034705Y052795D02*
X034545Y052795D01*
X034545Y052954D02*
X034705Y052954D01*
X034705Y053112D02*
X034545Y053112D01*
X034246Y053112D02*
X025180Y053112D01*
X025195Y053107D02*
X025086Y053145D01*
X024973Y053171D01*
X024880Y053181D01*
X024880Y052234D01*
X025828Y052234D01*
X025817Y052326D01*
X025791Y052439D01*
X025753Y052548D01*
X025703Y052653D01*
X025642Y052751D01*
X025569Y052841D01*
X025488Y052923D01*
X025397Y052995D01*
X025299Y053057D01*
X025195Y053107D01*
X025449Y052954D02*
X033976Y052954D01*
X033819Y052795D02*
X025606Y052795D01*
X025711Y052636D02*
X033715Y052636D01*
X033648Y052478D02*
X025778Y052478D01*
X025818Y052319D02*
X033607Y052319D01*
X033606Y052002D02*
X025820Y052002D01*
X025783Y051844D02*
X033642Y051844D01*
X033708Y051685D02*
X025718Y051685D01*
X025618Y051527D02*
X033808Y051527D01*
X033958Y051368D02*
X025467Y051368D01*
X025214Y051210D02*
X034212Y051210D01*
X031858Y048039D02*
X031031Y048039D01*
X031157Y047880D02*
X031732Y047880D01*
X031677Y047722D02*
X031213Y047722D01*
X031213Y047563D02*
X031677Y047563D01*
X031732Y047405D02*
X031157Y047405D01*
X031031Y047246D02*
X031858Y047246D01*
X033723Y042331D02*
X008585Y042331D01*
X008585Y042173D02*
X033591Y042173D01*
X033526Y042014D02*
X008585Y042014D01*
X008585Y041856D02*
X033499Y041856D01*
X034741Y042331D02*
X035361Y042331D01*
X035321Y042311D02*
X035246Y042256D01*
X035180Y042190D01*
X035125Y042114D01*
X035082Y042031D01*
X035053Y041942D01*
X035041Y041861D01*
X035574Y041861D01*
X035574Y041745D01*
X035690Y041745D01*
X035690Y041212D01*
X035771Y041225D01*
X035860Y041253D01*
X035943Y041296D01*
X036019Y041351D01*
X036085Y041417D01*
X036140Y041492D01*
X036182Y041576D01*
X036211Y041664D01*
X036224Y041745D01*
X035690Y041745D01*
X035690Y041861D01*
X036224Y041861D01*
X036211Y041942D01*
X036182Y042031D01*
X036140Y042114D01*
X036085Y042190D01*
X036019Y042256D01*
X035943Y042311D01*
X035860Y042353D01*
X035771Y042382D01*
X035690Y042395D01*
X035690Y041861D01*
X035574Y041861D01*
X035574Y042395D01*
X035493Y042382D01*
X035404Y042353D01*
X035321Y042311D01*
X035167Y042173D02*
X034873Y042173D01*
X034939Y042014D02*
X035077Y042014D01*
X034966Y041856D02*
X035574Y041856D01*
X035574Y041745D02*
X035041Y041745D01*
X035053Y041664D01*
X035082Y041576D01*
X035125Y041492D01*
X035180Y041417D01*
X035246Y041351D01*
X035321Y041296D01*
X035404Y041253D01*
X035493Y041225D01*
X035574Y041212D01*
X035574Y041745D01*
X035574Y041697D02*
X035690Y041697D01*
X035690Y041856D02*
X036299Y041856D01*
X036299Y041697D02*
X036216Y041697D01*
X036163Y041538D02*
X036348Y041538D01*
X036418Y041380D02*
X036048Y041380D01*
X035751Y041221D02*
X036577Y041221D01*
X036326Y042014D02*
X036188Y042014D01*
X036097Y042173D02*
X036391Y042173D01*
X036523Y042331D02*
X035903Y042331D01*
X035690Y042331D02*
X035574Y042331D01*
X035574Y042173D02*
X035690Y042173D01*
X035690Y042014D02*
X035574Y042014D01*
X035574Y041538D02*
X035690Y041538D01*
X035690Y041380D02*
X035574Y041380D01*
X035574Y041221D02*
X035690Y041221D01*
X035513Y041221D02*
X034687Y041221D01*
X034846Y041380D02*
X035216Y041380D01*
X035101Y041538D02*
X034916Y041538D01*
X034966Y041697D02*
X035048Y041697D01*
X040334Y037099D02*
X046145Y037099D01*
X046251Y036941D02*
X040546Y036941D01*
X040627Y036782D02*
X050835Y036782D01*
X050835Y036941D02*
X046993Y036941D01*
X047099Y037099D02*
X050835Y037099D01*
X050835Y037258D02*
X047140Y037258D01*
X047136Y037416D02*
X050835Y037416D01*
X050835Y037575D02*
X047070Y037575D01*
X046924Y037733D02*
X050835Y037733D01*
X051632Y035514D02*
X048049Y035514D01*
X048025Y035504D02*
X048216Y035583D01*
X048361Y035729D01*
X048440Y035919D01*
X048440Y036125D01*
X048361Y036316D01*
X048216Y036461D01*
X048025Y036540D01*
X047819Y036540D01*
X047629Y036461D01*
X047483Y036316D01*
X047404Y036125D01*
X047404Y035919D01*
X047483Y035729D01*
X047629Y035583D01*
X047819Y035504D01*
X048025Y035504D01*
X047796Y035514D02*
X007715Y035514D01*
X007920Y035355D02*
X051427Y035355D01*
X051296Y035197D02*
X008050Y035197D01*
X008137Y035038D02*
X051209Y035038D01*
X051155Y034880D02*
X008191Y034880D01*
X007273Y034880D02*
X007113Y034880D01*
X007113Y035038D02*
X007273Y035038D01*
X007273Y035197D02*
X007113Y035197D01*
X007113Y035355D02*
X007273Y035355D01*
X007273Y035514D02*
X007113Y035514D01*
X007113Y035653D02*
X007113Y034705D01*
X006166Y034705D01*
X006176Y034798D01*
X006202Y034911D01*
X006240Y035020D01*
X006290Y035124D01*
X006352Y035222D01*
X006424Y035313D01*
X006506Y035394D01*
X006596Y035467D01*
X006694Y035528D01*
X006798Y035578D01*
X006907Y035617D01*
X007020Y035642D01*
X007113Y035653D01*
X006671Y035514D02*
X004272Y035514D01*
X004272Y035672D02*
X047539Y035672D01*
X047441Y035831D02*
X004272Y035831D01*
X004272Y035989D02*
X047404Y035989D01*
X047414Y036148D02*
X040341Y036148D01*
X040549Y036306D02*
X047479Y036306D01*
X047637Y036465D02*
X040628Y036465D01*
X040650Y036624D02*
X055173Y036624D01*
X055173Y036782D02*
X053460Y036782D01*
X053460Y036941D02*
X055173Y036941D01*
X055173Y037099D02*
X053460Y037099D01*
X053460Y037258D02*
X055173Y037258D01*
X055173Y037416D02*
X053460Y037416D01*
X053460Y037575D02*
X055173Y037575D01*
X055173Y037733D02*
X053460Y037733D01*
X053460Y037892D02*
X055173Y037892D01*
X055173Y038050D02*
X053460Y038050D01*
X053460Y038209D02*
X055173Y038209D01*
X055173Y038368D02*
X053460Y038368D01*
X053460Y038526D02*
X055173Y038526D01*
X055173Y038685D02*
X053460Y038685D01*
X053460Y038843D02*
X055173Y038843D01*
X055173Y039002D02*
X053460Y039002D01*
X053460Y039160D02*
X055173Y039160D01*
X055173Y039319D02*
X053460Y039319D01*
X053460Y039477D02*
X055173Y039477D01*
X055173Y039636D02*
X053460Y039636D01*
X053460Y039794D02*
X055173Y039794D01*
X055173Y039953D02*
X053460Y039953D01*
X053460Y040112D02*
X055173Y040112D01*
X055173Y040270D02*
X053460Y040270D01*
X053460Y040429D02*
X055173Y040429D01*
X055173Y040587D02*
X053460Y040587D01*
X053460Y040746D02*
X055173Y040746D01*
X055173Y040904D02*
X053460Y040904D01*
X053460Y041063D02*
X055173Y041063D01*
X055173Y041221D02*
X053460Y041221D01*
X053460Y041380D02*
X055173Y041380D01*
X055173Y041538D02*
X053460Y041538D01*
X053460Y041697D02*
X055173Y041697D01*
X055173Y041856D02*
X053460Y041856D01*
X053460Y042014D02*
X055173Y042014D01*
X055173Y042173D02*
X053460Y042173D01*
X053460Y042331D02*
X055173Y042331D01*
X055173Y036465D02*
X048207Y036465D01*
X048365Y036306D02*
X055173Y036306D01*
X055173Y036148D02*
X048431Y036148D01*
X048440Y035989D02*
X055173Y035989D01*
X055173Y035831D02*
X048404Y035831D01*
X048305Y035672D02*
X055173Y035672D01*
X055173Y035514D02*
X052676Y035514D01*
X052880Y035355D02*
X055173Y035355D01*
X055173Y035197D02*
X053011Y035197D01*
X053098Y035038D02*
X055173Y035038D01*
X055173Y034880D02*
X053152Y034880D01*
X053179Y034721D02*
X055173Y034721D01*
X055173Y034563D02*
X052234Y034563D01*
X052234Y034545D02*
X053181Y034545D01*
X053171Y034452D01*
X053145Y034340D01*
X053107Y034230D01*
X053057Y034126D01*
X052995Y034028D01*
X052923Y033938D01*
X052841Y033856D01*
X052751Y033784D01*
X052653Y033722D01*
X052548Y033672D01*
X052439Y033634D01*
X052326Y033608D01*
X052234Y033598D01*
X052234Y034545D01*
X052234Y034404D02*
X052074Y034404D01*
X052074Y034563D02*
X045244Y034563D01*
X045000Y034563D02*
X040413Y034563D01*
X040416Y034561D02*
X040225Y034640D01*
X040019Y034640D01*
X039829Y034561D01*
X039683Y034416D01*
X039604Y034225D01*
X039604Y034019D01*
X039683Y033829D01*
X039829Y033683D01*
X040019Y033604D01*
X040225Y033604D01*
X040416Y033683D01*
X040561Y033829D01*
X040640Y034019D01*
X040640Y034225D01*
X040561Y034416D01*
X040416Y034561D01*
X040566Y034404D02*
X044741Y034404D01*
X044641Y034245D02*
X040632Y034245D01*
X040640Y034087D02*
X044604Y034087D01*
X044613Y033928D02*
X040603Y033928D01*
X040503Y033770D02*
X044678Y033770D01*
X044833Y033611D02*
X040243Y033611D01*
X040002Y033611D02*
X037746Y033611D01*
X037766Y033770D02*
X039742Y033770D01*
X039642Y033928D02*
X037766Y033928D01*
X037709Y034087D02*
X039604Y034087D01*
X039612Y034245D02*
X037627Y034245D01*
X037469Y034404D02*
X039678Y034404D01*
X039831Y034563D02*
X007273Y034563D01*
X007273Y034721D02*
X007113Y034721D01*
X007113Y034563D02*
X004272Y034563D01*
X004272Y034721D02*
X006167Y034721D01*
X006195Y034880D02*
X004272Y034880D01*
X004272Y035038D02*
X006249Y035038D01*
X006336Y035197D02*
X004272Y035197D01*
X004272Y035355D02*
X006466Y035355D01*
X006187Y034404D02*
X004272Y034404D01*
X004272Y036148D02*
X039923Y036148D01*
X040609Y040429D02*
X044763Y040429D01*
X044650Y040587D02*
X040650Y040587D01*
X040646Y040746D02*
X044604Y040746D01*
X044604Y040904D02*
X040580Y040904D01*
X040434Y041063D02*
X044669Y041063D01*
X044809Y041221D02*
X040454Y041221D01*
X033498Y036306D02*
X004272Y036306D01*
X004272Y036465D02*
X033233Y036465D01*
X046979Y033928D02*
X051394Y033928D01*
X051579Y033770D02*
X047093Y033770D01*
X047140Y033611D02*
X051968Y033611D01*
X052074Y033611D02*
X052234Y033611D01*
X052340Y033611D02*
X055173Y033611D01*
X055173Y033453D02*
X047140Y033453D01*
X047076Y033294D02*
X055173Y033294D01*
X055173Y033136D02*
X046938Y033136D01*
X046918Y029489D02*
X047961Y029489D01*
X047955Y029331D02*
X047068Y029331D01*
X047133Y029172D02*
X047996Y029172D01*
X048101Y029014D02*
X047140Y029014D01*
X052074Y033770D02*
X052234Y033770D01*
X052234Y033928D02*
X052074Y033928D01*
X052074Y034087D02*
X052234Y034087D01*
X052234Y034245D02*
X052074Y034245D01*
X052074Y034721D02*
X052234Y034721D01*
X052234Y034880D02*
X052074Y034880D01*
X052074Y035038D02*
X052234Y035038D01*
X052234Y035197D02*
X052074Y035197D01*
X052074Y035355D02*
X052234Y035355D01*
X052234Y035514D02*
X052074Y035514D01*
X053160Y034404D02*
X055173Y034404D01*
X055173Y034245D02*
X053112Y034245D01*
X053032Y034087D02*
X055173Y034087D01*
X055173Y033928D02*
X052913Y033928D01*
X052728Y033770D02*
X055173Y033770D01*
X055173Y024257D02*
X053460Y024257D01*
X053460Y024099D02*
X055173Y024099D01*
X055173Y023940D02*
X053460Y023940D01*
X053460Y023782D02*
X055173Y023782D01*
X055173Y023623D02*
X053460Y023623D01*
X053460Y023464D02*
X055173Y023464D01*
X055173Y023306D02*
X053460Y023306D01*
X053460Y023147D02*
X055173Y023147D01*
X055173Y022989D02*
X053460Y022989D01*
X053460Y022830D02*
X055173Y022830D01*
X055173Y022672D02*
X053460Y022672D01*
X053460Y022513D02*
X055173Y022513D01*
X055173Y022355D02*
X053460Y022355D01*
X053460Y022196D02*
X055173Y022196D01*
X055173Y022038D02*
X053460Y022038D01*
X053460Y021879D02*
X055173Y021879D01*
X055173Y021721D02*
X053460Y021721D01*
X053460Y021562D02*
X055173Y021562D01*
X055173Y021403D02*
X053460Y021403D01*
X053460Y021245D02*
X055173Y021245D01*
X055173Y021086D02*
X053460Y021086D01*
X053460Y020928D02*
X055173Y020928D01*
X055173Y020769D02*
X053460Y020769D01*
X053460Y020611D02*
X055173Y020611D01*
X055173Y020452D02*
X053460Y020452D01*
X053460Y020294D02*
X055173Y020294D01*
X055173Y020135D02*
X053460Y020135D01*
X053460Y019977D02*
X055173Y019977D01*
X055173Y019818D02*
X053460Y019818D01*
X053460Y019659D02*
X055173Y019659D01*
X055173Y019501D02*
X053460Y019501D01*
X053460Y019342D02*
X055173Y019342D01*
X055173Y019184D02*
X053460Y019184D01*
X053460Y019025D02*
X055173Y019025D01*
X055173Y018867D02*
X053460Y018867D01*
X053460Y018708D02*
X055173Y018708D01*
X055173Y018550D02*
X053460Y018550D01*
X053460Y018391D02*
X055173Y018391D01*
X055173Y018233D02*
X053460Y018233D01*
X053460Y018074D02*
X055173Y018074D01*
X055173Y017915D02*
X053460Y017915D01*
X053460Y017757D02*
X055173Y017757D01*
X055173Y017598D02*
X053460Y017598D01*
X053460Y017440D02*
X055173Y017440D01*
X055173Y017281D02*
X053460Y017281D01*
X053460Y017123D02*
X055173Y017123D01*
X055173Y016964D02*
X053460Y016964D01*
X053460Y016806D02*
X055173Y016806D01*
X055173Y016647D02*
X053460Y016647D01*
X053460Y016489D02*
X055173Y016489D01*
X055173Y016330D02*
X053460Y016330D01*
X053460Y016171D02*
X055173Y016171D01*
X055173Y016013D02*
X053460Y016013D01*
X053460Y015854D02*
X055173Y015854D01*
X055173Y015696D02*
X053460Y015696D01*
X053460Y015537D02*
X055173Y015537D01*
X055173Y015379D02*
X053460Y015379D01*
X052234Y014269D02*
X052074Y014269D01*
X052074Y014110D02*
X052234Y014110D01*
X052234Y013952D02*
X052074Y013952D01*
X052074Y013793D02*
X052234Y013793D01*
X052234Y013635D02*
X052074Y013635D01*
X053173Y013159D02*
X055173Y013159D01*
X055173Y013001D02*
X053137Y013001D01*
X053071Y012842D02*
X055173Y012842D01*
X055173Y012684D02*
X052971Y012684D01*
X052821Y012525D02*
X055173Y012525D01*
X055173Y012366D02*
X052568Y012366D01*
X055173Y014903D02*
X025474Y014903D01*
X016947Y006976D02*
X015947Y006976D01*
X015900Y006817D02*
X016947Y006817D01*
X016947Y006659D02*
X015821Y006659D01*
X015704Y006500D02*
X016947Y006500D01*
X016947Y006342D02*
X015521Y006342D01*
X015145Y006183D02*
X016947Y006183D01*
X016947Y006025D02*
X006181Y006025D01*
X006181Y006183D02*
X006021Y006183D01*
X006021Y006342D02*
X006181Y006342D01*
X006181Y006500D02*
X006021Y006500D01*
X006021Y006659D02*
X006181Y006659D01*
X006181Y006817D02*
X006021Y006817D01*
X006021Y006976D02*
X006181Y006976D01*
X006499Y006976D02*
X013933Y006976D01*
X013980Y006817D02*
X006746Y006817D01*
X006889Y006659D02*
X014059Y006659D01*
X014176Y006500D02*
X006981Y006500D01*
X007039Y006342D02*
X014359Y006342D01*
X014736Y006183D02*
X007067Y006183D01*
X005647Y005232D02*
X004272Y005232D01*
X004272Y005391D02*
X005428Y005391D01*
X005295Y005549D02*
X004272Y005549D01*
X004272Y005708D02*
X005208Y005708D01*
X005156Y005866D02*
X004272Y005866D01*
X004272Y010781D02*
X006802Y010781D01*
X006539Y010940D02*
X004272Y010940D01*
X004272Y011098D02*
X006384Y011098D01*
X006280Y011257D02*
X004272Y011257D01*
X004272Y011415D02*
X006214Y011415D01*
X006175Y011574D02*
X004272Y011574D01*
X007113Y011415D02*
X007273Y011415D01*
X007273Y011257D02*
X007113Y011257D01*
X007113Y011098D02*
X007273Y011098D01*
X007273Y010940D02*
X007113Y010940D01*
X007113Y010781D02*
X007273Y010781D01*
X007273Y011891D02*
X007113Y011891D01*
X007113Y012049D02*
X007273Y012049D01*
X007273Y012208D02*
X007113Y012208D01*
X007113Y012366D02*
X007273Y012366D01*
X007273Y012525D02*
X007113Y012525D01*
X007113Y012684D02*
X007273Y012684D01*
X014860Y008086D02*
X015020Y008086D01*
X015020Y007927D02*
X014860Y007927D01*
X014860Y007769D02*
X015020Y007769D01*
X015020Y007610D02*
X014860Y007610D01*
X014860Y007452D02*
X015020Y007452D01*
X015020Y006976D02*
X014860Y006976D01*
X014860Y006817D02*
X015020Y006817D01*
X015020Y006659D02*
X014860Y006659D01*
X014860Y006500D02*
X015020Y006500D01*
X015020Y006342D02*
X014860Y006342D01*
X014860Y006183D02*
X015020Y006183D01*
X038266Y021086D02*
X050835Y021086D01*
X050835Y021245D02*
X038226Y021245D01*
X038160Y021403D02*
X050835Y021403D01*
X050835Y021562D02*
X038011Y021562D01*
X046998Y019659D02*
X050835Y019659D01*
X050835Y019501D02*
X047101Y019501D01*
X047140Y019342D02*
X050835Y019342D01*
X050835Y019184D02*
X047134Y019184D01*
X047068Y019025D02*
X050835Y019025D01*
X050835Y018867D02*
X046919Y018867D01*
X043478Y006976D02*
X042497Y006976D01*
X042497Y006817D02*
X043525Y006817D01*
X043604Y006659D02*
X042497Y006659D01*
X042497Y006500D02*
X043721Y006500D01*
X043904Y006342D02*
X042497Y006342D01*
X042497Y006183D02*
X044281Y006183D01*
X042497Y006025D02*
X053265Y006025D01*
X053265Y006183D02*
X053425Y006183D01*
X053425Y006342D02*
X053265Y006342D01*
X053265Y006500D02*
X053425Y006500D01*
X053425Y006659D02*
X053265Y006659D01*
X053265Y006817D02*
X053425Y006817D01*
X053425Y006976D02*
X053265Y006976D01*
X054289Y005866D02*
X055173Y005866D01*
X055173Y005708D02*
X054237Y005708D01*
X054151Y005549D02*
X055173Y005549D01*
X055173Y005391D02*
X054017Y005391D01*
X053799Y005232D02*
X055173Y005232D01*
X014399Y033770D02*
X007768Y033770D01*
X007953Y033928D02*
X014496Y033928D01*
X013384Y037416D02*
X013380Y037416D01*
X013231Y037575D02*
X013534Y037575D01*
X012534Y037575D02*
X012231Y037575D01*
X012380Y037416D02*
X012384Y037416D01*
X012237Y039794D02*
X012527Y039794D01*
X012412Y039953D02*
X012352Y039953D01*
X012337Y040429D02*
X012428Y040429D01*
X012564Y040587D02*
X012200Y040587D01*
X013200Y040587D02*
X013564Y040587D01*
X013428Y040429D02*
X013337Y040429D01*
X013352Y039953D02*
X013412Y039953D01*
X013527Y039794D02*
X013237Y039794D01*
X013365Y043441D02*
X013400Y043441D01*
X013565Y043599D02*
X013200Y043599D01*
X014200Y043599D02*
X014565Y043599D01*
X014400Y043441D02*
X014365Y043441D01*
X009022Y048990D02*
X004272Y048990D01*
X004272Y049149D02*
X008933Y049149D01*
X008904Y049307D02*
X004272Y049307D01*
X004272Y049466D02*
X008921Y049466D01*
X008991Y049624D02*
X004272Y049624D01*
X004272Y048514D02*
X055173Y048514D01*
X055173Y048356D02*
X004272Y048356D01*
X007113Y034404D02*
X007273Y034404D01*
X007273Y034245D02*
X007113Y034245D01*
X007113Y034087D02*
X007273Y034087D01*
X007273Y033928D02*
X007113Y033928D01*
X007113Y033770D02*
X007273Y033770D01*
X024720Y052319D02*
X024880Y052319D01*
X024880Y052478D02*
X024720Y052478D01*
X024720Y052636D02*
X024880Y052636D01*
X024880Y052795D02*
X024720Y052795D01*
X024720Y052954D02*
X024880Y052954D01*
X024880Y053112D02*
X024720Y053112D01*
X053265Y053112D02*
X053425Y053112D01*
X053425Y053255D02*
X053425Y052367D01*
X053508Y052376D01*
X053614Y052401D01*
X053717Y052437D01*
X053815Y052484D01*
X053907Y052542D01*
X053993Y052610D01*
X054070Y052687D01*
X054138Y052772D01*
X054196Y052865D01*
X054243Y052963D01*
X054279Y053066D01*
X054303Y053172D01*
X054312Y053255D01*
X053425Y053255D01*
X053425Y052954D02*
X053265Y052954D01*
X053265Y052795D02*
X053425Y052795D01*
X053425Y052636D02*
X053265Y052636D01*
X053265Y052478D02*
X053425Y052478D01*
X053802Y052478D02*
X055173Y052478D01*
X055173Y052636D02*
X054019Y052636D01*
X054152Y052795D02*
X055173Y052795D01*
X055173Y052954D02*
X054238Y052954D01*
X054289Y053112D02*
X055173Y053112D01*
X053425Y053588D02*
X053265Y053588D01*
X053265Y053746D02*
X053425Y053746D01*
X053425Y053905D02*
X053265Y053905D01*
X053265Y054063D02*
X053425Y054063D01*
X053425Y054222D02*
X053265Y054222D01*
D19*
X044485Y052154D02*
X043925Y051594D01*
X051594Y043925D02*
X052154Y044485D01*
X051594Y035185D02*
X052154Y034625D01*
X052154Y026430D02*
X051376Y026430D01*
X049172Y024226D01*
X049172Y021522D01*
X049204Y021490D01*
X049172Y021522D02*
X049172Y018222D01*
X050224Y017170D01*
X054030Y022030D02*
X054622Y022622D01*
X054622Y025122D01*
X053314Y026430D01*
X052154Y026430D01*
X043925Y007753D02*
X044485Y007193D01*
X035185Y007753D02*
X034625Y007193D01*
X024800Y007193D02*
X024240Y007753D01*
X015500Y007753D02*
X014940Y007193D01*
X007753Y012295D02*
X007193Y011735D01*
X005122Y013806D01*
X005122Y017622D01*
X005795Y018295D01*
X008915Y019915D02*
X009122Y020122D01*
X009122Y022926D01*
X007193Y024855D01*
X007193Y034625D02*
X007753Y035185D01*
X007753Y043925D02*
X007193Y044485D01*
X014940Y052154D02*
X015500Y051594D01*
X024240Y051594D02*
X024800Y052154D01*
X034625Y052154D02*
X035185Y051594D01*
M02*
