G75*
G70*
%OFA0B0*%
%FSLAX24Y24*%
%IPPOS*%
%LPD*%
%AMOC8*
5,1,8,0,0,1.08239X$1,22.5*
%
%ADD10R,0.3800X0.3800*%
%ADD11C,0.1080*%
%ADD12R,0.1280X0.0380*%
%ADD13R,0.0790X0.0710*%
%ADD14C,0.0600*%
%ADD15R,0.0710X0.0789*%
%ADD16R,0.0552X0.0297*%
%ADD17C,0.0907*%
%ADD18R,0.0671X0.0867*%
%ADD19C,0.3623*%
%ADD20C,0.0050*%
%ADD21C,0.0740*%
%ADD22C,0.2080*%
%ADD23R,0.0789X0.0710*%
%ADD24R,0.0497X0.0356*%
%ADD25R,0.0710X0.0790*%
%ADD26R,0.0880X0.0340*%
%ADD27R,0.2521X0.2206*%
%ADD28R,0.1080X0.0474*%
%ADD29R,0.2206X0.2521*%
%ADD30R,0.0474X0.1080*%
%ADD31R,0.0430X0.0390*%
%ADD32C,0.0476*%
%ADD33C,0.0480*%
D10*
X018522Y011822D03*
X015822Y024222D03*
D11*
X022212Y024226D03*
X022422Y027522D03*
X023712Y027526D03*
X028582Y024222D03*
X029782Y022503D03*
X033732Y021003D03*
X034232Y017803D03*
X035632Y017803D03*
X037032Y017803D03*
X037532Y021003D03*
X037032Y025803D03*
X035632Y025803D03*
X034232Y025803D03*
X033732Y029003D03*
X037532Y029003D03*
X037032Y033803D03*
X035632Y033803D03*
X034232Y033803D03*
X033732Y037003D03*
X037532Y037003D03*
X037032Y041803D03*
X035632Y041803D03*
X034232Y041803D03*
X007422Y027522D03*
X029782Y007503D03*
X033732Y013003D03*
X037532Y013003D03*
D12*
X041832Y016803D03*
X041832Y017303D03*
X041832Y017803D03*
X041832Y018303D03*
X044932Y018303D03*
X044932Y017803D03*
X044932Y017303D03*
X044932Y016803D03*
X044932Y024303D03*
X044932Y024803D03*
X044932Y025303D03*
X044932Y025803D03*
X041832Y025803D03*
X041832Y025303D03*
X041832Y024803D03*
X041832Y024303D03*
X041832Y031053D03*
X041832Y031553D03*
X041832Y032053D03*
X041832Y032553D03*
X044932Y032553D03*
X044932Y032053D03*
X044932Y031553D03*
X044932Y031053D03*
X044932Y037803D03*
X044932Y038303D03*
X044932Y038803D03*
X044932Y039303D03*
X041832Y039303D03*
X041832Y038803D03*
X041832Y038303D03*
X041832Y037803D03*
X041832Y043853D03*
X041832Y044353D03*
X041832Y044853D03*
X041832Y045353D03*
X044932Y045353D03*
X044932Y044853D03*
X044932Y044353D03*
X044932Y043853D03*
D13*
X036422Y038833D03*
X035322Y038833D03*
X035322Y037713D03*
X036422Y037713D03*
X032122Y039062D03*
X032122Y040182D03*
X029882Y039282D03*
X028882Y039282D03*
X027882Y039282D03*
X027882Y038162D03*
X028882Y038162D03*
X029882Y038162D03*
X031122Y037182D03*
X031122Y036062D03*
X031122Y034682D03*
X031122Y033562D03*
X035122Y030831D03*
X035122Y029711D03*
X036342Y029711D03*
X036342Y030831D03*
X032122Y023682D03*
X032122Y022562D03*
X035122Y022823D03*
X036222Y022823D03*
X036222Y021703D03*
X035122Y021703D03*
X031122Y015182D03*
X031122Y014062D03*
X035122Y013713D03*
X035122Y014833D03*
X036222Y014833D03*
X036222Y013713D03*
X043222Y013662D03*
X043222Y014782D03*
X022872Y015312D03*
X022872Y016432D03*
X014572Y016632D03*
X014572Y015512D03*
X013122Y014482D03*
X013122Y013362D03*
X015422Y026012D03*
X015422Y027132D03*
X007032Y029943D03*
X007032Y031063D03*
X005282Y031063D03*
X005282Y029943D03*
X017882Y038162D03*
X017882Y039282D03*
X017882Y040962D03*
X018882Y040962D03*
X018882Y042082D03*
X017882Y042082D03*
X019882Y042082D03*
X019882Y040962D03*
X022882Y039282D03*
X023882Y039282D03*
X023882Y038162D03*
X022882Y038162D03*
X024882Y040962D03*
X024882Y042082D03*
X026882Y042082D03*
X027882Y042082D03*
X027882Y040962D03*
X026882Y040962D03*
X028882Y040962D03*
X028882Y042082D03*
X031572Y043012D03*
X031572Y044132D03*
D14*
X029882Y043103D03*
X028882Y043103D03*
X027882Y043103D03*
X026882Y043103D03*
X025882Y043103D03*
X024882Y043103D03*
X023882Y043103D03*
X022882Y043103D03*
X021882Y043103D03*
X020882Y043103D03*
X019882Y043103D03*
X018882Y043103D03*
X017882Y043103D03*
X016882Y043103D03*
X015882Y043103D03*
X014882Y043103D03*
X013882Y043103D03*
X012882Y043103D03*
X011882Y043103D03*
X010882Y043103D03*
X011387Y044655D03*
X013387Y044655D03*
X013882Y037103D03*
X012882Y037103D03*
X011882Y037103D03*
X010882Y037103D03*
X014882Y037103D03*
X015882Y037103D03*
X016882Y037103D03*
X017882Y037103D03*
X018882Y037103D03*
X019882Y037103D03*
X020882Y037103D03*
X021882Y037103D03*
X022882Y037103D03*
X023882Y037103D03*
X024882Y037103D03*
X025882Y037103D03*
X026882Y037103D03*
X027882Y037103D03*
X028882Y037103D03*
X029882Y037103D03*
X024272Y045963D03*
X022372Y045963D03*
D15*
X022363Y047501D03*
X021261Y047501D03*
X024261Y047511D03*
X025363Y047511D03*
X040872Y034142D03*
X041974Y034142D03*
X041974Y027642D03*
X040872Y027642D03*
X040872Y020142D03*
X041974Y020142D03*
X026223Y015221D03*
X025121Y015221D03*
X041172Y041632D03*
X042274Y041632D03*
X042174Y047172D03*
X041072Y047172D03*
D16*
X009144Y030927D03*
X009144Y030553D03*
X009144Y030179D03*
X008120Y030179D03*
X008120Y030927D03*
D17*
X012422Y029522D03*
X012422Y025522D03*
X017922Y025522D03*
X017922Y029522D03*
X028032Y017503D03*
X031532Y017503D03*
X031532Y012503D03*
X028032Y012503D03*
D18*
X035132Y016283D03*
X036313Y016283D03*
X036303Y024152D03*
X035122Y024152D03*
X035113Y032192D03*
X036294Y032192D03*
X036294Y040171D03*
X035113Y040171D03*
X035407Y043933D03*
X034226Y043933D03*
D19*
X029723Y029713D03*
X053345Y053335D03*
X053345Y006091D03*
X006101Y006091D03*
X006101Y053335D03*
D20*
X004132Y004122D02*
X008069Y004122D01*
X008069Y008059D01*
X004132Y008059D01*
X004132Y004122D01*
X008069Y004122D01*
X008069Y004171D02*
X004132Y004171D01*
X004132Y004219D02*
X008069Y004219D01*
X008069Y004268D02*
X004132Y004268D01*
X004132Y004316D02*
X008069Y004316D01*
X008069Y004365D02*
X004132Y004365D01*
X004132Y004413D02*
X008069Y004413D01*
X008069Y004462D02*
X004132Y004462D01*
X004132Y004511D02*
X008069Y004511D01*
X008069Y004559D02*
X004132Y004559D01*
X004132Y004608D02*
X008069Y004608D01*
X008069Y004656D02*
X004132Y004656D01*
X004132Y004705D02*
X008069Y004705D01*
X008069Y004753D02*
X004132Y004753D01*
X004132Y004802D02*
X008069Y004802D01*
X008069Y004850D02*
X004132Y004850D01*
X004132Y004899D02*
X008069Y004899D01*
X008069Y004947D02*
X004132Y004947D01*
X004132Y004996D02*
X008069Y004996D01*
X008069Y005045D02*
X004132Y005045D01*
X004132Y005093D02*
X008069Y005093D01*
X008069Y005142D02*
X004132Y005142D01*
X004132Y005190D02*
X008069Y005190D01*
X008069Y005239D02*
X004132Y005239D01*
X004132Y005287D02*
X008069Y005287D01*
X008069Y005336D02*
X004132Y005336D01*
X004132Y005384D02*
X008069Y005384D01*
X008069Y005433D02*
X004132Y005433D01*
X004132Y005481D02*
X008069Y005481D01*
X008069Y005530D02*
X004132Y005530D01*
X004132Y005579D02*
X008069Y005579D01*
X008069Y005627D02*
X004132Y005627D01*
X004132Y005676D02*
X008069Y005676D01*
X008069Y005724D02*
X004132Y005724D01*
X004132Y005773D02*
X008069Y005773D01*
X008069Y005821D02*
X004132Y005821D01*
X004132Y005870D02*
X008069Y005870D01*
X008069Y005918D02*
X004132Y005918D01*
X004132Y005967D02*
X008069Y005967D01*
X008069Y006015D02*
X004132Y006015D01*
X004132Y006064D02*
X008069Y006064D01*
X008069Y006112D02*
X004132Y006112D01*
X004132Y006161D02*
X008069Y006161D01*
X008069Y006210D02*
X004132Y006210D01*
X004132Y006258D02*
X008069Y006258D01*
X008069Y006307D02*
X004132Y006307D01*
X004132Y006355D02*
X008069Y006355D01*
X008069Y006404D02*
X004132Y006404D01*
X004132Y006452D02*
X008069Y006452D01*
X008069Y006501D02*
X004132Y006501D01*
X004132Y006549D02*
X008069Y006549D01*
X008069Y006598D02*
X004132Y006598D01*
X004132Y006646D02*
X008069Y006646D01*
X008069Y006695D02*
X004132Y006695D01*
X004132Y006744D02*
X008069Y006744D01*
X008069Y006792D02*
X004132Y006792D01*
X004132Y006841D02*
X008069Y006841D01*
X008069Y006889D02*
X004132Y006889D01*
X004132Y006938D02*
X008069Y006938D01*
X008069Y006986D02*
X004132Y006986D01*
X004132Y007035D02*
X008069Y007035D01*
X008069Y007083D02*
X004132Y007083D01*
X004132Y007132D02*
X008069Y007132D01*
X008069Y007180D02*
X004132Y007180D01*
X004132Y007229D02*
X008069Y007229D01*
X008069Y007278D02*
X004132Y007278D01*
X004132Y007326D02*
X008069Y007326D01*
X008069Y007375D02*
X004132Y007375D01*
X004132Y007423D02*
X008069Y007423D01*
X008069Y007472D02*
X004132Y007472D01*
X004132Y007520D02*
X008069Y007520D01*
X008069Y007569D02*
X004132Y007569D01*
X004132Y007617D02*
X008069Y007617D01*
X008069Y007666D02*
X004132Y007666D01*
X004132Y007714D02*
X008069Y007714D01*
X008069Y007763D02*
X004132Y007763D01*
X004132Y007811D02*
X008069Y007811D01*
X008069Y007860D02*
X004132Y007860D01*
X004132Y007909D02*
X008069Y007909D01*
X008069Y007957D02*
X004132Y007957D01*
X004132Y008006D02*
X008069Y008006D01*
X008069Y008054D02*
X004132Y008054D01*
X027754Y027744D02*
X027754Y031681D01*
X031691Y031681D01*
X031691Y027744D01*
X027754Y027744D01*
X027754Y027763D02*
X031691Y027763D01*
X031691Y027811D02*
X027754Y027811D01*
X027754Y027860D02*
X031691Y027860D01*
X031691Y027908D02*
X027754Y027908D01*
X027754Y027957D02*
X031691Y027957D01*
X031691Y028006D02*
X027754Y028006D01*
X027754Y028054D02*
X031691Y028054D01*
X031691Y028103D02*
X027754Y028103D01*
X027754Y028151D02*
X031691Y028151D01*
X031691Y028200D02*
X027754Y028200D01*
X027754Y028248D02*
X031691Y028248D01*
X031691Y028297D02*
X027754Y028297D01*
X027754Y028345D02*
X031691Y028345D01*
X031691Y028394D02*
X027754Y028394D01*
X027754Y028442D02*
X031691Y028442D01*
X031691Y028491D02*
X027754Y028491D01*
X027754Y028539D02*
X031691Y028539D01*
X031691Y028588D02*
X027754Y028588D01*
X027754Y028637D02*
X031691Y028637D01*
X031691Y028685D02*
X027754Y028685D01*
X027754Y028734D02*
X031691Y028734D01*
X031691Y028782D02*
X027754Y028782D01*
X027754Y028831D02*
X031691Y028831D01*
X031691Y028879D02*
X027754Y028879D01*
X027754Y028928D02*
X031691Y028928D01*
X031691Y028976D02*
X027754Y028976D01*
X027754Y029025D02*
X031691Y029025D01*
X031691Y029073D02*
X027754Y029073D01*
X027754Y029122D02*
X031691Y029122D01*
X031691Y029171D02*
X027754Y029171D01*
X027754Y029219D02*
X031691Y029219D01*
X031691Y029268D02*
X027754Y029268D01*
X027754Y029316D02*
X031691Y029316D01*
X031691Y029365D02*
X027754Y029365D01*
X027754Y029413D02*
X031691Y029413D01*
X031691Y029462D02*
X027754Y029462D01*
X027754Y029510D02*
X031691Y029510D01*
X031691Y029559D02*
X027754Y029559D01*
X027754Y029607D02*
X031691Y029607D01*
X031691Y029656D02*
X027754Y029656D01*
X027754Y029705D02*
X031691Y029705D01*
X031691Y029753D02*
X027754Y029753D01*
X027754Y029802D02*
X031691Y029802D01*
X031691Y029850D02*
X027754Y029850D01*
X027754Y029899D02*
X031691Y029899D01*
X031691Y029947D02*
X027754Y029947D01*
X027754Y029996D02*
X031691Y029996D01*
X031691Y030044D02*
X027754Y030044D01*
X027754Y030093D02*
X031691Y030093D01*
X031691Y030141D02*
X027754Y030141D01*
X027754Y030190D02*
X031691Y030190D01*
X031691Y030239D02*
X027754Y030239D01*
X027754Y030287D02*
X031691Y030287D01*
X031691Y030336D02*
X027754Y030336D01*
X027754Y030384D02*
X031691Y030384D01*
X031691Y030433D02*
X027754Y030433D01*
X027754Y030481D02*
X031691Y030481D01*
X031691Y030530D02*
X027754Y030530D01*
X027754Y030578D02*
X031691Y030578D01*
X031691Y030627D02*
X027754Y030627D01*
X027754Y030675D02*
X031691Y030675D01*
X031691Y030724D02*
X027754Y030724D01*
X027754Y030772D02*
X031691Y030772D01*
X031691Y030821D02*
X027754Y030821D01*
X027754Y030870D02*
X031691Y030870D01*
X031691Y030918D02*
X027754Y030918D01*
X027754Y030967D02*
X031691Y030967D01*
X031691Y031015D02*
X027754Y031015D01*
X027754Y031064D02*
X031691Y031064D01*
X031691Y031112D02*
X027754Y031112D01*
X027754Y031161D02*
X031691Y031161D01*
X031691Y031209D02*
X027754Y031209D01*
X027754Y031258D02*
X031691Y031258D01*
X031691Y031306D02*
X027754Y031306D01*
X027754Y031355D02*
X031691Y031355D01*
X031691Y031404D02*
X027754Y031404D01*
X027754Y031452D02*
X031691Y031452D01*
X031691Y031501D02*
X027754Y031501D01*
X027754Y031549D02*
X031691Y031549D01*
X031691Y031598D02*
X027754Y031598D01*
X027754Y031646D02*
X031691Y031646D01*
X051376Y051366D02*
X051376Y055303D01*
X055313Y055303D01*
X055313Y051366D01*
X051376Y051366D01*
X051376Y051403D02*
X055313Y051403D01*
X055313Y051452D02*
X051376Y051452D01*
X051376Y051500D02*
X055313Y051500D01*
X055313Y051549D02*
X051376Y051549D01*
X051376Y051598D02*
X055313Y051598D01*
X055313Y051646D02*
X051376Y051646D01*
X051376Y051695D02*
X055313Y051695D01*
X055313Y051743D02*
X051376Y051743D01*
X051376Y051792D02*
X055313Y051792D01*
X055313Y051840D02*
X051376Y051840D01*
X051376Y051889D02*
X055313Y051889D01*
X055313Y051937D02*
X051376Y051937D01*
X051376Y051986D02*
X055313Y051986D01*
X055313Y052034D02*
X051376Y052034D01*
X051376Y052083D02*
X055313Y052083D01*
X055313Y052132D02*
X051376Y052132D01*
X051376Y052180D02*
X055313Y052180D01*
X055313Y052229D02*
X051376Y052229D01*
X051376Y052277D02*
X055313Y052277D01*
X055313Y052326D02*
X051376Y052326D01*
X051376Y052374D02*
X055313Y052374D01*
X055313Y052423D02*
X051376Y052423D01*
X051376Y052471D02*
X055313Y052471D01*
X055313Y052520D02*
X051376Y052520D01*
X051376Y052568D02*
X055313Y052568D01*
X055313Y052617D02*
X051376Y052617D01*
X051376Y052666D02*
X055313Y052666D01*
X055313Y052714D02*
X051376Y052714D01*
X051376Y052763D02*
X055313Y052763D01*
X055313Y052811D02*
X051376Y052811D01*
X051376Y052860D02*
X055313Y052860D01*
X055313Y052908D02*
X051376Y052908D01*
X051376Y052957D02*
X055313Y052957D01*
X055313Y053005D02*
X051376Y053005D01*
X051376Y053054D02*
X055313Y053054D01*
X055313Y053102D02*
X051376Y053102D01*
X051376Y053151D02*
X055313Y053151D01*
X055313Y053199D02*
X051376Y053199D01*
X051376Y053248D02*
X055313Y053248D01*
X055313Y053297D02*
X051376Y053297D01*
X051376Y053345D02*
X055313Y053345D01*
X055313Y053394D02*
X051376Y053394D01*
X051376Y053442D02*
X055313Y053442D01*
X055313Y053491D02*
X051376Y053491D01*
X051376Y053539D02*
X055313Y053539D01*
X055313Y053588D02*
X051376Y053588D01*
X051376Y053636D02*
X055313Y053636D01*
X055313Y053685D02*
X051376Y053685D01*
X051376Y053733D02*
X055313Y053733D01*
X055313Y053782D02*
X051376Y053782D01*
X051376Y053831D02*
X055313Y053831D01*
X055313Y053879D02*
X051376Y053879D01*
X051376Y053928D02*
X055313Y053928D01*
X055313Y053976D02*
X051376Y053976D01*
X051376Y054025D02*
X055313Y054025D01*
X055313Y054073D02*
X051376Y054073D01*
X051376Y054122D02*
X055313Y054122D01*
X055313Y054170D02*
X051376Y054170D01*
X051376Y054219D02*
X055313Y054219D01*
X055313Y054267D02*
X051376Y054267D01*
X051376Y054316D02*
X055313Y054316D01*
X055313Y054365D02*
X051376Y054365D01*
X051376Y054413D02*
X055313Y054413D01*
X055313Y054462D02*
X051376Y054462D01*
X051376Y054510D02*
X055313Y054510D01*
X055313Y054559D02*
X051376Y054559D01*
X051376Y054607D02*
X055313Y054607D01*
X055313Y054656D02*
X051376Y054656D01*
X051376Y054704D02*
X055313Y054704D01*
X055313Y054753D02*
X051376Y054753D01*
X051376Y054801D02*
X055313Y054801D01*
X055313Y054850D02*
X051376Y054850D01*
X051376Y054899D02*
X055313Y054899D01*
X055313Y054947D02*
X051376Y054947D01*
X051376Y054996D02*
X055313Y054996D01*
X055313Y055044D02*
X051376Y055044D01*
X051376Y055093D02*
X055313Y055093D01*
X055313Y055141D02*
X051376Y055141D01*
X051376Y055190D02*
X055313Y055190D01*
X055313Y055238D02*
X051376Y055238D01*
X051376Y055287D02*
X055313Y055287D01*
X055313Y008059D02*
X051376Y008059D01*
X051376Y004122D01*
X055313Y004122D01*
X055313Y008059D01*
X055313Y008054D02*
X051376Y008054D01*
X051376Y008006D02*
X055313Y008006D01*
X055313Y007957D02*
X051376Y007957D01*
X051376Y007909D02*
X055313Y007909D01*
X055313Y007860D02*
X051376Y007860D01*
X051376Y007811D02*
X055313Y007811D01*
X055313Y007763D02*
X051376Y007763D01*
X051376Y007714D02*
X055313Y007714D01*
X055313Y007666D02*
X051376Y007666D01*
X051376Y007617D02*
X055313Y007617D01*
X055313Y007569D02*
X051376Y007569D01*
X051376Y007520D02*
X055313Y007520D01*
X055313Y007472D02*
X051376Y007472D01*
X051376Y007423D02*
X055313Y007423D01*
X055313Y007375D02*
X051376Y007375D01*
X051376Y007326D02*
X055313Y007326D01*
X055313Y007278D02*
X051376Y007278D01*
X051376Y007229D02*
X055313Y007229D01*
X055313Y007180D02*
X051376Y007180D01*
X051376Y007132D02*
X055313Y007132D01*
X055313Y007083D02*
X051376Y007083D01*
X051376Y007035D02*
X055313Y007035D01*
X055313Y006986D02*
X051376Y006986D01*
X051376Y006938D02*
X055313Y006938D01*
X055313Y006889D02*
X051376Y006889D01*
X051376Y006841D02*
X055313Y006841D01*
X055313Y006792D02*
X051376Y006792D01*
X051376Y006744D02*
X055313Y006744D01*
X055313Y006695D02*
X051376Y006695D01*
X051376Y006646D02*
X055313Y006646D01*
X055313Y006598D02*
X051376Y006598D01*
X051376Y006549D02*
X055313Y006549D01*
X055313Y006501D02*
X051376Y006501D01*
X051376Y006452D02*
X055313Y006452D01*
X055313Y006404D02*
X051376Y006404D01*
X051376Y006355D02*
X055313Y006355D01*
X055313Y006307D02*
X051376Y006307D01*
X051376Y006258D02*
X055313Y006258D01*
X055313Y006210D02*
X051376Y006210D01*
X051376Y006161D02*
X055313Y006161D01*
X055313Y006112D02*
X051376Y006112D01*
X051376Y006064D02*
X055313Y006064D01*
X055313Y006015D02*
X051376Y006015D01*
X051376Y005967D02*
X055313Y005967D01*
X055313Y005918D02*
X051376Y005918D01*
X051376Y005870D02*
X055313Y005870D01*
X055313Y005821D02*
X051376Y005821D01*
X051376Y005773D02*
X055313Y005773D01*
X055313Y005724D02*
X051376Y005724D01*
X051376Y005676D02*
X055313Y005676D01*
X055313Y005627D02*
X051376Y005627D01*
X051376Y005579D02*
X055313Y005579D01*
X055313Y005530D02*
X051376Y005530D01*
X051376Y005481D02*
X055313Y005481D01*
X055313Y005433D02*
X051376Y005433D01*
X051376Y005384D02*
X055313Y005384D01*
X055313Y005336D02*
X051376Y005336D01*
X051376Y005287D02*
X055313Y005287D01*
X055313Y005239D02*
X051376Y005239D01*
X051376Y005190D02*
X055313Y005190D01*
X055313Y005142D02*
X051376Y005142D01*
X051376Y005093D02*
X055313Y005093D01*
X055313Y005045D02*
X051376Y005045D01*
X051376Y004996D02*
X055313Y004996D01*
X055313Y004947D02*
X051376Y004947D01*
X051376Y004899D02*
X055313Y004899D01*
X055313Y004850D02*
X051376Y004850D01*
X051376Y004802D02*
X055313Y004802D01*
X055313Y004753D02*
X051376Y004753D01*
X051376Y004705D02*
X055313Y004705D01*
X055313Y004656D02*
X051376Y004656D01*
X051376Y004608D02*
X055313Y004608D01*
X055313Y004559D02*
X051376Y004559D01*
X051376Y004511D02*
X055313Y004511D01*
X055313Y004462D02*
X051376Y004462D01*
X051376Y004413D02*
X055313Y004413D01*
X055313Y004365D02*
X051376Y004365D01*
X051376Y004316D02*
X055313Y004316D01*
X055313Y004268D02*
X051376Y004268D01*
X051376Y004219D02*
X055313Y004219D01*
X055313Y004171D02*
X051376Y004171D01*
X051376Y004122D02*
X055313Y004122D01*
X008069Y051366D02*
X008069Y055303D01*
X004132Y055303D01*
X004132Y051366D01*
X008069Y051366D01*
X008069Y051403D02*
X004132Y051403D01*
X004132Y051452D02*
X008069Y051452D01*
X008069Y051500D02*
X004132Y051500D01*
X004132Y051549D02*
X008069Y051549D01*
X008069Y051598D02*
X004132Y051598D01*
X004132Y051646D02*
X008069Y051646D01*
X008069Y051695D02*
X004132Y051695D01*
X004132Y051743D02*
X008069Y051743D01*
X008069Y051792D02*
X004132Y051792D01*
X004132Y051840D02*
X008069Y051840D01*
X008069Y051889D02*
X004132Y051889D01*
X004132Y051937D02*
X008069Y051937D01*
X008069Y051986D02*
X004132Y051986D01*
X004132Y052034D02*
X008069Y052034D01*
X008069Y052083D02*
X004132Y052083D01*
X004132Y052132D02*
X008069Y052132D01*
X008069Y052180D02*
X004132Y052180D01*
X004132Y052229D02*
X008069Y052229D01*
X008069Y052277D02*
X004132Y052277D01*
X004132Y052326D02*
X008069Y052326D01*
X008069Y052374D02*
X004132Y052374D01*
X004132Y052423D02*
X008069Y052423D01*
X008069Y052471D02*
X004132Y052471D01*
X004132Y052520D02*
X008069Y052520D01*
X008069Y052568D02*
X004132Y052568D01*
X004132Y052617D02*
X008069Y052617D01*
X008069Y052666D02*
X004132Y052666D01*
X004132Y052714D02*
X008069Y052714D01*
X008069Y052763D02*
X004132Y052763D01*
X004132Y052811D02*
X008069Y052811D01*
X008069Y052860D02*
X004132Y052860D01*
X004132Y052908D02*
X008069Y052908D01*
X008069Y052957D02*
X004132Y052957D01*
X004132Y053005D02*
X008069Y053005D01*
X008069Y053054D02*
X004132Y053054D01*
X004132Y053102D02*
X008069Y053102D01*
X008069Y053151D02*
X004132Y053151D01*
X004132Y053199D02*
X008069Y053199D01*
X008069Y053248D02*
X004132Y053248D01*
X004132Y053297D02*
X008069Y053297D01*
X008069Y053345D02*
X004132Y053345D01*
X004132Y053394D02*
X008069Y053394D01*
X008069Y053442D02*
X004132Y053442D01*
X004132Y053491D02*
X008069Y053491D01*
X008069Y053539D02*
X004132Y053539D01*
X004132Y053588D02*
X008069Y053588D01*
X008069Y053636D02*
X004132Y053636D01*
X004132Y053685D02*
X008069Y053685D01*
X008069Y053733D02*
X004132Y053733D01*
X004132Y053782D02*
X008069Y053782D01*
X008069Y053831D02*
X004132Y053831D01*
X004132Y053879D02*
X008069Y053879D01*
X008069Y053928D02*
X004132Y053928D01*
X004132Y053976D02*
X008069Y053976D01*
X008069Y054025D02*
X004132Y054025D01*
X004132Y054073D02*
X008069Y054073D01*
X008069Y054122D02*
X004132Y054122D01*
X004132Y054170D02*
X008069Y054170D01*
X008069Y054219D02*
X004132Y054219D01*
X004132Y054267D02*
X008069Y054267D01*
X008069Y054316D02*
X004132Y054316D01*
X004132Y054365D02*
X008069Y054365D01*
X008069Y054413D02*
X004132Y054413D01*
X004132Y054462D02*
X008069Y054462D01*
X008069Y054510D02*
X004132Y054510D01*
X004132Y054559D02*
X008069Y054559D01*
X008069Y054607D02*
X004132Y054607D01*
X004132Y054656D02*
X008069Y054656D01*
X008069Y054704D02*
X004132Y054704D01*
X004132Y054753D02*
X008069Y054753D01*
X008069Y054801D02*
X004132Y054801D01*
X004132Y054850D02*
X008069Y054850D01*
X008069Y054899D02*
X004132Y054899D01*
X004132Y054947D02*
X008069Y054947D01*
X008069Y054996D02*
X004132Y054996D01*
X004132Y055044D02*
X008069Y055044D01*
X008069Y055093D02*
X004132Y055093D01*
X004132Y055141D02*
X008069Y055141D01*
X008069Y055190D02*
X004132Y055190D01*
X004132Y055238D02*
X008069Y055238D01*
X008069Y055287D02*
X004132Y055287D01*
D21*
X009422Y049322D03*
X007753Y041715D03*
X007753Y040635D03*
X007753Y039555D03*
X007753Y038475D03*
X007753Y037395D03*
X006633Y037935D03*
X006633Y039015D03*
X006633Y040095D03*
X006633Y041175D03*
X005282Y033732D03*
X005282Y032732D03*
X006277Y031054D03*
X006032Y029272D03*
X007032Y029272D03*
X008032Y029272D03*
X009772Y031422D03*
X009772Y032222D03*
X014362Y027123D03*
X016322Y027123D03*
X020612Y022652D03*
X020612Y021652D03*
X020612Y020752D03*
X017620Y018521D03*
X016820Y018521D03*
X015820Y018521D03*
X014820Y018521D03*
X007753Y018835D03*
X007753Y017755D03*
X007753Y016675D03*
X007753Y015595D03*
X007753Y014515D03*
X006633Y015055D03*
X006633Y016135D03*
X006633Y017215D03*
X006633Y018295D03*
X006633Y019375D03*
X006633Y020455D03*
X006633Y021535D03*
X007753Y020995D03*
X007753Y019915D03*
X007753Y022075D03*
X019880Y009985D03*
X019880Y009085D03*
X019870Y007753D03*
X018790Y007753D03*
X017710Y007753D03*
X018250Y006633D03*
X019330Y006633D03*
X020410Y006633D03*
X021490Y006633D03*
X020950Y007753D03*
X022030Y007753D03*
X025122Y013622D03*
X025122Y014522D03*
X026622Y019822D03*
X034226Y016766D03*
X037922Y017122D03*
X039922Y018122D03*
X039922Y019122D03*
X039922Y020122D03*
X045122Y020302D03*
X046622Y019302D03*
X046622Y017802D03*
X046622Y016302D03*
X045122Y014122D03*
X046622Y013622D03*
X046622Y012122D03*
X046622Y011122D03*
X041715Y007753D03*
X040635Y007753D03*
X039555Y007753D03*
X038475Y007753D03*
X037395Y007753D03*
X037935Y006633D03*
X039015Y006633D03*
X040095Y006633D03*
X041175Y006633D03*
X039493Y011014D03*
X038693Y011014D03*
X038693Y013266D03*
X039493Y013266D03*
X040393Y013266D03*
X046622Y022302D03*
X046622Y023802D03*
X046622Y025302D03*
X045122Y027302D03*
X046622Y029052D03*
X046622Y030552D03*
X046622Y032052D03*
X046622Y033552D03*
X045122Y034052D03*
X046622Y037302D03*
X046622Y038802D03*
X046622Y040302D03*
X045122Y040802D03*
X046622Y043352D03*
X046622Y044852D03*
X046622Y046352D03*
X045122Y046852D03*
X050022Y049322D03*
X051594Y041715D03*
X051594Y040635D03*
X051594Y039555D03*
X051594Y038475D03*
X051594Y037395D03*
X052714Y037935D03*
X052714Y039015D03*
X052714Y040095D03*
X052714Y041175D03*
X041715Y051594D03*
X040635Y051594D03*
X039555Y051594D03*
X038475Y051594D03*
X037395Y051594D03*
X037935Y052714D03*
X039015Y052714D03*
X040095Y052714D03*
X041175Y052714D03*
X040132Y047172D03*
X040132Y046132D03*
X040132Y042632D03*
X040132Y041632D03*
X040132Y040632D03*
X040132Y036622D03*
X040122Y034122D03*
X039782Y027622D03*
X039782Y026622D03*
X039782Y025622D03*
X034226Y024766D03*
X028722Y033922D03*
X027622Y033922D03*
X034226Y042766D03*
X027122Y054122D03*
X022030Y051594D03*
X020950Y051594D03*
X019870Y051594D03*
X018790Y051594D03*
X017710Y051594D03*
X018250Y052714D03*
X019330Y052714D03*
X020410Y052714D03*
X021490Y052714D03*
X051594Y023650D03*
X051594Y022570D03*
X051594Y021490D03*
X051594Y020410D03*
X051594Y019330D03*
X051594Y018250D03*
X051594Y017170D03*
X051594Y016090D03*
X052714Y016630D03*
X052714Y017710D03*
X052714Y018790D03*
X052714Y019870D03*
X052714Y020950D03*
X052714Y022030D03*
X052714Y023110D03*
D22*
X052154Y026430D03*
X052154Y034625D03*
X052154Y044485D03*
X044485Y052154D03*
X034625Y052154D03*
X024800Y052154D03*
X014940Y052154D03*
X007193Y044485D03*
X007193Y034625D03*
X007193Y024855D03*
X007193Y011735D03*
X014940Y007193D03*
X024800Y007193D03*
X034625Y007193D03*
X044485Y007193D03*
X052154Y013310D03*
D23*
X045283Y012117D03*
X045283Y011014D03*
X041162Y013266D03*
X041162Y014369D03*
D24*
X042687Y012496D03*
X042687Y012122D03*
X042687Y011748D03*
X043710Y011748D03*
X043710Y012122D03*
X043710Y012496D03*
D25*
X041408Y011014D03*
X040288Y011014D03*
X030832Y016422D03*
X029712Y016422D03*
X026232Y016523D03*
X025112Y016523D03*
X025132Y012812D03*
X024012Y012812D03*
X016332Y013372D03*
X015212Y013372D03*
X030312Y026122D03*
X031432Y026122D03*
D26*
X020282Y016022D03*
X020282Y015522D03*
X020282Y015022D03*
X020282Y014522D03*
X017862Y014522D03*
X017862Y015022D03*
X017862Y015522D03*
X017862Y016022D03*
D27*
X019188Y011722D03*
D28*
X022162Y010825D03*
X022162Y012620D03*
D29*
X015922Y023356D03*
D30*
X015025Y020382D03*
X016820Y020382D03*
D31*
X032222Y016012D03*
X032222Y015252D03*
X033022Y015632D03*
X032222Y024752D03*
X032222Y025512D03*
X033022Y025132D03*
X032222Y034752D03*
X032222Y035512D03*
X033022Y035132D03*
X031722Y041252D03*
X031722Y042012D03*
X032522Y041632D03*
D32*
X030622Y044122D03*
X028122Y047122D03*
X026122Y047122D03*
X026122Y051122D03*
X028122Y051122D03*
X030122Y051122D03*
X030122Y053122D03*
X032122Y051122D03*
X038122Y049122D03*
X038122Y047122D03*
X040122Y049122D03*
X042122Y049122D03*
X044122Y049122D03*
X046122Y049122D03*
X046122Y051122D03*
X048122Y049122D03*
X048122Y047122D03*
X050122Y047122D03*
X050122Y045122D03*
X048122Y043122D03*
X048122Y041122D03*
X047922Y036022D03*
X048122Y030122D03*
X048473Y029373D03*
X053172Y029572D03*
X042122Y029122D03*
X040122Y029122D03*
X038122Y031122D03*
X038122Y033122D03*
X041122Y036122D03*
X042122Y033122D03*
X041122Y040122D03*
X042122Y046122D03*
X049122Y052122D03*
X049122Y054122D03*
X047122Y054122D03*
X034122Y038122D03*
X032122Y034122D03*
X034122Y031122D03*
X030122Y025122D03*
X030122Y021122D03*
X028122Y019122D03*
X028122Y015122D03*
X026122Y012122D03*
X026122Y010122D03*
X028122Y009122D03*
X028122Y007122D03*
X030122Y009122D03*
X030122Y011122D03*
X028122Y011122D03*
X024122Y010122D03*
X022122Y010122D03*
X021122Y013622D03*
X023122Y013622D03*
X019122Y014122D03*
X017122Y014122D03*
X016122Y012122D03*
X016122Y010122D03*
X018122Y010122D03*
X014122Y010122D03*
X012122Y010122D03*
X012122Y012122D03*
X012122Y014122D03*
X014122Y014122D03*
X014122Y012122D03*
X010122Y011122D03*
X010122Y013122D03*
X010122Y015122D03*
X012122Y016122D03*
X012122Y021122D03*
X010122Y021122D03*
X012122Y023122D03*
X008972Y027272D03*
X010422Y029722D03*
X010422Y030872D03*
X012122Y033122D03*
X012122Y035122D03*
X014882Y033582D03*
X016122Y033122D03*
X017972Y032122D03*
X018322Y032722D03*
X020122Y035122D03*
X022122Y034122D03*
X022122Y032122D03*
X024722Y030622D03*
X025422Y031722D03*
X026122Y039122D03*
X026122Y041122D03*
X024122Y041122D03*
X022122Y041122D03*
X022122Y039122D03*
X020122Y039122D03*
X021122Y045122D03*
X018122Y049122D03*
X016122Y045122D03*
X012122Y046622D03*
X011122Y045622D03*
X010122Y044622D03*
X010122Y047122D03*
X012122Y041122D03*
X012122Y039122D03*
X016122Y029122D03*
X018122Y023122D03*
X018939Y021391D03*
X021622Y020822D03*
X022303Y022191D03*
X024322Y020922D03*
X021122Y017122D03*
X019122Y017122D03*
X017122Y017122D03*
X010122Y007122D03*
X010122Y005122D03*
X012122Y005122D03*
X032122Y007122D03*
X032122Y009122D03*
X034122Y009122D03*
X036122Y009122D03*
X038122Y009122D03*
X040122Y009122D03*
X042122Y009122D03*
X044122Y005122D03*
X046122Y005122D03*
X046122Y007122D03*
X048122Y007122D03*
X050122Y007122D03*
X050122Y005122D03*
X048122Y005122D03*
X048122Y013122D03*
X050122Y013122D03*
X042122Y015122D03*
X038122Y015122D03*
X034122Y015122D03*
X032122Y021122D03*
X034122Y023122D03*
X038122Y023122D03*
X040122Y021122D03*
X042122Y021122D03*
X042122Y019122D03*
X042122Y023122D03*
X006122Y027122D03*
D33*
X010122Y039172D03*
X010122Y040172D03*
X010122Y041172D03*
X011882Y040172D03*
X012882Y040172D03*
X013882Y040172D03*
X017882Y040172D03*
X019882Y040172D03*
X020882Y040172D03*
X021882Y040172D03*
X022882Y040172D03*
X023882Y040172D03*
X024882Y040172D03*
X025882Y040172D03*
X026882Y040172D03*
X033372Y044412D03*
X032195Y047642D03*
X030695Y047642D03*
M02*
