G75*
G70*
%OFA0B0*%
%FSLAX24Y24*%
%IPPOS*%
%LPD*%
%AMOC8*
5,1,8,0,0,1.08239X$1,22.5*
%
%ADD10C,0.0120*%
%ADD11C,0.0110*%
%ADD12C,0.1000*%
%ADD13C,0.0240*%
%ADD14C,0.0040*%
%ADD15C,0.0080*%
%ADD16C,0.0030*%
%ADD17C,0.0000*%
%ADD18C,0.0060*%
%ADD19C,0.0050*%
%ADD20R,0.7300X0.0300*%
%ADD21R,1.2200X0.0200*%
%ADD22R,0.0320X0.2850*%
%ADD23R,0.0320X0.1850*%
%ADD24C,0.0070*%
%ADD25R,0.0300X0.7300*%
%ADD26R,0.0200X1.2200*%
%ADD27R,0.2850X0.0320*%
%ADD28R,0.1850X0.0320*%
%ADD29R,0.0300X1.0550*%
%ADD30R,0.0200X1.5450*%
%ADD31C,0.0028*%
%ADD32R,0.0256X0.0197*%
%ADD33C,0.0157*%
%ADD34C,0.0020*%
%ADD35R,0.0300X0.0340*%
%ADD36R,0.0340X0.0300*%
D10*
X003132Y003122D02*
X003132Y056303D01*
X056313Y056303D01*
X056313Y003122D01*
X003132Y003122D01*
D11*
X048087Y008677D02*
X048284Y008677D01*
X048186Y008677D02*
X048186Y009268D01*
X048284Y009268D02*
X048087Y009268D01*
X048517Y009268D02*
X048714Y009268D01*
X048615Y009268D02*
X048615Y008677D01*
X048517Y008677D02*
X048714Y008677D01*
X049143Y008677D02*
X049143Y009268D01*
X048947Y009268D02*
X049340Y009268D01*
X049591Y009268D02*
X049886Y009268D01*
X049985Y009169D01*
X049985Y009071D01*
X049886Y008972D01*
X049591Y008972D01*
X049591Y008677D02*
X049591Y009268D01*
X049886Y008972D02*
X049985Y008874D01*
X049985Y008776D01*
X049886Y008677D01*
X049591Y008677D01*
X050880Y008677D02*
X050880Y009268D01*
X051175Y009268D01*
X051274Y009169D01*
X051274Y008972D01*
X051175Y008874D01*
X050880Y008874D01*
X051525Y008874D02*
X051721Y009071D01*
X051820Y009071D01*
X051525Y009071D02*
X051525Y008677D01*
X052062Y008776D02*
X052160Y008874D01*
X052455Y008874D01*
X052455Y008972D02*
X052455Y008677D01*
X052160Y008677D01*
X052062Y008776D01*
X052160Y009071D02*
X052357Y009071D01*
X052455Y008972D01*
X052706Y009071D02*
X052903Y009071D01*
X052805Y009169D02*
X052805Y008776D01*
X052903Y008677D01*
X053136Y008677D02*
X053136Y009268D01*
X053234Y009071D02*
X053431Y009071D01*
X053530Y008972D01*
X053530Y008677D01*
X053781Y008776D02*
X053879Y008874D01*
X054174Y008874D01*
X054174Y008972D02*
X054174Y008677D01*
X053879Y008677D01*
X053781Y008776D01*
X053879Y009071D02*
X054076Y009071D01*
X054174Y008972D01*
X054425Y009071D02*
X054523Y009071D01*
X054622Y008972D01*
X054720Y009071D01*
X054819Y008972D01*
X054819Y008677D01*
X054622Y008677D02*
X054622Y008972D01*
X054425Y009071D02*
X054425Y008677D01*
X053234Y009071D02*
X053136Y008972D01*
D12*
X046938Y009872D02*
X046940Y009911D01*
X046946Y009950D01*
X046956Y009988D01*
X046969Y010025D01*
X046986Y010060D01*
X047006Y010094D01*
X047030Y010125D01*
X047057Y010154D01*
X047086Y010180D01*
X047118Y010203D01*
X047152Y010223D01*
X047188Y010239D01*
X047225Y010251D01*
X047264Y010260D01*
X047303Y010265D01*
X047342Y010266D01*
X047381Y010263D01*
X047420Y010256D01*
X047457Y010245D01*
X047494Y010231D01*
X047529Y010213D01*
X047562Y010192D01*
X047593Y010167D01*
X047621Y010140D01*
X047646Y010110D01*
X047668Y010077D01*
X047687Y010043D01*
X047702Y010007D01*
X047714Y009969D01*
X047722Y009931D01*
X047726Y009892D01*
X047726Y009852D01*
X047722Y009813D01*
X047714Y009775D01*
X047702Y009737D01*
X047687Y009701D01*
X047668Y009667D01*
X047646Y009634D01*
X047621Y009604D01*
X047593Y009577D01*
X047562Y009552D01*
X047529Y009531D01*
X047494Y009513D01*
X047457Y009499D01*
X047420Y009488D01*
X047381Y009481D01*
X047342Y009478D01*
X047303Y009479D01*
X047264Y009484D01*
X047225Y009493D01*
X047188Y009505D01*
X047152Y009521D01*
X047118Y009541D01*
X047086Y009564D01*
X047057Y009590D01*
X047030Y009619D01*
X047006Y009650D01*
X046986Y009684D01*
X046969Y009719D01*
X046956Y009756D01*
X046946Y009794D01*
X046940Y009833D01*
X046938Y009872D01*
D13*
X046372Y009372D02*
X046372Y008822D01*
X046122Y008722D01*
X046122Y009272D01*
X046372Y009372D01*
X045772Y009072D02*
X045772Y008522D01*
X045522Y008422D01*
X045522Y008972D01*
X045772Y009072D01*
X048372Y010222D02*
X048372Y010772D01*
X048622Y010872D01*
X048622Y010322D01*
X048372Y010222D01*
X048972Y010472D02*
X048972Y011022D01*
X049222Y011122D01*
X049222Y010572D01*
X048972Y010472D01*
D14*
X041387Y001553D02*
X041447Y001493D01*
X041447Y001373D01*
X041387Y001313D01*
X041207Y001313D01*
X041207Y001193D02*
X041207Y001553D01*
X041387Y001553D01*
X041079Y001493D02*
X041079Y001313D01*
X040899Y001313D01*
X040839Y001373D01*
X040899Y001433D01*
X041079Y001433D01*
X041079Y001493D02*
X041019Y001553D01*
X040899Y001553D01*
X040711Y001493D02*
X040711Y001313D01*
X040711Y001493D02*
X040650Y001553D01*
X040470Y001553D01*
X040470Y001313D01*
X040342Y001373D02*
X040282Y001313D01*
X040162Y001313D01*
X040102Y001373D01*
X040162Y001493D02*
X040282Y001493D01*
X040342Y001433D01*
X040342Y001373D01*
X040162Y001493D02*
X040102Y001553D01*
X040102Y001613D01*
X040162Y001673D01*
X040282Y001673D01*
X040342Y001613D01*
X032804Y016342D02*
X032864Y016402D01*
X032864Y016462D01*
X032804Y016522D01*
X032624Y016522D01*
X032624Y016402D01*
X032684Y016342D01*
X032804Y016342D01*
X032624Y016522D02*
X032744Y016642D01*
X032864Y016702D01*
X032496Y016702D02*
X032256Y016702D01*
X032376Y016702D02*
X032376Y016342D01*
X032276Y026142D02*
X032276Y026502D01*
X032156Y026502D02*
X032396Y026502D01*
X032524Y026502D02*
X032524Y026322D01*
X032644Y026382D01*
X032704Y026382D01*
X032764Y026322D01*
X032764Y026202D01*
X032704Y026142D01*
X032584Y026142D01*
X032524Y026202D01*
X032524Y026502D02*
X032764Y026502D01*
X032542Y033792D02*
X032542Y034032D01*
X032542Y033912D02*
X032902Y033912D01*
X032722Y034161D02*
X032722Y034401D01*
X032542Y034341D02*
X032722Y034161D01*
X032902Y034341D02*
X032542Y034341D01*
X030642Y041092D02*
X030642Y041332D01*
X030642Y041212D02*
X031002Y041212D01*
X030942Y041461D02*
X031002Y041521D01*
X031002Y041641D01*
X030942Y041701D01*
X030882Y041701D01*
X030822Y041641D01*
X030822Y041581D01*
X030822Y041641D02*
X030762Y041701D01*
X030702Y041701D01*
X030642Y041641D01*
X030642Y041521D01*
X030702Y041461D01*
X016430Y049119D02*
X016353Y049042D01*
X016123Y049042D01*
X016123Y048889D02*
X016123Y049349D01*
X016353Y049349D01*
X016430Y049272D01*
X016430Y049119D01*
X015969Y049119D02*
X015969Y049272D01*
X015893Y049349D01*
X015739Y049349D01*
X015663Y049272D01*
X015663Y049119D01*
X015739Y049042D01*
X015893Y049042D01*
X015969Y049119D01*
X015509Y049503D02*
X015202Y049503D01*
X015356Y049503D02*
X015356Y049042D01*
X017950Y057674D02*
X017890Y057734D01*
X017950Y057674D02*
X018070Y057674D01*
X018130Y057734D01*
X018130Y057794D01*
X018070Y057854D01*
X017950Y057854D01*
X017890Y057914D01*
X017890Y057974D01*
X017950Y058034D01*
X018070Y058034D01*
X018130Y057974D01*
X018259Y057854D02*
X018259Y057734D01*
X018319Y057674D01*
X018439Y057674D01*
X018499Y057734D01*
X018499Y057854D01*
X018439Y057914D01*
X018319Y057914D01*
X018259Y057854D01*
X018627Y058034D02*
X018687Y058034D01*
X018687Y057674D01*
X018627Y057674D02*
X018747Y057674D01*
X018872Y057734D02*
X018932Y057794D01*
X019113Y057794D01*
X019113Y057854D02*
X019113Y057674D01*
X018932Y057674D01*
X018872Y057734D01*
X018932Y057914D02*
X019052Y057914D01*
X019113Y057854D01*
X019241Y057914D02*
X019241Y057674D01*
X019241Y057794D02*
X019361Y057914D01*
X019421Y057914D01*
X019548Y058034D02*
X019728Y058034D01*
X019788Y057974D01*
X019788Y057854D01*
X019728Y057794D01*
X019548Y057794D01*
X019548Y057674D02*
X019548Y058034D01*
X019916Y057854D02*
X019916Y057734D01*
X019976Y057674D01*
X020096Y057674D01*
X020156Y057734D01*
X020156Y057854D01*
X020096Y057914D01*
X019976Y057914D01*
X019916Y057854D01*
X020284Y057914D02*
X020284Y057734D01*
X020344Y057674D01*
X020404Y057734D01*
X020464Y057674D01*
X020524Y057734D01*
X020524Y057914D01*
X020652Y057854D02*
X020713Y057914D01*
X020833Y057914D01*
X020893Y057854D01*
X020893Y057794D01*
X020652Y057794D01*
X020652Y057734D02*
X020652Y057854D01*
X020652Y057734D02*
X020713Y057674D01*
X020833Y057674D01*
X021021Y057674D02*
X021021Y057914D01*
X021141Y057914D02*
X021201Y057914D01*
X021141Y057914D02*
X021021Y057794D01*
X037575Y057734D02*
X037635Y057674D01*
X037755Y057674D01*
X037815Y057734D01*
X037815Y057794D01*
X037755Y057854D01*
X037635Y057854D01*
X037575Y057914D01*
X037575Y057974D01*
X037635Y058034D01*
X037755Y058034D01*
X037815Y057974D01*
X037944Y057854D02*
X037944Y057734D01*
X038004Y057674D01*
X038124Y057674D01*
X038184Y057734D01*
X038184Y057854D01*
X038124Y057914D01*
X038004Y057914D01*
X037944Y057854D01*
X038312Y058034D02*
X038372Y058034D01*
X038372Y057674D01*
X038312Y057674D02*
X038432Y057674D01*
X038557Y057734D02*
X038617Y057794D01*
X038798Y057794D01*
X038798Y057854D02*
X038798Y057674D01*
X038617Y057674D01*
X038557Y057734D01*
X038617Y057914D02*
X038738Y057914D01*
X038798Y057854D01*
X038926Y057914D02*
X038926Y057674D01*
X038926Y057794D02*
X039046Y057914D01*
X039106Y057914D01*
X039233Y058034D02*
X039413Y058034D01*
X039473Y057974D01*
X039473Y057854D01*
X039413Y057794D01*
X039233Y057794D01*
X039233Y057674D02*
X039233Y058034D01*
X039601Y057854D02*
X039601Y057734D01*
X039661Y057674D01*
X039781Y057674D01*
X039841Y057734D01*
X039841Y057854D01*
X039781Y057914D01*
X039661Y057914D01*
X039601Y057854D01*
X039969Y057914D02*
X039969Y057734D01*
X040029Y057674D01*
X040089Y057734D01*
X040149Y057674D01*
X040209Y057734D01*
X040209Y057914D01*
X040338Y057854D02*
X040398Y057914D01*
X040518Y057914D01*
X040578Y057854D01*
X040578Y057794D01*
X040338Y057794D01*
X040338Y057734D02*
X040338Y057854D01*
X040338Y057734D02*
X040398Y057674D01*
X040518Y057674D01*
X040706Y057674D02*
X040706Y057914D01*
X040826Y057914D02*
X040886Y057914D01*
X040826Y057914D02*
X040706Y057794D01*
X057794Y041448D02*
X057794Y041388D01*
X057914Y041268D01*
X058034Y041268D02*
X057794Y041268D01*
X057854Y041140D02*
X057914Y041140D01*
X057914Y040900D01*
X057974Y040900D02*
X057854Y040900D01*
X057794Y040960D01*
X057794Y041080D01*
X057854Y041140D01*
X058034Y041080D02*
X058034Y040960D01*
X057974Y040900D01*
X057974Y040772D02*
X057794Y040772D01*
X057974Y040772D02*
X058034Y040712D01*
X057974Y040652D01*
X058034Y040592D01*
X057974Y040532D01*
X057794Y040532D01*
X057854Y040404D02*
X057794Y040343D01*
X057794Y040223D01*
X057854Y040163D01*
X057974Y040163D01*
X058034Y040223D01*
X058034Y040343D01*
X057974Y040404D01*
X057854Y040404D01*
X057854Y040035D02*
X057914Y039975D01*
X057914Y039795D01*
X058034Y039795D02*
X057673Y039795D01*
X057673Y039975D01*
X057733Y040035D01*
X057854Y040035D01*
X057794Y039668D02*
X057794Y039608D01*
X057914Y039488D01*
X058034Y039488D02*
X057794Y039488D01*
X057854Y039360D02*
X058034Y039360D01*
X058034Y039180D01*
X057974Y039120D01*
X057914Y039180D01*
X057914Y039360D01*
X057854Y039360D02*
X057794Y039300D01*
X057794Y039180D01*
X057673Y038934D02*
X058034Y038934D01*
X058034Y038874D02*
X058034Y038994D01*
X057974Y038746D02*
X057854Y038746D01*
X057794Y038686D01*
X057794Y038566D01*
X057854Y038506D01*
X057974Y038506D01*
X058034Y038566D01*
X058034Y038686D01*
X057974Y038746D01*
X057673Y038874D02*
X057673Y038934D01*
X057733Y038378D02*
X057673Y038318D01*
X057673Y038198D01*
X057733Y038138D01*
X057794Y038138D01*
X057854Y038198D01*
X057854Y038318D01*
X057914Y038378D01*
X057974Y038378D01*
X058034Y038318D01*
X058034Y038198D01*
X057974Y038138D01*
X057974Y023062D02*
X058034Y023002D01*
X058034Y022882D01*
X057974Y022822D01*
X057733Y022822D01*
X057673Y022882D01*
X057673Y023002D01*
X057733Y023062D01*
X057733Y022694D02*
X057794Y022694D01*
X057854Y022634D01*
X057854Y022454D01*
X057974Y022326D02*
X057733Y022326D01*
X057673Y022265D01*
X057673Y022145D01*
X057733Y022085D01*
X057974Y022085D01*
X058034Y022145D01*
X058034Y022265D01*
X057974Y022326D01*
X058034Y022454D02*
X058034Y022634D01*
X057974Y022694D01*
X057914Y022694D01*
X057854Y022634D01*
X057733Y022694D02*
X057673Y022634D01*
X057673Y022454D01*
X058034Y022454D01*
X021762Y001553D02*
X021762Y001253D01*
X021702Y001193D01*
X021642Y001193D01*
X021582Y001313D02*
X021762Y001313D01*
X021582Y001313D02*
X021522Y001373D01*
X021522Y001553D01*
X021395Y001553D02*
X021335Y001553D01*
X021215Y001433D01*
X021215Y001313D02*
X021215Y001553D01*
X021087Y001493D02*
X021087Y001433D01*
X020847Y001433D01*
X020847Y001373D02*
X020847Y001493D01*
X020907Y001553D01*
X021027Y001553D01*
X021087Y001493D01*
X021027Y001313D02*
X020907Y001313D01*
X020847Y001373D01*
X020721Y001313D02*
X020661Y001373D01*
X020661Y001613D01*
X020601Y001553D02*
X020721Y001553D01*
X020476Y001553D02*
X020356Y001553D01*
X020416Y001613D02*
X020416Y001373D01*
X020476Y001313D01*
X020227Y001313D02*
X020047Y001313D01*
X019987Y001373D01*
X020047Y001433D01*
X020227Y001433D01*
X020227Y001493D02*
X020227Y001313D01*
X020227Y001493D02*
X020167Y001553D01*
X020047Y001553D01*
X019859Y001553D02*
X019799Y001493D01*
X019619Y001493D01*
X019619Y001313D02*
X019799Y001313D01*
X019859Y001373D01*
X019859Y001433D01*
X019799Y001493D01*
X019859Y001553D02*
X019859Y001613D01*
X019799Y001673D01*
X019619Y001673D01*
X019619Y001313D01*
X018714Y013742D02*
X018474Y013742D01*
X018594Y013742D02*
X018594Y014102D01*
X018474Y013982D01*
X018346Y013742D02*
X018106Y013742D01*
X018226Y013742D02*
X018226Y014102D01*
X018106Y013982D01*
X017977Y014042D02*
X017917Y014102D01*
X017797Y014102D01*
X017737Y014042D01*
X017737Y013802D01*
X017797Y013742D01*
X017917Y013742D01*
X017977Y013802D01*
X017612Y013742D02*
X017492Y013742D01*
X017552Y013742D02*
X017552Y014102D01*
X017492Y014102D02*
X017612Y014102D01*
X017682Y016542D02*
X017862Y016542D01*
X017923Y016602D01*
X017923Y016662D01*
X017862Y016722D01*
X017682Y016722D01*
X017682Y016542D02*
X017682Y016902D01*
X017862Y016902D01*
X017923Y016842D01*
X017923Y016782D01*
X017862Y016722D01*
X018051Y016842D02*
X018051Y016602D01*
X018111Y016542D01*
X018231Y016542D01*
X018291Y016602D01*
X018291Y016842D01*
X018231Y016902D01*
X018111Y016902D01*
X018051Y016842D01*
X018419Y016842D02*
X018479Y016902D01*
X018599Y016902D01*
X018659Y016842D01*
X018659Y016782D01*
X018419Y016542D01*
X018659Y016542D01*
X018787Y016602D02*
X019027Y016842D01*
X019027Y016602D01*
X018967Y016542D01*
X018847Y016542D01*
X018787Y016602D01*
X018787Y016842D01*
X018847Y016902D01*
X018967Y016902D01*
X019027Y016842D01*
X019156Y016902D02*
X019156Y016722D01*
X019276Y016782D01*
X019336Y016782D01*
X019396Y016722D01*
X019396Y016602D01*
X019336Y016542D01*
X019216Y016542D01*
X019156Y016602D01*
X019156Y016902D02*
X019396Y016902D01*
X019524Y016902D02*
X019764Y016902D01*
X019764Y016842D01*
X019524Y016602D01*
X019524Y016542D01*
X001793Y015384D02*
X001433Y015384D01*
X001433Y015564D01*
X001493Y015624D01*
X001613Y015624D01*
X001673Y015564D01*
X001673Y015384D01*
X001613Y015256D02*
X001313Y015256D01*
X001313Y015015D02*
X001613Y015015D01*
X001673Y015075D01*
X001673Y015196D01*
X001613Y015256D01*
X001673Y015752D02*
X001673Y015872D01*
X001673Y015812D02*
X001313Y015812D01*
X001313Y015752D01*
X001433Y015998D02*
X001433Y016058D01*
X001673Y016058D01*
X001673Y015998D02*
X001673Y016118D01*
X001673Y016243D02*
X001433Y016243D01*
X001433Y016423D01*
X001493Y016483D01*
X001673Y016483D01*
X001673Y016611D02*
X001313Y016611D01*
X001433Y016791D02*
X001553Y016611D01*
X001673Y016791D01*
X001313Y016058D02*
X001253Y016058D01*
X001373Y037575D02*
X001433Y037575D01*
X001493Y037635D01*
X001493Y037755D01*
X001553Y037815D01*
X001613Y037815D01*
X001673Y037755D01*
X001673Y037635D01*
X001613Y037575D01*
X001373Y037575D02*
X001313Y037635D01*
X001313Y037755D01*
X001373Y037815D01*
X001493Y037944D02*
X001613Y037944D01*
X001673Y038004D01*
X001673Y038124D01*
X001613Y038184D01*
X001493Y038184D01*
X001433Y038124D01*
X001433Y038004D01*
X001493Y037944D01*
X001673Y038312D02*
X001673Y038432D01*
X001673Y038372D02*
X001313Y038372D01*
X001313Y038312D01*
X001433Y038617D02*
X001433Y038738D01*
X001493Y038798D01*
X001673Y038798D01*
X001673Y038617D01*
X001613Y038557D01*
X001553Y038617D01*
X001553Y038798D01*
X001553Y038926D02*
X001433Y039046D01*
X001433Y039106D01*
X001553Y039233D02*
X001553Y039413D01*
X001493Y039473D01*
X001373Y039473D01*
X001313Y039413D01*
X001313Y039233D01*
X001673Y039233D01*
X001673Y038926D02*
X001433Y038926D01*
X001493Y039601D02*
X001613Y039601D01*
X001673Y039661D01*
X001673Y039781D01*
X001613Y039841D01*
X001493Y039841D01*
X001433Y039781D01*
X001433Y039661D01*
X001493Y039601D01*
X001433Y039969D02*
X001613Y039969D01*
X001673Y040029D01*
X001613Y040089D01*
X001673Y040149D01*
X001613Y040209D01*
X001433Y040209D01*
X001493Y040338D02*
X001433Y040398D01*
X001433Y040518D01*
X001493Y040578D01*
X001553Y040578D01*
X001553Y040338D01*
X001613Y040338D02*
X001493Y040338D01*
X001613Y040338D02*
X001673Y040398D01*
X001673Y040518D01*
X001673Y040706D02*
X001433Y040706D01*
X001433Y040826D02*
X001433Y040886D01*
X001433Y040826D02*
X001553Y040706D01*
D15*
X014632Y023882D02*
X014632Y021522D01*
X017212Y021522D01*
X017212Y023882D01*
X018662Y013012D02*
X021022Y013012D01*
X021022Y010432D01*
X018662Y010432D01*
X042634Y016608D02*
X042634Y018498D01*
X042831Y018498D02*
X042831Y016608D01*
X044130Y016608D01*
X044130Y018498D01*
X042831Y018498D01*
X042831Y024108D02*
X042831Y025998D01*
X044130Y025998D01*
X044130Y024108D01*
X042831Y024108D01*
X042634Y024108D02*
X042634Y025998D01*
X042634Y030858D02*
X042634Y032748D01*
X042831Y032748D02*
X042831Y030858D01*
X044130Y030858D01*
X044130Y032748D01*
X042831Y032748D01*
X042831Y037608D02*
X042831Y039498D01*
X044130Y039498D01*
X044130Y037608D01*
X042831Y037608D01*
X042634Y037608D02*
X042634Y039498D01*
X042634Y043658D02*
X042634Y045548D01*
X042831Y045548D02*
X042831Y043658D01*
X044130Y043658D01*
X044130Y045548D01*
X042831Y045548D01*
D16*
X043397Y045768D02*
X043521Y045768D01*
X043459Y045768D02*
X043459Y046139D01*
X043397Y046139D02*
X043521Y046139D01*
X043643Y046077D02*
X043643Y045830D01*
X043704Y045768D01*
X043828Y045768D01*
X043890Y045830D01*
X044011Y045830D02*
X044073Y045768D01*
X044196Y045768D01*
X044258Y045830D01*
X044258Y045953D01*
X044196Y046015D01*
X044134Y046015D01*
X044011Y045953D01*
X044011Y046139D01*
X044258Y046139D01*
X043890Y046077D02*
X043828Y046139D01*
X043704Y046139D01*
X043643Y046077D01*
X041806Y046237D02*
X041806Y046484D01*
X041806Y046237D02*
X041621Y046237D01*
X041559Y046299D01*
X041559Y046484D01*
X041314Y046608D02*
X041314Y046237D01*
X041191Y046237D02*
X041438Y046237D01*
X041191Y046484D02*
X041314Y046608D01*
X041068Y046299D02*
X041068Y046237D01*
X041007Y046237D01*
X041007Y046299D01*
X041068Y046299D01*
X040885Y046299D02*
X040823Y046237D01*
X040700Y046237D01*
X040638Y046299D01*
X040885Y046546D01*
X040885Y046299D01*
X040638Y046299D02*
X040638Y046546D01*
X040700Y046608D01*
X040823Y046608D01*
X040885Y046546D01*
X041250Y047837D02*
X041373Y047837D01*
X041435Y047899D01*
X041557Y047837D02*
X041803Y048084D01*
X041803Y048146D01*
X041742Y048208D01*
X041618Y048208D01*
X041557Y048146D01*
X041435Y048146D02*
X041373Y048208D01*
X041250Y048208D01*
X041188Y048146D01*
X041188Y047899D01*
X041250Y047837D01*
X041557Y047837D02*
X041803Y047837D01*
X041925Y048022D02*
X042172Y048022D01*
X042110Y047837D02*
X042110Y048208D01*
X041925Y048022D01*
X043547Y043289D02*
X043794Y043289D01*
X043916Y043289D02*
X044101Y043289D01*
X044162Y043227D01*
X044162Y043103D01*
X044101Y043042D01*
X043916Y043042D01*
X043916Y042918D02*
X043916Y043289D01*
X043671Y043289D02*
X043671Y042918D01*
X044284Y042980D02*
X044346Y042918D01*
X044469Y042918D01*
X044531Y042980D01*
X044531Y043042D01*
X044469Y043103D01*
X044346Y043103D01*
X044284Y043165D01*
X044284Y043227D01*
X044346Y043289D01*
X044469Y043289D01*
X044531Y043227D01*
X044652Y043227D02*
X044714Y043289D01*
X044837Y043289D01*
X044899Y043227D01*
X044899Y043165D01*
X044652Y042918D01*
X044899Y042918D01*
X045020Y042980D02*
X045267Y043227D01*
X045267Y042980D01*
X045206Y042918D01*
X045082Y042918D01*
X045020Y042980D01*
X045020Y043227D01*
X045082Y043289D01*
X045206Y043289D01*
X045267Y043227D01*
X045389Y043227D02*
X045450Y043289D01*
X045574Y043289D01*
X045636Y043227D01*
X045636Y043165D01*
X045574Y043103D01*
X045636Y043042D01*
X045636Y042980D01*
X045574Y042918D01*
X045450Y042918D01*
X045389Y042980D01*
X045512Y043103D02*
X045574Y043103D01*
X045757Y042980D02*
X046004Y043227D01*
X046004Y042980D01*
X045942Y042918D01*
X045819Y042918D01*
X045757Y042980D01*
X045757Y043227D01*
X045819Y043289D01*
X045942Y043289D01*
X046004Y043227D01*
X044258Y040189D02*
X044134Y040127D01*
X044011Y040003D01*
X044196Y040003D01*
X044258Y039942D01*
X044258Y039880D01*
X044196Y039818D01*
X044073Y039818D01*
X044011Y039880D01*
X044011Y040003D01*
X043890Y039880D02*
X043828Y039818D01*
X043704Y039818D01*
X043643Y039880D01*
X043643Y040127D01*
X043704Y040189D01*
X043828Y040189D01*
X043890Y040127D01*
X043521Y040189D02*
X043397Y040189D01*
X043459Y040189D02*
X043459Y039818D01*
X043397Y039818D02*
X043521Y039818D01*
X042406Y040647D02*
X042406Y040894D01*
X042406Y040647D02*
X042221Y040647D01*
X042159Y040709D01*
X042159Y040894D01*
X041914Y041018D02*
X041914Y040647D01*
X041791Y040647D02*
X042038Y040647D01*
X041791Y040894D02*
X041914Y041018D01*
X041668Y040709D02*
X041668Y040647D01*
X041607Y040647D01*
X041607Y040709D01*
X041668Y040709D01*
X041485Y040709D02*
X041485Y040956D01*
X041238Y040709D01*
X041300Y040647D01*
X041423Y040647D01*
X041485Y040709D01*
X041238Y040709D02*
X041238Y040956D01*
X041300Y041018D01*
X041423Y041018D01*
X041485Y040956D01*
X041473Y042297D02*
X041535Y042359D01*
X041473Y042297D02*
X041350Y042297D01*
X041288Y042359D01*
X041288Y042606D01*
X041350Y042668D01*
X041473Y042668D01*
X041535Y042606D01*
X041657Y042606D02*
X041718Y042668D01*
X041842Y042668D01*
X041903Y042606D01*
X041903Y042544D01*
X041657Y042297D01*
X041903Y042297D01*
X042025Y042359D02*
X042087Y042297D01*
X042210Y042297D01*
X042272Y042359D01*
X042272Y042482D01*
X042210Y042544D01*
X042148Y042544D01*
X042025Y042482D01*
X042025Y042668D01*
X042272Y042668D01*
X043747Y037239D02*
X043994Y037239D01*
X044116Y037239D02*
X044301Y037239D01*
X044362Y037177D01*
X044362Y037053D01*
X044301Y036992D01*
X044116Y036992D01*
X044116Y036868D02*
X044116Y037239D01*
X043871Y037239D02*
X043871Y036868D01*
X044484Y036930D02*
X044546Y036868D01*
X044669Y036868D01*
X044731Y036930D01*
X044731Y036992D01*
X044669Y037053D01*
X044546Y037053D01*
X044484Y037115D01*
X044484Y037177D01*
X044546Y037239D01*
X044669Y037239D01*
X044731Y037177D01*
X044852Y037177D02*
X044914Y037239D01*
X045037Y037239D01*
X045099Y037177D01*
X045099Y037115D01*
X044852Y036868D01*
X045099Y036868D01*
X045220Y036930D02*
X045467Y037177D01*
X045467Y036930D01*
X045406Y036868D01*
X045282Y036868D01*
X045220Y036930D01*
X045220Y037177D01*
X045282Y037239D01*
X045406Y037239D01*
X045467Y037177D01*
X045589Y037177D02*
X045650Y037239D01*
X045774Y037239D01*
X045836Y037177D01*
X045836Y037115D01*
X045774Y037053D01*
X045836Y036992D01*
X045836Y036930D01*
X045774Y036868D01*
X045650Y036868D01*
X045589Y036930D01*
X045712Y037053D02*
X045774Y037053D01*
X045957Y036930D02*
X046204Y037177D01*
X046204Y036930D01*
X046142Y036868D01*
X046019Y036868D01*
X045957Y036930D01*
X045957Y037177D01*
X046019Y037239D01*
X046142Y037239D01*
X046204Y037177D01*
X044308Y033439D02*
X044308Y033377D01*
X044061Y033130D01*
X044061Y033068D01*
X043940Y033130D02*
X043878Y033068D01*
X043754Y033068D01*
X043693Y033130D01*
X043693Y033377D01*
X043754Y033439D01*
X043878Y033439D01*
X043940Y033377D01*
X044061Y033439D02*
X044308Y033439D01*
X043571Y033439D02*
X043447Y033439D01*
X043509Y033439D02*
X043509Y033068D01*
X043447Y033068D02*
X043571Y033068D01*
X041906Y033157D02*
X041906Y033404D01*
X041906Y033157D02*
X041721Y033157D01*
X041659Y033219D01*
X041659Y033404D01*
X041414Y033528D02*
X041414Y033157D01*
X041291Y033157D02*
X041538Y033157D01*
X041291Y033404D02*
X041414Y033528D01*
X041168Y033219D02*
X041168Y033157D01*
X041107Y033157D01*
X041107Y033219D01*
X041168Y033219D01*
X040985Y033219D02*
X040923Y033157D01*
X040800Y033157D01*
X040738Y033219D01*
X040985Y033466D01*
X040985Y033219D01*
X040738Y033219D02*
X040738Y033466D01*
X040800Y033528D01*
X040923Y033528D01*
X040985Y033466D01*
X041000Y034807D02*
X040938Y034869D01*
X040938Y035116D01*
X041000Y035178D01*
X041123Y035178D01*
X041185Y035116D01*
X041307Y035116D02*
X041368Y035178D01*
X041492Y035178D01*
X041553Y035116D01*
X041553Y035054D01*
X041307Y034807D01*
X041553Y034807D01*
X041675Y034869D02*
X041737Y034807D01*
X041860Y034807D01*
X041922Y034869D01*
X041922Y034931D01*
X041860Y034992D01*
X041675Y034992D01*
X041675Y034869D01*
X041675Y034992D02*
X041798Y035116D01*
X041922Y035178D01*
X041185Y034869D02*
X041123Y034807D01*
X041000Y034807D01*
X037057Y036183D02*
X036687Y036183D01*
X036687Y036369D01*
X036749Y036430D01*
X036872Y036430D01*
X036934Y036369D01*
X036934Y036183D01*
X036934Y036307D02*
X037057Y036430D01*
X036996Y036552D02*
X037057Y036613D01*
X037057Y036737D01*
X036996Y036799D01*
X036872Y036799D01*
X036810Y036737D01*
X036810Y036675D01*
X036872Y036552D01*
X036687Y036552D01*
X036687Y036799D01*
X036607Y036720D02*
X036607Y036967D01*
X036687Y036982D02*
X036687Y037105D01*
X036749Y037167D01*
X036810Y037167D01*
X036872Y037105D01*
X036934Y037167D01*
X036996Y037167D01*
X037057Y037105D01*
X037057Y036982D01*
X036996Y036920D01*
X036872Y037043D02*
X036872Y037105D01*
X036749Y036920D02*
X036687Y036982D01*
X036607Y036720D02*
X036237Y036720D01*
X036237Y036967D01*
X036422Y036843D02*
X036422Y036720D01*
X036299Y036599D02*
X036546Y036352D01*
X036607Y036413D01*
X036607Y036537D01*
X036546Y036599D01*
X036299Y036599D01*
X036237Y036537D01*
X036237Y036413D01*
X036299Y036352D01*
X036546Y036352D01*
X036607Y036230D02*
X036607Y035983D01*
X036360Y036230D01*
X036299Y036230D01*
X036237Y036169D01*
X036237Y036045D01*
X036299Y035983D01*
X036299Y035862D02*
X036237Y035800D01*
X036237Y035677D01*
X036299Y035615D01*
X036299Y035862D02*
X036360Y035862D01*
X036607Y035615D01*
X036607Y035862D01*
X035807Y036183D02*
X035437Y036183D01*
X035437Y036369D01*
X035499Y036430D01*
X035622Y036430D01*
X035684Y036369D01*
X035684Y036183D01*
X035684Y036307D02*
X035807Y036430D01*
X035746Y036552D02*
X035807Y036613D01*
X035807Y036737D01*
X035746Y036799D01*
X035622Y036799D01*
X035560Y036737D01*
X035560Y036675D01*
X035622Y036552D01*
X035437Y036552D01*
X035437Y036799D01*
X035307Y036820D02*
X035307Y037067D01*
X035437Y037105D02*
X035622Y036920D01*
X035622Y037167D01*
X035807Y037105D02*
X035437Y037105D01*
X035307Y036820D02*
X034937Y036820D01*
X034937Y037067D01*
X035122Y036943D02*
X035122Y036820D01*
X035060Y036699D02*
X034999Y036699D01*
X034937Y036637D01*
X034937Y036513D01*
X034999Y036452D01*
X034999Y036330D02*
X035060Y036330D01*
X035122Y036269D01*
X035184Y036330D01*
X035246Y036330D01*
X035307Y036269D01*
X035307Y036145D01*
X035246Y036083D01*
X035307Y035962D02*
X035307Y035715D01*
X035307Y035839D02*
X034937Y035839D01*
X035060Y035715D01*
X034999Y036083D02*
X034937Y036145D01*
X034937Y036269D01*
X034999Y036330D01*
X035122Y036269D02*
X035122Y036207D01*
X035246Y036452D02*
X035307Y036513D01*
X035307Y036637D01*
X035246Y036699D01*
X035184Y036699D01*
X035122Y036637D01*
X035122Y036575D01*
X035122Y036637D02*
X035060Y036699D01*
X033007Y038137D02*
X032637Y038137D01*
X032637Y038322D01*
X032699Y038384D01*
X032822Y038384D01*
X032884Y038322D01*
X032884Y038137D01*
X032884Y038261D02*
X033007Y038384D01*
X032946Y038506D02*
X032884Y038506D01*
X032822Y038567D01*
X032822Y038691D01*
X032884Y038752D01*
X032946Y038752D01*
X033007Y038691D01*
X033007Y038567D01*
X032946Y038506D01*
X032822Y038567D02*
X032760Y038506D01*
X032699Y038506D01*
X032637Y038567D01*
X032637Y038691D01*
X032699Y038752D01*
X032760Y038752D01*
X032822Y038691D01*
X032799Y039137D02*
X032737Y039199D01*
X032737Y039322D01*
X032799Y039384D01*
X033046Y039137D01*
X033107Y039199D01*
X033107Y039322D01*
X033046Y039384D01*
X032799Y039384D01*
X032799Y039137D02*
X033046Y039137D01*
X033046Y039506D02*
X033046Y039567D01*
X033107Y039567D01*
X033107Y039506D01*
X033046Y039506D01*
X033107Y039690D02*
X032860Y039936D01*
X032799Y039936D01*
X032737Y039875D01*
X032737Y039751D01*
X032799Y039690D01*
X033107Y039690D02*
X033107Y039936D01*
X033107Y040058D02*
X033107Y040305D01*
X033075Y040213D02*
X033322Y040213D01*
X033405Y040123D02*
X033343Y040062D01*
X033343Y039815D01*
X033405Y039753D01*
X033528Y039753D01*
X033590Y039815D01*
X033712Y039753D02*
X033712Y040123D01*
X033958Y040123D01*
X033873Y040213D02*
X034058Y040213D01*
X034058Y040460D01*
X034180Y040398D02*
X034303Y040398D01*
X034180Y040213D02*
X034180Y040583D01*
X034427Y040583D01*
X034265Y040123D02*
X034142Y040123D01*
X034080Y040062D01*
X034265Y040123D02*
X034327Y040062D01*
X034327Y040000D01*
X034080Y039753D01*
X034327Y039753D01*
X033958Y039753D02*
X033712Y039753D01*
X033712Y039938D02*
X033835Y039938D01*
X033590Y040062D02*
X033528Y040123D01*
X033405Y040123D01*
X033505Y040213D02*
X033443Y040275D01*
X033690Y040521D01*
X033690Y040275D01*
X033628Y040213D01*
X033505Y040213D01*
X033443Y040275D02*
X033443Y040521D01*
X033505Y040583D01*
X033628Y040583D01*
X033690Y040521D01*
X033812Y040460D02*
X033812Y040275D01*
X033873Y040213D01*
X033198Y040213D02*
X033198Y040583D01*
X033075Y040460D01*
X032922Y040181D02*
X032922Y040058D01*
X032737Y040058D02*
X033107Y040058D01*
X032737Y040058D02*
X032737Y040305D01*
X031267Y039204D02*
X030897Y039204D01*
X031082Y039019D01*
X031082Y039266D01*
X030817Y039316D02*
X030632Y039131D01*
X030694Y039069D02*
X030447Y039316D01*
X030447Y039069D02*
X030817Y039069D01*
X030756Y038947D02*
X030817Y038886D01*
X030817Y038762D01*
X030756Y038701D01*
X030509Y038947D01*
X030756Y038947D01*
X030897Y038836D02*
X031082Y038651D01*
X031082Y038897D01*
X031267Y038836D02*
X030897Y038836D01*
X030756Y038701D02*
X030509Y038701D01*
X030447Y038762D01*
X030447Y038886D01*
X030509Y038947D01*
X030509Y038579D02*
X030756Y038332D01*
X030817Y038394D01*
X030817Y038517D01*
X030756Y038579D01*
X030509Y038579D01*
X030447Y038517D01*
X030447Y038394D01*
X030509Y038332D01*
X030756Y038332D01*
X030817Y038211D02*
X030817Y037964D01*
X030817Y038087D02*
X030447Y038087D01*
X030570Y037964D01*
X030897Y038282D02*
X030897Y038467D01*
X030959Y038529D01*
X031082Y038529D01*
X031144Y038467D01*
X031144Y038282D01*
X031267Y038282D02*
X030897Y038282D01*
X031144Y038406D02*
X031267Y038529D01*
X031637Y036892D02*
X032007Y036892D01*
X032007Y036769D02*
X032007Y037016D01*
X031760Y036769D02*
X031637Y036892D01*
X031637Y036524D02*
X032007Y036524D01*
X032007Y036401D02*
X032007Y036647D01*
X031760Y036401D02*
X031637Y036524D01*
X031699Y036279D02*
X031822Y036279D01*
X031884Y036217D01*
X031884Y036032D01*
X032007Y036032D02*
X031637Y036032D01*
X031637Y036217D01*
X031699Y036279D01*
X031884Y036156D02*
X032007Y036279D01*
X030507Y036401D02*
X030507Y036647D01*
X030507Y036769D02*
X030137Y036769D01*
X030322Y036831D02*
X030507Y037016D01*
X030384Y036769D02*
X030137Y037016D01*
X030137Y036524D02*
X030507Y036524D01*
X030260Y036401D02*
X030137Y036524D01*
X030107Y034805D02*
X030107Y034558D01*
X029737Y034558D01*
X029737Y034805D01*
X029922Y034681D02*
X029922Y034558D01*
X029860Y034436D02*
X029799Y034436D01*
X029737Y034375D01*
X029737Y034251D01*
X029799Y034190D01*
X029860Y034436D02*
X030107Y034190D01*
X030107Y034436D01*
X030237Y034252D02*
X030299Y034252D01*
X030546Y034006D01*
X030607Y034006D01*
X030607Y033884D02*
X030484Y033761D01*
X030484Y033822D02*
X030484Y033637D01*
X030607Y033637D02*
X030237Y033637D01*
X030237Y033822D01*
X030299Y033884D01*
X030422Y033884D01*
X030484Y033822D01*
X030237Y034006D02*
X030237Y034252D01*
X030107Y034067D02*
X030107Y034006D01*
X030046Y034006D01*
X030046Y034067D01*
X030107Y034067D01*
X030046Y033884D02*
X030107Y033822D01*
X030107Y033699D01*
X030046Y033637D01*
X029799Y033884D01*
X030046Y033884D01*
X030046Y033637D02*
X029799Y033637D01*
X029737Y033699D01*
X029737Y033822D01*
X029799Y033884D01*
X033075Y032481D02*
X033198Y032604D01*
X033198Y032234D01*
X033075Y032234D02*
X033322Y032234D01*
X033443Y032296D02*
X033690Y032543D01*
X033690Y032296D01*
X033628Y032234D01*
X033505Y032234D01*
X033443Y032296D01*
X033443Y032543D01*
X033505Y032604D01*
X033628Y032604D01*
X033690Y032543D01*
X033812Y032481D02*
X033812Y032296D01*
X033873Y032234D01*
X034058Y032234D01*
X034058Y032481D01*
X034180Y032419D02*
X034303Y032419D01*
X034180Y032234D02*
X034180Y032604D01*
X034427Y032604D01*
X034365Y032044D02*
X034180Y031859D01*
X034427Y031859D01*
X034365Y031674D02*
X034365Y032044D01*
X034058Y032044D02*
X033812Y032044D01*
X033812Y031674D01*
X034058Y031674D01*
X033935Y031859D02*
X033812Y031859D01*
X033690Y031736D02*
X033628Y031674D01*
X033505Y031674D01*
X033443Y031736D01*
X033443Y031983D01*
X033505Y032044D01*
X033628Y032044D01*
X033690Y031983D01*
X034637Y029438D02*
X034637Y029191D01*
X035007Y029191D01*
X035007Y029438D01*
X034822Y029314D02*
X034822Y029191D01*
X034699Y029070D02*
X034946Y028823D01*
X035007Y028884D01*
X035007Y029008D01*
X034946Y029070D01*
X034699Y029070D01*
X034637Y029008D01*
X034637Y028884D01*
X034699Y028823D01*
X034946Y028823D01*
X034946Y028701D02*
X035007Y028640D01*
X035007Y028516D01*
X034946Y028454D01*
X034699Y028701D01*
X034946Y028701D01*
X035187Y028709D02*
X035187Y028462D01*
X035372Y028462D01*
X035310Y028585D01*
X035310Y028647D01*
X035372Y028709D01*
X035496Y028709D01*
X035557Y028647D01*
X035557Y028523D01*
X035496Y028462D01*
X035557Y028340D02*
X035434Y028217D01*
X035434Y028279D02*
X035434Y028093D01*
X035557Y028093D02*
X035187Y028093D01*
X035187Y028279D01*
X035249Y028340D01*
X035372Y028340D01*
X035434Y028279D01*
X035007Y028333D02*
X035007Y028086D01*
X035007Y028210D02*
X034637Y028210D01*
X034760Y028086D01*
X034699Y028454D02*
X034637Y028516D01*
X034637Y028640D01*
X034699Y028701D01*
X034699Y028454D02*
X034946Y028454D01*
X035249Y028830D02*
X035187Y028892D01*
X035187Y029015D01*
X035249Y029077D01*
X035310Y029077D01*
X035557Y028830D01*
X035557Y029077D01*
X035957Y029101D02*
X036204Y028854D01*
X036142Y028916D02*
X036327Y029101D01*
X036467Y029003D02*
X036837Y029003D01*
X036837Y028880D02*
X036837Y029127D01*
X036590Y028880D02*
X036467Y029003D01*
X036327Y028854D02*
X035957Y028854D01*
X035957Y028610D02*
X036327Y028610D01*
X036327Y028733D02*
X036327Y028486D01*
X036467Y028512D02*
X036652Y028512D01*
X036590Y028635D01*
X036590Y028697D01*
X036652Y028759D01*
X036776Y028759D01*
X036837Y028697D01*
X036837Y028573D01*
X036776Y028512D01*
X036837Y028390D02*
X036714Y028267D01*
X036714Y028329D02*
X036714Y028143D01*
X036837Y028143D02*
X036467Y028143D01*
X036467Y028329D01*
X036529Y028390D01*
X036652Y028390D01*
X036714Y028329D01*
X036467Y028512D02*
X036467Y028759D01*
X036080Y028486D02*
X035957Y028610D01*
X036081Y025071D02*
X036081Y025009D01*
X035834Y024762D01*
X035834Y024700D01*
X035712Y024700D02*
X035466Y024700D01*
X035466Y025071D01*
X035712Y025071D01*
X035834Y025071D02*
X036081Y025071D01*
X035589Y024885D02*
X035466Y024885D01*
X035344Y024762D02*
X035282Y024700D01*
X035159Y024700D01*
X035097Y024762D01*
X035097Y025009D01*
X035159Y025071D01*
X035282Y025071D01*
X035344Y025009D01*
X036797Y024126D02*
X037044Y024126D01*
X037166Y024002D02*
X037166Y023940D01*
X037166Y024002D02*
X037412Y024249D01*
X037412Y024311D01*
X037166Y024311D01*
X036982Y024311D02*
X036797Y024126D01*
X036982Y024311D02*
X036982Y023940D01*
X037534Y024002D02*
X037596Y023940D01*
X037781Y023940D01*
X037781Y024187D01*
X037902Y024126D02*
X038026Y024126D01*
X037902Y024311D02*
X038149Y024311D01*
X037902Y024311D02*
X037902Y023940D01*
X037534Y024002D02*
X037534Y024187D01*
X036707Y021093D02*
X036522Y020908D01*
X036584Y020847D02*
X036337Y021093D01*
X036217Y020935D02*
X036156Y020935D01*
X035909Y021182D01*
X035847Y021182D01*
X035847Y020935D01*
X035847Y020752D02*
X036032Y020567D01*
X036032Y020813D01*
X036217Y020752D02*
X035847Y020752D01*
X035909Y020445D02*
X036032Y020445D01*
X036094Y020383D01*
X036094Y020198D01*
X036217Y020198D02*
X035847Y020198D01*
X035847Y020383D01*
X035909Y020445D01*
X036094Y020322D02*
X036217Y020445D01*
X036337Y020602D02*
X036707Y020602D01*
X036707Y020725D02*
X036707Y020478D01*
X036460Y020478D02*
X036337Y020602D01*
X036337Y020847D02*
X036707Y020847D01*
X035307Y020900D02*
X035307Y020777D01*
X035246Y020715D01*
X034999Y020962D01*
X035246Y020962D01*
X035307Y020900D01*
X035307Y021083D02*
X035307Y021330D01*
X035122Y021207D02*
X035122Y021083D01*
X034999Y020962D02*
X034937Y020900D01*
X034937Y020777D01*
X034999Y020715D01*
X035246Y020715D01*
X035246Y020593D02*
X034999Y020593D01*
X034937Y020532D01*
X034937Y020408D01*
X034999Y020347D01*
X035060Y020347D01*
X035122Y020408D01*
X035122Y020593D01*
X035246Y020593D02*
X035307Y020532D01*
X035307Y020408D01*
X035246Y020347D01*
X035246Y020225D02*
X035307Y020163D01*
X035307Y020040D01*
X035246Y019978D01*
X035184Y019978D01*
X035122Y020040D01*
X035122Y020163D01*
X035184Y020225D01*
X035246Y020225D01*
X035122Y020163D02*
X035060Y020225D01*
X034999Y020225D01*
X034937Y020163D01*
X034937Y020040D01*
X034999Y019978D01*
X035060Y019978D01*
X035122Y020040D01*
X034787Y020138D02*
X034417Y020138D01*
X034417Y020323D01*
X034479Y020385D01*
X034602Y020385D01*
X034664Y020323D01*
X034664Y020138D01*
X034664Y020262D02*
X034787Y020385D01*
X034602Y020507D02*
X034602Y020753D01*
X034540Y020875D02*
X034479Y020875D01*
X034417Y020937D01*
X034417Y021060D01*
X034479Y021122D01*
X034540Y021122D01*
X034602Y021060D01*
X034602Y020937D01*
X034540Y020875D01*
X034602Y020937D02*
X034664Y020875D01*
X034726Y020875D01*
X034787Y020937D01*
X034787Y021060D01*
X034726Y021122D01*
X034664Y021122D01*
X034602Y021060D01*
X034937Y021083D02*
X035307Y021083D01*
X034937Y021083D02*
X034937Y021330D01*
X034787Y020692D02*
X034417Y020692D01*
X034602Y020507D01*
X033046Y022637D02*
X032799Y022884D01*
X033046Y022884D01*
X033107Y022822D01*
X033107Y022699D01*
X033046Y022637D01*
X032799Y022637D01*
X032737Y022699D01*
X032737Y022822D01*
X032799Y022884D01*
X033046Y023006D02*
X033046Y023067D01*
X033107Y023067D01*
X033107Y023006D01*
X033046Y023006D01*
X033107Y023190D02*
X032860Y023436D01*
X032799Y023436D01*
X032737Y023375D01*
X032737Y023251D01*
X032799Y023190D01*
X033107Y023190D02*
X033107Y023436D01*
X033107Y023558D02*
X033107Y023805D01*
X032922Y023681D02*
X032922Y023558D01*
X032737Y023558D02*
X033107Y023558D01*
X032737Y023558D02*
X032737Y023805D01*
X031607Y023621D02*
X031607Y023374D01*
X031360Y023621D01*
X031299Y023621D01*
X031237Y023559D01*
X031237Y023436D01*
X031299Y023374D01*
X031237Y023129D02*
X031607Y023129D01*
X031607Y023006D02*
X031607Y023252D01*
X031360Y023006D02*
X031237Y023129D01*
X031299Y022884D02*
X031422Y022884D01*
X031484Y022822D01*
X031484Y022637D01*
X031607Y022637D02*
X031237Y022637D01*
X031237Y022822D01*
X031299Y022884D01*
X031484Y022761D02*
X031607Y022884D01*
X031002Y025137D02*
X030817Y025322D01*
X030756Y025261D02*
X031002Y025508D01*
X030756Y025508D02*
X030756Y025137D01*
X030634Y025137D02*
X030387Y025137D01*
X030511Y025137D02*
X030511Y025508D01*
X030387Y025384D01*
X030387Y026637D02*
X030387Y027008D01*
X030572Y027008D01*
X030634Y026946D01*
X030634Y026822D01*
X030572Y026761D01*
X030387Y026761D01*
X030511Y026761D02*
X030634Y026637D01*
X030756Y026699D02*
X030817Y026637D01*
X030941Y026637D01*
X031002Y026699D01*
X031002Y026761D01*
X030941Y026822D01*
X030756Y026822D01*
X030756Y026699D01*
X030756Y026822D02*
X030879Y026946D01*
X031002Y027008D01*
X031124Y026946D02*
X031186Y027008D01*
X031309Y027008D01*
X031371Y026946D01*
X031371Y026884D01*
X031309Y026822D01*
X031371Y026761D01*
X031371Y026699D01*
X031309Y026637D01*
X031186Y026637D01*
X031124Y026699D01*
X031247Y026822D02*
X031309Y026822D01*
X030709Y017308D02*
X030524Y017122D01*
X030771Y017122D01*
X030709Y016937D02*
X030709Y017308D01*
X030402Y017308D02*
X030279Y017246D01*
X030156Y017122D01*
X030341Y017122D01*
X030402Y017061D01*
X030402Y016999D01*
X030341Y016937D01*
X030217Y016937D01*
X030156Y016999D01*
X030156Y017122D01*
X030034Y017122D02*
X029972Y017061D01*
X029787Y017061D01*
X029911Y017061D02*
X030034Y016937D01*
X030034Y017122D02*
X030034Y017246D01*
X029972Y017308D01*
X029787Y017308D01*
X029787Y016937D01*
X029911Y015808D02*
X029911Y015437D01*
X030034Y015437D02*
X029787Y015437D01*
X029787Y015684D02*
X029911Y015808D01*
X030156Y015808D02*
X030156Y015437D01*
X030156Y015561D02*
X030402Y015808D01*
X030217Y015622D02*
X030402Y015437D01*
X030360Y015121D02*
X030422Y015059D01*
X030484Y015121D01*
X030546Y015121D01*
X030607Y015059D01*
X030607Y014936D01*
X030546Y014874D01*
X030607Y014752D02*
X030607Y014506D01*
X030607Y014384D02*
X030484Y014261D01*
X030484Y014322D02*
X030484Y014137D01*
X030607Y014137D02*
X030237Y014137D01*
X030237Y014322D01*
X030299Y014384D01*
X030422Y014384D01*
X030484Y014322D01*
X030360Y014506D02*
X030237Y014629D01*
X030607Y014629D01*
X030299Y014874D02*
X030237Y014936D01*
X030237Y015059D01*
X030299Y015121D01*
X030360Y015121D01*
X030422Y015059D02*
X030422Y014997D01*
X031737Y014905D02*
X031737Y014658D01*
X032107Y014658D01*
X032107Y014905D01*
X031922Y014781D02*
X031922Y014658D01*
X031860Y014536D02*
X031799Y014536D01*
X031737Y014475D01*
X031737Y014351D01*
X031799Y014290D01*
X031860Y014536D02*
X032107Y014290D01*
X032107Y014536D01*
X032107Y014167D02*
X032107Y014106D01*
X032046Y014106D01*
X032046Y014167D01*
X032107Y014167D01*
X032046Y013984D02*
X032107Y013922D01*
X032107Y013799D01*
X032046Y013737D01*
X031799Y013984D01*
X032046Y013984D01*
X032046Y013737D02*
X031799Y013737D01*
X031737Y013799D01*
X031737Y013922D01*
X031799Y013984D01*
X034737Y012967D02*
X034737Y012720D01*
X035107Y012720D01*
X035107Y012967D01*
X035237Y012932D02*
X035237Y013055D01*
X035299Y013117D01*
X035546Y012870D01*
X035607Y012932D01*
X035607Y013055D01*
X035546Y013117D01*
X035299Y013117D01*
X035237Y012932D02*
X035299Y012870D01*
X035546Y012870D01*
X035546Y012749D02*
X035607Y012687D01*
X035607Y012563D01*
X035546Y012502D01*
X035422Y012502D02*
X035360Y012625D01*
X035360Y012687D01*
X035422Y012749D01*
X035546Y012749D01*
X035422Y012502D02*
X035237Y012502D01*
X035237Y012749D01*
X035046Y012599D02*
X035107Y012537D01*
X035107Y012413D01*
X035046Y012352D01*
X035046Y012230D02*
X035107Y012169D01*
X035107Y012045D01*
X035046Y011983D01*
X035107Y011862D02*
X035107Y011615D01*
X035107Y011739D02*
X034737Y011739D01*
X034860Y011615D01*
X034799Y011983D02*
X034737Y012045D01*
X034737Y012169D01*
X034799Y012230D01*
X034860Y012230D01*
X034922Y012169D01*
X034984Y012230D01*
X035046Y012230D01*
X034922Y012169D02*
X034922Y012107D01*
X034799Y012352D02*
X034737Y012413D01*
X034737Y012537D01*
X034799Y012599D01*
X034860Y012599D01*
X034922Y012537D01*
X034984Y012599D01*
X035046Y012599D01*
X034922Y012537D02*
X034922Y012475D01*
X034922Y012720D02*
X034922Y012843D01*
X035299Y012380D02*
X035422Y012380D01*
X035484Y012319D01*
X035484Y012133D01*
X035607Y012133D02*
X035237Y012133D01*
X035237Y012319D01*
X035299Y012380D01*
X035484Y012257D02*
X035607Y012380D01*
X036037Y012269D02*
X036037Y012145D01*
X036099Y012083D01*
X036099Y011962D02*
X036037Y011900D01*
X036037Y011777D01*
X036099Y011715D01*
X036099Y011962D02*
X036160Y011962D01*
X036407Y011715D01*
X036407Y011962D01*
X036407Y012083D02*
X036160Y012330D01*
X036099Y012330D01*
X036037Y012269D01*
X036099Y012452D02*
X036037Y012513D01*
X036037Y012637D01*
X036099Y012699D01*
X036346Y012452D01*
X036407Y012513D01*
X036407Y012637D01*
X036346Y012699D01*
X036099Y012699D01*
X036037Y012820D02*
X036407Y012820D01*
X036407Y013067D01*
X036487Y013005D02*
X036549Y013067D01*
X036796Y013067D01*
X036857Y013005D01*
X036857Y012882D01*
X036796Y012820D01*
X036672Y012882D02*
X036672Y013067D01*
X036672Y012882D02*
X036610Y012820D01*
X036549Y012820D01*
X036487Y012882D01*
X036487Y013005D01*
X036222Y012943D02*
X036222Y012820D01*
X036037Y012820D02*
X036037Y013067D01*
X036487Y012637D02*
X036672Y012452D01*
X036672Y012699D01*
X036857Y012637D02*
X036487Y012637D01*
X036346Y012452D02*
X036099Y012452D01*
X036407Y012330D02*
X036407Y012083D01*
X036487Y012083D02*
X036487Y012269D01*
X036549Y012330D01*
X036672Y012330D01*
X036734Y012269D01*
X036734Y012083D01*
X036857Y012083D02*
X036487Y012083D01*
X036734Y012207D02*
X036857Y012330D01*
X040258Y010500D02*
X040443Y010500D01*
X040505Y010438D01*
X040505Y010315D01*
X040443Y010253D01*
X040258Y010253D01*
X040381Y010253D02*
X040505Y010129D01*
X040626Y010191D02*
X040688Y010129D01*
X040811Y010129D01*
X040873Y010191D01*
X040873Y010253D01*
X040811Y010315D01*
X040626Y010315D01*
X040626Y010191D01*
X040626Y010315D02*
X040750Y010438D01*
X040873Y010500D01*
X040995Y010438D02*
X041056Y010500D01*
X041180Y010500D01*
X041241Y010438D01*
X040995Y010191D01*
X041056Y010129D01*
X041180Y010129D01*
X041241Y010191D01*
X041241Y010438D01*
X040995Y010438D02*
X040995Y010191D01*
X040258Y010129D02*
X040258Y010500D01*
X040597Y011645D02*
X040597Y012015D01*
X040411Y011830D01*
X040658Y011830D01*
X040780Y011707D02*
X040780Y011645D01*
X040780Y011707D02*
X041027Y011954D01*
X041027Y012015D01*
X040780Y012015D01*
X041148Y012015D02*
X041148Y011645D01*
X041148Y011768D02*
X041395Y012015D01*
X041210Y011830D02*
X041395Y011645D01*
X042410Y013837D02*
X042287Y013961D01*
X042657Y013961D01*
X042657Y014084D02*
X042657Y013837D01*
X042657Y014206D02*
X042287Y014206D01*
X042472Y014267D02*
X042657Y014452D01*
X042534Y014206D02*
X042287Y014452D01*
X041447Y014894D02*
X041386Y014832D01*
X041139Y014832D01*
X041077Y014894D01*
X041077Y015017D01*
X041139Y015079D01*
X041139Y015201D02*
X041201Y015201D01*
X041262Y015262D01*
X041262Y015447D01*
X041139Y015447D02*
X041077Y015386D01*
X041077Y015262D01*
X041139Y015201D01*
X040947Y015201D02*
X040947Y015262D01*
X040886Y015262D01*
X040886Y015201D01*
X040947Y015201D01*
X040886Y015079D02*
X040947Y015017D01*
X040947Y014894D01*
X040886Y014832D01*
X040639Y015079D01*
X040886Y015079D01*
X040886Y014832D02*
X040639Y014832D01*
X040577Y014894D01*
X040577Y015017D01*
X040639Y015079D01*
X040701Y015385D02*
X040577Y015508D01*
X040947Y015508D01*
X040947Y015385D02*
X040947Y015632D01*
X040886Y015753D02*
X040947Y015815D01*
X040947Y016000D01*
X040701Y016000D01*
X040701Y015753D02*
X040886Y015753D01*
X041139Y015447D02*
X041386Y015447D01*
X041447Y015386D01*
X041447Y015262D01*
X041386Y015201D01*
X041386Y015079D02*
X041447Y015017D01*
X041447Y014894D01*
X043197Y016239D02*
X043444Y016239D01*
X043566Y016239D02*
X043751Y016239D01*
X043812Y016177D01*
X043812Y016053D01*
X043751Y015992D01*
X043566Y015992D01*
X043566Y015868D02*
X043566Y016239D01*
X043321Y016239D02*
X043321Y015868D01*
X043934Y015930D02*
X043996Y015868D01*
X044119Y015868D01*
X044181Y015930D01*
X044181Y015992D01*
X044119Y016053D01*
X043996Y016053D01*
X043934Y016115D01*
X043934Y016177D01*
X043996Y016239D01*
X044119Y016239D01*
X044181Y016177D01*
X044302Y016177D02*
X044364Y016239D01*
X044487Y016239D01*
X044549Y016177D01*
X044549Y016115D01*
X044302Y015868D01*
X044549Y015868D01*
X044670Y015930D02*
X044917Y016177D01*
X044917Y015930D01*
X044856Y015868D01*
X044732Y015868D01*
X044670Y015930D01*
X044670Y016177D01*
X044732Y016239D01*
X044856Y016239D01*
X044917Y016177D01*
X045039Y016177D02*
X045100Y016239D01*
X045224Y016239D01*
X045286Y016177D01*
X045286Y016115D01*
X045224Y016053D01*
X045286Y015992D01*
X045286Y015930D01*
X045224Y015868D01*
X045100Y015868D01*
X045039Y015930D01*
X045162Y016053D02*
X045224Y016053D01*
X045407Y015930D02*
X045654Y016177D01*
X045654Y015930D01*
X045592Y015868D01*
X045469Y015868D01*
X045407Y015930D01*
X045407Y016177D01*
X045469Y016239D01*
X045592Y016239D01*
X045654Y016177D01*
X044207Y014809D02*
X044146Y014871D01*
X043899Y014871D01*
X043837Y014809D01*
X043837Y014686D01*
X043899Y014624D01*
X043960Y014624D01*
X044022Y014686D01*
X044022Y014871D01*
X044207Y014809D02*
X044207Y014686D01*
X044146Y014624D01*
X044146Y014502D02*
X044207Y014441D01*
X044207Y014317D01*
X044146Y014256D01*
X044022Y014256D02*
X043960Y014379D01*
X043960Y014441D01*
X044022Y014502D01*
X044146Y014502D01*
X044022Y014256D02*
X043837Y014256D01*
X043837Y014502D01*
X043899Y014134D02*
X044022Y014134D01*
X044084Y014072D01*
X044084Y013887D01*
X044207Y013887D02*
X043837Y013887D01*
X043837Y014072D01*
X043899Y014134D01*
X044084Y014011D02*
X044207Y014134D01*
X044459Y012064D02*
X044706Y011817D01*
X044768Y011879D01*
X044768Y012002D01*
X044706Y012064D01*
X044459Y012064D01*
X044397Y012002D01*
X044397Y011879D01*
X044459Y011817D01*
X044706Y011817D01*
X044768Y011696D02*
X044768Y011449D01*
X044768Y011572D02*
X044397Y011572D01*
X044521Y011449D01*
X044459Y011328D02*
X044397Y011266D01*
X044397Y011142D01*
X044459Y011081D01*
X044706Y011081D01*
X044768Y011142D01*
X044768Y011266D01*
X044706Y011328D01*
X045797Y011266D02*
X045859Y011328D01*
X046106Y011081D01*
X046168Y011142D01*
X046168Y011266D01*
X046106Y011328D01*
X045859Y011328D01*
X045797Y011266D02*
X045797Y011142D01*
X045859Y011081D01*
X046106Y011081D01*
X046106Y011449D02*
X046106Y011511D01*
X046168Y011511D01*
X046168Y011449D01*
X046106Y011449D01*
X046168Y011633D02*
X046168Y011880D01*
X046168Y011757D02*
X045797Y011757D01*
X045921Y011633D01*
X045921Y012001D02*
X046106Y012001D01*
X046168Y012063D01*
X046168Y012248D01*
X045921Y012248D01*
X044046Y018818D02*
X044108Y018880D01*
X044108Y019127D01*
X044046Y019189D01*
X043923Y019189D01*
X043861Y019127D01*
X043861Y019065D01*
X043923Y019003D01*
X044108Y019003D01*
X044046Y018818D02*
X043923Y018818D01*
X043861Y018880D01*
X043740Y018880D02*
X043678Y018818D01*
X043554Y018818D01*
X043493Y018880D01*
X043493Y019127D01*
X043554Y019189D01*
X043678Y019189D01*
X043740Y019127D01*
X043371Y019189D02*
X043247Y019189D01*
X043309Y019189D02*
X043309Y018818D01*
X043247Y018818D02*
X043371Y018818D01*
X042106Y019157D02*
X042106Y019404D01*
X042106Y019157D02*
X041921Y019157D01*
X041859Y019219D01*
X041859Y019404D01*
X041614Y019528D02*
X041614Y019157D01*
X041491Y019157D02*
X041738Y019157D01*
X041491Y019404D02*
X041614Y019528D01*
X041368Y019219D02*
X041368Y019157D01*
X041307Y019157D01*
X041307Y019219D01*
X041368Y019219D01*
X041185Y019219D02*
X041123Y019157D01*
X041000Y019157D01*
X040938Y019219D01*
X041185Y019466D01*
X041185Y019219D01*
X040938Y019219D02*
X040938Y019466D01*
X041000Y019528D01*
X041123Y019528D01*
X041185Y019466D01*
X041123Y020657D02*
X041185Y020719D01*
X041123Y020657D02*
X041000Y020657D01*
X040938Y020719D01*
X040938Y020966D01*
X041000Y021028D01*
X041123Y021028D01*
X041185Y020966D01*
X041307Y020966D02*
X041368Y021028D01*
X041492Y021028D01*
X041553Y020966D01*
X041553Y020904D01*
X041307Y020657D01*
X041553Y020657D01*
X041675Y020657D02*
X041922Y020904D01*
X041922Y020966D01*
X041860Y021028D01*
X041737Y021028D01*
X041675Y020966D01*
X041675Y020657D02*
X041922Y020657D01*
X043921Y023368D02*
X043921Y023739D01*
X044044Y023739D02*
X043797Y023739D01*
X044166Y023739D02*
X044166Y023368D01*
X044166Y023492D02*
X044351Y023492D01*
X044412Y023553D01*
X044412Y023677D01*
X044351Y023739D01*
X044166Y023739D01*
X044534Y023677D02*
X044534Y023615D01*
X044596Y023553D01*
X044719Y023553D01*
X044781Y023492D01*
X044781Y023430D01*
X044719Y023368D01*
X044596Y023368D01*
X044534Y023430D01*
X044534Y023677D02*
X044596Y023739D01*
X044719Y023739D01*
X044781Y023677D01*
X044902Y023677D02*
X044964Y023739D01*
X045087Y023739D01*
X045149Y023677D01*
X045149Y023615D01*
X044902Y023368D01*
X045149Y023368D01*
X045270Y023430D02*
X045517Y023677D01*
X045517Y023430D01*
X045456Y023368D01*
X045332Y023368D01*
X045270Y023430D01*
X045270Y023677D01*
X045332Y023739D01*
X045456Y023739D01*
X045517Y023677D01*
X045639Y023677D02*
X045700Y023739D01*
X045824Y023739D01*
X045886Y023677D01*
X045886Y023615D01*
X045824Y023553D01*
X045886Y023492D01*
X045886Y023430D01*
X045824Y023368D01*
X045700Y023368D01*
X045639Y023430D01*
X045762Y023553D02*
X045824Y023553D01*
X046007Y023430D02*
X046254Y023677D01*
X046254Y023430D01*
X046192Y023368D01*
X046069Y023368D01*
X046007Y023430D01*
X046007Y023677D01*
X046069Y023739D01*
X046192Y023739D01*
X046254Y023677D01*
X044046Y026268D02*
X043923Y026268D01*
X043861Y026330D01*
X043861Y026392D01*
X043923Y026453D01*
X044046Y026453D01*
X044108Y026392D01*
X044108Y026330D01*
X044046Y026268D01*
X044046Y026453D02*
X044108Y026515D01*
X044108Y026577D01*
X044046Y026639D01*
X043923Y026639D01*
X043861Y026577D01*
X043861Y026515D01*
X043923Y026453D01*
X043740Y026330D02*
X043678Y026268D01*
X043554Y026268D01*
X043493Y026330D01*
X043493Y026577D01*
X043554Y026639D01*
X043678Y026639D01*
X043740Y026577D01*
X043371Y026639D02*
X043247Y026639D01*
X043309Y026639D02*
X043309Y026268D01*
X043247Y026268D02*
X043371Y026268D01*
X042106Y026657D02*
X042106Y026904D01*
X042106Y026657D02*
X041921Y026657D01*
X041859Y026719D01*
X041859Y026904D01*
X041614Y027028D02*
X041614Y026657D01*
X041491Y026657D02*
X041738Y026657D01*
X041491Y026904D02*
X041614Y027028D01*
X041368Y026719D02*
X041368Y026657D01*
X041307Y026657D01*
X041307Y026719D01*
X041368Y026719D01*
X041185Y026719D02*
X041123Y026657D01*
X041000Y026657D01*
X040938Y026719D01*
X041185Y026966D01*
X041185Y026719D01*
X040938Y026719D02*
X040938Y026966D01*
X041000Y027028D01*
X041123Y027028D01*
X041185Y026966D01*
X041123Y028307D02*
X041185Y028369D01*
X041123Y028307D02*
X041000Y028307D01*
X040938Y028369D01*
X040938Y028616D01*
X041000Y028678D01*
X041123Y028678D01*
X041185Y028616D01*
X041307Y028616D02*
X041368Y028678D01*
X041492Y028678D01*
X041553Y028616D01*
X041553Y028554D01*
X041307Y028307D01*
X041553Y028307D01*
X041675Y028369D02*
X041737Y028307D01*
X041860Y028307D01*
X041922Y028369D01*
X041922Y028431D01*
X041860Y028492D01*
X041798Y028492D01*
X041860Y028492D02*
X041922Y028554D01*
X041922Y028616D01*
X041860Y028678D01*
X041737Y028678D01*
X041675Y028616D01*
X043871Y030068D02*
X043871Y030439D01*
X043994Y030439D02*
X043747Y030439D01*
X044116Y030439D02*
X044116Y030068D01*
X044116Y030192D02*
X044301Y030192D01*
X044362Y030253D01*
X044362Y030377D01*
X044301Y030439D01*
X044116Y030439D01*
X044484Y030377D02*
X044484Y030315D01*
X044546Y030253D01*
X044669Y030253D01*
X044731Y030192D01*
X044731Y030130D01*
X044669Y030068D01*
X044546Y030068D01*
X044484Y030130D01*
X044484Y030377D02*
X044546Y030439D01*
X044669Y030439D01*
X044731Y030377D01*
X044852Y030377D02*
X044914Y030439D01*
X045037Y030439D01*
X045099Y030377D01*
X045099Y030315D01*
X044852Y030068D01*
X045099Y030068D01*
X045220Y030130D02*
X045467Y030377D01*
X045467Y030130D01*
X045406Y030068D01*
X045282Y030068D01*
X045220Y030130D01*
X045220Y030377D01*
X045282Y030439D01*
X045406Y030439D01*
X045467Y030377D01*
X045589Y030377D02*
X045650Y030439D01*
X045774Y030439D01*
X045836Y030377D01*
X045836Y030315D01*
X045774Y030253D01*
X045836Y030192D01*
X045836Y030130D01*
X045774Y030068D01*
X045650Y030068D01*
X045589Y030130D01*
X045712Y030253D02*
X045774Y030253D01*
X045957Y030130D02*
X046204Y030377D01*
X046204Y030130D01*
X046142Y030068D01*
X046019Y030068D01*
X045957Y030130D01*
X045957Y030377D01*
X046019Y030439D01*
X046142Y030439D01*
X046204Y030377D01*
X036091Y017202D02*
X035844Y017202D01*
X035844Y017017D01*
X035967Y017078D01*
X036029Y017078D01*
X036091Y017017D01*
X036091Y016893D01*
X036029Y016831D01*
X035906Y016831D01*
X035844Y016893D01*
X035722Y016831D02*
X035476Y016831D01*
X035476Y017202D01*
X035722Y017202D01*
X035599Y017017D02*
X035476Y017017D01*
X035354Y017140D02*
X035292Y017202D01*
X035169Y017202D01*
X035107Y017140D01*
X035107Y016893D01*
X035169Y016831D01*
X035292Y016831D01*
X035354Y016893D01*
X036907Y016157D02*
X037154Y016157D01*
X037276Y016033D02*
X037276Y015972D01*
X037276Y016033D02*
X037522Y016280D01*
X037522Y016342D01*
X037276Y016342D01*
X037092Y016342D02*
X036907Y016157D01*
X037092Y015972D02*
X037092Y016342D01*
X037644Y016218D02*
X037644Y016033D01*
X037706Y015972D01*
X037891Y015972D01*
X037891Y016218D01*
X038012Y016157D02*
X038136Y016157D01*
X038012Y016342D02*
X038259Y016342D01*
X038012Y016342D02*
X038012Y015972D01*
X027771Y016138D02*
X027586Y016324D01*
X027524Y016262D02*
X027771Y016509D01*
X027524Y016509D02*
X027524Y016138D01*
X027402Y016138D02*
X027156Y016138D01*
X027402Y016385D01*
X027402Y016447D01*
X027341Y016509D01*
X027217Y016509D01*
X027156Y016447D01*
X027034Y016447D02*
X026972Y016509D01*
X026849Y016509D01*
X026787Y016447D01*
X027034Y016447D02*
X027034Y016385D01*
X026787Y016138D01*
X027034Y016138D01*
X026109Y017038D02*
X026171Y017100D01*
X026171Y017347D01*
X025924Y017100D01*
X025986Y017038D01*
X026109Y017038D01*
X025924Y017100D02*
X025924Y017347D01*
X025986Y017409D01*
X026109Y017409D01*
X026171Y017347D01*
X025802Y017347D02*
X025556Y017100D01*
X025556Y017038D01*
X025434Y017038D02*
X025311Y017162D01*
X025372Y017162D02*
X025187Y017162D01*
X025187Y017038D02*
X025187Y017409D01*
X025372Y017409D01*
X025434Y017347D01*
X025434Y017224D01*
X025372Y017162D01*
X025556Y017409D02*
X025802Y017409D01*
X025802Y017347D01*
X023857Y016371D02*
X023672Y016186D01*
X023734Y016124D02*
X023487Y016371D01*
X023487Y016124D02*
X023857Y016124D01*
X023857Y016002D02*
X023857Y015756D01*
X023610Y016002D01*
X023549Y016002D01*
X023487Y015941D01*
X023487Y015817D01*
X023549Y015756D01*
X023549Y015634D02*
X023487Y015572D01*
X023487Y015449D01*
X023549Y015387D01*
X023549Y015634D02*
X023610Y015634D01*
X023857Y015387D01*
X023857Y015634D01*
X023874Y014909D02*
X023874Y014538D01*
X023751Y014538D02*
X023997Y014538D01*
X024119Y014538D02*
X024366Y014538D01*
X024242Y014538D02*
X024242Y014909D01*
X024119Y014785D01*
X023874Y014909D02*
X023751Y014785D01*
X023629Y014847D02*
X023567Y014909D01*
X023444Y014909D01*
X023382Y014847D01*
X023382Y014600D01*
X023444Y014538D01*
X023567Y014538D01*
X023629Y014600D01*
X023344Y014308D02*
X023097Y014308D01*
X023097Y014122D01*
X023220Y014184D01*
X023282Y014184D01*
X023344Y014122D01*
X023344Y013999D01*
X023282Y013937D01*
X023159Y013937D01*
X023097Y013999D01*
X022976Y013999D02*
X022914Y013937D01*
X022790Y013937D01*
X022729Y013999D01*
X022607Y013999D02*
X022607Y014246D01*
X022546Y014308D01*
X022422Y014308D01*
X022360Y014246D01*
X022360Y014184D01*
X022422Y014122D01*
X022607Y014122D01*
X022729Y014122D02*
X022852Y014184D01*
X022914Y014184D01*
X022976Y014122D01*
X022976Y013999D01*
X022729Y014122D02*
X022729Y014308D01*
X022976Y014308D01*
X022607Y013999D02*
X022546Y013937D01*
X022422Y013937D01*
X022360Y013999D01*
X022239Y013937D02*
X021992Y013937D01*
X022239Y014184D01*
X022239Y014246D01*
X022177Y014308D01*
X022054Y014308D01*
X021992Y014246D01*
X021871Y014246D02*
X021871Y013999D01*
X021809Y013937D01*
X021624Y013937D01*
X021624Y014308D01*
X021809Y014308D01*
X021871Y014246D01*
X021502Y014308D02*
X021379Y014308D01*
X021441Y014308D02*
X021441Y013999D01*
X021379Y013937D01*
X021317Y013937D01*
X021256Y013999D01*
X021134Y013937D02*
X021134Y014308D01*
X021011Y014184D01*
X020887Y014308D01*
X020887Y013937D01*
X021987Y015387D02*
X021987Y015572D01*
X022049Y015634D01*
X022172Y015634D01*
X022234Y015572D01*
X022234Y015387D01*
X022357Y015387D02*
X021987Y015387D01*
X022234Y015511D02*
X022357Y015634D01*
X022357Y015756D02*
X022296Y015756D01*
X022049Y016002D01*
X021987Y016002D01*
X021987Y015756D01*
X022110Y016124D02*
X021987Y016247D01*
X022357Y016247D01*
X022357Y016124D02*
X022357Y016371D01*
X023660Y013797D02*
X023783Y013797D01*
X023845Y013736D01*
X023598Y013489D01*
X023660Y013427D01*
X023783Y013427D01*
X023845Y013489D01*
X023845Y013736D01*
X023660Y013797D02*
X023598Y013736D01*
X023598Y013489D01*
X023966Y013489D02*
X024028Y013489D01*
X024028Y013427D01*
X023966Y013427D01*
X023966Y013489D01*
X024151Y013427D02*
X024397Y013674D01*
X024397Y013736D01*
X024336Y013797D01*
X024212Y013797D01*
X024151Y013736D01*
X024151Y013427D02*
X024397Y013427D01*
X024519Y013427D02*
X024766Y013427D01*
X024642Y013612D02*
X024519Y013612D01*
X024519Y013797D02*
X024519Y013427D01*
X024519Y013797D02*
X024766Y013797D01*
X025787Y014298D02*
X025849Y014236D01*
X025972Y014236D01*
X026034Y014298D01*
X026034Y014545D01*
X025787Y014298D01*
X025787Y014545D01*
X025849Y014606D01*
X025972Y014606D01*
X026034Y014545D01*
X026156Y014298D02*
X026156Y014236D01*
X026217Y014236D01*
X026217Y014298D01*
X026156Y014298D01*
X026340Y014236D02*
X026586Y014236D01*
X026463Y014236D02*
X026463Y014606D01*
X026340Y014483D01*
X026708Y014483D02*
X026708Y014298D01*
X026770Y014236D01*
X026955Y014236D01*
X026955Y014483D01*
X027076Y014421D02*
X027200Y014421D01*
X027076Y014606D02*
X027323Y014606D01*
X027076Y014606D02*
X027076Y014236D01*
X024966Y012236D02*
X024904Y012297D01*
X024781Y012297D01*
X024719Y012236D01*
X024597Y012236D02*
X024351Y011989D01*
X024351Y011927D01*
X024229Y011927D02*
X024106Y012050D01*
X024167Y012050D02*
X023982Y012050D01*
X023982Y011927D02*
X023982Y012297D01*
X024167Y012297D01*
X024229Y012236D01*
X024229Y012112D01*
X024167Y012050D01*
X024351Y012297D02*
X024597Y012297D01*
X024597Y012236D01*
X024719Y011927D02*
X024966Y012174D01*
X024966Y012236D01*
X024966Y011927D02*
X024719Y011927D01*
X020942Y010208D02*
X020942Y009837D01*
X020819Y009837D02*
X021066Y009837D01*
X020819Y010084D02*
X020942Y010208D01*
X020697Y010208D02*
X020451Y010208D01*
X020574Y010208D02*
X020574Y009837D01*
X016166Y012487D02*
X015919Y012487D01*
X016166Y012734D01*
X016166Y012796D01*
X016104Y012858D01*
X015981Y012858D01*
X015919Y012796D01*
X015797Y012858D02*
X015674Y012796D01*
X015551Y012672D01*
X015736Y012672D01*
X015797Y012611D01*
X015797Y012549D01*
X015736Y012487D01*
X015612Y012487D01*
X015551Y012549D01*
X015551Y012672D01*
X015429Y012672D02*
X015367Y012611D01*
X015182Y012611D01*
X015306Y012611D02*
X015429Y012487D01*
X015429Y012672D02*
X015429Y012796D01*
X015367Y012858D01*
X015182Y012858D01*
X015182Y012487D01*
X014007Y012701D02*
X013637Y012701D01*
X013637Y012886D01*
X013699Y012947D01*
X013822Y012947D01*
X013884Y012886D01*
X013884Y012701D01*
X013884Y012824D02*
X014007Y012947D01*
X013822Y013069D02*
X013637Y013254D01*
X014007Y013254D01*
X013822Y013316D02*
X013822Y013069D01*
X012507Y013069D02*
X012137Y013069D01*
X012322Y013131D02*
X012507Y013316D01*
X012384Y013069D02*
X012137Y013316D01*
X012137Y012824D02*
X012507Y012824D01*
X012507Y012701D02*
X012507Y012947D01*
X012260Y012701D02*
X012137Y012824D01*
X013687Y015587D02*
X013687Y015772D01*
X013749Y015834D01*
X013872Y015834D01*
X013934Y015772D01*
X013934Y015587D01*
X014057Y015587D02*
X013687Y015587D01*
X013934Y015711D02*
X014057Y015834D01*
X013996Y015956D02*
X014057Y016017D01*
X014057Y016141D01*
X013996Y016202D01*
X013934Y016202D01*
X013872Y016141D01*
X013872Y015956D01*
X013996Y015956D01*
X013872Y015956D02*
X013749Y016079D01*
X013687Y016202D01*
X013749Y016324D02*
X013810Y016324D01*
X013872Y016386D01*
X013872Y016571D01*
X013749Y016571D02*
X013687Y016509D01*
X013687Y016386D01*
X013749Y016324D01*
X013996Y016324D02*
X014057Y016386D01*
X014057Y016509D01*
X013996Y016571D01*
X013749Y016571D01*
X015187Y016509D02*
X015249Y016571D01*
X015496Y016324D01*
X015557Y016386D01*
X015557Y016509D01*
X015496Y016571D01*
X015249Y016571D01*
X015187Y016509D02*
X015187Y016386D01*
X015249Y016324D01*
X015496Y016324D01*
X015496Y016202D02*
X015557Y016141D01*
X015557Y016017D01*
X015496Y015956D01*
X015249Y016202D01*
X015496Y016202D01*
X015496Y015956D02*
X015249Y015956D01*
X015187Y016017D01*
X015187Y016141D01*
X015249Y016202D01*
X015557Y015834D02*
X015557Y015587D01*
X015557Y015711D02*
X015187Y015711D01*
X015310Y015587D01*
X015187Y016692D02*
X015557Y016692D01*
X015434Y016692D02*
X015187Y016939D01*
X015372Y016754D02*
X015557Y016939D01*
X015674Y014358D02*
X015674Y013987D01*
X015551Y013987D02*
X015797Y013987D01*
X015919Y013987D02*
X015919Y014358D01*
X015981Y014172D02*
X016166Y013987D01*
X015919Y014111D02*
X016166Y014358D01*
X015674Y014358D02*
X015551Y014234D01*
X013637Y020987D02*
X013637Y021234D01*
X013637Y021111D02*
X014007Y021111D01*
X014007Y021356D02*
X013760Y021602D01*
X013699Y021602D01*
X013637Y021541D01*
X013637Y021417D01*
X013699Y021356D01*
X014007Y021356D02*
X014007Y021602D01*
X018537Y021987D02*
X018660Y022111D01*
X018537Y022234D01*
X018907Y022234D01*
X018846Y022356D02*
X018907Y022417D01*
X018907Y022479D01*
X018846Y022541D01*
X018537Y022541D01*
X018537Y022602D02*
X018537Y022479D01*
X018537Y022724D02*
X018537Y022909D01*
X018599Y022971D01*
X018846Y022971D01*
X018907Y022909D01*
X018907Y022724D01*
X018537Y022724D01*
X018599Y023092D02*
X018537Y023154D01*
X018537Y023277D01*
X018599Y023339D01*
X018660Y023339D01*
X018722Y023277D01*
X018784Y023339D01*
X018846Y023339D01*
X018907Y023277D01*
X018907Y023154D01*
X018846Y023092D01*
X018722Y023216D02*
X018722Y023277D01*
X018599Y023460D02*
X018537Y023522D01*
X018537Y023646D01*
X018599Y023707D01*
X018846Y023460D01*
X018907Y023522D01*
X018907Y023646D01*
X018846Y023707D01*
X018599Y023707D01*
X018537Y023829D02*
X018722Y023829D01*
X018660Y023952D01*
X018660Y024014D01*
X018722Y024076D01*
X018846Y024076D01*
X018907Y024014D01*
X018907Y023890D01*
X018846Y023829D01*
X018537Y023829D02*
X018537Y024076D01*
X018537Y024197D02*
X018722Y024197D01*
X018660Y024320D01*
X018660Y024382D01*
X018722Y024444D01*
X018846Y024444D01*
X018907Y024382D01*
X018907Y024259D01*
X018846Y024197D01*
X018537Y024197D02*
X018537Y024444D01*
X018599Y023460D02*
X018846Y023460D01*
X018907Y021987D02*
X018537Y021987D01*
X016741Y026337D02*
X016617Y026337D01*
X016556Y026399D01*
X016434Y026337D02*
X016311Y026461D01*
X016372Y026461D02*
X016187Y026461D01*
X016187Y026337D02*
X016187Y026708D01*
X016372Y026708D01*
X016434Y026646D01*
X016434Y026522D01*
X016372Y026461D01*
X016556Y026646D02*
X016617Y026708D01*
X016741Y026708D01*
X016802Y026646D01*
X016802Y026584D01*
X016741Y026522D01*
X016802Y026461D01*
X016802Y026399D01*
X016741Y026337D01*
X016741Y026522D02*
X016679Y026522D01*
X014566Y026608D02*
X014319Y026608D01*
X014319Y026237D01*
X014566Y026237D01*
X014442Y026422D02*
X014319Y026422D01*
X014197Y026484D02*
X014197Y026546D01*
X014136Y026608D01*
X014012Y026608D01*
X013951Y026546D01*
X014197Y026484D02*
X013951Y026237D01*
X014197Y026237D01*
X013828Y026237D02*
X013766Y026237D01*
X013766Y026299D01*
X013828Y026299D01*
X013828Y026237D01*
X013645Y026299D02*
X013583Y026237D01*
X013460Y026237D01*
X013398Y026299D01*
X013645Y026546D01*
X013645Y026299D01*
X013645Y026546D02*
X013583Y026608D01*
X013460Y026608D01*
X013398Y026546D01*
X013398Y026299D01*
X008667Y031418D02*
X008667Y031542D01*
X008667Y031480D02*
X008297Y031480D01*
X008297Y031418D02*
X008297Y031542D01*
X008359Y031664D02*
X008297Y031726D01*
X008297Y031849D01*
X008359Y031911D01*
X008359Y032032D02*
X008297Y032094D01*
X008297Y032217D01*
X008359Y032279D01*
X008420Y032279D01*
X008667Y032032D01*
X008667Y032279D01*
X008797Y032205D02*
X009167Y032452D01*
X008982Y032573D02*
X008982Y032820D01*
X008859Y032942D02*
X008797Y033003D01*
X008797Y033127D01*
X008859Y033188D01*
X008920Y033188D01*
X008982Y033127D01*
X009044Y033188D01*
X009106Y033188D01*
X009167Y033127D01*
X009167Y033003D01*
X009106Y032942D01*
X008982Y033065D02*
X008982Y033127D01*
X009106Y033310D02*
X008859Y033557D01*
X008797Y033557D01*
X008797Y033310D01*
X009106Y033310D02*
X009167Y033310D01*
X009167Y033678D02*
X008920Y033925D01*
X008859Y033925D01*
X008797Y033863D01*
X008797Y033740D01*
X008859Y033678D01*
X009167Y033678D02*
X009167Y033925D01*
X009167Y032758D02*
X008797Y032758D01*
X008982Y032573D01*
X008797Y032452D02*
X009167Y032205D01*
X009167Y032083D02*
X008920Y032083D01*
X008797Y031960D01*
X008920Y031837D01*
X009167Y031837D01*
X009167Y031715D02*
X008797Y031715D01*
X008920Y031592D01*
X008797Y031468D01*
X009167Y031468D01*
X008982Y031837D02*
X008982Y032083D01*
X008667Y031849D02*
X008606Y031911D01*
X008667Y031849D02*
X008667Y031726D01*
X008606Y031664D01*
X008359Y031664D01*
X007397Y031806D02*
X007027Y031806D01*
X007027Y031991D01*
X007089Y032053D01*
X007212Y032053D01*
X007274Y031991D01*
X007274Y031806D01*
X007274Y031930D02*
X007397Y032053D01*
X007336Y032174D02*
X007397Y032236D01*
X007397Y032360D01*
X007336Y032421D01*
X007274Y032421D01*
X007212Y032360D01*
X007212Y032298D01*
X007212Y032360D02*
X007150Y032421D01*
X007089Y032421D01*
X007027Y032360D01*
X007027Y032236D01*
X007089Y032174D01*
X006947Y032186D02*
X006947Y032124D01*
X006886Y032124D01*
X006886Y032186D01*
X006947Y032186D01*
X006886Y032309D02*
X006639Y032555D01*
X006886Y032555D01*
X006947Y032494D01*
X006947Y032370D01*
X006886Y032309D01*
X006639Y032309D01*
X006577Y032370D01*
X006577Y032494D01*
X006639Y032555D01*
X006700Y032677D02*
X006577Y032800D01*
X006947Y032800D01*
X007027Y032728D02*
X007089Y032790D01*
X007150Y032790D01*
X007212Y032728D01*
X007274Y032790D01*
X007336Y032790D01*
X007397Y032728D01*
X007397Y032604D01*
X007336Y032543D01*
X007212Y032666D02*
X007212Y032728D01*
X007027Y032728D02*
X007027Y032604D01*
X007089Y032543D01*
X006947Y032677D02*
X006947Y032924D01*
X006947Y033045D02*
X006947Y033292D01*
X006762Y033169D02*
X006762Y033045D01*
X006577Y033045D02*
X006947Y033045D01*
X006577Y033045D02*
X006577Y033292D01*
X006639Y032003D02*
X006886Y031756D01*
X006947Y031818D01*
X006947Y031941D01*
X006886Y032003D01*
X006639Y032003D01*
X006577Y031941D01*
X006577Y031818D01*
X006639Y031756D01*
X006886Y031756D01*
X004517Y030647D02*
X004517Y030400D01*
X004147Y030400D01*
X004147Y030647D01*
X004332Y030523D02*
X004332Y030400D01*
X004517Y030279D02*
X004517Y030032D01*
X004517Y030155D02*
X004147Y030155D01*
X004270Y030032D01*
X004209Y029910D02*
X004456Y029663D01*
X004517Y029725D01*
X004517Y029849D01*
X004456Y029910D01*
X004209Y029910D01*
X004147Y029849D01*
X004147Y029725D01*
X004209Y029663D01*
X004456Y029663D01*
X004456Y029541D02*
X004517Y029541D01*
X004517Y029479D01*
X004456Y029479D01*
X004456Y029541D01*
X004456Y029358D02*
X004517Y029296D01*
X004517Y029173D01*
X004456Y029111D01*
X004209Y029358D01*
X004456Y029358D01*
X004456Y029111D02*
X004209Y029111D01*
X004147Y029173D01*
X004147Y029296D01*
X004209Y029358D01*
X004897Y029085D02*
X004897Y028962D01*
X004959Y028900D01*
X005206Y028900D01*
X004959Y029147D01*
X005206Y029147D01*
X005267Y029085D01*
X005267Y028962D01*
X005206Y028900D01*
X005206Y028779D02*
X005267Y028717D01*
X005267Y028593D01*
X005206Y028532D01*
X005267Y028410D02*
X005144Y028287D01*
X005144Y028349D02*
X005144Y028163D01*
X005267Y028163D02*
X004897Y028163D01*
X004897Y028349D01*
X004959Y028410D01*
X005082Y028410D01*
X005144Y028349D01*
X004959Y028532D02*
X004897Y028593D01*
X004897Y028717D01*
X004959Y028779D01*
X005020Y028779D01*
X005082Y028717D01*
X005144Y028779D01*
X005206Y028779D01*
X005082Y028717D02*
X005082Y028655D01*
X004897Y029085D02*
X004959Y029147D01*
X016620Y041237D02*
X016497Y041361D01*
X016867Y041361D01*
X016947Y041437D02*
X016947Y041622D01*
X017009Y041684D01*
X017132Y041684D01*
X017194Y041622D01*
X017194Y041437D01*
X017317Y041437D02*
X016947Y041437D01*
X016867Y041484D02*
X016867Y041237D01*
X016806Y041606D02*
X016559Y041852D01*
X016806Y041852D01*
X016867Y041791D01*
X016867Y041667D01*
X016806Y041606D01*
X016559Y041606D01*
X016497Y041667D01*
X016497Y041791D01*
X016559Y041852D01*
X016559Y041974D02*
X016497Y042036D01*
X016497Y042159D01*
X016559Y042221D01*
X016806Y041974D01*
X016867Y042036D01*
X016867Y042159D01*
X016806Y042221D01*
X016559Y042221D01*
X016497Y042342D02*
X016867Y042342D01*
X016947Y042359D02*
X017009Y042421D01*
X017070Y042421D01*
X017132Y042359D01*
X017194Y042421D01*
X017256Y042421D01*
X017317Y042359D01*
X017317Y042236D01*
X017256Y042174D01*
X017132Y042052D02*
X017132Y041806D01*
X016947Y041991D01*
X017317Y041991D01*
X017317Y041684D02*
X017194Y041561D01*
X016806Y041974D02*
X016559Y041974D01*
X016744Y042342D02*
X016497Y042589D01*
X016682Y042404D02*
X016867Y042589D01*
X016947Y042359D02*
X016947Y042236D01*
X017009Y042174D01*
X017132Y042297D02*
X017132Y042359D01*
X018977Y043661D02*
X019347Y043661D01*
X019377Y043587D02*
X019377Y043772D01*
X019439Y043834D01*
X019562Y043834D01*
X019624Y043772D01*
X019624Y043587D01*
X019747Y043587D02*
X019377Y043587D01*
X019347Y043537D02*
X019347Y043784D01*
X019286Y043906D02*
X019039Y044152D01*
X019286Y044152D01*
X019347Y044091D01*
X019347Y043967D01*
X019286Y043906D01*
X019039Y043906D01*
X018977Y043967D01*
X018977Y044091D01*
X019039Y044152D01*
X018977Y044274D02*
X019347Y044274D01*
X019439Y044324D02*
X019500Y044324D01*
X019562Y044386D01*
X019562Y044509D01*
X019624Y044571D01*
X019686Y044571D01*
X019747Y044509D01*
X019747Y044386D01*
X019686Y044324D01*
X019624Y044324D01*
X019562Y044386D01*
X019562Y044509D02*
X019500Y044571D01*
X019439Y044571D01*
X019377Y044509D01*
X019377Y044386D01*
X019439Y044324D01*
X019347Y044521D02*
X019162Y044336D01*
X019224Y044274D02*
X018977Y044521D01*
X019377Y044079D02*
X019747Y044079D01*
X019747Y043956D02*
X019747Y044202D01*
X019500Y043956D02*
X019377Y044079D01*
X019624Y043711D02*
X019747Y043834D01*
X019100Y043537D02*
X018977Y043661D01*
X020497Y042589D02*
X020744Y042342D01*
X020682Y042404D02*
X020867Y042589D01*
X020867Y042342D02*
X020497Y042342D01*
X020559Y042221D02*
X020806Y041974D01*
X020867Y042036D01*
X020867Y042159D01*
X020806Y042221D01*
X020559Y042221D01*
X020497Y042159D01*
X020497Y042036D01*
X020559Y041974D01*
X020806Y041974D01*
X020806Y041852D02*
X020867Y041791D01*
X020867Y041667D01*
X020806Y041606D01*
X020559Y041852D01*
X020806Y041852D01*
X020947Y041841D02*
X021132Y041656D01*
X021132Y041902D01*
X021009Y042024D02*
X020947Y042086D01*
X020947Y042209D01*
X021009Y042271D01*
X021070Y042271D01*
X021317Y042024D01*
X021317Y042271D01*
X021317Y041841D02*
X020947Y041841D01*
X020806Y041606D02*
X020559Y041606D01*
X020497Y041667D01*
X020497Y041791D01*
X020559Y041852D01*
X020867Y041484D02*
X020867Y041237D01*
X020947Y041287D02*
X020947Y041472D01*
X021009Y041534D01*
X021132Y041534D01*
X021194Y041472D01*
X021194Y041287D01*
X021317Y041287D02*
X020947Y041287D01*
X020867Y041361D02*
X020497Y041361D01*
X020620Y041237D01*
X021194Y041411D02*
X021317Y041534D01*
X019329Y039202D02*
X019329Y038956D01*
X019083Y039202D01*
X019021Y039202D01*
X018959Y039141D01*
X018959Y039017D01*
X019021Y038956D01*
X019021Y038834D02*
X019144Y038834D01*
X019206Y038772D01*
X019206Y038587D01*
X019329Y038587D02*
X018959Y038587D01*
X018959Y038772D01*
X019021Y038834D01*
X018897Y038841D02*
X018897Y038717D01*
X018836Y038656D01*
X018589Y038902D01*
X018836Y038902D01*
X018897Y038841D01*
X018836Y039024D02*
X018589Y039271D01*
X018836Y039271D01*
X018897Y039209D01*
X018897Y039086D01*
X018836Y039024D01*
X018589Y039024D01*
X018527Y039086D01*
X018527Y039209D01*
X018589Y039271D01*
X018527Y039392D02*
X018897Y039392D01*
X018774Y039392D02*
X018527Y039639D01*
X018712Y039454D02*
X018897Y039639D01*
X018589Y038902D02*
X018527Y038841D01*
X018527Y038717D01*
X018589Y038656D01*
X018836Y038656D01*
X018897Y038534D02*
X018897Y038287D01*
X018897Y038411D02*
X018527Y038411D01*
X018650Y038287D01*
X019206Y038711D02*
X019329Y038834D01*
X021447Y038921D02*
X021694Y038674D01*
X021632Y038736D02*
X021817Y038921D01*
X021897Y038871D02*
X021959Y038747D01*
X022082Y038624D01*
X022082Y038809D01*
X022144Y038871D01*
X022206Y038871D01*
X022267Y038809D01*
X022267Y038686D01*
X022206Y038624D01*
X022082Y038624D01*
X022267Y038502D02*
X022267Y038256D01*
X022267Y038134D02*
X022144Y038011D01*
X022144Y038072D02*
X022144Y037887D01*
X022267Y037887D02*
X021897Y037887D01*
X021897Y038072D01*
X021959Y038134D01*
X022082Y038134D01*
X022144Y038072D01*
X022020Y038256D02*
X021897Y038379D01*
X022267Y038379D01*
X021817Y038367D02*
X021756Y038306D01*
X021509Y038552D01*
X021756Y038552D01*
X021817Y038491D01*
X021817Y038367D01*
X021756Y038306D02*
X021509Y038306D01*
X021447Y038367D01*
X021447Y038491D01*
X021509Y038552D01*
X021447Y038674D02*
X021817Y038674D01*
X021817Y038184D02*
X021817Y037937D01*
X021817Y038061D02*
X021447Y038061D01*
X021570Y037937D01*
X024497Y037887D02*
X024867Y037887D01*
X024867Y037764D02*
X024867Y038011D01*
X024947Y038032D02*
X024947Y038217D01*
X025009Y038279D01*
X025132Y038279D01*
X025194Y038217D01*
X025194Y038032D01*
X025317Y038032D02*
X024947Y038032D01*
X024806Y038132D02*
X024559Y038379D01*
X024806Y038379D01*
X024867Y038317D01*
X024867Y038194D01*
X024806Y038132D01*
X024559Y038132D01*
X024497Y038194D01*
X024497Y038317D01*
X024559Y038379D01*
X024559Y038501D02*
X024497Y038562D01*
X024497Y038686D01*
X024559Y038747D01*
X024806Y038501D01*
X024867Y038562D01*
X024867Y038686D01*
X024806Y038747D01*
X024559Y038747D01*
X024497Y038869D02*
X024867Y038869D01*
X024744Y038869D02*
X024497Y039116D01*
X024682Y038931D02*
X024867Y039116D01*
X024947Y039016D02*
X024947Y038769D01*
X025132Y038769D01*
X025070Y038892D01*
X025070Y038954D01*
X025132Y039016D01*
X025256Y039016D01*
X025317Y038954D01*
X025317Y038831D01*
X025256Y038769D01*
X025132Y038647D02*
X025132Y038401D01*
X024947Y038586D01*
X025317Y038586D01*
X025317Y038279D02*
X025194Y038156D01*
X024806Y038501D02*
X024559Y038501D01*
X024497Y037887D02*
X024620Y037764D01*
X026477Y038161D02*
X026847Y038161D01*
X026927Y038137D02*
X026927Y038322D01*
X026989Y038384D01*
X027112Y038384D01*
X027174Y038322D01*
X027174Y038137D01*
X027297Y038137D02*
X026927Y038137D01*
X026847Y038037D02*
X026847Y038284D01*
X026786Y038406D02*
X026539Y038652D01*
X026786Y038652D01*
X026847Y038591D01*
X026847Y038467D01*
X026786Y038406D01*
X026539Y038406D01*
X026477Y038467D01*
X026477Y038591D01*
X026539Y038652D01*
X026477Y038774D02*
X026847Y038774D01*
X026927Y038691D02*
X027112Y038506D01*
X027112Y038752D01*
X026989Y038874D02*
X026927Y038936D01*
X026927Y039059D01*
X026989Y039121D01*
X027236Y038874D01*
X027297Y038936D01*
X027297Y039059D01*
X027236Y039121D01*
X026989Y039121D01*
X026847Y039021D02*
X026662Y038836D01*
X026724Y038774D02*
X026477Y039021D01*
X026989Y038874D02*
X027236Y038874D01*
X027297Y038691D02*
X026927Y038691D01*
X027297Y038384D02*
X027174Y038261D01*
X026600Y038037D02*
X026477Y038161D01*
X027682Y039897D02*
X027929Y039897D01*
X027806Y039897D02*
X027806Y040268D01*
X027682Y040144D01*
X028051Y040206D02*
X028112Y040268D01*
X028236Y040268D01*
X028297Y040206D01*
X028051Y039959D01*
X028112Y039897D01*
X028236Y039897D01*
X028297Y039959D01*
X028297Y040206D01*
X028419Y040268D02*
X028419Y039897D01*
X028419Y040021D02*
X028666Y040268D01*
X028481Y040082D02*
X028666Y039897D01*
X028937Y039927D02*
X028937Y040298D01*
X029122Y040298D01*
X029184Y040236D01*
X029184Y040112D01*
X029122Y040051D01*
X028937Y040051D01*
X029061Y040051D02*
X029184Y039927D01*
X029306Y039927D02*
X029552Y039927D01*
X029674Y039927D02*
X029674Y039989D01*
X029921Y040236D01*
X029921Y040298D01*
X029674Y040298D01*
X029429Y040298D02*
X029429Y039927D01*
X029306Y040174D02*
X029429Y040298D01*
X029570Y040782D02*
X029447Y040906D01*
X029817Y040906D01*
X029897Y040832D02*
X029897Y041017D01*
X029959Y041079D01*
X030082Y041079D01*
X030144Y041017D01*
X030144Y040832D01*
X030267Y040832D02*
X029897Y040832D01*
X029817Y040782D02*
X029817Y041029D01*
X029756Y041151D02*
X029509Y041397D01*
X029756Y041397D01*
X029817Y041336D01*
X029817Y041212D01*
X029756Y041151D01*
X029509Y041151D01*
X029447Y041212D01*
X029447Y041336D01*
X029509Y041397D01*
X029447Y041519D02*
X029817Y041519D01*
X029694Y041519D02*
X029447Y041766D01*
X029632Y041581D02*
X029817Y041766D01*
X029897Y041754D02*
X029959Y041816D01*
X030020Y041816D01*
X030082Y041754D01*
X030082Y041631D01*
X030020Y041569D01*
X029959Y041569D01*
X029897Y041631D01*
X029897Y041754D01*
X030082Y041754D02*
X030144Y041816D01*
X030206Y041816D01*
X030267Y041754D01*
X030267Y041631D01*
X030206Y041569D01*
X030144Y041569D01*
X030082Y041631D01*
X030020Y041447D02*
X030082Y041386D01*
X030144Y041447D01*
X030206Y041447D01*
X030267Y041386D01*
X030267Y041262D01*
X030206Y041201D01*
X030267Y041079D02*
X030144Y040956D01*
X029959Y041201D02*
X029897Y041262D01*
X029897Y041386D01*
X029959Y041447D01*
X030020Y041447D01*
X030082Y041386D02*
X030082Y041324D01*
X030910Y042951D02*
X030787Y043074D01*
X031157Y043074D01*
X031157Y042951D02*
X031157Y043197D01*
X031157Y043319D02*
X030787Y043319D01*
X030972Y043381D02*
X031157Y043566D01*
X031034Y043319D02*
X030787Y043566D01*
X032087Y043597D02*
X032149Y043474D01*
X032272Y043351D01*
X032272Y043536D01*
X032334Y043597D01*
X032396Y043597D01*
X032457Y043536D01*
X032457Y043412D01*
X032396Y043351D01*
X032272Y043351D01*
X032272Y043229D02*
X032334Y043167D01*
X032334Y042982D01*
X032457Y042982D02*
X032087Y042982D01*
X032087Y043167D01*
X032149Y043229D01*
X032272Y043229D01*
X032334Y043106D02*
X032457Y043229D01*
X032457Y043719D02*
X032457Y043966D01*
X032457Y043842D02*
X032087Y043842D01*
X032210Y043719D01*
X034701Y044607D02*
X034948Y044607D01*
X035069Y044483D02*
X035069Y044422D01*
X035069Y044483D02*
X035316Y044730D01*
X035316Y044792D01*
X035069Y044792D01*
X035069Y044881D02*
X035316Y044881D01*
X035438Y044881D02*
X035685Y044881D01*
X035561Y044881D02*
X035561Y045252D01*
X035438Y045128D01*
X035316Y045252D02*
X035069Y045252D01*
X035069Y044881D01*
X034948Y044943D02*
X034886Y044881D01*
X034763Y044881D01*
X034701Y044943D01*
X034701Y045190D01*
X034763Y045252D01*
X034886Y045252D01*
X034948Y045190D01*
X035069Y045067D02*
X035193Y045067D01*
X034886Y044792D02*
X034886Y044422D01*
X034701Y044607D02*
X034886Y044792D01*
X035438Y044668D02*
X035438Y044483D01*
X035499Y044422D01*
X035685Y044422D01*
X035685Y044668D01*
X035806Y044607D02*
X035930Y044607D01*
X035806Y044792D02*
X036053Y044792D01*
X035806Y044792D02*
X035806Y044422D01*
X028247Y044378D02*
X028247Y044255D01*
X028186Y044193D01*
X028247Y044072D02*
X028124Y043948D01*
X028124Y044010D02*
X028124Y043825D01*
X028247Y043825D02*
X027877Y043825D01*
X027877Y044010D01*
X027939Y044072D01*
X028062Y044072D01*
X028124Y044010D01*
X027939Y044193D02*
X027877Y044255D01*
X027877Y044378D01*
X027939Y044440D01*
X028000Y044440D01*
X028062Y044378D01*
X028124Y044440D01*
X028186Y044440D01*
X028247Y044378D01*
X028062Y044378D02*
X028062Y044317D01*
X028000Y044562D02*
X028062Y044623D01*
X028062Y044808D01*
X027939Y044808D02*
X027877Y044747D01*
X027877Y044623D01*
X027939Y044562D01*
X028000Y044562D01*
X028186Y044562D02*
X028247Y044623D01*
X028247Y044747D01*
X028186Y044808D01*
X027939Y044808D01*
X027617Y044721D02*
X027432Y044536D01*
X027494Y044474D02*
X027247Y044721D01*
X027247Y044474D02*
X027617Y044474D01*
X027556Y044352D02*
X027617Y044291D01*
X027617Y044167D01*
X027556Y044106D01*
X027309Y044352D01*
X027556Y044352D01*
X027556Y044106D02*
X027309Y044106D01*
X027247Y044167D01*
X027247Y044291D01*
X027309Y044352D01*
X027617Y043984D02*
X027617Y043737D01*
X027617Y043861D02*
X027247Y043861D01*
X027370Y043737D01*
X026467Y042571D02*
X026467Y042324D01*
X026467Y042447D02*
X026097Y042447D01*
X026220Y042324D01*
X026282Y042202D02*
X026282Y041956D01*
X026097Y042141D01*
X026467Y042141D01*
X026467Y041834D02*
X026344Y041711D01*
X026344Y041772D02*
X026344Y041587D01*
X026467Y041587D02*
X026097Y041587D01*
X026097Y041772D01*
X026159Y041834D01*
X026282Y041834D01*
X026344Y041772D01*
X026017Y041767D02*
X025956Y041706D01*
X025709Y041952D01*
X025956Y041952D01*
X026017Y041891D01*
X026017Y041767D01*
X025956Y041706D02*
X025709Y041706D01*
X025647Y041767D01*
X025647Y041891D01*
X025709Y041952D01*
X025709Y042074D02*
X025647Y042136D01*
X025647Y042259D01*
X025709Y042321D01*
X025956Y042074D01*
X026017Y042136D01*
X026017Y042259D01*
X025956Y042321D01*
X025709Y042321D01*
X025647Y042442D02*
X026017Y042442D01*
X025894Y042442D02*
X025647Y042689D01*
X025832Y042504D02*
X026017Y042689D01*
X025956Y042074D02*
X025709Y042074D01*
X026017Y041584D02*
X026017Y041337D01*
X026017Y041461D02*
X025647Y041461D01*
X025770Y041337D01*
X024247Y041637D02*
X023877Y041637D01*
X023877Y041822D01*
X023939Y041884D01*
X024062Y041884D01*
X024124Y041822D01*
X024124Y041637D01*
X024124Y041761D02*
X024247Y041884D01*
X024247Y042006D02*
X024247Y042252D01*
X024247Y042129D02*
X023877Y042129D01*
X024000Y042006D01*
X023797Y041967D02*
X023736Y041906D01*
X023489Y042152D01*
X023736Y042152D01*
X023797Y042091D01*
X023797Y041967D01*
X023736Y041906D02*
X023489Y041906D01*
X023427Y041967D01*
X023427Y042091D01*
X023489Y042152D01*
X023427Y042274D02*
X023797Y042274D01*
X023674Y042274D02*
X023427Y042521D01*
X023612Y042336D02*
X023797Y042521D01*
X023877Y042559D02*
X023877Y042436D01*
X023939Y042374D01*
X024000Y042374D01*
X024062Y042436D01*
X024062Y042621D01*
X023939Y042621D02*
X023877Y042559D01*
X023939Y042621D02*
X024186Y042621D01*
X024247Y042559D01*
X024247Y042436D01*
X024186Y042374D01*
X023797Y041784D02*
X023797Y041537D01*
X023797Y041661D02*
X023427Y041661D01*
X023550Y041537D01*
X028051Y040206D02*
X028051Y039959D01*
X026514Y046453D02*
X026514Y046823D01*
X026699Y046823D01*
X026761Y046761D01*
X026761Y046638D01*
X026699Y046576D01*
X026514Y046576D01*
X026392Y046638D02*
X026331Y046576D01*
X026207Y046576D01*
X026146Y046638D01*
X026024Y046638D02*
X025962Y046576D01*
X025839Y046576D01*
X025777Y046638D01*
X025901Y046761D02*
X025962Y046761D01*
X026024Y046700D01*
X026024Y046638D01*
X025962Y046761D02*
X026024Y046823D01*
X026024Y046885D01*
X025962Y046946D01*
X025839Y046946D01*
X025777Y046885D01*
X026146Y046885D02*
X026207Y046946D01*
X026331Y046946D01*
X026392Y046885D01*
X026392Y046823D01*
X026331Y046761D01*
X026392Y046700D01*
X026392Y046638D01*
X026331Y046761D02*
X026269Y046761D01*
X026882Y046761D02*
X027006Y046761D01*
X026882Y046946D02*
X027129Y046946D01*
X026882Y046946D02*
X026882Y046576D01*
X025549Y048126D02*
X025426Y048126D01*
X025364Y048188D01*
X025364Y048250D01*
X025426Y048311D01*
X025549Y048311D01*
X025611Y048250D01*
X025611Y048188D01*
X025549Y048126D01*
X025549Y048311D02*
X025611Y048373D01*
X025611Y048435D01*
X025549Y048496D01*
X025426Y048496D01*
X025364Y048435D01*
X025364Y048373D01*
X025426Y048311D01*
X025242Y048126D02*
X024996Y048126D01*
X025119Y048126D02*
X025119Y048496D01*
X024996Y048373D01*
X024874Y048435D02*
X024812Y048496D01*
X024689Y048496D01*
X024627Y048435D01*
X024627Y048188D01*
X024689Y048126D01*
X024812Y048126D01*
X024874Y048188D01*
X022311Y048425D02*
X022064Y048178D01*
X022064Y048116D01*
X021942Y048116D02*
X021696Y048116D01*
X021819Y048116D02*
X021819Y048486D01*
X021696Y048363D01*
X021574Y048425D02*
X021512Y048486D01*
X021389Y048486D01*
X021327Y048425D01*
X021327Y048178D01*
X021389Y048116D01*
X021512Y048116D01*
X021574Y048178D01*
X022064Y048486D02*
X022311Y048486D01*
X022311Y048425D01*
X021779Y046936D02*
X021532Y046936D01*
X021532Y046566D01*
X021411Y046628D02*
X021349Y046566D01*
X021164Y046566D01*
X021164Y046443D02*
X021164Y046813D01*
X021349Y046813D01*
X021411Y046751D01*
X021411Y046628D01*
X021532Y046751D02*
X021656Y046751D01*
X021042Y046690D02*
X021042Y046628D01*
X020981Y046566D01*
X020857Y046566D01*
X020796Y046628D01*
X020674Y046628D02*
X020612Y046566D01*
X020489Y046566D01*
X020427Y046628D01*
X020551Y046751D02*
X020612Y046751D01*
X020674Y046690D01*
X020674Y046628D01*
X020612Y046751D02*
X020674Y046813D01*
X020674Y046875D01*
X020612Y046936D01*
X020489Y046936D01*
X020427Y046875D01*
X020796Y046875D02*
X020857Y046936D01*
X020981Y046936D01*
X021042Y046875D01*
X021042Y046813D01*
X020981Y046751D01*
X021042Y046690D01*
X020981Y046751D02*
X020919Y046751D01*
D17*
X021812Y047232D02*
X021812Y047770D01*
X021543Y047501D02*
X022081Y047501D01*
X024543Y047511D02*
X025081Y047511D01*
X024812Y047242D02*
X024812Y047780D01*
X020270Y052154D02*
X019470Y052154D01*
X019870Y051754D02*
X019870Y052554D01*
X019882Y041791D02*
X019882Y041253D01*
X019613Y041522D02*
X020151Y041522D01*
X019151Y041522D02*
X018613Y041522D01*
X018882Y041253D02*
X018882Y041791D01*
X018151Y041522D02*
X017613Y041522D01*
X017882Y041253D02*
X017882Y041791D01*
X017882Y038991D02*
X017882Y038453D01*
X017613Y038722D02*
X018151Y038722D01*
X022613Y038722D02*
X023151Y038722D01*
X022882Y038453D02*
X022882Y038991D01*
X023613Y038722D02*
X024151Y038722D01*
X023882Y038453D02*
X023882Y038991D01*
X024882Y041253D02*
X024882Y041791D01*
X024613Y041522D02*
X025151Y041522D01*
X026613Y041522D02*
X027151Y041522D01*
X026882Y041253D02*
X026882Y041791D01*
X027613Y041522D02*
X028151Y041522D01*
X027882Y041253D02*
X027882Y041791D01*
X028613Y041522D02*
X029151Y041522D01*
X028882Y041253D02*
X028882Y041791D01*
X031303Y043572D02*
X031841Y043572D01*
X031572Y043303D02*
X031572Y043841D01*
X032122Y042022D02*
X032122Y041222D01*
X031722Y041622D02*
X032522Y041622D01*
X032122Y039891D02*
X032122Y039353D01*
X031853Y039622D02*
X032391Y039622D01*
X030151Y038722D02*
X029613Y038722D01*
X029882Y038453D02*
X029882Y038991D01*
X029151Y038722D02*
X028613Y038722D01*
X028882Y038453D02*
X028882Y038991D01*
X028151Y038722D02*
X027613Y038722D01*
X027882Y038453D02*
X027882Y038991D01*
X030853Y036622D02*
X031391Y036622D01*
X031122Y036353D02*
X031122Y036891D01*
X032622Y035522D02*
X032622Y034722D01*
X032222Y035122D02*
X033022Y035122D01*
X031391Y034122D02*
X030853Y034122D01*
X031122Y033853D02*
X031122Y034391D01*
X034853Y030271D02*
X035391Y030271D01*
X035122Y030002D02*
X035122Y030540D01*
X036073Y030271D02*
X036611Y030271D01*
X036342Y030002D02*
X036342Y030540D01*
X035703Y031897D02*
X035703Y032488D01*
X035408Y032192D02*
X035999Y032192D01*
X041155Y034142D02*
X041692Y034142D01*
X041423Y033873D02*
X041423Y034411D01*
X043382Y032203D02*
X043382Y031403D01*
X042982Y031803D02*
X043782Y031803D01*
X041423Y027911D02*
X041423Y027373D01*
X041155Y027642D02*
X041692Y027642D01*
X043382Y025453D02*
X043382Y024653D01*
X042982Y025053D02*
X043782Y025053D01*
X041423Y020411D02*
X041423Y019873D01*
X041155Y020142D02*
X041692Y020142D01*
X043382Y017953D02*
X043382Y017153D01*
X042982Y017553D02*
X043782Y017553D01*
X043222Y014491D02*
X043222Y013953D01*
X042953Y014222D02*
X043491Y014222D01*
X043199Y012519D02*
X043199Y011726D01*
X042766Y011748D02*
X042756Y011748D01*
X042802Y012122D02*
X043595Y012122D01*
X045014Y011566D02*
X045551Y011566D01*
X045283Y011297D02*
X045283Y011834D01*
X041117Y011014D02*
X040579Y011014D01*
X040848Y010746D02*
X040848Y011283D01*
X041162Y013549D02*
X041162Y014086D01*
X040894Y013817D02*
X041431Y013817D01*
X036491Y014273D02*
X035953Y014273D01*
X036222Y014005D02*
X036222Y014542D01*
X035391Y014273D02*
X034853Y014273D01*
X035122Y014005D02*
X035122Y014542D01*
X035722Y015988D02*
X035722Y016579D01*
X035427Y016283D02*
X036018Y016283D01*
X033022Y015622D02*
X032222Y015622D01*
X032622Y015222D02*
X032622Y016022D01*
X031391Y014622D02*
X030853Y014622D01*
X031122Y014353D02*
X031122Y014891D01*
X030272Y016153D02*
X030272Y016691D01*
X030003Y016422D02*
X030541Y016422D01*
X025941Y016523D02*
X025403Y016523D01*
X025672Y016255D02*
X025672Y016792D01*
X025672Y015490D02*
X025672Y014952D01*
X025403Y015221D02*
X025941Y015221D01*
X024572Y013081D02*
X024572Y012543D01*
X024303Y012812D02*
X024841Y012812D01*
X022872Y015603D02*
X022872Y016141D01*
X022603Y015872D02*
X023141Y015872D01*
X019472Y015272D02*
X018672Y015272D01*
X019072Y014872D02*
X019072Y015672D01*
X016041Y013372D02*
X015503Y013372D01*
X015772Y013103D02*
X015772Y013641D01*
X013391Y013922D02*
X012853Y013922D01*
X013122Y013653D02*
X013122Y014191D01*
X014572Y015803D02*
X014572Y016341D01*
X014303Y016072D02*
X014841Y016072D01*
X019772Y011722D02*
X020572Y011722D01*
X020172Y011322D02*
X020172Y012122D01*
X019870Y007593D02*
X019870Y006793D01*
X019470Y007193D02*
X020270Y007193D01*
X007593Y018295D02*
X006793Y018295D01*
X007193Y017895D02*
X007193Y018695D01*
X015153Y026572D02*
X015691Y026572D01*
X015422Y026303D02*
X015422Y026841D01*
X015922Y022772D02*
X015922Y021972D01*
X015522Y022372D02*
X016322Y022372D01*
X008632Y030157D02*
X008632Y030950D01*
X008236Y030553D02*
X009029Y030553D01*
X007301Y030503D02*
X006763Y030503D01*
X007032Y030235D02*
X007032Y030772D01*
X005551Y030503D02*
X005013Y030503D01*
X005282Y030235D02*
X005282Y030772D01*
X007193Y039155D02*
X007193Y039955D01*
X006793Y039555D02*
X007593Y039555D01*
X030603Y026122D02*
X031141Y026122D01*
X030872Y025853D02*
X030872Y026391D01*
X032222Y025122D02*
X033022Y025122D01*
X032622Y024722D02*
X032622Y025522D01*
X032122Y023391D02*
X032122Y022853D01*
X031853Y023122D02*
X032391Y023122D01*
X034853Y022263D02*
X035391Y022263D01*
X035122Y021995D02*
X035122Y022532D01*
X035953Y022263D02*
X036491Y022263D01*
X036222Y021995D02*
X036222Y022532D01*
X035712Y023857D02*
X035712Y024448D01*
X035417Y024152D02*
X036008Y024152D01*
X036422Y038005D02*
X036422Y038542D01*
X036153Y038273D02*
X036691Y038273D01*
X035591Y038273D02*
X035053Y038273D01*
X035322Y038005D02*
X035322Y038542D01*
X035703Y039875D02*
X035703Y040467D01*
X035408Y040171D02*
X035999Y040171D01*
X034816Y043638D02*
X034816Y044229D01*
X034520Y043933D02*
X035112Y043933D01*
X041455Y041632D02*
X041992Y041632D01*
X041723Y041363D02*
X041723Y041901D01*
X043382Y044203D02*
X043382Y045003D01*
X042982Y044603D02*
X043782Y044603D01*
X041623Y046903D02*
X041623Y047441D01*
X041355Y047172D02*
X041892Y047172D01*
X039555Y051754D02*
X039555Y052554D01*
X039155Y052154D02*
X039955Y052154D01*
X052154Y039955D02*
X052154Y039155D01*
X051754Y039555D02*
X052554Y039555D01*
X043782Y038553D02*
X042982Y038553D01*
X043382Y038153D02*
X043382Y038953D01*
X052154Y020270D02*
X052154Y019470D01*
X051754Y019870D02*
X052554Y019870D01*
X039955Y007193D02*
X039155Y007193D01*
X039555Y006793D02*
X039555Y007593D01*
D18*
X035805Y008243D02*
X035805Y004193D01*
X033455Y004193D01*
X033455Y008243D01*
X033655Y008443D01*
X035605Y008443D01*
X035805Y008243D01*
X033975Y007193D02*
X033977Y007243D01*
X033983Y007293D01*
X033993Y007343D01*
X034006Y007391D01*
X034023Y007439D01*
X034044Y007485D01*
X034068Y007529D01*
X034096Y007571D01*
X034127Y007611D01*
X034161Y007648D01*
X034198Y007683D01*
X034237Y007714D01*
X034278Y007743D01*
X034322Y007768D01*
X034368Y007790D01*
X034415Y007808D01*
X034463Y007822D01*
X034512Y007833D01*
X034562Y007840D01*
X034612Y007843D01*
X034663Y007842D01*
X034713Y007837D01*
X034763Y007828D01*
X034811Y007816D01*
X034859Y007799D01*
X034905Y007779D01*
X034950Y007756D01*
X034993Y007729D01*
X035033Y007699D01*
X035071Y007666D01*
X035106Y007630D01*
X035139Y007591D01*
X035168Y007550D01*
X035194Y007507D01*
X035217Y007462D01*
X035236Y007415D01*
X035251Y007367D01*
X035263Y007318D01*
X035271Y007268D01*
X035275Y007218D01*
X035275Y007168D01*
X035271Y007118D01*
X035263Y007068D01*
X035251Y007019D01*
X035236Y006971D01*
X035217Y006924D01*
X035194Y006879D01*
X035168Y006836D01*
X035139Y006795D01*
X035106Y006756D01*
X035071Y006720D01*
X035033Y006687D01*
X034993Y006657D01*
X034950Y006630D01*
X034905Y006607D01*
X034859Y006587D01*
X034811Y006570D01*
X034763Y006558D01*
X034713Y006549D01*
X034663Y006544D01*
X034612Y006543D01*
X034562Y006546D01*
X034512Y006553D01*
X034463Y006564D01*
X034415Y006578D01*
X034368Y006596D01*
X034322Y006618D01*
X034278Y006643D01*
X034237Y006672D01*
X034198Y006703D01*
X034161Y006738D01*
X034127Y006775D01*
X034096Y006815D01*
X034068Y006857D01*
X034044Y006901D01*
X034023Y006947D01*
X034006Y006995D01*
X033993Y007043D01*
X033983Y007093D01*
X033977Y007143D01*
X033975Y007193D01*
X033455Y004193D02*
X033455Y002793D01*
X035455Y002793D01*
X035455Y002993D01*
X035505Y002993D01*
X035505Y003943D01*
X035507Y003973D01*
X035512Y004003D01*
X035521Y004032D01*
X035534Y004059D01*
X035549Y004085D01*
X035568Y004109D01*
X035589Y004130D01*
X035613Y004149D01*
X035639Y004164D01*
X035666Y004177D01*
X035695Y004186D01*
X035725Y004191D01*
X035755Y004193D01*
X035805Y004193D02*
X035905Y004193D01*
X035905Y004493D01*
X043205Y004493D01*
X043205Y004193D01*
X035905Y004193D01*
X035455Y002793D02*
X043655Y002793D01*
X043655Y002993D01*
X043605Y002993D01*
X043605Y003943D01*
X043603Y003973D01*
X043598Y004003D01*
X043589Y004032D01*
X043576Y004059D01*
X043561Y004085D01*
X043542Y004109D01*
X043521Y004130D01*
X043497Y004149D01*
X043471Y004164D01*
X043444Y004177D01*
X043415Y004186D01*
X043385Y004191D01*
X043355Y004193D01*
X043305Y004193D02*
X043305Y008243D01*
X043505Y008443D01*
X045405Y008443D01*
X045655Y008193D01*
X045655Y004193D01*
X043305Y004193D01*
X043205Y004193D01*
X043655Y002793D02*
X045655Y002793D01*
X045655Y002593D01*
X033455Y002593D01*
X033455Y002793D01*
X036105Y002593D02*
X036135Y002591D01*
X036165Y002586D01*
X036194Y002577D01*
X036221Y002564D01*
X036247Y002549D01*
X036271Y002530D01*
X036292Y002509D01*
X036311Y002485D01*
X036326Y002459D01*
X036339Y002432D01*
X036348Y002403D01*
X036353Y002373D01*
X036355Y002343D01*
X036355Y000343D01*
X036357Y000317D01*
X036362Y000291D01*
X036370Y000266D01*
X036382Y000243D01*
X036396Y000221D01*
X036414Y000202D01*
X036433Y000184D01*
X036455Y000170D01*
X036478Y000158D01*
X036503Y000150D01*
X036529Y000145D01*
X036555Y000143D01*
X042555Y000143D01*
X042581Y000145D01*
X042607Y000150D01*
X042632Y000158D01*
X042655Y000170D01*
X042677Y000184D01*
X042696Y000202D01*
X042714Y000221D01*
X042728Y000243D01*
X042740Y000266D01*
X042748Y000291D01*
X042753Y000317D01*
X042755Y000343D01*
X042755Y002343D01*
X042757Y002373D01*
X042762Y002403D01*
X042771Y002432D01*
X042784Y002459D01*
X042799Y002485D01*
X042818Y002509D01*
X042839Y002530D01*
X042863Y002549D01*
X042889Y002564D01*
X042916Y002577D01*
X042945Y002586D01*
X042975Y002591D01*
X043005Y002593D01*
X045655Y002793D02*
X045655Y004193D01*
X043835Y007193D02*
X043837Y007243D01*
X043843Y007293D01*
X043853Y007343D01*
X043866Y007391D01*
X043883Y007439D01*
X043904Y007485D01*
X043928Y007529D01*
X043956Y007571D01*
X043987Y007611D01*
X044021Y007648D01*
X044058Y007683D01*
X044097Y007714D01*
X044138Y007743D01*
X044182Y007768D01*
X044228Y007790D01*
X044275Y007808D01*
X044323Y007822D01*
X044372Y007833D01*
X044422Y007840D01*
X044472Y007843D01*
X044523Y007842D01*
X044573Y007837D01*
X044623Y007828D01*
X044671Y007816D01*
X044719Y007799D01*
X044765Y007779D01*
X044810Y007756D01*
X044853Y007729D01*
X044893Y007699D01*
X044931Y007666D01*
X044966Y007630D01*
X044999Y007591D01*
X045028Y007550D01*
X045054Y007507D01*
X045077Y007462D01*
X045096Y007415D01*
X045111Y007367D01*
X045123Y007318D01*
X045131Y007268D01*
X045135Y007218D01*
X045135Y007168D01*
X045131Y007118D01*
X045123Y007068D01*
X045111Y007019D01*
X045096Y006971D01*
X045077Y006924D01*
X045054Y006879D01*
X045028Y006836D01*
X044999Y006795D01*
X044966Y006756D01*
X044931Y006720D01*
X044893Y006687D01*
X044853Y006657D01*
X044810Y006630D01*
X044765Y006607D01*
X044719Y006587D01*
X044671Y006570D01*
X044623Y006558D01*
X044573Y006549D01*
X044523Y006544D01*
X044472Y006543D01*
X044422Y006546D01*
X044372Y006553D01*
X044323Y006564D01*
X044275Y006578D01*
X044228Y006596D01*
X044182Y006618D01*
X044138Y006643D01*
X044097Y006672D01*
X044058Y006703D01*
X044021Y006738D01*
X043987Y006775D01*
X043956Y006815D01*
X043928Y006857D01*
X043904Y006901D01*
X043883Y006947D01*
X043866Y006995D01*
X043853Y007043D01*
X043843Y007093D01*
X043837Y007143D01*
X043835Y007193D01*
X050904Y012370D02*
X050904Y014320D01*
X051104Y014520D01*
X055154Y014520D01*
X055154Y012170D01*
X051104Y012170D01*
X050904Y012370D01*
X051504Y013310D02*
X051506Y013360D01*
X051512Y013410D01*
X051522Y013460D01*
X051535Y013508D01*
X051552Y013556D01*
X051573Y013602D01*
X051597Y013646D01*
X051625Y013688D01*
X051656Y013728D01*
X051690Y013765D01*
X051727Y013800D01*
X051766Y013831D01*
X051807Y013860D01*
X051851Y013885D01*
X051897Y013907D01*
X051944Y013925D01*
X051992Y013939D01*
X052041Y013950D01*
X052091Y013957D01*
X052141Y013960D01*
X052192Y013959D01*
X052242Y013954D01*
X052292Y013945D01*
X052340Y013933D01*
X052388Y013916D01*
X052434Y013896D01*
X052479Y013873D01*
X052522Y013846D01*
X052562Y013816D01*
X052600Y013783D01*
X052635Y013747D01*
X052668Y013708D01*
X052697Y013667D01*
X052723Y013624D01*
X052746Y013579D01*
X052765Y013532D01*
X052780Y013484D01*
X052792Y013435D01*
X052800Y013385D01*
X052804Y013335D01*
X052804Y013285D01*
X052800Y013235D01*
X052792Y013185D01*
X052780Y013136D01*
X052765Y013088D01*
X052746Y013041D01*
X052723Y012996D01*
X052697Y012953D01*
X052668Y012912D01*
X052635Y012873D01*
X052600Y012837D01*
X052562Y012804D01*
X052522Y012774D01*
X052479Y012747D01*
X052434Y012724D01*
X052388Y012704D01*
X052340Y012687D01*
X052292Y012675D01*
X052242Y012666D01*
X052192Y012661D01*
X052141Y012660D01*
X052091Y012663D01*
X052041Y012670D01*
X051992Y012681D01*
X051944Y012695D01*
X051897Y012713D01*
X051851Y012735D01*
X051807Y012760D01*
X051766Y012789D01*
X051727Y012820D01*
X051690Y012855D01*
X051656Y012892D01*
X051625Y012932D01*
X051597Y012974D01*
X051573Y013018D01*
X051552Y013064D01*
X051535Y013112D01*
X051522Y013160D01*
X051512Y013210D01*
X051506Y013260D01*
X051504Y013310D01*
X054854Y014620D02*
X055154Y014620D01*
X055154Y014520D01*
X055154Y014620D02*
X055154Y025170D01*
X054854Y025170D01*
X054854Y014620D01*
X055154Y014470D02*
X055156Y014440D01*
X055161Y014410D01*
X055170Y014381D01*
X055183Y014354D01*
X055198Y014328D01*
X055217Y014304D01*
X055238Y014283D01*
X055262Y014264D01*
X055288Y014249D01*
X055315Y014236D01*
X055344Y014227D01*
X055374Y014222D01*
X055404Y014220D01*
X056354Y014220D01*
X056354Y014170D01*
X056554Y014170D01*
X056554Y012170D01*
X055154Y012170D01*
X056554Y012170D02*
X056754Y012170D01*
X056754Y027620D01*
X056554Y027620D01*
X056554Y025620D01*
X056554Y014170D01*
X056754Y014820D02*
X056756Y014850D01*
X056761Y014880D01*
X056770Y014909D01*
X056783Y014936D01*
X056798Y014962D01*
X056817Y014986D01*
X056838Y015007D01*
X056862Y015026D01*
X056888Y015041D01*
X056915Y015054D01*
X056944Y015063D01*
X056974Y015068D01*
X057004Y015070D01*
X059004Y015070D01*
X059030Y015072D01*
X059056Y015077D01*
X059081Y015085D01*
X059104Y015097D01*
X059126Y015111D01*
X059145Y015129D01*
X059163Y015148D01*
X059177Y015170D01*
X059189Y015193D01*
X059197Y015218D01*
X059202Y015244D01*
X059204Y015270D01*
X059204Y024520D01*
X059202Y024546D01*
X059197Y024572D01*
X059189Y024597D01*
X059177Y024620D01*
X059163Y024642D01*
X059145Y024661D01*
X059126Y024679D01*
X059104Y024693D01*
X059081Y024705D01*
X059056Y024713D01*
X059030Y024718D01*
X059004Y024720D01*
X057004Y024720D01*
X056974Y024722D01*
X056944Y024727D01*
X056915Y024736D01*
X056888Y024749D01*
X056862Y024764D01*
X056838Y024783D01*
X056817Y024804D01*
X056798Y024828D01*
X056783Y024854D01*
X056770Y024881D01*
X056761Y024910D01*
X056756Y024940D01*
X056754Y024970D01*
X056554Y025620D02*
X056354Y025620D01*
X056354Y025570D01*
X055404Y025570D01*
X055374Y025568D01*
X055344Y025563D01*
X055315Y025554D01*
X055288Y025541D01*
X055262Y025526D01*
X055238Y025507D01*
X055217Y025486D01*
X055198Y025462D01*
X055183Y025436D01*
X055170Y025409D01*
X055161Y025380D01*
X055156Y025350D01*
X055154Y025320D01*
X055154Y025270D02*
X051104Y025270D01*
X050904Y025470D01*
X050904Y027370D01*
X051154Y027620D01*
X055154Y027620D01*
X055154Y025270D01*
X055154Y025170D01*
X055154Y027620D02*
X056554Y027620D01*
X051504Y026430D02*
X051506Y026480D01*
X051512Y026530D01*
X051522Y026580D01*
X051535Y026628D01*
X051552Y026676D01*
X051573Y026722D01*
X051597Y026766D01*
X051625Y026808D01*
X051656Y026848D01*
X051690Y026885D01*
X051727Y026920D01*
X051766Y026951D01*
X051807Y026980D01*
X051851Y027005D01*
X051897Y027027D01*
X051944Y027045D01*
X051992Y027059D01*
X052041Y027070D01*
X052091Y027077D01*
X052141Y027080D01*
X052192Y027079D01*
X052242Y027074D01*
X052292Y027065D01*
X052340Y027053D01*
X052388Y027036D01*
X052434Y027016D01*
X052479Y026993D01*
X052522Y026966D01*
X052562Y026936D01*
X052600Y026903D01*
X052635Y026867D01*
X052668Y026828D01*
X052697Y026787D01*
X052723Y026744D01*
X052746Y026699D01*
X052765Y026652D01*
X052780Y026604D01*
X052792Y026555D01*
X052800Y026505D01*
X052804Y026455D01*
X052804Y026405D01*
X052800Y026355D01*
X052792Y026305D01*
X052780Y026256D01*
X052765Y026208D01*
X052746Y026161D01*
X052723Y026116D01*
X052697Y026073D01*
X052668Y026032D01*
X052635Y025993D01*
X052600Y025957D01*
X052562Y025924D01*
X052522Y025894D01*
X052479Y025867D01*
X052434Y025844D01*
X052388Y025824D01*
X052340Y025807D01*
X052292Y025795D01*
X052242Y025786D01*
X052192Y025781D01*
X052141Y025780D01*
X052091Y025783D01*
X052041Y025790D01*
X051992Y025801D01*
X051944Y025815D01*
X051897Y025833D01*
X051851Y025855D01*
X051807Y025880D01*
X051766Y025909D01*
X051727Y025940D01*
X051690Y025975D01*
X051656Y026012D01*
X051625Y026052D01*
X051597Y026094D01*
X051573Y026138D01*
X051552Y026184D01*
X051535Y026232D01*
X051522Y026280D01*
X051512Y026330D01*
X051506Y026380D01*
X051504Y026430D01*
X051104Y033455D02*
X050904Y033655D01*
X050904Y035605D01*
X051104Y035805D01*
X055154Y035805D01*
X055154Y033455D01*
X051104Y033455D01*
X051504Y034625D02*
X051506Y034675D01*
X051512Y034725D01*
X051522Y034775D01*
X051535Y034823D01*
X051552Y034871D01*
X051573Y034917D01*
X051597Y034961D01*
X051625Y035003D01*
X051656Y035043D01*
X051690Y035080D01*
X051727Y035115D01*
X051766Y035146D01*
X051807Y035175D01*
X051851Y035200D01*
X051897Y035222D01*
X051944Y035240D01*
X051992Y035254D01*
X052041Y035265D01*
X052091Y035272D01*
X052141Y035275D01*
X052192Y035274D01*
X052242Y035269D01*
X052292Y035260D01*
X052340Y035248D01*
X052388Y035231D01*
X052434Y035211D01*
X052479Y035188D01*
X052522Y035161D01*
X052562Y035131D01*
X052600Y035098D01*
X052635Y035062D01*
X052668Y035023D01*
X052697Y034982D01*
X052723Y034939D01*
X052746Y034894D01*
X052765Y034847D01*
X052780Y034799D01*
X052792Y034750D01*
X052800Y034700D01*
X052804Y034650D01*
X052804Y034600D01*
X052800Y034550D01*
X052792Y034500D01*
X052780Y034451D01*
X052765Y034403D01*
X052746Y034356D01*
X052723Y034311D01*
X052697Y034268D01*
X052668Y034227D01*
X052635Y034188D01*
X052600Y034152D01*
X052562Y034119D01*
X052522Y034089D01*
X052479Y034062D01*
X052434Y034039D01*
X052388Y034019D01*
X052340Y034002D01*
X052292Y033990D01*
X052242Y033981D01*
X052192Y033976D01*
X052141Y033975D01*
X052091Y033978D01*
X052041Y033985D01*
X051992Y033996D01*
X051944Y034010D01*
X051897Y034028D01*
X051851Y034050D01*
X051807Y034075D01*
X051766Y034104D01*
X051727Y034135D01*
X051690Y034170D01*
X051656Y034207D01*
X051625Y034247D01*
X051597Y034289D01*
X051573Y034333D01*
X051552Y034379D01*
X051535Y034427D01*
X051522Y034475D01*
X051512Y034525D01*
X051506Y034575D01*
X051504Y034625D01*
X054854Y035905D02*
X055154Y035905D01*
X055154Y035805D01*
X055154Y035905D02*
X055154Y043205D01*
X054854Y043205D01*
X054854Y035905D01*
X055154Y035755D02*
X055156Y035725D01*
X055161Y035695D01*
X055170Y035666D01*
X055183Y035639D01*
X055198Y035613D01*
X055217Y035589D01*
X055238Y035568D01*
X055262Y035549D01*
X055288Y035534D01*
X055315Y035521D01*
X055344Y035512D01*
X055374Y035507D01*
X055404Y035505D01*
X056354Y035505D01*
X056354Y035455D01*
X056554Y035455D01*
X056554Y033455D01*
X055154Y033455D01*
X056554Y033455D02*
X056754Y033455D01*
X056754Y045655D01*
X056554Y045655D01*
X056554Y043655D01*
X056554Y035455D01*
X056754Y036105D02*
X056756Y036135D01*
X056761Y036165D01*
X056770Y036194D01*
X056783Y036221D01*
X056798Y036247D01*
X056817Y036271D01*
X056838Y036292D01*
X056862Y036311D01*
X056888Y036326D01*
X056915Y036339D01*
X056944Y036348D01*
X056974Y036353D01*
X057004Y036355D01*
X059004Y036355D01*
X059030Y036357D01*
X059056Y036362D01*
X059081Y036370D01*
X059104Y036382D01*
X059126Y036396D01*
X059145Y036414D01*
X059163Y036433D01*
X059177Y036455D01*
X059189Y036478D01*
X059197Y036503D01*
X059202Y036529D01*
X059204Y036555D01*
X059204Y042555D01*
X059202Y042581D01*
X059197Y042607D01*
X059189Y042632D01*
X059177Y042655D01*
X059163Y042677D01*
X059145Y042696D01*
X059126Y042714D01*
X059104Y042728D01*
X059081Y042740D01*
X059056Y042748D01*
X059030Y042753D01*
X059004Y042755D01*
X057004Y042755D01*
X056974Y042757D01*
X056944Y042762D01*
X056915Y042771D01*
X056888Y042784D01*
X056862Y042799D01*
X056838Y042818D01*
X056817Y042839D01*
X056798Y042863D01*
X056783Y042889D01*
X056770Y042916D01*
X056761Y042945D01*
X056756Y042975D01*
X056754Y043005D01*
X056554Y043655D02*
X056354Y043655D01*
X056354Y043605D01*
X055404Y043605D01*
X055374Y043603D01*
X055344Y043598D01*
X055315Y043589D01*
X055288Y043576D01*
X055262Y043561D01*
X055238Y043542D01*
X055217Y043521D01*
X055198Y043497D01*
X055183Y043471D01*
X055170Y043444D01*
X055161Y043415D01*
X055156Y043385D01*
X055154Y043355D01*
X055154Y043305D02*
X051104Y043305D01*
X050904Y043505D01*
X050904Y045405D01*
X051154Y045655D01*
X055154Y045655D01*
X055154Y043305D01*
X055154Y043205D01*
X055154Y045655D02*
X056554Y045655D01*
X051504Y044485D02*
X051506Y044535D01*
X051512Y044585D01*
X051522Y044635D01*
X051535Y044683D01*
X051552Y044731D01*
X051573Y044777D01*
X051597Y044821D01*
X051625Y044863D01*
X051656Y044903D01*
X051690Y044940D01*
X051727Y044975D01*
X051766Y045006D01*
X051807Y045035D01*
X051851Y045060D01*
X051897Y045082D01*
X051944Y045100D01*
X051992Y045114D01*
X052041Y045125D01*
X052091Y045132D01*
X052141Y045135D01*
X052192Y045134D01*
X052242Y045129D01*
X052292Y045120D01*
X052340Y045108D01*
X052388Y045091D01*
X052434Y045071D01*
X052479Y045048D01*
X052522Y045021D01*
X052562Y044991D01*
X052600Y044958D01*
X052635Y044922D01*
X052668Y044883D01*
X052697Y044842D01*
X052723Y044799D01*
X052746Y044754D01*
X052765Y044707D01*
X052780Y044659D01*
X052792Y044610D01*
X052800Y044560D01*
X052804Y044510D01*
X052804Y044460D01*
X052800Y044410D01*
X052792Y044360D01*
X052780Y044311D01*
X052765Y044263D01*
X052746Y044216D01*
X052723Y044171D01*
X052697Y044128D01*
X052668Y044087D01*
X052635Y044048D01*
X052600Y044012D01*
X052562Y043979D01*
X052522Y043949D01*
X052479Y043922D01*
X052434Y043899D01*
X052388Y043879D01*
X052340Y043862D01*
X052292Y043850D01*
X052242Y043841D01*
X052192Y043836D01*
X052141Y043835D01*
X052091Y043838D01*
X052041Y043845D01*
X051992Y043856D01*
X051944Y043870D01*
X051897Y043888D01*
X051851Y043910D01*
X051807Y043935D01*
X051766Y043964D01*
X051727Y043995D01*
X051690Y044030D01*
X051656Y044067D01*
X051625Y044107D01*
X051597Y044149D01*
X051573Y044193D01*
X051552Y044239D01*
X051535Y044287D01*
X051522Y044335D01*
X051512Y044385D01*
X051506Y044435D01*
X051504Y044485D01*
X045455Y050904D02*
X045655Y051104D01*
X045655Y055154D01*
X043305Y055154D01*
X043305Y051104D01*
X043505Y050904D01*
X045455Y050904D01*
X043835Y052154D02*
X043837Y052204D01*
X043843Y052254D01*
X043853Y052304D01*
X043866Y052352D01*
X043883Y052400D01*
X043904Y052446D01*
X043928Y052490D01*
X043956Y052532D01*
X043987Y052572D01*
X044021Y052609D01*
X044058Y052644D01*
X044097Y052675D01*
X044138Y052704D01*
X044182Y052729D01*
X044228Y052751D01*
X044275Y052769D01*
X044323Y052783D01*
X044372Y052794D01*
X044422Y052801D01*
X044472Y052804D01*
X044523Y052803D01*
X044573Y052798D01*
X044623Y052789D01*
X044671Y052777D01*
X044719Y052760D01*
X044765Y052740D01*
X044810Y052717D01*
X044853Y052690D01*
X044893Y052660D01*
X044931Y052627D01*
X044966Y052591D01*
X044999Y052552D01*
X045028Y052511D01*
X045054Y052468D01*
X045077Y052423D01*
X045096Y052376D01*
X045111Y052328D01*
X045123Y052279D01*
X045131Y052229D01*
X045135Y052179D01*
X045135Y052129D01*
X045131Y052079D01*
X045123Y052029D01*
X045111Y051980D01*
X045096Y051932D01*
X045077Y051885D01*
X045054Y051840D01*
X045028Y051797D01*
X044999Y051756D01*
X044966Y051717D01*
X044931Y051681D01*
X044893Y051648D01*
X044853Y051618D01*
X044810Y051591D01*
X044765Y051568D01*
X044719Y051548D01*
X044671Y051531D01*
X044623Y051519D01*
X044573Y051510D01*
X044523Y051505D01*
X044472Y051504D01*
X044422Y051507D01*
X044372Y051514D01*
X044323Y051525D01*
X044275Y051539D01*
X044228Y051557D01*
X044182Y051579D01*
X044138Y051604D01*
X044097Y051633D01*
X044058Y051664D01*
X044021Y051699D01*
X043987Y051736D01*
X043956Y051776D01*
X043928Y051818D01*
X043904Y051862D01*
X043883Y051908D01*
X043866Y051956D01*
X043853Y052004D01*
X043843Y052054D01*
X043837Y052104D01*
X043835Y052154D01*
X043205Y054854D02*
X043205Y055154D01*
X043305Y055154D01*
X043205Y055154D02*
X035905Y055154D01*
X035905Y054854D01*
X043205Y054854D01*
X043355Y055154D02*
X043385Y055156D01*
X043415Y055161D01*
X043444Y055170D01*
X043471Y055183D01*
X043497Y055198D01*
X043521Y055217D01*
X043542Y055238D01*
X043561Y055262D01*
X043576Y055288D01*
X043589Y055315D01*
X043598Y055344D01*
X043603Y055374D01*
X043605Y055404D01*
X043605Y056354D01*
X043655Y056354D01*
X043655Y056554D01*
X045655Y056554D01*
X045655Y055154D01*
X045655Y056554D02*
X045655Y056754D01*
X033455Y056754D01*
X033455Y056554D01*
X035455Y056554D01*
X043655Y056554D01*
X043005Y056754D02*
X042975Y056756D01*
X042945Y056761D01*
X042916Y056770D01*
X042889Y056783D01*
X042863Y056798D01*
X042839Y056817D01*
X042818Y056838D01*
X042799Y056862D01*
X042784Y056888D01*
X042771Y056915D01*
X042762Y056944D01*
X042757Y056974D01*
X042755Y057004D01*
X042755Y059004D01*
X042753Y059030D01*
X042748Y059056D01*
X042740Y059081D01*
X042728Y059104D01*
X042714Y059126D01*
X042696Y059145D01*
X042677Y059163D01*
X042655Y059177D01*
X042632Y059189D01*
X042607Y059197D01*
X042581Y059202D01*
X042555Y059204D01*
X036555Y059204D01*
X036529Y059202D01*
X036503Y059197D01*
X036478Y059189D01*
X036455Y059177D01*
X036433Y059163D01*
X036414Y059145D01*
X036396Y059126D01*
X036382Y059104D01*
X036370Y059081D01*
X036362Y059056D01*
X036357Y059030D01*
X036355Y059004D01*
X036355Y057004D01*
X036353Y056974D01*
X036348Y056944D01*
X036339Y056915D01*
X036326Y056888D01*
X036311Y056862D01*
X036292Y056838D01*
X036271Y056817D01*
X036247Y056798D01*
X036221Y056783D01*
X036194Y056770D01*
X036165Y056761D01*
X036135Y056756D01*
X036105Y056754D01*
X035455Y056554D02*
X035455Y056354D01*
X035505Y056354D01*
X035505Y055404D01*
X035507Y055374D01*
X035512Y055344D01*
X035521Y055315D01*
X035534Y055288D01*
X035549Y055262D01*
X035568Y055238D01*
X035589Y055217D01*
X035613Y055198D01*
X035639Y055183D01*
X035666Y055170D01*
X035695Y055161D01*
X035725Y055156D01*
X035755Y055154D01*
X035805Y055154D02*
X035805Y051104D01*
X035605Y050904D01*
X033705Y050904D01*
X033455Y051154D01*
X033455Y055154D01*
X035805Y055154D01*
X035905Y055154D01*
X033455Y055154D02*
X033455Y056554D01*
X033975Y052154D02*
X033977Y052204D01*
X033983Y052254D01*
X033993Y052304D01*
X034006Y052352D01*
X034023Y052400D01*
X034044Y052446D01*
X034068Y052490D01*
X034096Y052532D01*
X034127Y052572D01*
X034161Y052609D01*
X034198Y052644D01*
X034237Y052675D01*
X034278Y052704D01*
X034322Y052729D01*
X034368Y052751D01*
X034415Y052769D01*
X034463Y052783D01*
X034512Y052794D01*
X034562Y052801D01*
X034612Y052804D01*
X034663Y052803D01*
X034713Y052798D01*
X034763Y052789D01*
X034811Y052777D01*
X034859Y052760D01*
X034905Y052740D01*
X034950Y052717D01*
X034993Y052690D01*
X035033Y052660D01*
X035071Y052627D01*
X035106Y052591D01*
X035139Y052552D01*
X035168Y052511D01*
X035194Y052468D01*
X035217Y052423D01*
X035236Y052376D01*
X035251Y052328D01*
X035263Y052279D01*
X035271Y052229D01*
X035275Y052179D01*
X035275Y052129D01*
X035271Y052079D01*
X035263Y052029D01*
X035251Y051980D01*
X035236Y051932D01*
X035217Y051885D01*
X035194Y051840D01*
X035168Y051797D01*
X035139Y051756D01*
X035106Y051717D01*
X035071Y051681D01*
X035033Y051648D01*
X034993Y051618D01*
X034950Y051591D01*
X034905Y051568D01*
X034859Y051548D01*
X034811Y051531D01*
X034763Y051519D01*
X034713Y051510D01*
X034663Y051505D01*
X034612Y051504D01*
X034562Y051507D01*
X034512Y051514D01*
X034463Y051525D01*
X034415Y051539D01*
X034368Y051557D01*
X034322Y051579D01*
X034278Y051604D01*
X034237Y051633D01*
X034198Y051664D01*
X034161Y051699D01*
X034127Y051736D01*
X034096Y051776D01*
X034068Y051818D01*
X034044Y051862D01*
X034023Y051908D01*
X034006Y051956D01*
X033993Y052004D01*
X033983Y052054D01*
X033977Y052104D01*
X033975Y052154D01*
X025970Y051104D02*
X025770Y050904D01*
X023820Y050904D01*
X023620Y051104D01*
X023620Y055154D01*
X025970Y055154D01*
X025970Y051104D01*
X024150Y052154D02*
X024152Y052204D01*
X024158Y052254D01*
X024168Y052304D01*
X024181Y052352D01*
X024198Y052400D01*
X024219Y052446D01*
X024243Y052490D01*
X024271Y052532D01*
X024302Y052572D01*
X024336Y052609D01*
X024373Y052644D01*
X024412Y052675D01*
X024453Y052704D01*
X024497Y052729D01*
X024543Y052751D01*
X024590Y052769D01*
X024638Y052783D01*
X024687Y052794D01*
X024737Y052801D01*
X024787Y052804D01*
X024838Y052803D01*
X024888Y052798D01*
X024938Y052789D01*
X024986Y052777D01*
X025034Y052760D01*
X025080Y052740D01*
X025125Y052717D01*
X025168Y052690D01*
X025208Y052660D01*
X025246Y052627D01*
X025281Y052591D01*
X025314Y052552D01*
X025343Y052511D01*
X025369Y052468D01*
X025392Y052423D01*
X025411Y052376D01*
X025426Y052328D01*
X025438Y052279D01*
X025446Y052229D01*
X025450Y052179D01*
X025450Y052129D01*
X025446Y052079D01*
X025438Y052029D01*
X025426Y051980D01*
X025411Y051932D01*
X025392Y051885D01*
X025369Y051840D01*
X025343Y051797D01*
X025314Y051756D01*
X025281Y051717D01*
X025246Y051681D01*
X025208Y051648D01*
X025168Y051618D01*
X025125Y051591D01*
X025080Y051568D01*
X025034Y051548D01*
X024986Y051531D01*
X024938Y051519D01*
X024888Y051510D01*
X024838Y051505D01*
X024787Y051504D01*
X024737Y051507D01*
X024687Y051514D01*
X024638Y051525D01*
X024590Y051539D01*
X024543Y051557D01*
X024497Y051579D01*
X024453Y051604D01*
X024412Y051633D01*
X024373Y051664D01*
X024336Y051699D01*
X024302Y051736D01*
X024271Y051776D01*
X024243Y051818D01*
X024219Y051862D01*
X024198Y051908D01*
X024181Y051956D01*
X024168Y052004D01*
X024158Y052054D01*
X024152Y052104D01*
X024150Y052154D01*
X023520Y054854D02*
X023520Y055154D01*
X023620Y055154D01*
X023520Y055154D02*
X016220Y055154D01*
X016220Y054854D01*
X023520Y054854D01*
X023670Y055154D02*
X023700Y055156D01*
X023730Y055161D01*
X023759Y055170D01*
X023786Y055183D01*
X023812Y055198D01*
X023836Y055217D01*
X023857Y055238D01*
X023876Y055262D01*
X023891Y055288D01*
X023904Y055315D01*
X023913Y055344D01*
X023918Y055374D01*
X023920Y055404D01*
X023920Y056354D01*
X023970Y056354D01*
X023970Y056554D01*
X025970Y056554D01*
X025970Y055154D01*
X025970Y056554D02*
X025970Y056754D01*
X013770Y056754D01*
X013770Y056554D01*
X015770Y056554D01*
X023970Y056554D01*
X023320Y056754D02*
X023290Y056756D01*
X023260Y056761D01*
X023231Y056770D01*
X023204Y056783D01*
X023178Y056798D01*
X023154Y056817D01*
X023133Y056838D01*
X023114Y056862D01*
X023099Y056888D01*
X023086Y056915D01*
X023077Y056944D01*
X023072Y056974D01*
X023070Y057004D01*
X023070Y059004D01*
X023068Y059030D01*
X023063Y059056D01*
X023055Y059081D01*
X023043Y059104D01*
X023029Y059126D01*
X023011Y059145D01*
X022992Y059163D01*
X022970Y059177D01*
X022947Y059189D01*
X022922Y059197D01*
X022896Y059202D01*
X022870Y059204D01*
X016870Y059204D01*
X016844Y059202D01*
X016818Y059197D01*
X016793Y059189D01*
X016770Y059177D01*
X016748Y059163D01*
X016729Y059145D01*
X016711Y059126D01*
X016697Y059104D01*
X016685Y059081D01*
X016677Y059056D01*
X016672Y059030D01*
X016670Y059004D01*
X016670Y057004D01*
X016668Y056974D01*
X016663Y056944D01*
X016654Y056915D01*
X016641Y056888D01*
X016626Y056862D01*
X016607Y056838D01*
X016586Y056817D01*
X016562Y056798D01*
X016536Y056783D01*
X016509Y056770D01*
X016480Y056761D01*
X016450Y056756D01*
X016420Y056754D01*
X015770Y056554D02*
X015770Y056354D01*
X015820Y056354D01*
X015820Y055404D01*
X015822Y055374D01*
X015827Y055344D01*
X015836Y055315D01*
X015849Y055288D01*
X015864Y055262D01*
X015883Y055238D01*
X015904Y055217D01*
X015928Y055198D01*
X015954Y055183D01*
X015981Y055170D01*
X016010Y055161D01*
X016040Y055156D01*
X016070Y055154D01*
X016120Y055154D02*
X016120Y051104D01*
X015920Y050904D01*
X014020Y050904D01*
X013770Y051154D01*
X013770Y055154D01*
X016120Y055154D01*
X016220Y055154D01*
X013770Y055154D02*
X013770Y056554D01*
X014290Y052154D02*
X014292Y052204D01*
X014298Y052254D01*
X014308Y052304D01*
X014321Y052352D01*
X014338Y052400D01*
X014359Y052446D01*
X014383Y052490D01*
X014411Y052532D01*
X014442Y052572D01*
X014476Y052609D01*
X014513Y052644D01*
X014552Y052675D01*
X014593Y052704D01*
X014637Y052729D01*
X014683Y052751D01*
X014730Y052769D01*
X014778Y052783D01*
X014827Y052794D01*
X014877Y052801D01*
X014927Y052804D01*
X014978Y052803D01*
X015028Y052798D01*
X015078Y052789D01*
X015126Y052777D01*
X015174Y052760D01*
X015220Y052740D01*
X015265Y052717D01*
X015308Y052690D01*
X015348Y052660D01*
X015386Y052627D01*
X015421Y052591D01*
X015454Y052552D01*
X015483Y052511D01*
X015509Y052468D01*
X015532Y052423D01*
X015551Y052376D01*
X015566Y052328D01*
X015578Y052279D01*
X015586Y052229D01*
X015590Y052179D01*
X015590Y052129D01*
X015586Y052079D01*
X015578Y052029D01*
X015566Y051980D01*
X015551Y051932D01*
X015532Y051885D01*
X015509Y051840D01*
X015483Y051797D01*
X015454Y051756D01*
X015421Y051717D01*
X015386Y051681D01*
X015348Y051648D01*
X015308Y051618D01*
X015265Y051591D01*
X015220Y051568D01*
X015174Y051548D01*
X015126Y051531D01*
X015078Y051519D01*
X015028Y051510D01*
X014978Y051505D01*
X014927Y051504D01*
X014877Y051507D01*
X014827Y051514D01*
X014778Y051525D01*
X014730Y051539D01*
X014683Y051557D01*
X014637Y051579D01*
X014593Y051604D01*
X014552Y051633D01*
X014513Y051664D01*
X014476Y051699D01*
X014442Y051736D01*
X014411Y051776D01*
X014383Y051818D01*
X014359Y051862D01*
X014338Y051908D01*
X014321Y051956D01*
X014308Y052004D01*
X014298Y052054D01*
X014292Y052104D01*
X014290Y052154D01*
X008243Y045655D02*
X004193Y045655D01*
X004193Y043305D01*
X008243Y043305D01*
X008443Y043505D01*
X008443Y045455D01*
X008243Y045655D01*
X006543Y044485D02*
X006545Y044535D01*
X006551Y044585D01*
X006561Y044635D01*
X006574Y044683D01*
X006591Y044731D01*
X006612Y044777D01*
X006636Y044821D01*
X006664Y044863D01*
X006695Y044903D01*
X006729Y044940D01*
X006766Y044975D01*
X006805Y045006D01*
X006846Y045035D01*
X006890Y045060D01*
X006936Y045082D01*
X006983Y045100D01*
X007031Y045114D01*
X007080Y045125D01*
X007130Y045132D01*
X007180Y045135D01*
X007231Y045134D01*
X007281Y045129D01*
X007331Y045120D01*
X007379Y045108D01*
X007427Y045091D01*
X007473Y045071D01*
X007518Y045048D01*
X007561Y045021D01*
X007601Y044991D01*
X007639Y044958D01*
X007674Y044922D01*
X007707Y044883D01*
X007736Y044842D01*
X007762Y044799D01*
X007785Y044754D01*
X007804Y044707D01*
X007819Y044659D01*
X007831Y044610D01*
X007839Y044560D01*
X007843Y044510D01*
X007843Y044460D01*
X007839Y044410D01*
X007831Y044360D01*
X007819Y044311D01*
X007804Y044263D01*
X007785Y044216D01*
X007762Y044171D01*
X007736Y044128D01*
X007707Y044087D01*
X007674Y044048D01*
X007639Y044012D01*
X007601Y043979D01*
X007561Y043949D01*
X007518Y043922D01*
X007473Y043899D01*
X007427Y043879D01*
X007379Y043862D01*
X007331Y043850D01*
X007281Y043841D01*
X007231Y043836D01*
X007180Y043835D01*
X007130Y043838D01*
X007080Y043845D01*
X007031Y043856D01*
X006983Y043870D01*
X006936Y043888D01*
X006890Y043910D01*
X006846Y043935D01*
X006805Y043964D01*
X006766Y043995D01*
X006729Y044030D01*
X006695Y044067D01*
X006664Y044107D01*
X006636Y044149D01*
X006612Y044193D01*
X006591Y044239D01*
X006574Y044287D01*
X006561Y044335D01*
X006551Y044385D01*
X006545Y044435D01*
X006543Y044485D01*
X004493Y043205D02*
X004193Y043205D01*
X004193Y043305D01*
X004193Y043205D02*
X004193Y035905D01*
X004493Y035905D01*
X004493Y043205D01*
X004193Y043355D02*
X004191Y043385D01*
X004186Y043415D01*
X004177Y043444D01*
X004164Y043471D01*
X004149Y043497D01*
X004130Y043521D01*
X004109Y043542D01*
X004085Y043561D01*
X004059Y043576D01*
X004032Y043589D01*
X004003Y043598D01*
X003973Y043603D01*
X003943Y043605D01*
X002993Y043605D01*
X002993Y043655D01*
X002793Y043655D01*
X002793Y045655D01*
X004193Y045655D01*
X002793Y045655D02*
X002593Y045655D01*
X002593Y033455D01*
X002793Y033455D01*
X002793Y035455D01*
X002793Y043655D01*
X002593Y043005D02*
X002591Y042975D01*
X002586Y042945D01*
X002577Y042916D01*
X002564Y042889D01*
X002549Y042863D01*
X002530Y042839D01*
X002509Y042818D01*
X002485Y042799D01*
X002459Y042784D01*
X002432Y042771D01*
X002403Y042762D01*
X002373Y042757D01*
X002343Y042755D01*
X000343Y042755D01*
X000317Y042753D01*
X000291Y042748D01*
X000266Y042740D01*
X000243Y042728D01*
X000221Y042714D01*
X000202Y042696D01*
X000184Y042677D01*
X000170Y042655D01*
X000158Y042632D01*
X000150Y042607D01*
X000145Y042581D01*
X000143Y042555D01*
X000143Y036555D01*
X000145Y036529D01*
X000150Y036503D01*
X000158Y036478D01*
X000170Y036455D01*
X000184Y036433D01*
X000202Y036414D01*
X000221Y036396D01*
X000243Y036382D01*
X000266Y036370D01*
X000291Y036362D01*
X000317Y036357D01*
X000343Y036355D01*
X002343Y036355D01*
X002373Y036353D01*
X002403Y036348D01*
X002432Y036339D01*
X002459Y036326D01*
X002485Y036311D01*
X002509Y036292D01*
X002530Y036271D01*
X002549Y036247D01*
X002564Y036221D01*
X002577Y036194D01*
X002586Y036165D01*
X002591Y036135D01*
X002593Y036105D01*
X002793Y035455D02*
X002993Y035455D01*
X002993Y035505D01*
X003943Y035505D01*
X003973Y035507D01*
X004003Y035512D01*
X004032Y035521D01*
X004059Y035534D01*
X004085Y035549D01*
X004109Y035568D01*
X004130Y035589D01*
X004149Y035613D01*
X004164Y035639D01*
X004177Y035666D01*
X004186Y035695D01*
X004191Y035725D01*
X004193Y035755D01*
X004193Y035805D02*
X008243Y035805D01*
X008443Y035605D01*
X008443Y033705D01*
X008193Y033455D01*
X004193Y033455D01*
X004193Y035805D01*
X004193Y035905D01*
X004193Y033455D02*
X002793Y033455D01*
X006543Y034625D02*
X006545Y034675D01*
X006551Y034725D01*
X006561Y034775D01*
X006574Y034823D01*
X006591Y034871D01*
X006612Y034917D01*
X006636Y034961D01*
X006664Y035003D01*
X006695Y035043D01*
X006729Y035080D01*
X006766Y035115D01*
X006805Y035146D01*
X006846Y035175D01*
X006890Y035200D01*
X006936Y035222D01*
X006983Y035240D01*
X007031Y035254D01*
X007080Y035265D01*
X007130Y035272D01*
X007180Y035275D01*
X007231Y035274D01*
X007281Y035269D01*
X007331Y035260D01*
X007379Y035248D01*
X007427Y035231D01*
X007473Y035211D01*
X007518Y035188D01*
X007561Y035161D01*
X007601Y035131D01*
X007639Y035098D01*
X007674Y035062D01*
X007707Y035023D01*
X007736Y034982D01*
X007762Y034939D01*
X007785Y034894D01*
X007804Y034847D01*
X007819Y034799D01*
X007831Y034750D01*
X007839Y034700D01*
X007843Y034650D01*
X007843Y034600D01*
X007839Y034550D01*
X007831Y034500D01*
X007819Y034451D01*
X007804Y034403D01*
X007785Y034356D01*
X007762Y034311D01*
X007736Y034268D01*
X007707Y034227D01*
X007674Y034188D01*
X007639Y034152D01*
X007601Y034119D01*
X007561Y034089D01*
X007518Y034062D01*
X007473Y034039D01*
X007427Y034019D01*
X007379Y034002D01*
X007331Y033990D01*
X007281Y033981D01*
X007231Y033976D01*
X007180Y033975D01*
X007130Y033978D01*
X007080Y033985D01*
X007031Y033996D01*
X006983Y034010D01*
X006936Y034028D01*
X006890Y034050D01*
X006846Y034075D01*
X006805Y034104D01*
X006766Y034135D01*
X006729Y034170D01*
X006695Y034207D01*
X006664Y034247D01*
X006636Y034289D01*
X006612Y034333D01*
X006591Y034379D01*
X006574Y034427D01*
X006561Y034475D01*
X006551Y034525D01*
X006545Y034575D01*
X006543Y034625D01*
X008313Y031113D02*
X008313Y031076D01*
X008313Y031113D02*
X008951Y031113D01*
X008951Y031076D01*
X008951Y030759D02*
X008951Y030722D01*
X008951Y030385D02*
X008951Y030348D01*
X008951Y030030D02*
X008951Y029993D01*
X008313Y029993D01*
X008313Y030030D01*
X008313Y030348D02*
X008313Y030759D01*
X008243Y025995D02*
X004193Y025995D01*
X004193Y023645D01*
X008243Y023645D01*
X008443Y023845D01*
X008443Y025795D01*
X008243Y025995D01*
X006543Y024855D02*
X006545Y024905D01*
X006551Y024955D01*
X006561Y025005D01*
X006574Y025053D01*
X006591Y025101D01*
X006612Y025147D01*
X006636Y025191D01*
X006664Y025233D01*
X006695Y025273D01*
X006729Y025310D01*
X006766Y025345D01*
X006805Y025376D01*
X006846Y025405D01*
X006890Y025430D01*
X006936Y025452D01*
X006983Y025470D01*
X007031Y025484D01*
X007080Y025495D01*
X007130Y025502D01*
X007180Y025505D01*
X007231Y025504D01*
X007281Y025499D01*
X007331Y025490D01*
X007379Y025478D01*
X007427Y025461D01*
X007473Y025441D01*
X007518Y025418D01*
X007561Y025391D01*
X007601Y025361D01*
X007639Y025328D01*
X007674Y025292D01*
X007707Y025253D01*
X007736Y025212D01*
X007762Y025169D01*
X007785Y025124D01*
X007804Y025077D01*
X007819Y025029D01*
X007831Y024980D01*
X007839Y024930D01*
X007843Y024880D01*
X007843Y024830D01*
X007839Y024780D01*
X007831Y024730D01*
X007819Y024681D01*
X007804Y024633D01*
X007785Y024586D01*
X007762Y024541D01*
X007736Y024498D01*
X007707Y024457D01*
X007674Y024418D01*
X007639Y024382D01*
X007601Y024349D01*
X007561Y024319D01*
X007518Y024292D01*
X007473Y024269D01*
X007427Y024249D01*
X007379Y024232D01*
X007331Y024220D01*
X007281Y024211D01*
X007231Y024206D01*
X007180Y024205D01*
X007130Y024208D01*
X007080Y024215D01*
X007031Y024226D01*
X006983Y024240D01*
X006936Y024258D01*
X006890Y024280D01*
X006846Y024305D01*
X006805Y024334D01*
X006766Y024365D01*
X006729Y024400D01*
X006695Y024437D01*
X006664Y024477D01*
X006636Y024519D01*
X006612Y024563D01*
X006591Y024609D01*
X006574Y024657D01*
X006561Y024705D01*
X006551Y024755D01*
X006545Y024805D01*
X006543Y024855D01*
X004493Y023545D02*
X004193Y023545D01*
X004193Y023645D01*
X004193Y023545D02*
X004193Y012995D01*
X004493Y012995D01*
X004493Y023545D01*
X004193Y023695D02*
X004191Y023725D01*
X004186Y023755D01*
X004177Y023784D01*
X004164Y023811D01*
X004149Y023837D01*
X004130Y023861D01*
X004109Y023882D01*
X004085Y023901D01*
X004059Y023916D01*
X004032Y023929D01*
X004003Y023938D01*
X003973Y023943D01*
X003943Y023945D01*
X002993Y023945D01*
X002993Y023995D01*
X002793Y023995D01*
X002793Y025995D01*
X004193Y025995D01*
X002793Y025995D02*
X002593Y025995D01*
X002593Y010545D01*
X002793Y010545D01*
X002793Y012545D01*
X002793Y023995D01*
X002593Y023345D02*
X002591Y023315D01*
X002586Y023285D01*
X002577Y023256D01*
X002564Y023229D01*
X002549Y023203D01*
X002530Y023179D01*
X002509Y023158D01*
X002485Y023139D01*
X002459Y023124D01*
X002432Y023111D01*
X002403Y023102D01*
X002373Y023097D01*
X002343Y023095D01*
X000343Y023095D01*
X000317Y023093D01*
X000291Y023088D01*
X000266Y023080D01*
X000243Y023068D01*
X000221Y023054D01*
X000202Y023036D01*
X000184Y023017D01*
X000170Y022995D01*
X000158Y022972D01*
X000150Y022947D01*
X000145Y022921D01*
X000143Y022895D01*
X000143Y013645D01*
X000145Y013619D01*
X000150Y013593D01*
X000158Y013568D01*
X000170Y013545D01*
X000184Y013523D01*
X000202Y013504D01*
X000221Y013486D01*
X000243Y013472D01*
X000266Y013460D01*
X000291Y013452D01*
X000317Y013447D01*
X000343Y013445D01*
X002343Y013445D01*
X002373Y013443D01*
X002403Y013438D01*
X002432Y013429D01*
X002459Y013416D01*
X002485Y013401D01*
X002509Y013382D01*
X002530Y013361D01*
X002549Y013337D01*
X002564Y013311D01*
X002577Y013284D01*
X002586Y013255D01*
X002591Y013225D01*
X002593Y013195D01*
X002793Y012545D02*
X002993Y012545D01*
X002993Y012595D01*
X003943Y012595D01*
X003973Y012597D01*
X004003Y012602D01*
X004032Y012611D01*
X004059Y012624D01*
X004085Y012639D01*
X004109Y012658D01*
X004130Y012679D01*
X004149Y012703D01*
X004164Y012729D01*
X004177Y012756D01*
X004186Y012785D01*
X004191Y012815D01*
X004193Y012845D01*
X004193Y012895D02*
X008243Y012895D01*
X008443Y012695D01*
X008443Y010795D01*
X008193Y010545D01*
X004193Y010545D01*
X004193Y012895D01*
X004193Y012995D01*
X004193Y010545D02*
X002793Y010545D01*
X006543Y011735D02*
X006545Y011785D01*
X006551Y011835D01*
X006561Y011885D01*
X006574Y011933D01*
X006591Y011981D01*
X006612Y012027D01*
X006636Y012071D01*
X006664Y012113D01*
X006695Y012153D01*
X006729Y012190D01*
X006766Y012225D01*
X006805Y012256D01*
X006846Y012285D01*
X006890Y012310D01*
X006936Y012332D01*
X006983Y012350D01*
X007031Y012364D01*
X007080Y012375D01*
X007130Y012382D01*
X007180Y012385D01*
X007231Y012384D01*
X007281Y012379D01*
X007331Y012370D01*
X007379Y012358D01*
X007427Y012341D01*
X007473Y012321D01*
X007518Y012298D01*
X007561Y012271D01*
X007601Y012241D01*
X007639Y012208D01*
X007674Y012172D01*
X007707Y012133D01*
X007736Y012092D01*
X007762Y012049D01*
X007785Y012004D01*
X007804Y011957D01*
X007819Y011909D01*
X007831Y011860D01*
X007839Y011810D01*
X007843Y011760D01*
X007843Y011710D01*
X007839Y011660D01*
X007831Y011610D01*
X007819Y011561D01*
X007804Y011513D01*
X007785Y011466D01*
X007762Y011421D01*
X007736Y011378D01*
X007707Y011337D01*
X007674Y011298D01*
X007639Y011262D01*
X007601Y011229D01*
X007561Y011199D01*
X007518Y011172D01*
X007473Y011149D01*
X007427Y011129D01*
X007379Y011112D01*
X007331Y011100D01*
X007281Y011091D01*
X007231Y011086D01*
X007180Y011085D01*
X007130Y011088D01*
X007080Y011095D01*
X007031Y011106D01*
X006983Y011120D01*
X006936Y011138D01*
X006890Y011160D01*
X006846Y011185D01*
X006805Y011214D01*
X006766Y011245D01*
X006729Y011280D01*
X006695Y011317D01*
X006664Y011357D01*
X006636Y011399D01*
X006612Y011443D01*
X006591Y011489D01*
X006574Y011537D01*
X006561Y011585D01*
X006551Y011635D01*
X006545Y011685D01*
X006543Y011735D01*
X013770Y008243D02*
X013770Y004193D01*
X016120Y004193D01*
X016120Y008243D01*
X015920Y008443D01*
X013970Y008443D01*
X013770Y008243D01*
X014290Y007193D02*
X014292Y007243D01*
X014298Y007293D01*
X014308Y007343D01*
X014321Y007391D01*
X014338Y007439D01*
X014359Y007485D01*
X014383Y007529D01*
X014411Y007571D01*
X014442Y007611D01*
X014476Y007648D01*
X014513Y007683D01*
X014552Y007714D01*
X014593Y007743D01*
X014637Y007768D01*
X014683Y007790D01*
X014730Y007808D01*
X014778Y007822D01*
X014827Y007833D01*
X014877Y007840D01*
X014927Y007843D01*
X014978Y007842D01*
X015028Y007837D01*
X015078Y007828D01*
X015126Y007816D01*
X015174Y007799D01*
X015220Y007779D01*
X015265Y007756D01*
X015308Y007729D01*
X015348Y007699D01*
X015386Y007666D01*
X015421Y007630D01*
X015454Y007591D01*
X015483Y007550D01*
X015509Y007507D01*
X015532Y007462D01*
X015551Y007415D01*
X015566Y007367D01*
X015578Y007318D01*
X015586Y007268D01*
X015590Y007218D01*
X015590Y007168D01*
X015586Y007118D01*
X015578Y007068D01*
X015566Y007019D01*
X015551Y006971D01*
X015532Y006924D01*
X015509Y006879D01*
X015483Y006836D01*
X015454Y006795D01*
X015421Y006756D01*
X015386Y006720D01*
X015348Y006687D01*
X015308Y006657D01*
X015265Y006630D01*
X015220Y006607D01*
X015174Y006587D01*
X015126Y006570D01*
X015078Y006558D01*
X015028Y006549D01*
X014978Y006544D01*
X014927Y006543D01*
X014877Y006546D01*
X014827Y006553D01*
X014778Y006564D01*
X014730Y006578D01*
X014683Y006596D01*
X014637Y006618D01*
X014593Y006643D01*
X014552Y006672D01*
X014513Y006703D01*
X014476Y006738D01*
X014442Y006775D01*
X014411Y006815D01*
X014383Y006857D01*
X014359Y006901D01*
X014338Y006947D01*
X014321Y006995D01*
X014308Y007043D01*
X014298Y007093D01*
X014292Y007143D01*
X014290Y007193D01*
X013770Y004193D02*
X013770Y002793D01*
X015770Y002793D01*
X015770Y002993D01*
X015820Y002993D01*
X015820Y003943D01*
X015822Y003973D01*
X015827Y004003D01*
X015836Y004032D01*
X015849Y004059D01*
X015864Y004085D01*
X015883Y004109D01*
X015904Y004130D01*
X015928Y004149D01*
X015954Y004164D01*
X015981Y004177D01*
X016010Y004186D01*
X016040Y004191D01*
X016070Y004193D01*
X016120Y004193D02*
X016220Y004193D01*
X016220Y004493D01*
X023520Y004493D01*
X023520Y004193D01*
X016220Y004193D01*
X015770Y002793D02*
X023970Y002793D01*
X023970Y002993D01*
X023920Y002993D01*
X023920Y003943D01*
X023918Y003973D01*
X023913Y004003D01*
X023904Y004032D01*
X023891Y004059D01*
X023876Y004085D01*
X023857Y004109D01*
X023836Y004130D01*
X023812Y004149D01*
X023786Y004164D01*
X023759Y004177D01*
X023730Y004186D01*
X023700Y004191D01*
X023670Y004193D01*
X023620Y004193D02*
X023620Y008243D01*
X023820Y008443D01*
X025720Y008443D01*
X025970Y008193D01*
X025970Y004193D01*
X023620Y004193D01*
X023520Y004193D01*
X023970Y002793D02*
X025970Y002793D01*
X025970Y002593D01*
X013770Y002593D01*
X013770Y002793D01*
X016420Y002593D02*
X016450Y002591D01*
X016480Y002586D01*
X016509Y002577D01*
X016536Y002564D01*
X016562Y002549D01*
X016586Y002530D01*
X016607Y002509D01*
X016626Y002485D01*
X016641Y002459D01*
X016654Y002432D01*
X016663Y002403D01*
X016668Y002373D01*
X016670Y002343D01*
X016670Y000343D01*
X016672Y000317D01*
X016677Y000291D01*
X016685Y000266D01*
X016697Y000243D01*
X016711Y000221D01*
X016729Y000202D01*
X016748Y000184D01*
X016770Y000170D01*
X016793Y000158D01*
X016818Y000150D01*
X016844Y000145D01*
X016870Y000143D01*
X022870Y000143D01*
X022896Y000145D01*
X022922Y000150D01*
X022947Y000158D01*
X022970Y000170D01*
X022992Y000184D01*
X023011Y000202D01*
X023029Y000221D01*
X023043Y000243D01*
X023055Y000266D01*
X023063Y000291D01*
X023068Y000317D01*
X023070Y000343D01*
X023070Y002343D01*
X023072Y002373D01*
X023077Y002403D01*
X023086Y002432D01*
X023099Y002459D01*
X023114Y002485D01*
X023133Y002509D01*
X023154Y002530D01*
X023178Y002549D01*
X023204Y002564D01*
X023231Y002577D01*
X023260Y002586D01*
X023290Y002591D01*
X023320Y002593D01*
X025970Y002793D02*
X025970Y004193D01*
X024150Y007193D02*
X024152Y007243D01*
X024158Y007293D01*
X024168Y007343D01*
X024181Y007391D01*
X024198Y007439D01*
X024219Y007485D01*
X024243Y007529D01*
X024271Y007571D01*
X024302Y007611D01*
X024336Y007648D01*
X024373Y007683D01*
X024412Y007714D01*
X024453Y007743D01*
X024497Y007768D01*
X024543Y007790D01*
X024590Y007808D01*
X024638Y007822D01*
X024687Y007833D01*
X024737Y007840D01*
X024787Y007843D01*
X024838Y007842D01*
X024888Y007837D01*
X024938Y007828D01*
X024986Y007816D01*
X025034Y007799D01*
X025080Y007779D01*
X025125Y007756D01*
X025168Y007729D01*
X025208Y007699D01*
X025246Y007666D01*
X025281Y007630D01*
X025314Y007591D01*
X025343Y007550D01*
X025369Y007507D01*
X025392Y007462D01*
X025411Y007415D01*
X025426Y007367D01*
X025438Y007318D01*
X025446Y007268D01*
X025450Y007218D01*
X025450Y007168D01*
X025446Y007118D01*
X025438Y007068D01*
X025426Y007019D01*
X025411Y006971D01*
X025392Y006924D01*
X025369Y006879D01*
X025343Y006836D01*
X025314Y006795D01*
X025281Y006756D01*
X025246Y006720D01*
X025208Y006687D01*
X025168Y006657D01*
X025125Y006630D01*
X025080Y006607D01*
X025034Y006587D01*
X024986Y006570D01*
X024938Y006558D01*
X024888Y006549D01*
X024838Y006544D01*
X024787Y006543D01*
X024737Y006546D01*
X024687Y006553D01*
X024638Y006564D01*
X024590Y006578D01*
X024543Y006596D01*
X024497Y006618D01*
X024453Y006643D01*
X024412Y006672D01*
X024373Y006703D01*
X024336Y006738D01*
X024302Y006775D01*
X024271Y006815D01*
X024243Y006857D01*
X024219Y006901D01*
X024198Y006947D01*
X024181Y006995D01*
X024168Y007043D01*
X024158Y007093D01*
X024152Y007143D01*
X024150Y007193D01*
X019772Y014272D02*
X018372Y014272D01*
X018355Y014274D01*
X018338Y014278D01*
X018322Y014285D01*
X018308Y014295D01*
X018295Y014308D01*
X018285Y014322D01*
X018278Y014338D01*
X018274Y014355D01*
X018272Y014372D01*
X018272Y014722D02*
X018272Y014822D01*
X018272Y015222D02*
X018272Y015322D01*
X018272Y015722D02*
X018272Y015822D01*
X018272Y016172D02*
X018274Y016189D01*
X018278Y016206D01*
X018285Y016222D01*
X018295Y016236D01*
X018308Y016249D01*
X018322Y016259D01*
X018338Y016266D01*
X018355Y016270D01*
X018372Y016272D01*
X019772Y016272D01*
X019789Y016270D01*
X019806Y016266D01*
X019822Y016259D01*
X019836Y016249D01*
X019849Y016236D01*
X019859Y016222D01*
X019866Y016206D01*
X019870Y016189D01*
X019872Y016172D01*
X019872Y015822D02*
X019872Y015722D01*
X019872Y015322D02*
X019872Y015222D01*
X019872Y014822D02*
X019872Y014722D01*
X019872Y014372D02*
X019870Y014355D01*
X019866Y014338D01*
X019859Y014322D01*
X019849Y014308D01*
X019836Y014295D01*
X019822Y014285D01*
X019806Y014278D01*
X019789Y014274D01*
X019772Y014272D01*
X019322Y014572D02*
X019324Y014596D01*
X019330Y014620D01*
X019339Y014642D01*
X019352Y014662D01*
X019368Y014680D01*
X019387Y014695D01*
X019408Y014708D01*
X019430Y014716D01*
X019454Y014721D01*
X019478Y014722D01*
X019502Y014719D01*
X019525Y014712D01*
X019547Y014702D01*
X019567Y014688D01*
X019584Y014671D01*
X019599Y014652D01*
X019610Y014631D01*
X019618Y014608D01*
X019622Y014584D01*
X019622Y014560D01*
X019618Y014536D01*
X019610Y014513D01*
X019599Y014492D01*
X019584Y014473D01*
X019567Y014456D01*
X019547Y014442D01*
X019525Y014432D01*
X019502Y014425D01*
X019478Y014422D01*
X019454Y014423D01*
X019430Y014428D01*
X019408Y014436D01*
X019387Y014449D01*
X019368Y014464D01*
X019352Y014482D01*
X019339Y014502D01*
X019330Y014524D01*
X019324Y014548D01*
X019322Y014572D01*
X032472Y015062D02*
X032772Y015062D01*
X032772Y016202D01*
X032472Y016202D01*
X032472Y015062D01*
X032472Y024562D02*
X032772Y024562D01*
X032772Y025702D01*
X032472Y025702D01*
X032472Y024562D01*
X032472Y034562D02*
X032772Y034562D01*
X032772Y035702D01*
X032472Y035702D01*
X032472Y034562D01*
X032272Y041062D02*
X031972Y041062D01*
X031972Y042202D01*
X032272Y042202D01*
X032272Y041062D01*
D19*
X036580Y051429D02*
X036881Y051429D01*
X036730Y051429D02*
X036730Y051879D01*
X036580Y051729D01*
X036655Y052429D02*
X036805Y052429D01*
X036881Y052504D01*
X036881Y052579D01*
X036805Y052654D01*
X036580Y052654D01*
X036580Y052504D01*
X036655Y052429D01*
X036580Y052654D02*
X036730Y052804D01*
X036881Y052879D01*
X037116Y055529D02*
X037041Y055604D01*
X037341Y055904D01*
X037341Y055604D01*
X037266Y055529D01*
X037116Y055529D01*
X037041Y055604D02*
X037041Y055904D01*
X037116Y055979D01*
X037266Y055979D01*
X037341Y055904D01*
X037501Y055904D02*
X037501Y055829D01*
X037576Y055754D01*
X037801Y055754D01*
X037801Y055604D02*
X037801Y055904D01*
X037726Y055979D01*
X037576Y055979D01*
X037501Y055904D01*
X037501Y055604D02*
X037576Y055529D01*
X037726Y055529D01*
X037801Y055604D01*
X036881Y055979D02*
X036580Y055979D01*
X036580Y055529D01*
X036580Y055754D02*
X036730Y055754D01*
X042330Y052804D02*
X042330Y052729D01*
X042405Y052654D01*
X042631Y052654D01*
X042631Y052804D02*
X042555Y052879D01*
X042405Y052879D01*
X042330Y052804D01*
X042330Y052504D02*
X042405Y052429D01*
X042555Y052429D01*
X042631Y052504D01*
X042631Y052804D01*
X042631Y051879D02*
X042330Y051879D01*
X042330Y051654D01*
X042480Y051729D01*
X042555Y051729D01*
X042631Y051654D01*
X042631Y051504D01*
X042555Y051429D01*
X042405Y051429D01*
X042330Y051504D01*
X044980Y053254D02*
X045055Y053179D01*
X044980Y053254D02*
X044980Y053404D01*
X045055Y053479D01*
X045130Y053479D01*
X045430Y053179D01*
X045430Y053479D01*
X045580Y053639D02*
X045430Y053789D01*
X045430Y053714D01*
X045355Y053714D01*
X045355Y053789D01*
X045430Y053789D01*
X045355Y053946D02*
X045430Y054021D01*
X045430Y054171D01*
X045355Y054246D01*
X045205Y054246D01*
X045130Y054171D01*
X045130Y054096D01*
X045205Y053946D01*
X044980Y053946D01*
X044980Y054246D01*
X045205Y054406D02*
X044980Y054631D01*
X045430Y054631D01*
X045205Y054707D02*
X045205Y054406D01*
X051428Y042270D02*
X051879Y042270D01*
X051879Y042120D02*
X051879Y042420D01*
X051578Y042120D02*
X051428Y042270D01*
X052428Y042420D02*
X052503Y042270D01*
X052654Y042120D01*
X052654Y042345D01*
X052729Y042420D01*
X052804Y042420D01*
X052879Y042345D01*
X052879Y042195D01*
X052804Y042120D01*
X052654Y042120D01*
X055528Y042195D02*
X055603Y042120D01*
X055678Y042120D01*
X055754Y042195D01*
X055754Y042420D01*
X055904Y042420D02*
X055603Y042420D01*
X055528Y042345D01*
X055528Y042195D01*
X055603Y041960D02*
X055904Y041659D01*
X055979Y041735D01*
X055979Y041885D01*
X055904Y041960D01*
X055603Y041960D01*
X055528Y041885D01*
X055528Y041735D01*
X055603Y041659D01*
X055904Y041659D01*
X055754Y041349D02*
X055754Y041199D01*
X055979Y041199D02*
X055528Y041199D01*
X055528Y041499D01*
X055904Y042120D02*
X055979Y042195D01*
X055979Y042345D01*
X055904Y042420D01*
X052804Y036670D02*
X052503Y036670D01*
X052428Y036595D01*
X052428Y036445D01*
X052503Y036370D01*
X052578Y036370D01*
X052654Y036445D01*
X052654Y036670D01*
X052804Y036670D02*
X052879Y036595D01*
X052879Y036445D01*
X052804Y036370D01*
X051879Y036445D02*
X051804Y036370D01*
X051879Y036445D02*
X051879Y036595D01*
X051804Y036670D01*
X051654Y036670D01*
X051578Y036595D01*
X051578Y036520D01*
X051654Y036370D01*
X051428Y036370D01*
X051428Y036670D01*
X053254Y034131D02*
X053179Y034056D01*
X053254Y034131D02*
X053404Y034131D01*
X053479Y034056D01*
X053479Y033981D01*
X053179Y033680D01*
X053479Y033680D01*
X053639Y033530D02*
X053789Y033680D01*
X053714Y033680D01*
X053714Y033755D01*
X053789Y033755D01*
X053789Y033680D01*
X053946Y033755D02*
X054021Y033680D01*
X054171Y033680D01*
X054246Y033755D01*
X054246Y033905D01*
X054171Y033981D01*
X054096Y033981D01*
X053946Y033905D01*
X053946Y034131D01*
X054246Y034131D01*
X054406Y033905D02*
X054707Y033905D01*
X054631Y033680D02*
X054631Y034131D01*
X054406Y033905D01*
X055528Y024385D02*
X055528Y024085D01*
X055754Y024085D01*
X055678Y024235D01*
X055678Y024310D01*
X055754Y024385D01*
X055904Y024385D01*
X055979Y024310D01*
X055979Y024160D01*
X055904Y024085D01*
X055979Y023925D02*
X055979Y023624D01*
X055979Y023775D02*
X055528Y023775D01*
X055678Y023624D01*
X055528Y023464D02*
X055528Y023164D01*
X055979Y023164D01*
X055754Y023164D02*
X055754Y023314D01*
X052879Y024160D02*
X052879Y024310D01*
X052804Y024385D01*
X052503Y024385D01*
X052428Y024310D01*
X052428Y024160D01*
X052503Y024085D01*
X052578Y024085D01*
X052654Y024160D01*
X052654Y024385D01*
X052879Y024160D02*
X052804Y024085D01*
X051879Y024085D02*
X051879Y024385D01*
X051879Y024235D02*
X051428Y024235D01*
X051578Y024085D01*
X051578Y015385D02*
X051654Y015310D01*
X051654Y015160D01*
X051578Y015085D01*
X051503Y015085D01*
X051428Y015160D01*
X051428Y015310D01*
X051503Y015385D01*
X051578Y015385D01*
X051654Y015310D02*
X051729Y015385D01*
X051804Y015385D01*
X051879Y015310D01*
X051879Y015160D01*
X051804Y015085D01*
X051729Y015085D01*
X051654Y015160D01*
X052428Y015085D02*
X052654Y015085D01*
X052578Y015235D01*
X052578Y015310D01*
X052654Y015385D01*
X052804Y015385D01*
X052879Y015310D01*
X052879Y015160D01*
X052804Y015085D01*
X052879Y014925D02*
X052879Y014624D01*
X052879Y014775D02*
X052428Y014775D01*
X052578Y014624D01*
X052428Y015085D02*
X052428Y015385D01*
X053254Y012846D02*
X053179Y012771D01*
X053254Y012846D02*
X053404Y012846D01*
X053479Y012771D01*
X053479Y012695D01*
X053179Y012395D01*
X053479Y012395D01*
X053639Y012245D02*
X053789Y012395D01*
X053714Y012395D01*
X053714Y012470D01*
X053789Y012470D01*
X053789Y012395D01*
X053946Y012470D02*
X054021Y012395D01*
X054171Y012395D01*
X054246Y012470D01*
X054246Y012620D01*
X054171Y012695D01*
X054096Y012695D01*
X053946Y012620D01*
X053946Y012846D01*
X054246Y012846D01*
X054406Y012620D02*
X054707Y012620D01*
X054631Y012395D02*
X054631Y012846D01*
X054406Y012620D01*
X042270Y007918D02*
X042270Y007468D01*
X042120Y007468D02*
X042420Y007468D01*
X042120Y007768D02*
X042270Y007918D01*
X042420Y006918D02*
X042270Y006843D01*
X042120Y006693D01*
X042345Y006693D01*
X042420Y006618D01*
X042420Y006543D01*
X042345Y006468D01*
X042195Y006468D01*
X042120Y006543D01*
X042120Y006693D01*
X042195Y003818D02*
X042120Y003743D01*
X042120Y003668D01*
X042195Y003593D01*
X042420Y003593D01*
X042420Y003443D02*
X042420Y003743D01*
X042345Y003818D01*
X042195Y003818D01*
X041960Y003743D02*
X041659Y003443D01*
X041735Y003368D01*
X041885Y003368D01*
X041960Y003443D01*
X041960Y003743D01*
X041885Y003818D01*
X041735Y003818D01*
X041659Y003743D01*
X041659Y003443D01*
X041349Y003593D02*
X041199Y003593D01*
X041199Y003368D02*
X041199Y003818D01*
X041499Y003818D01*
X042120Y003443D02*
X042195Y003368D01*
X042345Y003368D01*
X042420Y003443D01*
X036670Y006543D02*
X036595Y006468D01*
X036445Y006468D01*
X036370Y006543D01*
X036445Y006693D02*
X036670Y006693D01*
X036670Y006543D02*
X036670Y006843D01*
X036595Y006918D01*
X036445Y006918D01*
X036370Y006843D01*
X036370Y006768D01*
X036445Y006693D01*
X036445Y007468D02*
X036370Y007543D01*
X036445Y007468D02*
X036595Y007468D01*
X036670Y007543D01*
X036670Y007693D01*
X036595Y007768D01*
X036520Y007768D01*
X036370Y007693D01*
X036370Y007918D01*
X036670Y007918D01*
X034130Y005983D02*
X033680Y005983D01*
X033905Y005758D01*
X033905Y006058D01*
X033905Y005597D02*
X034055Y005597D01*
X034130Y005522D01*
X034130Y005372D01*
X034055Y005297D01*
X033905Y005297D02*
X033830Y005447D01*
X033830Y005522D01*
X033905Y005597D01*
X033680Y005597D02*
X033680Y005297D01*
X033905Y005297D01*
X034055Y005140D02*
X034055Y005065D01*
X034130Y005065D01*
X034130Y005140D01*
X034055Y005140D01*
X034130Y005140D02*
X034280Y004990D01*
X034130Y004830D02*
X034130Y004530D01*
X033830Y004830D01*
X033755Y004830D01*
X033680Y004755D01*
X033680Y004605D01*
X033755Y004530D01*
X022735Y003743D02*
X022735Y003443D01*
X022660Y003368D01*
X022510Y003368D01*
X022435Y003443D01*
X022275Y003443D02*
X022200Y003368D01*
X022049Y003368D01*
X021974Y003443D01*
X022275Y003743D01*
X022275Y003443D01*
X022435Y003668D02*
X022510Y003593D01*
X022735Y003593D01*
X022735Y003743D02*
X022660Y003818D01*
X022510Y003818D01*
X022435Y003743D01*
X022435Y003668D01*
X022275Y003743D02*
X022200Y003818D01*
X022049Y003818D01*
X021974Y003743D01*
X021974Y003443D01*
X021664Y003593D02*
X021514Y003593D01*
X021514Y003368D02*
X021514Y003818D01*
X021814Y003818D01*
X022510Y006468D02*
X022660Y006468D01*
X022735Y006543D01*
X022735Y006618D01*
X022660Y006693D01*
X022435Y006693D01*
X022435Y006543D01*
X022510Y006468D01*
X022435Y006693D02*
X022585Y006843D01*
X022735Y006918D01*
X022735Y007468D02*
X022435Y007468D01*
X022585Y007468D02*
X022585Y007918D01*
X022435Y007768D01*
X019122Y011722D02*
X019124Y011753D01*
X019130Y011784D01*
X019140Y011814D01*
X019153Y011842D01*
X019170Y011869D01*
X019190Y011893D01*
X019213Y011915D01*
X019238Y011933D01*
X019266Y011948D01*
X019295Y011960D01*
X019325Y011968D01*
X019356Y011972D01*
X019388Y011972D01*
X019419Y011968D01*
X019449Y011960D01*
X019478Y011948D01*
X019506Y011933D01*
X019531Y011915D01*
X019554Y011893D01*
X019574Y011869D01*
X019591Y011842D01*
X019604Y011814D01*
X019614Y011784D01*
X019620Y011753D01*
X019622Y011722D01*
X019620Y011691D01*
X019614Y011660D01*
X019604Y011630D01*
X019591Y011602D01*
X019574Y011575D01*
X019554Y011551D01*
X019531Y011529D01*
X019506Y011511D01*
X019478Y011496D01*
X019449Y011484D01*
X019419Y011476D01*
X019388Y011472D01*
X019356Y011472D01*
X019325Y011476D01*
X019295Y011484D01*
X019266Y011496D01*
X019238Y011511D01*
X019213Y011529D01*
X019190Y011551D01*
X019170Y011575D01*
X019153Y011602D01*
X019140Y011630D01*
X019130Y011660D01*
X019124Y011691D01*
X019122Y011722D01*
X016985Y007918D02*
X016685Y007918D01*
X016685Y007693D01*
X016835Y007768D01*
X016910Y007768D01*
X016985Y007693D01*
X016985Y007543D01*
X016910Y007468D01*
X016760Y007468D01*
X016685Y007543D01*
X016760Y006918D02*
X016685Y006843D01*
X016685Y006768D01*
X016760Y006693D01*
X016985Y006693D01*
X016985Y006543D02*
X016985Y006843D01*
X016910Y006918D01*
X016760Y006918D01*
X016685Y006543D02*
X016760Y006468D01*
X016910Y006468D01*
X016985Y006543D01*
X014445Y005983D02*
X013995Y005983D01*
X014220Y005758D01*
X014220Y006058D01*
X014220Y005597D02*
X014370Y005597D01*
X014445Y005522D01*
X014445Y005372D01*
X014370Y005297D01*
X014220Y005297D02*
X014145Y005447D01*
X014145Y005522D01*
X014220Y005597D01*
X013995Y005597D02*
X013995Y005297D01*
X014220Y005297D01*
X014370Y005140D02*
X014370Y005065D01*
X014445Y005065D01*
X014445Y005140D01*
X014370Y005140D01*
X014445Y005140D02*
X014595Y004990D01*
X014445Y004830D02*
X014445Y004530D01*
X014145Y004830D01*
X014070Y004830D01*
X013995Y004755D01*
X013995Y004605D01*
X014070Y004530D01*
X007918Y013670D02*
X007918Y013971D01*
X007918Y013821D02*
X007468Y013821D01*
X007618Y013670D01*
X006918Y013745D02*
X006918Y013896D01*
X006843Y013971D01*
X006543Y013971D01*
X006468Y013896D01*
X006468Y013745D01*
X006543Y013670D01*
X006618Y013670D01*
X006693Y013745D01*
X006693Y013971D01*
X006918Y013745D02*
X006843Y013670D01*
X003818Y013670D02*
X003368Y013670D01*
X003368Y013971D01*
X003518Y014131D02*
X003368Y014281D01*
X003818Y014281D01*
X003818Y014131D02*
X003818Y014431D01*
X003743Y014591D02*
X003818Y014666D01*
X003818Y014816D01*
X003743Y014891D01*
X003593Y014891D01*
X003518Y014816D01*
X003518Y014741D01*
X003593Y014591D01*
X003368Y014591D01*
X003368Y014891D01*
X003593Y013821D02*
X003593Y013670D01*
X006618Y022670D02*
X006468Y022821D01*
X006918Y022821D01*
X006918Y022971D02*
X006918Y022670D01*
X006843Y023131D02*
X006918Y023206D01*
X006918Y023356D01*
X006843Y023431D01*
X006693Y023431D01*
X006618Y023356D01*
X006618Y023281D01*
X006693Y023131D01*
X006468Y023131D01*
X006468Y023431D01*
X007468Y022896D02*
X007543Y022971D01*
X007618Y022971D01*
X007693Y022896D01*
X007693Y022745D01*
X007618Y022670D01*
X007543Y022670D01*
X007468Y022745D01*
X007468Y022896D01*
X007693Y022896D02*
X007768Y022971D01*
X007843Y022971D01*
X007918Y022896D01*
X007918Y022745D01*
X007843Y022670D01*
X007768Y022670D01*
X007693Y022745D01*
X005983Y025320D02*
X005983Y025771D01*
X005758Y025546D01*
X006058Y025546D01*
X005597Y025546D02*
X005597Y025395D01*
X005522Y025320D01*
X005372Y025320D01*
X005297Y025395D01*
X005297Y025546D02*
X005447Y025621D01*
X005522Y025621D01*
X005597Y025546D01*
X005597Y025771D02*
X005297Y025771D01*
X005297Y025546D01*
X005140Y025395D02*
X005065Y025395D01*
X005065Y025320D01*
X005140Y025320D01*
X005140Y025395D01*
X005140Y025320D02*
X004990Y025170D01*
X004830Y025320D02*
X004530Y025320D01*
X004830Y025621D01*
X004830Y025696D01*
X004755Y025771D01*
X004605Y025771D01*
X004530Y025696D01*
X003818Y036580D02*
X003368Y036580D01*
X003368Y036881D01*
X003443Y037041D02*
X003368Y037116D01*
X003368Y037266D01*
X003443Y037341D01*
X003743Y037041D01*
X003818Y037116D01*
X003818Y037266D01*
X003743Y037341D01*
X003443Y037341D01*
X003443Y037501D02*
X003518Y037501D01*
X003593Y037576D01*
X003593Y037801D01*
X003743Y037801D02*
X003443Y037801D01*
X003368Y037726D01*
X003368Y037576D01*
X003443Y037501D01*
X003743Y037501D02*
X003818Y037576D01*
X003818Y037726D01*
X003743Y037801D01*
X003743Y037041D02*
X003443Y037041D01*
X003593Y036730D02*
X003593Y036580D01*
X006468Y036881D02*
X006543Y036730D01*
X006693Y036580D01*
X006693Y036805D01*
X006768Y036881D01*
X006843Y036881D01*
X006918Y036805D01*
X006918Y036655D01*
X006843Y036580D01*
X006693Y036580D01*
X007468Y036730D02*
X007918Y036730D01*
X007918Y036580D02*
X007918Y036881D01*
X007618Y036580D02*
X007468Y036730D01*
X007468Y042330D02*
X007693Y042330D01*
X007618Y042480D01*
X007618Y042555D01*
X007693Y042631D01*
X007843Y042631D01*
X007918Y042555D01*
X007918Y042405D01*
X007843Y042330D01*
X007468Y042330D02*
X007468Y042631D01*
X006918Y042555D02*
X006843Y042631D01*
X006543Y042631D01*
X006468Y042555D01*
X006468Y042405D01*
X006543Y042330D01*
X006618Y042330D01*
X006693Y042405D01*
X006693Y042631D01*
X006918Y042555D02*
X006918Y042405D01*
X006843Y042330D01*
X005983Y044980D02*
X005983Y045431D01*
X005758Y045205D01*
X006058Y045205D01*
X005597Y045205D02*
X005597Y045055D01*
X005522Y044980D01*
X005372Y044980D01*
X005297Y045055D01*
X005297Y045205D02*
X005447Y045281D01*
X005522Y045281D01*
X005597Y045205D01*
X005597Y045431D02*
X005297Y045431D01*
X005297Y045205D01*
X005140Y045055D02*
X005065Y045055D01*
X005065Y044980D01*
X005140Y044980D01*
X005140Y045055D01*
X005140Y044980D02*
X004990Y044830D01*
X004830Y044980D02*
X004530Y044980D01*
X004830Y045281D01*
X004830Y045356D01*
X004755Y045431D01*
X004605Y045431D01*
X004530Y045356D01*
X016895Y051429D02*
X017195Y051429D01*
X017045Y051429D02*
X017045Y051879D01*
X016895Y051729D01*
X016970Y052429D02*
X017120Y052429D01*
X017195Y052504D01*
X017195Y052579D01*
X017120Y052654D01*
X016895Y052654D01*
X016895Y052504D01*
X016970Y052429D01*
X016895Y052654D02*
X017045Y052804D01*
X017195Y052879D01*
X017431Y055529D02*
X017356Y055604D01*
X017656Y055904D01*
X017656Y055604D01*
X017581Y055529D01*
X017431Y055529D01*
X017356Y055604D02*
X017356Y055904D01*
X017431Y055979D01*
X017581Y055979D01*
X017656Y055904D01*
X017816Y055904D02*
X017816Y055829D01*
X017891Y055754D01*
X018116Y055754D01*
X018116Y055604D02*
X018116Y055904D01*
X018041Y055979D01*
X017891Y055979D01*
X017816Y055904D01*
X017816Y055604D02*
X017891Y055529D01*
X018041Y055529D01*
X018116Y055604D01*
X017195Y055979D02*
X016895Y055979D01*
X016895Y055529D01*
X016895Y055754D02*
X017045Y055754D01*
X022645Y052804D02*
X022645Y052729D01*
X022720Y052654D01*
X022945Y052654D01*
X022945Y052804D02*
X022870Y052879D01*
X022720Y052879D01*
X022645Y052804D01*
X022645Y052504D02*
X022720Y052429D01*
X022870Y052429D01*
X022945Y052504D01*
X022945Y052804D01*
X022945Y051879D02*
X022645Y051879D01*
X022645Y051654D01*
X022795Y051729D01*
X022870Y051729D01*
X022945Y051654D01*
X022945Y051504D01*
X022870Y051429D01*
X022720Y051429D01*
X022645Y051504D01*
X025295Y053254D02*
X025370Y053179D01*
X025295Y053254D02*
X025295Y053404D01*
X025370Y053479D01*
X025445Y053479D01*
X025745Y053179D01*
X025745Y053479D01*
X025895Y053639D02*
X025745Y053789D01*
X025745Y053714D01*
X025670Y053714D01*
X025670Y053789D01*
X025745Y053789D01*
X025670Y053946D02*
X025745Y054021D01*
X025745Y054171D01*
X025670Y054246D01*
X025520Y054246D01*
X025445Y054171D01*
X025445Y054096D01*
X025520Y053946D01*
X025295Y053946D01*
X025295Y054246D01*
X025520Y054406D02*
X025295Y054631D01*
X025745Y054631D01*
X025520Y054707D02*
X025520Y054406D01*
X015672Y023172D02*
X015674Y023203D01*
X015680Y023234D01*
X015690Y023264D01*
X015703Y023292D01*
X015720Y023319D01*
X015740Y023343D01*
X015763Y023365D01*
X015788Y023383D01*
X015816Y023398D01*
X015845Y023410D01*
X015875Y023418D01*
X015906Y023422D01*
X015938Y023422D01*
X015969Y023418D01*
X015999Y023410D01*
X016028Y023398D01*
X016056Y023383D01*
X016081Y023365D01*
X016104Y023343D01*
X016124Y023319D01*
X016141Y023292D01*
X016154Y023264D01*
X016164Y023234D01*
X016170Y023203D01*
X016172Y023172D01*
X016170Y023141D01*
X016164Y023110D01*
X016154Y023080D01*
X016141Y023052D01*
X016124Y023025D01*
X016104Y023001D01*
X016081Y022979D01*
X016056Y022961D01*
X016028Y022946D01*
X015999Y022934D01*
X015969Y022926D01*
X015938Y022922D01*
X015906Y022922D01*
X015875Y022926D01*
X015845Y022934D01*
X015816Y022946D01*
X015788Y022961D01*
X015763Y022979D01*
X015740Y023001D01*
X015720Y023025D01*
X015703Y023052D01*
X015690Y023080D01*
X015680Y023110D01*
X015674Y023141D01*
X015672Y023172D01*
D20*
X019870Y004343D03*
X039555Y004343D03*
X039555Y055004D03*
X019870Y055004D03*
D21*
X019870Y056654D03*
X039555Y056654D03*
X039555Y002693D03*
X019870Y002693D03*
D22*
X019880Y005918D03*
X020950Y005918D03*
X022030Y005918D03*
X018790Y005918D03*
X017710Y005918D03*
X037395Y005918D03*
X038475Y005918D03*
X039565Y005918D03*
X040635Y005918D03*
X041715Y005918D03*
X041715Y053429D03*
X040635Y053429D03*
X039545Y053429D03*
X038475Y053429D03*
X037395Y053429D03*
X022030Y053429D03*
X020950Y053429D03*
X019860Y053429D03*
X018790Y053429D03*
X017710Y053429D03*
D23*
X018250Y053929D03*
X019330Y053929D03*
X020400Y053929D03*
X021490Y053929D03*
X037935Y053929D03*
X039015Y053929D03*
X040085Y053929D03*
X041175Y053929D03*
X041175Y005418D03*
X040095Y005418D03*
X039025Y005418D03*
X037935Y005418D03*
X021490Y005418D03*
X020410Y005418D03*
X019340Y005418D03*
X018250Y005418D03*
D24*
X020589Y008554D02*
X021010Y009185D01*
X021234Y008869D02*
X021549Y008869D01*
X021654Y008764D01*
X021654Y008659D01*
X021549Y008554D01*
X021339Y008554D01*
X021234Y008659D01*
X021234Y008869D01*
X021444Y009079D01*
X021654Y009185D01*
X021878Y008869D02*
X022299Y008869D01*
X022523Y008869D02*
X022838Y008869D01*
X022943Y008764D01*
X022943Y008659D01*
X022838Y008554D01*
X022523Y008554D01*
X022523Y009185D01*
X022838Y009185D01*
X022943Y009079D01*
X022943Y008974D01*
X022838Y008869D01*
X023167Y008869D02*
X023588Y008869D01*
X023588Y008974D02*
X023588Y008554D01*
X023588Y008974D02*
X023377Y009185D01*
X023167Y008974D01*
X023167Y008554D01*
X024022Y008554D02*
X024022Y009185D01*
X023812Y009185D02*
X024232Y009185D01*
X024456Y009185D02*
X024877Y009185D01*
X024666Y009185D02*
X024666Y008554D01*
X025101Y008554D02*
X025101Y009185D01*
X025521Y009185D01*
X025745Y009185D02*
X026061Y009185D01*
X026166Y009079D01*
X026166Y008869D01*
X026061Y008764D01*
X025745Y008764D01*
X025745Y008554D02*
X025745Y009185D01*
X025956Y008764D02*
X026166Y008554D01*
X026600Y008554D02*
X026600Y008869D01*
X026810Y009079D01*
X026810Y009185D01*
X026600Y008869D02*
X026390Y009079D01*
X026390Y009185D01*
X025521Y008554D02*
X025101Y008554D01*
X025101Y008869D02*
X025311Y008869D01*
X021010Y008554D02*
X020589Y009185D01*
X009658Y011880D02*
X009028Y012301D01*
X009028Y012525D02*
X009028Y012945D01*
X009133Y012945D01*
X009553Y012525D01*
X009658Y012525D01*
X009658Y012301D02*
X009028Y011880D01*
X009343Y013169D02*
X009343Y013590D01*
X009553Y013814D02*
X009028Y013814D01*
X009028Y014234D02*
X009553Y014234D01*
X009658Y014129D01*
X009658Y013919D01*
X009553Y013814D01*
X009448Y014459D02*
X009448Y014774D01*
X009343Y014879D01*
X009133Y014879D01*
X009028Y014774D01*
X009028Y014459D01*
X009658Y014459D01*
X009658Y015103D02*
X009028Y015103D01*
X009658Y015103D02*
X009658Y015523D01*
X009658Y015748D02*
X009658Y015958D01*
X009658Y015853D02*
X009028Y015853D01*
X009028Y015748D02*
X009028Y015958D01*
X009028Y016177D02*
X009658Y016598D01*
X009028Y016598D01*
X009028Y016822D02*
X009658Y016822D01*
X009448Y016822D02*
X009028Y017242D01*
X009343Y016927D02*
X009658Y017242D01*
X009658Y016177D02*
X009028Y016177D01*
X008834Y036657D02*
X009464Y037077D01*
X009359Y037301D02*
X009254Y037301D01*
X009149Y037406D01*
X009149Y037617D01*
X009254Y037722D01*
X009359Y037722D01*
X009464Y037617D01*
X009464Y037406D01*
X009359Y037301D01*
X009149Y037406D02*
X009044Y037301D01*
X008939Y037301D01*
X008834Y037406D01*
X008834Y037617D01*
X008939Y037722D01*
X009044Y037722D01*
X009149Y037617D01*
X009149Y037946D02*
X009149Y038366D01*
X009044Y038590D02*
X009149Y038696D01*
X009149Y038906D01*
X009254Y039011D01*
X009359Y039011D01*
X009464Y038906D01*
X009464Y038696D01*
X009359Y038590D01*
X009044Y038590D02*
X008939Y038590D01*
X008834Y038696D01*
X008834Y038906D01*
X008939Y039011D01*
X008834Y039235D02*
X008834Y039550D01*
X008939Y039655D01*
X009149Y039655D01*
X009254Y039550D01*
X009254Y039235D01*
X009464Y039235D02*
X008834Y039235D01*
X008939Y039879D02*
X008834Y039985D01*
X008834Y040195D01*
X008939Y040300D01*
X009044Y040300D01*
X009464Y039879D01*
X009464Y040300D01*
X008834Y037077D02*
X009464Y036657D01*
X015722Y049901D02*
X016142Y050531D01*
X016366Y050321D02*
X016577Y050531D01*
X016577Y049901D01*
X016787Y049901D02*
X016366Y049901D01*
X016142Y049901D02*
X015722Y050531D01*
X017011Y050216D02*
X017431Y050216D01*
X017655Y050321D02*
X017761Y050216D01*
X017971Y050216D01*
X018076Y050111D01*
X018076Y050006D01*
X017971Y049901D01*
X017761Y049901D01*
X017655Y050006D01*
X017655Y050321D02*
X017655Y050426D01*
X017761Y050531D01*
X017971Y050531D01*
X018076Y050426D01*
X018300Y050531D02*
X018300Y049901D01*
X018300Y050111D02*
X018615Y050111D01*
X018720Y050216D01*
X018720Y050426D01*
X018615Y050531D01*
X018300Y050531D01*
X018945Y050216D02*
X019365Y050216D01*
X019260Y049901D02*
X019260Y050531D01*
X018945Y050216D01*
X036037Y050381D02*
X036457Y049751D01*
X036681Y049751D02*
X037102Y050171D01*
X037102Y050276D01*
X036997Y050381D01*
X036786Y050381D01*
X036681Y050276D01*
X036457Y050381D02*
X036037Y049751D01*
X036681Y049751D02*
X037102Y049751D01*
X037326Y050066D02*
X037746Y050066D01*
X037970Y050171D02*
X038076Y050066D01*
X038286Y050066D01*
X038391Y049961D01*
X038391Y049856D01*
X038286Y049751D01*
X038076Y049751D01*
X037970Y049856D01*
X037970Y050171D02*
X037970Y050276D01*
X038076Y050381D01*
X038286Y050381D01*
X038391Y050276D01*
X038615Y050381D02*
X038615Y049751D01*
X038615Y049961D02*
X038930Y049961D01*
X039035Y050066D01*
X039035Y050276D01*
X038930Y050381D01*
X038615Y050381D01*
X039259Y050276D02*
X039365Y050381D01*
X039575Y050381D01*
X039680Y050276D01*
X039680Y050171D01*
X039575Y050066D01*
X039680Y049961D01*
X039680Y049856D01*
X039575Y049751D01*
X039365Y049751D01*
X039259Y049856D01*
X039470Y050066D02*
X039575Y050066D01*
X049930Y042407D02*
X050561Y042407D01*
X050561Y042197D02*
X050561Y042617D01*
X050140Y042197D02*
X049930Y042407D01*
X050035Y041973D02*
X050245Y041973D01*
X050350Y041867D01*
X050350Y041552D01*
X050561Y041552D02*
X049930Y041552D01*
X049930Y041867D01*
X050035Y041973D01*
X050035Y041328D02*
X049930Y041223D01*
X049930Y041013D01*
X050035Y040908D01*
X050140Y040908D01*
X050245Y041013D01*
X050245Y041223D01*
X050350Y041328D01*
X050455Y041328D01*
X050561Y041223D01*
X050561Y041013D01*
X050455Y040908D01*
X050245Y040684D02*
X050245Y040263D01*
X050140Y040039D02*
X050245Y039934D01*
X050350Y040039D01*
X050455Y040039D01*
X050561Y039934D01*
X050561Y039724D01*
X050455Y039619D01*
X050561Y039394D02*
X049930Y038974D01*
X049930Y039394D02*
X050561Y038974D01*
X050035Y039619D02*
X049930Y039724D01*
X049930Y039934D01*
X050035Y040039D01*
X050140Y040039D01*
X050245Y039934D02*
X050245Y039829D01*
X050143Y018131D02*
X050038Y018026D01*
X050038Y017816D01*
X050143Y017711D01*
X050564Y017711D01*
X050669Y017816D01*
X050669Y018026D01*
X050564Y018131D01*
X050564Y017486D02*
X050669Y017381D01*
X050669Y017066D01*
X050038Y017066D01*
X050038Y017381D01*
X050143Y017486D01*
X050248Y017486D01*
X050353Y017381D01*
X050353Y017066D01*
X050143Y016842D02*
X050038Y016737D01*
X050038Y016527D01*
X050143Y016422D01*
X050564Y016422D01*
X050669Y016527D01*
X050669Y016737D01*
X050564Y016842D01*
X050143Y016842D01*
X050353Y017381D02*
X050459Y017486D01*
X050564Y017486D01*
X050353Y016197D02*
X050353Y015777D01*
X050353Y015553D02*
X050353Y015132D01*
X050038Y015448D01*
X050669Y015448D01*
X050669Y014908D02*
X050038Y014488D01*
X050038Y014908D02*
X050669Y014488D01*
X033090Y007771D02*
X032460Y007771D01*
X032460Y008087D01*
X032565Y008192D01*
X032775Y008192D01*
X032880Y008087D01*
X032880Y007771D01*
X032775Y007547D02*
X032775Y007127D01*
X032670Y007127D02*
X032460Y007337D01*
X032670Y007547D01*
X033090Y007547D01*
X033090Y007127D02*
X032670Y007127D01*
X032460Y006903D02*
X033090Y006903D01*
X032460Y006482D01*
X033090Y006482D01*
X032985Y006258D02*
X033090Y006153D01*
X033090Y005943D01*
X032985Y005838D01*
X032775Y005943D02*
X032670Y005838D01*
X032565Y005838D01*
X032460Y005943D01*
X032460Y006153D01*
X032565Y006258D01*
X032775Y006153D02*
X032880Y006258D01*
X032985Y006258D01*
X032775Y006153D02*
X032775Y005943D01*
X032775Y005614D02*
X032775Y005193D01*
X032775Y004969D02*
X032985Y004969D01*
X033090Y004864D01*
X033090Y004654D01*
X032985Y004549D01*
X032775Y004549D02*
X032670Y004759D01*
X032670Y004864D01*
X032775Y004969D01*
X032460Y004969D02*
X032460Y004549D01*
X032775Y004549D01*
X032460Y004324D02*
X033090Y003904D01*
X033090Y004324D02*
X032460Y003904D01*
D25*
X055004Y039555D03*
X004343Y039555D03*
D26*
X002693Y039555D03*
X056654Y039555D03*
D27*
X053429Y039565D03*
X053429Y040635D03*
X053429Y041715D03*
X053429Y038475D03*
X053429Y037395D03*
X053429Y023650D03*
X053429Y022570D03*
X053429Y021490D03*
X053429Y020410D03*
X053429Y019330D03*
X053429Y018250D03*
X053429Y017170D03*
X053429Y016090D03*
X005918Y015595D03*
X005918Y014515D03*
X005918Y016675D03*
X005918Y017755D03*
X005918Y018835D03*
X005918Y019915D03*
X005918Y020995D03*
X005918Y022075D03*
X005918Y037395D03*
X005918Y038475D03*
X005918Y039545D03*
X005918Y040635D03*
X005918Y041715D03*
D28*
X005418Y041175D03*
X005418Y040085D03*
X005418Y039015D03*
X005418Y037935D03*
X005418Y021535D03*
X005418Y020455D03*
X005418Y019375D03*
X005418Y018295D03*
X005418Y017215D03*
X005418Y016135D03*
X005418Y015055D03*
X053929Y016630D03*
X053929Y017710D03*
X053929Y018790D03*
X053929Y019870D03*
X053929Y020950D03*
X053929Y022030D03*
X053929Y023110D03*
X053929Y037935D03*
X053929Y039025D03*
X053929Y040095D03*
X053929Y041175D03*
D29*
X055004Y019895D03*
X004343Y018270D03*
D30*
X002693Y018270D03*
X056654Y019895D03*
D31*
X043553Y012693D02*
X043553Y011551D01*
X042844Y011551D01*
X042844Y012693D01*
X043553Y012693D01*
D32*
X043681Y012496D03*
X043681Y012122D03*
X043681Y011748D03*
X042716Y011748D03*
X042716Y012122D03*
X042716Y012496D03*
D33*
X043356Y011748D03*
D34*
X043287Y011169D02*
X043287Y010915D01*
X043096Y011105D01*
X043477Y011105D01*
X043477Y010800D02*
X043477Y010547D01*
X043223Y010800D01*
X043160Y010800D01*
X043096Y010737D01*
X043096Y010610D01*
X043160Y010547D01*
X043160Y010432D02*
X043223Y010432D01*
X043287Y010369D01*
X043350Y010432D01*
X043413Y010432D01*
X043477Y010369D01*
X043477Y010242D01*
X043413Y010178D01*
X043413Y010064D02*
X043350Y010064D01*
X043287Y010000D01*
X043287Y009810D01*
X043413Y009810D01*
X043477Y009874D01*
X043477Y010000D01*
X043413Y010064D01*
X043287Y010305D02*
X043287Y010369D01*
X043160Y010432D02*
X043096Y010369D01*
X043096Y010242D01*
X043160Y010178D01*
X043096Y010064D02*
X043160Y009937D01*
X043287Y009810D01*
X043413Y009695D02*
X043477Y009632D01*
X043477Y009505D01*
X043413Y009442D01*
X043160Y009442D01*
X043096Y009505D01*
X043096Y009632D01*
X043160Y009695D01*
X043160Y009327D02*
X043096Y009264D01*
X043096Y009074D01*
X043477Y009074D01*
X043477Y009264D01*
X043413Y009327D01*
X043160Y009327D01*
X043096Y008959D02*
X043096Y008705D01*
X043477Y008705D01*
X043287Y008705D02*
X043287Y008832D01*
X044101Y012664D02*
X044227Y012664D01*
X044164Y012664D02*
X044164Y013045D01*
X044101Y013045D02*
X044227Y013045D01*
X044346Y012981D02*
X044346Y012728D01*
X044410Y012664D01*
X044536Y012664D01*
X044600Y012728D01*
X044715Y012664D02*
X044968Y012664D01*
X044841Y012664D02*
X044841Y013045D01*
X044715Y012918D01*
X044600Y012981D02*
X044536Y013045D01*
X044410Y013045D01*
X044346Y012981D01*
X045083Y012981D02*
X045146Y013045D01*
X045273Y013045D01*
X045336Y012981D01*
X045083Y012728D01*
X045146Y012664D01*
X045273Y012664D01*
X045336Y012728D01*
X045336Y012981D01*
X045083Y012981D02*
X045083Y012728D01*
X019702Y014272D02*
X019702Y016272D01*
D35*
X021212Y011722D03*
D36*
X015922Y021332D03*
M02*
