G75*
G70*
%OFA0B0*%
%FSLAX24Y24*%
%IPPOS*%
%LPD*%
%AMOC8*
5,1,8,0,0,1.08239X$1,22.5*
%
%ADD10R,0.0700X0.3800*%
%ADD11C,0.0740*%
%ADD12C,0.2080*%
%ADD13C,0.0640*%
%ADD14C,0.0680*%
%ADD15R,0.0237X0.0671*%
%ADD16C,0.0654*%
%ADD17C,0.1386*%
%ADD18R,0.0671X0.0671*%
%ADD19R,0.0710X0.0867*%
%ADD20R,0.0671X0.0867*%
%ADD21C,0.0730*%
%ADD22C,0.1660*%
%ADD23R,0.0867X0.0710*%
%ADD24R,0.0671X0.0671*%
%ADD25C,0.0595*%
%ADD26C,0.0671*%
%ADD27C,0.0600*%
%ADD28R,0.0710X0.0789*%
%ADD29R,0.1104X0.0710*%
%ADD30R,0.1458X0.0710*%
%ADD31C,0.0437*%
D10*
G36*
X018109Y011143D02*
X017615Y010649D01*
X014929Y013335D01*
X015423Y013829D01*
X018109Y011143D01*
G37*
G36*
X020509Y013543D02*
X020015Y013049D01*
X017329Y015735D01*
X017823Y016229D01*
X020509Y013543D01*
G37*
D11*
X012201Y012092D03*
X009697Y016938D03*
X006869Y014110D03*
X007696Y021299D03*
X006696Y021839D03*
X007696Y022379D03*
X007696Y023459D03*
X007696Y024539D03*
X007696Y025619D03*
X006696Y025079D03*
X006696Y023999D03*
X006696Y022919D03*
X009462Y032918D03*
X010226Y033682D03*
X010990Y034445D03*
X011753Y035209D03*
X012517Y035973D03*
X013281Y036736D03*
X014044Y037500D03*
X014808Y038264D03*
X013719Y038589D03*
X012955Y037825D03*
X012192Y037062D03*
X011428Y036298D03*
X010664Y035534D03*
X009901Y034771D03*
X009137Y034007D03*
X016787Y027478D03*
X019615Y030306D03*
X024401Y030992D03*
X024401Y031992D03*
X024401Y032992D03*
X026401Y032992D03*
X026401Y031992D03*
X026401Y030992D03*
X027901Y030992D03*
X027901Y031992D03*
X027901Y032992D03*
X029901Y032992D03*
X029901Y031992D03*
X029901Y030992D03*
X025001Y023794D03*
X021001Y023794D03*
X035101Y040492D03*
X035101Y041492D03*
X035101Y042492D03*
X037101Y042492D03*
X037101Y041492D03*
X037101Y040492D03*
X030333Y040906D03*
X029253Y040906D03*
X028173Y040906D03*
X027093Y040906D03*
X026013Y040906D03*
X025473Y041906D03*
X024393Y041906D03*
X023313Y041906D03*
X022773Y040906D03*
X023853Y040906D03*
X024933Y040906D03*
X026553Y041906D03*
X027633Y041906D03*
X028713Y041906D03*
X029793Y041906D03*
D12*
X033113Y041406D03*
X019993Y041406D03*
X016420Y040583D03*
X007143Y031306D03*
X007196Y028389D03*
X007196Y018529D03*
D13*
X023894Y004942D03*
X024894Y004942D03*
X025894Y004942D03*
X025894Y003942D03*
X024894Y003942D03*
X023894Y003942D03*
D14*
X023414Y007842D03*
X024394Y007842D03*
X025394Y007842D03*
X026374Y007842D03*
X027364Y007842D03*
X030531Y006694D03*
X031521Y006694D03*
X032501Y006694D03*
X033501Y006694D03*
X034481Y006694D03*
X035471Y006694D03*
X035471Y003394D03*
X034481Y003394D03*
X033501Y003394D03*
X032501Y003394D03*
X031521Y003394D03*
X030531Y003394D03*
X035701Y010104D03*
X035701Y011094D03*
X035701Y012084D03*
X035701Y015224D03*
X035701Y016214D03*
X035701Y017194D03*
X035701Y018194D03*
X035701Y019174D03*
X035701Y020164D03*
X039101Y020164D03*
X039101Y019174D03*
X039101Y018194D03*
X039101Y017194D03*
X039101Y016214D03*
X039101Y015224D03*
X039101Y012084D03*
X039101Y011094D03*
X039101Y010104D03*
X042601Y010104D03*
X042601Y011094D03*
X042601Y012084D03*
X042651Y015222D03*
X042651Y016212D03*
X042651Y017192D03*
X042651Y018192D03*
X042651Y019172D03*
X042651Y020162D03*
X044827Y023750D03*
X044827Y024750D03*
X044827Y025750D03*
X044827Y026750D03*
X044827Y027750D03*
X044827Y028750D03*
X044827Y029750D03*
X044827Y030750D03*
X044827Y031750D03*
X044827Y032750D03*
X035772Y032750D03*
X035772Y031750D03*
X035772Y030750D03*
X035772Y029750D03*
X035772Y028750D03*
X035772Y027750D03*
X035772Y026750D03*
X035772Y025750D03*
X035772Y024750D03*
X035772Y023750D03*
X032301Y026424D03*
X032301Y027414D03*
X032301Y028394D03*
X032301Y029394D03*
X032301Y030374D03*
X032301Y031364D03*
X029101Y028384D03*
X029101Y027394D03*
X029101Y026404D03*
X025201Y026404D03*
X025201Y027394D03*
X025201Y028384D03*
X022001Y028394D03*
X022001Y027414D03*
X022001Y026424D03*
X022001Y029394D03*
X022001Y030374D03*
X022001Y031364D03*
X019048Y033654D03*
X019741Y034347D03*
X020441Y035047D03*
X018351Y037347D03*
X017651Y036647D03*
X016958Y035954D03*
X016250Y035247D03*
X015557Y034554D03*
X014857Y033854D03*
X016947Y031554D03*
X017647Y032254D03*
X018340Y032947D03*
X014808Y029287D03*
X014108Y028587D03*
X013408Y027887D03*
X011108Y030187D03*
X011808Y030887D03*
X012508Y031587D03*
X017112Y025207D03*
X017112Y024217D03*
X017112Y023227D03*
X022424Y007842D03*
X019584Y002499D03*
X018594Y002499D03*
X017604Y002499D03*
D15*
G36*
X017979Y011537D02*
X018146Y011370D01*
X017673Y010897D01*
X017506Y011064D01*
X017979Y011537D01*
G37*
G36*
X017798Y011718D02*
X017965Y011551D01*
X017492Y011078D01*
X017325Y011245D01*
X017798Y011718D01*
G37*
G36*
X017617Y011899D02*
X017784Y011732D01*
X017311Y011259D01*
X017144Y011426D01*
X017617Y011899D01*
G37*
G36*
X017436Y012079D02*
X017603Y011912D01*
X017130Y011439D01*
X016963Y011606D01*
X017436Y012079D01*
G37*
G36*
X017255Y012260D02*
X017422Y012093D01*
X016949Y011620D01*
X016782Y011787D01*
X017255Y012260D01*
G37*
G36*
X017074Y012441D02*
X017241Y012274D01*
X016768Y011801D01*
X016601Y011968D01*
X017074Y012441D01*
G37*
G36*
X016893Y012622D02*
X017060Y012455D01*
X016587Y011982D01*
X016420Y012149D01*
X016893Y012622D01*
G37*
G36*
X016712Y012803D02*
X016879Y012636D01*
X016406Y012163D01*
X016239Y012330D01*
X016712Y012803D01*
G37*
G36*
X016531Y012984D02*
X016698Y012817D01*
X016225Y012344D01*
X016058Y012511D01*
X016531Y012984D01*
G37*
G36*
X016350Y013165D02*
X016517Y012998D01*
X016044Y012525D01*
X015877Y012692D01*
X016350Y013165D01*
G37*
G36*
X016169Y013346D02*
X016336Y013179D01*
X015863Y012706D01*
X015696Y012873D01*
X016169Y013346D01*
G37*
G36*
X015988Y013527D02*
X016155Y013360D01*
X015682Y012887D01*
X015515Y013054D01*
X015988Y013527D01*
G37*
G36*
X015807Y013708D02*
X015974Y013541D01*
X015501Y013068D01*
X015334Y013235D01*
X015807Y013708D01*
G37*
G36*
X015626Y013889D02*
X015793Y013722D01*
X015320Y013249D01*
X015153Y013416D01*
X015626Y013889D01*
G37*
G36*
X017645Y015907D02*
X017812Y015740D01*
X017339Y015267D01*
X017172Y015434D01*
X017645Y015907D01*
G37*
G36*
X017826Y015726D02*
X017993Y015559D01*
X017520Y015086D01*
X017353Y015253D01*
X017826Y015726D01*
G37*
G36*
X018007Y015545D02*
X018174Y015378D01*
X017701Y014905D01*
X017534Y015072D01*
X018007Y015545D01*
G37*
G36*
X018187Y015364D02*
X018354Y015197D01*
X017881Y014724D01*
X017714Y014891D01*
X018187Y015364D01*
G37*
G36*
X018368Y015184D02*
X018535Y015017D01*
X018062Y014544D01*
X017895Y014711D01*
X018368Y015184D01*
G37*
G36*
X018549Y015003D02*
X018716Y014836D01*
X018243Y014363D01*
X018076Y014530D01*
X018549Y015003D01*
G37*
G36*
X018730Y014822D02*
X018897Y014655D01*
X018424Y014182D01*
X018257Y014349D01*
X018730Y014822D01*
G37*
G36*
X018911Y014641D02*
X019078Y014474D01*
X018605Y014001D01*
X018438Y014168D01*
X018911Y014641D01*
G37*
G36*
X019092Y014460D02*
X019259Y014293D01*
X018786Y013820D01*
X018619Y013987D01*
X019092Y014460D01*
G37*
G36*
X019273Y014279D02*
X019440Y014112D01*
X018967Y013639D01*
X018800Y013806D01*
X019273Y014279D01*
G37*
G36*
X019454Y014098D02*
X019621Y013931D01*
X019148Y013458D01*
X018981Y013625D01*
X019454Y014098D01*
G37*
G36*
X019635Y013917D02*
X019802Y013750D01*
X019329Y013277D01*
X019162Y013444D01*
X019635Y013917D01*
G37*
G36*
X019816Y013736D02*
X019983Y013569D01*
X019510Y013096D01*
X019343Y013263D01*
X019816Y013736D01*
G37*
G36*
X019997Y013555D02*
X020164Y013388D01*
X019691Y012915D01*
X019524Y013082D01*
X019997Y013555D01*
G37*
D16*
X014669Y007208D03*
X014112Y006651D03*
X014808Y005955D03*
X015365Y006512D03*
D17*
X015382Y003873D03*
X012030Y007224D03*
D18*
G36*
X016942Y008864D02*
X016469Y009337D01*
X016942Y009810D01*
X017415Y009337D01*
X016942Y008864D01*
G37*
G36*
X018356Y007449D02*
X017883Y007922D01*
X018356Y008395D01*
X018829Y007922D01*
X018356Y007449D01*
G37*
G36*
X019330Y008424D02*
X018857Y008897D01*
X019330Y009370D01*
X019803Y008897D01*
X019330Y008424D01*
G37*
G36*
X017916Y009838D02*
X017443Y010311D01*
X017916Y010784D01*
X018389Y010311D01*
X017916Y009838D01*
G37*
G36*
X020175Y005476D02*
X019702Y005003D01*
X019229Y005476D01*
X019702Y005949D01*
X020175Y005476D01*
G37*
G36*
X021149Y004502D02*
X020676Y004029D01*
X020203Y004502D01*
X020676Y004975D01*
X021149Y004502D01*
G37*
D19*
G36*
X021245Y006030D02*
X021747Y005528D01*
X021135Y004916D01*
X020633Y005418D01*
X021245Y006030D01*
G37*
G36*
X020465Y006809D02*
X020967Y006307D01*
X020355Y005695D01*
X019853Y006197D01*
X020465Y006809D01*
G37*
G36*
X019244Y008009D02*
X019746Y008511D01*
X020358Y007899D01*
X019856Y007397D01*
X019244Y008009D01*
G37*
G36*
X020024Y008788D02*
X020526Y009290D01*
X021138Y008678D01*
X020636Y008176D01*
X020024Y008788D01*
G37*
G36*
X018539Y010273D02*
X019041Y010775D01*
X019653Y010163D01*
X019151Y009661D01*
X018539Y010273D01*
G37*
G36*
X017759Y009494D02*
X018261Y009996D01*
X018873Y009384D01*
X018371Y008882D01*
X017759Y009494D01*
G37*
X030769Y023525D03*
X031871Y023525D03*
X033150Y036844D03*
X034252Y036844D03*
D20*
G36*
X017111Y016325D02*
X016637Y015851D01*
X016025Y016463D01*
X016499Y016937D01*
X017111Y016325D01*
G37*
G36*
X016276Y015489D02*
X015802Y015015D01*
X015190Y015627D01*
X015664Y016101D01*
X016276Y015489D01*
G37*
D21*
X008990Y016231D03*
X008283Y015524D03*
X007576Y014817D03*
X017494Y028185D03*
X018201Y028892D03*
X018908Y029599D03*
X022001Y023794D03*
X023001Y023794D03*
X024001Y023794D03*
D22*
X009030Y009092D03*
X010700Y010763D03*
X011174Y008619D03*
D23*
X011901Y018143D03*
X011901Y019245D03*
X020301Y019343D03*
X020301Y020445D03*
X032951Y037941D03*
X032951Y039043D03*
D24*
X034151Y039081D03*
X034151Y037703D03*
X020301Y022683D03*
X020301Y021305D03*
X010901Y019383D03*
X010901Y018005D03*
D25*
X021437Y017974D03*
X021437Y017029D03*
X021437Y016085D03*
X021437Y015140D03*
X021437Y014195D03*
X022437Y013880D03*
X022437Y014825D03*
X022437Y015770D03*
X022437Y016714D03*
X022437Y017659D03*
X022437Y018604D03*
X023437Y018289D03*
X023437Y017344D03*
X023437Y016400D03*
X023437Y015455D03*
X023437Y014510D03*
X025275Y012356D03*
X026220Y012356D03*
X027165Y012356D03*
X028110Y012356D03*
X029055Y012356D03*
X028740Y011356D03*
X029685Y011356D03*
X029370Y010356D03*
X028425Y010356D03*
X027480Y010356D03*
X026535Y010356D03*
X025590Y010356D03*
X025905Y011356D03*
X024960Y011356D03*
X026850Y011356D03*
X027795Y011356D03*
X031208Y014195D03*
X031208Y015140D03*
X031208Y016085D03*
X031208Y017029D03*
X031208Y017974D03*
X032208Y017659D03*
X032208Y016714D03*
X032208Y015770D03*
X032208Y014825D03*
X032208Y013880D03*
X033208Y014510D03*
X033208Y015455D03*
X033208Y016400D03*
X033208Y017344D03*
X033208Y018289D03*
X032208Y018604D03*
X029685Y021128D03*
X028740Y021128D03*
X027795Y021128D03*
X026850Y021128D03*
X025905Y021128D03*
X024960Y021128D03*
X025275Y022128D03*
X026220Y022128D03*
X027165Y022128D03*
X028110Y022128D03*
X029055Y022128D03*
X029370Y020128D03*
X028425Y020128D03*
X027480Y020128D03*
X026535Y020128D03*
X025590Y020128D03*
D26*
X032208Y021128D03*
X022437Y011356D03*
D27*
X026751Y023894D03*
X028651Y023894D03*
D28*
X030750Y024492D03*
X031852Y024492D03*
D29*
G36*
X017061Y007436D02*
X017841Y006656D01*
X017339Y006154D01*
X016559Y006934D01*
X017061Y007436D01*
G37*
G36*
X018063Y006434D02*
X018843Y005654D01*
X018341Y005152D01*
X017561Y005932D01*
X018063Y006434D01*
G37*
D30*
G36*
X007189Y011708D02*
X008219Y010678D01*
X007717Y010176D01*
X006687Y011206D01*
X007189Y011708D01*
G37*
G36*
X005685Y013211D02*
X006715Y012181D01*
X006213Y011679D01*
X005183Y012709D01*
X005685Y013211D01*
G37*
D31*
X004701Y014494D03*
X008701Y012494D03*
X008701Y010494D03*
X012701Y010494D03*
X012701Y008494D03*
X015146Y011430D03*
X016545Y011021D03*
X016701Y010494D03*
X020701Y012494D03*
X020391Y013782D03*
X020701Y014494D03*
X019678Y014517D03*
X019357Y015280D03*
X018701Y016494D03*
X020701Y016494D03*
X020701Y018494D03*
X018701Y018494D03*
X018701Y020494D03*
X018701Y022494D03*
X018701Y024494D03*
X016701Y026494D03*
X016701Y028494D03*
X016701Y030494D03*
X018701Y030494D03*
X020701Y034494D03*
X022801Y032494D03*
X024801Y034494D03*
X026701Y034494D03*
X028701Y034494D03*
X028701Y032494D03*
X030701Y032494D03*
X028701Y030494D03*
X026701Y028494D03*
X026701Y026494D03*
X024701Y024494D03*
X022701Y024494D03*
X022701Y020494D03*
X024701Y020494D03*
X025201Y018494D03*
X026723Y018042D03*
X027523Y017642D03*
X028123Y017242D03*
X028723Y016842D03*
X029323Y016542D03*
X029623Y016042D03*
X029023Y015942D03*
X028423Y015742D03*
X027823Y015542D03*
X027123Y015142D03*
X026423Y014542D03*
X025201Y014494D03*
X025201Y016494D03*
X027601Y014194D03*
X024701Y010494D03*
X024701Y008494D03*
X022701Y008494D03*
X021701Y006494D03*
X023201Y005994D03*
X021701Y004494D03*
X020701Y002494D03*
X022701Y002494D03*
X025201Y005994D03*
X026701Y008494D03*
X028701Y008494D03*
X030701Y008494D03*
X030701Y010494D03*
X032701Y010494D03*
X032701Y012494D03*
X034701Y010494D03*
X036701Y010494D03*
X036701Y008494D03*
X034701Y008494D03*
X036701Y006494D03*
X038701Y006494D03*
X038701Y008494D03*
X040701Y008494D03*
X040701Y010494D03*
X040701Y012494D03*
X040701Y014494D03*
X040701Y016494D03*
X040701Y018394D03*
X044701Y018494D03*
X044701Y020494D03*
X044701Y022494D03*
X042701Y024494D03*
X042701Y026494D03*
X042701Y028494D03*
X042701Y030494D03*
X042701Y032494D03*
X042701Y034494D03*
X040701Y034494D03*
X038701Y034494D03*
X036701Y034494D03*
X036701Y032494D03*
X038701Y032494D03*
X040701Y032494D03*
X040701Y030494D03*
X038701Y030494D03*
X036701Y030494D03*
X034701Y026494D03*
X034701Y024494D03*
X034701Y022494D03*
X036701Y022494D03*
X040701Y026494D03*
X046701Y026494D03*
X046701Y028494D03*
X046701Y030494D03*
X046701Y032494D03*
X044701Y034494D03*
X040701Y038494D03*
X038701Y038494D03*
X038701Y040494D03*
X036701Y038494D03*
X032701Y034694D03*
X030701Y028494D03*
X032701Y024494D03*
X032501Y023194D03*
X030773Y021465D03*
X031501Y019394D03*
X027838Y018557D03*
X032701Y008494D03*
X028701Y006494D03*
X028701Y004494D03*
X028701Y002494D03*
X026701Y002494D03*
X030701Y002494D03*
X032701Y002494D03*
X034701Y002494D03*
X036701Y004494D03*
X038701Y014494D03*
X042701Y014494D03*
X044701Y016494D03*
X020701Y038494D03*
X018701Y038494D03*
X018701Y040494D03*
X018701Y042494D03*
X016701Y042494D03*
X014701Y040494D03*
X016701Y038494D03*
X020701Y042494D03*
X010301Y031894D03*
X008701Y030494D03*
X008701Y028494D03*
X010701Y028494D03*
X008701Y026494D03*
X008701Y024494D03*
X012701Y024494D03*
X013813Y024682D03*
X016701Y020494D03*
X016701Y018494D03*
X012701Y018494D03*
X010701Y016494D03*
X008701Y018494D03*
X008701Y020494D03*
X016701Y004494D03*
X016701Y002494D03*
X034701Y044494D03*
M02*
