G75*
G70*
%OFA0B0*%
%FSLAX24Y24*%
%IPPOS*%
%LPD*%
%AMOC8*
5,1,8,0,0,1.08239X$1,22.5*
%
%ADD10R,0.1200X0.5100*%
%ADD11R,0.1713X0.3858*%
%ADD12R,0.1701X0.3854*%
%ADD13R,0.1933X0.1677*%
%ADD14R,0.1906X0.1626*%
%ADD15R,0.5100X0.1200*%
%ADD16C,0.0600*%
%ADD17R,0.0300X0.0550*%
%ADD18R,0.0550X0.0300*%
%ADD19R,0.0867X0.0710*%
%ADD20R,0.0710X0.0789*%
%ADD21R,0.0710X0.0867*%
%ADD22R,0.0880X0.0340*%
%ADD23R,0.1280X0.0380*%
%ADD24R,0.0789X0.0710*%
%ADD25R,0.0671X0.0671*%
%ADD26R,0.0330X0.1280*%
%ADD27C,0.3623*%
%ADD28C,0.0050*%
%ADD29C,0.0740*%
%ADD30C,0.2080*%
%ADD31C,0.0476*%
D10*
X035222Y026872D03*
X043122Y026872D03*
D11*
X044400Y040276D03*
D12*
X041158Y040278D03*
D13*
X046972Y031016D03*
D14*
X046978Y027301D03*
D15*
X039172Y030822D03*
X039172Y022922D03*
D16*
X039889Y034890D03*
X037989Y034890D03*
X018762Y033910D03*
X016862Y033910D03*
D17*
X036815Y029942D03*
X037130Y029942D03*
X037445Y029942D03*
X037760Y029942D03*
X038075Y029942D03*
X038390Y029942D03*
X038704Y029942D03*
X039019Y029942D03*
X039334Y029942D03*
X039649Y029942D03*
X039964Y029942D03*
X040279Y029942D03*
X040594Y029942D03*
X040909Y029942D03*
X041224Y029942D03*
X041539Y029942D03*
X041539Y023800D03*
X041224Y023800D03*
X040909Y023800D03*
X040594Y023800D03*
X040279Y023800D03*
X039964Y023800D03*
X039649Y023800D03*
X039334Y023800D03*
X039019Y023800D03*
X038704Y023800D03*
X038390Y023800D03*
X038075Y023800D03*
X037760Y023800D03*
X037445Y023800D03*
X037130Y023800D03*
X036815Y023800D03*
D18*
X036106Y024509D03*
X036106Y024824D03*
X036106Y025139D03*
X036106Y025454D03*
X036106Y025768D03*
X036106Y026083D03*
X036106Y026398D03*
X036106Y026713D03*
X036106Y027028D03*
X036106Y027343D03*
X036106Y027658D03*
X036106Y027973D03*
X036106Y028288D03*
X036106Y028603D03*
X036106Y028918D03*
X036106Y029233D03*
X042248Y029233D03*
X042248Y028918D03*
X042248Y028603D03*
X042248Y028288D03*
X042248Y027973D03*
X042248Y027658D03*
X042248Y027343D03*
X042248Y027028D03*
X042248Y026713D03*
X042248Y026398D03*
X042248Y026083D03*
X042248Y025768D03*
X042248Y025454D03*
X042248Y025139D03*
X042248Y024824D03*
X042248Y024509D03*
D19*
X045084Y027321D03*
X045084Y028423D03*
X042693Y032934D03*
X042693Y034036D03*
D20*
X040991Y036305D03*
X039889Y036305D03*
X037979Y036284D03*
X036876Y036284D03*
X034384Y031843D03*
X033282Y031843D03*
X042906Y043939D03*
X044008Y043939D03*
D21*
X039659Y043163D03*
X038557Y043163D03*
X038550Y045074D03*
X039652Y045074D03*
X034384Y033101D03*
X033282Y033101D03*
X024865Y038695D03*
X023762Y038695D03*
X023762Y040328D03*
X024865Y040328D03*
X024865Y043199D03*
X023762Y043199D03*
X023762Y044820D03*
X024865Y044820D03*
X044894Y024309D03*
X045996Y024309D03*
X044006Y021314D03*
X042904Y021314D03*
X042904Y019871D03*
X044006Y019871D03*
X044006Y018319D03*
X042904Y018319D03*
D22*
X043985Y038534D03*
X043985Y039034D03*
X043985Y039534D03*
X043985Y040034D03*
X043985Y040534D03*
X043985Y041034D03*
X043985Y041534D03*
X043985Y042034D03*
X041565Y042034D03*
X041565Y041534D03*
X041565Y041034D03*
X041565Y040534D03*
X041565Y040034D03*
X041565Y039534D03*
X041565Y039034D03*
X041565Y038534D03*
X037074Y043502D03*
X037074Y044002D03*
X037074Y044502D03*
X037074Y045002D03*
X034334Y045002D03*
X034334Y044502D03*
X034334Y044002D03*
X034334Y043502D03*
X022588Y043445D03*
X022588Y043945D03*
X022588Y044445D03*
X022588Y044945D03*
X019848Y044945D03*
X019848Y044445D03*
X019848Y043945D03*
X019848Y043445D03*
X019824Y040490D03*
X019824Y039990D03*
X019824Y039490D03*
X019824Y038990D03*
X022564Y038990D03*
X022564Y039490D03*
X022564Y039990D03*
X022564Y040490D03*
D23*
X017576Y040640D03*
X017576Y040040D03*
X017576Y039440D03*
X017576Y038840D03*
X014576Y038840D03*
X014576Y039440D03*
X014576Y040040D03*
X014576Y040640D03*
X014600Y043295D03*
X014600Y043895D03*
X014600Y044495D03*
X014600Y045095D03*
X017600Y045095D03*
X017600Y044495D03*
X017600Y043895D03*
X017600Y043295D03*
X029086Y043352D03*
X029086Y043952D03*
X029086Y044552D03*
X029086Y045152D03*
X032086Y045152D03*
X032086Y044552D03*
X032086Y043952D03*
X032086Y043352D03*
D24*
X045992Y043393D03*
X045992Y042290D03*
X047130Y041131D03*
X047130Y040028D03*
X048431Y040037D03*
X048431Y038935D03*
X018943Y036294D03*
X018943Y035191D03*
D25*
X045403Y022808D03*
X046781Y022808D03*
X046791Y021314D03*
X045413Y021314D03*
X045350Y019871D03*
X046728Y019871D03*
X046758Y018319D03*
X045380Y018319D03*
D26*
X046251Y027311D03*
X046751Y027311D03*
X047251Y027311D03*
X047751Y027311D03*
X047751Y030991D03*
X047251Y030991D03*
X046751Y030991D03*
X046251Y030991D03*
D27*
X029713Y029713D03*
X053335Y053335D03*
X053335Y006091D03*
X006091Y006091D03*
X006091Y053335D03*
D28*
X004122Y004122D02*
X008059Y004122D01*
X004122Y004122D01*
X004122Y008059D01*
X008059Y008059D01*
X008059Y004122D01*
X008059Y004171D02*
X004122Y004171D01*
X004122Y004219D02*
X008059Y004219D01*
X008059Y004268D02*
X004122Y004268D01*
X004122Y004316D02*
X008059Y004316D01*
X008059Y004365D02*
X004122Y004365D01*
X004122Y004413D02*
X008059Y004413D01*
X008059Y004462D02*
X004122Y004462D01*
X004122Y004511D02*
X008059Y004511D01*
X008059Y004559D02*
X004122Y004559D01*
X004122Y004608D02*
X008059Y004608D01*
X008059Y004656D02*
X004122Y004656D01*
X004122Y004705D02*
X008059Y004705D01*
X008059Y004753D02*
X004122Y004753D01*
X004122Y004802D02*
X008059Y004802D01*
X008059Y004850D02*
X004122Y004850D01*
X004122Y004899D02*
X008059Y004899D01*
X008059Y004947D02*
X004122Y004947D01*
X004122Y004996D02*
X008059Y004996D01*
X008059Y005045D02*
X004122Y005045D01*
X004122Y005093D02*
X008059Y005093D01*
X008059Y005142D02*
X004122Y005142D01*
X004122Y005190D02*
X008059Y005190D01*
X008059Y005239D02*
X004122Y005239D01*
X004122Y005287D02*
X008059Y005287D01*
X008059Y005336D02*
X004122Y005336D01*
X004122Y005384D02*
X008059Y005384D01*
X008059Y005433D02*
X004122Y005433D01*
X004122Y005481D02*
X008059Y005481D01*
X008059Y005530D02*
X004122Y005530D01*
X004122Y005579D02*
X008059Y005579D01*
X008059Y005627D02*
X004122Y005627D01*
X004122Y005676D02*
X008059Y005676D01*
X008059Y005724D02*
X004122Y005724D01*
X004122Y005773D02*
X008059Y005773D01*
X008059Y005821D02*
X004122Y005821D01*
X004122Y005870D02*
X008059Y005870D01*
X008059Y005918D02*
X004122Y005918D01*
X004122Y005967D02*
X008059Y005967D01*
X008059Y006015D02*
X004122Y006015D01*
X004122Y006064D02*
X008059Y006064D01*
X008059Y006112D02*
X004122Y006112D01*
X004122Y006161D02*
X008059Y006161D01*
X008059Y006210D02*
X004122Y006210D01*
X004122Y006258D02*
X008059Y006258D01*
X008059Y006307D02*
X004122Y006307D01*
X004122Y006355D02*
X008059Y006355D01*
X008059Y006404D02*
X004122Y006404D01*
X004122Y006452D02*
X008059Y006452D01*
X008059Y006501D02*
X004122Y006501D01*
X004122Y006549D02*
X008059Y006549D01*
X008059Y006598D02*
X004122Y006598D01*
X004122Y006646D02*
X008059Y006646D01*
X008059Y006695D02*
X004122Y006695D01*
X004122Y006744D02*
X008059Y006744D01*
X008059Y006792D02*
X004122Y006792D01*
X004122Y006841D02*
X008059Y006841D01*
X008059Y006889D02*
X004122Y006889D01*
X004122Y006938D02*
X008059Y006938D01*
X008059Y006986D02*
X004122Y006986D01*
X004122Y007035D02*
X008059Y007035D01*
X008059Y007083D02*
X004122Y007083D01*
X004122Y007132D02*
X008059Y007132D01*
X008059Y007180D02*
X004122Y007180D01*
X004122Y007229D02*
X008059Y007229D01*
X008059Y007278D02*
X004122Y007278D01*
X004122Y007326D02*
X008059Y007326D01*
X008059Y007375D02*
X004122Y007375D01*
X004122Y007423D02*
X008059Y007423D01*
X008059Y007472D02*
X004122Y007472D01*
X004122Y007520D02*
X008059Y007520D01*
X008059Y007569D02*
X004122Y007569D01*
X004122Y007617D02*
X008059Y007617D01*
X008059Y007666D02*
X004122Y007666D01*
X004122Y007714D02*
X008059Y007714D01*
X008059Y007763D02*
X004122Y007763D01*
X004122Y007811D02*
X008059Y007811D01*
X008059Y007860D02*
X004122Y007860D01*
X004122Y007909D02*
X008059Y007909D01*
X008059Y007957D02*
X004122Y007957D01*
X004122Y008006D02*
X008059Y008006D01*
X008059Y008054D02*
X004122Y008054D01*
X027744Y027744D02*
X027744Y031681D01*
X031681Y031681D01*
X031681Y027744D01*
X027744Y027744D01*
X027744Y027763D02*
X031681Y027763D01*
X031681Y027811D02*
X027744Y027811D01*
X027744Y027860D02*
X031681Y027860D01*
X031681Y027908D02*
X027744Y027908D01*
X027744Y027957D02*
X031681Y027957D01*
X031681Y028006D02*
X027744Y028006D01*
X027744Y028054D02*
X031681Y028054D01*
X031681Y028103D02*
X027744Y028103D01*
X027744Y028151D02*
X031681Y028151D01*
X031681Y028200D02*
X027744Y028200D01*
X027744Y028248D02*
X031681Y028248D01*
X031681Y028297D02*
X027744Y028297D01*
X027744Y028345D02*
X031681Y028345D01*
X031681Y028394D02*
X027744Y028394D01*
X027744Y028442D02*
X031681Y028442D01*
X031681Y028491D02*
X027744Y028491D01*
X027744Y028539D02*
X031681Y028539D01*
X031681Y028588D02*
X027744Y028588D01*
X027744Y028637D02*
X031681Y028637D01*
X031681Y028685D02*
X027744Y028685D01*
X027744Y028734D02*
X031681Y028734D01*
X031681Y028782D02*
X027744Y028782D01*
X027744Y028831D02*
X031681Y028831D01*
X031681Y028879D02*
X027744Y028879D01*
X027744Y028928D02*
X031681Y028928D01*
X031681Y028976D02*
X027744Y028976D01*
X027744Y029025D02*
X031681Y029025D01*
X031681Y029073D02*
X027744Y029073D01*
X027744Y029122D02*
X031681Y029122D01*
X031681Y029171D02*
X027744Y029171D01*
X027744Y029219D02*
X031681Y029219D01*
X031681Y029268D02*
X027744Y029268D01*
X027744Y029316D02*
X031681Y029316D01*
X031681Y029365D02*
X027744Y029365D01*
X027744Y029413D02*
X031681Y029413D01*
X031681Y029462D02*
X027744Y029462D01*
X027744Y029510D02*
X031681Y029510D01*
X031681Y029559D02*
X027744Y029559D01*
X027744Y029607D02*
X031681Y029607D01*
X031681Y029656D02*
X027744Y029656D01*
X027744Y029705D02*
X031681Y029705D01*
X031681Y029753D02*
X027744Y029753D01*
X027744Y029802D02*
X031681Y029802D01*
X031681Y029850D02*
X027744Y029850D01*
X027744Y029899D02*
X031681Y029899D01*
X031681Y029947D02*
X027744Y029947D01*
X027744Y029996D02*
X031681Y029996D01*
X031681Y030044D02*
X027744Y030044D01*
X027744Y030093D02*
X031681Y030093D01*
X031681Y030141D02*
X027744Y030141D01*
X027744Y030190D02*
X031681Y030190D01*
X031681Y030239D02*
X027744Y030239D01*
X027744Y030287D02*
X031681Y030287D01*
X031681Y030336D02*
X027744Y030336D01*
X027744Y030384D02*
X031681Y030384D01*
X031681Y030433D02*
X027744Y030433D01*
X027744Y030481D02*
X031681Y030481D01*
X031681Y030530D02*
X027744Y030530D01*
X027744Y030578D02*
X031681Y030578D01*
X031681Y030627D02*
X027744Y030627D01*
X027744Y030675D02*
X031681Y030675D01*
X031681Y030724D02*
X027744Y030724D01*
X027744Y030772D02*
X031681Y030772D01*
X031681Y030821D02*
X027744Y030821D01*
X027744Y030870D02*
X031681Y030870D01*
X031681Y030918D02*
X027744Y030918D01*
X027744Y030967D02*
X031681Y030967D01*
X031681Y031015D02*
X027744Y031015D01*
X027744Y031064D02*
X031681Y031064D01*
X031681Y031112D02*
X027744Y031112D01*
X027744Y031161D02*
X031681Y031161D01*
X031681Y031209D02*
X027744Y031209D01*
X027744Y031258D02*
X031681Y031258D01*
X031681Y031306D02*
X027744Y031306D01*
X027744Y031355D02*
X031681Y031355D01*
X031681Y031404D02*
X027744Y031404D01*
X027744Y031452D02*
X031681Y031452D01*
X031681Y031501D02*
X027744Y031501D01*
X027744Y031549D02*
X031681Y031549D01*
X031681Y031598D02*
X027744Y031598D01*
X027744Y031646D02*
X031681Y031646D01*
X051366Y051366D02*
X051366Y055303D01*
X055303Y055303D01*
X055303Y051366D01*
X051366Y051366D01*
X051366Y051403D02*
X055303Y051403D01*
X055303Y051452D02*
X051366Y051452D01*
X051366Y051500D02*
X055303Y051500D01*
X055303Y051549D02*
X051366Y051549D01*
X051366Y051598D02*
X055303Y051598D01*
X055303Y051646D02*
X051366Y051646D01*
X051366Y051695D02*
X055303Y051695D01*
X055303Y051743D02*
X051366Y051743D01*
X051366Y051792D02*
X055303Y051792D01*
X055303Y051840D02*
X051366Y051840D01*
X051366Y051889D02*
X055303Y051889D01*
X055303Y051937D02*
X051366Y051937D01*
X051366Y051986D02*
X055303Y051986D01*
X055303Y052034D02*
X051366Y052034D01*
X051366Y052083D02*
X055303Y052083D01*
X055303Y052132D02*
X051366Y052132D01*
X051366Y052180D02*
X055303Y052180D01*
X055303Y052229D02*
X051366Y052229D01*
X051366Y052277D02*
X055303Y052277D01*
X055303Y052326D02*
X051366Y052326D01*
X051366Y052374D02*
X055303Y052374D01*
X055303Y052423D02*
X051366Y052423D01*
X051366Y052471D02*
X055303Y052471D01*
X055303Y052520D02*
X051366Y052520D01*
X051366Y052568D02*
X055303Y052568D01*
X055303Y052617D02*
X051366Y052617D01*
X051366Y052666D02*
X055303Y052666D01*
X055303Y052714D02*
X051366Y052714D01*
X051366Y052763D02*
X055303Y052763D01*
X055303Y052811D02*
X051366Y052811D01*
X051366Y052860D02*
X055303Y052860D01*
X055303Y052908D02*
X051366Y052908D01*
X051366Y052957D02*
X055303Y052957D01*
X055303Y053005D02*
X051366Y053005D01*
X051366Y053054D02*
X055303Y053054D01*
X055303Y053102D02*
X051366Y053102D01*
X051366Y053151D02*
X055303Y053151D01*
X055303Y053199D02*
X051366Y053199D01*
X051366Y053248D02*
X055303Y053248D01*
X055303Y053297D02*
X051366Y053297D01*
X051366Y053345D02*
X055303Y053345D01*
X055303Y053394D02*
X051366Y053394D01*
X051366Y053442D02*
X055303Y053442D01*
X055303Y053491D02*
X051366Y053491D01*
X051366Y053539D02*
X055303Y053539D01*
X055303Y053588D02*
X051366Y053588D01*
X051366Y053636D02*
X055303Y053636D01*
X055303Y053685D02*
X051366Y053685D01*
X051366Y053733D02*
X055303Y053733D01*
X055303Y053782D02*
X051366Y053782D01*
X051366Y053831D02*
X055303Y053831D01*
X055303Y053879D02*
X051366Y053879D01*
X051366Y053928D02*
X055303Y053928D01*
X055303Y053976D02*
X051366Y053976D01*
X051366Y054025D02*
X055303Y054025D01*
X055303Y054073D02*
X051366Y054073D01*
X051366Y054122D02*
X055303Y054122D01*
X055303Y054170D02*
X051366Y054170D01*
X051366Y054219D02*
X055303Y054219D01*
X055303Y054267D02*
X051366Y054267D01*
X051366Y054316D02*
X055303Y054316D01*
X055303Y054365D02*
X051366Y054365D01*
X051366Y054413D02*
X055303Y054413D01*
X055303Y054462D02*
X051366Y054462D01*
X051366Y054510D02*
X055303Y054510D01*
X055303Y054559D02*
X051366Y054559D01*
X051366Y054607D02*
X055303Y054607D01*
X055303Y054656D02*
X051366Y054656D01*
X051366Y054704D02*
X055303Y054704D01*
X055303Y054753D02*
X051366Y054753D01*
X051366Y054801D02*
X055303Y054801D01*
X055303Y054850D02*
X051366Y054850D01*
X051366Y054899D02*
X055303Y054899D01*
X055303Y054947D02*
X051366Y054947D01*
X051366Y054996D02*
X055303Y054996D01*
X055303Y055044D02*
X051366Y055044D01*
X051366Y055093D02*
X055303Y055093D01*
X055303Y055141D02*
X051366Y055141D01*
X051366Y055190D02*
X055303Y055190D01*
X055303Y055238D02*
X051366Y055238D01*
X051366Y055287D02*
X055303Y055287D01*
X055303Y008059D02*
X051366Y008059D01*
X051366Y004122D01*
X055303Y004122D01*
X051366Y004122D01*
X051366Y004171D02*
X055303Y004171D01*
X055303Y004219D02*
X051366Y004219D01*
X051366Y004268D02*
X055303Y004268D01*
X055303Y004316D02*
X051366Y004316D01*
X051366Y004365D02*
X055303Y004365D01*
X055303Y004413D02*
X051366Y004413D01*
X051366Y004462D02*
X055303Y004462D01*
X055303Y004511D02*
X051366Y004511D01*
X051366Y004559D02*
X055303Y004559D01*
X055303Y004608D02*
X051366Y004608D01*
X051366Y004656D02*
X055303Y004656D01*
X055303Y004705D02*
X051366Y004705D01*
X051366Y004753D02*
X055303Y004753D01*
X055303Y004802D02*
X051366Y004802D01*
X051366Y004850D02*
X055303Y004850D01*
X055303Y004899D02*
X051366Y004899D01*
X051366Y004947D02*
X055303Y004947D01*
X055303Y004996D02*
X051366Y004996D01*
X051366Y005045D02*
X055303Y005045D01*
X055303Y005093D02*
X051366Y005093D01*
X051366Y005142D02*
X055303Y005142D01*
X055303Y005190D02*
X051366Y005190D01*
X051366Y005239D02*
X055303Y005239D01*
X055303Y005287D02*
X051366Y005287D01*
X051366Y005336D02*
X055303Y005336D01*
X055303Y005384D02*
X051366Y005384D01*
X051366Y005433D02*
X055303Y005433D01*
X055303Y005481D02*
X051366Y005481D01*
X051366Y005530D02*
X055303Y005530D01*
X055303Y005579D02*
X051366Y005579D01*
X051366Y005627D02*
X055303Y005627D01*
X055303Y005676D02*
X051366Y005676D01*
X051366Y005724D02*
X055303Y005724D01*
X055303Y005773D02*
X051366Y005773D01*
X051366Y005821D02*
X055303Y005821D01*
X055303Y005870D02*
X051366Y005870D01*
X051366Y005918D02*
X055303Y005918D01*
X055303Y005967D02*
X051366Y005967D01*
X051366Y006015D02*
X055303Y006015D01*
X055303Y006064D02*
X051366Y006064D01*
X051366Y006112D02*
X055303Y006112D01*
X055303Y006161D02*
X051366Y006161D01*
X051366Y006210D02*
X055303Y006210D01*
X055303Y006258D02*
X051366Y006258D01*
X051366Y006307D02*
X055303Y006307D01*
X055303Y006355D02*
X051366Y006355D01*
X051366Y006404D02*
X055303Y006404D01*
X055303Y006452D02*
X051366Y006452D01*
X051366Y006501D02*
X055303Y006501D01*
X055303Y006549D02*
X051366Y006549D01*
X051366Y006598D02*
X055303Y006598D01*
X055303Y006646D02*
X051366Y006646D01*
X051366Y006695D02*
X055303Y006695D01*
X055303Y006744D02*
X051366Y006744D01*
X051366Y006792D02*
X055303Y006792D01*
X055303Y006841D02*
X051366Y006841D01*
X051366Y006889D02*
X055303Y006889D01*
X055303Y006938D02*
X051366Y006938D01*
X051366Y006986D02*
X055303Y006986D01*
X055303Y007035D02*
X051366Y007035D01*
X051366Y007083D02*
X055303Y007083D01*
X055303Y007132D02*
X051366Y007132D01*
X051366Y007180D02*
X055303Y007180D01*
X055303Y007229D02*
X051366Y007229D01*
X051366Y007278D02*
X055303Y007278D01*
X055303Y007326D02*
X051366Y007326D01*
X051366Y007375D02*
X055303Y007375D01*
X055303Y007423D02*
X051366Y007423D01*
X051366Y007472D02*
X055303Y007472D01*
X055303Y007520D02*
X051366Y007520D01*
X051366Y007569D02*
X055303Y007569D01*
X055303Y007617D02*
X051366Y007617D01*
X051366Y007666D02*
X055303Y007666D01*
X055303Y007714D02*
X051366Y007714D01*
X051366Y007763D02*
X055303Y007763D01*
X055303Y007811D02*
X051366Y007811D01*
X051366Y007860D02*
X055303Y007860D01*
X055303Y007909D02*
X051366Y007909D01*
X051366Y007957D02*
X055303Y007957D01*
X055303Y008006D02*
X051366Y008006D01*
X051366Y008054D02*
X055303Y008054D01*
X055303Y008059D02*
X055303Y004122D01*
X008059Y051366D02*
X004122Y051366D01*
X004122Y055303D01*
X008059Y055303D01*
X008059Y051366D01*
X008059Y051403D02*
X004122Y051403D01*
X004122Y051452D02*
X008059Y051452D01*
X008059Y051500D02*
X004122Y051500D01*
X004122Y051549D02*
X008059Y051549D01*
X008059Y051598D02*
X004122Y051598D01*
X004122Y051646D02*
X008059Y051646D01*
X008059Y051695D02*
X004122Y051695D01*
X004122Y051743D02*
X008059Y051743D01*
X008059Y051792D02*
X004122Y051792D01*
X004122Y051840D02*
X008059Y051840D01*
X008059Y051889D02*
X004122Y051889D01*
X004122Y051937D02*
X008059Y051937D01*
X008059Y051986D02*
X004122Y051986D01*
X004122Y052034D02*
X008059Y052034D01*
X008059Y052083D02*
X004122Y052083D01*
X004122Y052132D02*
X008059Y052132D01*
X008059Y052180D02*
X004122Y052180D01*
X004122Y052229D02*
X008059Y052229D01*
X008059Y052277D02*
X004122Y052277D01*
X004122Y052326D02*
X008059Y052326D01*
X008059Y052374D02*
X004122Y052374D01*
X004122Y052423D02*
X008059Y052423D01*
X008059Y052471D02*
X004122Y052471D01*
X004122Y052520D02*
X008059Y052520D01*
X008059Y052568D02*
X004122Y052568D01*
X004122Y052617D02*
X008059Y052617D01*
X008059Y052666D02*
X004122Y052666D01*
X004122Y052714D02*
X008059Y052714D01*
X008059Y052763D02*
X004122Y052763D01*
X004122Y052811D02*
X008059Y052811D01*
X008059Y052860D02*
X004122Y052860D01*
X004122Y052908D02*
X008059Y052908D01*
X008059Y052957D02*
X004122Y052957D01*
X004122Y053005D02*
X008059Y053005D01*
X008059Y053054D02*
X004122Y053054D01*
X004122Y053102D02*
X008059Y053102D01*
X008059Y053151D02*
X004122Y053151D01*
X004122Y053199D02*
X008059Y053199D01*
X008059Y053248D02*
X004122Y053248D01*
X004122Y053297D02*
X008059Y053297D01*
X008059Y053345D02*
X004122Y053345D01*
X004122Y053394D02*
X008059Y053394D01*
X008059Y053442D02*
X004122Y053442D01*
X004122Y053491D02*
X008059Y053491D01*
X008059Y053539D02*
X004122Y053539D01*
X004122Y053588D02*
X008059Y053588D01*
X008059Y053636D02*
X004122Y053636D01*
X004122Y053685D02*
X008059Y053685D01*
X008059Y053733D02*
X004122Y053733D01*
X004122Y053782D02*
X008059Y053782D01*
X008059Y053831D02*
X004122Y053831D01*
X004122Y053879D02*
X008059Y053879D01*
X008059Y053928D02*
X004122Y053928D01*
X004122Y053976D02*
X008059Y053976D01*
X008059Y054025D02*
X004122Y054025D01*
X004122Y054073D02*
X008059Y054073D01*
X008059Y054122D02*
X004122Y054122D01*
X004122Y054170D02*
X008059Y054170D01*
X008059Y054219D02*
X004122Y054219D01*
X004122Y054267D02*
X008059Y054267D01*
X008059Y054316D02*
X004122Y054316D01*
X004122Y054365D02*
X008059Y054365D01*
X008059Y054413D02*
X004122Y054413D01*
X004122Y054462D02*
X008059Y054462D01*
X008059Y054510D02*
X004122Y054510D01*
X004122Y054559D02*
X008059Y054559D01*
X008059Y054607D02*
X004122Y054607D01*
X004122Y054656D02*
X008059Y054656D01*
X008059Y054704D02*
X004122Y054704D01*
X004122Y054753D02*
X008059Y054753D01*
X008059Y054801D02*
X004122Y054801D01*
X004122Y054850D02*
X008059Y054850D01*
X008059Y054899D02*
X004122Y054899D01*
X004122Y054947D02*
X008059Y054947D01*
X008059Y054996D02*
X004122Y054996D01*
X004122Y055044D02*
X008059Y055044D01*
X008059Y055093D02*
X004122Y055093D01*
X004122Y055141D02*
X008059Y055141D01*
X008059Y055190D02*
X004122Y055190D01*
X004122Y055238D02*
X008059Y055238D01*
X008059Y055287D02*
X004122Y055287D01*
D29*
X013343Y044487D03*
X013343Y043295D03*
X015793Y042337D03*
X016763Y042337D03*
X017863Y042337D03*
X018963Y042337D03*
X018943Y037667D03*
X017893Y037662D03*
X016793Y037662D03*
X015793Y037662D03*
X013543Y038852D03*
X013343Y040042D03*
X007693Y039555D03*
X006693Y039015D03*
X007693Y038475D03*
X007693Y037395D03*
X006693Y037935D03*
X006693Y040095D03*
X007693Y040635D03*
X006693Y041175D03*
X007693Y041715D03*
X016090Y051654D03*
X017170Y051654D03*
X016630Y052654D03*
X017710Y052654D03*
X018250Y051654D03*
X018790Y052654D03*
X019330Y051654D03*
X019870Y052654D03*
X020410Y051654D03*
X020950Y052654D03*
X021490Y051654D03*
X022030Y052654D03*
X023110Y052654D03*
X022570Y051654D03*
X023650Y051654D03*
X024722Y049522D03*
X022322Y049522D03*
X024872Y043999D03*
X027628Y044547D03*
X027753Y043352D03*
X024872Y039399D03*
X021722Y035297D03*
X032453Y042337D03*
X033453Y042337D03*
X034773Y037547D03*
X034773Y036447D03*
X034792Y035297D03*
X035573Y033947D03*
X033286Y033947D03*
X039659Y042034D03*
X039659Y044134D03*
X042693Y041376D03*
X042693Y036302D03*
X051654Y037395D03*
X051654Y038475D03*
X052654Y037935D03*
X052654Y039015D03*
X051654Y039555D03*
X052654Y040095D03*
X051654Y040635D03*
X052654Y041175D03*
X051654Y041715D03*
X053978Y045566D03*
X053178Y046366D03*
X052378Y047166D03*
X041715Y051654D03*
X041175Y052654D03*
X040635Y051654D03*
X040095Y052654D03*
X039555Y051654D03*
X039015Y052654D03*
X038475Y051654D03*
X037395Y051654D03*
X037935Y052654D03*
X039522Y049122D03*
X045083Y026232D03*
X047751Y026232D03*
X051654Y023650D03*
X051654Y022570D03*
X052654Y022030D03*
X052654Y023110D03*
X051654Y021490D03*
X052654Y020950D03*
X051654Y020410D03*
X052654Y019870D03*
X051654Y019330D03*
X052654Y018790D03*
X051654Y018250D03*
X052654Y017710D03*
X052654Y016630D03*
X051654Y016090D03*
X051654Y017170D03*
X044522Y012145D03*
X044522Y010142D03*
X043335Y007693D03*
X042795Y006693D03*
X042255Y007693D03*
X041715Y006693D03*
X041175Y007693D03*
X040635Y006693D03*
X040095Y007693D03*
X039555Y006693D03*
X039015Y007693D03*
X038475Y006693D03*
X037395Y006693D03*
X036855Y007693D03*
X037935Y007693D03*
X036315Y006693D03*
X035775Y007693D03*
X037922Y010122D03*
X023650Y007693D03*
X022570Y007693D03*
X022030Y006693D03*
X023110Y006693D03*
X021490Y007693D03*
X020950Y006693D03*
X020410Y007693D03*
X019870Y006693D03*
X019330Y007693D03*
X018790Y006693D03*
X018250Y007693D03*
X017710Y006693D03*
X016630Y006693D03*
X016090Y007693D03*
X017170Y007693D03*
X014910Y009684D03*
X009922Y016322D03*
X009922Y018522D03*
X009922Y020497D03*
X009922Y022522D03*
X009922Y023722D03*
X009922Y024722D03*
X007693Y023650D03*
X007693Y022570D03*
X006693Y022030D03*
X006693Y023110D03*
X007693Y021490D03*
X006693Y020950D03*
X007693Y020410D03*
X006693Y019870D03*
X007693Y019330D03*
X006693Y018790D03*
X007693Y018250D03*
X006693Y017710D03*
X006693Y016630D03*
X007693Y016090D03*
X007693Y017170D03*
X020147Y020497D03*
X020372Y021172D03*
X004922Y030922D03*
D30*
X007193Y034625D03*
X007193Y026430D03*
X007193Y013310D03*
X013310Y007193D03*
X026430Y007193D03*
X032995Y007193D03*
X046115Y007193D03*
X052154Y013310D03*
X052154Y026430D03*
X052154Y034625D03*
X052154Y044485D03*
X044485Y052154D03*
X034625Y052154D03*
X026430Y052154D03*
X013310Y052154D03*
X007193Y044485D03*
D31*
X009122Y048122D03*
X007122Y050122D03*
X009122Y052122D03*
X011122Y050122D03*
X009122Y054122D03*
X005122Y050122D03*
X005122Y048122D03*
X009953Y039947D03*
X014122Y036122D03*
X014122Y034122D03*
X014122Y032222D03*
X014122Y031222D03*
X016043Y030602D03*
X016503Y031052D03*
X018722Y032522D03*
X019322Y030722D03*
X019243Y026482D03*
X018813Y026032D03*
X018233Y025902D03*
X017633Y025372D03*
X017033Y025682D03*
X016293Y025312D03*
X019653Y025872D03*
X022403Y024947D03*
X023634Y024322D03*
X024922Y025072D03*
X025322Y026272D03*
X025847Y027272D03*
X026247Y026191D03*
X027122Y023122D03*
X029122Y023122D03*
X029122Y021122D03*
X031678Y023552D03*
X031722Y025072D03*
X031353Y025722D03*
X030828Y026191D03*
X033264Y027033D03*
X034003Y028982D03*
X035522Y031322D03*
X032122Y033122D03*
X030693Y034457D03*
X029718Y033387D03*
X029243Y033927D03*
X028122Y036122D03*
X028222Y036772D03*
X028173Y037447D03*
X032122Y037122D03*
X037122Y042122D03*
X038523Y044007D03*
X039122Y047122D03*
X041122Y047122D03*
X043122Y047122D03*
X045122Y047122D03*
X047122Y047122D03*
X049122Y048122D03*
X052122Y050122D03*
X054122Y050122D03*
X054122Y048122D03*
X049122Y044122D03*
X047122Y044122D03*
X041803Y043122D03*
X040353Y040812D03*
X039422Y040034D03*
X039422Y039034D03*
X038222Y038534D03*
X038122Y037122D03*
X041122Y037122D03*
X045122Y036122D03*
X045122Y034122D03*
X047122Y034122D03*
X047122Y036122D03*
X049122Y036122D03*
X048843Y037772D03*
X049122Y034122D03*
X049122Y032122D03*
X052122Y031122D03*
X054122Y031122D03*
X054122Y029122D03*
X043922Y031322D03*
X035003Y022222D03*
X034393Y023892D03*
X034223Y024612D03*
X035775Y016925D03*
X033122Y015122D03*
X033122Y013122D03*
X031122Y015122D03*
X029122Y015122D03*
X029122Y017122D03*
X031122Y017122D03*
X027122Y017122D03*
X025122Y017122D03*
X025122Y015122D03*
X023122Y015122D03*
X023122Y017122D03*
X021122Y013122D03*
X019122Y013122D03*
X019122Y011122D03*
X019122Y009122D03*
X021122Y009122D03*
X021122Y011122D03*
X023122Y011122D03*
X023122Y009122D03*
X025122Y009122D03*
X025122Y011122D03*
X027122Y011122D03*
X027122Y009122D03*
X029122Y009122D03*
X029122Y007122D03*
X031122Y007122D03*
X031122Y009122D03*
X031122Y011122D03*
X029122Y011122D03*
X033122Y011122D03*
X033122Y009122D03*
X035122Y009122D03*
X035122Y011122D03*
X035122Y013122D03*
X039015Y012710D03*
X042122Y013122D03*
X044122Y015122D03*
X044122Y017122D03*
X046122Y017122D03*
X046823Y016132D03*
X046843Y015612D03*
X046122Y013122D03*
X046122Y011122D03*
X047122Y009122D03*
X043122Y009122D03*
X043108Y010508D03*
X048122Y013122D03*
X053122Y009122D03*
X055122Y009122D03*
X055122Y011122D03*
X049122Y005122D03*
X024922Y022322D03*
X023122Y021122D03*
X022260Y023460D03*
X013653Y021222D03*
X013122Y017122D03*
X013122Y015122D03*
X013122Y013122D03*
X015122Y013122D03*
X017122Y013122D03*
X017122Y011122D03*
X017122Y009122D03*
X005122Y009122D03*
X012503Y025531D03*
X012503Y028522D03*
X009132Y030708D03*
X007122Y032122D03*
X017122Y036122D03*
X018933Y040467D03*
X020122Y042122D03*
X018623Y044587D03*
X023633Y043987D03*
X023703Y039497D03*
X023372Y036947D03*
X023857Y036472D03*
X033403Y044972D03*
X036122Y047122D03*
X031122Y052122D03*
X049122Y052122D03*
X049122Y054122D03*
M02*
