%
M48
M72
T01C0.0236
T02C0.0320
T03C0.0354
T04C0.1181
T05C0.1300
%
T01
X5122Y9122
X9922Y16322
X9922Y18522
X9922Y20497
X9922Y22522
X9922Y23722
X9922Y24722
X12503Y25531
X12503Y28522
X14122Y31222
X14122Y32222
X14122Y34122
X14122Y36122
X15793Y37662
X16793Y37662
X17893Y37662
X18943Y37667
X17122Y36122
X18722Y32522
X19322Y30722
X16503Y31052
X16043Y30602
X19243Y26482
X18813Y26032
X18233Y25902
X17633Y25372
X17033Y25682
X16293Y25312
X19653Y25872
X22403Y24947
X23634Y24322
X24922Y25072
X25322Y26272
X25847Y27272
X26247Y26191
X27122Y23122
X29122Y23122
X29122Y21122
X31678Y23552
X31722Y25072
X31353Y25722
X30828Y26191
X33264Y27033
X34003Y28982
X35522Y31322
X35573Y33947
X34792Y35297
X34773Y36447
X34773Y37547
X32122Y37122
X30693Y34457
X29718Y33387
X29243Y33927
X28122Y36122
X28222Y36772
X28173Y37447
X24872Y39399
X23703Y39497
X23372Y36947
X23857Y36472
X21722Y35297
X18933Y40467
X20122Y42122
X18963Y42337
X17863Y42337
X16763Y42337
X15793Y42337
X13343Y43295
X13343Y44487
X13343Y40042
X13543Y38852
X9953Y39947
X7122Y32122
X9132Y30708
X4922Y30922
X13653Y21222
X13122Y17122
X13122Y15122
X13122Y13122
X15122Y13122
X17122Y13122
X17122Y11122
X17122Y9122
X14910Y9684
X19122Y9122
X19122Y11122
X21122Y11122
X21122Y9122
X23122Y9122
X23122Y11122
X25122Y11122
X25122Y9122
X27122Y9122
X27122Y11122
X29122Y11122
X29122Y9122
X29122Y7122
X31122Y7122
X31122Y9122
X31122Y11122
X33122Y11122
X33122Y9122
X35122Y9122
X35122Y11122
X35122Y13122
X33122Y13122
X33122Y15122
X31122Y15122
X29122Y15122
X29122Y17122
X31122Y17122
X27122Y17122
X25122Y17122
X25122Y15122
X23122Y15122
X23122Y17122
X21122Y13122
X19122Y13122
X20147Y20497
X20372Y21172
X23122Y21122
X24922Y22322
X22260Y23460
X32122Y33122
X33286Y33947
X38122Y37122
X38222Y38534
X39422Y39034
X39422Y40034
X40353Y40812
X39659Y42034
X39659Y44134
X38523Y44007
X37122Y42122
X33453Y42337
X32453Y42337
X33403Y44972
X36122Y47122
X39122Y47122
X39522Y49122
X41122Y47122
X43122Y47122
X45122Y47122
X47122Y47122
X49122Y48122
X52122Y50122
X54122Y50122
X54122Y48122
X52378Y47166
X53178Y46366
X53978Y45566
X49122Y44122
X47122Y44122
X42693Y41376
X41803Y43122
X41122Y37122
X42693Y36302
X45122Y36122
X45122Y34122
X47122Y34122
X47122Y36122
X49122Y36122
X48843Y37772
X49122Y34122
X49122Y32122
X52122Y31122
X54122Y31122
X54122Y29122
X47751Y26232
X45083Y26232
X43922Y31322
X35003Y22222
X34393Y23892
X34223Y24612
X35775Y16925
X39015Y12710
X37922Y10122
X42122Y13122
X44122Y15122
X44122Y17122
X46122Y17122
X46823Y16132
X46843Y15612
X46122Y13122
X44522Y12145
X46122Y11122
X44522Y10142
X43108Y10508
X43122Y9122
X47122Y9122
X48122Y13122
X53122Y9122
X55122Y9122
X55122Y11122
X49122Y5122
X27753Y43352
X27628Y44547
X24872Y43999
X23633Y43987
X18623Y44587
X22322Y49522
X24722Y49522
X31122Y52122
X49122Y52122
X49122Y54122
X11122Y50122
X9122Y48122
X7122Y50122
X9122Y52122
X9122Y54122
X5122Y50122
X5122Y48122
T02
X16862Y33910
X18762Y33910
X37989Y34890
X39889Y34890
T03
X51654Y37395
X51654Y38475
X52654Y37935
X52654Y39015
X51654Y39555
X52654Y40095
X51654Y40635
X52654Y41175
X51654Y41715
X41715Y51654
X41175Y52654
X40635Y51654
X40095Y52654
X39555Y51654
X39015Y52654
X38475Y51654
X37395Y51654
X37935Y52654
X23650Y51654
X22570Y51654
X22030Y52654
X23110Y52654
X21490Y51654
X20950Y52654
X20410Y51654
X19870Y52654
X19330Y51654
X18790Y52654
X18250Y51654
X17710Y52654
X16630Y52654
X16090Y51654
X17170Y51654
X7693Y41715
X6693Y41175
X7693Y40635
X6693Y40095
X7693Y39555
X6693Y39015
X7693Y38475
X7693Y37395
X6693Y37935
X7693Y23650
X7693Y22570
X6693Y22030
X6693Y23110
X7693Y21490
X6693Y20950
X7693Y20410
X6693Y19870
X7693Y19330
X6693Y18790
X7693Y18250
X6693Y17710
X6693Y16630
X7693Y16090
X7693Y17170
X16090Y7693
X17170Y7693
X16630Y6693
X17710Y6693
X18250Y7693
X18790Y6693
X19330Y7693
X19870Y6693
X20410Y7693
X20950Y6693
X21490Y7693
X22030Y6693
X23110Y6693
X22570Y7693
X23650Y7693
X35775Y7693
X36315Y6693
X36855Y7693
X37935Y7693
X37395Y6693
X38475Y6693
X39015Y7693
X39555Y6693
X40095Y7693
X40635Y6693
X41175Y7693
X41715Y6693
X42255Y7693
X42795Y6693
X43335Y7693
X51654Y16090
X51654Y17170
X52654Y16630
X52654Y17710
X51654Y18250
X52654Y18790
X51654Y19330
X52654Y19870
X51654Y20410
X52654Y20950
X51654Y21490
X52654Y22030
X52654Y23110
X51654Y22570
X51654Y23650
T04
X6091Y6091
X29713Y29713
X53335Y53335
X53335Y6091
X6091Y53335
T05
X13310Y52154
X7193Y44485
X7193Y34625
X7193Y26430
X7193Y13310
X13310Y7193
X26430Y7193
X32995Y7193
X46115Y7193
X52154Y13310
X52154Y26430
X52154Y34625
X52154Y44485
X44485Y52154
X34625Y52154
X26430Y52154
M30
