%
M48
M72
T01C0.0197
T02C0.0315
T03C0.0320
T04C0.0354
T05C0.0360
T06C0.0374
T07C0.0400
T08C0.0433
T09C0.0591
T10C0.0906
T11C0.1180
T12C0.1300
%
T01
X8701Y10494
X8701Y12494
X12201Y12092
X12701Y10494
X12701Y8494
X15146Y11430
X16545Y11021
X16701Y10494
X20701Y12494
X20391Y13782
X20701Y14494
X19678Y14517
X19357Y15280
X18701Y16494
X20701Y16494
X20701Y18494
X18701Y18494
X18701Y20494
X18701Y22494
X18701Y24494
X16701Y26494
X16701Y28494
X16701Y30494
X18701Y30494
X20701Y34494
X22801Y32494
X24801Y34494
X26701Y34494
X28701Y34494
X28701Y32494
X30701Y32494
X28701Y30494
X26701Y28494
X26701Y26494
X24701Y24494
X22701Y24494
X22701Y20494
X24701Y20494
X25201Y18494
X26723Y18042
X27523Y17642
X28123Y17242
X28723Y16842
X29323Y16542
X29623Y16042
X29023Y15942
X28423Y15742
X27823Y15542
X27123Y15142
X26423Y14542
X25201Y14494
X25201Y16494
X27601Y14194
X24701Y10494
X24701Y8494
X22701Y8494
X21701Y6494
X23201Y5994
X21701Y4494
X20701Y2494
X22701Y2494
X25201Y5994
X26701Y8494
X28701Y8494
X30701Y8494
X30701Y10494
X32701Y10494
X32701Y12494
X34701Y10494
X36701Y10494
X36701Y8494
X34701Y8494
X36701Y6494
X38701Y6494
X38701Y8494
X40701Y8494
X40701Y10494
X40701Y12494
X40701Y14494
X40701Y16494
X40701Y18394
X44701Y18494
X44701Y20494
X44701Y22494
X42701Y24494
X42701Y26494
X42701Y28494
X42701Y30494
X42701Y32494
X42701Y34494
X40701Y34494
X38701Y34494
X36701Y34494
X36701Y32494
X38701Y32494
X40701Y32494
X40701Y30494
X38701Y30494
X36701Y30494
X34701Y26494
X34701Y24494
X34701Y22494
X36701Y22494
X40701Y26494
X46701Y26494
X46701Y28494
X46701Y30494
X46701Y32494
X44701Y34494
X40701Y38494
X38701Y38494
X38701Y40494
X36701Y38494
X32701Y34694
X30701Y28494
X32701Y24494
X32501Y23194
X30773Y21465
X31501Y19394
X27838Y18557
X32701Y8494
X28701Y6494
X28701Y4494
X28701Y2494
X26701Y2494
X30701Y2494
X32701Y2494
X34701Y2494
X36701Y4494
X38701Y14494
X42701Y14494
X44701Y16494
X20701Y38494
X18701Y38494
X18701Y40494
X18701Y42494
X16701Y42494
X14701Y40494
X16701Y38494
X20701Y42494
X10301Y31894
X8701Y30494
X8701Y28494
X10701Y28494
X8701Y26494
X8701Y24494
X12701Y24494
X13813Y24682
X16701Y20494
X16701Y18494
X12701Y18494
X10701Y16494
X8701Y18494
X8701Y20494
X4701Y14494
X16701Y4494
X16701Y2494
X34701Y44494
T02
X29055Y22128
X28110Y22128
X27165Y22128
X26220Y22128
X25275Y22128
X24960Y21128
X25905Y21128
X26850Y21128
X27795Y21128
X28740Y21128
X29685Y21128
X29370Y20128
X28425Y20128
X27480Y20128
X26535Y20128
X25590Y20128
X23437Y18289
X23437Y17344
X23437Y16400
X23437Y15455
X23437Y14510
X22437Y14825
X22437Y15770
X22437Y16714
X22437Y17659
X22437Y18604
X21437Y17974
X21437Y17029
X21437Y16085
X21437Y15140
X21437Y14195
X22437Y13880
X24960Y11356
X25905Y11356
X26850Y11356
X27795Y11356
X28740Y11356
X29685Y11356
X29370Y10356
X28425Y10356
X27480Y10356
X26535Y10356
X25590Y10356
X25275Y12356
X26220Y12356
X27165Y12356
X28110Y12356
X29055Y12356
X31208Y14195
X31208Y15140
X31208Y16085
X31208Y17029
X31208Y17974
X32208Y17659
X32208Y16714
X32208Y15770
X32208Y14825
X32208Y13880
X33208Y14510
X33208Y15455
X33208Y16400
X33208Y17344
X33208Y18289
X32208Y18604
T03
X28651Y23894
X26751Y23894
T04
X13281Y36736
X12517Y35973
X11753Y35209
X10990Y34445
X10226Y33682
X9462Y32918
X9137Y34007
X9901Y34771
X10664Y35534
X11428Y36298
X12192Y37062
X12955Y37825
X13719Y38589
X14044Y37500
X14808Y38264
X22773Y40906
X23853Y40906
X24933Y40906
X24393Y41906
X23313Y41906
X25473Y41906
X26013Y40906
X27093Y40906
X28173Y40906
X29253Y40906
X30333Y40906
X29793Y41906
X28713Y41906
X27633Y41906
X26553Y41906
X7696Y25619
X7696Y24539
X7696Y23459
X7696Y22379
X6696Y22919
X6696Y23999
X6696Y25079
X6696Y21839
X7696Y21299
T05
X23894Y4942
X24894Y4942
X25894Y4942
X25894Y3942
X24894Y3942
X23894Y3942
T06
X15365Y6512
X14808Y5955
X14112Y6651
X14669Y7208
T07
X17604Y2499
X18594Y2499
X19584Y2499
X22424Y7842
X23414Y7842
X24394Y7842
X25394Y7842
X26374Y7842
X27364Y7842
X30531Y6694
X31521Y6694
X32501Y6694
X33501Y6694
X34481Y6694
X35471Y6694
X35471Y3394
X34481Y3394
X33501Y3394
X32501Y3394
X31521Y3394
X30531Y3394
X35701Y10104
X35701Y11094
X35701Y12084
X35701Y15224
X35701Y16214
X35701Y17194
X35701Y18194
X35701Y19174
X35701Y20164
X39101Y20164
X39101Y19174
X39101Y18194
X39101Y17194
X39101Y16214
X39101Y15224
X39101Y12084
X39101Y11094
X39101Y10104
X42601Y10104
X42601Y11094
X42601Y12084
X42651Y15222
X42651Y16212
X42651Y17192
X42651Y18192
X42651Y19172
X42651Y20162
X44827Y23750
X44827Y24750
X44827Y25750
X44827Y26750
X44827Y27750
X44827Y28750
X44827Y29750
X44827Y30750
X44827Y31750
X44827Y32750
X35772Y32750
X35772Y31750
X35772Y30750
X35772Y29750
X35772Y28750
X35772Y27750
X35772Y26750
X35772Y25750
X35772Y24750
X35772Y23750
X32301Y26424
X32301Y27414
X32301Y28394
X32301Y29394
X32301Y30374
X32301Y31364
X29101Y28384
X29101Y27394
X29101Y26404
X25201Y26404
X25201Y27394
X25201Y28384
X22001Y28394
X22001Y27414
X22001Y26424
X22001Y29394
X22001Y30374
X22001Y31364
X19048Y33654
X19741Y34347
X20441Y35047
X18351Y37347
X17651Y36647
X16958Y35954
X16250Y35247
X15557Y34554
X14857Y33854
X16947Y31554
X17647Y32254
X18340Y32947
X14808Y29287
X14108Y28587
X13408Y27887
X11108Y30187
X11808Y30887
X12508Y31587
X17112Y25207
X17112Y24217
X17112Y23227
T08
X21001Y23794
X22001Y23794
X23001Y23794
X24001Y23794
X25001Y23794
X18908Y29599
X18201Y28892
X17494Y28185
X16787Y27478
X19615Y30306
X24401Y30992
X24401Y31992
X24401Y32992
X26401Y32992
X26401Y31992
X26401Y30992
X27901Y30992
X27901Y31992
X27901Y32992
X29901Y32992
X29901Y31992
X29901Y30992
X35101Y40492
X35101Y41492
X35101Y42492
X37101Y42492
X37101Y41492
X37101Y40492
X9697Y16938
X8990Y16231
X8283Y15524
X7576Y14817
X6869Y14110
T09
X22437Y11356
X32208Y21128
T10
X15382Y3873
X12030Y7224
T11
X9030Y9092
X10700Y10763
X11174Y8619
T12
X7196Y18529
X7196Y28389
X7143Y31306
X16420Y40583
X19993Y41406
X33113Y41406
M30
