G75*
G70*
%OFA0B0*%
%FSLAX24Y24*%
%IPPOS*%
%LPD*%
%AMOC8*
5,1,8,0,0,1.08239X$1,22.5*
%
%ADD10C,0.0120*%
%ADD11C,0.0060*%
%ADD12C,0.1000*%
%ADD13C,0.0240*%
%ADD14C,0.0030*%
%ADD15C,0.0080*%
%ADD16C,0.0000*%
%ADD17C,0.0050*%
%ADD18R,0.7300X0.0300*%
%ADD19R,1.2200X0.0200*%
%ADD20R,0.0320X0.2850*%
%ADD21R,0.0320X0.1850*%
%ADD22C,0.0070*%
%ADD23C,0.0040*%
%ADD24R,0.0300X0.7300*%
%ADD25R,0.0200X1.2200*%
%ADD26R,0.2850X0.0320*%
%ADD27R,0.1850X0.0320*%
%ADD28C,0.0100*%
%ADD29R,0.0300X1.0550*%
%ADD30R,0.0200X1.5450*%
D10*
X002255Y003122D02*
X002255Y035043D01*
X051500Y035043D01*
X051500Y003122D01*
X002255Y003122D01*
D11*
X007392Y002793D02*
X007392Y002593D01*
X019592Y002593D01*
X019592Y002793D01*
X017592Y002793D01*
X009392Y002793D01*
X009392Y002993D01*
X009442Y002993D01*
X009442Y003943D01*
X009444Y003973D01*
X009449Y004003D01*
X009458Y004032D01*
X009471Y004059D01*
X009486Y004085D01*
X009505Y004109D01*
X009526Y004130D01*
X009550Y004149D01*
X009576Y004164D01*
X009603Y004177D01*
X009632Y004186D01*
X009662Y004191D01*
X009692Y004193D01*
X009742Y004193D02*
X007392Y004193D01*
X007392Y008243D01*
X007592Y008443D01*
X009542Y008443D01*
X009742Y008243D01*
X009742Y004193D01*
X009842Y004193D01*
X009842Y004493D01*
X017142Y004493D01*
X017142Y004193D01*
X009842Y004193D01*
X009392Y002793D02*
X007392Y002793D01*
X007392Y004193D01*
X010042Y002593D02*
X010072Y002591D01*
X010102Y002586D01*
X010131Y002577D01*
X010158Y002564D01*
X010184Y002549D01*
X010208Y002530D01*
X010229Y002509D01*
X010248Y002485D01*
X010263Y002459D01*
X010276Y002432D01*
X010285Y002403D01*
X010290Y002373D01*
X010292Y002343D01*
X010292Y000343D01*
X010294Y000317D01*
X010299Y000291D01*
X010307Y000266D01*
X010319Y000243D01*
X010333Y000221D01*
X010351Y000202D01*
X010370Y000184D01*
X010392Y000170D01*
X010415Y000158D01*
X010440Y000150D01*
X010466Y000145D01*
X010492Y000143D01*
X016492Y000143D01*
X016518Y000145D01*
X016544Y000150D01*
X016569Y000158D01*
X016592Y000170D01*
X016614Y000184D01*
X016633Y000202D01*
X016651Y000221D01*
X016665Y000243D01*
X016677Y000266D01*
X016685Y000291D01*
X016690Y000317D01*
X016692Y000343D01*
X016692Y002343D01*
X016694Y002373D01*
X016699Y002403D01*
X016708Y002432D01*
X016721Y002459D01*
X016736Y002485D01*
X016755Y002509D01*
X016776Y002530D01*
X016800Y002549D01*
X016826Y002564D01*
X016853Y002577D01*
X016882Y002586D01*
X016912Y002591D01*
X016942Y002593D01*
X017592Y002793D02*
X017592Y002993D01*
X017542Y002993D01*
X017542Y003943D01*
X017540Y003973D01*
X017535Y004003D01*
X017526Y004032D01*
X017513Y004059D01*
X017498Y004085D01*
X017479Y004109D01*
X017458Y004130D01*
X017434Y004149D01*
X017408Y004164D01*
X017381Y004177D01*
X017352Y004186D01*
X017322Y004191D01*
X017292Y004193D01*
X017242Y004193D02*
X017242Y008243D01*
X017442Y008443D01*
X019342Y008443D01*
X019592Y008193D01*
X019592Y004193D01*
X017242Y004193D01*
X017142Y004193D01*
X019592Y004193D02*
X019592Y002793D01*
X020777Y002793D02*
X020777Y002593D01*
X032977Y002593D01*
X032977Y002793D01*
X030977Y002793D01*
X022777Y002793D01*
X022777Y002993D01*
X022827Y002993D01*
X022827Y003943D01*
X022829Y003973D01*
X022834Y004003D01*
X022843Y004032D01*
X022856Y004059D01*
X022871Y004085D01*
X022890Y004109D01*
X022911Y004130D01*
X022935Y004149D01*
X022961Y004164D01*
X022988Y004177D01*
X023017Y004186D01*
X023047Y004191D01*
X023077Y004193D01*
X023127Y004193D02*
X020777Y004193D01*
X020777Y008243D01*
X020977Y008443D01*
X022927Y008443D01*
X023127Y008243D01*
X023127Y004193D01*
X023227Y004193D01*
X023227Y004493D01*
X030527Y004493D01*
X030527Y004193D01*
X023227Y004193D01*
X022777Y002793D02*
X020777Y002793D01*
X020777Y004193D01*
X023427Y002593D02*
X023457Y002591D01*
X023487Y002586D01*
X023516Y002577D01*
X023543Y002564D01*
X023569Y002549D01*
X023593Y002530D01*
X023614Y002509D01*
X023633Y002485D01*
X023648Y002459D01*
X023661Y002432D01*
X023670Y002403D01*
X023675Y002373D01*
X023677Y002343D01*
X023677Y000343D01*
X023679Y000317D01*
X023684Y000291D01*
X023692Y000266D01*
X023704Y000243D01*
X023718Y000221D01*
X023736Y000202D01*
X023755Y000184D01*
X023777Y000170D01*
X023800Y000158D01*
X023825Y000150D01*
X023851Y000145D01*
X023877Y000143D01*
X029877Y000143D01*
X029903Y000145D01*
X029929Y000150D01*
X029954Y000158D01*
X029977Y000170D01*
X029999Y000184D01*
X030018Y000202D01*
X030036Y000221D01*
X030050Y000243D01*
X030062Y000266D01*
X030070Y000291D01*
X030075Y000317D01*
X030077Y000343D01*
X030077Y002343D01*
X030079Y002373D01*
X030084Y002403D01*
X030093Y002432D01*
X030106Y002459D01*
X030121Y002485D01*
X030140Y002509D01*
X030161Y002530D01*
X030185Y002549D01*
X030211Y002564D01*
X030238Y002577D01*
X030267Y002586D01*
X030297Y002591D01*
X030327Y002593D01*
X030977Y002793D02*
X030977Y002993D01*
X030927Y002993D01*
X030927Y003943D01*
X030925Y003973D01*
X030920Y004003D01*
X030911Y004032D01*
X030898Y004059D01*
X030883Y004085D01*
X030864Y004109D01*
X030843Y004130D01*
X030819Y004149D01*
X030793Y004164D01*
X030766Y004177D01*
X030737Y004186D01*
X030707Y004191D01*
X030677Y004193D01*
X030627Y004193D02*
X030627Y008243D01*
X030827Y008443D01*
X032727Y008443D01*
X032977Y008193D01*
X032977Y004193D01*
X030627Y004193D01*
X030527Y004193D01*
X032977Y004193D02*
X032977Y002793D01*
X034163Y002793D02*
X034163Y002593D01*
X046363Y002593D01*
X046363Y002793D01*
X044363Y002793D01*
X036163Y002793D01*
X036163Y002993D01*
X036213Y002993D01*
X036213Y003943D01*
X036215Y003973D01*
X036220Y004003D01*
X036229Y004032D01*
X036242Y004059D01*
X036257Y004085D01*
X036276Y004109D01*
X036297Y004130D01*
X036321Y004149D01*
X036347Y004164D01*
X036374Y004177D01*
X036403Y004186D01*
X036433Y004191D01*
X036463Y004193D01*
X036513Y004193D02*
X034163Y004193D01*
X034163Y008243D01*
X034363Y008443D01*
X036313Y008443D01*
X036513Y008243D01*
X036513Y004193D01*
X036613Y004193D01*
X036613Y004493D01*
X043913Y004493D01*
X043913Y004193D01*
X036613Y004193D01*
X036163Y002793D02*
X034163Y002793D01*
X034163Y004193D01*
X036813Y002593D02*
X036843Y002591D01*
X036873Y002586D01*
X036902Y002577D01*
X036929Y002564D01*
X036955Y002549D01*
X036979Y002530D01*
X037000Y002509D01*
X037019Y002485D01*
X037034Y002459D01*
X037047Y002432D01*
X037056Y002403D01*
X037061Y002373D01*
X037063Y002343D01*
X037063Y000343D01*
X037065Y000317D01*
X037070Y000291D01*
X037078Y000266D01*
X037090Y000243D01*
X037104Y000221D01*
X037122Y000202D01*
X037141Y000184D01*
X037163Y000170D01*
X037186Y000158D01*
X037211Y000150D01*
X037237Y000145D01*
X037263Y000143D01*
X043263Y000143D01*
X043289Y000145D01*
X043315Y000150D01*
X043340Y000158D01*
X043363Y000170D01*
X043385Y000184D01*
X043404Y000202D01*
X043422Y000221D01*
X043436Y000243D01*
X043448Y000266D01*
X043456Y000291D01*
X043461Y000317D01*
X043463Y000343D01*
X043463Y002343D01*
X043465Y002373D01*
X043470Y002403D01*
X043479Y002432D01*
X043492Y002459D01*
X043507Y002485D01*
X043526Y002509D01*
X043547Y002530D01*
X043571Y002549D01*
X043597Y002564D01*
X043624Y002577D01*
X043653Y002586D01*
X043683Y002591D01*
X043713Y002593D01*
X044363Y002793D02*
X044363Y002993D01*
X044313Y002993D01*
X044313Y003943D01*
X044311Y003973D01*
X044306Y004003D01*
X044297Y004032D01*
X044284Y004059D01*
X044269Y004085D01*
X044250Y004109D01*
X044229Y004130D01*
X044205Y004149D01*
X044179Y004164D01*
X044152Y004177D01*
X044123Y004186D01*
X044093Y004191D01*
X044063Y004193D01*
X044013Y004193D02*
X044013Y008243D01*
X044213Y008443D01*
X046113Y008443D01*
X046363Y008193D01*
X046363Y004193D01*
X044013Y004193D01*
X043913Y004193D01*
X046363Y004193D02*
X046363Y002793D01*
X044543Y007193D02*
X044545Y007243D01*
X044551Y007293D01*
X044561Y007343D01*
X044574Y007391D01*
X044591Y007439D01*
X044612Y007485D01*
X044636Y007529D01*
X044664Y007571D01*
X044695Y007611D01*
X044729Y007648D01*
X044766Y007683D01*
X044805Y007714D01*
X044846Y007743D01*
X044890Y007768D01*
X044936Y007790D01*
X044983Y007808D01*
X045031Y007822D01*
X045080Y007833D01*
X045130Y007840D01*
X045180Y007843D01*
X045231Y007842D01*
X045281Y007837D01*
X045331Y007828D01*
X045379Y007816D01*
X045427Y007799D01*
X045473Y007779D01*
X045518Y007756D01*
X045561Y007729D01*
X045601Y007699D01*
X045639Y007666D01*
X045674Y007630D01*
X045707Y007591D01*
X045736Y007550D01*
X045762Y007507D01*
X045785Y007462D01*
X045804Y007415D01*
X045819Y007367D01*
X045831Y007318D01*
X045839Y007268D01*
X045843Y007218D01*
X045843Y007168D01*
X045839Y007118D01*
X045831Y007068D01*
X045819Y007019D01*
X045804Y006971D01*
X045785Y006924D01*
X045762Y006879D01*
X045736Y006836D01*
X045707Y006795D01*
X045674Y006756D01*
X045639Y006720D01*
X045601Y006687D01*
X045561Y006657D01*
X045518Y006630D01*
X045473Y006607D01*
X045427Y006587D01*
X045379Y006570D01*
X045331Y006558D01*
X045281Y006549D01*
X045231Y006544D01*
X045180Y006543D01*
X045130Y006546D01*
X045080Y006553D01*
X045031Y006564D01*
X044983Y006578D01*
X044936Y006596D01*
X044890Y006618D01*
X044846Y006643D01*
X044805Y006672D01*
X044766Y006703D01*
X044729Y006738D01*
X044695Y006775D01*
X044664Y006815D01*
X044636Y006857D01*
X044612Y006901D01*
X044591Y006947D01*
X044574Y006995D01*
X044561Y007043D01*
X044551Y007093D01*
X044545Y007143D01*
X044543Y007193D01*
X046379Y011383D02*
X050429Y011383D01*
X050429Y013733D01*
X046379Y013733D01*
X046179Y013533D01*
X046179Y011583D01*
X046379Y011383D01*
X046779Y012523D02*
X046781Y012573D01*
X046787Y012623D01*
X046797Y012673D01*
X046810Y012721D01*
X046827Y012769D01*
X046848Y012815D01*
X046872Y012859D01*
X046900Y012901D01*
X046931Y012941D01*
X046965Y012978D01*
X047002Y013013D01*
X047041Y013044D01*
X047082Y013073D01*
X047126Y013098D01*
X047172Y013120D01*
X047219Y013138D01*
X047267Y013152D01*
X047316Y013163D01*
X047366Y013170D01*
X047416Y013173D01*
X047467Y013172D01*
X047517Y013167D01*
X047567Y013158D01*
X047615Y013146D01*
X047663Y013129D01*
X047709Y013109D01*
X047754Y013086D01*
X047797Y013059D01*
X047837Y013029D01*
X047875Y012996D01*
X047910Y012960D01*
X047943Y012921D01*
X047972Y012880D01*
X047998Y012837D01*
X048021Y012792D01*
X048040Y012745D01*
X048055Y012697D01*
X048067Y012648D01*
X048075Y012598D01*
X048079Y012548D01*
X048079Y012498D01*
X048075Y012448D01*
X048067Y012398D01*
X048055Y012349D01*
X048040Y012301D01*
X048021Y012254D01*
X047998Y012209D01*
X047972Y012166D01*
X047943Y012125D01*
X047910Y012086D01*
X047875Y012050D01*
X047837Y012017D01*
X047797Y011987D01*
X047754Y011960D01*
X047709Y011937D01*
X047663Y011917D01*
X047615Y011900D01*
X047567Y011888D01*
X047517Y011879D01*
X047467Y011874D01*
X047416Y011873D01*
X047366Y011876D01*
X047316Y011883D01*
X047267Y011894D01*
X047219Y011908D01*
X047172Y011926D01*
X047126Y011948D01*
X047082Y011973D01*
X047041Y012002D01*
X047002Y012033D01*
X046965Y012068D01*
X046931Y012105D01*
X046900Y012145D01*
X046872Y012187D01*
X046848Y012231D01*
X046827Y012277D01*
X046810Y012325D01*
X046797Y012373D01*
X046787Y012423D01*
X046781Y012473D01*
X046779Y012523D01*
X050129Y013833D02*
X050429Y013833D01*
X050429Y013733D01*
X050429Y013833D02*
X050429Y024383D01*
X050129Y024383D01*
X050129Y013833D01*
X050429Y013683D02*
X050431Y013653D01*
X050436Y013623D01*
X050445Y013594D01*
X050458Y013567D01*
X050473Y013541D01*
X050492Y013517D01*
X050513Y013496D01*
X050537Y013477D01*
X050563Y013462D01*
X050590Y013449D01*
X050619Y013440D01*
X050649Y013435D01*
X050679Y013433D01*
X051629Y013433D01*
X051629Y013383D01*
X051829Y013383D01*
X051829Y011383D01*
X050429Y011383D01*
X051829Y011383D02*
X052029Y011383D01*
X052029Y026833D01*
X051829Y026833D01*
X051829Y024833D01*
X051829Y013383D01*
X052029Y014033D02*
X052031Y014063D01*
X052036Y014093D01*
X052045Y014122D01*
X052058Y014149D01*
X052073Y014175D01*
X052092Y014199D01*
X052113Y014220D01*
X052137Y014239D01*
X052163Y014254D01*
X052190Y014267D01*
X052219Y014276D01*
X052249Y014281D01*
X052279Y014283D01*
X054279Y014283D01*
X054305Y014285D01*
X054331Y014290D01*
X054356Y014298D01*
X054379Y014310D01*
X054401Y014324D01*
X054420Y014342D01*
X054438Y014361D01*
X054452Y014383D01*
X054464Y014406D01*
X054472Y014431D01*
X054477Y014457D01*
X054479Y014483D01*
X054479Y023733D01*
X054477Y023759D01*
X054472Y023785D01*
X054464Y023810D01*
X054452Y023833D01*
X054438Y023855D01*
X054420Y023874D01*
X054401Y023892D01*
X054379Y023906D01*
X054356Y023918D01*
X054331Y023926D01*
X054305Y023931D01*
X054279Y023933D01*
X052279Y023933D01*
X052249Y023935D01*
X052219Y023940D01*
X052190Y023949D01*
X052163Y023962D01*
X052137Y023977D01*
X052113Y023996D01*
X052092Y024017D01*
X052073Y024041D01*
X052058Y024067D01*
X052045Y024094D01*
X052036Y024123D01*
X052031Y024153D01*
X052029Y024183D01*
X051829Y024833D02*
X051629Y024833D01*
X051629Y024783D01*
X050679Y024783D01*
X050649Y024781D01*
X050619Y024776D01*
X050590Y024767D01*
X050563Y024754D01*
X050537Y024739D01*
X050513Y024720D01*
X050492Y024699D01*
X050473Y024675D01*
X050458Y024649D01*
X050445Y024622D01*
X050436Y024593D01*
X050431Y024563D01*
X050429Y024533D01*
X050429Y024483D02*
X046379Y024483D01*
X046179Y024683D01*
X046179Y026583D01*
X046429Y026833D01*
X050429Y026833D01*
X050429Y024483D01*
X050429Y024383D01*
X050429Y026833D02*
X051829Y026833D01*
X046779Y025643D02*
X046781Y025693D01*
X046787Y025743D01*
X046797Y025793D01*
X046810Y025841D01*
X046827Y025889D01*
X046848Y025935D01*
X046872Y025979D01*
X046900Y026021D01*
X046931Y026061D01*
X046965Y026098D01*
X047002Y026133D01*
X047041Y026164D01*
X047082Y026193D01*
X047126Y026218D01*
X047172Y026240D01*
X047219Y026258D01*
X047267Y026272D01*
X047316Y026283D01*
X047366Y026290D01*
X047416Y026293D01*
X047467Y026292D01*
X047517Y026287D01*
X047567Y026278D01*
X047615Y026266D01*
X047663Y026249D01*
X047709Y026229D01*
X047754Y026206D01*
X047797Y026179D01*
X047837Y026149D01*
X047875Y026116D01*
X047910Y026080D01*
X047943Y026041D01*
X047972Y026000D01*
X047998Y025957D01*
X048021Y025912D01*
X048040Y025865D01*
X048055Y025817D01*
X048067Y025768D01*
X048075Y025718D01*
X048079Y025668D01*
X048079Y025618D01*
X048075Y025568D01*
X048067Y025518D01*
X048055Y025469D01*
X048040Y025421D01*
X048021Y025374D01*
X047998Y025329D01*
X047972Y025286D01*
X047943Y025245D01*
X047910Y025206D01*
X047875Y025170D01*
X047837Y025137D01*
X047797Y025107D01*
X047754Y025080D01*
X047709Y025057D01*
X047663Y025037D01*
X047615Y025020D01*
X047567Y025008D01*
X047517Y024999D01*
X047467Y024994D01*
X047416Y024993D01*
X047366Y024996D01*
X047316Y025003D01*
X047267Y025014D01*
X047219Y025028D01*
X047172Y025046D01*
X047126Y025068D01*
X047082Y025093D01*
X047041Y025122D01*
X047002Y025153D01*
X046965Y025188D01*
X046931Y025225D01*
X046900Y025265D01*
X046872Y025307D01*
X046848Y025351D01*
X046827Y025397D01*
X046810Y025445D01*
X046797Y025493D01*
X046787Y025543D01*
X046781Y025593D01*
X046779Y025643D01*
X042820Y029056D02*
X042820Y033106D01*
X040470Y033106D01*
X040470Y029056D01*
X040670Y028856D01*
X042620Y028856D01*
X042820Y029056D01*
X041000Y030106D02*
X041002Y030156D01*
X041008Y030206D01*
X041018Y030256D01*
X041031Y030304D01*
X041048Y030352D01*
X041069Y030398D01*
X041093Y030442D01*
X041121Y030484D01*
X041152Y030524D01*
X041186Y030561D01*
X041223Y030596D01*
X041262Y030627D01*
X041303Y030656D01*
X041347Y030681D01*
X041393Y030703D01*
X041440Y030721D01*
X041488Y030735D01*
X041537Y030746D01*
X041587Y030753D01*
X041637Y030756D01*
X041688Y030755D01*
X041738Y030750D01*
X041788Y030741D01*
X041836Y030729D01*
X041884Y030712D01*
X041930Y030692D01*
X041975Y030669D01*
X042018Y030642D01*
X042058Y030612D01*
X042096Y030579D01*
X042131Y030543D01*
X042164Y030504D01*
X042193Y030463D01*
X042219Y030420D01*
X042242Y030375D01*
X042261Y030328D01*
X042276Y030280D01*
X042288Y030231D01*
X042296Y030181D01*
X042300Y030131D01*
X042300Y030081D01*
X042296Y030031D01*
X042288Y029981D01*
X042276Y029932D01*
X042261Y029884D01*
X042242Y029837D01*
X042219Y029792D01*
X042193Y029749D01*
X042164Y029708D01*
X042131Y029669D01*
X042096Y029633D01*
X042058Y029600D01*
X042018Y029570D01*
X041975Y029543D01*
X041930Y029520D01*
X041884Y029500D01*
X041836Y029483D01*
X041788Y029471D01*
X041738Y029462D01*
X041688Y029457D01*
X041637Y029456D01*
X041587Y029459D01*
X041537Y029466D01*
X041488Y029477D01*
X041440Y029491D01*
X041393Y029509D01*
X041347Y029531D01*
X041303Y029556D01*
X041262Y029585D01*
X041223Y029616D01*
X041186Y029651D01*
X041152Y029688D01*
X041121Y029728D01*
X041093Y029770D01*
X041069Y029814D01*
X041048Y029860D01*
X041031Y029908D01*
X041018Y029956D01*
X041008Y030006D01*
X041002Y030056D01*
X041000Y030106D01*
X040370Y032806D02*
X040370Y033106D01*
X040470Y033106D01*
X040370Y033106D02*
X033070Y033106D01*
X033070Y032806D01*
X040370Y032806D01*
X040520Y033106D02*
X040550Y033108D01*
X040580Y033113D01*
X040609Y033122D01*
X040636Y033135D01*
X040662Y033150D01*
X040686Y033169D01*
X040707Y033190D01*
X040726Y033214D01*
X040741Y033240D01*
X040754Y033267D01*
X040763Y033296D01*
X040768Y033326D01*
X040770Y033356D01*
X040770Y034306D01*
X040820Y034306D01*
X040820Y034506D01*
X042820Y034506D01*
X042820Y033106D01*
X042820Y034506D02*
X042820Y034706D01*
X030620Y034706D01*
X030620Y034506D01*
X032620Y034506D01*
X040820Y034506D01*
X040170Y034706D02*
X040140Y034708D01*
X040110Y034713D01*
X040081Y034722D01*
X040054Y034735D01*
X040028Y034750D01*
X040004Y034769D01*
X039983Y034790D01*
X039964Y034814D01*
X039949Y034840D01*
X039936Y034867D01*
X039927Y034896D01*
X039922Y034926D01*
X039920Y034956D01*
X039920Y036956D01*
X039918Y036982D01*
X039913Y037008D01*
X039905Y037033D01*
X039893Y037056D01*
X039879Y037078D01*
X039861Y037097D01*
X039842Y037115D01*
X039820Y037129D01*
X039797Y037141D01*
X039772Y037149D01*
X039746Y037154D01*
X039720Y037156D01*
X033720Y037156D01*
X033694Y037154D01*
X033668Y037149D01*
X033643Y037141D01*
X033620Y037129D01*
X033598Y037115D01*
X033579Y037097D01*
X033561Y037078D01*
X033547Y037056D01*
X033535Y037033D01*
X033527Y037008D01*
X033522Y036982D01*
X033520Y036956D01*
X033520Y034956D01*
X033518Y034926D01*
X033513Y034896D01*
X033504Y034867D01*
X033491Y034840D01*
X033476Y034814D01*
X033457Y034790D01*
X033436Y034769D01*
X033412Y034750D01*
X033386Y034735D01*
X033359Y034722D01*
X033330Y034713D01*
X033300Y034708D01*
X033270Y034706D01*
X032620Y034506D02*
X032620Y034306D01*
X032670Y034306D01*
X032670Y033356D01*
X032672Y033326D01*
X032677Y033296D01*
X032686Y033267D01*
X032699Y033240D01*
X032714Y033214D01*
X032733Y033190D01*
X032754Y033169D01*
X032778Y033150D01*
X032804Y033135D01*
X032831Y033122D01*
X032860Y033113D01*
X032890Y033108D01*
X032920Y033106D01*
X032970Y033106D02*
X032970Y029056D01*
X032770Y028856D01*
X030870Y028856D01*
X030620Y029106D01*
X030620Y033106D01*
X032970Y033106D01*
X033070Y033106D01*
X030620Y033106D02*
X030620Y034506D01*
X031140Y030106D02*
X031142Y030156D01*
X031148Y030206D01*
X031158Y030256D01*
X031171Y030304D01*
X031188Y030352D01*
X031209Y030398D01*
X031233Y030442D01*
X031261Y030484D01*
X031292Y030524D01*
X031326Y030561D01*
X031363Y030596D01*
X031402Y030627D01*
X031443Y030656D01*
X031487Y030681D01*
X031533Y030703D01*
X031580Y030721D01*
X031628Y030735D01*
X031677Y030746D01*
X031727Y030753D01*
X031777Y030756D01*
X031828Y030755D01*
X031878Y030750D01*
X031928Y030741D01*
X031976Y030729D01*
X032024Y030712D01*
X032070Y030692D01*
X032115Y030669D01*
X032158Y030642D01*
X032198Y030612D01*
X032236Y030579D01*
X032271Y030543D01*
X032304Y030504D01*
X032333Y030463D01*
X032359Y030420D01*
X032382Y030375D01*
X032401Y030328D01*
X032416Y030280D01*
X032428Y030231D01*
X032436Y030181D01*
X032440Y030131D01*
X032440Y030081D01*
X032436Y030031D01*
X032428Y029981D01*
X032416Y029932D01*
X032401Y029884D01*
X032382Y029837D01*
X032359Y029792D01*
X032333Y029749D01*
X032304Y029708D01*
X032271Y029669D01*
X032236Y029633D01*
X032198Y029600D01*
X032158Y029570D01*
X032115Y029543D01*
X032070Y029520D01*
X032024Y029500D01*
X031976Y029483D01*
X031928Y029471D01*
X031878Y029462D01*
X031828Y029457D01*
X031777Y029456D01*
X031727Y029459D01*
X031677Y029466D01*
X031628Y029477D01*
X031580Y029491D01*
X031533Y029509D01*
X031487Y029531D01*
X031443Y029556D01*
X031402Y029585D01*
X031363Y029616D01*
X031326Y029651D01*
X031292Y029688D01*
X031261Y029728D01*
X031233Y029770D01*
X031209Y029814D01*
X031188Y029860D01*
X031171Y029908D01*
X031158Y029956D01*
X031148Y030006D01*
X031142Y030056D01*
X031140Y030106D01*
X023135Y029056D02*
X023135Y033106D01*
X020785Y033106D01*
X020785Y029056D01*
X020985Y028856D01*
X022935Y028856D01*
X023135Y029056D01*
X021315Y030106D02*
X021317Y030156D01*
X021323Y030206D01*
X021333Y030256D01*
X021346Y030304D01*
X021363Y030352D01*
X021384Y030398D01*
X021408Y030442D01*
X021436Y030484D01*
X021467Y030524D01*
X021501Y030561D01*
X021538Y030596D01*
X021577Y030627D01*
X021618Y030656D01*
X021662Y030681D01*
X021708Y030703D01*
X021755Y030721D01*
X021803Y030735D01*
X021852Y030746D01*
X021902Y030753D01*
X021952Y030756D01*
X022003Y030755D01*
X022053Y030750D01*
X022103Y030741D01*
X022151Y030729D01*
X022199Y030712D01*
X022245Y030692D01*
X022290Y030669D01*
X022333Y030642D01*
X022373Y030612D01*
X022411Y030579D01*
X022446Y030543D01*
X022479Y030504D01*
X022508Y030463D01*
X022534Y030420D01*
X022557Y030375D01*
X022576Y030328D01*
X022591Y030280D01*
X022603Y030231D01*
X022611Y030181D01*
X022615Y030131D01*
X022615Y030081D01*
X022611Y030031D01*
X022603Y029981D01*
X022591Y029932D01*
X022576Y029884D01*
X022557Y029837D01*
X022534Y029792D01*
X022508Y029749D01*
X022479Y029708D01*
X022446Y029669D01*
X022411Y029633D01*
X022373Y029600D01*
X022333Y029570D01*
X022290Y029543D01*
X022245Y029520D01*
X022199Y029500D01*
X022151Y029483D01*
X022103Y029471D01*
X022053Y029462D01*
X022003Y029457D01*
X021952Y029456D01*
X021902Y029459D01*
X021852Y029466D01*
X021803Y029477D01*
X021755Y029491D01*
X021708Y029509D01*
X021662Y029531D01*
X021618Y029556D01*
X021577Y029585D01*
X021538Y029616D01*
X021501Y029651D01*
X021467Y029688D01*
X021436Y029728D01*
X021408Y029770D01*
X021384Y029814D01*
X021363Y029860D01*
X021346Y029908D01*
X021333Y029956D01*
X021323Y030006D01*
X021317Y030056D01*
X021315Y030106D01*
X020685Y032806D02*
X020685Y033106D01*
X020785Y033106D01*
X020685Y033106D02*
X013385Y033106D01*
X013385Y032806D01*
X020685Y032806D01*
X020835Y033106D02*
X020865Y033108D01*
X020895Y033113D01*
X020924Y033122D01*
X020951Y033135D01*
X020977Y033150D01*
X021001Y033169D01*
X021022Y033190D01*
X021041Y033214D01*
X021056Y033240D01*
X021069Y033267D01*
X021078Y033296D01*
X021083Y033326D01*
X021085Y033356D01*
X021085Y034306D01*
X021135Y034306D01*
X021135Y034506D01*
X023135Y034506D01*
X023135Y033106D01*
X023135Y034506D02*
X023135Y034706D01*
X010935Y034706D01*
X010935Y034506D01*
X012935Y034506D01*
X021135Y034506D01*
X020485Y034706D02*
X020455Y034708D01*
X020425Y034713D01*
X020396Y034722D01*
X020369Y034735D01*
X020343Y034750D01*
X020319Y034769D01*
X020298Y034790D01*
X020279Y034814D01*
X020264Y034840D01*
X020251Y034867D01*
X020242Y034896D01*
X020237Y034926D01*
X020235Y034956D01*
X020235Y036956D01*
X020233Y036982D01*
X020228Y037008D01*
X020220Y037033D01*
X020208Y037056D01*
X020194Y037078D01*
X020176Y037097D01*
X020157Y037115D01*
X020135Y037129D01*
X020112Y037141D01*
X020087Y037149D01*
X020061Y037154D01*
X020035Y037156D01*
X014035Y037156D01*
X014009Y037154D01*
X013983Y037149D01*
X013958Y037141D01*
X013935Y037129D01*
X013913Y037115D01*
X013894Y037097D01*
X013876Y037078D01*
X013862Y037056D01*
X013850Y037033D01*
X013842Y037008D01*
X013837Y036982D01*
X013835Y036956D01*
X013835Y034956D01*
X013833Y034926D01*
X013828Y034896D01*
X013819Y034867D01*
X013806Y034840D01*
X013791Y034814D01*
X013772Y034790D01*
X013751Y034769D01*
X013727Y034750D01*
X013701Y034735D01*
X013674Y034722D01*
X013645Y034713D01*
X013615Y034708D01*
X013585Y034706D01*
X012935Y034506D02*
X012935Y034306D01*
X012985Y034306D01*
X012985Y033356D01*
X012987Y033326D01*
X012992Y033296D01*
X013001Y033267D01*
X013014Y033240D01*
X013029Y033214D01*
X013048Y033190D01*
X013069Y033169D01*
X013093Y033150D01*
X013119Y033135D01*
X013146Y033122D01*
X013175Y033113D01*
X013205Y033108D01*
X013235Y033106D01*
X013285Y033106D02*
X013285Y029056D01*
X013085Y028856D01*
X011185Y028856D01*
X010935Y029106D01*
X010935Y033106D01*
X013285Y033106D01*
X013385Y033106D01*
X010935Y033106D02*
X010935Y034506D01*
X011455Y030106D02*
X011457Y030156D01*
X011463Y030206D01*
X011473Y030256D01*
X011486Y030304D01*
X011503Y030352D01*
X011524Y030398D01*
X011548Y030442D01*
X011576Y030484D01*
X011607Y030524D01*
X011641Y030561D01*
X011678Y030596D01*
X011717Y030627D01*
X011758Y030656D01*
X011802Y030681D01*
X011848Y030703D01*
X011895Y030721D01*
X011943Y030735D01*
X011992Y030746D01*
X012042Y030753D01*
X012092Y030756D01*
X012143Y030755D01*
X012193Y030750D01*
X012243Y030741D01*
X012291Y030729D01*
X012339Y030712D01*
X012385Y030692D01*
X012430Y030669D01*
X012473Y030642D01*
X012513Y030612D01*
X012551Y030579D01*
X012586Y030543D01*
X012619Y030504D01*
X012648Y030463D01*
X012674Y030420D01*
X012697Y030375D01*
X012716Y030328D01*
X012731Y030280D01*
X012743Y030231D01*
X012751Y030181D01*
X012755Y030131D01*
X012755Y030081D01*
X012751Y030031D01*
X012743Y029981D01*
X012731Y029932D01*
X012716Y029884D01*
X012697Y029837D01*
X012674Y029792D01*
X012648Y029749D01*
X012619Y029708D01*
X012586Y029669D01*
X012551Y029633D01*
X012513Y029600D01*
X012473Y029570D01*
X012430Y029543D01*
X012385Y029520D01*
X012339Y029500D01*
X012291Y029483D01*
X012243Y029471D01*
X012193Y029462D01*
X012143Y029457D01*
X012092Y029456D01*
X012042Y029459D01*
X011992Y029466D01*
X011943Y029477D01*
X011895Y029491D01*
X011848Y029509D01*
X011802Y029531D01*
X011758Y029556D01*
X011717Y029585D01*
X011678Y029616D01*
X011641Y029651D01*
X011607Y029688D01*
X011576Y029728D01*
X011548Y029770D01*
X011524Y029814D01*
X011503Y029860D01*
X011486Y029908D01*
X011473Y029956D01*
X011463Y030006D01*
X011457Y030056D01*
X011455Y030106D01*
X008762Y026293D02*
X008335Y026293D01*
X008549Y026293D02*
X008549Y025652D01*
X008980Y025759D02*
X009087Y025652D01*
X009300Y025652D01*
X009407Y025759D01*
X009407Y025972D01*
X009300Y026079D01*
X009087Y026079D01*
X008980Y025972D01*
X008980Y025759D01*
X009624Y025652D02*
X009945Y025652D01*
X010051Y025759D01*
X010051Y025972D01*
X009945Y026079D01*
X009624Y026079D01*
X009624Y025439D01*
X008442Y024983D02*
X008242Y025183D01*
X004192Y025183D01*
X004192Y022833D01*
X008242Y022833D01*
X008442Y023033D01*
X008442Y024983D01*
X006542Y024013D02*
X006544Y024063D01*
X006550Y024113D01*
X006560Y024163D01*
X006573Y024211D01*
X006590Y024259D01*
X006611Y024305D01*
X006635Y024349D01*
X006663Y024391D01*
X006694Y024431D01*
X006728Y024468D01*
X006765Y024503D01*
X006804Y024534D01*
X006845Y024563D01*
X006889Y024588D01*
X006935Y024610D01*
X006982Y024628D01*
X007030Y024642D01*
X007079Y024653D01*
X007129Y024660D01*
X007179Y024663D01*
X007230Y024662D01*
X007280Y024657D01*
X007330Y024648D01*
X007378Y024636D01*
X007426Y024619D01*
X007472Y024599D01*
X007517Y024576D01*
X007560Y024549D01*
X007600Y024519D01*
X007638Y024486D01*
X007673Y024450D01*
X007706Y024411D01*
X007735Y024370D01*
X007761Y024327D01*
X007784Y024282D01*
X007803Y024235D01*
X007818Y024187D01*
X007830Y024138D01*
X007838Y024088D01*
X007842Y024038D01*
X007842Y023988D01*
X007838Y023938D01*
X007830Y023888D01*
X007818Y023839D01*
X007803Y023791D01*
X007784Y023744D01*
X007761Y023699D01*
X007735Y023656D01*
X007706Y023615D01*
X007673Y023576D01*
X007638Y023540D01*
X007600Y023507D01*
X007560Y023477D01*
X007517Y023450D01*
X007472Y023427D01*
X007426Y023407D01*
X007378Y023390D01*
X007330Y023378D01*
X007280Y023369D01*
X007230Y023364D01*
X007179Y023363D01*
X007129Y023366D01*
X007079Y023373D01*
X007030Y023384D01*
X006982Y023398D01*
X006935Y023416D01*
X006889Y023438D01*
X006845Y023463D01*
X006804Y023492D01*
X006765Y023523D01*
X006728Y023558D01*
X006694Y023595D01*
X006663Y023635D01*
X006635Y023677D01*
X006611Y023721D01*
X006590Y023767D01*
X006573Y023815D01*
X006560Y023863D01*
X006550Y023913D01*
X006544Y023963D01*
X006542Y024013D01*
X004492Y022733D02*
X004192Y022733D01*
X004192Y022833D01*
X004192Y022733D02*
X004192Y015433D01*
X004492Y015433D01*
X004492Y022733D01*
X004192Y022883D02*
X004190Y022913D01*
X004185Y022943D01*
X004176Y022972D01*
X004163Y022999D01*
X004148Y023025D01*
X004129Y023049D01*
X004108Y023070D01*
X004084Y023089D01*
X004058Y023104D01*
X004031Y023117D01*
X004002Y023126D01*
X003972Y023131D01*
X003942Y023133D01*
X002992Y023133D01*
X002992Y023183D01*
X002792Y023183D01*
X002792Y025183D01*
X004192Y025183D01*
X002792Y025183D02*
X002592Y025183D01*
X002592Y012983D01*
X002792Y012983D01*
X002792Y014983D01*
X002792Y023183D01*
X002592Y022533D02*
X002590Y022503D01*
X002585Y022473D01*
X002576Y022444D01*
X002563Y022417D01*
X002548Y022391D01*
X002529Y022367D01*
X002508Y022346D01*
X002484Y022327D01*
X002458Y022312D01*
X002431Y022299D01*
X002402Y022290D01*
X002372Y022285D01*
X002342Y022283D01*
X000342Y022283D01*
X000316Y022281D01*
X000290Y022276D01*
X000265Y022268D01*
X000242Y022256D01*
X000220Y022242D01*
X000201Y022224D01*
X000183Y022205D01*
X000169Y022183D01*
X000157Y022160D01*
X000149Y022135D01*
X000144Y022109D01*
X000142Y022083D01*
X000142Y016083D01*
X000144Y016057D01*
X000149Y016031D01*
X000157Y016006D01*
X000169Y015983D01*
X000183Y015961D01*
X000201Y015942D01*
X000220Y015924D01*
X000242Y015910D01*
X000265Y015898D01*
X000290Y015890D01*
X000316Y015885D01*
X000342Y015883D01*
X002342Y015883D01*
X002372Y015881D01*
X002402Y015876D01*
X002431Y015867D01*
X002458Y015854D01*
X002484Y015839D01*
X002508Y015820D01*
X002529Y015799D01*
X002548Y015775D01*
X002563Y015749D01*
X002576Y015722D01*
X002585Y015693D01*
X002590Y015663D01*
X002592Y015633D01*
X002792Y014983D02*
X002992Y014983D01*
X002992Y015033D01*
X003942Y015033D01*
X003972Y015035D01*
X004002Y015040D01*
X004031Y015049D01*
X004058Y015062D01*
X004084Y015077D01*
X004108Y015096D01*
X004129Y015117D01*
X004148Y015141D01*
X004163Y015167D01*
X004176Y015194D01*
X004185Y015223D01*
X004190Y015253D01*
X004192Y015283D01*
X004192Y015333D02*
X008242Y015333D01*
X008442Y015133D01*
X008442Y013233D01*
X008192Y012983D01*
X004192Y012983D01*
X004192Y015333D01*
X004192Y015433D01*
X006542Y014153D02*
X006544Y014203D01*
X006550Y014253D01*
X006560Y014303D01*
X006573Y014351D01*
X006590Y014399D01*
X006611Y014445D01*
X006635Y014489D01*
X006663Y014531D01*
X006694Y014571D01*
X006728Y014608D01*
X006765Y014643D01*
X006804Y014674D01*
X006845Y014703D01*
X006889Y014728D01*
X006935Y014750D01*
X006982Y014768D01*
X007030Y014782D01*
X007079Y014793D01*
X007129Y014800D01*
X007179Y014803D01*
X007230Y014802D01*
X007280Y014797D01*
X007330Y014788D01*
X007378Y014776D01*
X007426Y014759D01*
X007472Y014739D01*
X007517Y014716D01*
X007560Y014689D01*
X007600Y014659D01*
X007638Y014626D01*
X007673Y014590D01*
X007706Y014551D01*
X007735Y014510D01*
X007761Y014467D01*
X007784Y014422D01*
X007803Y014375D01*
X007818Y014327D01*
X007830Y014278D01*
X007838Y014228D01*
X007842Y014178D01*
X007842Y014128D01*
X007838Y014078D01*
X007830Y014028D01*
X007818Y013979D01*
X007803Y013931D01*
X007784Y013884D01*
X007761Y013839D01*
X007735Y013796D01*
X007706Y013755D01*
X007673Y013716D01*
X007638Y013680D01*
X007600Y013647D01*
X007560Y013617D01*
X007517Y013590D01*
X007472Y013567D01*
X007426Y013547D01*
X007378Y013530D01*
X007330Y013518D01*
X007280Y013509D01*
X007230Y013504D01*
X007179Y013503D01*
X007129Y013506D01*
X007079Y013513D01*
X007030Y013524D01*
X006982Y013538D01*
X006935Y013556D01*
X006889Y013578D01*
X006845Y013603D01*
X006804Y013632D01*
X006765Y013663D01*
X006728Y013698D01*
X006694Y013735D01*
X006663Y013775D01*
X006635Y013817D01*
X006611Y013861D01*
X006590Y013907D01*
X006573Y013955D01*
X006560Y014003D01*
X006550Y014053D01*
X006544Y014103D01*
X006542Y014153D01*
X004192Y012983D02*
X002792Y012983D01*
X007912Y007193D02*
X007914Y007243D01*
X007920Y007293D01*
X007930Y007343D01*
X007943Y007391D01*
X007960Y007439D01*
X007981Y007485D01*
X008005Y007529D01*
X008033Y007571D01*
X008064Y007611D01*
X008098Y007648D01*
X008135Y007683D01*
X008174Y007714D01*
X008215Y007743D01*
X008259Y007768D01*
X008305Y007790D01*
X008352Y007808D01*
X008400Y007822D01*
X008449Y007833D01*
X008499Y007840D01*
X008549Y007843D01*
X008600Y007842D01*
X008650Y007837D01*
X008700Y007828D01*
X008748Y007816D01*
X008796Y007799D01*
X008842Y007779D01*
X008887Y007756D01*
X008930Y007729D01*
X008970Y007699D01*
X009008Y007666D01*
X009043Y007630D01*
X009076Y007591D01*
X009105Y007550D01*
X009131Y007507D01*
X009154Y007462D01*
X009173Y007415D01*
X009188Y007367D01*
X009200Y007318D01*
X009208Y007268D01*
X009212Y007218D01*
X009212Y007168D01*
X009208Y007118D01*
X009200Y007068D01*
X009188Y007019D01*
X009173Y006971D01*
X009154Y006924D01*
X009131Y006879D01*
X009105Y006836D01*
X009076Y006795D01*
X009043Y006756D01*
X009008Y006720D01*
X008970Y006687D01*
X008930Y006657D01*
X008887Y006630D01*
X008842Y006607D01*
X008796Y006587D01*
X008748Y006570D01*
X008700Y006558D01*
X008650Y006549D01*
X008600Y006544D01*
X008549Y006543D01*
X008499Y006546D01*
X008449Y006553D01*
X008400Y006564D01*
X008352Y006578D01*
X008305Y006596D01*
X008259Y006618D01*
X008215Y006643D01*
X008174Y006672D01*
X008135Y006703D01*
X008098Y006738D01*
X008064Y006775D01*
X008033Y006815D01*
X008005Y006857D01*
X007981Y006901D01*
X007960Y006947D01*
X007943Y006995D01*
X007930Y007043D01*
X007920Y007093D01*
X007914Y007143D01*
X007912Y007193D01*
X017772Y007193D02*
X017774Y007243D01*
X017780Y007293D01*
X017790Y007343D01*
X017803Y007391D01*
X017820Y007439D01*
X017841Y007485D01*
X017865Y007529D01*
X017893Y007571D01*
X017924Y007611D01*
X017958Y007648D01*
X017995Y007683D01*
X018034Y007714D01*
X018075Y007743D01*
X018119Y007768D01*
X018165Y007790D01*
X018212Y007808D01*
X018260Y007822D01*
X018309Y007833D01*
X018359Y007840D01*
X018409Y007843D01*
X018460Y007842D01*
X018510Y007837D01*
X018560Y007828D01*
X018608Y007816D01*
X018656Y007799D01*
X018702Y007779D01*
X018747Y007756D01*
X018790Y007729D01*
X018830Y007699D01*
X018868Y007666D01*
X018903Y007630D01*
X018936Y007591D01*
X018965Y007550D01*
X018991Y007507D01*
X019014Y007462D01*
X019033Y007415D01*
X019048Y007367D01*
X019060Y007318D01*
X019068Y007268D01*
X019072Y007218D01*
X019072Y007168D01*
X019068Y007118D01*
X019060Y007068D01*
X019048Y007019D01*
X019033Y006971D01*
X019014Y006924D01*
X018991Y006879D01*
X018965Y006836D01*
X018936Y006795D01*
X018903Y006756D01*
X018868Y006720D01*
X018830Y006687D01*
X018790Y006657D01*
X018747Y006630D01*
X018702Y006607D01*
X018656Y006587D01*
X018608Y006570D01*
X018560Y006558D01*
X018510Y006549D01*
X018460Y006544D01*
X018409Y006543D01*
X018359Y006546D01*
X018309Y006553D01*
X018260Y006564D01*
X018212Y006578D01*
X018165Y006596D01*
X018119Y006618D01*
X018075Y006643D01*
X018034Y006672D01*
X017995Y006703D01*
X017958Y006738D01*
X017924Y006775D01*
X017893Y006815D01*
X017865Y006857D01*
X017841Y006901D01*
X017820Y006947D01*
X017803Y006995D01*
X017790Y007043D01*
X017780Y007093D01*
X017774Y007143D01*
X017772Y007193D01*
X019685Y009652D02*
X019899Y009652D01*
X019792Y009652D02*
X019792Y010293D01*
X019685Y010293D02*
X019899Y010293D01*
X020115Y010293D02*
X020329Y010293D01*
X020222Y010293D02*
X020222Y009652D01*
X020115Y009652D02*
X020329Y009652D01*
X020758Y009652D02*
X020758Y010293D01*
X020545Y010293D02*
X020972Y010293D01*
X021189Y010293D02*
X021510Y010293D01*
X021616Y010186D01*
X021616Y010079D01*
X021510Y009972D01*
X021189Y009972D01*
X021189Y009652D02*
X021510Y009652D01*
X021616Y009759D01*
X021616Y009866D01*
X021510Y009972D01*
X021189Y009652D02*
X021189Y010293D01*
X022478Y010293D02*
X022478Y009652D01*
X022478Y009866D02*
X022799Y009866D01*
X022905Y009972D01*
X022905Y010186D01*
X022799Y010293D01*
X022478Y010293D01*
X023123Y010079D02*
X023123Y009652D01*
X023123Y009866D02*
X023336Y010079D01*
X023443Y010079D01*
X023767Y010079D02*
X023980Y010079D01*
X024087Y009972D01*
X024087Y009652D01*
X023767Y009652D01*
X023660Y009759D01*
X023767Y009866D01*
X024087Y009866D01*
X024305Y010079D02*
X024518Y010079D01*
X024411Y010186D02*
X024411Y009759D01*
X024518Y009652D01*
X024734Y009652D02*
X024734Y010293D01*
X024841Y010079D02*
X025054Y010079D01*
X025161Y009972D01*
X025161Y009652D01*
X025379Y009759D02*
X025485Y009652D01*
X025806Y009652D01*
X025806Y009972D01*
X025699Y010079D01*
X025485Y010079D01*
X025485Y009866D02*
X025806Y009866D01*
X026023Y009652D02*
X026023Y010079D01*
X026130Y010079D01*
X026237Y009972D01*
X026344Y010079D01*
X026450Y009972D01*
X026450Y009652D01*
X026237Y009652D02*
X026237Y009972D01*
X025485Y009866D02*
X025379Y009759D01*
X024841Y010079D02*
X024734Y009972D01*
X021297Y007193D02*
X021299Y007243D01*
X021305Y007293D01*
X021315Y007343D01*
X021328Y007391D01*
X021345Y007439D01*
X021366Y007485D01*
X021390Y007529D01*
X021418Y007571D01*
X021449Y007611D01*
X021483Y007648D01*
X021520Y007683D01*
X021559Y007714D01*
X021600Y007743D01*
X021644Y007768D01*
X021690Y007790D01*
X021737Y007808D01*
X021785Y007822D01*
X021834Y007833D01*
X021884Y007840D01*
X021934Y007843D01*
X021985Y007842D01*
X022035Y007837D01*
X022085Y007828D01*
X022133Y007816D01*
X022181Y007799D01*
X022227Y007779D01*
X022272Y007756D01*
X022315Y007729D01*
X022355Y007699D01*
X022393Y007666D01*
X022428Y007630D01*
X022461Y007591D01*
X022490Y007550D01*
X022516Y007507D01*
X022539Y007462D01*
X022558Y007415D01*
X022573Y007367D01*
X022585Y007318D01*
X022593Y007268D01*
X022597Y007218D01*
X022597Y007168D01*
X022593Y007118D01*
X022585Y007068D01*
X022573Y007019D01*
X022558Y006971D01*
X022539Y006924D01*
X022516Y006879D01*
X022490Y006836D01*
X022461Y006795D01*
X022428Y006756D01*
X022393Y006720D01*
X022355Y006687D01*
X022315Y006657D01*
X022272Y006630D01*
X022227Y006607D01*
X022181Y006587D01*
X022133Y006570D01*
X022085Y006558D01*
X022035Y006549D01*
X021985Y006544D01*
X021934Y006543D01*
X021884Y006546D01*
X021834Y006553D01*
X021785Y006564D01*
X021737Y006578D01*
X021690Y006596D01*
X021644Y006618D01*
X021600Y006643D01*
X021559Y006672D01*
X021520Y006703D01*
X021483Y006738D01*
X021449Y006775D01*
X021418Y006815D01*
X021390Y006857D01*
X021366Y006901D01*
X021345Y006947D01*
X021328Y006995D01*
X021315Y007043D01*
X021305Y007093D01*
X021299Y007143D01*
X021297Y007193D01*
X031157Y007193D02*
X031159Y007243D01*
X031165Y007293D01*
X031175Y007343D01*
X031188Y007391D01*
X031205Y007439D01*
X031226Y007485D01*
X031250Y007529D01*
X031278Y007571D01*
X031309Y007611D01*
X031343Y007648D01*
X031380Y007683D01*
X031419Y007714D01*
X031460Y007743D01*
X031504Y007768D01*
X031550Y007790D01*
X031597Y007808D01*
X031645Y007822D01*
X031694Y007833D01*
X031744Y007840D01*
X031794Y007843D01*
X031845Y007842D01*
X031895Y007837D01*
X031945Y007828D01*
X031993Y007816D01*
X032041Y007799D01*
X032087Y007779D01*
X032132Y007756D01*
X032175Y007729D01*
X032215Y007699D01*
X032253Y007666D01*
X032288Y007630D01*
X032321Y007591D01*
X032350Y007550D01*
X032376Y007507D01*
X032399Y007462D01*
X032418Y007415D01*
X032433Y007367D01*
X032445Y007318D01*
X032453Y007268D01*
X032457Y007218D01*
X032457Y007168D01*
X032453Y007118D01*
X032445Y007068D01*
X032433Y007019D01*
X032418Y006971D01*
X032399Y006924D01*
X032376Y006879D01*
X032350Y006836D01*
X032321Y006795D01*
X032288Y006756D01*
X032253Y006720D01*
X032215Y006687D01*
X032175Y006657D01*
X032132Y006630D01*
X032087Y006607D01*
X032041Y006587D01*
X031993Y006570D01*
X031945Y006558D01*
X031895Y006549D01*
X031845Y006544D01*
X031794Y006543D01*
X031744Y006546D01*
X031694Y006553D01*
X031645Y006564D01*
X031597Y006578D01*
X031550Y006596D01*
X031504Y006618D01*
X031460Y006643D01*
X031419Y006672D01*
X031380Y006703D01*
X031343Y006738D01*
X031309Y006775D01*
X031278Y006815D01*
X031250Y006857D01*
X031226Y006901D01*
X031205Y006947D01*
X031188Y006995D01*
X031175Y007043D01*
X031165Y007093D01*
X031159Y007143D01*
X031157Y007193D01*
X034683Y007193D02*
X034685Y007243D01*
X034691Y007293D01*
X034701Y007343D01*
X034714Y007391D01*
X034731Y007439D01*
X034752Y007485D01*
X034776Y007529D01*
X034804Y007571D01*
X034835Y007611D01*
X034869Y007648D01*
X034906Y007683D01*
X034945Y007714D01*
X034986Y007743D01*
X035030Y007768D01*
X035076Y007790D01*
X035123Y007808D01*
X035171Y007822D01*
X035220Y007833D01*
X035270Y007840D01*
X035320Y007843D01*
X035371Y007842D01*
X035421Y007837D01*
X035471Y007828D01*
X035519Y007816D01*
X035567Y007799D01*
X035613Y007779D01*
X035658Y007756D01*
X035701Y007729D01*
X035741Y007699D01*
X035779Y007666D01*
X035814Y007630D01*
X035847Y007591D01*
X035876Y007550D01*
X035902Y007507D01*
X035925Y007462D01*
X035944Y007415D01*
X035959Y007367D01*
X035971Y007318D01*
X035979Y007268D01*
X035983Y007218D01*
X035983Y007168D01*
X035979Y007118D01*
X035971Y007068D01*
X035959Y007019D01*
X035944Y006971D01*
X035925Y006924D01*
X035902Y006879D01*
X035876Y006836D01*
X035847Y006795D01*
X035814Y006756D01*
X035779Y006720D01*
X035741Y006687D01*
X035701Y006657D01*
X035658Y006630D01*
X035613Y006607D01*
X035567Y006587D01*
X035519Y006570D01*
X035471Y006558D01*
X035421Y006549D01*
X035371Y006544D01*
X035320Y006543D01*
X035270Y006546D01*
X035220Y006553D01*
X035171Y006564D01*
X035123Y006578D01*
X035076Y006596D01*
X035030Y006618D01*
X034986Y006643D01*
X034945Y006672D01*
X034906Y006703D01*
X034869Y006738D01*
X034835Y006775D01*
X034804Y006815D01*
X034776Y006857D01*
X034752Y006901D01*
X034731Y006947D01*
X034714Y006995D01*
X034701Y007043D01*
X034691Y007093D01*
X034685Y007143D01*
X034683Y007193D01*
D12*
X018561Y010872D02*
X018563Y010911D01*
X018569Y010950D01*
X018579Y010988D01*
X018592Y011025D01*
X018609Y011060D01*
X018629Y011094D01*
X018653Y011125D01*
X018680Y011154D01*
X018709Y011180D01*
X018741Y011203D01*
X018775Y011223D01*
X018811Y011239D01*
X018848Y011251D01*
X018887Y011260D01*
X018926Y011265D01*
X018965Y011266D01*
X019004Y011263D01*
X019043Y011256D01*
X019080Y011245D01*
X019117Y011231D01*
X019152Y011213D01*
X019185Y011192D01*
X019216Y011167D01*
X019244Y011140D01*
X019269Y011110D01*
X019291Y011077D01*
X019310Y011043D01*
X019325Y011007D01*
X019337Y010969D01*
X019345Y010931D01*
X019349Y010892D01*
X019349Y010852D01*
X019345Y010813D01*
X019337Y010775D01*
X019325Y010737D01*
X019310Y010701D01*
X019291Y010667D01*
X019269Y010634D01*
X019244Y010604D01*
X019216Y010577D01*
X019185Y010552D01*
X019152Y010531D01*
X019117Y010513D01*
X019080Y010499D01*
X019043Y010488D01*
X019004Y010481D01*
X018965Y010478D01*
X018926Y010479D01*
X018887Y010484D01*
X018848Y010493D01*
X018811Y010505D01*
X018775Y010521D01*
X018741Y010541D01*
X018709Y010564D01*
X018680Y010590D01*
X018653Y010619D01*
X018629Y010650D01*
X018609Y010684D01*
X018592Y010719D01*
X018579Y010756D01*
X018569Y010794D01*
X018563Y010833D01*
X018561Y010872D01*
D13*
X017995Y010372D02*
X017745Y010262D01*
X017745Y009762D01*
X017995Y009872D01*
X017995Y010372D01*
X017395Y010072D02*
X017145Y009922D01*
X017145Y009422D01*
X017395Y009572D01*
X017395Y010072D01*
X020005Y011272D02*
X020005Y011772D01*
X020255Y011882D01*
X020255Y011382D01*
X020005Y011272D01*
X020605Y011472D02*
X020605Y011972D01*
X020855Y012082D01*
X020855Y011582D01*
X020605Y011472D01*
D14*
X013106Y016987D02*
X012859Y016987D01*
X013106Y017234D01*
X013106Y017296D01*
X013044Y017358D01*
X012920Y017358D01*
X012859Y017296D01*
X012737Y017296D02*
X012737Y017172D01*
X012676Y017111D01*
X012490Y017111D01*
X012490Y016987D02*
X012490Y017358D01*
X012676Y017358D01*
X012737Y017296D01*
X012614Y017111D02*
X012737Y016987D01*
X012737Y018137D02*
X012490Y018137D01*
X012614Y018137D02*
X012614Y018508D01*
X012490Y018384D01*
X012859Y018446D02*
X012859Y018199D01*
X013106Y018446D01*
X013106Y018199D01*
X013044Y018137D01*
X012920Y018137D01*
X012859Y018199D01*
X012859Y018446D02*
X012920Y018508D01*
X013044Y018508D01*
X013106Y018446D01*
X013227Y018508D02*
X013227Y018137D01*
X013227Y018261D02*
X013474Y018508D01*
X013289Y018322D02*
X013474Y018137D01*
X013392Y018877D02*
X013145Y018877D01*
X013392Y019124D01*
X013392Y019186D01*
X013331Y019248D01*
X013207Y019248D01*
X013145Y019186D01*
X013024Y019124D02*
X013024Y018877D01*
X013024Y019062D02*
X012777Y019062D01*
X012777Y019124D02*
X012900Y019248D01*
X013024Y019124D01*
X012777Y019124D02*
X012777Y018877D01*
X012594Y019001D02*
X012409Y019001D01*
X012409Y018877D02*
X012409Y019248D01*
X012594Y019248D01*
X012656Y019186D01*
X012656Y019062D01*
X012594Y019001D01*
X012287Y018939D02*
X012287Y019186D01*
X012226Y019248D01*
X012102Y019248D01*
X012040Y019186D01*
X012040Y018939D01*
X012102Y018877D01*
X012226Y018877D01*
X012287Y018939D01*
X013514Y018939D02*
X013575Y018877D01*
X013699Y018877D01*
X013761Y018939D01*
X013761Y019001D01*
X013699Y019062D01*
X013637Y019062D01*
X013699Y019062D02*
X013761Y019124D01*
X013761Y019186D01*
X013699Y019248D01*
X013575Y019248D01*
X013514Y019186D01*
X013882Y019248D02*
X014129Y019248D01*
X014129Y019186D01*
X013882Y018939D01*
X013882Y018877D01*
X014250Y018939D02*
X014250Y019062D01*
X014435Y019062D01*
X014497Y019001D01*
X014497Y018939D01*
X014435Y018877D01*
X014312Y018877D01*
X014250Y018939D01*
X014250Y019062D02*
X014374Y019186D01*
X014497Y019248D01*
X016552Y021437D02*
X016491Y021499D01*
X016491Y021622D01*
X016552Y021684D01*
X016614Y021684D01*
X016861Y021437D01*
X016861Y021684D01*
X016861Y021806D02*
X016614Y022052D01*
X016552Y022052D01*
X016491Y021991D01*
X016491Y021867D01*
X016552Y021806D01*
X016861Y021806D02*
X016861Y022052D01*
X016799Y022174D02*
X016552Y022421D01*
X016799Y022421D01*
X016861Y022359D01*
X016861Y022236D01*
X016799Y022174D01*
X016552Y022174D01*
X016491Y022236D01*
X016491Y022359D01*
X016552Y022421D01*
X017391Y022252D02*
X017452Y022252D01*
X017699Y022006D01*
X017761Y022006D01*
X017761Y021884D02*
X017637Y021761D01*
X017637Y021822D02*
X017637Y021637D01*
X017761Y021637D02*
X017391Y021637D01*
X017391Y021822D01*
X017452Y021884D01*
X017576Y021884D01*
X017637Y021822D01*
X017391Y022006D02*
X017391Y022252D01*
X018252Y020841D02*
X018190Y020779D01*
X018190Y020656D01*
X018252Y020594D01*
X018252Y020841D02*
X018314Y020841D01*
X018560Y020594D01*
X018560Y020841D01*
X018560Y020472D02*
X018560Y020226D01*
X018560Y020104D02*
X018437Y019981D01*
X018437Y020042D02*
X018437Y019857D01*
X018560Y019857D02*
X018190Y019857D01*
X018190Y020042D01*
X018252Y020104D01*
X018375Y020104D01*
X018437Y020042D01*
X018314Y020226D02*
X018190Y020349D01*
X018560Y020349D01*
X019890Y020411D02*
X019952Y020472D01*
X020199Y020226D01*
X020260Y020287D01*
X020260Y020411D01*
X020199Y020472D01*
X019952Y020472D01*
X019890Y020411D02*
X019890Y020287D01*
X019952Y020226D01*
X020199Y020226D01*
X020260Y020104D02*
X020260Y019857D01*
X020260Y019981D02*
X019890Y019981D01*
X020014Y019857D01*
X020137Y020594D02*
X019890Y020841D01*
X019890Y020594D02*
X020260Y020594D01*
X020075Y020656D02*
X020260Y020841D01*
X022290Y020736D02*
X022537Y020489D01*
X022475Y020551D02*
X022660Y020736D01*
X022660Y020489D02*
X022290Y020489D01*
X022352Y020367D02*
X022599Y020121D01*
X022660Y020182D01*
X022660Y020306D01*
X022599Y020367D01*
X022352Y020367D01*
X022290Y020306D01*
X022290Y020182D01*
X022352Y020121D01*
X022599Y020121D01*
X022660Y019999D02*
X022660Y019752D01*
X022660Y019876D02*
X022290Y019876D01*
X022414Y019752D01*
X023940Y019752D02*
X023940Y019937D01*
X024002Y019999D01*
X024125Y019999D01*
X024187Y019937D01*
X024187Y019752D01*
X024310Y019752D02*
X023940Y019752D01*
X024187Y019876D02*
X024310Y019999D01*
X024310Y020121D02*
X024310Y020367D01*
X024310Y020489D02*
X024310Y020736D01*
X024310Y020612D02*
X023940Y020612D01*
X024064Y020489D01*
X023940Y020244D02*
X024310Y020244D01*
X024064Y020121D02*
X023940Y020244D01*
X029415Y017099D02*
X029477Y017161D01*
X029724Y016914D01*
X029785Y016976D01*
X029785Y017099D01*
X029724Y017161D01*
X029477Y017161D01*
X029415Y017099D02*
X029415Y016976D01*
X029477Y016914D01*
X029724Y016914D01*
X029785Y016792D02*
X029785Y016546D01*
X029539Y016792D01*
X029477Y016792D01*
X029415Y016731D01*
X029415Y016607D01*
X029477Y016546D01*
X029477Y016424D02*
X029415Y016362D01*
X029415Y016239D01*
X029477Y016177D01*
X029477Y016424D02*
X029539Y016424D01*
X029785Y016177D01*
X029785Y016424D01*
X029915Y016462D02*
X029977Y016524D01*
X030100Y016524D01*
X030162Y016462D01*
X030162Y016277D01*
X030285Y016277D02*
X029915Y016277D01*
X029915Y016462D01*
X030162Y016401D02*
X030285Y016524D01*
X030224Y016646D02*
X030285Y016707D01*
X030285Y016831D01*
X030224Y016892D01*
X030162Y016892D01*
X030100Y016831D01*
X030100Y016646D01*
X030224Y016646D01*
X030100Y016646D02*
X029977Y016769D01*
X029915Y016892D01*
X032800Y015636D02*
X032800Y015389D01*
X032862Y015327D01*
X032986Y015327D01*
X033047Y015389D01*
X033047Y015636D01*
X032986Y015698D01*
X032862Y015698D01*
X032800Y015636D01*
X033169Y015698D02*
X033169Y015327D01*
X033169Y015451D02*
X033354Y015451D01*
X033416Y015512D01*
X033416Y015636D01*
X033354Y015698D01*
X033169Y015698D01*
X033537Y015574D02*
X033660Y015698D01*
X033784Y015574D01*
X033784Y015327D01*
X033905Y015327D02*
X034152Y015574D01*
X034152Y015636D01*
X034091Y015698D01*
X033967Y015698D01*
X033905Y015636D01*
X033784Y015512D02*
X033537Y015512D01*
X033537Y015574D02*
X033537Y015327D01*
X033905Y015327D02*
X034152Y015327D01*
X034274Y015389D02*
X034335Y015327D01*
X034459Y015327D01*
X034521Y015389D01*
X034521Y015451D01*
X034459Y015512D01*
X034397Y015512D01*
X034459Y015512D02*
X034521Y015574D01*
X034521Y015636D01*
X034459Y015698D01*
X034335Y015698D01*
X034274Y015636D01*
X034642Y015698D02*
X034889Y015698D01*
X034889Y015636D01*
X034642Y015389D01*
X034642Y015327D01*
X035010Y015389D02*
X035072Y015327D01*
X035195Y015327D01*
X035257Y015389D01*
X035257Y015451D01*
X035195Y015512D01*
X035010Y015512D01*
X035010Y015389D01*
X035010Y015512D02*
X035134Y015636D01*
X035257Y015698D01*
X034599Y018127D02*
X034476Y018127D01*
X034414Y018189D01*
X034293Y018189D02*
X034231Y018127D01*
X034108Y018127D01*
X034046Y018189D01*
X034046Y018436D01*
X034108Y018498D01*
X034231Y018498D01*
X034293Y018436D01*
X034414Y018436D02*
X034476Y018498D01*
X034599Y018498D01*
X034661Y018436D01*
X034661Y018374D01*
X034599Y018312D01*
X034661Y018251D01*
X034661Y018189D01*
X034599Y018127D01*
X034599Y018312D02*
X034538Y018312D01*
X033924Y018127D02*
X033800Y018127D01*
X033862Y018127D02*
X033862Y018498D01*
X033800Y018498D02*
X033924Y018498D01*
X039150Y017256D02*
X039150Y017009D01*
X039335Y017009D01*
X039274Y017132D01*
X039274Y017194D01*
X039335Y017256D01*
X039459Y017256D01*
X039520Y017194D01*
X039520Y017071D01*
X039459Y017009D01*
X039520Y016887D02*
X039397Y016764D01*
X039397Y016826D02*
X039397Y016641D01*
X039520Y016641D02*
X039150Y016641D01*
X039150Y016826D01*
X039212Y016887D01*
X039335Y016887D01*
X039397Y016826D01*
X039650Y016802D02*
X039712Y016741D01*
X039650Y016802D02*
X039650Y016926D01*
X039712Y016987D01*
X039774Y016987D01*
X040020Y016741D01*
X040020Y016987D01*
X039959Y017109D02*
X039712Y017356D01*
X039959Y017356D01*
X040020Y017294D01*
X040020Y017171D01*
X039959Y017109D01*
X039712Y017109D01*
X039650Y017171D01*
X039650Y017294D01*
X039712Y017356D01*
X039712Y016619D02*
X039650Y016557D01*
X039650Y016434D01*
X039712Y016372D01*
X039712Y016619D02*
X039774Y016619D01*
X040020Y016372D01*
X040020Y016619D01*
X042263Y014846D02*
X042325Y014908D01*
X042448Y014908D01*
X042510Y014846D01*
X042263Y014599D01*
X042325Y014537D01*
X042448Y014537D01*
X042510Y014599D01*
X042510Y014846D01*
X042263Y014846D02*
X042263Y014599D01*
X042631Y014599D02*
X042631Y014537D01*
X042693Y014537D01*
X042693Y014599D01*
X042631Y014599D01*
X042815Y014537D02*
X043062Y014537D01*
X043184Y014537D02*
X043184Y014784D01*
X043369Y014784D01*
X043431Y014722D01*
X043431Y014537D01*
X043552Y014537D02*
X043552Y014908D01*
X043552Y014722D02*
X043799Y014722D01*
X043799Y014537D02*
X043799Y014908D01*
X043781Y014108D02*
X043781Y013737D01*
X043534Y014108D01*
X043534Y013737D01*
X043412Y013799D02*
X043412Y013922D01*
X043289Y013922D01*
X043412Y013799D02*
X043351Y013737D01*
X043227Y013737D01*
X043166Y013799D01*
X043166Y014046D01*
X043227Y014108D01*
X043351Y014108D01*
X043412Y014046D01*
X043044Y013984D02*
X043044Y013737D01*
X043044Y013922D02*
X042797Y013922D01*
X042797Y013984D02*
X042921Y014108D01*
X043044Y013984D01*
X042797Y013984D02*
X042797Y013737D01*
X042939Y014537D02*
X042939Y014908D01*
X042815Y014784D01*
X043902Y014108D02*
X044087Y014108D01*
X044149Y014046D01*
X044149Y013799D01*
X044087Y013737D01*
X043902Y013737D01*
X043902Y014108D01*
X045470Y013879D02*
X045594Y013756D01*
X045470Y013879D02*
X045840Y013879D01*
X045840Y013756D02*
X045840Y014002D01*
X045840Y013634D02*
X045840Y013387D01*
X045470Y013387D01*
X044087Y016237D02*
X044149Y016299D01*
X044087Y016237D02*
X043964Y016237D01*
X043902Y016299D01*
X043902Y016546D01*
X043964Y016608D01*
X044087Y016608D01*
X044149Y016546D01*
X043781Y016546D02*
X043719Y016608D01*
X043596Y016608D01*
X043534Y016546D01*
X043534Y016299D01*
X043596Y016237D01*
X043719Y016237D01*
X043781Y016299D01*
X043412Y016361D02*
X043412Y016608D01*
X043166Y016608D02*
X043166Y016361D01*
X043289Y016237D01*
X043412Y016361D01*
X043351Y017237D02*
X043412Y017299D01*
X043412Y017422D01*
X043289Y017422D01*
X043166Y017299D02*
X043227Y017237D01*
X043351Y017237D01*
X043534Y017237D02*
X043534Y017608D01*
X043781Y017237D01*
X043781Y017608D01*
X043902Y017608D02*
X044087Y017608D01*
X044149Y017546D01*
X044149Y017299D01*
X044087Y017237D01*
X043902Y017237D01*
X043902Y017608D01*
X043412Y017546D02*
X043351Y017608D01*
X043227Y017608D01*
X043166Y017546D01*
X043166Y017299D01*
X043402Y018420D02*
X043649Y018420D01*
X043770Y018543D02*
X043770Y018790D01*
X043832Y018852D01*
X043955Y018852D01*
X044017Y018790D01*
X044138Y018790D02*
X044138Y018728D01*
X044200Y018666D01*
X044323Y018666D01*
X044385Y018605D01*
X044385Y018543D01*
X044323Y018481D01*
X044200Y018481D01*
X044138Y018543D01*
X044017Y018543D02*
X043955Y018481D01*
X043832Y018481D01*
X043770Y018543D01*
X044138Y018790D02*
X044200Y018852D01*
X044323Y018852D01*
X044385Y018790D01*
X044385Y019481D02*
X044200Y019666D01*
X044138Y019605D02*
X044385Y019852D01*
X044138Y019852D02*
X044138Y019481D01*
X044017Y019543D02*
X043955Y019481D01*
X043832Y019481D01*
X043770Y019543D01*
X043770Y019790D01*
X043832Y019852D01*
X043955Y019852D01*
X044017Y019790D01*
X043649Y019790D02*
X043587Y019852D01*
X043463Y019852D01*
X043402Y019790D01*
X043402Y019728D01*
X043463Y019666D01*
X043587Y019666D01*
X043649Y019605D01*
X043649Y019543D01*
X043587Y019481D01*
X043463Y019481D01*
X043402Y019543D01*
X043280Y019420D02*
X043033Y019420D01*
X042850Y019605D02*
X042665Y019605D01*
X042665Y019481D02*
X042665Y019852D01*
X042850Y019852D01*
X042912Y019790D01*
X042912Y019666D01*
X042850Y019605D01*
X042544Y019852D02*
X042297Y019852D01*
X042420Y019852D02*
X042420Y019481D01*
X042665Y018852D02*
X042912Y018852D01*
X043033Y018852D02*
X043219Y018852D01*
X043280Y018790D01*
X043280Y018666D01*
X043219Y018605D01*
X043033Y018605D01*
X043033Y018481D02*
X043033Y018852D01*
X042789Y018852D02*
X042789Y018481D01*
X042788Y020420D02*
X043035Y020420D01*
X043156Y020481D02*
X043156Y020852D01*
X043280Y020728D01*
X043403Y020852D01*
X043403Y020481D01*
X043524Y020481D02*
X043648Y020481D01*
X043586Y020481D02*
X043586Y020852D01*
X043524Y020852D02*
X043648Y020852D01*
X043770Y020790D02*
X043770Y020728D01*
X043832Y020666D01*
X043955Y020666D01*
X044017Y020605D01*
X044017Y020543D01*
X043955Y020481D01*
X043832Y020481D01*
X043770Y020543D01*
X043770Y020790D02*
X043832Y020852D01*
X043955Y020852D01*
X044017Y020790D01*
X044138Y020790D02*
X044138Y020543D01*
X044200Y020481D01*
X044323Y020481D01*
X044385Y020543D01*
X044385Y020790D01*
X044323Y020852D01*
X044200Y020852D01*
X044138Y020790D01*
X044078Y021481D02*
X043954Y021481D01*
X043893Y021543D01*
X043771Y021543D02*
X043771Y021790D01*
X043710Y021852D01*
X043586Y021852D01*
X043524Y021790D01*
X043524Y021543D01*
X043586Y021481D01*
X043710Y021481D01*
X043771Y021543D01*
X043954Y021666D02*
X044078Y021666D01*
X044140Y021605D01*
X044140Y021543D01*
X044078Y021481D01*
X044261Y021481D02*
X044384Y021481D01*
X044323Y021481D02*
X044323Y021852D01*
X044384Y021852D02*
X044261Y021852D01*
X044140Y021790D02*
X044078Y021852D01*
X043954Y021852D01*
X043893Y021790D01*
X043893Y021728D01*
X043954Y021666D01*
X043403Y021852D02*
X043403Y021481D01*
X043156Y021481D02*
X043156Y021852D01*
X043280Y021728D01*
X043403Y021852D01*
X043035Y021420D02*
X042788Y021420D01*
X042605Y021605D02*
X042420Y021605D01*
X042420Y021481D02*
X042420Y021852D01*
X042605Y021852D01*
X042666Y021790D01*
X042666Y021666D01*
X042605Y021605D01*
X042298Y021852D02*
X042051Y021852D01*
X042175Y021852D02*
X042175Y021481D01*
X042175Y020852D02*
X042175Y020481D01*
X042420Y020481D02*
X042420Y020852D01*
X042605Y020852D01*
X042666Y020790D01*
X042666Y020666D01*
X042605Y020605D01*
X042420Y020605D01*
X042298Y020852D02*
X042051Y020852D01*
X036539Y024217D02*
X036292Y024217D01*
X036539Y024464D01*
X036539Y024526D01*
X036477Y024588D01*
X036354Y024588D01*
X036292Y024526D01*
X036171Y024526D02*
X036109Y024588D01*
X035985Y024588D01*
X035924Y024526D01*
X035924Y024279D01*
X035985Y024217D01*
X036109Y024217D01*
X036171Y024279D01*
X035802Y024217D02*
X035678Y024217D01*
X035740Y024217D02*
X035740Y024588D01*
X035678Y024588D02*
X035802Y024588D01*
X032530Y025367D02*
X032284Y025614D01*
X032222Y025614D01*
X032160Y025552D01*
X032160Y025429D01*
X032222Y025367D01*
X032530Y025367D02*
X032530Y025614D01*
X032530Y025736D02*
X032284Y025982D01*
X032222Y025982D01*
X032160Y025921D01*
X032160Y025797D01*
X032222Y025736D01*
X032530Y025736D02*
X032530Y025982D01*
X032469Y026104D02*
X032222Y026351D01*
X032469Y026351D01*
X032530Y026289D01*
X032530Y026166D01*
X032469Y026104D01*
X032222Y026104D01*
X032160Y026166D01*
X032160Y026289D01*
X032222Y026351D01*
X030730Y025921D02*
X030730Y025797D01*
X030669Y025736D01*
X030730Y025614D02*
X030607Y025491D01*
X030607Y025552D02*
X030607Y025367D01*
X030730Y025367D02*
X030360Y025367D01*
X030360Y025552D01*
X030422Y025614D01*
X030545Y025614D01*
X030607Y025552D01*
X030422Y025736D02*
X030360Y025797D01*
X030360Y025921D01*
X030422Y025982D01*
X030484Y025982D01*
X030545Y025921D01*
X030607Y025982D01*
X030669Y025982D01*
X030730Y025921D01*
X030545Y025921D02*
X030545Y025859D01*
X034382Y027079D02*
X034444Y027017D01*
X034567Y027017D01*
X034629Y027079D01*
X034629Y027326D01*
X034567Y027388D01*
X034444Y027388D01*
X034382Y027326D01*
X034382Y027079D01*
X034751Y027141D02*
X034936Y027141D01*
X034997Y027202D01*
X034997Y027326D01*
X034936Y027388D01*
X034751Y027388D01*
X034751Y027017D01*
X035119Y027017D02*
X035119Y027264D01*
X035242Y027388D01*
X035366Y027264D01*
X035366Y027017D01*
X035487Y027017D02*
X035734Y027264D01*
X035734Y027326D01*
X035672Y027388D01*
X035549Y027388D01*
X035487Y027326D01*
X035366Y027202D02*
X035119Y027202D01*
X035487Y027017D02*
X035734Y027017D01*
X035855Y027079D02*
X035917Y027017D01*
X036041Y027017D01*
X036102Y027079D01*
X036102Y027141D01*
X036041Y027202D01*
X035979Y027202D01*
X036041Y027202D02*
X036102Y027264D01*
X036102Y027326D01*
X036041Y027388D01*
X035917Y027388D01*
X035855Y027326D01*
X036224Y027388D02*
X036471Y027388D01*
X036471Y027326D01*
X036224Y027079D01*
X036224Y027017D01*
X036592Y027079D02*
X036654Y027017D01*
X036777Y027017D01*
X036839Y027079D01*
X036839Y027141D01*
X036777Y027202D01*
X036592Y027202D01*
X036592Y027079D01*
X036592Y027202D02*
X036716Y027326D01*
X036839Y027388D01*
X039230Y025684D02*
X039292Y025746D01*
X039539Y025499D01*
X039600Y025561D01*
X039600Y025684D01*
X039539Y025746D01*
X039292Y025746D01*
X039230Y025684D02*
X039230Y025561D01*
X039292Y025499D01*
X039539Y025499D01*
X039600Y025377D02*
X039600Y025131D01*
X039354Y025377D01*
X039292Y025377D01*
X039230Y025316D01*
X039230Y025192D01*
X039292Y025131D01*
X039292Y025009D02*
X039230Y024947D01*
X039230Y024824D01*
X039292Y024762D01*
X039292Y025009D02*
X039354Y025009D01*
X039600Y024762D01*
X039600Y025009D01*
X041055Y025131D02*
X041055Y025316D01*
X041117Y025377D01*
X041240Y025377D01*
X041302Y025316D01*
X041302Y025131D01*
X041302Y025254D02*
X041425Y025377D01*
X041240Y025499D02*
X041240Y025746D01*
X041055Y025684D02*
X041240Y025499D01*
X041425Y025684D02*
X041055Y025684D01*
X041055Y025131D02*
X041425Y025131D01*
X042789Y026481D02*
X042789Y026852D01*
X042912Y026852D02*
X042665Y026852D01*
X043033Y026852D02*
X043219Y026852D01*
X043280Y026790D01*
X043280Y026666D01*
X043219Y026605D01*
X043033Y026605D01*
X043033Y026481D02*
X043033Y026852D01*
X043402Y026420D02*
X043649Y026420D01*
X043770Y026481D02*
X043770Y026852D01*
X043955Y026852D01*
X044017Y026790D01*
X044017Y026666D01*
X043955Y026605D01*
X043770Y026605D01*
X044138Y026481D02*
X044138Y026852D01*
X044323Y026852D01*
X044385Y026790D01*
X044385Y026543D01*
X044323Y026481D01*
X044138Y026481D01*
X042544Y027920D02*
X042297Y027920D01*
X042114Y028105D02*
X041928Y028105D01*
X041928Y027981D02*
X041928Y028352D01*
X042114Y028352D01*
X042175Y028290D01*
X042175Y028166D01*
X042114Y028105D01*
X041807Y028352D02*
X041560Y028352D01*
X041684Y028352D02*
X041684Y027981D01*
X042665Y027981D02*
X042665Y028352D01*
X042850Y028352D01*
X042912Y028290D01*
X042912Y028166D01*
X042850Y028105D01*
X042665Y028105D01*
X042788Y028105D02*
X042912Y027981D01*
X043033Y027981D02*
X043033Y028228D01*
X043157Y028352D01*
X043280Y028228D01*
X043280Y027981D01*
X043402Y027981D02*
X043402Y028352D01*
X043649Y027981D01*
X043649Y028352D01*
X043770Y028290D02*
X043770Y028043D01*
X043832Y027981D01*
X043955Y027981D01*
X044017Y028043D01*
X044017Y028166D01*
X043893Y028166D01*
X043770Y028290D02*
X043832Y028352D01*
X043955Y028352D01*
X044017Y028290D01*
X044138Y028352D02*
X044138Y027981D01*
X044385Y027981D01*
X044262Y028166D02*
X044138Y028166D01*
X044138Y028352D02*
X044385Y028352D01*
X043280Y028166D02*
X043033Y028166D01*
X026335Y028086D02*
X026150Y027901D01*
X026212Y027839D02*
X025965Y028086D01*
X025965Y027839D02*
X026335Y027839D01*
X026274Y027717D02*
X026335Y027656D01*
X026335Y027532D01*
X026274Y027471D01*
X026027Y027717D01*
X026274Y027717D01*
X026274Y027471D02*
X026027Y027471D01*
X025965Y027532D01*
X025965Y027656D01*
X026027Y027717D01*
X026335Y027349D02*
X026335Y027102D01*
X026335Y027226D02*
X025965Y027226D01*
X026089Y027102D01*
X026027Y026586D02*
X026274Y026339D01*
X026335Y026401D01*
X026335Y026524D01*
X026274Y026586D01*
X026027Y026586D01*
X025965Y026524D01*
X025965Y026401D01*
X026027Y026339D01*
X026274Y026339D01*
X026335Y026217D02*
X026335Y025971D01*
X026335Y025849D02*
X026212Y025726D01*
X026212Y025787D02*
X026212Y025602D01*
X026335Y025602D02*
X025965Y025602D01*
X025965Y025787D01*
X026027Y025849D01*
X026150Y025849D01*
X026212Y025787D01*
X026089Y025971D02*
X025965Y026094D01*
X026335Y026094D01*
X023410Y026077D02*
X023410Y026324D01*
X023410Y026201D02*
X023040Y026201D01*
X023164Y026077D01*
X023102Y026446D02*
X023040Y026507D01*
X023040Y026631D01*
X023102Y026692D01*
X023349Y026446D01*
X023410Y026507D01*
X023410Y026631D01*
X023349Y026692D01*
X023102Y026692D01*
X023040Y026814D02*
X023410Y026814D01*
X023287Y026814D02*
X023040Y027061D01*
X023225Y026876D02*
X023410Y027061D01*
X023410Y027577D02*
X023040Y027577D01*
X023040Y027762D01*
X023102Y027824D01*
X023225Y027824D01*
X023287Y027762D01*
X023287Y027577D01*
X023287Y027701D02*
X023410Y027824D01*
X023349Y027946D02*
X023410Y028007D01*
X023410Y028131D01*
X023349Y028192D01*
X023102Y028192D01*
X023040Y028131D01*
X023040Y028007D01*
X023102Y027946D01*
X023164Y027946D01*
X023225Y028007D01*
X023225Y028192D01*
X022177Y028309D02*
X022177Y028556D01*
X022115Y028188D02*
X022115Y027941D01*
X022115Y028064D02*
X021745Y028064D01*
X021869Y027941D01*
X021930Y027819D02*
X022054Y027819D01*
X022115Y027758D01*
X022115Y027634D01*
X022054Y027572D01*
X022054Y027451D02*
X021807Y027451D01*
X021745Y027389D01*
X021745Y027266D01*
X021807Y027204D01*
X021869Y027204D01*
X021930Y027266D01*
X021930Y027451D01*
X021930Y027572D02*
X021869Y027696D01*
X021869Y027758D01*
X021930Y027819D01*
X021745Y027819D02*
X021745Y027572D01*
X021930Y027572D01*
X022054Y027451D02*
X022115Y027389D01*
X022115Y027266D01*
X022054Y027204D01*
X021807Y027083D02*
X022054Y026836D01*
X022115Y026836D01*
X022054Y026714D02*
X022115Y026653D01*
X022115Y026529D01*
X022054Y026468D01*
X022054Y026346D02*
X021807Y026346D01*
X021745Y026284D01*
X021745Y026099D01*
X022115Y026099D01*
X022115Y026284D01*
X022054Y026346D01*
X021869Y026468D02*
X021930Y026529D01*
X021930Y026653D01*
X021992Y026714D01*
X022054Y026714D01*
X021807Y026714D02*
X021745Y026653D01*
X021745Y026529D01*
X021807Y026468D01*
X021869Y026468D01*
X021615Y026468D02*
X021245Y026468D01*
X021369Y026345D01*
X021307Y026223D02*
X021245Y026162D01*
X021245Y026038D01*
X021307Y025976D01*
X021554Y025976D01*
X021615Y026038D01*
X021615Y026162D01*
X021554Y026223D01*
X021615Y026345D02*
X021615Y026592D01*
X021745Y026836D02*
X021745Y027083D01*
X021807Y027083D01*
X021869Y025978D02*
X021745Y025854D01*
X021869Y025731D01*
X022115Y025731D01*
X021930Y025731D02*
X021930Y025978D01*
X021869Y025978D02*
X022115Y025978D01*
X021615Y025854D02*
X021615Y025731D01*
X021615Y025793D02*
X021245Y025793D01*
X021245Y025854D02*
X021245Y025731D01*
X023102Y026446D02*
X023349Y026446D01*
X015870Y026504D02*
X015747Y026381D01*
X015747Y026442D02*
X015747Y026257D01*
X015870Y026257D02*
X015500Y026257D01*
X015500Y026442D01*
X015562Y026504D01*
X015685Y026504D01*
X015747Y026442D01*
X015624Y026626D02*
X015500Y026749D01*
X015870Y026749D01*
X015870Y026626D02*
X015870Y026872D01*
X015685Y026994D02*
X015685Y027241D01*
X015500Y027179D02*
X015685Y026994D01*
X015870Y027179D02*
X015500Y027179D01*
X015370Y027241D02*
X015185Y027056D01*
X015247Y026994D02*
X015000Y027241D01*
X015000Y026994D02*
X015370Y026994D01*
X015309Y026872D02*
X015370Y026811D01*
X015370Y026687D01*
X015309Y026626D01*
X015062Y026872D01*
X015309Y026872D01*
X015309Y026626D02*
X015062Y026626D01*
X015000Y026687D01*
X015000Y026811D01*
X015062Y026872D01*
X015370Y026504D02*
X015370Y026257D01*
X015370Y026381D02*
X015000Y026381D01*
X015124Y026257D01*
X013810Y025616D02*
X013625Y025431D01*
X013687Y025369D02*
X013440Y025616D01*
X013335Y025581D02*
X013274Y025519D01*
X013335Y025581D02*
X013335Y025704D01*
X013274Y025766D01*
X013212Y025766D01*
X013150Y025704D01*
X013150Y025642D01*
X013150Y025704D02*
X013089Y025766D01*
X013027Y025766D01*
X012965Y025704D01*
X012965Y025581D01*
X013027Y025519D01*
X012965Y025274D02*
X013335Y025274D01*
X013335Y025151D02*
X013335Y025397D01*
X013440Y025369D02*
X013810Y025369D01*
X013749Y025247D02*
X013502Y025247D01*
X013749Y025001D01*
X013810Y025062D01*
X013810Y025186D01*
X013749Y025247D01*
X013749Y025001D02*
X013502Y025001D01*
X013440Y025062D01*
X013440Y025186D01*
X013502Y025247D01*
X013335Y025029D02*
X013212Y024906D01*
X013212Y024967D02*
X013212Y024782D01*
X013335Y024782D02*
X012965Y024782D01*
X012965Y024967D01*
X013027Y025029D01*
X013150Y025029D01*
X013212Y024967D01*
X013089Y025151D02*
X012965Y025274D01*
X013440Y024756D02*
X013810Y024756D01*
X013810Y024879D02*
X013810Y024632D01*
X013564Y024632D02*
X013440Y024756D01*
X013039Y022123D02*
X012854Y021937D01*
X013101Y021937D01*
X013039Y021752D02*
X013039Y022123D01*
X012733Y022061D02*
X012671Y022123D01*
X012548Y022123D01*
X012486Y022061D01*
X012486Y021814D01*
X012548Y021752D01*
X012671Y021752D01*
X012733Y021814D01*
X012364Y021752D02*
X012240Y021752D01*
X012302Y021752D02*
X012302Y022123D01*
X012240Y022123D02*
X012364Y022123D01*
X009780Y022167D02*
X009534Y022414D01*
X009472Y022414D01*
X009410Y022352D01*
X009410Y022229D01*
X009472Y022167D01*
X009280Y022167D02*
X008910Y022167D01*
X008910Y022352D01*
X008972Y022414D01*
X009095Y022414D01*
X009157Y022352D01*
X009157Y022167D01*
X009157Y022291D02*
X009280Y022414D01*
X009219Y022536D02*
X009157Y022536D01*
X009095Y022597D01*
X009095Y022721D01*
X009157Y022782D01*
X009219Y022782D01*
X009280Y022721D01*
X009280Y022597D01*
X009219Y022536D01*
X009095Y022597D02*
X009034Y022536D01*
X008972Y022536D01*
X008910Y022597D01*
X008910Y022721D01*
X008972Y022782D01*
X009034Y022782D01*
X009095Y022721D01*
X009410Y022721D02*
X009472Y022782D01*
X009534Y022782D01*
X009780Y022536D01*
X009780Y022782D01*
X009719Y022904D02*
X009472Y023151D01*
X009719Y023151D01*
X009780Y023089D01*
X009780Y022966D01*
X009719Y022904D01*
X009472Y022904D01*
X009410Y022966D01*
X009410Y023089D01*
X009472Y023151D01*
X009410Y022721D02*
X009410Y022597D01*
X009472Y022536D01*
X009780Y022414D02*
X009780Y022167D01*
X010624Y015998D02*
X010809Y015998D01*
X010871Y015936D01*
X010871Y015812D01*
X010809Y015751D01*
X010624Y015751D01*
X010747Y015751D02*
X010871Y015627D01*
X010942Y015548D02*
X010942Y015177D01*
X010942Y015301D02*
X011189Y015548D01*
X011239Y015627D02*
X010992Y015627D01*
X011116Y015627D02*
X011116Y015998D01*
X010992Y015874D01*
X010624Y015998D02*
X010624Y015627D01*
X010636Y015548D02*
X010759Y015548D01*
X010821Y015486D01*
X010574Y015239D01*
X010636Y015177D01*
X010759Y015177D01*
X010821Y015239D01*
X010821Y015486D01*
X010636Y015548D02*
X010574Y015486D01*
X010574Y015239D01*
X010452Y015177D02*
X010206Y015177D01*
X010329Y015177D02*
X010329Y015548D01*
X010206Y015424D01*
X011004Y015362D02*
X011189Y015177D01*
D15*
X012027Y019467D02*
X012027Y021357D01*
X012224Y021357D02*
X012224Y019467D01*
X013523Y019467D01*
X013523Y021357D01*
X012224Y021357D01*
X033787Y017807D02*
X033787Y015917D01*
X033984Y015917D02*
X033984Y017807D01*
X035283Y017807D01*
X035283Y015917D01*
X033984Y015917D01*
X035447Y024907D02*
X035447Y026797D01*
X036747Y026797D01*
X036747Y024907D01*
X035447Y024907D01*
X036943Y024907D02*
X036943Y026797D01*
D16*
X036195Y026252D02*
X036195Y025452D01*
X035795Y025852D02*
X036595Y025852D01*
X039819Y025352D02*
X040612Y025352D01*
X040215Y024956D02*
X040215Y025749D01*
X044567Y027122D02*
X044944Y027122D01*
X044755Y026934D02*
X044755Y027310D01*
X044755Y027934D02*
X044755Y028310D01*
X044567Y028122D02*
X044944Y028122D01*
X048531Y031675D02*
X048531Y032475D01*
X048131Y032075D02*
X048931Y032075D01*
X037120Y030106D02*
X036320Y030106D01*
X036720Y029706D02*
X036720Y030506D01*
X031545Y026249D02*
X031545Y025456D01*
X031149Y025852D02*
X031942Y025852D01*
X025747Y027087D02*
X024954Y027087D01*
X025350Y026691D02*
X025350Y027484D01*
X024322Y027062D02*
X023529Y027062D01*
X023925Y026666D02*
X023925Y027459D01*
X021280Y024322D02*
X021280Y023522D01*
X020880Y023922D02*
X021680Y023922D01*
X023275Y020739D02*
X023275Y019946D01*
X022879Y020342D02*
X023672Y020342D01*
X026477Y019083D02*
X027277Y019083D01*
X026877Y018683D02*
X026877Y019483D01*
X030504Y017362D02*
X031297Y017362D01*
X030900Y016966D02*
X030900Y017759D01*
X034135Y016862D02*
X034935Y016862D01*
X034535Y016462D02*
X034535Y017262D01*
X038039Y016862D02*
X038832Y016862D01*
X038435Y016466D02*
X038435Y017259D01*
X044567Y018622D02*
X044944Y018622D01*
X044755Y018434D02*
X044755Y018810D01*
X044755Y019434D02*
X044755Y019810D01*
X044567Y019622D02*
X044944Y019622D01*
X044755Y020434D02*
X044755Y020810D01*
X044567Y020622D02*
X044944Y020622D01*
X044755Y021434D02*
X044755Y021810D01*
X044567Y021622D02*
X044944Y021622D01*
X047429Y019483D02*
X047429Y018683D01*
X047029Y019083D02*
X047829Y019083D01*
X045655Y015091D02*
X045655Y014553D01*
X045387Y014822D02*
X045924Y014822D01*
X040263Y007593D02*
X040263Y006793D01*
X039863Y007193D02*
X040663Y007193D01*
X048131Y006091D02*
X048931Y006091D01*
X048531Y005691D02*
X048531Y006491D01*
X027277Y007193D02*
X026477Y007193D01*
X026877Y006793D02*
X026877Y007593D01*
X013892Y007193D02*
X013092Y007193D01*
X013492Y006793D02*
X013492Y007593D01*
X005624Y006091D02*
X004824Y006091D01*
X005224Y005691D02*
X005224Y006491D01*
X012635Y015186D02*
X012635Y015979D01*
X012239Y015582D02*
X013032Y015582D01*
X011375Y017226D02*
X011375Y018019D01*
X010979Y017622D02*
X011772Y017622D01*
X012775Y020012D02*
X012775Y020812D01*
X012375Y020412D02*
X013175Y020412D01*
X016639Y020322D02*
X017431Y020322D01*
X017035Y019926D02*
X017035Y020719D01*
X018879Y020342D02*
X019672Y020342D01*
X019275Y019946D02*
X019275Y020739D01*
X015625Y024806D02*
X015625Y025599D01*
X015229Y025202D02*
X016022Y025202D01*
X014822Y025222D02*
X014029Y025222D01*
X014425Y024826D02*
X014425Y025619D01*
X017035Y029706D02*
X017035Y030506D01*
X016635Y030106D02*
X017435Y030106D01*
X005624Y032075D02*
X004824Y032075D01*
X005224Y031675D02*
X005224Y032475D01*
X009295Y021349D02*
X009295Y020556D01*
X008899Y020952D02*
X009692Y020952D01*
X007192Y019483D02*
X007192Y018683D01*
X006792Y019083D02*
X007592Y019083D01*
D17*
X007692Y021858D02*
X007467Y021858D01*
X007467Y022158D01*
X007617Y022083D02*
X007692Y022158D01*
X007842Y022158D01*
X007917Y022083D01*
X007917Y021933D01*
X007842Y021858D01*
X007692Y021858D02*
X007617Y022008D01*
X007617Y022083D01*
X006917Y022083D02*
X006917Y021933D01*
X006842Y021858D01*
X006692Y021933D02*
X006692Y022158D01*
X006842Y022158D02*
X006542Y022158D01*
X006467Y022083D01*
X006467Y021933D01*
X006542Y021858D01*
X006617Y021858D01*
X006692Y021933D01*
X006917Y022083D02*
X006842Y022158D01*
X005982Y024508D02*
X005982Y024958D01*
X005757Y024733D01*
X006057Y024733D01*
X005597Y024733D02*
X005597Y024583D01*
X005522Y024508D01*
X005372Y024508D01*
X005297Y024583D01*
X005297Y024733D02*
X005447Y024808D01*
X005522Y024808D01*
X005597Y024733D01*
X005597Y024958D02*
X005297Y024958D01*
X005297Y024733D01*
X005140Y024583D02*
X005065Y024583D01*
X005065Y024508D01*
X005140Y024508D01*
X005140Y024583D01*
X005140Y024508D02*
X004990Y024358D01*
X004830Y024508D02*
X004529Y024508D01*
X004830Y024808D01*
X004830Y024883D01*
X004755Y024958D01*
X004604Y024958D01*
X004529Y024883D01*
X003255Y030106D02*
X003255Y034043D01*
X007192Y034043D01*
X007192Y030106D01*
X003255Y030106D01*
X014060Y030456D02*
X014135Y030381D01*
X014285Y030381D01*
X014360Y030456D01*
X014360Y030532D01*
X014285Y030607D01*
X014060Y030607D01*
X014060Y030456D01*
X014060Y030607D02*
X014210Y030757D01*
X014360Y030832D01*
X014210Y029832D02*
X014060Y029682D01*
X014210Y029832D02*
X014210Y029381D01*
X014060Y029381D02*
X014360Y029381D01*
X019810Y029456D02*
X019885Y029381D01*
X020035Y029381D01*
X020110Y029456D01*
X020110Y029607D01*
X020035Y029682D01*
X019960Y029682D01*
X019810Y029607D01*
X019810Y029832D01*
X020110Y029832D01*
X020035Y030381D02*
X020110Y030456D01*
X020110Y030757D01*
X020035Y030832D01*
X019885Y030832D01*
X019810Y030757D01*
X019810Y030682D01*
X019885Y030607D01*
X020110Y030607D01*
X020035Y030381D02*
X019885Y030381D01*
X019810Y030456D01*
X022460Y031206D02*
X022535Y031131D01*
X022460Y031206D02*
X022460Y031357D01*
X022535Y031432D01*
X022610Y031432D01*
X022910Y031131D01*
X022910Y031432D01*
X023060Y031592D02*
X022910Y031742D01*
X022910Y031667D01*
X022835Y031667D01*
X022835Y031742D01*
X022910Y031742D01*
X022835Y031899D02*
X022910Y031974D01*
X022910Y032124D01*
X022835Y032199D01*
X022685Y032199D01*
X022610Y032124D01*
X022610Y032049D01*
X022685Y031899D01*
X022460Y031899D01*
X022460Y032199D01*
X022685Y032359D02*
X022685Y032659D01*
X022910Y032584D02*
X022460Y032584D01*
X022685Y032359D01*
X015281Y033556D02*
X015281Y033857D01*
X015206Y033932D01*
X015056Y033932D01*
X014981Y033857D01*
X014981Y033782D01*
X015056Y033707D01*
X015281Y033707D01*
X015281Y033556D02*
X015206Y033481D01*
X015056Y033481D01*
X014981Y033556D01*
X014821Y033556D02*
X014745Y033481D01*
X014595Y033481D01*
X014520Y033556D01*
X014821Y033857D01*
X014821Y033556D01*
X014520Y033556D02*
X014520Y033857D01*
X014595Y033932D01*
X014745Y033932D01*
X014821Y033857D01*
X014360Y033932D02*
X014060Y033932D01*
X014060Y033481D01*
X014060Y033707D02*
X014210Y033707D01*
X024909Y021051D02*
X024909Y017114D01*
X028846Y017114D01*
X028846Y021051D01*
X024909Y021051D01*
X033745Y029381D02*
X034045Y029381D01*
X033895Y029381D02*
X033895Y029832D01*
X033745Y029682D01*
X033820Y030381D02*
X033970Y030381D01*
X034045Y030456D01*
X034045Y030532D01*
X033970Y030607D01*
X033745Y030607D01*
X033745Y030456D01*
X033820Y030381D01*
X033745Y030607D02*
X033895Y030757D01*
X034045Y030832D01*
X034280Y033481D02*
X034205Y033556D01*
X034506Y033857D01*
X034506Y033556D01*
X034431Y033481D01*
X034280Y033481D01*
X034205Y033556D02*
X034205Y033857D01*
X034280Y033932D01*
X034431Y033932D01*
X034506Y033857D01*
X034666Y033857D02*
X034666Y033782D01*
X034741Y033707D01*
X034966Y033707D01*
X034966Y033857D02*
X034891Y033932D01*
X034741Y033932D01*
X034666Y033857D01*
X034966Y033857D02*
X034966Y033556D01*
X034891Y033481D01*
X034741Y033481D01*
X034666Y033556D01*
X034045Y033932D02*
X033745Y033932D01*
X033745Y033481D01*
X033745Y033707D02*
X033895Y033707D01*
X039495Y030757D02*
X039495Y030682D01*
X039570Y030607D01*
X039795Y030607D01*
X039795Y030757D02*
X039720Y030832D01*
X039570Y030832D01*
X039495Y030757D01*
X039795Y030757D02*
X039795Y030456D01*
X039720Y030381D01*
X039570Y030381D01*
X039495Y030456D01*
X039495Y029832D02*
X039495Y029607D01*
X039645Y029682D01*
X039720Y029682D01*
X039795Y029607D01*
X039795Y029456D01*
X039720Y029381D01*
X039570Y029381D01*
X039495Y029456D01*
X039495Y029832D02*
X039795Y029832D01*
X042145Y031206D02*
X042145Y031357D01*
X042220Y031432D01*
X042295Y031432D01*
X042595Y031131D01*
X042595Y031432D01*
X042745Y031592D02*
X042595Y031742D01*
X042595Y031667D01*
X042520Y031667D01*
X042520Y031742D01*
X042595Y031742D01*
X042520Y031899D02*
X042595Y031974D01*
X042595Y032124D01*
X042520Y032199D01*
X042370Y032199D01*
X042295Y032124D01*
X042295Y032049D01*
X042370Y031899D01*
X042145Y031899D01*
X042145Y032199D01*
X042370Y032359D02*
X042370Y032659D01*
X042595Y032584D02*
X042145Y032584D01*
X042370Y032359D01*
X042145Y031206D02*
X042220Y031131D01*
X046563Y030106D02*
X046563Y034043D01*
X050500Y034043D01*
X050500Y030106D01*
X046563Y030106D01*
X047154Y023598D02*
X047154Y023297D01*
X047154Y023448D02*
X046703Y023448D01*
X046853Y023297D01*
X047703Y023373D02*
X047778Y023297D01*
X047853Y023297D01*
X047929Y023373D01*
X047929Y023598D01*
X048079Y023598D02*
X047778Y023598D01*
X047703Y023523D01*
X047703Y023373D01*
X048079Y023297D02*
X048154Y023373D01*
X048154Y023523D01*
X048079Y023598D01*
X050803Y023598D02*
X050803Y023297D01*
X051029Y023297D01*
X050953Y023448D01*
X050953Y023523D01*
X051029Y023598D01*
X051179Y023598D01*
X051254Y023523D01*
X051254Y023372D01*
X051179Y023297D01*
X051254Y023137D02*
X051254Y022837D01*
X051254Y022987D02*
X050803Y022987D01*
X050953Y022837D01*
X050803Y022677D02*
X050803Y022377D01*
X051254Y022377D01*
X051029Y022377D02*
X051029Y022527D01*
X048079Y014598D02*
X047929Y014598D01*
X047853Y014523D01*
X047853Y014448D01*
X047929Y014297D01*
X047703Y014297D01*
X047703Y014598D01*
X048079Y014598D02*
X048154Y014523D01*
X048154Y014372D01*
X048079Y014297D01*
X048154Y014137D02*
X048154Y013837D01*
X048154Y013987D02*
X047703Y013987D01*
X047853Y013837D01*
X047154Y014373D02*
X047079Y014297D01*
X047004Y014297D01*
X046929Y014373D01*
X046929Y014523D01*
X047004Y014598D01*
X047079Y014598D01*
X047154Y014523D01*
X047154Y014373D01*
X046929Y014373D02*
X046853Y014297D01*
X046778Y014297D01*
X046703Y014373D01*
X046703Y014523D01*
X046778Y014598D01*
X046853Y014598D01*
X046929Y014523D01*
X048529Y012058D02*
X048454Y011983D01*
X048529Y012058D02*
X048679Y012058D01*
X048754Y011983D01*
X048754Y011908D01*
X048454Y011608D01*
X048754Y011608D01*
X048914Y011458D02*
X049064Y011608D01*
X048989Y011608D01*
X048989Y011683D01*
X049064Y011683D01*
X049064Y011608D01*
X049221Y011683D02*
X049296Y011608D01*
X049446Y011608D01*
X049521Y011683D01*
X049521Y011833D01*
X049446Y011908D01*
X049371Y011908D01*
X049221Y011833D01*
X049221Y012058D01*
X049521Y012058D01*
X049681Y011833D02*
X049981Y011833D01*
X049906Y011608D02*
X049906Y012058D01*
X049681Y011833D01*
X050500Y008059D02*
X046563Y008059D01*
X046563Y004122D01*
X050500Y004122D01*
X050500Y008059D01*
X043128Y007468D02*
X042828Y007468D01*
X042978Y007468D02*
X042978Y007918D01*
X042828Y007768D01*
X043128Y006918D02*
X042978Y006843D01*
X042828Y006693D01*
X043053Y006693D01*
X043128Y006618D01*
X043128Y006543D01*
X043053Y006468D01*
X042903Y006468D01*
X042828Y006543D01*
X042828Y006693D01*
X042903Y003818D02*
X042828Y003743D01*
X042828Y003668D01*
X042903Y003593D01*
X043128Y003593D01*
X043128Y003443D02*
X043128Y003743D01*
X043053Y003818D01*
X042903Y003818D01*
X042668Y003743D02*
X042368Y003443D01*
X042443Y003368D01*
X042593Y003368D01*
X042668Y003443D01*
X042668Y003743D01*
X042593Y003818D01*
X042443Y003818D01*
X042368Y003743D01*
X042368Y003443D01*
X042057Y003593D02*
X041907Y003593D01*
X041907Y003368D02*
X041907Y003818D01*
X042207Y003818D01*
X042828Y003443D02*
X042903Y003368D01*
X043053Y003368D01*
X043128Y003443D01*
X037378Y006543D02*
X037378Y006843D01*
X037303Y006918D01*
X037153Y006918D01*
X037078Y006843D01*
X037078Y006768D01*
X037153Y006693D01*
X037378Y006693D01*
X037378Y006543D02*
X037303Y006468D01*
X037153Y006468D01*
X037078Y006543D01*
X037153Y007468D02*
X037078Y007543D01*
X037153Y007468D02*
X037303Y007468D01*
X037378Y007543D01*
X037378Y007693D01*
X037303Y007768D01*
X037228Y007768D01*
X037078Y007693D01*
X037078Y007918D01*
X037378Y007918D01*
X034838Y005983D02*
X034388Y005983D01*
X034613Y005758D01*
X034613Y006058D01*
X034613Y005597D02*
X034763Y005597D01*
X034838Y005522D01*
X034838Y005372D01*
X034763Y005297D01*
X034613Y005297D02*
X034538Y005447D01*
X034538Y005522D01*
X034613Y005597D01*
X034388Y005597D02*
X034388Y005297D01*
X034613Y005297D01*
X034763Y005140D02*
X034763Y005065D01*
X034838Y005065D01*
X034838Y005140D01*
X034763Y005140D01*
X034838Y005140D02*
X034988Y004990D01*
X034838Y004830D02*
X034838Y004530D01*
X034538Y004830D01*
X034463Y004830D01*
X034388Y004755D01*
X034388Y004605D01*
X034463Y004530D01*
X029742Y003743D02*
X029742Y003443D01*
X029667Y003368D01*
X029517Y003368D01*
X029442Y003443D01*
X029282Y003443D02*
X029207Y003368D01*
X029057Y003368D01*
X028982Y003443D01*
X029282Y003743D01*
X029282Y003443D01*
X029442Y003668D02*
X029517Y003593D01*
X029742Y003593D01*
X029742Y003743D02*
X029667Y003818D01*
X029517Y003818D01*
X029442Y003743D01*
X029442Y003668D01*
X029282Y003743D02*
X029207Y003818D01*
X029057Y003818D01*
X028982Y003743D01*
X028982Y003443D01*
X028671Y003593D02*
X028521Y003593D01*
X028521Y003368D02*
X028521Y003818D01*
X028822Y003818D01*
X029517Y006468D02*
X029442Y006543D01*
X029442Y006693D01*
X029667Y006693D01*
X029742Y006618D01*
X029742Y006543D01*
X029667Y006468D01*
X029517Y006468D01*
X029442Y006693D02*
X029592Y006843D01*
X029742Y006918D01*
X029742Y007468D02*
X029442Y007468D01*
X029592Y007468D02*
X029592Y007918D01*
X029442Y007768D01*
X023992Y007693D02*
X023992Y007543D01*
X023917Y007468D01*
X023767Y007468D01*
X023692Y007543D01*
X023692Y007693D02*
X023842Y007768D01*
X023917Y007768D01*
X023992Y007693D01*
X023992Y007918D02*
X023692Y007918D01*
X023692Y007693D01*
X023767Y006918D02*
X023692Y006843D01*
X023692Y006768D01*
X023767Y006693D01*
X023992Y006693D01*
X023992Y006543D02*
X023992Y006843D01*
X023917Y006918D01*
X023767Y006918D01*
X023692Y006543D02*
X023767Y006468D01*
X023917Y006468D01*
X023992Y006543D01*
X021452Y005983D02*
X021002Y005983D01*
X021227Y005758D01*
X021227Y006058D01*
X021227Y005597D02*
X021377Y005597D01*
X021452Y005522D01*
X021452Y005372D01*
X021377Y005297D01*
X021227Y005297D02*
X021152Y005447D01*
X021152Y005522D01*
X021227Y005597D01*
X021002Y005597D02*
X021002Y005297D01*
X021227Y005297D01*
X021377Y005140D02*
X021377Y005065D01*
X021452Y005065D01*
X021452Y005140D01*
X021377Y005140D01*
X021452Y005140D02*
X021603Y004990D01*
X021452Y004830D02*
X021452Y004530D01*
X021152Y004830D01*
X021077Y004830D01*
X021002Y004755D01*
X021002Y004605D01*
X021077Y004530D01*
X016356Y003743D02*
X016356Y003443D01*
X016281Y003368D01*
X016131Y003368D01*
X016056Y003443D01*
X015896Y003443D02*
X015821Y003368D01*
X015671Y003368D01*
X015596Y003443D01*
X015896Y003743D01*
X015896Y003443D01*
X016056Y003668D02*
X016131Y003593D01*
X016356Y003593D01*
X016356Y003743D02*
X016281Y003818D01*
X016131Y003818D01*
X016056Y003743D01*
X016056Y003668D01*
X015896Y003743D02*
X015821Y003818D01*
X015671Y003818D01*
X015596Y003743D01*
X015596Y003443D01*
X015286Y003593D02*
X015136Y003593D01*
X015136Y003368D02*
X015136Y003818D01*
X015436Y003818D01*
X016131Y006468D02*
X016281Y006468D01*
X016357Y006543D01*
X016357Y006618D01*
X016281Y006693D01*
X016056Y006693D01*
X016056Y006543D01*
X016131Y006468D01*
X016056Y006693D02*
X016206Y006843D01*
X016357Y006918D01*
X016357Y007468D02*
X016056Y007468D01*
X016206Y007468D02*
X016206Y007918D01*
X016056Y007768D01*
X010607Y007693D02*
X010607Y007543D01*
X010531Y007468D01*
X010381Y007468D01*
X010306Y007543D01*
X010306Y007693D02*
X010456Y007768D01*
X010531Y007768D01*
X010607Y007693D01*
X010607Y007918D02*
X010306Y007918D01*
X010306Y007693D01*
X010381Y006918D02*
X010306Y006843D01*
X010306Y006768D01*
X010381Y006693D01*
X010607Y006693D01*
X010607Y006543D02*
X010607Y006843D01*
X010531Y006918D01*
X010381Y006918D01*
X010306Y006543D02*
X010381Y006468D01*
X010531Y006468D01*
X010607Y006543D01*
X008217Y004990D02*
X008067Y005140D01*
X008067Y005065D01*
X007992Y005065D01*
X007992Y005140D01*
X008067Y005140D01*
X007992Y005297D02*
X008067Y005372D01*
X008067Y005522D01*
X007992Y005597D01*
X007841Y005597D01*
X007766Y005522D01*
X007766Y005447D01*
X007841Y005297D01*
X007616Y005297D01*
X007616Y005597D01*
X007841Y005758D02*
X007616Y005983D01*
X008067Y005983D01*
X007841Y006058D02*
X007841Y005758D01*
X007766Y004830D02*
X007691Y004830D01*
X007616Y004755D01*
X007616Y004605D01*
X007691Y004530D01*
X007766Y004830D02*
X008067Y004530D01*
X008067Y004830D01*
X007192Y004122D02*
X007192Y008059D01*
X003255Y008059D01*
X003255Y004122D01*
X007192Y004122D01*
X006842Y016108D02*
X006917Y016183D01*
X006917Y016333D01*
X006842Y016408D01*
X006767Y016408D01*
X006692Y016333D01*
X006692Y016108D01*
X006842Y016108D01*
X006692Y016108D02*
X006542Y016258D01*
X006467Y016408D01*
X007467Y016258D02*
X007917Y016258D01*
X007917Y016108D02*
X007917Y016408D01*
X007617Y016108D02*
X007467Y016258D01*
X003817Y016108D02*
X003367Y016108D01*
X003367Y016408D01*
X003442Y016568D02*
X003367Y016643D01*
X003367Y016793D01*
X003442Y016868D01*
X003742Y016568D01*
X003817Y016643D01*
X003817Y016793D01*
X003742Y016868D01*
X003442Y016868D01*
X003442Y017029D02*
X003517Y017029D01*
X003592Y017104D01*
X003592Y017329D01*
X003442Y017329D02*
X003367Y017254D01*
X003367Y017104D01*
X003442Y017029D01*
X003442Y017329D02*
X003742Y017329D01*
X003817Y017254D01*
X003817Y017104D01*
X003742Y017029D01*
X003742Y016568D02*
X003442Y016568D01*
X003592Y016258D02*
X003592Y016108D01*
D18*
X013492Y004343D03*
X026877Y004343D03*
X040263Y004343D03*
X036720Y032956D03*
X017035Y032956D03*
D19*
X017035Y034606D03*
X036720Y034606D03*
X040263Y002693D03*
X026877Y002693D03*
X013492Y002693D03*
D20*
X013502Y005918D03*
X014572Y005918D03*
X015652Y005918D03*
X012412Y005918D03*
X011332Y005918D03*
X024717Y005918D03*
X025797Y005918D03*
X026887Y005918D03*
X027957Y005918D03*
X029037Y005918D03*
X038103Y005918D03*
X039183Y005918D03*
X040273Y005918D03*
X041343Y005918D03*
X042423Y005918D03*
X038880Y031381D03*
X037800Y031381D03*
X036710Y031381D03*
X035640Y031381D03*
X034560Y031381D03*
X019195Y031381D03*
X018115Y031381D03*
X017025Y031381D03*
X015955Y031381D03*
X014875Y031381D03*
D21*
X015415Y031881D03*
X016495Y031881D03*
X017565Y031881D03*
X018655Y031881D03*
X035100Y031881D03*
X036180Y031881D03*
X037250Y031881D03*
X038340Y031881D03*
X038643Y005418D03*
X039733Y005418D03*
X040803Y005418D03*
X041883Y005418D03*
X028497Y005418D03*
X027417Y005418D03*
X026347Y005418D03*
X025257Y005418D03*
X015112Y005418D03*
X014032Y005418D03*
X012962Y005418D03*
X011872Y005418D03*
D22*
X011938Y009829D02*
X011518Y010460D01*
X011938Y010460D02*
X011518Y009829D01*
X012162Y009934D02*
X012162Y010144D01*
X012477Y010144D01*
X012582Y010039D01*
X012582Y009934D01*
X012477Y009829D01*
X012267Y009829D01*
X012162Y009934D01*
X012162Y010144D02*
X012372Y010354D01*
X012582Y010460D01*
X012807Y010144D02*
X013227Y010144D01*
X013451Y010249D02*
X013556Y010144D01*
X013766Y010144D01*
X013872Y010039D01*
X013872Y009934D01*
X013766Y009829D01*
X013556Y009829D01*
X013451Y009934D01*
X013451Y010249D02*
X013451Y010354D01*
X013556Y010460D01*
X013766Y010460D01*
X013872Y010354D01*
X014096Y010354D02*
X014096Y010249D01*
X014201Y010144D01*
X014411Y010144D01*
X014516Y010039D01*
X014516Y009934D01*
X014411Y009829D01*
X014201Y009829D01*
X014096Y009934D01*
X014096Y010354D02*
X014201Y010460D01*
X014411Y010460D01*
X014516Y010354D01*
X014740Y010460D02*
X014740Y010144D01*
X014950Y010249D01*
X015055Y010249D01*
X015161Y010144D01*
X015161Y009934D01*
X015055Y009829D01*
X014845Y009829D01*
X014740Y009934D01*
X014740Y010460D02*
X015161Y010460D01*
X009657Y015118D02*
X009027Y015538D01*
X009027Y015762D02*
X009027Y016183D01*
X009132Y016183D01*
X009552Y015762D01*
X009657Y015762D01*
X009657Y015538D02*
X009027Y015118D01*
X009342Y016407D02*
X009342Y016827D01*
X009237Y017051D02*
X009342Y017156D01*
X009342Y017367D01*
X009447Y017472D01*
X009552Y017472D01*
X009657Y017367D01*
X009657Y017156D01*
X009552Y017051D01*
X009237Y017051D02*
X009132Y017051D01*
X009027Y017156D01*
X009027Y017367D01*
X009132Y017472D01*
X009132Y017696D02*
X009237Y017696D01*
X009342Y017801D01*
X009342Y018011D01*
X009447Y018116D01*
X009552Y018116D01*
X009657Y018011D01*
X009657Y017801D01*
X009552Y017696D01*
X009132Y017696D02*
X009027Y017801D01*
X009027Y018011D01*
X009132Y018116D01*
X009342Y018340D02*
X009132Y018551D01*
X009027Y018761D01*
X009342Y018656D02*
X009342Y018340D01*
X009552Y018340D01*
X009657Y018446D01*
X009657Y018656D01*
X009552Y018761D01*
X009447Y018761D01*
X009342Y018656D01*
X013545Y027691D02*
X013965Y028322D01*
X014189Y028112D02*
X014400Y028322D01*
X014400Y027691D01*
X014610Y027691D02*
X014189Y027691D01*
X013965Y027691D02*
X013545Y028322D01*
X014834Y028007D02*
X015254Y028007D01*
X015479Y028112D02*
X015584Y028007D01*
X015794Y028007D01*
X015899Y027902D01*
X015899Y027797D01*
X015794Y027691D01*
X015584Y027691D01*
X015479Y027797D01*
X015479Y028112D02*
X015479Y028217D01*
X015584Y028322D01*
X015794Y028322D01*
X015899Y028217D01*
X016123Y028217D02*
X016123Y028112D01*
X016228Y028007D01*
X016438Y028007D01*
X016543Y027902D01*
X016543Y027797D01*
X016438Y027691D01*
X016228Y027691D01*
X016123Y027797D01*
X016123Y028217D02*
X016228Y028322D01*
X016438Y028322D01*
X016543Y028217D01*
X016768Y028112D02*
X016978Y028322D01*
X016978Y027691D01*
X016768Y027691D02*
X017188Y027691D01*
X035130Y028116D02*
X035550Y028747D01*
X035775Y028642D02*
X035880Y028747D01*
X036090Y028747D01*
X036195Y028642D01*
X036195Y028537D01*
X035775Y028116D01*
X036195Y028116D01*
X036419Y028432D02*
X036839Y028432D01*
X037064Y028537D02*
X037169Y028432D01*
X037379Y028432D01*
X037484Y028327D01*
X037484Y028222D01*
X037379Y028116D01*
X037169Y028116D01*
X037064Y028222D01*
X037064Y028537D02*
X037064Y028642D01*
X037169Y028747D01*
X037379Y028747D01*
X037484Y028642D01*
X037708Y028642D02*
X037813Y028747D01*
X038023Y028747D01*
X038128Y028642D01*
X038353Y028642D02*
X038458Y028747D01*
X038668Y028747D01*
X038773Y028642D01*
X038773Y028537D01*
X038353Y028116D01*
X038773Y028116D01*
X038128Y028222D02*
X038023Y028116D01*
X037813Y028116D01*
X037708Y028222D01*
X037813Y028432D02*
X038023Y028432D01*
X038128Y028327D01*
X038128Y028222D01*
X037813Y028432D02*
X037708Y028537D01*
X037708Y028642D01*
X035550Y028116D02*
X035130Y028747D01*
X052963Y022089D02*
X052963Y021878D01*
X053068Y021773D01*
X053489Y021773D01*
X053594Y021878D01*
X053594Y022089D01*
X053489Y022194D01*
X053068Y022194D02*
X052963Y022089D01*
X053068Y021549D02*
X052963Y021444D01*
X052963Y021129D01*
X053594Y021129D01*
X053594Y021444D01*
X053489Y021549D01*
X053384Y021549D01*
X053278Y021444D01*
X053278Y021129D01*
X053068Y020905D02*
X052963Y020799D01*
X052963Y020589D01*
X053068Y020484D01*
X053489Y020484D01*
X053594Y020589D01*
X053594Y020799D01*
X053489Y020905D01*
X053068Y020905D01*
X053278Y021444D02*
X053173Y021549D01*
X053068Y021549D01*
X045489Y013044D02*
X045594Y012938D01*
X045594Y012728D01*
X045489Y012623D01*
X045068Y012623D01*
X044963Y012728D01*
X044963Y012938D01*
X045068Y013044D01*
X045068Y012399D02*
X045173Y012399D01*
X045278Y012294D01*
X045278Y011979D01*
X045068Y011754D02*
X044963Y011649D01*
X044963Y011439D01*
X045068Y011334D01*
X045489Y011334D01*
X045594Y011439D01*
X045594Y011649D01*
X045489Y011754D01*
X045068Y011754D01*
X044963Y011979D02*
X044963Y012294D01*
X045068Y012399D01*
X045278Y012294D02*
X045384Y012399D01*
X045489Y012399D01*
X045594Y012294D01*
X045594Y011979D01*
X044963Y011979D01*
X045278Y011110D02*
X045278Y010690D01*
X045173Y010465D02*
X045278Y010360D01*
X045384Y010465D01*
X045489Y010465D01*
X045594Y010360D01*
X045594Y010150D01*
X045489Y010045D01*
X045594Y009821D02*
X044963Y009401D01*
X044963Y009821D02*
X045594Y009401D01*
X045068Y010045D02*
X044963Y010150D01*
X044963Y010360D01*
X045068Y010465D01*
X045173Y010465D01*
X045278Y010360D02*
X045278Y010255D01*
X043787Y010154D02*
X043787Y010049D01*
X043682Y009944D01*
X043787Y009839D01*
X043787Y009734D01*
X043682Y009629D01*
X043472Y009629D01*
X043367Y009734D01*
X043143Y009734D02*
X043038Y009629D01*
X042827Y009629D01*
X042722Y009734D01*
X042498Y009734D02*
X042393Y009629D01*
X042183Y009629D01*
X042078Y009734D01*
X042183Y009944D02*
X042393Y009944D01*
X042498Y009839D01*
X042498Y009734D01*
X042183Y009944D02*
X042078Y010049D01*
X042078Y010154D01*
X042183Y010260D01*
X042393Y010260D01*
X042498Y010154D01*
X042722Y010154D02*
X042722Y010049D01*
X042827Y009944D01*
X043038Y009944D01*
X043143Y009839D01*
X043143Y009734D01*
X043143Y010154D02*
X043038Y010260D01*
X042827Y010260D01*
X042722Y010154D01*
X043367Y010154D02*
X043472Y010260D01*
X043682Y010260D01*
X043787Y010154D01*
X043682Y009944D02*
X043577Y009944D01*
X041854Y009944D02*
X041433Y009944D01*
X041209Y009944D02*
X040789Y009944D01*
X041104Y010260D01*
X041104Y009629D01*
X040565Y009629D02*
X040144Y010260D01*
X040565Y010260D02*
X040144Y009629D01*
X030486Y010027D02*
X030066Y010027D01*
X030381Y010342D01*
X030381Y009711D01*
X029842Y009816D02*
X029737Y009711D01*
X029527Y009711D01*
X029421Y009816D01*
X029197Y009816D02*
X029092Y009711D01*
X028882Y009711D01*
X028777Y009816D01*
X028882Y010027D02*
X029092Y010027D01*
X029197Y009921D01*
X029197Y009816D01*
X028882Y010027D02*
X028777Y010132D01*
X028777Y010237D01*
X028882Y010342D01*
X029092Y010342D01*
X029197Y010237D01*
X029421Y010237D02*
X029421Y010132D01*
X029527Y010027D01*
X029737Y010027D01*
X029842Y009921D01*
X029842Y009816D01*
X029842Y010237D02*
X029737Y010342D01*
X029527Y010342D01*
X029421Y010237D01*
X028553Y010027D02*
X028132Y010027D01*
X027908Y010027D02*
X027908Y009816D01*
X027803Y009711D01*
X027593Y009711D01*
X027488Y009816D01*
X027488Y010027D02*
X027698Y010132D01*
X027803Y010132D01*
X027908Y010027D01*
X027908Y010342D02*
X027488Y010342D01*
X027488Y010027D01*
X027264Y010342D02*
X026843Y009711D01*
X027264Y009711D02*
X026843Y010342D01*
D23*
X026853Y003673D02*
X026793Y003613D01*
X026793Y003553D01*
X026853Y003493D01*
X026973Y003493D01*
X027033Y003433D01*
X027033Y003373D01*
X026973Y003313D01*
X026853Y003313D01*
X026793Y003373D01*
X026853Y003673D02*
X026973Y003673D01*
X027033Y003613D01*
X027161Y003613D02*
X027161Y003553D01*
X027221Y003493D01*
X027341Y003493D01*
X027401Y003433D01*
X027401Y003373D01*
X027341Y003313D01*
X027221Y003313D01*
X027161Y003373D01*
X027161Y003613D02*
X027221Y003673D01*
X027341Y003673D01*
X027401Y003613D01*
X027529Y003493D02*
X027769Y003493D01*
X027709Y003313D02*
X027709Y003673D01*
X027529Y003493D01*
X040178Y003113D02*
X040178Y003053D01*
X040238Y002993D01*
X040359Y002993D01*
X040419Y002933D01*
X040419Y002873D01*
X040359Y002813D01*
X040238Y002813D01*
X040178Y002873D01*
X040178Y003113D02*
X040238Y003173D01*
X040359Y003173D01*
X040419Y003113D01*
X040547Y003113D02*
X040547Y003053D01*
X040607Y002993D01*
X040727Y002993D01*
X040787Y002933D01*
X040787Y002873D01*
X040727Y002813D01*
X040607Y002813D01*
X040547Y002873D01*
X040547Y003113D02*
X040607Y003173D01*
X040727Y003173D01*
X040787Y003113D01*
X040915Y003113D02*
X040975Y003173D01*
X041095Y003173D01*
X041155Y003113D01*
X041155Y003053D01*
X041095Y002993D01*
X041155Y002933D01*
X041155Y002873D01*
X041095Y002813D01*
X040975Y002813D01*
X040915Y002873D01*
X041035Y002993D02*
X041095Y002993D01*
X013784Y002963D02*
X013784Y002843D01*
X013723Y002783D01*
X013603Y002783D01*
X013543Y002843D01*
X013543Y002963D02*
X013663Y003023D01*
X013723Y003023D01*
X013784Y002963D01*
X013784Y003143D02*
X013543Y003143D01*
X013543Y002963D01*
X013415Y002903D02*
X013415Y002843D01*
X013355Y002783D01*
X013235Y002783D01*
X013175Y002843D01*
X013047Y002843D02*
X012987Y002783D01*
X012867Y002783D01*
X012807Y002843D01*
X012867Y002963D02*
X012987Y002963D01*
X013047Y002903D01*
X013047Y002843D01*
X012867Y002963D02*
X012807Y003023D01*
X012807Y003083D01*
X012867Y003143D01*
X012987Y003143D01*
X013047Y003083D01*
X013175Y003083D02*
X013175Y003023D01*
X013235Y002963D01*
X013355Y002963D01*
X013415Y002903D01*
X013415Y003083D02*
X013355Y003143D01*
X013235Y003143D01*
X013175Y003083D01*
X001612Y017103D02*
X001672Y017163D01*
X001672Y017283D01*
X001612Y017343D01*
X001552Y017343D01*
X001492Y017283D01*
X001492Y017163D01*
X001432Y017103D01*
X001372Y017103D01*
X001312Y017163D01*
X001312Y017283D01*
X001372Y017343D01*
X001372Y017471D02*
X001432Y017471D01*
X001492Y017531D01*
X001492Y017651D01*
X001552Y017711D01*
X001612Y017711D01*
X001672Y017651D01*
X001672Y017531D01*
X001612Y017471D01*
X001372Y017471D02*
X001312Y017531D01*
X001312Y017651D01*
X001372Y017711D01*
X001492Y017839D02*
X001492Y018020D01*
X001552Y018080D01*
X001612Y018080D01*
X001672Y018020D01*
X001672Y017899D01*
X001612Y017839D01*
X001492Y017839D01*
X001372Y017960D01*
X001312Y018080D01*
X015115Y035626D02*
X015055Y035686D01*
X015115Y035626D02*
X015235Y035626D01*
X015295Y035686D01*
X015295Y035747D01*
X015235Y035807D01*
X015115Y035807D01*
X015055Y035867D01*
X015055Y035927D01*
X015115Y035987D01*
X015235Y035987D01*
X015295Y035927D01*
X015423Y035927D02*
X015423Y035867D01*
X015483Y035807D01*
X015603Y035807D01*
X015663Y035747D01*
X015663Y035686D01*
X015603Y035626D01*
X015483Y035626D01*
X015423Y035686D01*
X015423Y035927D02*
X015483Y035987D01*
X015603Y035987D01*
X015663Y035927D01*
X015792Y035867D02*
X015912Y035987D01*
X015912Y035626D01*
X015792Y035626D02*
X016032Y035626D01*
X034740Y035686D02*
X034800Y035626D01*
X034920Y035626D01*
X034980Y035686D01*
X034980Y035747D01*
X034920Y035807D01*
X034800Y035807D01*
X034740Y035867D01*
X034740Y035927D01*
X034800Y035987D01*
X034920Y035987D01*
X034980Y035927D01*
X035108Y035927D02*
X035108Y035867D01*
X035168Y035807D01*
X035288Y035807D01*
X035349Y035747D01*
X035349Y035686D01*
X035288Y035626D01*
X035168Y035626D01*
X035108Y035686D01*
X035108Y035927D02*
X035168Y035987D01*
X035288Y035987D01*
X035349Y035927D01*
X035477Y035927D02*
X035537Y035987D01*
X035657Y035987D01*
X035717Y035927D01*
X035717Y035867D01*
X035477Y035626D01*
X035717Y035626D01*
D24*
X004342Y019083D03*
D25*
X002692Y019083D03*
D26*
X005917Y019073D03*
X005917Y018003D03*
X005917Y016923D03*
X005917Y020163D03*
X005917Y021243D03*
X048704Y020703D03*
X048704Y021783D03*
X048704Y022863D03*
X048704Y019623D03*
X048704Y018543D03*
X048704Y017463D03*
X048704Y016383D03*
X048704Y015303D03*
D27*
X049204Y015843D03*
X049204Y016923D03*
X049204Y018003D03*
X049204Y019083D03*
X049204Y020163D03*
X049204Y021243D03*
X049204Y022323D03*
X005417Y020703D03*
X005417Y019613D03*
X005417Y018543D03*
X005417Y017463D03*
D28*
X020454Y022446D02*
X022107Y022446D01*
X022107Y025399D01*
X020454Y025399D01*
X020454Y022446D01*
X020685Y025143D02*
X020687Y025156D01*
X020693Y025168D01*
X020702Y025177D01*
X020713Y025184D01*
X020726Y025187D01*
X020739Y025186D01*
X020751Y025181D01*
X020761Y025173D01*
X020769Y025162D01*
X020773Y025150D01*
X020773Y025136D01*
X020769Y025124D01*
X020761Y025113D01*
X020751Y025105D01*
X020739Y025100D01*
X020726Y025099D01*
X020713Y025102D01*
X020702Y025109D01*
X020693Y025118D01*
X020687Y025130D01*
X020685Y025143D01*
D29*
X050279Y019108D03*
D30*
X051929Y019108D03*
M02*
