G75*
G70*
%OFA0B0*%
%FSLAX24Y24*%
%IPPOS*%
%LPD*%
%AMOC8*
5,1,8,0,0,1.08239X$1,22.5*
%
%ADD10C,0.3623*%
%ADD11C,0.0050*%
%ADD12C,0.0740*%
%ADD13C,0.2080*%
%ADD14C,0.0476*%
D10*
X005224Y006091D03*
X026877Y019083D03*
X048531Y032075D03*
X048531Y006091D03*
X005224Y032075D03*
D11*
X003255Y004122D02*
X007192Y004122D01*
X003255Y004122D01*
X003255Y008059D01*
X007192Y008059D01*
X007192Y004122D01*
X007192Y004171D02*
X003255Y004171D01*
X003255Y004219D02*
X007192Y004219D01*
X007192Y004268D02*
X003255Y004268D01*
X003255Y004316D02*
X007192Y004316D01*
X007192Y004365D02*
X003255Y004365D01*
X003255Y004413D02*
X007192Y004413D01*
X007192Y004462D02*
X003255Y004462D01*
X003255Y004511D02*
X007192Y004511D01*
X007192Y004559D02*
X003255Y004559D01*
X003255Y004608D02*
X007192Y004608D01*
X007192Y004656D02*
X003255Y004656D01*
X003255Y004705D02*
X007192Y004705D01*
X007192Y004753D02*
X003255Y004753D01*
X003255Y004802D02*
X007192Y004802D01*
X007192Y004850D02*
X003255Y004850D01*
X003255Y004899D02*
X007192Y004899D01*
X007192Y004947D02*
X003255Y004947D01*
X003255Y004996D02*
X007192Y004996D01*
X007192Y005045D02*
X003255Y005045D01*
X003255Y005093D02*
X007192Y005093D01*
X007192Y005142D02*
X003255Y005142D01*
X003255Y005190D02*
X007192Y005190D01*
X007192Y005239D02*
X003255Y005239D01*
X003255Y005287D02*
X007192Y005287D01*
X007192Y005336D02*
X003255Y005336D01*
X003255Y005384D02*
X007192Y005384D01*
X007192Y005433D02*
X003255Y005433D01*
X003255Y005481D02*
X007192Y005481D01*
X007192Y005530D02*
X003255Y005530D01*
X003255Y005579D02*
X007192Y005579D01*
X007192Y005627D02*
X003255Y005627D01*
X003255Y005676D02*
X007192Y005676D01*
X007192Y005724D02*
X003255Y005724D01*
X003255Y005773D02*
X007192Y005773D01*
X007192Y005821D02*
X003255Y005821D01*
X003255Y005870D02*
X007192Y005870D01*
X007192Y005918D02*
X003255Y005918D01*
X003255Y005967D02*
X007192Y005967D01*
X007192Y006015D02*
X003255Y006015D01*
X003255Y006064D02*
X007192Y006064D01*
X007192Y006112D02*
X003255Y006112D01*
X003255Y006161D02*
X007192Y006161D01*
X007192Y006210D02*
X003255Y006210D01*
X003255Y006258D02*
X007192Y006258D01*
X007192Y006307D02*
X003255Y006307D01*
X003255Y006355D02*
X007192Y006355D01*
X007192Y006404D02*
X003255Y006404D01*
X003255Y006452D02*
X007192Y006452D01*
X007192Y006501D02*
X003255Y006501D01*
X003255Y006549D02*
X007192Y006549D01*
X007192Y006598D02*
X003255Y006598D01*
X003255Y006646D02*
X007192Y006646D01*
X007192Y006695D02*
X003255Y006695D01*
X003255Y006744D02*
X007192Y006744D01*
X007192Y006792D02*
X003255Y006792D01*
X003255Y006841D02*
X007192Y006841D01*
X007192Y006889D02*
X003255Y006889D01*
X003255Y006938D02*
X007192Y006938D01*
X007192Y006986D02*
X003255Y006986D01*
X003255Y007035D02*
X007192Y007035D01*
X007192Y007083D02*
X003255Y007083D01*
X003255Y007132D02*
X007192Y007132D01*
X007192Y007180D02*
X003255Y007180D01*
X003255Y007229D02*
X007192Y007229D01*
X007192Y007278D02*
X003255Y007278D01*
X003255Y007326D02*
X007192Y007326D01*
X007192Y007375D02*
X003255Y007375D01*
X003255Y007423D02*
X007192Y007423D01*
X007192Y007472D02*
X003255Y007472D01*
X003255Y007520D02*
X007192Y007520D01*
X007192Y007569D02*
X003255Y007569D01*
X003255Y007617D02*
X007192Y007617D01*
X007192Y007666D02*
X003255Y007666D01*
X003255Y007714D02*
X007192Y007714D01*
X007192Y007763D02*
X003255Y007763D01*
X003255Y007811D02*
X007192Y007811D01*
X007192Y007860D02*
X003255Y007860D01*
X003255Y007909D02*
X007192Y007909D01*
X007192Y007957D02*
X003255Y007957D01*
X003255Y008006D02*
X007192Y008006D01*
X007192Y008054D02*
X003255Y008054D01*
X024909Y017114D02*
X024909Y021051D01*
X028846Y021051D01*
X028846Y017114D01*
X024909Y017114D01*
X024909Y017132D02*
X028846Y017132D01*
X028846Y017180D02*
X024909Y017180D01*
X024909Y017229D02*
X028846Y017229D01*
X028846Y017277D02*
X024909Y017277D01*
X024909Y017326D02*
X028846Y017326D01*
X028846Y017375D02*
X024909Y017375D01*
X024909Y017423D02*
X028846Y017423D01*
X028846Y017472D02*
X024909Y017472D01*
X024909Y017520D02*
X028846Y017520D01*
X028846Y017569D02*
X024909Y017569D01*
X024909Y017617D02*
X028846Y017617D01*
X028846Y017666D02*
X024909Y017666D01*
X024909Y017714D02*
X028846Y017714D01*
X028846Y017763D02*
X024909Y017763D01*
X024909Y017811D02*
X028846Y017811D01*
X028846Y017860D02*
X024909Y017860D01*
X024909Y017909D02*
X028846Y017909D01*
X028846Y017957D02*
X024909Y017957D01*
X024909Y018006D02*
X028846Y018006D01*
X028846Y018054D02*
X024909Y018054D01*
X024909Y018103D02*
X028846Y018103D01*
X028846Y018151D02*
X024909Y018151D01*
X024909Y018200D02*
X028846Y018200D01*
X028846Y018248D02*
X024909Y018248D01*
X024909Y018297D02*
X028846Y018297D01*
X028846Y018345D02*
X024909Y018345D01*
X024909Y018394D02*
X028846Y018394D01*
X028846Y018442D02*
X024909Y018442D01*
X024909Y018491D02*
X028846Y018491D01*
X028846Y018540D02*
X024909Y018540D01*
X024909Y018588D02*
X028846Y018588D01*
X028846Y018637D02*
X024909Y018637D01*
X024909Y018685D02*
X028846Y018685D01*
X028846Y018734D02*
X024909Y018734D01*
X024909Y018782D02*
X028846Y018782D01*
X028846Y018831D02*
X024909Y018831D01*
X024909Y018879D02*
X028846Y018879D01*
X028846Y018928D02*
X024909Y018928D01*
X024909Y018976D02*
X028846Y018976D01*
X028846Y019025D02*
X024909Y019025D01*
X024909Y019074D02*
X028846Y019074D01*
X028846Y019122D02*
X024909Y019122D01*
X024909Y019171D02*
X028846Y019171D01*
X028846Y019219D02*
X024909Y019219D01*
X024909Y019268D02*
X028846Y019268D01*
X028846Y019316D02*
X024909Y019316D01*
X024909Y019365D02*
X028846Y019365D01*
X028846Y019413D02*
X024909Y019413D01*
X024909Y019462D02*
X028846Y019462D01*
X028846Y019510D02*
X024909Y019510D01*
X024909Y019559D02*
X028846Y019559D01*
X028846Y019608D02*
X024909Y019608D01*
X024909Y019656D02*
X028846Y019656D01*
X028846Y019705D02*
X024909Y019705D01*
X024909Y019753D02*
X028846Y019753D01*
X028846Y019802D02*
X024909Y019802D01*
X024909Y019850D02*
X028846Y019850D01*
X028846Y019899D02*
X024909Y019899D01*
X024909Y019947D02*
X028846Y019947D01*
X028846Y019996D02*
X024909Y019996D01*
X024909Y020044D02*
X028846Y020044D01*
X028846Y020093D02*
X024909Y020093D01*
X024909Y020141D02*
X028846Y020141D01*
X028846Y020190D02*
X024909Y020190D01*
X024909Y020239D02*
X028846Y020239D01*
X028846Y020287D02*
X024909Y020287D01*
X024909Y020336D02*
X028846Y020336D01*
X028846Y020384D02*
X024909Y020384D01*
X024909Y020433D02*
X028846Y020433D01*
X028846Y020481D02*
X024909Y020481D01*
X024909Y020530D02*
X028846Y020530D01*
X028846Y020578D02*
X024909Y020578D01*
X024909Y020627D02*
X028846Y020627D01*
X028846Y020675D02*
X024909Y020675D01*
X024909Y020724D02*
X028846Y020724D01*
X028846Y020773D02*
X024909Y020773D01*
X024909Y020821D02*
X028846Y020821D01*
X028846Y020870D02*
X024909Y020870D01*
X024909Y020918D02*
X028846Y020918D01*
X028846Y020967D02*
X024909Y020967D01*
X024909Y021015D02*
X028846Y021015D01*
X046563Y030106D02*
X046563Y034043D01*
X050500Y034043D01*
X050500Y030106D01*
X046563Y030106D01*
X046563Y030141D02*
X050500Y030141D01*
X050500Y030190D02*
X046563Y030190D01*
X046563Y030239D02*
X050500Y030239D01*
X050500Y030287D02*
X046563Y030287D01*
X046563Y030336D02*
X050500Y030336D01*
X050500Y030384D02*
X046563Y030384D01*
X046563Y030433D02*
X050500Y030433D01*
X050500Y030481D02*
X046563Y030481D01*
X046563Y030530D02*
X050500Y030530D01*
X050500Y030578D02*
X046563Y030578D01*
X046563Y030627D02*
X050500Y030627D01*
X050500Y030675D02*
X046563Y030675D01*
X046563Y030724D02*
X050500Y030724D01*
X050500Y030772D02*
X046563Y030772D01*
X046563Y030821D02*
X050500Y030821D01*
X050500Y030870D02*
X046563Y030870D01*
X046563Y030918D02*
X050500Y030918D01*
X050500Y030967D02*
X046563Y030967D01*
X046563Y031015D02*
X050500Y031015D01*
X050500Y031064D02*
X046563Y031064D01*
X046563Y031112D02*
X050500Y031112D01*
X050500Y031161D02*
X046563Y031161D01*
X046563Y031209D02*
X050500Y031209D01*
X050500Y031258D02*
X046563Y031258D01*
X046563Y031306D02*
X050500Y031306D01*
X050500Y031355D02*
X046563Y031355D01*
X046563Y031404D02*
X050500Y031404D01*
X050500Y031452D02*
X046563Y031452D01*
X046563Y031501D02*
X050500Y031501D01*
X050500Y031549D02*
X046563Y031549D01*
X046563Y031598D02*
X050500Y031598D01*
X050500Y031646D02*
X046563Y031646D01*
X046563Y031695D02*
X050500Y031695D01*
X050500Y031743D02*
X046563Y031743D01*
X046563Y031792D02*
X050500Y031792D01*
X050500Y031840D02*
X046563Y031840D01*
X046563Y031889D02*
X050500Y031889D01*
X050500Y031938D02*
X046563Y031938D01*
X046563Y031986D02*
X050500Y031986D01*
X050500Y032035D02*
X046563Y032035D01*
X046563Y032083D02*
X050500Y032083D01*
X050500Y032132D02*
X046563Y032132D01*
X046563Y032180D02*
X050500Y032180D01*
X050500Y032229D02*
X046563Y032229D01*
X046563Y032277D02*
X050500Y032277D01*
X050500Y032326D02*
X046563Y032326D01*
X046563Y032374D02*
X050500Y032374D01*
X050500Y032423D02*
X046563Y032423D01*
X046563Y032471D02*
X050500Y032471D01*
X050500Y032520D02*
X046563Y032520D01*
X046563Y032569D02*
X050500Y032569D01*
X050500Y032617D02*
X046563Y032617D01*
X046563Y032666D02*
X050500Y032666D01*
X050500Y032714D02*
X046563Y032714D01*
X046563Y032763D02*
X050500Y032763D01*
X050500Y032811D02*
X046563Y032811D01*
X046563Y032860D02*
X050500Y032860D01*
X050500Y032908D02*
X046563Y032908D01*
X046563Y032957D02*
X050500Y032957D01*
X050500Y033005D02*
X046563Y033005D01*
X046563Y033054D02*
X050500Y033054D01*
X050500Y033103D02*
X046563Y033103D01*
X046563Y033151D02*
X050500Y033151D01*
X050500Y033200D02*
X046563Y033200D01*
X046563Y033248D02*
X050500Y033248D01*
X050500Y033297D02*
X046563Y033297D01*
X046563Y033345D02*
X050500Y033345D01*
X050500Y033394D02*
X046563Y033394D01*
X046563Y033442D02*
X050500Y033442D01*
X050500Y033491D02*
X046563Y033491D01*
X046563Y033539D02*
X050500Y033539D01*
X050500Y033588D02*
X046563Y033588D01*
X046563Y033637D02*
X050500Y033637D01*
X050500Y033685D02*
X046563Y033685D01*
X046563Y033734D02*
X050500Y033734D01*
X050500Y033782D02*
X046563Y033782D01*
X046563Y033831D02*
X050500Y033831D01*
X050500Y033879D02*
X046563Y033879D01*
X046563Y033928D02*
X050500Y033928D01*
X050500Y033976D02*
X046563Y033976D01*
X046563Y034025D02*
X050500Y034025D01*
X050500Y008059D02*
X046563Y008059D01*
X046563Y004122D01*
X050500Y004122D01*
X046563Y004122D01*
X046563Y004171D02*
X050500Y004171D01*
X050500Y004219D02*
X046563Y004219D01*
X046563Y004268D02*
X050500Y004268D01*
X050500Y004316D02*
X046563Y004316D01*
X046563Y004365D02*
X050500Y004365D01*
X050500Y004413D02*
X046563Y004413D01*
X046563Y004462D02*
X050500Y004462D01*
X050500Y004511D02*
X046563Y004511D01*
X046563Y004559D02*
X050500Y004559D01*
X050500Y004608D02*
X046563Y004608D01*
X046563Y004656D02*
X050500Y004656D01*
X050500Y004705D02*
X046563Y004705D01*
X046563Y004753D02*
X050500Y004753D01*
X050500Y004802D02*
X046563Y004802D01*
X046563Y004850D02*
X050500Y004850D01*
X050500Y004899D02*
X046563Y004899D01*
X046563Y004947D02*
X050500Y004947D01*
X050500Y004996D02*
X046563Y004996D01*
X046563Y005045D02*
X050500Y005045D01*
X050500Y005093D02*
X046563Y005093D01*
X046563Y005142D02*
X050500Y005142D01*
X050500Y005190D02*
X046563Y005190D01*
X046563Y005239D02*
X050500Y005239D01*
X050500Y005287D02*
X046563Y005287D01*
X046563Y005336D02*
X050500Y005336D01*
X050500Y005384D02*
X046563Y005384D01*
X046563Y005433D02*
X050500Y005433D01*
X050500Y005481D02*
X046563Y005481D01*
X046563Y005530D02*
X050500Y005530D01*
X050500Y005579D02*
X046563Y005579D01*
X046563Y005627D02*
X050500Y005627D01*
X050500Y005676D02*
X046563Y005676D01*
X046563Y005724D02*
X050500Y005724D01*
X050500Y005773D02*
X046563Y005773D01*
X046563Y005821D02*
X050500Y005821D01*
X050500Y005870D02*
X046563Y005870D01*
X046563Y005918D02*
X050500Y005918D01*
X050500Y005967D02*
X046563Y005967D01*
X046563Y006015D02*
X050500Y006015D01*
X050500Y006064D02*
X046563Y006064D01*
X046563Y006112D02*
X050500Y006112D01*
X050500Y006161D02*
X046563Y006161D01*
X046563Y006210D02*
X050500Y006210D01*
X050500Y006258D02*
X046563Y006258D01*
X046563Y006307D02*
X050500Y006307D01*
X050500Y006355D02*
X046563Y006355D01*
X046563Y006404D02*
X050500Y006404D01*
X050500Y006452D02*
X046563Y006452D01*
X046563Y006501D02*
X050500Y006501D01*
X050500Y006549D02*
X046563Y006549D01*
X046563Y006598D02*
X050500Y006598D01*
X050500Y006646D02*
X046563Y006646D01*
X046563Y006695D02*
X050500Y006695D01*
X050500Y006744D02*
X046563Y006744D01*
X046563Y006792D02*
X050500Y006792D01*
X050500Y006841D02*
X046563Y006841D01*
X046563Y006889D02*
X050500Y006889D01*
X050500Y006938D02*
X046563Y006938D01*
X046563Y006986D02*
X050500Y006986D01*
X050500Y007035D02*
X046563Y007035D01*
X046563Y007083D02*
X050500Y007083D01*
X050500Y007132D02*
X046563Y007132D01*
X046563Y007180D02*
X050500Y007180D01*
X050500Y007229D02*
X046563Y007229D01*
X046563Y007278D02*
X050500Y007278D01*
X050500Y007326D02*
X046563Y007326D01*
X046563Y007375D02*
X050500Y007375D01*
X050500Y007423D02*
X046563Y007423D01*
X046563Y007472D02*
X050500Y007472D01*
X050500Y007520D02*
X046563Y007520D01*
X046563Y007569D02*
X050500Y007569D01*
X050500Y007617D02*
X046563Y007617D01*
X046563Y007666D02*
X050500Y007666D01*
X050500Y007714D02*
X046563Y007714D01*
X046563Y007763D02*
X050500Y007763D01*
X050500Y007811D02*
X046563Y007811D01*
X046563Y007860D02*
X050500Y007860D01*
X050500Y007909D02*
X046563Y007909D01*
X046563Y007957D02*
X050500Y007957D01*
X050500Y008006D02*
X046563Y008006D01*
X046563Y008054D02*
X050500Y008054D01*
X050500Y008059D02*
X050500Y004122D01*
X007192Y030106D02*
X003255Y030106D01*
X003255Y034043D01*
X007192Y034043D01*
X007192Y030106D01*
X007192Y030141D02*
X003255Y030141D01*
X003255Y030190D02*
X007192Y030190D01*
X007192Y030239D02*
X003255Y030239D01*
X003255Y030287D02*
X007192Y030287D01*
X007192Y030336D02*
X003255Y030336D01*
X003255Y030384D02*
X007192Y030384D01*
X007192Y030433D02*
X003255Y030433D01*
X003255Y030481D02*
X007192Y030481D01*
X007192Y030530D02*
X003255Y030530D01*
X003255Y030578D02*
X007192Y030578D01*
X007192Y030627D02*
X003255Y030627D01*
X003255Y030675D02*
X007192Y030675D01*
X007192Y030724D02*
X003255Y030724D01*
X003255Y030772D02*
X007192Y030772D01*
X007192Y030821D02*
X003255Y030821D01*
X003255Y030870D02*
X007192Y030870D01*
X007192Y030918D02*
X003255Y030918D01*
X003255Y030967D02*
X007192Y030967D01*
X007192Y031015D02*
X003255Y031015D01*
X003255Y031064D02*
X007192Y031064D01*
X007192Y031112D02*
X003255Y031112D01*
X003255Y031161D02*
X007192Y031161D01*
X007192Y031209D02*
X003255Y031209D01*
X003255Y031258D02*
X007192Y031258D01*
X007192Y031306D02*
X003255Y031306D01*
X003255Y031355D02*
X007192Y031355D01*
X007192Y031404D02*
X003255Y031404D01*
X003255Y031452D02*
X007192Y031452D01*
X007192Y031501D02*
X003255Y031501D01*
X003255Y031549D02*
X007192Y031549D01*
X007192Y031598D02*
X003255Y031598D01*
X003255Y031646D02*
X007192Y031646D01*
X007192Y031695D02*
X003255Y031695D01*
X003255Y031743D02*
X007192Y031743D01*
X007192Y031792D02*
X003255Y031792D01*
X003255Y031840D02*
X007192Y031840D01*
X007192Y031889D02*
X003255Y031889D01*
X003255Y031938D02*
X007192Y031938D01*
X007192Y031986D02*
X003255Y031986D01*
X003255Y032035D02*
X007192Y032035D01*
X007192Y032083D02*
X003255Y032083D01*
X003255Y032132D02*
X007192Y032132D01*
X007192Y032180D02*
X003255Y032180D01*
X003255Y032229D02*
X007192Y032229D01*
X007192Y032277D02*
X003255Y032277D01*
X003255Y032326D02*
X007192Y032326D01*
X007192Y032374D02*
X003255Y032374D01*
X003255Y032423D02*
X007192Y032423D01*
X007192Y032471D02*
X003255Y032471D01*
X003255Y032520D02*
X007192Y032520D01*
X007192Y032569D02*
X003255Y032569D01*
X003255Y032617D02*
X007192Y032617D01*
X007192Y032666D02*
X003255Y032666D01*
X003255Y032714D02*
X007192Y032714D01*
X007192Y032763D02*
X003255Y032763D01*
X003255Y032811D02*
X007192Y032811D01*
X007192Y032860D02*
X003255Y032860D01*
X003255Y032908D02*
X007192Y032908D01*
X007192Y032957D02*
X003255Y032957D01*
X003255Y033005D02*
X007192Y033005D01*
X007192Y033054D02*
X003255Y033054D01*
X003255Y033103D02*
X007192Y033103D01*
X007192Y033151D02*
X003255Y033151D01*
X003255Y033200D02*
X007192Y033200D01*
X007192Y033248D02*
X003255Y033248D01*
X003255Y033297D02*
X007192Y033297D01*
X007192Y033345D02*
X003255Y033345D01*
X003255Y033394D02*
X007192Y033394D01*
X007192Y033442D02*
X003255Y033442D01*
X003255Y033491D02*
X007192Y033491D01*
X007192Y033539D02*
X003255Y033539D01*
X003255Y033588D02*
X007192Y033588D01*
X007192Y033637D02*
X003255Y033637D01*
X003255Y033685D02*
X007192Y033685D01*
X007192Y033734D02*
X003255Y033734D01*
X003255Y033782D02*
X007192Y033782D01*
X007192Y033831D02*
X003255Y033831D01*
X003255Y033879D02*
X007192Y033879D01*
X007192Y033928D02*
X003255Y033928D01*
X003255Y033976D02*
X007192Y033976D01*
X007192Y034025D02*
X003255Y034025D01*
D12*
X014875Y029546D03*
X015955Y029546D03*
X017035Y029546D03*
X018115Y029546D03*
X019195Y029546D03*
X018655Y030666D03*
X017575Y030666D03*
X016495Y030666D03*
X015415Y030666D03*
X018825Y024932D03*
X015675Y021300D03*
X010755Y018622D03*
X012085Y016592D03*
X015675Y016122D03*
X020955Y013122D03*
X024717Y007753D03*
X025797Y007753D03*
X026877Y007753D03*
X027957Y007753D03*
X029037Y007753D03*
X028497Y006633D03*
X027417Y006633D03*
X026337Y006633D03*
X025257Y006633D03*
X015652Y007753D03*
X014572Y007753D03*
X013492Y007753D03*
X012412Y007753D03*
X011332Y007753D03*
X011872Y006633D03*
X012952Y006633D03*
X014032Y006633D03*
X015112Y006633D03*
X007752Y016923D03*
X006632Y017463D03*
X007752Y018003D03*
X006632Y018543D03*
X007752Y019083D03*
X006632Y019623D03*
X007752Y020163D03*
X007752Y021243D03*
X006632Y020703D03*
X021885Y020092D03*
X033115Y022800D03*
X037425Y018300D03*
X033455Y014122D03*
X038103Y007753D03*
X039183Y007753D03*
X040263Y007753D03*
X041343Y007753D03*
X042423Y007753D03*
X041883Y006633D03*
X040803Y006633D03*
X039723Y006633D03*
X038643Y006633D03*
X044755Y014122D03*
X046869Y015303D03*
X046869Y016383D03*
X047989Y016923D03*
X046869Y017463D03*
X047989Y018003D03*
X046869Y018543D03*
X047989Y019083D03*
X046869Y019623D03*
X047989Y020163D03*
X047989Y021243D03*
X046869Y021783D03*
X047989Y022323D03*
X046869Y022863D03*
X046869Y020703D03*
X044755Y017622D03*
X044755Y016300D03*
X047989Y015843D03*
X032345Y028352D03*
X034560Y029546D03*
X035640Y029546D03*
X036720Y029546D03*
X037800Y029546D03*
X038880Y029546D03*
X038340Y030666D03*
X037260Y030666D03*
X036180Y030666D03*
X035100Y030666D03*
D13*
X031790Y030106D03*
X021965Y030106D03*
X012105Y030106D03*
X007192Y024013D03*
X007192Y014153D03*
X008562Y007193D03*
X018422Y007193D03*
X021947Y007193D03*
X031807Y007193D03*
X035333Y007193D03*
X045193Y007193D03*
X047429Y012523D03*
X047429Y025643D03*
X041650Y030106D03*
D14*
X044255Y029122D03*
X046255Y029122D03*
X048255Y029122D03*
X050255Y029122D03*
X050255Y027122D03*
X050255Y025122D03*
X050255Y023122D03*
X050255Y021122D03*
X050255Y019122D03*
X050255Y017122D03*
X050255Y015122D03*
X050255Y013122D03*
X050255Y011122D03*
X050255Y009122D03*
X048255Y009122D03*
X046255Y009122D03*
X044255Y009122D03*
X042255Y009122D03*
X042255Y011122D03*
X040255Y011122D03*
X038255Y009122D03*
X036255Y009122D03*
X034255Y009122D03*
X032255Y009122D03*
X030255Y009122D03*
X028255Y011122D03*
X026255Y011122D03*
X026255Y009122D03*
X026255Y005122D03*
X024255Y005122D03*
X022255Y005122D03*
X020255Y005122D03*
X018255Y005122D03*
X016255Y005122D03*
X014255Y005122D03*
X014255Y009122D03*
X016255Y009122D03*
X018255Y009122D03*
X016255Y011122D03*
X014255Y011122D03*
X012255Y011122D03*
X012255Y009122D03*
X008255Y009122D03*
X006255Y009122D03*
X004255Y009122D03*
X004255Y011122D03*
X006255Y011122D03*
X008255Y011122D03*
X012255Y013122D03*
X014255Y016622D03*
X014255Y018622D03*
X018255Y019122D03*
X020255Y019122D03*
X020255Y021122D03*
X020955Y021422D03*
X018255Y021122D03*
X018255Y024122D03*
X017255Y024122D03*
X017255Y026122D03*
X016255Y027122D03*
X014255Y027122D03*
X012255Y025122D03*
X010255Y027122D03*
X008255Y027122D03*
X006255Y027122D03*
X004255Y027122D03*
X004255Y025122D03*
X004255Y023122D03*
X004255Y021122D03*
X004255Y019122D03*
X004255Y017122D03*
X004255Y015122D03*
X004255Y013122D03*
X008255Y005122D03*
X018255Y015122D03*
X020255Y015122D03*
X022255Y015122D03*
X024255Y015122D03*
X026255Y015122D03*
X028255Y015122D03*
X031685Y016002D03*
X034255Y015122D03*
X032255Y014122D03*
X034255Y013122D03*
X036255Y013122D03*
X036255Y015122D03*
X040255Y015122D03*
X042255Y015122D03*
X044255Y015122D03*
X044255Y013122D03*
X042255Y013122D03*
X040255Y013122D03*
X036255Y011122D03*
X034255Y011122D03*
X032255Y011122D03*
X024255Y017122D03*
X024255Y019122D03*
X020255Y017122D03*
X018255Y017122D03*
X025455Y023322D03*
X026255Y023522D03*
X026015Y024132D03*
X026665Y024542D03*
X026130Y025322D03*
X024965Y024942D03*
X026255Y026122D03*
X028255Y026122D03*
X028255Y023522D03*
X030255Y023522D03*
X032255Y023122D03*
X034255Y023122D03*
X036255Y023122D03*
X038255Y023122D03*
X038255Y021122D03*
X040255Y021122D03*
X040255Y019122D03*
X042255Y019122D03*
X042255Y017122D03*
X040255Y017122D03*
X036255Y019122D03*
X034255Y019122D03*
X032255Y019122D03*
X030255Y019122D03*
X032255Y021122D03*
X034255Y021122D03*
X038925Y026322D03*
X042255Y025122D03*
X044255Y025122D03*
X044255Y023122D03*
X045255Y027362D03*
X044255Y027752D03*
X044255Y031122D03*
X046255Y031122D03*
X046255Y033122D03*
X044255Y033122D03*
X042255Y033122D03*
X040255Y033122D03*
X038255Y033122D03*
X036255Y033122D03*
X034255Y033122D03*
X032255Y033122D03*
X030255Y033122D03*
X028255Y033122D03*
X026255Y033122D03*
X024255Y033122D03*
X022255Y033122D03*
X020255Y033122D03*
X018255Y033122D03*
X016255Y033122D03*
X014255Y033122D03*
X012255Y033122D03*
X010255Y033122D03*
X008255Y033122D03*
X008255Y031122D03*
X010255Y031122D03*
X010255Y029122D03*
X008255Y029122D03*
X006255Y029122D03*
X004255Y029122D03*
X018255Y027122D03*
X020255Y026122D03*
X021355Y026962D03*
X022005Y027452D03*
X022755Y026122D03*
X024255Y029122D03*
X026255Y029122D03*
X028255Y029122D03*
X028255Y031122D03*
X026255Y031122D03*
X024255Y031122D03*
X044255Y011122D03*
X044255Y005122D03*
X046255Y005122D03*
X042255Y005122D03*
X040255Y005122D03*
M02*
