G75*
G70*
%OFA0B0*%
%FSLAX24Y24*%
%IPPOS*%
%LPD*%
%AMOC8*
5,1,8,0,0,1.08239X$1,22.5*
%
%ADD10C,0.0060*%
%ADD11C,0.1000*%
%ADD12R,0.1200X0.0300*%
%ADD13R,0.0630X0.0787*%
%ADD14R,0.0787X0.0630*%
%ADD15C,0.3543*%
%ADD16C,0.0660*%
%ADD17C,0.2000*%
%ADD18R,0.0472X0.0118*%
%ADD19C,0.0472*%
%ADD20R,0.0394X0.0394*%
%ADD21C,0.0240*%
%ADD22C,0.0120*%
%ADD23C,0.0396*%
%ADD24C,0.0400*%
%ADD25C,0.0160*%
%ADD26C,0.0250*%
%ADD27C,0.0600*%
D10*
X019685Y009652D02*
X019899Y009652D01*
X019792Y009652D02*
X019792Y010293D01*
X019685Y010293D02*
X019899Y010293D01*
X020115Y010293D02*
X020329Y010293D01*
X020222Y010293D02*
X020222Y009652D01*
X020115Y009652D02*
X020329Y009652D01*
X020758Y009652D02*
X020758Y010293D01*
X020545Y010293D02*
X020972Y010293D01*
X021189Y010293D02*
X021510Y010293D01*
X021616Y010186D01*
X021616Y010079D01*
X021510Y009972D01*
X021189Y009972D01*
X021189Y009652D02*
X021510Y009652D01*
X021616Y009759D01*
X021616Y009866D01*
X021510Y009972D01*
X021189Y009652D02*
X021189Y010293D01*
X022478Y010293D02*
X022478Y009652D01*
X022478Y009866D02*
X022799Y009866D01*
X022905Y009972D01*
X022905Y010186D01*
X022799Y010293D01*
X022478Y010293D01*
X023123Y010079D02*
X023123Y009652D01*
X023123Y009866D02*
X023336Y010079D01*
X023443Y010079D01*
X023767Y010079D02*
X023980Y010079D01*
X024087Y009972D01*
X024087Y009652D01*
X023767Y009652D01*
X023660Y009759D01*
X023767Y009866D01*
X024087Y009866D01*
X024305Y010079D02*
X024518Y010079D01*
X024411Y010186D02*
X024411Y009759D01*
X024518Y009652D01*
X024734Y009652D02*
X024734Y010293D01*
X024841Y010079D02*
X025054Y010079D01*
X025161Y009972D01*
X025161Y009652D01*
X025379Y009759D02*
X025485Y009652D01*
X025806Y009652D01*
X025806Y009972D01*
X025699Y010079D01*
X025485Y010079D01*
X025485Y009866D02*
X025806Y009866D01*
X026023Y009652D02*
X026023Y010079D01*
X026130Y010079D01*
X026237Y009972D01*
X026344Y010079D01*
X026450Y009972D01*
X026450Y009652D01*
X026237Y009652D02*
X026237Y009972D01*
X025485Y009866D02*
X025379Y009759D01*
X024841Y010079D02*
X024734Y009972D01*
X009945Y025652D02*
X009624Y025652D01*
X009624Y025439D02*
X009624Y026079D01*
X009945Y026079D01*
X010051Y025972D01*
X010051Y025759D01*
X009945Y025652D01*
X009407Y025759D02*
X009407Y025972D01*
X009300Y026079D01*
X009087Y026079D01*
X008980Y025972D01*
X008980Y025759D01*
X009087Y025652D01*
X009300Y025652D01*
X009407Y025759D01*
X008762Y026293D02*
X008335Y026293D01*
X008549Y026293D02*
X008549Y025652D01*
D11*
X018561Y010872D02*
X018563Y010911D01*
X018569Y010950D01*
X018579Y010988D01*
X018592Y011025D01*
X018609Y011060D01*
X018629Y011094D01*
X018653Y011125D01*
X018680Y011154D01*
X018709Y011180D01*
X018741Y011203D01*
X018775Y011223D01*
X018811Y011239D01*
X018848Y011251D01*
X018887Y011260D01*
X018926Y011265D01*
X018965Y011266D01*
X019004Y011263D01*
X019043Y011256D01*
X019080Y011245D01*
X019117Y011231D01*
X019152Y011213D01*
X019185Y011192D01*
X019216Y011167D01*
X019244Y011140D01*
X019269Y011110D01*
X019291Y011077D01*
X019310Y011043D01*
X019325Y011007D01*
X019337Y010969D01*
X019345Y010931D01*
X019349Y010892D01*
X019349Y010852D01*
X019345Y010813D01*
X019337Y010775D01*
X019325Y010737D01*
X019310Y010701D01*
X019291Y010667D01*
X019269Y010634D01*
X019244Y010604D01*
X019216Y010577D01*
X019185Y010552D01*
X019152Y010531D01*
X019117Y010513D01*
X019080Y010499D01*
X019043Y010488D01*
X019004Y010481D01*
X018965Y010478D01*
X018926Y010479D01*
X018887Y010484D01*
X018848Y010493D01*
X018811Y010505D01*
X018775Y010521D01*
X018741Y010541D01*
X018709Y010564D01*
X018680Y010590D01*
X018653Y010619D01*
X018629Y010650D01*
X018609Y010684D01*
X018592Y010719D01*
X018579Y010756D01*
X018569Y010794D01*
X018563Y010833D01*
X018561Y010872D01*
D12*
X014325Y019662D03*
X014325Y020162D03*
X014325Y020662D03*
X014325Y021162D03*
X011225Y021162D03*
X011225Y020662D03*
X011225Y020162D03*
X011225Y019662D03*
X032985Y017612D03*
X032985Y017112D03*
X032985Y016612D03*
X032985Y016112D03*
X036085Y016112D03*
X036085Y016612D03*
X036085Y017112D03*
X036085Y017612D03*
X034645Y025102D03*
X034645Y025602D03*
X034645Y026102D03*
X034645Y026602D03*
X037745Y026602D03*
X037745Y026102D03*
X037745Y025602D03*
X037745Y025102D03*
D13*
X013187Y015582D03*
X012084Y015582D03*
X011927Y017622D03*
X010824Y017622D03*
D14*
X009295Y020401D03*
X009295Y021503D03*
X014425Y024671D03*
X015625Y024651D03*
X015625Y025753D03*
X014425Y025773D03*
X019275Y020893D03*
X019275Y019791D03*
X017035Y019771D03*
X017035Y020873D03*
X023275Y020893D03*
X023275Y019791D03*
X030900Y017913D03*
X030900Y016811D03*
X038435Y016311D03*
X038435Y017413D03*
X040215Y024801D03*
X040215Y025903D03*
X031545Y026403D03*
X031545Y025301D03*
X025350Y026536D03*
X025350Y027638D03*
X023925Y027613D03*
X023925Y026511D03*
D15*
X026877Y019083D03*
X048531Y032075D03*
X048531Y006091D03*
X005224Y006091D03*
X005224Y032075D03*
D16*
X014875Y029546D03*
X015955Y029546D03*
X017035Y029546D03*
X018115Y029546D03*
X019195Y029546D03*
X018655Y030666D03*
X017575Y030666D03*
X016495Y030666D03*
X015415Y030666D03*
X018825Y024932D03*
X015675Y021300D03*
X010755Y018622D03*
X012085Y016592D03*
X015675Y016122D03*
X020955Y013122D03*
X024717Y007753D03*
X025797Y007753D03*
X026877Y007753D03*
X027957Y007753D03*
X029037Y007753D03*
X028497Y006633D03*
X027417Y006633D03*
X026337Y006633D03*
X025257Y006633D03*
X015652Y007753D03*
X014572Y007753D03*
X013492Y007753D03*
X012412Y007753D03*
X011332Y007753D03*
X011872Y006633D03*
X012952Y006633D03*
X014032Y006633D03*
X015112Y006633D03*
X007752Y016923D03*
X006632Y017463D03*
X007752Y018003D03*
X006632Y018543D03*
X007752Y019083D03*
X006632Y019623D03*
X007752Y020163D03*
X007752Y021243D03*
X006632Y020703D03*
X021885Y020092D03*
X033115Y022800D03*
X037425Y018300D03*
X033455Y014122D03*
X038103Y007753D03*
X039183Y007753D03*
X040263Y007753D03*
X041343Y007753D03*
X042423Y007753D03*
X041883Y006633D03*
X040803Y006633D03*
X039723Y006633D03*
X038643Y006633D03*
X044755Y014122D03*
X046869Y015303D03*
X046869Y016383D03*
X047989Y016923D03*
X046869Y017463D03*
X047989Y018003D03*
X046869Y018543D03*
X047989Y019083D03*
X046869Y019623D03*
X047989Y020163D03*
X047989Y021243D03*
X046869Y021783D03*
X047989Y022323D03*
X046869Y022863D03*
X046869Y020703D03*
X044755Y017622D03*
X044755Y016300D03*
X047989Y015843D03*
X032345Y028352D03*
X034560Y029546D03*
X035640Y029546D03*
X036720Y029546D03*
X037800Y029546D03*
X038880Y029546D03*
X038340Y030666D03*
X037260Y030666D03*
X036180Y030666D03*
X035100Y030666D03*
D17*
X031790Y030106D03*
X021965Y030106D03*
X012105Y030106D03*
X007192Y024013D03*
X007192Y014153D03*
X008562Y007193D03*
X018422Y007193D03*
X021947Y007193D03*
X031807Y007193D03*
X035333Y007193D03*
X045193Y007193D03*
X047429Y012523D03*
X047429Y025643D03*
X041650Y030106D03*
D18*
X022422Y025300D03*
X022422Y025103D03*
X022422Y024906D03*
X022422Y024710D03*
X022422Y024513D03*
X022422Y024316D03*
X022422Y024119D03*
X022422Y023922D03*
X022422Y023725D03*
X022422Y023529D03*
X022422Y023332D03*
X022422Y023135D03*
X022422Y022938D03*
X022422Y022741D03*
X022422Y022544D03*
X020139Y022544D03*
X020139Y022741D03*
X020139Y022938D03*
X020139Y023135D03*
X020139Y023332D03*
X020139Y023529D03*
X020139Y023725D03*
X020139Y023922D03*
X020139Y024119D03*
X020139Y024316D03*
X020139Y024513D03*
X020139Y024710D03*
X020139Y024906D03*
X020139Y025103D03*
X020139Y025300D03*
D19*
X044755Y027122D03*
X044755Y028122D03*
X044755Y021622D03*
X044755Y020622D03*
X044755Y019622D03*
X044755Y018622D03*
D20*
X045655Y015216D03*
X045655Y014429D03*
D21*
X006144Y004322D02*
X006101Y004302D01*
X047654Y004302D01*
X047610Y004322D01*
X047460Y004409D01*
X047317Y004509D01*
X047184Y004621D01*
X047061Y004744D01*
X046949Y004877D01*
X046850Y005020D01*
X046763Y005170D01*
X046689Y005328D01*
X046630Y005491D01*
X046585Y005659D01*
X046555Y005830D01*
X046542Y005971D01*
X048411Y005971D01*
X048411Y006211D01*
X048411Y008079D01*
X048271Y008067D01*
X048100Y008037D01*
X047932Y007992D01*
X047768Y007932D01*
X047610Y007859D01*
X047460Y007772D01*
X047317Y007672D01*
X047184Y007560D01*
X047061Y007438D01*
X046949Y007304D01*
X046850Y007162D01*
X046763Y007011D01*
X046689Y006854D01*
X046630Y006690D01*
X046585Y006522D01*
X046555Y006351D01*
X046542Y006211D01*
X048411Y006211D01*
X048651Y006211D01*
X048651Y008079D01*
X048791Y008067D01*
X048962Y008037D01*
X049130Y007992D01*
X049294Y007932D01*
X049452Y007859D01*
X049602Y007772D01*
X049745Y007672D01*
X049878Y007560D01*
X050001Y007438D01*
X050113Y007304D01*
X050212Y007162D01*
X050299Y007011D01*
X050320Y006968D01*
X050320Y031198D01*
X050299Y031154D01*
X050212Y031004D01*
X050113Y030861D01*
X050001Y030728D01*
X049878Y030605D01*
X049745Y030493D01*
X049602Y030394D01*
X049452Y030307D01*
X049294Y030233D01*
X049130Y030174D01*
X048962Y030129D01*
X048791Y030098D01*
X048651Y030086D01*
X048651Y031955D01*
X048411Y031955D01*
X046542Y031955D01*
X046555Y031815D01*
X046585Y031643D01*
X046630Y031475D01*
X046689Y031312D01*
X046763Y031154D01*
X046850Y031004D01*
X046949Y030861D01*
X047061Y030728D01*
X047184Y030605D01*
X047317Y030493D01*
X047460Y030394D01*
X047610Y030307D01*
X047768Y030233D01*
X047932Y030174D01*
X048100Y030129D01*
X048271Y030098D01*
X048411Y030086D01*
X048411Y031955D01*
X048411Y032195D01*
X046542Y032195D01*
X046555Y032335D01*
X046585Y032506D01*
X046630Y032674D01*
X046689Y032838D01*
X046763Y032995D01*
X046850Y033146D01*
X046949Y033289D01*
X047061Y033422D01*
X047184Y033545D01*
X047317Y033657D01*
X047460Y033756D01*
X047610Y033843D01*
X047654Y033863D01*
X006101Y033863D01*
X006144Y033843D01*
X006295Y033756D01*
X006438Y033657D01*
X006571Y033545D01*
X006694Y033422D01*
X006806Y033289D01*
X006905Y033146D01*
X006992Y032995D01*
X007066Y032838D01*
X007125Y032674D01*
X007170Y032506D01*
X007200Y032335D01*
X007213Y032195D01*
X005344Y032195D01*
X005344Y031955D01*
X007213Y031955D01*
X007200Y031815D01*
X007170Y031643D01*
X007125Y031475D01*
X007066Y031312D01*
X006992Y031154D01*
X006905Y031004D01*
X006806Y030861D01*
X006694Y030728D01*
X006571Y030605D01*
X006438Y030493D01*
X006295Y030394D01*
X006144Y030307D01*
X005987Y030233D01*
X005823Y030174D01*
X005655Y030129D01*
X005484Y030098D01*
X005344Y030086D01*
X005344Y031955D01*
X005104Y031955D01*
X005104Y030086D01*
X004964Y030098D01*
X004792Y030129D01*
X004624Y030174D01*
X004461Y030233D01*
X004303Y030307D01*
X004153Y030394D01*
X004010Y030493D01*
X003877Y030605D01*
X003754Y030728D01*
X003642Y030861D01*
X003543Y031004D01*
X003456Y031154D01*
X003435Y031198D01*
X003435Y006968D01*
X003456Y007011D01*
X003543Y007162D01*
X003642Y007304D01*
X003754Y007438D01*
X003877Y007560D01*
X004010Y007672D01*
X004153Y007772D01*
X004303Y007859D01*
X004461Y007932D01*
X004624Y007992D01*
X004792Y008037D01*
X004964Y008067D01*
X005104Y008079D01*
X005104Y006211D01*
X005344Y006211D01*
X005344Y008079D01*
X005484Y008067D01*
X005655Y008037D01*
X005823Y007992D01*
X005987Y007932D01*
X006144Y007859D01*
X006295Y007772D01*
X006438Y007672D01*
X006571Y007560D01*
X006694Y007438D01*
X006806Y007304D01*
X006905Y007162D01*
X006992Y007011D01*
X007066Y006854D01*
X007125Y006690D01*
X007170Y006522D01*
X007200Y006351D01*
X007213Y006211D01*
X005344Y006211D01*
X005344Y005971D01*
X007213Y005971D01*
X007200Y005830D01*
X007170Y005659D01*
X007125Y005491D01*
X007066Y005328D01*
X006992Y005170D01*
X006905Y005020D01*
X006806Y004877D01*
X006694Y004744D01*
X006571Y004621D01*
X006438Y004509D01*
X006295Y004409D01*
X006144Y004322D01*
X006211Y004361D02*
X047544Y004361D01*
X047210Y004599D02*
X039482Y004599D01*
X039578Y004639D02*
X039739Y004799D01*
X040206Y005267D01*
X040293Y005477D01*
X040293Y005623D01*
X043137Y005623D01*
X043273Y005679D01*
X043377Y005783D01*
X043433Y005919D01*
X043433Y008467D01*
X043377Y008603D01*
X043273Y008707D01*
X043137Y008763D01*
X040833Y008763D01*
X040833Y009228D01*
X040746Y009437D01*
X040586Y009598D01*
X039005Y011178D01*
X039005Y015669D01*
X039039Y015682D01*
X039143Y015786D01*
X039199Y015922D01*
X039199Y016700D01*
X039143Y016836D01*
X039116Y016862D01*
X039143Y016889D01*
X039199Y017025D01*
X039199Y017802D01*
X039143Y017938D01*
X039039Y018042D01*
X038903Y018098D01*
X038885Y018098D01*
X038885Y018732D01*
X038817Y018897D01*
X038690Y019024D01*
X036022Y021692D01*
X037968Y021692D01*
X038016Y021672D01*
X038195Y021672D01*
X038360Y021741D01*
X040470Y023851D01*
X040597Y023977D01*
X040654Y024116D01*
X040683Y024116D01*
X040819Y024172D01*
X040923Y024276D01*
X040979Y024412D01*
X040979Y025190D01*
X040923Y025326D01*
X040896Y025352D01*
X040923Y025379D01*
X040979Y025515D01*
X040979Y026292D01*
X040923Y026428D01*
X040819Y026532D01*
X040785Y026546D01*
X040785Y026549D01*
X040785Y026776D01*
X040699Y026985D01*
X039147Y028536D01*
X039594Y028536D01*
X039730Y028593D01*
X039834Y028697D01*
X039890Y028833D01*
X039890Y031380D01*
X039834Y031516D01*
X039730Y031620D01*
X039594Y031676D01*
X036750Y031676D01*
X036750Y031711D01*
X036663Y031921D01*
X036139Y032445D01*
X035978Y032605D01*
X035769Y032692D01*
X029742Y032692D01*
X017942Y032692D01*
X017733Y032605D01*
X017572Y032445D01*
X017092Y031965D01*
X017005Y031755D01*
X017005Y031676D01*
X014161Y031676D01*
X014025Y031620D01*
X013921Y031516D01*
X013865Y031380D01*
X013865Y028833D01*
X013921Y028697D01*
X014025Y028593D01*
X014161Y028536D01*
X016483Y028536D01*
X016552Y028370D01*
X016933Y027989D01*
X017142Y027902D01*
X017369Y027902D01*
X021652Y027902D01*
X020975Y027902D01*
X020796Y027902D01*
X020631Y027834D01*
X019024Y026227D01*
X018955Y026062D01*
X018955Y025883D01*
X018975Y025834D01*
X018975Y025789D01*
X018846Y025736D01*
X018742Y025632D01*
X018686Y025632D01*
X018429Y025526D01*
X018232Y025329D01*
X018125Y025071D01*
X018125Y024793D01*
X018232Y024536D01*
X018429Y024339D01*
X018682Y024234D01*
X018650Y024158D01*
X018650Y024058D01*
X018650Y023887D01*
X018685Y023802D01*
X018685Y023762D01*
X016174Y023762D01*
X016055Y023880D01*
X016055Y023966D01*
X016093Y023966D01*
X016229Y024022D01*
X016333Y024126D01*
X016389Y024262D01*
X016389Y025040D01*
X016333Y025176D01*
X016229Y025280D01*
X016188Y025296D01*
X016195Y025303D01*
X016224Y025353D01*
X016239Y025409D01*
X016239Y025716D01*
X015663Y025716D01*
X015663Y025791D01*
X015588Y025791D01*
X015588Y026288D01*
X015203Y026288D01*
X015147Y026273D01*
X015097Y026244D01*
X015056Y026203D01*
X015029Y026156D01*
X015024Y026173D01*
X014995Y026223D01*
X014954Y026264D01*
X014904Y026293D01*
X014848Y026308D01*
X014463Y026308D01*
X014463Y025811D01*
X014388Y025811D01*
X014388Y026308D01*
X014003Y026308D01*
X013947Y026293D01*
X013897Y026264D01*
X013856Y026223D01*
X013827Y026173D01*
X013812Y026117D01*
X013812Y025811D01*
X014388Y025811D01*
X014388Y025736D01*
X013812Y025736D01*
X013812Y025429D01*
X013827Y025373D01*
X013856Y025323D01*
X013863Y025316D01*
X013822Y025300D01*
X013718Y025196D01*
X013662Y025060D01*
X013662Y024282D01*
X013718Y024146D01*
X013822Y024042D01*
X013958Y023986D01*
X013995Y023986D01*
X013995Y023957D01*
X014061Y023799D01*
X014182Y023678D01*
X014492Y023368D01*
X014259Y023368D01*
X014211Y023388D01*
X014032Y023388D01*
X013866Y023319D01*
X012179Y021632D01*
X012052Y021632D01*
X012035Y021625D01*
X012035Y021626D01*
X011899Y021682D01*
X010552Y021682D01*
X010416Y021626D01*
X010402Y021612D01*
X010362Y021612D01*
X010089Y021885D01*
X010056Y021898D01*
X010003Y022028D01*
X009899Y022132D01*
X009763Y022188D01*
X008828Y022188D01*
X008692Y022132D01*
X008679Y022119D01*
X008602Y022196D01*
X008466Y022253D01*
X005919Y022253D01*
X005783Y022196D01*
X005679Y022092D01*
X005622Y021956D01*
X005622Y019113D01*
X005563Y019113D01*
X005353Y019026D01*
X004933Y018605D01*
X004772Y018445D01*
X004685Y018236D01*
X004685Y016436D01*
X004685Y016209D01*
X004772Y015999D01*
X005272Y015499D01*
X005433Y015339D01*
X005642Y015252D01*
X006664Y015252D01*
X006601Y015222D01*
X006485Y015149D01*
X006378Y015064D01*
X006281Y014967D01*
X006196Y014860D01*
X006123Y014744D01*
X006064Y014620D01*
X006018Y014491D01*
X005988Y014358D01*
X005978Y014273D01*
X007072Y014273D01*
X007072Y014033D01*
X005978Y014033D01*
X005988Y013948D01*
X006018Y013815D01*
X006064Y013685D01*
X006123Y013562D01*
X006196Y013446D01*
X006281Y013339D01*
X006378Y013242D01*
X006485Y013156D01*
X006601Y013083D01*
X006725Y013024D01*
X006854Y012979D01*
X006988Y012948D01*
X007072Y012939D01*
X007072Y014033D01*
X007312Y014033D01*
X007312Y012939D01*
X007397Y012948D01*
X007531Y012979D01*
X007660Y013024D01*
X007784Y013083D01*
X007900Y013156D01*
X008007Y013242D01*
X008104Y013339D01*
X008189Y013446D01*
X008262Y013562D01*
X008321Y013685D01*
X008367Y013815D01*
X008397Y013948D01*
X008407Y014033D01*
X007313Y014033D01*
X007313Y014273D01*
X008407Y014273D01*
X008397Y014358D01*
X008367Y014491D01*
X008321Y014620D01*
X008262Y014744D01*
X008189Y014860D01*
X008104Y014967D01*
X008007Y015064D01*
X007900Y015149D01*
X007784Y015222D01*
X007721Y015252D01*
X009685Y015252D01*
X009685Y007671D01*
X009631Y007784D01*
X009558Y007900D01*
X009473Y008007D01*
X009376Y008104D01*
X009269Y008190D01*
X009153Y008262D01*
X009029Y008322D01*
X008900Y008367D01*
X008766Y008398D01*
X008682Y008407D01*
X008682Y007313D01*
X008442Y007313D01*
X008442Y008407D01*
X008357Y008398D01*
X008223Y008367D01*
X008094Y008322D01*
X007971Y008262D01*
X007855Y008190D01*
X007747Y008104D01*
X007651Y008007D01*
X007565Y007900D01*
X007492Y007784D01*
X007433Y007661D01*
X007387Y007531D01*
X007357Y007398D01*
X007347Y007313D01*
X008441Y007313D01*
X008441Y007073D01*
X007347Y007073D01*
X007357Y006988D01*
X007387Y006855D01*
X007433Y006725D01*
X007492Y006602D01*
X007565Y006486D01*
X007651Y006379D01*
X007747Y006282D01*
X007855Y006196D01*
X007971Y006124D01*
X008094Y006064D01*
X008223Y006019D01*
X008357Y005988D01*
X008442Y005979D01*
X008442Y007073D01*
X008682Y007073D01*
X008682Y005979D01*
X008766Y005988D01*
X008900Y006019D01*
X009029Y006064D01*
X009153Y006124D01*
X009269Y006196D01*
X009376Y006282D01*
X009473Y006379D01*
X009558Y006486D01*
X009631Y006602D01*
X009685Y006715D01*
X009685Y005509D01*
X009772Y005299D01*
X009933Y005139D01*
X010433Y004639D01*
X010642Y004552D01*
X010869Y004552D01*
X012869Y004552D01*
X013078Y004639D01*
X013239Y004799D01*
X013274Y004835D01*
X013275Y004835D02*
X013435Y004996D01*
X013522Y005205D01*
X013522Y005623D01*
X016365Y005623D01*
X016501Y005679D01*
X016605Y005783D01*
X016662Y005919D01*
X016662Y008467D01*
X016605Y008603D01*
X016501Y008707D01*
X016365Y008763D01*
X014062Y008763D01*
X014062Y011522D01*
X017358Y014819D01*
X017518Y014979D01*
X017605Y015188D01*
X017605Y019129D01*
X017638Y019142D01*
X017742Y019246D01*
X017799Y019382D01*
X017799Y020160D01*
X017742Y020296D01*
X017716Y020322D01*
X017742Y020349D01*
X017799Y020485D01*
X017799Y021262D01*
X017742Y021398D01*
X017638Y021502D01*
X017502Y021558D01*
X017485Y021558D01*
X017485Y022003D01*
X017793Y022311D01*
X018701Y022311D01*
X018742Y022213D01*
X018845Y022109D01*
X018845Y021578D01*
X018808Y021578D01*
X018672Y021522D01*
X018568Y021418D01*
X018512Y021282D01*
X018512Y020505D01*
X018568Y020369D01*
X018672Y020265D01*
X018713Y020248D01*
X018706Y020241D01*
X018677Y020191D01*
X018662Y020135D01*
X018662Y019829D01*
X019238Y019829D01*
X019238Y019753D01*
X019313Y019753D01*
X019313Y019256D01*
X019698Y019256D01*
X019754Y019271D01*
X019804Y019300D01*
X019845Y019341D01*
X019874Y019391D01*
X019889Y019447D01*
X019889Y019753D01*
X019313Y019753D01*
X019313Y019829D01*
X019889Y019829D01*
X019889Y020135D01*
X019874Y020191D01*
X019845Y020241D01*
X019838Y020248D01*
X019879Y020265D01*
X019983Y020369D01*
X020039Y020505D01*
X020039Y021282D01*
X019983Y021418D01*
X019879Y021522D01*
X019743Y021578D01*
X019705Y021578D01*
X019705Y022052D01*
X020465Y022052D01*
X020465Y021729D01*
X020385Y021536D01*
X020386Y021536D02*
X019845Y021536D01*
X019705Y021774D02*
X020465Y021774D01*
X020465Y022013D02*
X019705Y022013D01*
X020033Y021297D02*
X020385Y021297D01*
X020385Y021059D02*
X020039Y021059D01*
X020039Y020820D02*
X020385Y020820D01*
X020385Y020582D02*
X020039Y020582D01*
X019957Y020343D02*
X020385Y020343D01*
X020385Y020105D02*
X019889Y020105D01*
X019889Y019866D02*
X020385Y019866D01*
X020385Y019628D02*
X019889Y019628D01*
X019873Y019389D02*
X020385Y019389D01*
X020385Y019150D02*
X017646Y019150D01*
X017605Y018912D02*
X020385Y018912D01*
X020385Y018673D02*
X017605Y018673D01*
X017605Y018435D02*
X020385Y018435D01*
X020385Y018196D02*
X017605Y018196D01*
X017605Y017958D02*
X020385Y017958D01*
X020385Y017719D02*
X017605Y017719D01*
X017605Y017481D02*
X020385Y017481D01*
X020385Y017242D02*
X017605Y017242D01*
X017605Y017004D02*
X020385Y017004D01*
X020385Y016765D02*
X017605Y016765D01*
X017605Y016526D02*
X020385Y016526D01*
X020385Y016288D02*
X017605Y016288D01*
X017605Y016049D02*
X020385Y016049D01*
X020385Y015811D02*
X017605Y015811D01*
X017605Y015572D02*
X020385Y015572D01*
X020385Y015334D02*
X017605Y015334D01*
X017566Y015095D02*
X020385Y015095D01*
X020385Y014857D02*
X017396Y014857D01*
X017157Y014618D02*
X020385Y014618D01*
X020385Y014380D02*
X016919Y014380D01*
X016680Y014141D02*
X020385Y014141D01*
X020385Y013902D02*
X016442Y013902D01*
X016203Y013664D02*
X020385Y013664D01*
X020385Y013542D02*
X020362Y013519D01*
X020255Y013261D01*
X020255Y012983D01*
X020362Y012726D01*
X020559Y012529D01*
X020606Y012509D01*
X020578Y012498D01*
X020574Y012494D01*
X020413Y012423D01*
X020328Y012388D01*
X020324Y012384D01*
X020319Y012381D01*
X020311Y012374D01*
X020250Y012372D01*
X020158Y012372D01*
X020153Y012370D01*
X020147Y012370D01*
X020063Y012333D01*
X019978Y012298D01*
X019974Y012294D01*
X019813Y012223D01*
X019728Y012188D01*
X019724Y012184D01*
X019719Y012181D01*
X019655Y012115D01*
X019590Y012050D01*
X019588Y012045D01*
X019584Y012041D01*
X019559Y011977D01*
X019175Y012117D01*
X018736Y012117D01*
X018324Y011967D01*
X017987Y011684D01*
X017768Y011304D01*
X017692Y010872D01*
X017708Y010781D01*
X017553Y010713D01*
X017468Y010678D01*
X017464Y010674D01*
X017459Y010671D01*
X017395Y010605D01*
X017352Y010562D01*
X017298Y010562D01*
X017264Y010548D01*
X017227Y010542D01*
X017174Y010511D01*
X017118Y010488D01*
X017092Y010461D01*
X016924Y010361D01*
X016868Y010338D01*
X016842Y010311D01*
X016810Y010292D01*
X016773Y010243D01*
X016730Y010200D01*
X016716Y010165D01*
X016694Y010136D01*
X016679Y010076D01*
X016655Y010020D01*
X016655Y009983D01*
X016646Y009946D01*
X016655Y009886D01*
X016655Y009483D01*
X016646Y009446D01*
X016655Y009386D01*
X016655Y009325D01*
X016670Y009290D01*
X016675Y009254D01*
X016707Y009201D01*
X016730Y009145D01*
X016756Y009118D01*
X016775Y009086D01*
X016825Y009050D01*
X016868Y009007D01*
X016902Y008993D01*
X016932Y008970D01*
X016991Y008956D01*
X017048Y008932D01*
X017085Y008932D01*
X017121Y008923D01*
X017182Y008932D01*
X017243Y008932D01*
X017277Y008946D01*
X017314Y008952D01*
X017366Y008983D01*
X017423Y009007D01*
X017449Y009033D01*
X017616Y009133D01*
X017673Y009157D01*
X017699Y009183D01*
X017731Y009202D01*
X017768Y009251D01*
X017788Y009272D01*
X017843Y009272D01*
X017848Y009274D01*
X017854Y009274D01*
X017938Y009312D01*
X018023Y009347D01*
X018027Y009351D01*
X018188Y009422D01*
X018273Y009457D01*
X018277Y009461D01*
X018282Y009463D01*
X018346Y009530D01*
X018411Y009595D01*
X018413Y009600D01*
X018417Y009604D01*
X018450Y009690D01*
X018465Y009726D01*
X018736Y009628D01*
X019052Y009628D01*
X019052Y009373D01*
X019055Y009341D01*
X019061Y009309D01*
X019069Y009278D01*
X019080Y009247D01*
X019094Y009218D01*
X019110Y009190D01*
X019128Y009163D01*
X019149Y009139D01*
X019172Y009116D01*
X019197Y009095D01*
X019223Y009077D01*
X019251Y009060D01*
X019280Y009047D01*
X019311Y009036D01*
X019342Y009027D01*
X019374Y009022D01*
X019406Y009019D01*
X025794Y009019D01*
X025826Y009022D01*
X025858Y009027D01*
X025889Y009036D01*
X025919Y009047D01*
X025949Y009060D01*
X025977Y009077D01*
X026003Y009095D01*
X026028Y009116D01*
X026051Y009139D01*
X026071Y009163D01*
X026090Y009190D01*
X026106Y009218D01*
X026120Y009247D01*
X026131Y009278D01*
X026139Y009309D01*
X026145Y009341D01*
X026148Y009373D01*
X026148Y010572D01*
X026145Y010604D01*
X026139Y010636D01*
X026131Y010667D01*
X026120Y010697D01*
X026106Y010726D01*
X026090Y010754D01*
X026071Y010781D01*
X026051Y010806D01*
X026028Y010829D01*
X026003Y010849D01*
X025977Y010868D01*
X025949Y010884D01*
X025919Y010898D01*
X025889Y010909D01*
X025858Y010917D01*
X025826Y010923D01*
X025794Y010925D01*
X020434Y010925D01*
X020448Y010932D01*
X020533Y010967D01*
X020537Y010971D01*
X020542Y010973D01*
X020550Y010981D01*
X020611Y010982D01*
X020703Y010982D01*
X020708Y010984D01*
X020714Y010984D01*
X020798Y011022D01*
X020883Y011057D01*
X020887Y011061D01*
X021048Y011132D01*
X021133Y011167D01*
X021137Y011171D01*
X021142Y011173D01*
X021206Y011240D01*
X021271Y011305D01*
X021273Y011310D01*
X021277Y011314D01*
X021310Y011400D01*
X021345Y011485D01*
X021345Y011490D01*
X021347Y011495D01*
X021345Y011587D01*
X021345Y011990D01*
X021347Y011995D01*
X021345Y012087D01*
X021345Y012180D01*
X021343Y012185D01*
X021343Y012190D01*
X021306Y012275D01*
X021271Y012360D01*
X021267Y012364D01*
X021265Y012369D01*
X021198Y012433D01*
X021175Y012456D01*
X021352Y012529D01*
X021549Y012726D01*
X021655Y012983D01*
X021655Y013261D01*
X021549Y013519D01*
X021525Y013542D01*
X021525Y019484D01*
X021746Y019392D01*
X022025Y019392D01*
X022282Y019499D01*
X022479Y019696D01*
X022585Y019953D01*
X022585Y020231D01*
X022479Y020489D01*
X022282Y020686D01*
X022075Y020771D01*
X022075Y022052D01*
X023225Y022052D01*
X023225Y021578D01*
X022808Y021578D01*
X022672Y021522D01*
X022568Y021418D01*
X022512Y021282D01*
X022512Y020505D01*
X022568Y020369D01*
X022672Y020265D01*
X022713Y020248D01*
X022706Y020241D01*
X022677Y020191D01*
X022662Y020135D01*
X022662Y019829D01*
X023238Y019829D01*
X023238Y019753D01*
X023313Y019753D01*
X023313Y019256D01*
X023698Y019256D01*
X023754Y019271D01*
X023804Y019300D01*
X023845Y019341D01*
X023874Y019391D01*
X023889Y019447D01*
X023889Y019753D01*
X023313Y019753D01*
X023313Y019829D01*
X023889Y019829D01*
X023889Y020135D01*
X023874Y020191D01*
X023845Y020241D01*
X023838Y020248D01*
X023879Y020265D01*
X023983Y020369D01*
X024039Y020505D01*
X024039Y020770D01*
X024057Y020787D01*
X024125Y020953D01*
X024125Y021132D01*
X024125Y022144D01*
X024991Y021279D01*
X024991Y021279D01*
X025112Y021158D01*
X025270Y021092D01*
X029799Y021092D01*
X030450Y020441D01*
X030450Y018598D01*
X030433Y018598D01*
X030297Y018542D01*
X030193Y018438D01*
X030137Y018302D01*
X030137Y017525D01*
X030193Y017389D01*
X030220Y017362D01*
X030193Y017336D01*
X030137Y017200D01*
X030137Y016422D01*
X030193Y016286D01*
X030297Y016182D01*
X030330Y016169D01*
X030330Y012828D01*
X026394Y008892D01*
X026341Y008763D01*
X024004Y008763D01*
X023868Y008707D01*
X023764Y008603D01*
X023707Y008467D01*
X023707Y005919D01*
X023764Y005783D01*
X023868Y005679D01*
X024004Y005623D01*
X026857Y005623D01*
X026934Y005437D01*
X027572Y004799D01*
X027733Y004639D01*
X027942Y004552D01*
X036942Y004552D01*
X039369Y004552D01*
X039578Y004639D01*
X039777Y004838D02*
X046982Y004838D01*
X046817Y005076D02*
X040016Y005076D01*
X040226Y005315D02*
X046695Y005315D01*
X046613Y005553D02*
X040293Y005553D01*
X043380Y005792D02*
X046561Y005792D01*
X046547Y006269D02*
X045991Y006269D01*
X046008Y006282D02*
X046104Y006379D01*
X046190Y006486D01*
X046263Y006602D01*
X046322Y006725D01*
X046367Y006855D01*
X046398Y006988D01*
X046407Y007073D01*
X045313Y007073D01*
X045313Y005979D01*
X045398Y005988D01*
X045532Y006019D01*
X045661Y006064D01*
X045784Y006124D01*
X045900Y006196D01*
X046008Y006282D01*
X046203Y006508D02*
X046582Y006508D01*
X046650Y006746D02*
X046329Y006746D01*
X046397Y006985D02*
X046750Y006985D01*
X046893Y007223D02*
X045313Y007223D01*
X045313Y007313D02*
X046407Y007313D01*
X046398Y007398D01*
X046367Y007531D01*
X046322Y007661D01*
X046263Y007784D01*
X046190Y007900D01*
X046104Y008007D01*
X046008Y008104D01*
X045900Y008190D01*
X045784Y008262D01*
X045661Y008322D01*
X045532Y008367D01*
X045398Y008398D01*
X045313Y008407D01*
X045313Y007313D01*
X045073Y007313D01*
X045073Y007073D01*
X043979Y007073D01*
X043989Y006988D01*
X044019Y006855D01*
X044064Y006725D01*
X044124Y006602D01*
X044197Y006486D01*
X044282Y006379D01*
X044379Y006282D01*
X044486Y006196D01*
X044602Y006124D01*
X044726Y006064D01*
X044855Y006019D01*
X044989Y005988D01*
X045073Y005979D01*
X045073Y007073D01*
X045313Y007073D01*
X045313Y007313D01*
X045313Y007462D02*
X045073Y007462D01*
X045073Y007313D02*
X045073Y008407D01*
X044989Y008398D01*
X044855Y008367D01*
X044726Y008322D01*
X044602Y008262D01*
X044486Y008190D01*
X044379Y008104D01*
X044282Y008007D01*
X044197Y007900D01*
X044124Y007784D01*
X044064Y007661D01*
X044019Y007531D01*
X043989Y007398D01*
X043979Y007313D01*
X045073Y007313D01*
X045073Y007223D02*
X043433Y007223D01*
X043433Y006985D02*
X043989Y006985D01*
X044057Y006746D02*
X043433Y006746D01*
X043433Y006508D02*
X044183Y006508D01*
X044395Y006269D02*
X043433Y006269D01*
X043433Y006031D02*
X044822Y006031D01*
X045073Y006031D02*
X045313Y006031D01*
X045313Y006269D02*
X045073Y006269D01*
X045073Y006508D02*
X045313Y006508D01*
X045313Y006746D02*
X045073Y006746D01*
X045073Y006985D02*
X045313Y006985D01*
X045313Y007700D02*
X045073Y007700D01*
X045073Y007939D02*
X045313Y007939D01*
X045313Y008177D02*
X045073Y008177D01*
X044471Y008177D02*
X043433Y008177D01*
X043433Y007939D02*
X044228Y007939D01*
X044084Y007700D02*
X043433Y007700D01*
X043433Y007462D02*
X044003Y007462D01*
X043433Y008416D02*
X050320Y008416D01*
X050320Y008177D02*
X045916Y008177D01*
X046159Y007939D02*
X047786Y007939D01*
X047358Y007700D02*
X046303Y007700D01*
X046383Y007462D02*
X047086Y007462D01*
X048411Y007462D02*
X048651Y007462D01*
X048651Y007700D02*
X048411Y007700D01*
X048411Y007939D02*
X048651Y007939D01*
X049276Y007939D02*
X050320Y007939D01*
X050320Y007700D02*
X049705Y007700D01*
X049976Y007462D02*
X050320Y007462D01*
X050320Y007223D02*
X050169Y007223D01*
X050312Y006985D02*
X050320Y006985D01*
X048651Y006985D02*
X048411Y006985D01*
X048411Y007223D02*
X048651Y007223D01*
X048651Y006746D02*
X048411Y006746D01*
X048411Y006508D02*
X048651Y006508D01*
X048651Y006269D02*
X048411Y006269D01*
X048411Y006031D02*
X045565Y006031D01*
X043325Y008655D02*
X050320Y008655D01*
X050320Y008893D02*
X040833Y008893D01*
X040833Y009132D02*
X050320Y009132D01*
X050320Y009370D02*
X040774Y009370D01*
X040575Y009609D02*
X050320Y009609D01*
X050320Y009847D02*
X040336Y009847D01*
X040098Y010086D02*
X050320Y010086D01*
X050320Y010324D02*
X039859Y010324D01*
X039621Y010563D02*
X050320Y010563D01*
X050320Y010801D02*
X039382Y010801D01*
X039144Y011040D02*
X050320Y011040D01*
X050320Y011279D02*
X039005Y011279D01*
X039005Y011517D02*
X046736Y011517D01*
X046722Y011526D02*
X046838Y011453D01*
X046961Y011394D01*
X047090Y011349D01*
X047224Y011318D01*
X047309Y011309D01*
X047309Y012403D01*
X047549Y012403D01*
X047549Y012643D01*
X048643Y012643D01*
X048633Y012728D01*
X048603Y012861D01*
X048558Y012990D01*
X048498Y013114D01*
X048425Y013230D01*
X048340Y013337D01*
X048243Y013434D01*
X048136Y013519D01*
X048020Y013592D01*
X047896Y013652D01*
X047767Y013697D01*
X047633Y013727D01*
X047549Y013737D01*
X047549Y012643D01*
X047309Y012643D01*
X047309Y013737D01*
X047224Y013727D01*
X047090Y013697D01*
X046961Y013652D01*
X046838Y013592D01*
X046722Y013519D01*
X046614Y013434D01*
X046518Y013337D01*
X046432Y013230D01*
X046359Y013114D01*
X046300Y012990D01*
X046254Y012861D01*
X046224Y012728D01*
X046214Y012643D01*
X047308Y012643D01*
X047308Y012403D01*
X046214Y012403D01*
X046224Y012318D01*
X046254Y012185D01*
X046300Y012055D01*
X046359Y011932D01*
X046432Y011816D01*
X046518Y011709D01*
X046614Y011612D01*
X046722Y011526D01*
X046480Y011756D02*
X039005Y011756D01*
X039005Y011994D02*
X046329Y011994D01*
X046244Y012233D02*
X039005Y012233D01*
X039005Y012471D02*
X047308Y012471D01*
X047309Y012233D02*
X047549Y012233D01*
X047549Y012403D02*
X047549Y011309D01*
X047633Y011318D01*
X047767Y011349D01*
X047896Y011394D01*
X048020Y011453D01*
X048136Y011526D01*
X048243Y011612D01*
X048340Y011709D01*
X048425Y011816D01*
X048498Y011932D01*
X048558Y012055D01*
X048603Y012185D01*
X048633Y012318D01*
X048643Y012403D01*
X047549Y012403D01*
X047549Y012471D02*
X050320Y012471D01*
X050320Y012233D02*
X048614Y012233D01*
X048528Y011994D02*
X050320Y011994D01*
X050320Y011756D02*
X048377Y011756D01*
X048121Y011517D02*
X050320Y011517D01*
X050320Y012710D02*
X048635Y012710D01*
X048572Y012948D02*
X050320Y012948D01*
X050320Y013187D02*
X048452Y013187D01*
X048251Y013425D02*
X050320Y013425D01*
X050320Y013664D02*
X047861Y013664D01*
X047549Y013664D02*
X047309Y013664D01*
X047309Y013425D02*
X047549Y013425D01*
X047549Y013187D02*
X047309Y013187D01*
X047309Y012948D02*
X047549Y012948D01*
X047549Y012710D02*
X047309Y012710D01*
X046606Y013425D02*
X044902Y013425D01*
X044895Y013422D02*
X045152Y013529D01*
X045349Y013726D01*
X045404Y013859D01*
X045769Y013859D01*
X045776Y013862D01*
X045926Y013862D01*
X046062Y013918D01*
X046166Y014022D01*
X046222Y014158D01*
X046222Y014293D01*
X048702Y014293D01*
X048838Y014349D01*
X048942Y014453D01*
X048999Y014589D01*
X048999Y019760D01*
X049051Y019781D01*
X049178Y019908D01*
X049937Y020667D01*
X050005Y020833D01*
X050005Y021012D01*
X050005Y026512D01*
X049937Y026677D01*
X049810Y026804D01*
X048607Y028007D01*
X048480Y028134D01*
X048315Y028202D01*
X045362Y028202D01*
X045362Y028243D01*
X045269Y028466D01*
X045099Y028636D01*
X044876Y028728D01*
X044635Y028728D01*
X044412Y028636D01*
X044241Y028466D01*
X044181Y028320D01*
X044142Y028320D01*
X043934Y028234D01*
X043774Y028074D01*
X043687Y027865D01*
X043687Y027639D01*
X043774Y027430D01*
X043934Y027271D01*
X044142Y027184D01*
X044149Y027184D01*
X044149Y027002D01*
X044241Y026779D01*
X044412Y026608D01*
X044635Y026516D01*
X044876Y026516D01*
X045099Y026608D01*
X045269Y026779D01*
X045276Y026794D01*
X045368Y026794D01*
X045577Y026881D01*
X045609Y026912D01*
X047829Y026912D01*
X048045Y026697D01*
X048020Y026712D01*
X047896Y026772D01*
X047767Y026817D01*
X047633Y026847D01*
X047549Y026857D01*
X047549Y025763D01*
X048643Y025763D01*
X048633Y025848D01*
X048603Y025981D01*
X048558Y026110D01*
X048498Y026234D01*
X048482Y026259D01*
X048705Y026036D01*
X048705Y023871D01*
X048702Y023873D01*
X046155Y023873D01*
X046019Y023816D01*
X045915Y023712D01*
X045859Y023576D01*
X045859Y022233D01*
X044827Y022233D01*
X044816Y022228D01*
X044635Y022228D01*
X044412Y022136D01*
X044241Y021966D01*
X044149Y021743D01*
X044149Y021502D01*
X044241Y021279D01*
X044398Y021122D01*
X044241Y020966D01*
X044149Y020743D01*
X044149Y020502D01*
X044241Y020279D01*
X044398Y020122D01*
X044241Y019966D01*
X044149Y019743D01*
X044149Y019502D01*
X044241Y019279D01*
X044398Y019122D01*
X044241Y018966D01*
X044149Y018743D01*
X044149Y018502D01*
X044241Y018279D01*
X044412Y018108D01*
X044635Y018016D01*
X044876Y018016D01*
X045062Y018093D01*
X045859Y018093D01*
X045859Y015633D01*
X045656Y015633D01*
X045656Y015216D01*
X045655Y015216D01*
X045655Y015216D01*
X045239Y015216D01*
X045239Y015442D01*
X045254Y015498D01*
X045283Y015548D01*
X045324Y015589D01*
X045374Y015618D01*
X045430Y015633D01*
X045655Y015633D01*
X045655Y015216D01*
X045239Y015216D01*
X045239Y014998D01*
X045175Y014998D01*
X044948Y014998D01*
X044739Y014912D01*
X044649Y014822D01*
X044616Y014822D01*
X044359Y014716D01*
X044162Y014519D01*
X044055Y014261D01*
X044055Y013983D01*
X044162Y013726D01*
X044359Y013529D01*
X044616Y013422D01*
X044895Y013422D01*
X044608Y013425D02*
X039005Y013425D01*
X039005Y013187D02*
X046405Y013187D01*
X046285Y012948D02*
X039005Y012948D01*
X039005Y012710D02*
X046222Y012710D01*
X046996Y013664D02*
X045287Y013664D01*
X046024Y013902D02*
X050320Y013902D01*
X050320Y014141D02*
X046215Y014141D01*
X045239Y015095D02*
X039005Y015095D01*
X039005Y014857D02*
X044684Y014857D01*
X044261Y014618D02*
X039005Y014618D01*
X039005Y014380D02*
X044104Y014380D01*
X044055Y014141D02*
X039005Y014141D01*
X039005Y013902D02*
X044089Y013902D01*
X044224Y013664D02*
X039005Y013664D01*
X037865Y013664D02*
X037625Y013664D01*
X037625Y013902D02*
X037865Y013902D01*
X037865Y014141D02*
X037625Y014141D01*
X037625Y014380D02*
X037865Y014380D01*
X037865Y014618D02*
X037625Y014618D01*
X037625Y014857D02*
X037865Y014857D01*
X037865Y015095D02*
X037625Y015095D01*
X037625Y015334D02*
X037865Y015334D01*
X037865Y015572D02*
X037625Y015572D01*
X037832Y015682D02*
X037865Y015669D01*
X037865Y011056D01*
X037865Y010829D01*
X037952Y010619D01*
X039693Y008878D01*
X039693Y008763D01*
X037625Y008763D01*
X037625Y015836D01*
X037615Y015861D01*
X037697Y015861D01*
X037728Y015786D01*
X037832Y015682D01*
X037718Y015811D02*
X037625Y015811D01*
X037055Y015722D02*
X036665Y016112D01*
X036085Y016112D01*
X036485Y015592D02*
X035412Y015592D01*
X035351Y015617D01*
X034827Y015617D01*
X034767Y015642D01*
X033945Y015642D01*
X033945Y014622D01*
X034049Y014519D01*
X034155Y014261D01*
X034155Y013983D01*
X034049Y013726D01*
X033852Y013529D01*
X033595Y013422D01*
X033316Y013422D01*
X033059Y013529D01*
X032862Y013726D01*
X032755Y013983D01*
X032755Y014261D01*
X032862Y014519D01*
X032965Y014622D01*
X032965Y015592D01*
X032312Y015592D01*
X032176Y015649D01*
X032155Y015669D01*
X032007Y015521D01*
X031798Y015434D01*
X031572Y015434D01*
X031470Y015476D01*
X031470Y012706D01*
X031470Y012479D01*
X031384Y012269D01*
X027877Y008763D01*
X029751Y008763D01*
X029887Y008707D01*
X029991Y008603D01*
X030047Y008467D01*
X030047Y005919D01*
X029991Y005783D01*
X029900Y005692D01*
X036485Y005692D01*
X036485Y006792D01*
X036462Y006725D01*
X036403Y006602D01*
X036330Y006486D01*
X036244Y006379D01*
X036148Y006282D01*
X036040Y006196D01*
X035924Y006124D01*
X035801Y006064D01*
X035672Y006019D01*
X035538Y005988D01*
X035453Y005979D01*
X035453Y007073D01*
X035213Y007073D01*
X034119Y007073D01*
X034129Y006988D01*
X034159Y006855D01*
X034204Y006725D01*
X034264Y006602D01*
X034337Y006486D01*
X034422Y006379D01*
X034519Y006282D01*
X034626Y006196D01*
X034742Y006124D01*
X034866Y006064D01*
X034995Y006019D01*
X035129Y005988D01*
X035213Y005979D01*
X035213Y007073D01*
X035213Y007313D01*
X034119Y007313D01*
X034129Y007398D01*
X034159Y007531D01*
X034204Y007661D01*
X034264Y007784D01*
X034337Y007900D01*
X034422Y008007D01*
X034519Y008104D01*
X034626Y008190D01*
X034742Y008262D01*
X034866Y008322D01*
X034995Y008367D01*
X035129Y008398D01*
X035213Y008407D01*
X035213Y007313D01*
X035453Y007313D01*
X035453Y008407D01*
X035538Y008398D01*
X035672Y008367D01*
X035801Y008322D01*
X035924Y008262D01*
X036040Y008190D01*
X036148Y008104D01*
X036244Y008007D01*
X036330Y007900D01*
X036403Y007784D01*
X036462Y007661D01*
X036485Y007594D01*
X036485Y015592D01*
X036485Y015572D02*
X033945Y015572D01*
X033945Y015334D02*
X036485Y015334D01*
X036485Y015095D02*
X033945Y015095D01*
X033945Y014857D02*
X036485Y014857D01*
X036485Y014618D02*
X033949Y014618D01*
X034106Y014380D02*
X036485Y014380D01*
X036485Y014141D02*
X034155Y014141D01*
X034122Y013902D02*
X036485Y013902D01*
X036485Y013664D02*
X033987Y013664D01*
X033602Y013425D02*
X036485Y013425D01*
X036485Y013187D02*
X031470Y013187D01*
X031470Y013425D02*
X033308Y013425D01*
X032924Y013664D02*
X031470Y013664D01*
X031470Y013902D02*
X032789Y013902D01*
X032755Y014141D02*
X031470Y014141D01*
X031470Y014380D02*
X032804Y014380D01*
X032961Y014618D02*
X031470Y014618D01*
X031470Y014857D02*
X032965Y014857D01*
X032965Y015095D02*
X031470Y015095D01*
X031470Y015334D02*
X032965Y015334D01*
X032965Y015572D02*
X032059Y015572D01*
X032985Y016112D02*
X033455Y016112D01*
X033455Y014122D01*
X031470Y012948D02*
X036485Y012948D01*
X036485Y012710D02*
X031470Y012710D01*
X031467Y012471D02*
X036485Y012471D01*
X036485Y012233D02*
X031347Y012233D01*
X031108Y011994D02*
X036485Y011994D01*
X036485Y011756D02*
X030870Y011756D01*
X030631Y011517D02*
X036485Y011517D01*
X036485Y011279D02*
X030393Y011279D01*
X030154Y011040D02*
X036485Y011040D01*
X036485Y010801D02*
X029916Y010801D01*
X029677Y010563D02*
X036485Y010563D01*
X036485Y010324D02*
X029439Y010324D01*
X029200Y010086D02*
X036485Y010086D01*
X036485Y009847D02*
X028962Y009847D01*
X028723Y009609D02*
X036485Y009609D01*
X036485Y009370D02*
X028484Y009370D01*
X028246Y009132D02*
X036485Y009132D01*
X036485Y008893D02*
X028007Y008893D01*
X027111Y009609D02*
X026148Y009609D01*
X026148Y009847D02*
X027349Y009847D01*
X027588Y010086D02*
X026148Y010086D01*
X026148Y010324D02*
X027826Y010324D01*
X028065Y010563D02*
X026148Y010563D01*
X026054Y010801D02*
X028304Y010801D01*
X028542Y011040D02*
X020842Y011040D01*
X021245Y011279D02*
X028781Y011279D01*
X029019Y011517D02*
X021347Y011517D01*
X021345Y011756D02*
X029258Y011756D01*
X029496Y011994D02*
X021347Y011994D01*
X021325Y012233D02*
X029735Y012233D01*
X029973Y012471D02*
X021213Y012471D01*
X021533Y012710D02*
X030212Y012710D01*
X030330Y012948D02*
X021641Y012948D01*
X021655Y013187D02*
X030330Y013187D01*
X030330Y013425D02*
X021587Y013425D01*
X021525Y013664D02*
X030330Y013664D01*
X030330Y013902D02*
X021525Y013902D01*
X021525Y014141D02*
X030330Y014141D01*
X030330Y014380D02*
X021525Y014380D01*
X021525Y014618D02*
X030330Y014618D01*
X030330Y014857D02*
X021525Y014857D01*
X021525Y015095D02*
X030330Y015095D01*
X030330Y015334D02*
X021525Y015334D01*
X021525Y015572D02*
X030330Y015572D01*
X030330Y015811D02*
X021525Y015811D01*
X021525Y016049D02*
X030330Y016049D01*
X030192Y016288D02*
X021525Y016288D01*
X021525Y016526D02*
X030137Y016526D01*
X030137Y016765D02*
X021525Y016765D01*
X021525Y017004D02*
X030137Y017004D01*
X030154Y017242D02*
X027643Y017242D01*
X027640Y017241D02*
X027798Y017315D01*
X027949Y017401D01*
X028091Y017501D01*
X028224Y017613D01*
X028347Y017736D01*
X028459Y017869D01*
X028559Y018012D01*
X028646Y018162D01*
X028719Y018320D01*
X028779Y018483D01*
X028824Y018651D01*
X028854Y018823D01*
X028866Y018963D01*
X026998Y018963D01*
X026998Y019203D01*
X028866Y019203D01*
X028854Y019343D01*
X028824Y019514D01*
X028779Y019682D01*
X028719Y019846D01*
X028646Y020003D01*
X028559Y020154D01*
X028459Y020296D01*
X028347Y020430D01*
X028224Y020553D01*
X028091Y020664D01*
X027949Y020764D01*
X027798Y020851D01*
X027640Y020925D01*
X027477Y020984D01*
X027309Y021029D01*
X027138Y021059D01*
X026997Y021072D01*
X026997Y019203D01*
X026757Y019203D01*
X026757Y018963D01*
X024889Y018963D01*
X024901Y018823D01*
X024931Y018651D01*
X024976Y018483D01*
X025036Y018320D01*
X025109Y018162D01*
X025196Y018012D01*
X025296Y017869D01*
X025408Y017736D01*
X025531Y017613D01*
X025664Y017501D01*
X025806Y017401D01*
X025957Y017315D01*
X026115Y017241D01*
X026278Y017182D01*
X026446Y017137D01*
X026617Y017106D01*
X026757Y017094D01*
X026757Y018963D01*
X026997Y018963D01*
X026997Y017094D01*
X027138Y017106D01*
X027309Y017137D01*
X027477Y017182D01*
X027640Y017241D01*
X028062Y017481D02*
X030155Y017481D01*
X030137Y017719D02*
X028330Y017719D01*
X028521Y017958D02*
X030137Y017958D01*
X030137Y018196D02*
X028662Y018196D01*
X028761Y018435D02*
X030192Y018435D01*
X030450Y018673D02*
X028828Y018673D01*
X028862Y018912D02*
X030450Y018912D01*
X030450Y019150D02*
X026998Y019150D01*
X026997Y018912D02*
X026757Y018912D01*
X026757Y019150D02*
X021525Y019150D01*
X021525Y018912D02*
X024893Y018912D01*
X024927Y018673D02*
X021525Y018673D01*
X021525Y018435D02*
X024994Y018435D01*
X025093Y018196D02*
X021525Y018196D01*
X021525Y017958D02*
X025234Y017958D01*
X025424Y017719D02*
X021525Y017719D01*
X021525Y017481D02*
X025693Y017481D01*
X026112Y017242D02*
X021525Y017242D01*
X021525Y019389D02*
X022678Y019389D01*
X022677Y019391D02*
X022706Y019341D01*
X022747Y019300D01*
X022797Y019271D01*
X022853Y019256D01*
X023238Y019256D01*
X023238Y019753D01*
X022662Y019753D01*
X022662Y019447D01*
X022677Y019391D01*
X022662Y019628D02*
X022411Y019628D01*
X022549Y019866D02*
X022662Y019866D01*
X022662Y020105D02*
X022585Y020105D01*
X022594Y020343D02*
X022539Y020343D01*
X022512Y020582D02*
X022386Y020582D01*
X022512Y020820D02*
X022075Y020820D01*
X022075Y021059D02*
X022512Y021059D01*
X022518Y021297D02*
X022075Y021297D01*
X022075Y021536D02*
X022706Y021536D01*
X023225Y021774D02*
X022075Y021774D01*
X022075Y022013D02*
X023225Y022013D01*
X024125Y022013D02*
X024257Y022013D01*
X024125Y021774D02*
X024495Y021774D01*
X024734Y021536D02*
X024125Y021536D01*
X024125Y021297D02*
X024972Y021297D01*
X024125Y021059D02*
X026614Y021059D01*
X026617Y021059D02*
X026446Y021029D01*
X026278Y020984D01*
X026115Y020925D01*
X025957Y020851D01*
X025806Y020764D01*
X025664Y020664D01*
X025531Y020553D01*
X025408Y020430D01*
X025296Y020296D01*
X025196Y020154D01*
X025109Y020003D01*
X025036Y019846D01*
X024976Y019682D01*
X024931Y019514D01*
X024901Y019343D01*
X024889Y019203D01*
X026757Y019203D01*
X026757Y021072D01*
X026617Y021059D01*
X026757Y021059D02*
X026997Y021059D01*
X027141Y021059D02*
X029832Y021059D01*
X030071Y020820D02*
X027851Y020820D01*
X028190Y020582D02*
X030310Y020582D01*
X030450Y020343D02*
X028420Y020343D01*
X028587Y020105D02*
X030450Y020105D01*
X030450Y019866D02*
X028710Y019866D01*
X028793Y019628D02*
X030450Y019628D01*
X030450Y019389D02*
X028846Y019389D01*
X026997Y019389D02*
X026757Y019389D01*
X026757Y019628D02*
X026997Y019628D01*
X026997Y019866D02*
X026757Y019866D01*
X026757Y020105D02*
X026997Y020105D01*
X026997Y020343D02*
X026757Y020343D01*
X026757Y020582D02*
X026997Y020582D01*
X026997Y020820D02*
X026757Y020820D01*
X025904Y020820D02*
X024071Y020820D01*
X024039Y020582D02*
X025565Y020582D01*
X025335Y020343D02*
X023957Y020343D01*
X023889Y020105D02*
X025168Y020105D01*
X025045Y019866D02*
X023889Y019866D01*
X023889Y019628D02*
X024962Y019628D01*
X024909Y019389D02*
X023873Y019389D01*
X023313Y019389D02*
X023238Y019389D01*
X023238Y019628D02*
X023313Y019628D01*
X021885Y020092D02*
X021585Y020392D01*
X021585Y023522D01*
X021585Y024513D01*
X020955Y024022D02*
X020955Y023522D01*
X020955Y021422D01*
X020385Y021536D02*
X020385Y013542D01*
X020323Y013425D02*
X015965Y013425D01*
X015726Y013187D02*
X020255Y013187D01*
X020270Y012948D02*
X015488Y012948D01*
X015249Y012710D02*
X020378Y012710D01*
X020523Y012471D02*
X015011Y012471D01*
X014772Y012233D02*
X019835Y012233D01*
X019566Y011994D02*
X019511Y011994D01*
X020005Y011772D02*
X020005Y011272D01*
X020255Y011382D01*
X020255Y011882D01*
X020005Y011772D01*
X020605Y011972D02*
X020605Y011472D01*
X020855Y011582D01*
X020855Y012082D01*
X020605Y011972D01*
X018399Y011994D02*
X014533Y011994D01*
X014295Y011756D02*
X018072Y011756D01*
X017891Y011517D02*
X014062Y011517D01*
X014062Y011279D02*
X017763Y011279D01*
X017721Y011040D02*
X014062Y011040D01*
X014062Y010801D02*
X017704Y010801D01*
X017353Y010563D02*
X014062Y010563D01*
X014062Y010324D02*
X016855Y010324D01*
X016681Y010086D02*
X014062Y010086D01*
X014062Y009847D02*
X016655Y009847D01*
X016655Y009609D02*
X014062Y009609D01*
X014062Y009370D02*
X016655Y009370D01*
X016743Y009132D02*
X014062Y009132D01*
X014062Y008893D02*
X026395Y008893D01*
X026634Y009132D02*
X026044Y009132D01*
X026147Y009370D02*
X026872Y009370D01*
X029939Y008655D02*
X036485Y008655D01*
X036485Y008416D02*
X030047Y008416D01*
X030047Y008177D02*
X031085Y008177D01*
X031100Y008190D02*
X030993Y008104D01*
X030896Y008007D01*
X030811Y007900D01*
X030738Y007784D01*
X030679Y007661D01*
X030633Y007531D01*
X030603Y007398D01*
X030593Y007313D01*
X031687Y007313D01*
X031687Y007073D01*
X030593Y007073D01*
X030603Y006988D01*
X030633Y006855D01*
X030679Y006725D01*
X030738Y006602D01*
X030811Y006486D01*
X030896Y006379D01*
X030993Y006282D01*
X031100Y006196D01*
X031216Y006124D01*
X031340Y006064D01*
X031469Y006019D01*
X031603Y005988D01*
X031687Y005979D01*
X031687Y007073D01*
X031927Y007073D01*
X031927Y005979D01*
X032012Y005988D01*
X032146Y006019D01*
X032275Y006064D01*
X032399Y006124D01*
X032515Y006196D01*
X032622Y006282D01*
X032719Y006379D01*
X032804Y006486D01*
X032877Y006602D01*
X032936Y006725D01*
X032982Y006855D01*
X033012Y006988D01*
X033022Y007073D01*
X031928Y007073D01*
X031928Y007313D01*
X033022Y007313D01*
X033012Y007398D01*
X032982Y007531D01*
X032936Y007661D01*
X032877Y007784D01*
X032804Y007900D01*
X032719Y008007D01*
X032622Y008104D01*
X032515Y008190D01*
X032399Y008262D01*
X032275Y008322D01*
X032146Y008367D01*
X032012Y008398D01*
X031927Y008407D01*
X031927Y007313D01*
X031687Y007313D01*
X031687Y008407D01*
X031603Y008398D01*
X031469Y008367D01*
X031340Y008322D01*
X031216Y008262D01*
X031100Y008190D01*
X030842Y007939D02*
X030047Y007939D01*
X030047Y007700D02*
X030698Y007700D01*
X030617Y007462D02*
X030047Y007462D01*
X030047Y007223D02*
X031687Y007223D01*
X031687Y006985D02*
X031927Y006985D01*
X031928Y007223D02*
X035213Y007223D01*
X035213Y006985D02*
X035453Y006985D01*
X035453Y006746D02*
X035213Y006746D01*
X035213Y006508D02*
X035453Y006508D01*
X035453Y006269D02*
X035213Y006269D01*
X035213Y006031D02*
X035453Y006031D01*
X035705Y006031D02*
X036485Y006031D01*
X036485Y006269D02*
X036131Y006269D01*
X036343Y006508D02*
X036485Y006508D01*
X036469Y006746D02*
X036485Y006746D01*
X036443Y007700D02*
X036485Y007700D01*
X036485Y007939D02*
X036299Y007939D01*
X036485Y008177D02*
X036056Y008177D01*
X035453Y008177D02*
X035213Y008177D01*
X035213Y007939D02*
X035453Y007939D01*
X035453Y007700D02*
X035213Y007700D01*
X035213Y007462D02*
X035453Y007462D01*
X034611Y008177D02*
X032530Y008177D01*
X032773Y007939D02*
X034368Y007939D01*
X034224Y007700D02*
X032917Y007700D01*
X032997Y007462D02*
X034143Y007462D01*
X034129Y006985D02*
X033011Y006985D01*
X032944Y006746D02*
X034197Y006746D01*
X034323Y006508D02*
X032818Y006508D01*
X032606Y006269D02*
X034535Y006269D01*
X034962Y006031D02*
X032179Y006031D01*
X031927Y006031D02*
X031687Y006031D01*
X031687Y006269D02*
X031927Y006269D01*
X031927Y006508D02*
X031687Y006508D01*
X031687Y006746D02*
X031927Y006746D01*
X031927Y007462D02*
X031687Y007462D01*
X031687Y007700D02*
X031927Y007700D01*
X031927Y007939D02*
X031687Y007939D01*
X031687Y008177D02*
X031927Y008177D01*
X030604Y006985D02*
X030047Y006985D01*
X030047Y006746D02*
X030671Y006746D01*
X030797Y006508D02*
X030047Y006508D01*
X030047Y006269D02*
X031009Y006269D01*
X031436Y006031D02*
X030047Y006031D01*
X029995Y005792D02*
X036485Y005792D01*
X037625Y008893D02*
X039678Y008893D01*
X039440Y009132D02*
X037625Y009132D01*
X037625Y009370D02*
X039201Y009370D01*
X038963Y009609D02*
X037625Y009609D01*
X037625Y009847D02*
X038724Y009847D01*
X038486Y010086D02*
X037625Y010086D01*
X037625Y010324D02*
X038247Y010324D01*
X038009Y010563D02*
X037625Y010563D01*
X037625Y010801D02*
X037877Y010801D01*
X037865Y011040D02*
X037625Y011040D01*
X037625Y011279D02*
X037865Y011279D01*
X037865Y011517D02*
X037625Y011517D01*
X037625Y011756D02*
X037865Y011756D01*
X037865Y011994D02*
X037625Y011994D01*
X037625Y012233D02*
X037865Y012233D01*
X037865Y012471D02*
X037625Y012471D01*
X037625Y012710D02*
X037865Y012710D01*
X037865Y012948D02*
X037625Y012948D01*
X037625Y013187D02*
X037865Y013187D01*
X037865Y013425D02*
X037625Y013425D01*
X039005Y015334D02*
X045239Y015334D01*
X045307Y015572D02*
X039005Y015572D01*
X039153Y015811D02*
X044255Y015811D01*
X044162Y015904D02*
X044359Y015707D01*
X044616Y015600D01*
X044895Y015600D01*
X045152Y015707D01*
X045349Y015904D01*
X045455Y016161D01*
X045455Y016440D01*
X045349Y016697D01*
X045152Y016894D01*
X044895Y017000D01*
X044616Y017000D01*
X044359Y016894D01*
X044162Y016697D01*
X044055Y016440D01*
X044055Y016161D01*
X044162Y015904D01*
X044102Y016049D02*
X039199Y016049D01*
X039199Y016288D02*
X044055Y016288D01*
X044091Y016526D02*
X039199Y016526D01*
X039172Y016765D02*
X044230Y016765D01*
X045281Y016765D02*
X045859Y016765D01*
X045859Y016526D02*
X045419Y016526D01*
X045455Y016288D02*
X045859Y016288D01*
X045859Y016049D02*
X045409Y016049D01*
X045256Y015811D02*
X045859Y015811D01*
X045656Y015572D02*
X045655Y015572D01*
X045655Y015334D02*
X045656Y015334D01*
X045859Y017004D02*
X039190Y017004D01*
X039199Y017242D02*
X045859Y017242D01*
X045859Y017481D02*
X039199Y017481D01*
X039199Y017719D02*
X045859Y017719D01*
X045859Y017958D02*
X039123Y017958D01*
X038885Y018196D02*
X044324Y018196D01*
X044177Y018435D02*
X038885Y018435D01*
X038885Y018673D02*
X044149Y018673D01*
X044219Y018912D02*
X038802Y018912D01*
X038564Y019150D02*
X044370Y019150D01*
X044196Y019389D02*
X038325Y019389D01*
X038086Y019628D02*
X044149Y019628D01*
X044200Y019866D02*
X037848Y019866D01*
X037609Y020105D02*
X044381Y020105D01*
X044215Y020343D02*
X037371Y020343D01*
X037132Y020582D02*
X044149Y020582D01*
X044181Y020820D02*
X036894Y020820D01*
X036655Y021059D02*
X044335Y021059D01*
X044234Y021297D02*
X036417Y021297D01*
X036178Y021536D02*
X044149Y021536D01*
X044162Y021774D02*
X038394Y021774D01*
X038633Y022013D02*
X044289Y022013D01*
X045859Y022251D02*
X038871Y022251D01*
X039110Y022490D02*
X045859Y022490D01*
X045859Y022729D02*
X039348Y022729D01*
X039587Y022967D02*
X045859Y022967D01*
X045859Y023206D02*
X039825Y023206D01*
X040064Y023444D02*
X045859Y023444D01*
X045903Y023683D02*
X040302Y023683D01*
X040541Y023921D02*
X048705Y023921D01*
X048705Y024160D02*
X040788Y024160D01*
X040973Y024398D02*
X048705Y024398D01*
X048705Y024637D02*
X048121Y024637D01*
X048136Y024646D02*
X048243Y024732D01*
X048340Y024829D01*
X048425Y024936D01*
X048498Y025052D01*
X048558Y025175D01*
X048603Y025305D01*
X048633Y025438D01*
X048643Y025523D01*
X047549Y025523D01*
X047549Y025763D01*
X047309Y025763D01*
X047309Y026857D01*
X047224Y026847D01*
X047090Y026817D01*
X046961Y026772D01*
X046838Y026712D01*
X046722Y026639D01*
X046614Y026554D01*
X046518Y026457D01*
X046432Y026350D01*
X046359Y026234D01*
X046300Y026110D01*
X046254Y025981D01*
X046224Y025848D01*
X046214Y025763D01*
X047308Y025763D01*
X047308Y025523D01*
X046214Y025523D01*
X046224Y025438D01*
X046254Y025305D01*
X046300Y025175D01*
X046359Y025052D01*
X046432Y024936D01*
X046518Y024829D01*
X046614Y024732D01*
X046722Y024646D01*
X046838Y024573D01*
X046961Y024514D01*
X047090Y024469D01*
X047224Y024438D01*
X047309Y024429D01*
X047309Y025523D01*
X047549Y025523D01*
X047549Y024429D01*
X047633Y024438D01*
X047767Y024469D01*
X047896Y024514D01*
X048020Y024573D01*
X048136Y024646D01*
X048377Y024875D02*
X048705Y024875D01*
X048705Y025114D02*
X048528Y025114D01*
X048614Y025353D02*
X048705Y025353D01*
X048705Y025591D02*
X047549Y025591D01*
X047549Y025353D02*
X047309Y025353D01*
X047308Y025591D02*
X040979Y025591D01*
X040979Y025830D02*
X046222Y025830D01*
X046285Y026068D02*
X040979Y026068D01*
X040973Y026307D02*
X046405Y026307D01*
X046606Y026545D02*
X044947Y026545D01*
X044564Y026545D02*
X040787Y026545D01*
X040782Y026784D02*
X044239Y026784D01*
X044149Y027022D02*
X040661Y027022D01*
X040423Y027261D02*
X043957Y027261D01*
X043745Y027499D02*
X040184Y027499D01*
X039946Y027738D02*
X043687Y027738D01*
X043733Y027977D02*
X039707Y027977D01*
X039469Y028215D02*
X043915Y028215D01*
X044237Y028454D02*
X039230Y028454D01*
X039829Y028692D02*
X044547Y028692D01*
X044964Y028692D02*
X050320Y028692D01*
X050320Y028454D02*
X045274Y028454D01*
X045362Y028215D02*
X050320Y028215D01*
X050320Y027977D02*
X048637Y027977D01*
X048607Y028007D02*
X048607Y028007D01*
X048876Y027738D02*
X050320Y027738D01*
X050320Y027499D02*
X049115Y027499D01*
X049353Y027261D02*
X050320Y027261D01*
X050320Y027022D02*
X049592Y027022D01*
X049830Y026784D02*
X050320Y026784D01*
X050320Y026545D02*
X049991Y026545D01*
X050005Y026307D02*
X050320Y026307D01*
X050320Y026068D02*
X050005Y026068D01*
X050005Y025830D02*
X050320Y025830D01*
X050320Y025591D02*
X050005Y025591D01*
X050005Y025353D02*
X050320Y025353D01*
X050320Y025114D02*
X050005Y025114D01*
X050005Y024875D02*
X050320Y024875D01*
X050320Y024637D02*
X050005Y024637D01*
X050005Y024398D02*
X050320Y024398D01*
X050320Y024160D02*
X050005Y024160D01*
X050005Y023921D02*
X050320Y023921D01*
X050320Y023683D02*
X050005Y023683D01*
X050005Y023444D02*
X050320Y023444D01*
X050320Y023206D02*
X050005Y023206D01*
X050005Y022967D02*
X050320Y022967D01*
X050320Y022729D02*
X050005Y022729D01*
X050005Y022490D02*
X050320Y022490D01*
X050320Y022251D02*
X050005Y022251D01*
X050005Y022013D02*
X050320Y022013D01*
X050320Y021774D02*
X050005Y021774D01*
X050005Y021536D02*
X050320Y021536D01*
X050320Y021297D02*
X050005Y021297D01*
X050005Y021059D02*
X050320Y021059D01*
X050320Y020820D02*
X050000Y020820D01*
X049851Y020582D02*
X050320Y020582D01*
X050320Y020343D02*
X049613Y020343D01*
X049374Y020105D02*
X050320Y020105D01*
X050320Y019866D02*
X049136Y019866D01*
X048999Y019628D02*
X050320Y019628D01*
X050320Y019389D02*
X048999Y019389D01*
X048999Y019150D02*
X050320Y019150D01*
X050320Y018912D02*
X048999Y018912D01*
X048999Y018673D02*
X050320Y018673D01*
X050320Y018435D02*
X048999Y018435D01*
X048999Y018196D02*
X050320Y018196D01*
X050320Y017958D02*
X048999Y017958D01*
X048999Y017719D02*
X050320Y017719D01*
X050320Y017481D02*
X048999Y017481D01*
X048999Y017242D02*
X050320Y017242D01*
X050320Y017004D02*
X048999Y017004D01*
X048999Y016765D02*
X050320Y016765D01*
X050320Y016526D02*
X048999Y016526D01*
X048999Y016288D02*
X050320Y016288D01*
X050320Y016049D02*
X048999Y016049D01*
X048999Y015811D02*
X050320Y015811D01*
X050320Y015572D02*
X048999Y015572D01*
X048999Y015334D02*
X050320Y015334D01*
X050320Y015095D02*
X048999Y015095D01*
X048999Y014857D02*
X050320Y014857D01*
X050320Y014618D02*
X048999Y014618D01*
X048869Y014380D02*
X050320Y014380D01*
X047549Y011994D02*
X047309Y011994D01*
X047309Y011756D02*
X047549Y011756D01*
X047549Y011517D02*
X047309Y011517D01*
X037425Y017812D02*
X037425Y018300D01*
X037441Y019000D02*
X037286Y019000D01*
X037029Y018894D01*
X036832Y018697D01*
X036725Y018440D01*
X036725Y018161D01*
X036737Y018132D01*
X035412Y018132D01*
X035276Y018076D01*
X035275Y018075D01*
X035259Y018082D01*
X033812Y018082D01*
X033795Y018075D01*
X033795Y018076D01*
X033659Y018132D01*
X032312Y018132D01*
X032176Y018076D01*
X032162Y018062D01*
X031972Y018062D01*
X031739Y018295D01*
X031652Y018331D01*
X031608Y018438D01*
X031504Y018542D01*
X031368Y018598D01*
X031350Y018598D01*
X031350Y020717D01*
X031282Y020882D01*
X031155Y021009D01*
X030772Y021392D01*
X035049Y021392D01*
X037441Y019000D01*
X037291Y019150D02*
X031350Y019150D01*
X031350Y018912D02*
X037073Y018912D01*
X036822Y018673D02*
X031350Y018673D01*
X031609Y018435D02*
X036725Y018435D01*
X036725Y018196D02*
X031838Y018196D01*
X031350Y019389D02*
X037052Y019389D01*
X036814Y019628D02*
X031350Y019628D01*
X031350Y019866D02*
X036575Y019866D01*
X036337Y020105D02*
X031350Y020105D01*
X031350Y020343D02*
X036098Y020343D01*
X035860Y020582D02*
X031350Y020582D01*
X031308Y020820D02*
X035621Y020820D01*
X035382Y021059D02*
X031105Y021059D01*
X030867Y021297D02*
X035144Y021297D01*
X033770Y022552D02*
X037899Y022552D01*
X039566Y024219D01*
X039508Y024276D01*
X039477Y024351D01*
X039227Y024351D01*
X039062Y024420D01*
X038935Y024546D01*
X038829Y024652D01*
X038569Y024652D01*
X038555Y024639D01*
X038419Y024582D01*
X037072Y024582D01*
X036936Y024639D01*
X036935Y024639D01*
X036919Y024632D01*
X035472Y024632D01*
X035455Y024639D01*
X035455Y024639D01*
X035319Y024582D01*
X033972Y024582D01*
X033911Y024607D01*
X033700Y024607D01*
X033605Y024512D01*
X033605Y023300D01*
X033709Y023197D01*
X033815Y022940D01*
X033815Y022661D01*
X033770Y022552D01*
X033815Y022729D02*
X038075Y022729D01*
X038314Y022967D02*
X033804Y022967D01*
X033700Y023206D02*
X038553Y023206D01*
X038791Y023444D02*
X033605Y023444D01*
X033605Y023683D02*
X039030Y023683D01*
X039268Y023921D02*
X033605Y023921D01*
X033605Y024160D02*
X039507Y024160D01*
X039113Y024398D02*
X033605Y024398D01*
X033115Y024722D02*
X033115Y022800D01*
X032461Y022552D02*
X031522Y022552D01*
X031927Y022957D01*
X031995Y023123D01*
X031995Y023302D01*
X031995Y024616D01*
X032013Y024616D01*
X032149Y024672D01*
X032253Y024776D01*
X032284Y024851D01*
X032633Y024851D01*
X032620Y024821D01*
X032620Y024624D01*
X032625Y024612D01*
X032625Y023300D01*
X032522Y023197D01*
X032415Y022940D01*
X032415Y022661D01*
X032461Y022552D01*
X032415Y022729D02*
X031698Y022729D01*
X031931Y022967D02*
X032427Y022967D01*
X032531Y023206D02*
X031995Y023206D01*
X031995Y023444D02*
X032625Y023444D01*
X032625Y023683D02*
X031995Y023683D01*
X031995Y023921D02*
X032625Y023921D01*
X032625Y024160D02*
X031995Y024160D01*
X031995Y024398D02*
X032625Y024398D01*
X032620Y024637D02*
X032063Y024637D01*
X031095Y024616D02*
X031095Y023399D01*
X030899Y023202D01*
X026021Y023202D01*
X026024Y023209D01*
X026024Y023435D01*
X025984Y023531D01*
X026049Y023558D01*
X026055Y023564D01*
X026128Y023564D01*
X026337Y023651D01*
X026497Y023810D01*
X026565Y023974D01*
X026778Y023974D01*
X026987Y024061D01*
X027147Y024220D01*
X027234Y024429D01*
X027234Y024655D01*
X027147Y024864D01*
X026987Y025024D01*
X026778Y025110D01*
X026658Y025110D01*
X026699Y025209D01*
X026699Y025435D01*
X026612Y025644D01*
X026452Y025804D01*
X026243Y025890D01*
X026017Y025890D01*
X025809Y025804D01*
X025649Y025644D01*
X025562Y025435D01*
X025562Y025362D01*
X025452Y025252D01*
X025447Y025264D01*
X025287Y025424D01*
X025252Y025438D01*
X025299Y025458D01*
X025594Y025753D01*
X025692Y025851D01*
X025818Y025851D01*
X025954Y025907D01*
X026058Y026011D01*
X026114Y026147D01*
X026114Y026925D01*
X026058Y027061D01*
X025954Y027165D01*
X025913Y027181D01*
X025920Y027188D01*
X025949Y027238D01*
X025964Y027294D01*
X025964Y027601D01*
X025388Y027601D01*
X025388Y027676D01*
X025964Y027676D01*
X025964Y027902D01*
X028344Y027902D01*
X030166Y026080D01*
X030326Y025920D01*
X030536Y025833D01*
X030846Y025833D01*
X030838Y025826D01*
X030782Y025690D01*
X030782Y024912D01*
X030838Y024776D01*
X030942Y024672D01*
X031078Y024616D01*
X031095Y024616D01*
X031028Y024637D02*
X027234Y024637D01*
X027221Y024398D02*
X031095Y024398D01*
X031095Y024160D02*
X027086Y024160D01*
X026543Y023921D02*
X031095Y023921D01*
X031095Y023683D02*
X026369Y023683D01*
X026020Y023444D02*
X031095Y023444D01*
X030903Y023206D02*
X026022Y023206D01*
X027136Y024875D02*
X030797Y024875D01*
X030782Y025114D02*
X026659Y025114D01*
X026699Y025353D02*
X030782Y025353D01*
X030782Y025591D02*
X026634Y025591D01*
X026390Y025830D02*
X030842Y025830D01*
X030178Y026068D02*
X026081Y026068D01*
X026114Y026307D02*
X029940Y026307D01*
X029701Y026545D02*
X026114Y026545D01*
X026114Y026784D02*
X029463Y026784D01*
X029224Y027022D02*
X026074Y027022D01*
X025955Y027261D02*
X028986Y027261D01*
X028747Y027499D02*
X025964Y027499D01*
X025964Y027738D02*
X028509Y027738D01*
X029405Y028454D02*
X029918Y028454D01*
X029679Y028692D02*
X029167Y028692D01*
X028928Y028931D02*
X029441Y028931D01*
X029372Y028999D02*
X030503Y027869D01*
X030712Y027782D01*
X030939Y027782D01*
X031926Y027782D01*
X031949Y027759D01*
X032206Y027652D01*
X032239Y027652D01*
X032875Y027016D01*
X032875Y026933D01*
X032870Y026921D01*
X032870Y026853D01*
X032284Y026853D01*
X032253Y026928D01*
X032149Y027032D01*
X032013Y027088D01*
X031078Y027088D01*
X030942Y027032D01*
X030884Y026974D01*
X028903Y028955D01*
X028694Y029042D01*
X028467Y029042D01*
X022564Y029042D01*
X022672Y029110D01*
X022779Y029195D01*
X022876Y029292D01*
X022961Y029399D01*
X023034Y029515D01*
X023094Y029639D01*
X023139Y029768D01*
X023170Y029902D01*
X023179Y029986D01*
X022085Y029986D01*
X022085Y030226D01*
X023179Y030226D01*
X023170Y030311D01*
X023139Y030445D01*
X023094Y030574D01*
X023034Y030698D01*
X022961Y030814D01*
X022876Y030921D01*
X022779Y031018D01*
X022672Y031103D01*
X022556Y031176D01*
X022433Y031235D01*
X022303Y031281D01*
X022170Y031311D01*
X022085Y031321D01*
X022085Y030227D01*
X021845Y030227D01*
X021845Y031321D01*
X021760Y031311D01*
X021627Y031281D01*
X021497Y031235D01*
X021374Y031176D01*
X021258Y031103D01*
X021151Y031018D01*
X021054Y030921D01*
X020968Y030814D01*
X020896Y030698D01*
X020836Y030574D01*
X020791Y030445D01*
X020760Y030311D01*
X020751Y030226D01*
X021845Y030226D01*
X021845Y029986D01*
X020751Y029986D01*
X020760Y029902D01*
X020791Y029768D01*
X020836Y029639D01*
X020896Y029515D01*
X020968Y029399D01*
X021054Y029292D01*
X021151Y029195D01*
X021258Y029110D01*
X021366Y029042D01*
X020205Y029042D01*
X020205Y031380D01*
X020149Y031516D01*
X020112Y031552D01*
X029285Y031552D01*
X029285Y029436D01*
X029285Y029209D01*
X029372Y028999D01*
X029302Y029169D02*
X022746Y029169D01*
X022967Y029408D02*
X029285Y029408D01*
X029285Y029646D02*
X023096Y029646D01*
X023166Y029885D02*
X029285Y029885D01*
X029285Y030123D02*
X022085Y030123D01*
X022085Y030362D02*
X021845Y030362D01*
X021845Y030601D02*
X022085Y030601D01*
X022085Y030839D02*
X021845Y030839D01*
X021845Y031078D02*
X022085Y031078D01*
X022085Y031316D02*
X021845Y031316D01*
X021805Y031316D02*
X020205Y031316D01*
X020205Y031078D02*
X021226Y031078D01*
X020989Y030839D02*
X020205Y030839D01*
X020205Y030601D02*
X020849Y030601D01*
X020772Y030362D02*
X020205Y030362D01*
X020205Y030123D02*
X021845Y030123D01*
X020764Y029885D02*
X020205Y029885D01*
X020205Y029646D02*
X020833Y029646D01*
X020963Y029408D02*
X020205Y029408D01*
X020205Y029169D02*
X021183Y029169D01*
X021652Y027902D02*
X021652Y027902D01*
X022359Y027902D02*
X023312Y027902D01*
X023312Y027651D01*
X023888Y027651D01*
X023888Y027576D01*
X023312Y027576D01*
X023312Y027269D01*
X023327Y027213D01*
X023356Y027163D01*
X023363Y027156D01*
X023322Y027140D01*
X023218Y027036D01*
X023162Y026900D01*
X023162Y026122D01*
X023218Y025986D01*
X023315Y025890D01*
X023217Y025792D01*
X021305Y025792D01*
X021305Y026276D01*
X021424Y026394D01*
X021468Y026394D01*
X021677Y026481D01*
X021837Y026640D01*
X021924Y026849D01*
X021924Y026884D01*
X022118Y026884D01*
X022327Y026971D01*
X022487Y027130D01*
X022574Y027339D01*
X022574Y027565D01*
X022487Y027774D01*
X022359Y027902D01*
X022502Y027738D02*
X023312Y027738D01*
X023312Y027499D02*
X022574Y027499D01*
X022541Y027261D02*
X023314Y027261D01*
X023213Y027022D02*
X022379Y027022D01*
X021896Y026784D02*
X023162Y026784D01*
X023162Y026545D02*
X021742Y026545D01*
X021336Y026307D02*
X023162Y026307D01*
X023184Y026068D02*
X021305Y026068D01*
X021305Y025830D02*
X023255Y025830D01*
X024488Y027156D02*
X024495Y027163D01*
X024524Y027213D01*
X024539Y027269D01*
X024539Y027576D01*
X023963Y027576D01*
X023963Y027651D01*
X024539Y027651D01*
X024539Y027902D01*
X024737Y027902D01*
X024737Y027676D01*
X025313Y027676D01*
X025313Y027601D01*
X024737Y027601D01*
X024737Y027294D01*
X024752Y027238D01*
X024781Y027188D01*
X024788Y027181D01*
X024747Y027165D01*
X024643Y027061D01*
X024633Y027036D01*
X024529Y027140D01*
X024488Y027156D01*
X024537Y027261D02*
X024746Y027261D01*
X024737Y027499D02*
X024539Y027499D01*
X024539Y027738D02*
X024737Y027738D01*
X025671Y025830D02*
X025871Y025830D01*
X025627Y025591D02*
X025432Y025591D01*
X025358Y025353D02*
X025553Y025353D01*
X029644Y028215D02*
X030156Y028215D01*
X030395Y027977D02*
X029882Y027977D01*
X030121Y027738D02*
X031999Y027738D01*
X032392Y027499D02*
X030359Y027499D01*
X030598Y027261D02*
X032631Y027261D01*
X032869Y027022D02*
X032158Y027022D01*
X030933Y027022D02*
X030836Y027022D01*
X033045Y028458D02*
X033045Y028491D01*
X032939Y028749D01*
X032742Y028946D01*
X032485Y029052D01*
X032405Y029052D01*
X032497Y029110D01*
X032604Y029195D01*
X032701Y029292D01*
X032787Y029399D01*
X032859Y029515D01*
X032919Y029639D01*
X032964Y029768D01*
X032995Y029902D01*
X033004Y029986D01*
X031910Y029986D01*
X031910Y030226D01*
X033004Y030226D01*
X032995Y030311D01*
X032964Y030445D01*
X032919Y030574D01*
X032859Y030698D01*
X032787Y030814D01*
X032701Y030921D01*
X032604Y031018D01*
X032497Y031103D01*
X032381Y031176D01*
X032258Y031235D01*
X032128Y031281D01*
X031995Y031311D01*
X031910Y031321D01*
X031910Y030227D01*
X031670Y030227D01*
X031670Y031321D01*
X031585Y031311D01*
X031452Y031281D01*
X031322Y031235D01*
X031199Y031176D01*
X031083Y031103D01*
X030976Y031018D01*
X030879Y030921D01*
X030793Y030814D01*
X030721Y030698D01*
X030661Y030574D01*
X030616Y030445D01*
X030585Y030311D01*
X030576Y030226D01*
X031670Y030226D01*
X031670Y029986D01*
X030576Y029986D01*
X030585Y029902D01*
X030616Y029768D01*
X030661Y029639D01*
X030721Y029515D01*
X030793Y029399D01*
X030879Y029292D01*
X030976Y029195D01*
X031083Y029110D01*
X031199Y029037D01*
X031322Y028978D01*
X031452Y028932D01*
X031496Y028922D01*
X031062Y028922D01*
X030425Y029558D01*
X030425Y031552D01*
X033643Y031552D01*
X033606Y031516D01*
X033550Y031380D01*
X033550Y028833D01*
X033606Y028697D01*
X033710Y028593D01*
X033846Y028536D01*
X037535Y028536D01*
X039576Y026496D01*
X039508Y026428D01*
X039494Y026393D01*
X039494Y026435D01*
X039407Y026644D01*
X039247Y026804D01*
X039059Y026882D01*
X038923Y027018D01*
X038743Y027092D01*
X038548Y027092D01*
X038491Y027092D01*
X038419Y027122D01*
X037072Y027122D01*
X036936Y027066D01*
X036935Y027065D01*
X036919Y027072D01*
X036154Y027072D01*
X036094Y027097D01*
X035897Y027097D01*
X035379Y027097D01*
X035319Y027122D01*
X033972Y027122D01*
X033911Y027097D01*
X033885Y027097D01*
X033935Y027219D01*
X033935Y027446D01*
X033849Y027655D01*
X033045Y028458D01*
X033050Y028454D02*
X037618Y028454D01*
X037856Y028215D02*
X033289Y028215D01*
X033527Y027977D02*
X038095Y027977D01*
X038334Y027738D02*
X033766Y027738D01*
X033913Y027499D02*
X038572Y027499D01*
X038811Y027261D02*
X033935Y027261D01*
X033365Y027332D02*
X033365Y026822D01*
X033611Y028692D02*
X032962Y028692D01*
X032757Y028931D02*
X033550Y028931D01*
X033550Y029169D02*
X032571Y029169D01*
X032792Y029408D02*
X033550Y029408D01*
X033550Y029646D02*
X032921Y029646D01*
X032991Y029885D02*
X033550Y029885D01*
X033550Y030123D02*
X031910Y030123D01*
X031910Y030362D02*
X031670Y030362D01*
X031670Y030601D02*
X031910Y030601D01*
X031910Y030839D02*
X031670Y030839D01*
X031670Y031078D02*
X031910Y031078D01*
X031910Y031316D02*
X031670Y031316D01*
X031630Y031316D02*
X030425Y031316D01*
X030425Y031078D02*
X031051Y031078D01*
X030814Y030839D02*
X030425Y030839D01*
X030425Y030601D02*
X030674Y030601D01*
X030597Y030362D02*
X030425Y030362D01*
X030425Y030123D02*
X031670Y030123D01*
X030589Y029885D02*
X030425Y029885D01*
X030425Y029646D02*
X030658Y029646D01*
X030576Y029408D02*
X030788Y029408D01*
X030814Y029169D02*
X031008Y029169D01*
X031053Y028931D02*
X031459Y028931D01*
X032983Y030362D02*
X033550Y030362D01*
X033550Y030601D02*
X032906Y030601D01*
X032766Y030839D02*
X033550Y030839D01*
X033550Y031078D02*
X032529Y031078D01*
X031950Y031316D02*
X033550Y031316D01*
X036075Y032509D02*
X046585Y032509D01*
X046549Y032270D02*
X036313Y032270D01*
X036552Y032032D02*
X048411Y032032D01*
X048411Y031793D02*
X048651Y031793D01*
X048651Y031555D02*
X048411Y031555D01*
X048411Y031316D02*
X048651Y031316D01*
X048651Y031078D02*
X048411Y031078D01*
X048411Y030839D02*
X048651Y030839D01*
X048651Y030601D02*
X048411Y030601D01*
X048411Y030362D02*
X048651Y030362D01*
X048651Y030123D02*
X048411Y030123D01*
X048129Y030123D02*
X041770Y030123D01*
X041770Y030226D02*
X041770Y029986D01*
X041770Y028892D01*
X041855Y028902D01*
X041988Y028932D01*
X042118Y028978D01*
X042241Y029037D01*
X042357Y029110D01*
X042464Y029195D01*
X042561Y029292D01*
X042647Y029399D01*
X042719Y029515D01*
X042779Y029639D01*
X042824Y029768D01*
X042855Y029902D01*
X042864Y029986D01*
X041770Y029986D01*
X041530Y029986D01*
X041530Y028892D01*
X041445Y028902D01*
X041312Y028932D01*
X041182Y028978D01*
X041059Y029037D01*
X040943Y029110D01*
X040836Y029195D01*
X040739Y029292D01*
X040653Y029399D01*
X040581Y029515D01*
X040521Y029639D01*
X040476Y029768D01*
X040445Y029902D01*
X040436Y029986D01*
X041530Y029986D01*
X041530Y030226D01*
X040436Y030226D01*
X040445Y030311D01*
X040476Y030445D01*
X040521Y030574D01*
X040581Y030698D01*
X040653Y030814D01*
X040739Y030921D01*
X040836Y031018D01*
X040943Y031103D01*
X041059Y031176D01*
X041182Y031235D01*
X041312Y031281D01*
X041445Y031311D01*
X041530Y031321D01*
X041530Y030227D01*
X041770Y030227D01*
X041770Y031321D01*
X041855Y031311D01*
X041988Y031281D01*
X042118Y031235D01*
X042241Y031176D01*
X042357Y031103D01*
X042464Y031018D01*
X042561Y030921D01*
X042647Y030814D01*
X042719Y030698D01*
X042779Y030574D01*
X042824Y030445D01*
X042855Y030311D01*
X042864Y030226D01*
X041770Y030226D01*
X041770Y030362D02*
X041530Y030362D01*
X041530Y030601D02*
X041770Y030601D01*
X041770Y030839D02*
X041530Y030839D01*
X041530Y031078D02*
X041770Y031078D01*
X041770Y031316D02*
X041530Y031316D01*
X041490Y031316D02*
X039890Y031316D01*
X039890Y031078D02*
X040911Y031078D01*
X040674Y030839D02*
X039890Y030839D01*
X039890Y030601D02*
X040534Y030601D01*
X040457Y030362D02*
X039890Y030362D01*
X039890Y030123D02*
X041530Y030123D01*
X041530Y029885D02*
X041770Y029885D01*
X041770Y029646D02*
X041530Y029646D01*
X041530Y029408D02*
X041770Y029408D01*
X041770Y029169D02*
X041530Y029169D01*
X041530Y028931D02*
X041770Y028931D01*
X041981Y028931D02*
X050320Y028931D01*
X050320Y029169D02*
X042431Y029169D01*
X042652Y029408D02*
X050320Y029408D01*
X050320Y029646D02*
X042781Y029646D01*
X042851Y029885D02*
X050320Y029885D01*
X050320Y030123D02*
X048933Y030123D01*
X049547Y030362D02*
X050320Y030362D01*
X050320Y030601D02*
X049872Y030601D01*
X050094Y030839D02*
X050320Y030839D01*
X050320Y031078D02*
X050255Y031078D01*
X047515Y030362D02*
X042843Y030362D01*
X042766Y030601D02*
X047190Y030601D01*
X046968Y030839D02*
X042626Y030839D01*
X042389Y031078D02*
X046807Y031078D01*
X046688Y031316D02*
X041810Y031316D01*
X040449Y029885D02*
X039890Y029885D01*
X039890Y029646D02*
X040518Y029646D01*
X040648Y029408D02*
X039890Y029408D01*
X039890Y029169D02*
X040868Y029169D01*
X041319Y028931D02*
X039890Y028931D01*
X039049Y027022D02*
X038911Y027022D01*
X039267Y026784D02*
X039288Y026784D01*
X039448Y026545D02*
X039526Y026545D01*
X038925Y026322D02*
X038645Y026602D01*
X037745Y026602D01*
X036940Y024637D02*
X036930Y024637D01*
X035460Y024637D02*
X035451Y024637D01*
X038551Y024637D02*
X038844Y024637D01*
X040896Y025353D02*
X046244Y025353D01*
X046329Y025114D02*
X040979Y025114D01*
X040979Y024875D02*
X046480Y024875D01*
X046736Y024637D02*
X040979Y024637D01*
X045271Y026784D02*
X046996Y026784D01*
X047309Y026784D02*
X047549Y026784D01*
X047549Y026545D02*
X047309Y026545D01*
X047309Y026307D02*
X047549Y026307D01*
X047549Y026068D02*
X047309Y026068D01*
X047309Y025830D02*
X047549Y025830D01*
X048572Y026068D02*
X048673Y026068D01*
X048705Y025830D02*
X048635Y025830D01*
X047957Y026784D02*
X047862Y026784D01*
X047549Y025114D02*
X047309Y025114D01*
X047309Y024875D02*
X047549Y024875D01*
X047549Y024637D02*
X047309Y024637D01*
X046609Y031555D02*
X039795Y031555D01*
X036716Y031793D02*
X046558Y031793D01*
X046656Y032747D02*
X007099Y032747D01*
X007170Y032509D02*
X017636Y032509D01*
X017397Y032270D02*
X007206Y032270D01*
X007197Y031793D02*
X017021Y031793D01*
X017159Y032032D02*
X005344Y032032D01*
X005344Y031793D02*
X005104Y031793D01*
X005104Y031555D02*
X005344Y031555D01*
X005344Y031316D02*
X005104Y031316D01*
X005104Y031078D02*
X005344Y031078D01*
X005344Y030839D02*
X005104Y030839D01*
X005104Y030601D02*
X005344Y030601D01*
X005344Y030362D02*
X005104Y030362D01*
X005104Y030123D02*
X005344Y030123D01*
X005626Y030123D02*
X011985Y030123D01*
X011985Y030226D02*
X011985Y029986D01*
X012225Y029986D01*
X012225Y028892D01*
X012310Y028902D01*
X012443Y028932D01*
X012573Y028978D01*
X012696Y029037D01*
X012812Y029110D01*
X012919Y029195D01*
X013016Y029292D01*
X013101Y029399D01*
X013174Y029515D01*
X013234Y029639D01*
X013279Y029768D01*
X013310Y029902D01*
X013319Y029986D01*
X012225Y029986D01*
X012225Y030226D01*
X013319Y030226D01*
X013310Y030311D01*
X013279Y030445D01*
X013234Y030574D01*
X013174Y030698D01*
X013101Y030814D01*
X013016Y030921D01*
X012919Y031018D01*
X012812Y031103D01*
X012696Y031176D01*
X012573Y031235D01*
X012443Y031281D01*
X012310Y031311D01*
X012225Y031321D01*
X012225Y030227D01*
X011985Y030227D01*
X011985Y031321D01*
X011900Y031311D01*
X011767Y031281D01*
X011637Y031235D01*
X011514Y031176D01*
X011398Y031103D01*
X011291Y031018D01*
X011194Y030921D01*
X011108Y030814D01*
X011036Y030698D01*
X010976Y030574D01*
X010931Y030445D01*
X010900Y030311D01*
X010891Y030226D01*
X011985Y030226D01*
X011985Y030362D02*
X012225Y030362D01*
X012225Y030601D02*
X011985Y030601D01*
X011985Y030839D02*
X012225Y030839D01*
X012225Y031078D02*
X011985Y031078D01*
X011985Y031316D02*
X012225Y031316D01*
X012264Y031316D02*
X013865Y031316D01*
X013865Y031078D02*
X012844Y031078D01*
X013081Y030839D02*
X013865Y030839D01*
X013865Y030601D02*
X013221Y030601D01*
X013298Y030362D02*
X013865Y030362D01*
X013865Y030123D02*
X012225Y030123D01*
X012225Y029885D02*
X011985Y029885D01*
X011985Y029986D02*
X011985Y028892D01*
X011900Y028902D01*
X011767Y028932D01*
X011637Y028978D01*
X011514Y029037D01*
X011398Y029110D01*
X011291Y029195D01*
X011194Y029292D01*
X011108Y029399D01*
X011036Y029515D01*
X010976Y029639D01*
X010931Y029768D01*
X010900Y029902D01*
X010891Y029986D01*
X011985Y029986D01*
X011985Y029646D02*
X012225Y029646D01*
X012225Y029408D02*
X011985Y029408D01*
X011985Y029169D02*
X012225Y029169D01*
X012225Y028931D02*
X011985Y028931D01*
X011774Y028931D02*
X003435Y028931D01*
X003435Y029169D02*
X011323Y029169D01*
X011103Y029408D02*
X003435Y029408D01*
X003435Y029646D02*
X010973Y029646D01*
X010904Y029885D02*
X003435Y029885D01*
X003435Y030123D02*
X004822Y030123D01*
X004208Y030362D02*
X003435Y030362D01*
X003435Y030601D02*
X003883Y030601D01*
X003661Y030839D02*
X003435Y030839D01*
X003435Y031078D02*
X003500Y031078D01*
X006240Y030362D02*
X010912Y030362D01*
X010989Y030601D02*
X006565Y030601D01*
X006787Y030839D02*
X011129Y030839D01*
X011366Y031078D02*
X006948Y031078D01*
X007067Y031316D02*
X011945Y031316D01*
X013306Y029885D02*
X013865Y029885D01*
X013865Y029646D02*
X013236Y029646D01*
X013107Y029408D02*
X013865Y029408D01*
X013865Y029169D02*
X012886Y029169D01*
X012436Y028931D02*
X013865Y028931D01*
X013926Y028692D02*
X003435Y028692D01*
X003435Y028454D02*
X016517Y028454D01*
X016706Y028215D02*
X003435Y028215D01*
X003435Y027977D02*
X016963Y027977D01*
X019342Y026545D02*
X010508Y026545D01*
X010508Y026572D02*
X010505Y026604D01*
X010500Y026636D01*
X010491Y026667D01*
X010480Y026697D01*
X010467Y026726D01*
X010451Y026754D01*
X010432Y026781D01*
X010411Y026806D01*
X010388Y026829D01*
X010364Y026849D01*
X010337Y026868D01*
X010309Y026884D01*
X010280Y026898D01*
X010250Y026909D01*
X010218Y026917D01*
X010187Y026923D01*
X010154Y026925D01*
X008056Y026925D01*
X008024Y026923D01*
X007992Y026917D01*
X007961Y026909D01*
X007930Y026898D01*
X007901Y026884D01*
X007873Y026868D01*
X007847Y026849D01*
X007822Y026829D01*
X007799Y026806D01*
X007778Y026781D01*
X007760Y026754D01*
X007744Y026726D01*
X007730Y026697D01*
X007719Y026667D01*
X007711Y026636D01*
X007705Y026604D01*
X007702Y026572D01*
X007702Y025373D01*
X007705Y025341D01*
X007711Y025309D01*
X007719Y025278D01*
X007730Y025247D01*
X007744Y025218D01*
X007760Y025190D01*
X007778Y025163D01*
X007799Y025139D01*
X007822Y025116D01*
X007847Y025095D01*
X007873Y025077D01*
X007901Y025060D01*
X007930Y025047D01*
X007961Y025036D01*
X007992Y025027D01*
X008024Y025022D01*
X008056Y025019D01*
X010154Y025019D01*
X010187Y025022D01*
X010218Y025027D01*
X010250Y025036D01*
X010280Y025047D01*
X010309Y025060D01*
X010337Y025077D01*
X010364Y025095D01*
X010388Y025116D01*
X010411Y025139D01*
X010432Y025163D01*
X010451Y025190D01*
X010467Y025218D01*
X010480Y025247D01*
X010491Y025278D01*
X010500Y025309D01*
X010505Y025341D01*
X010508Y025373D01*
X010508Y026572D01*
X010430Y026784D02*
X019581Y026784D01*
X019819Y027022D02*
X003435Y027022D01*
X003435Y026784D02*
X007781Y026784D01*
X007702Y026545D02*
X003435Y026545D01*
X003435Y026307D02*
X007702Y026307D01*
X007702Y026068D02*
X003435Y026068D01*
X003435Y025830D02*
X007702Y025830D01*
X007702Y025591D02*
X003435Y025591D01*
X003435Y025353D02*
X007704Y025353D01*
X007660Y025142D02*
X007531Y025187D01*
X007397Y025217D01*
X007312Y025227D01*
X007312Y024133D01*
X007072Y024133D01*
X007072Y023893D01*
X005978Y023893D01*
X005988Y023808D01*
X006018Y023675D01*
X006064Y023545D01*
X006123Y023422D01*
X006196Y023306D01*
X006281Y023199D01*
X006378Y023102D01*
X006485Y023016D01*
X006601Y022943D01*
X006725Y022884D01*
X006854Y022839D01*
X006988Y022808D01*
X007072Y022799D01*
X007072Y023893D01*
X007312Y023893D01*
X007312Y022799D01*
X007397Y022808D01*
X007531Y022839D01*
X007660Y022884D01*
X007784Y022943D01*
X007900Y023016D01*
X008007Y023102D01*
X008104Y023199D01*
X008189Y023306D01*
X008262Y023422D01*
X008321Y023545D01*
X008367Y023675D01*
X008397Y023808D01*
X008407Y023893D01*
X007313Y023893D01*
X007313Y024133D01*
X008407Y024133D01*
X008397Y024218D01*
X008367Y024351D01*
X008321Y024480D01*
X008262Y024604D01*
X008189Y024720D01*
X008104Y024827D01*
X008007Y024924D01*
X007900Y025009D01*
X007784Y025082D01*
X007660Y025142D01*
X007718Y025114D02*
X007824Y025114D01*
X008055Y024875D02*
X013662Y024875D01*
X013662Y024637D02*
X008241Y024637D01*
X008350Y024398D02*
X013662Y024398D01*
X013713Y024160D02*
X008404Y024160D01*
X008368Y023683D02*
X014177Y023683D01*
X014182Y023678D02*
X014182Y023678D01*
X014010Y023921D02*
X007313Y023921D01*
X007312Y023683D02*
X007072Y023683D01*
X007072Y023921D02*
X003435Y023921D01*
X003435Y023683D02*
X006016Y023683D01*
X006112Y023444D02*
X003435Y023444D01*
X003435Y023206D02*
X006276Y023206D01*
X006564Y022967D02*
X003435Y022967D01*
X003435Y022729D02*
X013275Y022729D01*
X013514Y022967D02*
X007821Y022967D01*
X008109Y023206D02*
X013753Y023206D01*
X014415Y023444D02*
X008273Y023444D01*
X007312Y023444D02*
X007072Y023444D01*
X007072Y023206D02*
X007312Y023206D01*
X007312Y022967D02*
X007072Y022967D01*
X005916Y022251D02*
X003435Y022251D01*
X003435Y022013D02*
X005646Y022013D01*
X005622Y021774D02*
X003435Y021774D01*
X003435Y021536D02*
X005622Y021536D01*
X005622Y021297D02*
X003435Y021297D01*
X003435Y021059D02*
X005622Y021059D01*
X005622Y020820D02*
X003435Y020820D01*
X003435Y020582D02*
X005622Y020582D01*
X005622Y020343D02*
X003435Y020343D01*
X003435Y020105D02*
X005622Y020105D01*
X005622Y019866D02*
X003435Y019866D01*
X003435Y019628D02*
X005622Y019628D01*
X005622Y019389D02*
X003435Y019389D01*
X003435Y019150D02*
X005622Y019150D01*
X005239Y018912D02*
X003435Y018912D01*
X003435Y018673D02*
X005000Y018673D01*
X004768Y018435D02*
X003435Y018435D01*
X003435Y018196D02*
X004685Y018196D01*
X004685Y017958D02*
X003435Y017958D01*
X003435Y017719D02*
X004685Y017719D01*
X004685Y017481D02*
X003435Y017481D01*
X003435Y017242D02*
X004685Y017242D01*
X004685Y017004D02*
X003435Y017004D01*
X003435Y016765D02*
X004685Y016765D01*
X004685Y016526D02*
X003435Y016526D01*
X003435Y016288D02*
X004685Y016288D01*
X004751Y016049D02*
X003435Y016049D01*
X003435Y015811D02*
X004961Y015811D01*
X005199Y015572D02*
X003435Y015572D01*
X003435Y015334D02*
X005445Y015334D01*
X006194Y014857D02*
X003435Y014857D01*
X003435Y015095D02*
X006417Y015095D01*
X006063Y014618D02*
X003435Y014618D01*
X003435Y014380D02*
X005993Y014380D01*
X005998Y013902D02*
X003435Y013902D01*
X003435Y013664D02*
X006074Y013664D01*
X006212Y013425D02*
X003435Y013425D01*
X003435Y013187D02*
X006447Y013187D01*
X006987Y012948D02*
X003435Y012948D01*
X003435Y012710D02*
X009685Y012710D01*
X009685Y012948D02*
X007398Y012948D01*
X007312Y012948D02*
X007072Y012948D01*
X007072Y013187D02*
X007312Y013187D01*
X007312Y013425D02*
X007072Y013425D01*
X007072Y013664D02*
X007312Y013664D01*
X007312Y013902D02*
X007072Y013902D01*
X007072Y014141D02*
X003435Y014141D01*
X003435Y012471D02*
X009685Y012471D01*
X009685Y012233D02*
X003435Y012233D01*
X003435Y011994D02*
X009685Y011994D01*
X009685Y011756D02*
X003435Y011756D01*
X003435Y011517D02*
X009685Y011517D01*
X009685Y011279D02*
X003435Y011279D01*
X003435Y011040D02*
X009685Y011040D01*
X009685Y010801D02*
X003435Y010801D01*
X003435Y010563D02*
X009685Y010563D01*
X009685Y010324D02*
X003435Y010324D01*
X003435Y010086D02*
X009685Y010086D01*
X009685Y009847D02*
X003435Y009847D01*
X003435Y009609D02*
X009685Y009609D01*
X009685Y009370D02*
X003435Y009370D01*
X003435Y009132D02*
X009685Y009132D01*
X009685Y008893D02*
X003435Y008893D01*
X003435Y008655D02*
X009685Y008655D01*
X009685Y008416D02*
X003435Y008416D01*
X003435Y008177D02*
X007839Y008177D01*
X007596Y007939D02*
X005969Y007939D01*
X006397Y007700D02*
X007452Y007700D01*
X007372Y007462D02*
X006669Y007462D01*
X006862Y007223D02*
X008441Y007223D01*
X008442Y006985D02*
X008682Y006985D01*
X008682Y006746D02*
X008442Y006746D01*
X008442Y006508D02*
X008682Y006508D01*
X008682Y006269D02*
X008442Y006269D01*
X008442Y006031D02*
X008682Y006031D01*
X008933Y006031D02*
X009685Y006031D01*
X009685Y006269D02*
X009360Y006269D01*
X009572Y006508D02*
X009685Y006508D01*
X009685Y005792D02*
X007194Y005792D01*
X007142Y005553D02*
X009685Y005553D01*
X009766Y005315D02*
X007060Y005315D01*
X006938Y005076D02*
X009995Y005076D01*
X009933Y005139D02*
X009933Y005139D01*
X010234Y004838D02*
X006773Y004838D01*
X006545Y004599D02*
X010528Y004599D01*
X012982Y004599D02*
X027828Y004599D01*
X027534Y004838D02*
X013277Y004838D01*
X013275Y004835D02*
X013274Y004835D01*
X013239Y004799D02*
X013239Y004799D01*
X013468Y005076D02*
X027295Y005076D01*
X027057Y005315D02*
X013522Y005315D01*
X013522Y005553D02*
X026886Y005553D01*
X023760Y005792D02*
X016609Y005792D01*
X016662Y006031D02*
X018050Y006031D01*
X018083Y006019D02*
X018217Y005988D01*
X018302Y005979D01*
X018302Y007073D01*
X018542Y007073D01*
X018542Y007313D01*
X019636Y007313D01*
X019626Y007398D01*
X019596Y007531D01*
X019551Y007661D01*
X019491Y007784D01*
X019418Y007900D01*
X019333Y008007D01*
X019236Y008104D01*
X019129Y008190D01*
X019013Y008262D01*
X018889Y008322D01*
X018760Y008367D01*
X018626Y008398D01*
X018542Y008407D01*
X018542Y007313D01*
X018302Y007313D01*
X018302Y008407D01*
X018217Y008398D01*
X018083Y008367D01*
X017954Y008322D01*
X017831Y008262D01*
X017715Y008190D01*
X017607Y008104D01*
X017511Y008007D01*
X017425Y007900D01*
X017352Y007784D01*
X017293Y007661D01*
X017247Y007531D01*
X017217Y007398D01*
X017207Y007313D01*
X018301Y007313D01*
X018301Y007073D01*
X017207Y007073D01*
X017217Y006988D01*
X017247Y006855D01*
X017293Y006725D01*
X017352Y006602D01*
X017425Y006486D01*
X017511Y006379D01*
X017607Y006282D01*
X017715Y006196D01*
X017831Y006124D01*
X017954Y006064D01*
X018083Y006019D01*
X018302Y006031D02*
X018542Y006031D01*
X018542Y005979D02*
X018626Y005988D01*
X018760Y006019D01*
X018889Y006064D01*
X019013Y006124D01*
X019129Y006196D01*
X019236Y006282D01*
X019333Y006379D01*
X019418Y006486D01*
X019491Y006602D01*
X019551Y006725D01*
X019596Y006855D01*
X019626Y006988D01*
X019636Y007073D01*
X018542Y007073D01*
X018542Y005979D01*
X018793Y006031D02*
X021576Y006031D01*
X021609Y006019D02*
X021743Y005988D01*
X021827Y005979D01*
X021827Y007073D01*
X020733Y007073D01*
X020743Y006988D01*
X020773Y006855D01*
X020819Y006725D01*
X020878Y006602D01*
X020951Y006486D01*
X021036Y006379D01*
X021133Y006282D01*
X021240Y006196D01*
X021356Y006124D01*
X021480Y006064D01*
X021609Y006019D01*
X021827Y006031D02*
X022067Y006031D01*
X022067Y005979D02*
X022152Y005988D01*
X022286Y006019D01*
X022415Y006064D01*
X022539Y006124D01*
X022655Y006196D01*
X022762Y006282D01*
X022859Y006379D01*
X022944Y006486D01*
X023017Y006602D01*
X023076Y006725D01*
X023122Y006855D01*
X023152Y006988D01*
X023162Y007073D01*
X022068Y007073D01*
X022068Y007313D01*
X023162Y007313D01*
X023152Y007398D01*
X023122Y007531D01*
X023076Y007661D01*
X023017Y007784D01*
X022944Y007900D01*
X022859Y008007D01*
X022762Y008104D01*
X022655Y008190D01*
X022539Y008262D01*
X022415Y008322D01*
X022286Y008367D01*
X022152Y008398D01*
X022067Y008407D01*
X022067Y007313D01*
X021827Y007313D01*
X021827Y007073D01*
X022067Y007073D01*
X022067Y005979D01*
X022319Y006031D02*
X023707Y006031D01*
X023707Y006269D02*
X022746Y006269D01*
X022958Y006508D02*
X023707Y006508D01*
X023707Y006746D02*
X023084Y006746D01*
X023151Y006985D02*
X023707Y006985D01*
X023707Y007223D02*
X022068Y007223D01*
X022067Y006985D02*
X021827Y006985D01*
X021827Y007223D02*
X018542Y007223D01*
X018542Y006985D02*
X018302Y006985D01*
X018301Y007223D02*
X016662Y007223D01*
X016662Y006985D02*
X017218Y006985D01*
X017285Y006746D02*
X016662Y006746D01*
X016662Y006508D02*
X017411Y006508D01*
X017623Y006269D02*
X016662Y006269D01*
X018302Y006269D02*
X018542Y006269D01*
X018542Y006508D02*
X018302Y006508D01*
X018302Y006746D02*
X018542Y006746D01*
X018542Y007462D02*
X018302Y007462D01*
X018302Y007700D02*
X018542Y007700D01*
X018542Y007939D02*
X018302Y007939D01*
X018302Y008177D02*
X018542Y008177D01*
X017699Y008177D02*
X016662Y008177D01*
X016662Y007939D02*
X017456Y007939D01*
X017312Y007700D02*
X016662Y007700D01*
X016662Y007462D02*
X017232Y007462D01*
X016662Y008416D02*
X023707Y008416D01*
X023707Y008177D02*
X022670Y008177D01*
X022913Y007939D02*
X023707Y007939D01*
X023707Y007700D02*
X023057Y007700D01*
X023137Y007462D02*
X023707Y007462D01*
X023816Y008655D02*
X016553Y008655D01*
X017145Y009422D02*
X017145Y009922D01*
X017395Y010072D01*
X017395Y009572D01*
X017145Y009422D01*
X017613Y009132D02*
X019156Y009132D01*
X019052Y009370D02*
X018071Y009370D01*
X018419Y009609D02*
X019052Y009609D01*
X017995Y009872D02*
X017995Y010372D01*
X017745Y010262D01*
X017745Y009762D01*
X017995Y009872D01*
X019144Y008177D02*
X021225Y008177D01*
X021240Y008190D02*
X021133Y008104D01*
X021036Y008007D01*
X020951Y007900D01*
X020878Y007784D01*
X020819Y007661D01*
X020773Y007531D01*
X020743Y007398D01*
X020733Y007313D01*
X021827Y007313D01*
X021827Y008407D01*
X021743Y008398D01*
X021609Y008367D01*
X021480Y008322D01*
X021356Y008262D01*
X021240Y008190D01*
X020982Y007939D02*
X019387Y007939D01*
X019531Y007700D02*
X020838Y007700D01*
X020757Y007462D02*
X019612Y007462D01*
X019625Y006985D02*
X020744Y006985D01*
X020811Y006746D02*
X019558Y006746D01*
X019432Y006508D02*
X020937Y006508D01*
X021149Y006269D02*
X019220Y006269D01*
X021827Y006269D02*
X022067Y006269D01*
X022067Y006508D02*
X021827Y006508D01*
X021827Y006746D02*
X022067Y006746D01*
X022067Y007462D02*
X021827Y007462D01*
X021827Y007700D02*
X022067Y007700D01*
X022067Y007939D02*
X021827Y007939D01*
X021827Y008177D02*
X022067Y008177D01*
X014353Y013425D02*
X010825Y013425D01*
X010825Y013187D02*
X014114Y013187D01*
X013875Y012948D02*
X010825Y012948D01*
X010825Y012710D02*
X013637Y012710D01*
X013398Y012471D02*
X010825Y012471D01*
X010825Y012233D02*
X013160Y012233D01*
X013008Y012081D02*
X012922Y011872D01*
X012922Y011645D01*
X012922Y008763D01*
X010825Y008763D01*
X010825Y015052D01*
X011425Y015052D01*
X011456Y014979D01*
X011560Y014875D01*
X011696Y014819D01*
X012473Y014819D01*
X012609Y014875D01*
X012635Y014901D01*
X012662Y014875D01*
X012798Y014819D01*
X013575Y014819D01*
X013711Y014875D01*
X013749Y014912D01*
X015002Y014912D01*
X015269Y014912D01*
X015515Y015014D01*
X015999Y015499D01*
X016072Y015529D01*
X016269Y015726D01*
X016375Y015983D01*
X016375Y016261D01*
X016269Y016519D01*
X016072Y016716D01*
X015815Y016822D01*
X015536Y016822D01*
X015279Y016716D01*
X015082Y016519D01*
X015052Y016446D01*
X014858Y016252D01*
X013749Y016252D01*
X013711Y016290D01*
X013575Y016346D01*
X012798Y016346D01*
X012755Y016328D01*
X012755Y016381D01*
X012785Y016453D01*
X012785Y016731D01*
X012755Y016804D01*
X012755Y017755D01*
X012653Y018002D01*
X012612Y018044D01*
X012612Y018089D01*
X012555Y018225D01*
X012451Y018330D01*
X012315Y018386D01*
X011538Y018386D01*
X011402Y018330D01*
X011385Y018312D01*
X011455Y018483D01*
X011455Y018761D01*
X011349Y019019D01*
X011245Y019122D01*
X011245Y019142D01*
X011899Y019142D01*
X012035Y019199D01*
X012052Y019192D01*
X012987Y019192D01*
X013047Y019167D01*
X013591Y019167D01*
X013652Y019142D01*
X014999Y019142D01*
X015135Y019199D01*
X015239Y019303D01*
X015295Y019439D01*
X015295Y019712D01*
X015629Y019712D01*
X015952Y019390D01*
X016117Y019321D01*
X016296Y019321D01*
X016297Y019321D01*
X016328Y019246D01*
X016432Y019142D01*
X016465Y019129D01*
X016465Y015538D01*
X013008Y012081D01*
X012972Y011994D02*
X010825Y011994D01*
X010825Y011756D02*
X012922Y011756D01*
X012922Y011517D02*
X010825Y011517D01*
X010825Y011279D02*
X012922Y011279D01*
X012922Y011040D02*
X010825Y011040D01*
X010825Y010801D02*
X012922Y010801D01*
X012922Y010563D02*
X010825Y010563D01*
X010825Y010324D02*
X012922Y010324D01*
X012922Y010086D02*
X010825Y010086D01*
X010825Y009847D02*
X012922Y009847D01*
X012922Y009609D02*
X010825Y009609D01*
X010825Y009370D02*
X012922Y009370D01*
X012922Y009132D02*
X010825Y009132D01*
X010825Y008893D02*
X012922Y008893D01*
X009685Y008177D02*
X009284Y008177D01*
X009527Y007939D02*
X009685Y007939D01*
X009671Y007700D02*
X009685Y007700D01*
X008682Y007700D02*
X008442Y007700D01*
X008442Y007462D02*
X008682Y007462D01*
X008682Y007939D02*
X008442Y007939D01*
X008442Y008177D02*
X008682Y008177D01*
X007358Y006985D02*
X007005Y006985D01*
X007105Y006746D02*
X007425Y006746D01*
X007551Y006508D02*
X007173Y006508D01*
X007208Y006269D02*
X007763Y006269D01*
X008190Y006031D02*
X005344Y006031D01*
X005344Y006269D02*
X005104Y006269D01*
X005104Y006508D02*
X005344Y006508D01*
X005344Y006746D02*
X005104Y006746D01*
X005104Y006985D02*
X005344Y006985D01*
X005344Y007223D02*
X005104Y007223D01*
X005104Y007462D02*
X005344Y007462D01*
X005344Y007700D02*
X005104Y007700D01*
X005104Y007939D02*
X005344Y007939D01*
X004479Y007939D02*
X003435Y007939D01*
X003435Y007700D02*
X004050Y007700D01*
X003778Y007462D02*
X003435Y007462D01*
X003435Y007223D02*
X003586Y007223D01*
X003443Y006985D02*
X003435Y006985D01*
X007938Y013187D02*
X009685Y013187D01*
X009685Y013425D02*
X008173Y013425D01*
X008311Y013664D02*
X009685Y013664D01*
X009685Y013902D02*
X008387Y013902D01*
X008392Y014380D02*
X009685Y014380D01*
X009685Y014618D02*
X008322Y014618D01*
X008191Y014857D02*
X009685Y014857D01*
X009685Y015095D02*
X007967Y015095D01*
X007313Y014141D02*
X009685Y014141D01*
X010825Y014141D02*
X015068Y014141D01*
X014830Y013902D02*
X010825Y013902D01*
X010825Y013664D02*
X014591Y013664D01*
X015307Y014380D02*
X010825Y014380D01*
X010825Y014618D02*
X015545Y014618D01*
X015784Y014857D02*
X013667Y014857D01*
X012706Y014857D02*
X012565Y014857D01*
X011604Y014857D02*
X010825Y014857D01*
X009855Y015822D02*
X009855Y019722D01*
X010295Y020162D01*
X010755Y019662D02*
X011225Y019662D01*
X010755Y019662D02*
X010755Y018622D01*
X011393Y018912D02*
X016465Y018912D01*
X016465Y018673D02*
X011455Y018673D01*
X011435Y018435D02*
X016465Y018435D01*
X016465Y018196D02*
X012567Y018196D01*
X012672Y017958D02*
X016465Y017958D01*
X016465Y017719D02*
X012755Y017719D01*
X012755Y017481D02*
X016465Y017481D01*
X016465Y017242D02*
X012755Y017242D01*
X012755Y017004D02*
X016465Y017004D01*
X016465Y016765D02*
X015953Y016765D01*
X016261Y016526D02*
X016465Y016526D01*
X016465Y016288D02*
X016364Y016288D01*
X016375Y016049D02*
X016465Y016049D01*
X016465Y015811D02*
X016304Y015811D01*
X016465Y015572D02*
X016115Y015572D01*
X016261Y015334D02*
X015834Y015334D01*
X016022Y015095D02*
X015596Y015095D01*
X014894Y016288D02*
X013713Y016288D01*
X012785Y016526D02*
X015090Y016526D01*
X015398Y016765D02*
X012771Y016765D01*
X012085Y016592D02*
X012084Y016592D01*
X011919Y019150D02*
X013632Y019150D01*
X012035Y019199D02*
X012035Y019199D01*
X015019Y019150D02*
X016424Y019150D01*
X015953Y019389D02*
X015275Y019389D01*
X015295Y019628D02*
X015714Y019628D01*
X017799Y019628D02*
X018662Y019628D01*
X018662Y019753D02*
X018662Y019447D01*
X018677Y019391D01*
X018706Y019341D01*
X018747Y019300D01*
X018797Y019271D01*
X018853Y019256D01*
X019238Y019256D01*
X019238Y019753D01*
X018662Y019753D01*
X018662Y019866D02*
X017799Y019866D01*
X017799Y020105D02*
X018662Y020105D01*
X018594Y020343D02*
X017737Y020343D01*
X017799Y020582D02*
X018512Y020582D01*
X018512Y020820D02*
X017799Y020820D01*
X017799Y021059D02*
X018512Y021059D01*
X018518Y021297D02*
X017784Y021297D01*
X017556Y021536D02*
X018706Y021536D01*
X018845Y021774D02*
X017485Y021774D01*
X017495Y022013D02*
X018845Y022013D01*
X018726Y022251D02*
X017733Y022251D01*
X018650Y023921D02*
X016055Y023921D01*
X016347Y024160D02*
X018651Y024160D01*
X018369Y024398D02*
X016389Y024398D01*
X016389Y024637D02*
X018190Y024637D01*
X018125Y024875D02*
X016389Y024875D01*
X016358Y025114D02*
X018143Y025114D01*
X018256Y025353D02*
X016224Y025353D01*
X016239Y025591D02*
X018587Y025591D01*
X018975Y025830D02*
X016239Y025830D01*
X016239Y025791D02*
X016239Y026097D01*
X016224Y026153D01*
X016195Y026203D01*
X016154Y026244D01*
X016104Y026273D01*
X016048Y026288D01*
X015663Y026288D01*
X015663Y025791D01*
X016239Y025791D01*
X016239Y026068D02*
X018958Y026068D01*
X019104Y026307D02*
X014854Y026307D01*
X014463Y026307D02*
X014388Y026307D01*
X014388Y026068D02*
X014463Y026068D01*
X014463Y025830D02*
X014388Y025830D01*
X014463Y025811D02*
X015012Y025811D01*
X015012Y025791D01*
X015588Y025791D01*
X015588Y025716D01*
X015039Y025716D01*
X015039Y025736D01*
X014463Y025736D01*
X014463Y025811D01*
X013812Y025830D02*
X010508Y025830D01*
X010508Y026068D02*
X013812Y026068D01*
X013997Y026307D02*
X010508Y026307D01*
X010508Y025591D02*
X013812Y025591D01*
X013839Y025353D02*
X010506Y025353D01*
X010386Y025114D02*
X013684Y025114D01*
X015588Y025830D02*
X015663Y025830D01*
X015663Y026068D02*
X015588Y026068D01*
X019862Y025792D02*
X020405Y025792D01*
X020405Y026336D01*
X019862Y025792D01*
X019899Y025830D02*
X020405Y025830D01*
X020405Y026068D02*
X020138Y026068D01*
X020376Y026307D02*
X020405Y026307D01*
X020058Y027261D02*
X003435Y027261D01*
X003435Y027499D02*
X020296Y027499D01*
X020535Y027738D02*
X003435Y027738D01*
X003435Y025114D02*
X006667Y025114D01*
X006725Y025142D02*
X006601Y025082D01*
X006485Y025009D01*
X006378Y024924D01*
X006281Y024827D01*
X006196Y024720D01*
X006123Y024604D01*
X006064Y024480D01*
X006018Y024351D01*
X005988Y024218D01*
X005978Y024133D01*
X007072Y024133D01*
X007072Y025227D01*
X006988Y025217D01*
X006854Y025187D01*
X006725Y025142D01*
X007072Y025114D02*
X007312Y025114D01*
X007312Y024875D02*
X007072Y024875D01*
X007072Y024637D02*
X007312Y024637D01*
X007312Y024398D02*
X007072Y024398D01*
X007072Y024160D02*
X007312Y024160D01*
X006330Y024875D02*
X003435Y024875D01*
X003435Y024637D02*
X006144Y024637D01*
X006035Y024398D02*
X003435Y024398D01*
X003435Y024160D02*
X005981Y024160D01*
X003435Y022490D02*
X013037Y022490D01*
X012798Y022251D02*
X008469Y022251D01*
X010009Y022013D02*
X012560Y022013D01*
X012321Y021774D02*
X010200Y021774D01*
X017799Y019389D02*
X018678Y019389D01*
X019238Y019389D02*
X019313Y019389D01*
X019313Y019628D02*
X019238Y019628D01*
X026757Y018673D02*
X026997Y018673D01*
X026997Y018435D02*
X026757Y018435D01*
X026757Y018196D02*
X026997Y018196D01*
X026997Y017958D02*
X026757Y017958D01*
X026757Y017719D02*
X026997Y017719D01*
X026997Y017481D02*
X026757Y017481D01*
X026757Y017242D02*
X026997Y017242D01*
X037225Y017612D02*
X037425Y017812D01*
X029285Y030362D02*
X023158Y030362D01*
X023081Y030601D02*
X029285Y030601D01*
X029285Y030839D02*
X022941Y030839D01*
X022704Y031078D02*
X029285Y031078D01*
X029285Y031316D02*
X022124Y031316D01*
X013960Y031555D02*
X007146Y031555D01*
X006997Y032986D02*
X046758Y032986D01*
X046905Y033224D02*
X006850Y033224D01*
X006652Y033463D02*
X047102Y033463D01*
X047382Y033702D02*
X006373Y033702D01*
D22*
X014425Y024671D02*
X014425Y024042D01*
X015333Y023135D01*
X020139Y023135D01*
X020139Y023332D02*
X015996Y023332D01*
X015625Y023702D01*
X015625Y024651D01*
X014121Y022938D02*
X020139Y022938D01*
X020139Y022741D02*
X017587Y022741D01*
X018652Y023725D02*
X018255Y024122D01*
X018255Y024316D01*
X018825Y024932D02*
X019048Y024710D01*
X020139Y024710D01*
X020139Y024906D02*
X020990Y024906D01*
X022605Y026522D01*
X023925Y026511D02*
X023925Y025892D01*
X023333Y025300D01*
X022422Y025300D01*
X022422Y025103D02*
X023687Y025103D01*
X024143Y025560D01*
X024405Y025822D01*
X025055Y025822D01*
X025350Y026117D01*
X025350Y026536D01*
X026255Y026122D02*
X025630Y025497D01*
X024555Y025497D01*
X023768Y024710D01*
X022422Y024710D01*
X022422Y024906D02*
X021879Y024906D01*
X021585Y024613D01*
X021585Y024513D01*
X020139Y024513D01*
X020139Y024316D02*
X020662Y024316D01*
X020955Y024022D01*
X020955Y023522D02*
X020145Y023522D01*
X020139Y023529D01*
X020139Y023725D02*
X018652Y023725D01*
X019080Y023972D02*
X019130Y023922D01*
X020139Y023922D01*
X020139Y024119D02*
X019127Y024119D01*
X019080Y024072D01*
X019080Y023972D01*
X019702Y025300D02*
X019405Y025597D01*
X019405Y025972D01*
X019702Y025300D02*
X020139Y025300D01*
X020139Y025103D02*
X020637Y025103D01*
X020855Y025322D01*
X022422Y024513D02*
X024536Y024513D01*
X024965Y024942D01*
X025124Y024316D02*
X026130Y025322D01*
X025795Y024542D02*
X025372Y024119D01*
X022422Y024119D01*
X022422Y023922D02*
X025805Y023922D01*
X026015Y024132D01*
X025795Y024542D02*
X026665Y024542D01*
X025124Y024316D02*
X022422Y024316D01*
X022422Y023725D02*
X025052Y023725D01*
X025455Y023322D01*
X025230Y022772D02*
X024671Y023332D01*
X022422Y023332D01*
X022416Y023522D02*
X021585Y023522D01*
X022416Y023522D02*
X022422Y023529D01*
X022422Y023135D02*
X024468Y023135D01*
X025480Y022122D01*
X038105Y022122D01*
X035255Y021822D02*
X025405Y021822D01*
X024290Y022938D01*
X022422Y022938D01*
X022422Y022741D02*
X024137Y022741D01*
X025355Y021522D01*
X030005Y021522D01*
X031105Y022772D02*
X025230Y022772D01*
X023675Y022327D02*
X023458Y022544D01*
X022422Y022544D01*
X020139Y022544D02*
X019577Y022544D01*
X019275Y022242D01*
X019275Y020893D01*
X024031Y025448D02*
X024143Y025560D01*
X011245Y021142D02*
X011225Y021162D01*
D23*
X014255Y018622D03*
X014255Y016622D03*
X018255Y017122D03*
X020255Y017122D03*
X020255Y015122D03*
X022255Y015122D03*
X024255Y015122D03*
X026255Y015122D03*
X028255Y015122D03*
X031685Y016002D03*
X034255Y015122D03*
X032255Y014122D03*
X034255Y013122D03*
X036255Y013122D03*
X036255Y015122D03*
X040255Y015122D03*
X042255Y015122D03*
X044255Y015122D03*
X044255Y013122D03*
X042255Y013122D03*
X040255Y013122D03*
X040255Y011122D03*
X042255Y011122D03*
X044255Y011122D03*
X044255Y009122D03*
X046255Y009122D03*
X048255Y009122D03*
X050255Y009122D03*
X050255Y011122D03*
X050255Y013122D03*
X050255Y015122D03*
X050255Y017122D03*
X050255Y019122D03*
X050255Y021122D03*
X050255Y023122D03*
X050255Y025122D03*
X050255Y027122D03*
X050255Y029122D03*
X048255Y029122D03*
X046255Y029122D03*
X044255Y029122D03*
X044255Y027752D03*
X045255Y027362D03*
X044255Y025122D03*
X042255Y025122D03*
X044255Y023122D03*
X040255Y021122D03*
X038255Y021122D03*
X038255Y023122D03*
X036255Y023122D03*
X034255Y023122D03*
X032255Y023122D03*
X030255Y023522D03*
X028255Y023522D03*
X026665Y024542D03*
X026015Y024132D03*
X026255Y023522D03*
X025455Y023322D03*
X024965Y024942D03*
X026130Y025322D03*
X026255Y026122D03*
X028255Y026122D03*
X028255Y029122D03*
X026255Y029122D03*
X024255Y029122D03*
X024255Y031122D03*
X026255Y031122D03*
X028255Y031122D03*
X028255Y033122D03*
X026255Y033122D03*
X024255Y033122D03*
X022255Y033122D03*
X020255Y033122D03*
X018255Y033122D03*
X016255Y033122D03*
X014255Y033122D03*
X012255Y033122D03*
X010255Y033122D03*
X008255Y033122D03*
X008255Y031122D03*
X010255Y031122D03*
X010255Y029122D03*
X008255Y029122D03*
X006255Y029122D03*
X004255Y029122D03*
X004255Y027122D03*
X006255Y027122D03*
X008255Y027122D03*
X010255Y027122D03*
X012255Y025122D03*
X014255Y027122D03*
X016255Y027122D03*
X017255Y026122D03*
X018255Y027122D03*
X020255Y026122D03*
X021355Y026962D03*
X022005Y027452D03*
X022755Y026122D03*
X018255Y024122D03*
X017255Y024122D03*
X020955Y021422D03*
X020255Y021122D03*
X018255Y021122D03*
X018255Y019122D03*
X020255Y019122D03*
X024255Y019122D03*
X024255Y017122D03*
X018255Y015122D03*
X016255Y011122D03*
X014255Y011122D03*
X012255Y011122D03*
X012255Y009122D03*
X014255Y009122D03*
X016255Y009122D03*
X018255Y009122D03*
X018255Y005122D03*
X016255Y005122D03*
X014255Y005122D03*
X008255Y005122D03*
X008255Y009122D03*
X006255Y009122D03*
X004255Y009122D03*
X004255Y011122D03*
X006255Y011122D03*
X008255Y011122D03*
X012255Y013122D03*
X004255Y013122D03*
X004255Y015122D03*
X004255Y017122D03*
X004255Y019122D03*
X004255Y021122D03*
X004255Y023122D03*
X004255Y025122D03*
X026255Y011122D03*
X028255Y011122D03*
X026255Y009122D03*
X030255Y009122D03*
X032255Y009122D03*
X034255Y009122D03*
X036255Y009122D03*
X038255Y009122D03*
X036255Y011122D03*
X034255Y011122D03*
X032255Y011122D03*
X026255Y005122D03*
X024255Y005122D03*
X022255Y005122D03*
X020255Y005122D03*
X040255Y005122D03*
X042255Y005122D03*
X044255Y005122D03*
X046255Y005122D03*
X042255Y009122D03*
X042255Y017122D03*
X040255Y017122D03*
X040255Y019122D03*
X042255Y019122D03*
X036255Y019122D03*
X034255Y019122D03*
X032255Y019122D03*
X030255Y019122D03*
X032255Y021122D03*
X034255Y021122D03*
X038925Y026322D03*
X044255Y031122D03*
X046255Y031122D03*
X046255Y033122D03*
X044255Y033122D03*
X042255Y033122D03*
X040255Y033122D03*
X038255Y033122D03*
X036255Y033122D03*
X034255Y033122D03*
X032255Y033122D03*
X030255Y033122D03*
D24*
X029855Y032122D02*
X035655Y032122D01*
X036180Y031598D01*
X036180Y030666D01*
X035640Y029546D02*
X034560Y029546D01*
X035640Y029546D02*
X036720Y029546D01*
X037800Y029546D01*
X037800Y029078D01*
X040215Y026662D01*
X040215Y025903D01*
X038880Y029546D02*
X037800Y029546D01*
X033365Y027332D02*
X032345Y028352D01*
X030825Y028352D01*
X029855Y029322D01*
X029855Y032122D01*
X018055Y032122D01*
X017575Y031642D01*
X017575Y030666D01*
X017035Y029546D02*
X018115Y029546D01*
X019195Y029546D01*
X017035Y029546D02*
X017035Y028693D01*
X017255Y028472D01*
X028580Y028472D01*
X030649Y026403D01*
X031545Y026403D01*
X020955Y021422D02*
X020955Y013122D01*
X017035Y015302D02*
X017035Y019771D01*
X012085Y017622D02*
X011927Y017622D01*
X010824Y017622D02*
X010755Y017622D01*
X010755Y018622D01*
X009295Y019802D02*
X008576Y019083D01*
X007752Y019083D01*
X007752Y018003D01*
X007752Y016923D01*
X006632Y018543D02*
X005676Y018543D01*
X005255Y018122D01*
X005255Y016322D01*
X005755Y015822D01*
X009855Y015822D01*
X010255Y015822D01*
X010255Y015622D01*
X012084Y015622D01*
X012084Y015582D02*
X012085Y015582D01*
X010255Y015622D02*
X010255Y005622D01*
X010755Y005122D01*
X012755Y005122D01*
X012952Y005318D01*
X012952Y006633D01*
X012412Y007753D02*
X013492Y007753D01*
X013492Y011758D01*
X017035Y015302D01*
X009295Y019802D02*
X009295Y020401D01*
X007752Y020163D02*
X007752Y019083D01*
X007752Y020163D02*
X007752Y021243D01*
X014875Y029546D02*
X015955Y029546D01*
X017035Y029546D01*
X030900Y016811D02*
X030900Y012592D01*
X026877Y008569D01*
X026877Y007753D01*
X025797Y007753D01*
X024717Y007753D01*
X026877Y007753D02*
X027957Y007753D01*
X029037Y007753D01*
X027417Y006633D02*
X027417Y005760D01*
X028055Y005122D01*
X037055Y005122D01*
X039255Y005122D01*
X039723Y005590D01*
X039723Y006633D01*
X039183Y007753D02*
X038103Y007753D01*
X039183Y007753D02*
X040263Y007753D01*
X040263Y009114D01*
X038435Y010942D01*
X038435Y016311D01*
X037055Y015722D02*
X037055Y005122D01*
X040263Y007753D02*
X041343Y007753D01*
X042423Y007753D01*
X044755Y014122D02*
X045062Y014429D01*
X045655Y014429D01*
X045655Y015216D02*
X045655Y017463D01*
X044755Y017463D01*
X044755Y017622D01*
X045655Y017463D02*
X046869Y017463D01*
X047989Y019083D02*
X050216Y019083D01*
X050255Y019122D01*
X015652Y007753D02*
X014572Y007753D01*
X013492Y007753D01*
X012412Y007753D02*
X011332Y007753D01*
D25*
X016207Y019771D02*
X015815Y020162D01*
X014325Y020162D01*
X014325Y020662D02*
X015985Y020662D01*
X016197Y020873D01*
X017035Y020873D01*
X017035Y022190D01*
X017587Y022741D01*
X017035Y019771D02*
X016207Y019771D01*
X014121Y022938D02*
X012325Y021142D01*
X011245Y021142D01*
X011225Y021162D02*
X010175Y021162D01*
X009834Y021503D01*
X009295Y021503D01*
X010146Y020662D02*
X009884Y020401D01*
X009295Y020401D01*
X010146Y020662D02*
X011225Y020662D01*
X011225Y020662D01*
X019405Y025972D02*
X020885Y027452D01*
X022005Y027452D01*
X021355Y026962D02*
X020855Y026462D01*
X020855Y025322D01*
X023675Y022327D02*
X023675Y021042D01*
X023527Y020893D01*
X023275Y020893D01*
X030005Y021522D02*
X030900Y020627D01*
X030900Y017913D01*
X031484Y017913D01*
X031785Y017612D01*
X032985Y017612D01*
X032985Y017112D02*
X031835Y017112D01*
X031534Y016811D01*
X030900Y016811D01*
X036085Y016612D02*
X037335Y016612D01*
X037637Y016311D01*
X038435Y016311D01*
X037485Y017112D02*
X037787Y017413D01*
X038435Y017413D01*
X038435Y018642D01*
X035255Y021822D01*
X038105Y022122D02*
X040215Y024232D01*
X040215Y024801D01*
X039317Y024801D01*
X039015Y025102D01*
X037745Y025102D01*
X037745Y025602D02*
X038985Y025602D01*
X039287Y025903D01*
X040215Y025903D01*
X044255Y027752D02*
X044385Y027752D01*
X044755Y028122D01*
X044255Y027752D02*
X048225Y027752D01*
X049555Y026422D01*
X049555Y020922D01*
X048796Y020163D01*
X047989Y020163D01*
X047989Y021243D02*
X048726Y021243D01*
X049155Y021672D01*
X049155Y026222D01*
X048015Y027362D01*
X045255Y027362D01*
X044995Y027362D01*
X044755Y027122D01*
X044916Y021783D02*
X046869Y021783D01*
X046869Y020703D02*
X044836Y020703D01*
X044755Y020622D01*
X044755Y021622D02*
X044916Y021783D01*
X044756Y019623D02*
X046869Y019623D01*
X046869Y018543D02*
X044835Y018543D01*
X044755Y018622D01*
X044755Y019622D02*
X044756Y019623D01*
X037485Y017112D02*
X036085Y017112D01*
X031105Y022772D02*
X031545Y023212D01*
X031545Y025301D01*
X032994Y025301D01*
X033295Y025602D01*
X034645Y025602D01*
X034645Y026102D02*
X033395Y026102D01*
X033094Y026403D01*
X031545Y026403D01*
D26*
X033365Y026822D02*
X033585Y026602D01*
X034645Y026602D01*
X035995Y026602D01*
X036495Y026102D01*
X037745Y026102D01*
X034645Y025102D02*
X033495Y025102D01*
X033115Y024722D01*
X036085Y017612D02*
X037225Y017612D01*
X036085Y016112D02*
X034925Y016112D01*
X034425Y016612D01*
X032985Y016612D01*
X031935Y016612D01*
X031685Y016362D01*
X031685Y016002D01*
X015675Y021300D02*
X015537Y021162D01*
X014325Y021162D01*
X013145Y019662D02*
X012635Y020172D01*
X011235Y020172D01*
X011225Y020162D01*
X010295Y020162D01*
X013145Y019662D02*
X014325Y019662D01*
D27*
X012085Y017622D02*
X012085Y016592D01*
X012085Y015582D01*
X012084Y015582D02*
X012084Y015622D01*
X013187Y015582D02*
X015135Y015582D01*
X015675Y016122D01*
M02*
