G75*
G70*
%OFA0B0*%
%FSLAX24Y24*%
%IPPOS*%
%LPD*%
%AMOC8*
5,1,8,0,0,1.08239X$1,22.5*
%
%ADD10R,0.0600X0.0600*%
%ADD11C,0.0010*%
D10*
X000512Y000512D03*
X003061Y000512D03*
D11*
X003361Y000511D02*
X001210Y000511D01*
X001210Y000519D02*
X003361Y000519D01*
X003361Y000528D02*
X001210Y000528D01*
X001210Y000536D02*
X003361Y000536D01*
X003361Y000545D02*
X001210Y000545D01*
X001210Y000553D02*
X003361Y000553D01*
X003361Y000562D02*
X001210Y000562D01*
X001210Y000570D02*
X003361Y000570D01*
X003361Y000579D02*
X001210Y000579D01*
X001210Y000588D02*
X003361Y000588D01*
X003361Y000596D02*
X001210Y000596D01*
X001210Y000605D02*
X003361Y000605D01*
X003361Y000613D02*
X001210Y000613D01*
X001210Y000622D02*
X003361Y000622D01*
X003361Y000630D02*
X001210Y000630D01*
X001210Y000639D02*
X003361Y000639D01*
X003361Y000647D02*
X001210Y000647D01*
X001210Y000656D02*
X003361Y000656D01*
X003361Y000664D02*
X001210Y000664D01*
X001210Y000673D02*
X003361Y000673D01*
X003361Y000682D02*
X001210Y000682D01*
X001210Y000690D02*
X003361Y000690D01*
X003361Y000699D02*
X001210Y000699D01*
X001210Y000707D02*
X003361Y000707D01*
X003361Y000716D02*
X001210Y000716D01*
X001210Y000724D02*
X003361Y000724D01*
X003361Y000733D02*
X001210Y000733D01*
X001210Y000741D02*
X003361Y000741D01*
X003361Y000750D02*
X001210Y000750D01*
X001210Y000758D02*
X003361Y000758D01*
X003361Y000767D02*
X001210Y000767D01*
X001210Y000776D02*
X003361Y000776D01*
X003361Y000784D02*
X001210Y000784D01*
X001210Y000793D02*
X003361Y000793D01*
X003361Y000801D02*
X001210Y000801D01*
X001210Y000810D02*
X003361Y000810D01*
X003361Y000818D02*
X001210Y000818D01*
X001210Y000827D02*
X003361Y000827D01*
X003361Y000835D02*
X001210Y000835D01*
X001210Y000844D02*
X003361Y000844D01*
X003361Y000852D02*
X001210Y000852D01*
X001210Y000861D02*
X003361Y000861D01*
X003361Y000869D02*
X001210Y000869D01*
X001210Y000878D02*
X003361Y000878D01*
X003361Y000887D02*
X001210Y000887D01*
X001210Y000891D02*
X001150Y001037D01*
X001037Y001150D01*
X000891Y001210D01*
X000212Y001210D01*
X000212Y003755D01*
X003361Y003755D01*
X003361Y000212D01*
X001210Y000212D01*
X001210Y000891D01*
X001209Y000895D02*
X003361Y000895D01*
X003361Y000904D02*
X001205Y000904D01*
X001202Y000912D02*
X003361Y000912D01*
X003361Y000921D02*
X001198Y000921D01*
X001194Y000929D02*
X003361Y000929D01*
X003361Y000938D02*
X001191Y000938D01*
X001187Y000946D02*
X003361Y000946D01*
X003361Y000955D02*
X001184Y000955D01*
X001180Y000963D02*
X003361Y000963D01*
X003361Y000972D02*
X001177Y000972D01*
X001173Y000981D02*
X003361Y000981D01*
X003361Y000989D02*
X001170Y000989D01*
X001166Y000998D02*
X003361Y000998D01*
X003361Y001006D02*
X001163Y001006D01*
X001159Y001015D02*
X003361Y001015D01*
X003361Y001023D02*
X001156Y001023D01*
X001152Y001032D02*
X003361Y001032D01*
X003361Y001040D02*
X001147Y001040D01*
X001138Y001049D02*
X003361Y001049D01*
X003361Y001057D02*
X001130Y001057D01*
X001121Y001066D02*
X003361Y001066D01*
X003361Y001075D02*
X001113Y001075D01*
X001104Y001083D02*
X003361Y001083D01*
X003361Y001092D02*
X001095Y001092D01*
X001087Y001100D02*
X003361Y001100D01*
X003361Y001109D02*
X001078Y001109D01*
X001070Y001117D02*
X003361Y001117D01*
X003361Y001126D02*
X001061Y001126D01*
X001053Y001134D02*
X003361Y001134D01*
X003361Y001143D02*
X001044Y001143D01*
X001033Y001151D02*
X003361Y001151D01*
X003361Y001160D02*
X001013Y001160D01*
X000992Y001169D02*
X003361Y001169D01*
X003361Y001177D02*
X000971Y001177D01*
X000951Y001186D02*
X003361Y001186D01*
X003361Y001194D02*
X000930Y001194D01*
X000909Y001203D02*
X003361Y001203D01*
X003361Y001211D02*
X000212Y001211D01*
X000212Y001220D02*
X003361Y001220D01*
X003361Y001228D02*
X000212Y001228D01*
X000212Y001237D02*
X003361Y001237D01*
X003361Y001245D02*
X000212Y001245D01*
X000212Y001254D02*
X003361Y001254D01*
X003361Y001262D02*
X000212Y001262D01*
X000212Y001271D02*
X003361Y001271D01*
X003361Y001280D02*
X000212Y001280D01*
X000212Y001288D02*
X003361Y001288D01*
X003361Y001297D02*
X000212Y001297D01*
X000212Y001305D02*
X003361Y001305D01*
X003361Y001314D02*
X000212Y001314D01*
X000212Y001322D02*
X003361Y001322D01*
X003361Y001331D02*
X000212Y001331D01*
X000212Y001339D02*
X003361Y001339D01*
X003361Y001348D02*
X000212Y001348D01*
X000212Y001356D02*
X003361Y001356D01*
X003361Y001365D02*
X000212Y001365D01*
X000212Y001374D02*
X003361Y001374D01*
X003361Y001382D02*
X000212Y001382D01*
X000212Y001391D02*
X003361Y001391D01*
X003361Y001399D02*
X000212Y001399D01*
X000212Y001408D02*
X003361Y001408D01*
X003361Y001416D02*
X000212Y001416D01*
X000212Y001425D02*
X003361Y001425D01*
X003361Y001433D02*
X000212Y001433D01*
X000212Y001442D02*
X003361Y001442D01*
X003361Y001450D02*
X000212Y001450D01*
X000212Y001459D02*
X003361Y001459D01*
X003361Y001468D02*
X000212Y001468D01*
X000212Y001476D02*
X003361Y001476D01*
X003361Y001485D02*
X000212Y001485D01*
X000212Y001493D02*
X003361Y001493D01*
X003361Y001502D02*
X000212Y001502D01*
X000212Y001510D02*
X003361Y001510D01*
X003361Y001519D02*
X000212Y001519D01*
X000212Y001527D02*
X003361Y001527D01*
X003361Y001536D02*
X000212Y001536D01*
X000212Y001544D02*
X003361Y001544D01*
X003361Y001553D02*
X000212Y001553D01*
X000212Y001561D02*
X003361Y001561D01*
X003361Y001570D02*
X000212Y001570D01*
X000212Y001579D02*
X003361Y001579D01*
X003361Y001587D02*
X000212Y001587D01*
X000212Y001596D02*
X003361Y001596D01*
X003361Y001604D02*
X000212Y001604D01*
X000212Y001613D02*
X003361Y001613D01*
X003361Y001621D02*
X000212Y001621D01*
X000212Y001630D02*
X003361Y001630D01*
X003361Y001638D02*
X000212Y001638D01*
X000212Y001647D02*
X003361Y001647D01*
X003361Y001655D02*
X000212Y001655D01*
X000212Y001664D02*
X003361Y001664D01*
X003361Y001673D02*
X000212Y001673D01*
X000212Y001681D02*
X003361Y001681D01*
X003361Y001690D02*
X000212Y001690D01*
X000212Y001698D02*
X003361Y001698D01*
X003361Y001707D02*
X000212Y001707D01*
X000212Y001715D02*
X003361Y001715D01*
X003361Y001724D02*
X000212Y001724D01*
X000212Y001732D02*
X003361Y001732D01*
X003361Y001741D02*
X000212Y001741D01*
X000212Y001749D02*
X003361Y001749D01*
X003361Y001758D02*
X000212Y001758D01*
X000212Y001767D02*
X003361Y001767D01*
X003361Y001775D02*
X000212Y001775D01*
X000212Y001784D02*
X003361Y001784D01*
X003361Y001792D02*
X000212Y001792D01*
X000212Y001801D02*
X003361Y001801D01*
X003361Y001809D02*
X000212Y001809D01*
X000212Y001818D02*
X003361Y001818D01*
X003361Y001826D02*
X000212Y001826D01*
X000212Y001835D02*
X003361Y001835D01*
X003361Y001843D02*
X000212Y001843D01*
X000212Y001852D02*
X003361Y001852D01*
X003361Y001861D02*
X000212Y001861D01*
X000212Y001869D02*
X003361Y001869D01*
X003361Y001878D02*
X000212Y001878D01*
X000212Y001886D02*
X003361Y001886D01*
X003361Y001895D02*
X000212Y001895D01*
X000212Y001903D02*
X003361Y001903D01*
X003361Y001912D02*
X000212Y001912D01*
X000212Y001920D02*
X003361Y001920D01*
X003361Y001929D02*
X000212Y001929D01*
X000212Y001937D02*
X003361Y001937D01*
X003361Y001946D02*
X000212Y001946D01*
X000212Y001954D02*
X003361Y001954D01*
X003361Y001963D02*
X000212Y001963D01*
X000212Y001972D02*
X003361Y001972D01*
X003361Y001980D02*
X000212Y001980D01*
X000212Y001989D02*
X003361Y001989D01*
X003361Y001997D02*
X000212Y001997D01*
X000212Y002006D02*
X003361Y002006D01*
X003361Y002014D02*
X000212Y002014D01*
X000212Y002023D02*
X003361Y002023D01*
X003361Y002031D02*
X000212Y002031D01*
X000212Y002040D02*
X003361Y002040D01*
X003361Y002048D02*
X000212Y002048D01*
X000212Y002057D02*
X003361Y002057D01*
X003361Y002066D02*
X000212Y002066D01*
X000212Y002074D02*
X003361Y002074D01*
X003361Y002083D02*
X000212Y002083D01*
X000212Y002091D02*
X003361Y002091D01*
X003361Y002100D02*
X000212Y002100D01*
X000212Y002108D02*
X003361Y002108D01*
X003361Y002117D02*
X000212Y002117D01*
X000212Y002125D02*
X003361Y002125D01*
X003361Y002134D02*
X000212Y002134D01*
X000212Y002142D02*
X003361Y002142D01*
X003361Y002151D02*
X000212Y002151D01*
X000212Y002160D02*
X003361Y002160D01*
X003361Y002168D02*
X000212Y002168D01*
X000212Y002177D02*
X003361Y002177D01*
X003361Y002185D02*
X000212Y002185D01*
X000212Y002194D02*
X003361Y002194D01*
X003361Y002202D02*
X000212Y002202D01*
X000212Y002211D02*
X003361Y002211D01*
X003361Y002219D02*
X000212Y002219D01*
X000212Y002228D02*
X003361Y002228D01*
X003361Y002236D02*
X000212Y002236D01*
X000212Y002245D02*
X003361Y002245D01*
X003361Y002254D02*
X000212Y002254D01*
X000212Y002262D02*
X003361Y002262D01*
X003361Y002271D02*
X000212Y002271D01*
X000212Y002279D02*
X003361Y002279D01*
X003361Y002288D02*
X000212Y002288D01*
X000212Y002296D02*
X003361Y002296D01*
X003361Y002305D02*
X000212Y002305D01*
X000212Y002313D02*
X003361Y002313D01*
X003361Y002322D02*
X000212Y002322D01*
X000212Y002330D02*
X003361Y002330D01*
X003361Y002339D02*
X000212Y002339D01*
X000212Y002347D02*
X003361Y002347D01*
X003361Y002356D02*
X000212Y002356D01*
X000212Y002365D02*
X003361Y002365D01*
X003361Y002373D02*
X000212Y002373D01*
X000212Y002382D02*
X003361Y002382D01*
X003361Y002390D02*
X000212Y002390D01*
X000212Y002399D02*
X003361Y002399D01*
X003361Y002407D02*
X000212Y002407D01*
X000212Y002416D02*
X003361Y002416D01*
X003361Y002424D02*
X000212Y002424D01*
X000212Y002433D02*
X003361Y002433D01*
X003361Y002441D02*
X000212Y002441D01*
X000212Y002450D02*
X003361Y002450D01*
X003361Y002459D02*
X000212Y002459D01*
X000212Y002467D02*
X003361Y002467D01*
X003361Y002476D02*
X000212Y002476D01*
X000212Y002484D02*
X003361Y002484D01*
X003361Y002493D02*
X000212Y002493D01*
X000212Y002501D02*
X003361Y002501D01*
X003361Y002510D02*
X000212Y002510D01*
X000212Y002518D02*
X003361Y002518D01*
X003361Y002527D02*
X000212Y002527D01*
X000212Y002535D02*
X003361Y002535D01*
X003361Y002544D02*
X000212Y002544D01*
X000212Y002553D02*
X003361Y002553D01*
X003361Y002561D02*
X000212Y002561D01*
X000212Y002570D02*
X003361Y002570D01*
X003361Y002578D02*
X000212Y002578D01*
X000212Y002587D02*
X003361Y002587D01*
X003361Y002595D02*
X000212Y002595D01*
X000212Y002604D02*
X003361Y002604D01*
X003361Y002612D02*
X000212Y002612D01*
X000212Y002621D02*
X003361Y002621D01*
X003361Y002629D02*
X000212Y002629D01*
X000212Y002638D02*
X003361Y002638D01*
X003361Y002646D02*
X000212Y002646D01*
X000212Y002655D02*
X003361Y002655D01*
X003361Y002664D02*
X000212Y002664D01*
X000212Y002672D02*
X003361Y002672D01*
X003361Y002681D02*
X000212Y002681D01*
X000212Y002689D02*
X003361Y002689D01*
X003361Y002698D02*
X000212Y002698D01*
X000212Y002706D02*
X003361Y002706D01*
X003361Y002715D02*
X000212Y002715D01*
X000212Y002723D02*
X003361Y002723D01*
X003361Y002732D02*
X000212Y002732D01*
X000212Y002740D02*
X003361Y002740D01*
X003361Y002749D02*
X000212Y002749D01*
X000212Y002758D02*
X003361Y002758D01*
X003361Y002766D02*
X000212Y002766D01*
X000212Y002775D02*
X003361Y002775D01*
X003361Y002783D02*
X000212Y002783D01*
X000212Y002792D02*
X003361Y002792D01*
X003361Y002800D02*
X000212Y002800D01*
X000212Y002809D02*
X003361Y002809D01*
X003361Y002817D02*
X000212Y002817D01*
X000212Y002826D02*
X003361Y002826D01*
X003361Y002834D02*
X000212Y002834D01*
X000212Y002843D02*
X003361Y002843D01*
X003361Y002852D02*
X000212Y002852D01*
X000212Y002860D02*
X003361Y002860D01*
X003361Y002869D02*
X000212Y002869D01*
X000212Y002877D02*
X003361Y002877D01*
X003361Y002886D02*
X000212Y002886D01*
X000212Y002894D02*
X003361Y002894D01*
X003361Y002903D02*
X000212Y002903D01*
X000212Y002911D02*
X003361Y002911D01*
X003361Y002920D02*
X000212Y002920D01*
X000212Y002928D02*
X003361Y002928D01*
X003361Y002937D02*
X000212Y002937D01*
X000212Y002946D02*
X003361Y002946D01*
X003361Y002954D02*
X000212Y002954D01*
X000212Y002963D02*
X003361Y002963D01*
X003361Y002971D02*
X000212Y002971D01*
X000212Y002980D02*
X003361Y002980D01*
X003361Y002988D02*
X000212Y002988D01*
X000212Y002997D02*
X003361Y002997D01*
X003361Y003005D02*
X000212Y003005D01*
X000212Y003014D02*
X003361Y003014D01*
X003361Y003022D02*
X000212Y003022D01*
X000212Y003031D02*
X003361Y003031D01*
X003361Y003039D02*
X000212Y003039D01*
X000212Y003048D02*
X003361Y003048D01*
X003361Y003057D02*
X000212Y003057D01*
X000212Y003065D02*
X003361Y003065D01*
X003361Y003074D02*
X000212Y003074D01*
X000212Y003082D02*
X003361Y003082D01*
X003361Y003091D02*
X000212Y003091D01*
X000212Y003099D02*
X003361Y003099D01*
X003361Y003108D02*
X000212Y003108D01*
X000212Y003116D02*
X003361Y003116D01*
X003361Y003125D02*
X000212Y003125D01*
X000212Y003133D02*
X003361Y003133D01*
X003361Y003142D02*
X000212Y003142D01*
X000212Y003151D02*
X003361Y003151D01*
X003361Y003159D02*
X000212Y003159D01*
X000212Y003168D02*
X003361Y003168D01*
X003361Y003176D02*
X000212Y003176D01*
X000212Y003185D02*
X003361Y003185D01*
X003361Y003193D02*
X000212Y003193D01*
X000212Y003202D02*
X003361Y003202D01*
X003361Y003210D02*
X000212Y003210D01*
X000212Y003219D02*
X003361Y003219D01*
X003361Y003227D02*
X000212Y003227D01*
X000212Y003236D02*
X003361Y003236D01*
X003361Y003245D02*
X000212Y003245D01*
X000212Y003253D02*
X003361Y003253D01*
X003361Y003262D02*
X000212Y003262D01*
X000212Y003270D02*
X003361Y003270D01*
X003361Y003279D02*
X000212Y003279D01*
X000212Y003287D02*
X003361Y003287D01*
X003361Y003296D02*
X000212Y003296D01*
X000212Y003304D02*
X003361Y003304D01*
X003361Y003313D02*
X000212Y003313D01*
X000212Y003321D02*
X003361Y003321D01*
X003361Y003330D02*
X000212Y003330D01*
X000212Y003339D02*
X003361Y003339D01*
X003361Y003347D02*
X000212Y003347D01*
X000212Y003356D02*
X003361Y003356D01*
X003361Y003364D02*
X000212Y003364D01*
X000212Y003373D02*
X003361Y003373D01*
X003361Y003381D02*
X000212Y003381D01*
X000212Y003390D02*
X003361Y003390D01*
X003361Y003398D02*
X000212Y003398D01*
X000212Y003407D02*
X003361Y003407D01*
X003361Y003415D02*
X000212Y003415D01*
X000212Y003424D02*
X003361Y003424D01*
X003361Y003432D02*
X000212Y003432D01*
X000212Y003441D02*
X003361Y003441D01*
X003361Y003450D02*
X000212Y003450D01*
X000212Y003458D02*
X003361Y003458D01*
X003361Y003467D02*
X000212Y003467D01*
X000212Y003475D02*
X003361Y003475D01*
X003361Y003484D02*
X000212Y003484D01*
X000212Y003492D02*
X003361Y003492D01*
X003361Y003501D02*
X000212Y003501D01*
X000212Y003509D02*
X003361Y003509D01*
X003361Y003518D02*
X000212Y003518D01*
X000212Y003526D02*
X003361Y003526D01*
X003361Y003535D02*
X000212Y003535D01*
X000212Y003544D02*
X003361Y003544D01*
X003361Y003552D02*
X000212Y003552D01*
X000212Y003561D02*
X003361Y003561D01*
X003361Y003569D02*
X000212Y003569D01*
X000212Y003578D02*
X003361Y003578D01*
X003361Y003586D02*
X000212Y003586D01*
X000212Y003595D02*
X003361Y003595D01*
X003361Y003603D02*
X000212Y003603D01*
X000212Y003612D02*
X003361Y003612D01*
X003361Y003620D02*
X000212Y003620D01*
X000212Y003629D02*
X003361Y003629D01*
X003361Y003638D02*
X000212Y003638D01*
X000212Y003646D02*
X003361Y003646D01*
X003361Y003655D02*
X000212Y003655D01*
X000212Y003663D02*
X003361Y003663D01*
X003361Y003672D02*
X000212Y003672D01*
X000212Y003680D02*
X003361Y003680D01*
X003361Y003689D02*
X000212Y003689D01*
X000212Y003697D02*
X003361Y003697D01*
X003361Y003706D02*
X000212Y003706D01*
X000212Y003714D02*
X003361Y003714D01*
X003361Y003723D02*
X000212Y003723D01*
X000212Y003731D02*
X003361Y003731D01*
X003361Y003740D02*
X000212Y003740D01*
X000212Y003749D02*
X003361Y003749D01*
X003361Y000502D02*
X001210Y000502D01*
X001210Y000494D02*
X003361Y000494D01*
X003361Y000485D02*
X001210Y000485D01*
X001210Y000476D02*
X003361Y000476D01*
X003361Y000468D02*
X001210Y000468D01*
X001210Y000459D02*
X003361Y000459D01*
X003361Y000451D02*
X001210Y000451D01*
X001210Y000442D02*
X003361Y000442D01*
X003361Y000434D02*
X001210Y000434D01*
X001210Y000425D02*
X003361Y000425D01*
X003361Y000417D02*
X001210Y000417D01*
X001210Y000408D02*
X003361Y000408D01*
X003361Y000400D02*
X001210Y000400D01*
X001210Y000391D02*
X003361Y000391D01*
X003361Y000383D02*
X001210Y000383D01*
X001210Y000374D02*
X003361Y000374D01*
X003361Y000365D02*
X001210Y000365D01*
X001210Y000357D02*
X003361Y000357D01*
X003361Y000348D02*
X001210Y000348D01*
X001210Y000340D02*
X003361Y000340D01*
X003361Y000331D02*
X001210Y000331D01*
X001210Y000323D02*
X003361Y000323D01*
X003361Y000314D02*
X001210Y000314D01*
X001210Y000306D02*
X003361Y000306D01*
X003361Y000297D02*
X001210Y000297D01*
X001210Y000289D02*
X003361Y000289D01*
X003361Y000280D02*
X001210Y000280D01*
X001210Y000271D02*
X003361Y000271D01*
X003361Y000263D02*
X001210Y000263D01*
X001210Y000254D02*
X003361Y000254D01*
X003361Y000246D02*
X001210Y000246D01*
X001210Y000237D02*
X003361Y000237D01*
X003361Y000229D02*
X001210Y000229D01*
X001210Y000220D02*
X003361Y000220D01*
X003361Y000212D02*
X001210Y000212D01*
M02*
