G75*
G70*
%OFA0B0*%
%FSLAX24Y24*%
%IPPOS*%
%LPD*%
%AMOC8*
5,1,8,0,0,1.08239X$1,22.5*
%
%ADD10C,0.0120*%
%ADD11C,0.0060*%
%ADD12C,0.0040*%
D10*
X000169Y003122D02*
X065555Y003122D01*
X065555Y010729D01*
X062275Y010729D01*
X062275Y017516D01*
X065555Y017516D01*
X065555Y024776D01*
X000169Y024776D01*
X000169Y003122D01*
D11*
X039598Y020839D02*
X039598Y021479D01*
X039278Y021479D01*
X039171Y021372D01*
X039171Y021159D01*
X039278Y021052D01*
X039598Y021052D01*
X039815Y021159D02*
X039815Y021693D01*
X040242Y021693D02*
X040242Y021159D01*
X040136Y021052D01*
X039922Y021052D01*
X039815Y021159D01*
X040458Y021052D02*
X040565Y021159D01*
X040565Y021586D01*
X040672Y021479D02*
X040458Y021479D01*
X040889Y021372D02*
X040889Y021052D01*
X041210Y021052D01*
X041316Y021159D01*
X041210Y021266D01*
X040889Y021266D01*
X040889Y021372D02*
X040996Y021479D01*
X041210Y021479D01*
X041534Y021586D02*
X041641Y021693D01*
X041854Y021693D01*
X041961Y021586D01*
X041961Y021479D01*
X041854Y021372D01*
X041641Y021372D01*
X041534Y021266D01*
X041534Y021159D01*
X041641Y021052D01*
X041854Y021052D01*
X041961Y021159D01*
X042179Y021372D02*
X042606Y021372D01*
X042823Y021479D02*
X043143Y021479D01*
X043250Y021372D01*
X043143Y021266D01*
X042930Y021266D01*
X042823Y021159D01*
X042930Y021052D01*
X043250Y021052D01*
X043468Y021052D02*
X043468Y021479D01*
X043895Y021479D02*
X043895Y021159D01*
X043788Y021052D01*
X043468Y021052D01*
X044112Y021052D02*
X044112Y021693D01*
X044112Y021372D02*
X044539Y021372D01*
X044539Y021052D02*
X044539Y021693D01*
X038953Y021693D02*
X038846Y021693D01*
X038846Y021052D01*
X038740Y021052D02*
X038953Y021052D01*
X038524Y021052D02*
X038310Y021052D01*
X038417Y021052D02*
X038417Y021479D01*
X038524Y021479D01*
X038417Y021693D02*
X038417Y021799D01*
X038094Y021479D02*
X037774Y021479D01*
X037667Y021372D01*
X037667Y021052D01*
X037449Y021052D02*
X037449Y021693D01*
X037129Y021479D02*
X037449Y021266D01*
X037129Y021052D01*
X038094Y021052D02*
X038094Y021479D01*
X022039Y021702D02*
X021719Y021702D01*
X021612Y021809D01*
X021612Y021916D01*
X021719Y022022D01*
X022039Y022022D01*
X022039Y021702D02*
X022039Y022343D01*
X021719Y022343D01*
X021612Y022236D01*
X021612Y022129D01*
X021719Y022022D01*
X021395Y022022D02*
X021395Y021809D01*
X021288Y021702D01*
X021074Y021702D01*
X020968Y021809D01*
X020968Y022022D01*
X021074Y022129D01*
X021288Y022129D01*
X021395Y022022D01*
X020750Y022129D02*
X020537Y022129D01*
X020643Y022236D02*
X020643Y021809D01*
X020537Y021702D01*
X020214Y021809D02*
X020107Y021702D01*
X020214Y021809D02*
X020214Y022236D01*
X020320Y022129D02*
X020107Y022129D01*
X019891Y022022D02*
X019891Y021809D01*
X019784Y021702D01*
X019570Y021702D01*
X019464Y021809D01*
X019464Y022022D01*
X019570Y022129D01*
X019784Y022129D01*
X019891Y022022D01*
X019246Y022129D02*
X019246Y021702D01*
X019033Y021702D02*
X019033Y022022D01*
X018926Y022129D01*
X018819Y022022D01*
X018819Y021702D01*
X019033Y022022D02*
X019139Y022129D01*
X019246Y022129D01*
D12*
X038818Y019926D02*
X038895Y020003D01*
X039048Y020003D01*
X039125Y019926D01*
X038818Y019926D02*
X038818Y019849D01*
X039125Y019542D01*
X038818Y019542D01*
X039278Y019542D02*
X039585Y019542D01*
X039432Y019542D02*
X039432Y020003D01*
X039585Y019849D01*
X039739Y019466D02*
X040046Y019466D01*
X040199Y019542D02*
X040506Y019542D01*
X040199Y019849D01*
X040199Y019926D01*
X040276Y020003D01*
X040429Y020003D01*
X040506Y019926D01*
X040659Y019466D02*
X040966Y019466D01*
X041120Y019619D02*
X041197Y019542D01*
X041350Y019542D01*
X041427Y019619D01*
X041427Y019696D01*
X041350Y019772D01*
X041197Y019772D01*
X041120Y019696D01*
X041120Y019619D01*
X041197Y019772D02*
X041120Y019849D01*
X041120Y019926D01*
X041197Y020003D01*
X041350Y020003D01*
X041427Y019926D01*
X041427Y019849D01*
X041350Y019772D01*
X041580Y019542D02*
X041887Y019542D01*
X041734Y019542D02*
X041734Y020003D01*
X041887Y019849D01*
X042041Y019466D02*
X042347Y019466D01*
X042501Y019542D02*
X042578Y019619D01*
X042578Y019926D01*
X042654Y019849D02*
X042501Y019849D01*
X042808Y019772D02*
X042808Y019542D01*
X042808Y019772D02*
X042884Y019849D01*
X043038Y019849D01*
X043115Y019772D01*
X043268Y019849D02*
X043498Y019849D01*
X043575Y019772D01*
X043575Y019619D01*
X043498Y019542D01*
X043268Y019542D01*
X043268Y019466D02*
X043268Y019849D01*
X043115Y020003D02*
X043115Y019542D01*
X043268Y019466D02*
X043345Y019389D01*
X043422Y019389D01*
X043728Y019542D02*
X043882Y019542D01*
X043805Y019542D02*
X043805Y019849D01*
X043882Y019849D01*
X043805Y020003D02*
X043805Y020079D01*
X044112Y020003D02*
X044112Y019542D01*
X044189Y019542D02*
X044035Y019542D01*
X044496Y019772D02*
X044649Y019772D01*
X044649Y019542D02*
X044649Y020003D01*
X044342Y020003D01*
X044189Y020003D02*
X044112Y020003D01*
M02*
