%
M48
M72
T01C0.0236
T02C0.0320
T03C0.0354
T04C0.1181
T05C0.1300
%
T01
X6169Y5122
X5869Y9122
X4169Y9122
X2169Y9122
X2169Y11122
X4169Y11122
X4169Y13122
X2169Y13122
X3870Y14571
X2169Y15122
X2169Y17122
X6169Y17122
X8169Y17122
X10169Y17122
X12839Y15901
X10169Y15122
X8169Y15122
X8169Y13122
X12169Y13122
X14069Y12622
X15169Y12622
X16969Y12022
X19169Y11422
X19969Y11422
X22169Y11122
X26169Y11122
X28169Y11122
X26169Y13122
X24169Y13122
X22169Y13122
X20169Y13622
X24569Y15336
X22169Y15922
X22574Y16561
X21664Y17101
X20169Y18122
X18041Y18678
X16169Y19122
X14794Y19883
X13669Y19122
X10169Y19122
X8169Y19122
X6169Y19122
X4169Y19122
X2169Y19122
X6169Y21122
X8169Y21122
X10169Y21122
X12169Y21122
X14169Y21122
X16169Y21122
X18169Y21122
X18169Y23122
X16169Y23122
X14169Y23122
X12169Y23122
X10169Y23122
X8169Y23122
X6169Y23122
X20169Y23122
X22169Y23122
X24169Y23122
X24169Y21122
X34169Y21122
X36169Y21122
X36169Y19122
X38169Y19122
X38169Y17122
X36169Y17122
X32844Y16022
X33794Y15372
X36169Y15122
X38169Y15122
X40169Y15122
X40169Y13122
X38169Y13122
X34169Y13122
X32169Y13122
X31169Y14122
X29244Y15372
X27769Y15522
X34169Y11122
X36169Y11122
X40169Y11122
X42169Y11122
X44169Y11122
X46169Y11122
X48169Y11122
X50169Y11122
X52169Y11122
X54169Y11122
X56169Y11122
X58169Y11122
X60169Y11122
X59169Y10122
X61169Y10122
X60169Y9122
X58169Y9122
X56169Y9122
X57169Y8122
X58169Y7122
X60169Y7122
X59169Y8122
X62169Y9122
X64169Y9122
X57169Y10122
X55169Y10122
X52169Y9122
X50169Y9122
X48169Y9122
X50169Y7122
X50169Y5122
X52169Y5122
X54169Y5122
X56169Y5122
X58169Y5122
X60169Y5122
X44169Y5122
X42169Y5122
X40169Y5122
X38169Y5122
X36169Y5122
X34169Y5122
X34169Y7122
X36169Y7122
X36169Y9122
X42868Y7914
X53169Y12122
X55169Y12122
X57169Y12122
X56169Y13122
X54169Y13122
X52169Y13122
X53169Y14122
X55169Y14122
X57169Y14122
X56169Y15122
X54169Y15122
X52169Y15122
X51169Y16122
X53169Y16122
X55169Y16122
X57169Y16122
X56169Y17122
X54169Y17122
X52169Y17122
X50169Y17122
X48169Y17122
X46169Y17122
X44169Y17122
X42169Y17122
X40169Y17122
X46169Y19122
X48169Y19122
X50169Y19122
X52169Y19122
X54169Y19122
X56169Y19122
X58169Y19122
X60169Y19122
X62169Y19122
X64169Y19122
X61169Y18122
X59169Y18122
X58169Y17122
X60169Y17122
X59169Y16122
X57169Y18122
X55169Y18122
X53169Y18122
X51169Y18122
X49169Y18122
X51169Y20122
X53169Y20122
X55169Y20122
X57169Y20122
X56169Y21122
X54169Y21122
X52169Y21122
X50169Y21122
X50169Y23122
X52169Y23122
X54169Y23122
X56169Y23122
X58169Y23122
X58169Y21122
X59169Y20122
X44169Y23122
X42169Y23122
X40169Y23122
X38169Y23122
X36169Y23122
X34169Y23122
X16169Y16622
X13169Y17122
X12169Y11122
X13069Y10122
X11360Y9222
X9669Y9222
X16469Y10422
X18169Y9122
X20169Y9122
X24169Y7122
X20769Y5422
X22169Y5122
X24169Y5122
T02
X20479Y12171
X18579Y12171
T03
X25429Y9437
X26429Y9437
X27429Y9437
X28429Y9437
X29429Y9437
X30429Y9437
X31429Y9437
X32429Y9437
X33429Y9437
X34429Y9437
X16760Y7753
X15680Y7753
X14600Y7753
X13520Y7753
X12440Y7753
X11360Y7753
X10280Y7753
X9200Y7753
X9740Y6633
X10820Y6633
X11900Y6633
X12980Y6633
X14060Y6633
X15140Y6633
X16220Y6633
X25429Y18492
X26429Y18492
X27429Y18492
X28429Y18492
X29429Y18492
X30429Y18492
X31429Y18492
X32429Y18492
X33429Y18492
X34429Y18492
X52110Y7795
X53110Y7795
X54110Y7795
X55110Y7795
T04
X47862Y6091
X62586Y6091
X59831Y13965
X50224Y13965
X46287Y13965
X42350Y13965
X30945Y6091
X27153Y6091
X3138Y6091
X3138Y21839
X27153Y21839
X30945Y21839
X47862Y21839
X62586Y21839
T05
X19540Y7193
X6420Y7193
M30
