G75*
G70*
%OFA0B0*%
%FSLAX24Y24*%
%IPPOS*%
%LPD*%
%AMOC8*
5,1,8,0,0,1.08239X$1,22.5*
%
%ADD10C,0.0060*%
%ADD11C,0.0040*%
%ADD12C,0.0520*%
%ADD13C,0.3543*%
%ADD14C,0.0660*%
%ADD15C,0.2000*%
%ADD16C,0.0160*%
%ADD17C,0.0400*%
%ADD18C,0.0396*%
%ADD19C,0.0400*%
%ADD20C,0.0320*%
%ADD21C,0.0600*%
D10*
X039598Y020839D02*
X039598Y021479D01*
X039278Y021479D01*
X039171Y021372D01*
X039171Y021159D01*
X039278Y021052D01*
X039598Y021052D01*
X039815Y021159D02*
X039815Y021693D01*
X040242Y021693D02*
X040242Y021159D01*
X040136Y021052D01*
X039922Y021052D01*
X039815Y021159D01*
X040458Y021052D02*
X040565Y021159D01*
X040565Y021586D01*
X040672Y021479D02*
X040458Y021479D01*
X040889Y021372D02*
X040889Y021052D01*
X041210Y021052D01*
X041316Y021159D01*
X041210Y021266D01*
X040889Y021266D01*
X040889Y021372D02*
X040996Y021479D01*
X041210Y021479D01*
X041534Y021586D02*
X041641Y021693D01*
X041854Y021693D01*
X041961Y021586D01*
X041961Y021479D01*
X041854Y021372D01*
X041641Y021372D01*
X041534Y021266D01*
X041534Y021159D01*
X041641Y021052D01*
X041854Y021052D01*
X041961Y021159D01*
X042179Y021372D02*
X042606Y021372D01*
X042823Y021479D02*
X043143Y021479D01*
X043250Y021372D01*
X043143Y021266D01*
X042930Y021266D01*
X042823Y021159D01*
X042930Y021052D01*
X043250Y021052D01*
X043468Y021052D02*
X043468Y021479D01*
X043895Y021479D02*
X043895Y021159D01*
X043788Y021052D01*
X043468Y021052D01*
X044112Y021052D02*
X044112Y021693D01*
X044112Y021372D02*
X044539Y021372D01*
X044539Y021052D02*
X044539Y021693D01*
X038953Y021693D02*
X038846Y021693D01*
X038846Y021052D01*
X038740Y021052D02*
X038953Y021052D01*
X038524Y021052D02*
X038310Y021052D01*
X038417Y021052D02*
X038417Y021479D01*
X038524Y021479D01*
X038417Y021693D02*
X038417Y021799D01*
X038094Y021479D02*
X037774Y021479D01*
X037667Y021372D01*
X037667Y021052D01*
X037449Y021052D02*
X037449Y021693D01*
X037129Y021479D02*
X037449Y021266D01*
X037129Y021052D01*
X038094Y021052D02*
X038094Y021479D01*
X022039Y021702D02*
X021719Y021702D01*
X021612Y021809D01*
X021612Y021916D01*
X021719Y022022D01*
X022039Y022022D01*
X022039Y021702D02*
X022039Y022343D01*
X021719Y022343D01*
X021612Y022236D01*
X021612Y022129D01*
X021719Y022022D01*
X021395Y022022D02*
X021395Y021809D01*
X021288Y021702D01*
X021074Y021702D01*
X020968Y021809D01*
X020968Y022022D01*
X021074Y022129D01*
X021288Y022129D01*
X021395Y022022D01*
X020750Y022129D02*
X020537Y022129D01*
X020643Y022236D02*
X020643Y021809D01*
X020537Y021702D01*
X020214Y021809D02*
X020107Y021702D01*
X020214Y021809D02*
X020214Y022236D01*
X020320Y022129D02*
X020107Y022129D01*
X019891Y022022D02*
X019891Y021809D01*
X019784Y021702D01*
X019570Y021702D01*
X019464Y021809D01*
X019464Y022022D01*
X019570Y022129D01*
X019784Y022129D01*
X019891Y022022D01*
X019246Y022129D02*
X019246Y021702D01*
X019033Y021702D02*
X019033Y022022D01*
X018926Y022129D01*
X018819Y022022D01*
X018819Y021702D01*
X019033Y022022D02*
X019139Y022129D01*
X019246Y022129D01*
D11*
X038818Y019926D02*
X038895Y020003D01*
X039048Y020003D01*
X039125Y019926D01*
X038818Y019926D02*
X038818Y019849D01*
X039125Y019542D01*
X038818Y019542D01*
X039278Y019542D02*
X039585Y019542D01*
X039432Y019542D02*
X039432Y020003D01*
X039585Y019849D01*
X039739Y019466D02*
X040046Y019466D01*
X040199Y019542D02*
X040506Y019542D01*
X040199Y019849D01*
X040199Y019926D01*
X040276Y020003D01*
X040429Y020003D01*
X040506Y019926D01*
X040659Y019466D02*
X040966Y019466D01*
X041120Y019619D02*
X041197Y019542D01*
X041350Y019542D01*
X041427Y019619D01*
X041427Y019696D01*
X041350Y019772D01*
X041197Y019772D01*
X041120Y019696D01*
X041120Y019619D01*
X041197Y019772D02*
X041120Y019849D01*
X041120Y019926D01*
X041197Y020003D01*
X041350Y020003D01*
X041427Y019926D01*
X041427Y019849D01*
X041350Y019772D01*
X041580Y019542D02*
X041887Y019542D01*
X041734Y019542D02*
X041734Y020003D01*
X041887Y019849D01*
X042041Y019466D02*
X042347Y019466D01*
X042501Y019542D02*
X042578Y019619D01*
X042578Y019926D01*
X042654Y019849D02*
X042501Y019849D01*
X042808Y019772D02*
X042808Y019542D01*
X042808Y019772D02*
X042884Y019849D01*
X043038Y019849D01*
X043115Y019772D01*
X043268Y019849D02*
X043498Y019849D01*
X043575Y019772D01*
X043575Y019619D01*
X043498Y019542D01*
X043268Y019542D01*
X043268Y019466D02*
X043268Y019849D01*
X043115Y020003D02*
X043115Y019542D01*
X043268Y019466D02*
X043345Y019389D01*
X043422Y019389D01*
X043728Y019542D02*
X043882Y019542D01*
X043805Y019542D02*
X043805Y019849D01*
X043882Y019849D01*
X043805Y020003D02*
X043805Y020079D01*
X044112Y020003D02*
X044112Y019542D01*
X044189Y019542D02*
X044035Y019542D01*
X044496Y019772D02*
X044649Y019772D01*
X044649Y019542D02*
X044649Y020003D01*
X044342Y020003D01*
X044189Y020003D02*
X044112Y020003D01*
D12*
X020479Y012171D03*
X018579Y012171D03*
D13*
X027153Y006091D03*
X030945Y006091D03*
X047862Y006091D03*
X062586Y006091D03*
X059831Y013965D03*
X050224Y013965D03*
X046287Y013965D03*
X042350Y013965D03*
X047862Y021839D03*
X062586Y021839D03*
X030945Y021839D03*
X027153Y021839D03*
X003138Y021839D03*
X003138Y006091D03*
D14*
X009200Y007753D03*
X010280Y007753D03*
X011360Y007753D03*
X012440Y007753D03*
X013520Y007753D03*
X014600Y007753D03*
X015680Y007753D03*
X016760Y007753D03*
X016220Y006633D03*
X015140Y006633D03*
X014060Y006633D03*
X012980Y006633D03*
X011900Y006633D03*
X010820Y006633D03*
X009740Y006633D03*
X009669Y009222D03*
X011360Y009222D03*
X005869Y009122D03*
X020769Y005422D03*
X025429Y009437D03*
X026429Y009437D03*
X027429Y009437D03*
X028429Y009437D03*
X029429Y009437D03*
X030429Y009437D03*
X031429Y009437D03*
X032429Y009437D03*
X033429Y009437D03*
X034429Y009437D03*
X052110Y007795D03*
X053110Y007795D03*
X054110Y007795D03*
X055110Y007795D03*
X034429Y018492D03*
X033429Y018492D03*
X032429Y018492D03*
X031429Y018492D03*
X030429Y018492D03*
X029429Y018492D03*
X028429Y018492D03*
X027429Y018492D03*
X026429Y018492D03*
X025429Y018492D03*
D15*
X019540Y007193D03*
X006420Y007193D03*
D16*
X003885Y004286D02*
X003820Y004262D01*
X026471Y004262D01*
X026406Y004286D01*
X026251Y004358D01*
X026104Y004443D01*
X025964Y004541D01*
X025834Y004650D01*
X025713Y004771D01*
X025604Y004901D01*
X025506Y005041D01*
X025421Y005189D01*
X025349Y005343D01*
X025290Y005503D01*
X025246Y005668D01*
X025217Y005836D01*
X025202Y006005D01*
X025202Y006011D01*
X027073Y006011D01*
X027073Y006171D01*
X025202Y006171D01*
X025202Y006176D01*
X025217Y006346D01*
X025246Y006514D01*
X025290Y006678D01*
X025349Y006838D01*
X025421Y006993D01*
X025506Y007140D01*
X025604Y007280D01*
X025713Y007410D01*
X025834Y007531D01*
X025964Y007641D01*
X026104Y007738D01*
X026251Y007823D01*
X026406Y007895D01*
X026566Y007954D01*
X026731Y007998D01*
X026898Y008027D01*
X027068Y008042D01*
X027073Y008042D01*
X027073Y006171D01*
X027233Y006171D01*
X027233Y008042D01*
X027239Y008042D01*
X027408Y008027D01*
X027576Y007998D01*
X027741Y007954D01*
X027901Y007895D01*
X028055Y007823D01*
X028203Y007738D01*
X028343Y007641D01*
X028473Y007531D01*
X028594Y007410D01*
X028703Y007280D01*
X028801Y007140D01*
X028886Y006993D01*
X028958Y006838D01*
X029016Y006678D01*
X029049Y006556D01*
X029082Y006678D01*
X029140Y006838D01*
X029212Y006993D01*
X029297Y007140D01*
X029395Y007280D01*
X029504Y007410D01*
X029625Y007531D01*
X029755Y007641D01*
X029895Y007738D01*
X030043Y007823D01*
X030197Y007895D01*
X030357Y007954D01*
X030522Y007998D01*
X030690Y008027D01*
X030859Y008042D01*
X030865Y008042D01*
X030865Y006171D01*
X031025Y006171D01*
X031025Y008042D01*
X031030Y008042D01*
X031200Y008027D01*
X031368Y007998D01*
X031532Y007954D01*
X031692Y007895D01*
X031847Y007823D01*
X031994Y007738D01*
X032134Y007641D01*
X032264Y007531D01*
X032385Y007410D01*
X032495Y007280D01*
X032592Y007140D01*
X032677Y006993D01*
X032749Y006838D01*
X032808Y006678D01*
X032852Y006514D01*
X032881Y006346D01*
X032896Y006176D01*
X032896Y006171D01*
X031025Y006171D01*
X031025Y006011D01*
X032896Y006011D01*
X032896Y006005D01*
X032881Y005836D01*
X032852Y005668D01*
X032808Y005503D01*
X032749Y005343D01*
X032677Y005189D01*
X032592Y005041D01*
X032495Y004901D01*
X032385Y004771D01*
X032264Y004650D01*
X032134Y004541D01*
X031994Y004443D01*
X031847Y004358D01*
X031692Y004286D01*
X031627Y004262D01*
X047180Y004262D01*
X047114Y004286D01*
X046960Y004358D01*
X046812Y004443D01*
X046673Y004541D01*
X046542Y004650D01*
X046422Y004771D01*
X046312Y004901D01*
X046214Y005041D01*
X046129Y005189D01*
X046057Y005343D01*
X045999Y005503D01*
X045955Y005668D01*
X045925Y005836D01*
X045910Y006005D01*
X045910Y006011D01*
X047782Y006011D01*
X047782Y006171D01*
X047782Y008042D01*
X047777Y008042D01*
X047607Y008027D01*
X047439Y007998D01*
X047275Y007954D01*
X047114Y007895D01*
X046960Y007823D01*
X046812Y007738D01*
X046673Y007641D01*
X046542Y007531D01*
X046422Y007410D01*
X046312Y007280D01*
X046214Y007140D01*
X046129Y006993D01*
X046057Y006838D01*
X045999Y006678D01*
X045955Y006514D01*
X045925Y006346D01*
X045910Y006176D01*
X045910Y006171D01*
X047782Y006171D01*
X047942Y006171D01*
X047942Y008042D01*
X047947Y008042D01*
X048117Y008027D01*
X048285Y007998D01*
X048449Y007954D01*
X048610Y007895D01*
X048764Y007823D01*
X048912Y007738D01*
X049051Y007641D01*
X049182Y007531D01*
X049302Y007410D01*
X049412Y007280D01*
X049510Y007140D01*
X049595Y006993D01*
X049667Y006838D01*
X049725Y006678D01*
X049769Y006514D01*
X049799Y006346D01*
X049814Y006176D01*
X049814Y006171D01*
X047942Y006171D01*
X047942Y006011D01*
X049814Y006011D01*
X049814Y006005D01*
X049799Y005836D01*
X049769Y005668D01*
X049725Y005503D01*
X049667Y005343D01*
X049595Y005189D01*
X049510Y005041D01*
X049412Y004901D01*
X049302Y004771D01*
X049182Y004650D01*
X049051Y004541D01*
X048912Y004443D01*
X048764Y004358D01*
X048610Y004286D01*
X048544Y004262D01*
X061904Y004262D01*
X061839Y004286D01*
X061684Y004358D01*
X061537Y004443D01*
X061397Y004541D01*
X061267Y004650D01*
X061146Y004771D01*
X061037Y004901D01*
X060939Y005041D01*
X060854Y005189D01*
X060782Y005343D01*
X060723Y005503D01*
X060679Y005668D01*
X060650Y005836D01*
X060635Y006005D01*
X060635Y006011D01*
X062506Y006011D01*
X062506Y006171D01*
X060635Y006171D01*
X060635Y006176D01*
X060650Y006346D01*
X060679Y006514D01*
X060723Y006678D01*
X060782Y006838D01*
X060854Y006993D01*
X060939Y007140D01*
X061037Y007280D01*
X061146Y007410D01*
X061267Y007531D01*
X061397Y007641D01*
X061537Y007738D01*
X061684Y007823D01*
X061839Y007895D01*
X061999Y007954D01*
X062164Y007998D01*
X062331Y008027D01*
X062501Y008042D01*
X062506Y008042D01*
X062506Y006171D01*
X062666Y006171D01*
X062666Y008042D01*
X062672Y008042D01*
X062841Y008027D01*
X063009Y007998D01*
X063174Y007954D01*
X063334Y007895D01*
X063488Y007823D01*
X063636Y007738D01*
X063776Y007641D01*
X063906Y007531D01*
X064027Y007410D01*
X064136Y007280D01*
X064234Y007140D01*
X064319Y006993D01*
X064391Y006838D01*
X064415Y006773D01*
X064415Y009589D01*
X062426Y009589D01*
X062125Y009589D01*
X061835Y009666D01*
X061728Y009729D01*
X061275Y009729D01*
X061275Y010181D01*
X061213Y010288D01*
X061135Y010578D01*
X061135Y012512D01*
X061020Y012415D01*
X060880Y012317D01*
X060733Y012232D01*
X060578Y012160D01*
X060418Y012102D01*
X060253Y012058D01*
X060086Y012028D01*
X059916Y012013D01*
X059910Y012013D01*
X059910Y013885D01*
X059751Y013885D01*
X059751Y012013D01*
X059745Y012013D01*
X059576Y012028D01*
X059408Y012058D01*
X059243Y012102D01*
X059083Y012160D01*
X058929Y012232D01*
X058781Y012317D01*
X058641Y012415D01*
X058511Y012524D01*
X058390Y012645D01*
X058281Y012775D01*
X058183Y012915D01*
X058098Y013063D01*
X058026Y013217D01*
X057967Y013377D01*
X057923Y013542D01*
X057894Y013710D01*
X057879Y013879D01*
X057879Y013885D01*
X059750Y013885D01*
X059750Y014045D01*
X057879Y014045D01*
X057879Y014050D01*
X057894Y014220D01*
X057923Y014388D01*
X057967Y014552D01*
X058026Y014712D01*
X058098Y014867D01*
X058183Y015014D01*
X058281Y015154D01*
X058390Y015284D01*
X058511Y015405D01*
X058641Y015515D01*
X058781Y015612D01*
X058929Y015697D01*
X059083Y015769D01*
X059243Y015828D01*
X059408Y015872D01*
X059576Y015901D01*
X059745Y015916D01*
X059751Y015916D01*
X059751Y014045D01*
X059910Y014045D01*
X059910Y015916D01*
X059916Y015916D01*
X060086Y015901D01*
X060253Y015872D01*
X060418Y015828D01*
X060578Y015769D01*
X060733Y015697D01*
X060880Y015612D01*
X061020Y015515D01*
X061135Y015417D01*
X061135Y017366D01*
X061135Y017666D01*
X061213Y017956D01*
X061275Y018064D01*
X061275Y018516D01*
X061728Y018516D01*
X061835Y018578D01*
X062125Y018656D01*
X064415Y018656D01*
X064415Y021156D01*
X064391Y021091D01*
X064319Y020937D01*
X064234Y020789D01*
X064136Y020649D01*
X064027Y020519D01*
X063906Y020398D01*
X063776Y020289D01*
X063636Y020191D01*
X063488Y020106D01*
X063334Y020034D01*
X063174Y019976D01*
X063009Y019932D01*
X062841Y019902D01*
X062672Y019887D01*
X062666Y019887D01*
X062666Y021759D01*
X062506Y021759D01*
X060635Y021759D01*
X060635Y021754D01*
X060650Y021584D01*
X060679Y021416D01*
X060723Y021251D01*
X060782Y021091D01*
X060854Y020937D01*
X060939Y020789D01*
X061037Y020649D01*
X061146Y020519D01*
X061267Y020398D01*
X061397Y020289D01*
X061537Y020191D01*
X061684Y020106D01*
X061839Y020034D01*
X061999Y019976D01*
X062164Y019932D01*
X062331Y019902D01*
X062501Y019887D01*
X062506Y019887D01*
X062506Y021759D01*
X062506Y021919D01*
X060635Y021919D01*
X060635Y021924D01*
X060650Y022094D01*
X060679Y022262D01*
X060723Y022426D01*
X060782Y022586D01*
X060854Y022741D01*
X060939Y022888D01*
X061037Y023028D01*
X061146Y023159D01*
X061267Y023279D01*
X061397Y023389D01*
X061537Y023486D01*
X061684Y023571D01*
X061822Y023636D01*
X048626Y023636D01*
X048764Y023571D01*
X048912Y023486D01*
X049051Y023389D01*
X049182Y023279D01*
X049302Y023159D01*
X049412Y023028D01*
X049510Y022888D01*
X049595Y022741D01*
X049667Y022586D01*
X049725Y022426D01*
X049769Y022262D01*
X049799Y022094D01*
X049814Y021924D01*
X049814Y021919D01*
X047942Y021919D01*
X047942Y021759D01*
X049814Y021759D01*
X049814Y021754D01*
X049799Y021584D01*
X049769Y021416D01*
X049725Y021251D01*
X049667Y021091D01*
X049595Y020937D01*
X049510Y020789D01*
X049412Y020649D01*
X049302Y020519D01*
X049182Y020398D01*
X049051Y020289D01*
X048912Y020191D01*
X048764Y020106D01*
X048610Y020034D01*
X048449Y019976D01*
X048285Y019932D01*
X048117Y019902D01*
X047947Y019887D01*
X047942Y019887D01*
X047942Y021759D01*
X047782Y021759D01*
X045910Y021759D01*
X045910Y021754D01*
X045925Y021584D01*
X045955Y021416D01*
X045999Y021251D01*
X046057Y021091D01*
X046129Y020937D01*
X046214Y020789D01*
X046312Y020649D01*
X046422Y020519D01*
X046542Y020398D01*
X046673Y020289D01*
X046812Y020191D01*
X046960Y020106D01*
X047114Y020034D01*
X047275Y019976D01*
X047439Y019932D01*
X047607Y019902D01*
X047777Y019887D01*
X047782Y019887D01*
X047782Y021759D01*
X047782Y021919D01*
X045910Y021919D01*
X045910Y021924D01*
X045925Y022094D01*
X045955Y022262D01*
X045999Y022426D01*
X046057Y022586D01*
X046129Y022741D01*
X046214Y022888D01*
X046312Y023028D01*
X046422Y023159D01*
X046542Y023279D01*
X046673Y023389D01*
X046812Y023486D01*
X046960Y023571D01*
X047098Y023636D01*
X031709Y023636D01*
X031847Y023571D01*
X031994Y023486D01*
X032134Y023389D01*
X032264Y023279D01*
X032385Y023159D01*
X032495Y023028D01*
X032592Y022888D01*
X032677Y022741D01*
X032749Y022586D01*
X032808Y022426D01*
X032852Y022262D01*
X032881Y022094D01*
X032896Y021924D01*
X032896Y021919D01*
X031025Y021919D01*
X031025Y021759D01*
X032896Y021759D01*
X032896Y021754D01*
X032881Y021584D01*
X032852Y021416D01*
X032808Y021251D01*
X032749Y021091D01*
X032677Y020937D01*
X032592Y020789D01*
X032495Y020649D01*
X032385Y020519D01*
X032264Y020398D01*
X032134Y020289D01*
X031994Y020191D01*
X031847Y020106D01*
X031692Y020034D01*
X031532Y019976D01*
X031368Y019932D01*
X031200Y019902D01*
X031030Y019887D01*
X031025Y019887D01*
X031025Y021759D01*
X030865Y021759D01*
X028993Y021759D01*
X027234Y021759D01*
X027234Y021919D01*
X028993Y021919D01*
X030865Y021919D01*
X030865Y021759D01*
X030865Y019887D01*
X030859Y019887D01*
X030690Y019902D01*
X030522Y019932D01*
X030357Y019976D01*
X030197Y020034D01*
X030043Y020106D01*
X029895Y020191D01*
X029755Y020289D01*
X029625Y020398D01*
X029504Y020519D01*
X029395Y020649D01*
X029297Y020789D01*
X029212Y020937D01*
X029140Y021091D01*
X029082Y021251D01*
X029049Y021373D01*
X029016Y021251D01*
X028958Y021091D01*
X028886Y020937D01*
X028801Y020789D01*
X028703Y020649D01*
X028594Y020519D01*
X028473Y020398D01*
X028343Y020289D01*
X028203Y020191D01*
X028055Y020106D01*
X027901Y020034D01*
X027741Y019976D01*
X027576Y019932D01*
X027408Y019902D01*
X027239Y019887D01*
X027233Y019887D01*
X027233Y021759D01*
X027073Y021759D01*
X025202Y021759D01*
X025202Y021754D01*
X025217Y021584D01*
X025246Y021416D01*
X025290Y021251D01*
X025349Y021091D01*
X025421Y020937D01*
X025506Y020789D01*
X025604Y020649D01*
X025713Y020519D01*
X025834Y020398D01*
X025964Y020289D01*
X026104Y020191D01*
X026251Y020106D01*
X026406Y020034D01*
X026566Y019976D01*
X026731Y019932D01*
X026898Y019902D01*
X027068Y019887D01*
X027073Y019887D01*
X027073Y021759D01*
X027073Y021919D01*
X025202Y021919D01*
X025202Y021924D01*
X025217Y022094D01*
X025246Y022262D01*
X025290Y022426D01*
X025349Y022586D01*
X025421Y022741D01*
X025506Y022888D01*
X025604Y023028D01*
X025713Y023159D01*
X025834Y023279D01*
X025964Y023389D01*
X026104Y023486D01*
X026251Y023571D01*
X026389Y023636D01*
X003902Y023636D01*
X004040Y023571D01*
X004187Y023486D01*
X004327Y023389D01*
X004457Y023279D01*
X004578Y023159D01*
X004687Y023028D01*
X004785Y022888D01*
X004870Y022741D01*
X004942Y022586D01*
X005001Y022426D01*
X005045Y022262D01*
X005074Y022094D01*
X005089Y021924D01*
X005089Y021919D01*
X003218Y021919D01*
X003218Y021759D01*
X005089Y021759D01*
X005089Y021754D01*
X005074Y021584D01*
X005045Y021416D01*
X005001Y021251D01*
X004942Y021091D01*
X004870Y020937D01*
X004785Y020789D01*
X004687Y020649D01*
X004578Y020519D01*
X004457Y020398D01*
X004327Y020289D01*
X004187Y020191D01*
X004040Y020106D01*
X003885Y020034D01*
X003725Y019976D01*
X003560Y019932D01*
X003393Y019902D01*
X003223Y019887D01*
X003218Y019887D01*
X003218Y021759D01*
X003058Y021759D01*
X003058Y019887D01*
X003052Y019887D01*
X002883Y019902D01*
X002715Y019932D01*
X002550Y019976D01*
X002390Y020034D01*
X002236Y020106D01*
X002088Y020191D01*
X001948Y020289D01*
X001818Y020398D01*
X001697Y020519D01*
X001588Y020649D01*
X001490Y020789D01*
X001405Y020937D01*
X001333Y021091D01*
X001309Y021156D01*
X001309Y006773D01*
X001333Y006838D01*
X001405Y006993D01*
X001490Y007140D01*
X001588Y007280D01*
X001697Y007410D01*
X001818Y007531D01*
X001948Y007641D01*
X002088Y007738D01*
X002236Y007823D01*
X002390Y007895D01*
X002550Y007954D01*
X002715Y007998D01*
X002883Y008027D01*
X003052Y008042D01*
X003058Y008042D01*
X003058Y006171D01*
X003218Y006171D01*
X005089Y006171D01*
X005089Y006176D01*
X005074Y006346D01*
X005045Y006514D01*
X005001Y006678D01*
X004942Y006838D01*
X004870Y006993D01*
X004785Y007140D01*
X004687Y007280D01*
X004578Y007410D01*
X004457Y007531D01*
X004327Y007641D01*
X004187Y007738D01*
X004040Y007823D01*
X003885Y007895D01*
X003725Y007954D01*
X003560Y007998D01*
X003393Y008027D01*
X003223Y008042D01*
X003218Y008042D01*
X003218Y006171D01*
X003218Y006011D01*
X005089Y006011D01*
X005089Y006005D01*
X005074Y005836D01*
X005045Y005668D01*
X005001Y005503D01*
X004942Y005343D01*
X004870Y005189D01*
X004785Y005041D01*
X004687Y004901D01*
X004578Y004771D01*
X004457Y004650D01*
X004327Y004541D01*
X004187Y004443D01*
X004040Y004358D01*
X003885Y004286D01*
X003871Y004281D02*
X026420Y004281D01*
X026110Y004439D02*
X004181Y004439D01*
X004395Y004598D02*
X025896Y004598D01*
X025728Y004756D02*
X004563Y004756D01*
X004697Y004915D02*
X008300Y004915D01*
X008318Y004897D02*
X008546Y004802D01*
X010546Y004802D01*
X020567Y004802D01*
X020640Y004772D01*
X020898Y004772D01*
X021137Y004871D01*
X021320Y005054D01*
X021419Y005293D01*
X021419Y005551D01*
X021320Y005790D01*
X021137Y005973D01*
X020898Y006072D01*
X020640Y006072D01*
X020567Y006042D01*
X019800Y006042D01*
X019867Y006057D01*
X019992Y006101D01*
X020112Y006159D01*
X020224Y006229D01*
X020328Y006312D01*
X020421Y006406D01*
X020504Y006509D01*
X020575Y006621D01*
X020632Y006741D01*
X020676Y006866D01*
X020705Y006995D01*
X020719Y007113D01*
X019620Y007113D01*
X019620Y007273D01*
X019460Y007273D01*
X019460Y007113D01*
X018362Y007113D01*
X018375Y006995D01*
X018404Y006866D01*
X018448Y006741D01*
X018506Y006621D01*
X018576Y006509D01*
X018659Y006406D01*
X018753Y006312D01*
X018856Y006229D01*
X018968Y006159D01*
X019088Y006101D01*
X019213Y006057D01*
X019280Y006042D01*
X017720Y006042D01*
X017720Y008457D01*
X017671Y008574D01*
X017581Y008664D01*
X017464Y008713D01*
X016080Y008713D01*
X016080Y010079D01*
X016176Y009983D01*
X016366Y009904D01*
X016572Y009904D01*
X016763Y009983D01*
X016908Y010129D01*
X016987Y010319D01*
X016987Y010525D01*
X016908Y010716D01*
X016869Y010755D01*
X016869Y012656D01*
X019735Y015522D01*
X021836Y015522D01*
X021876Y015483D01*
X022066Y015404D01*
X022272Y015404D01*
X022463Y015483D01*
X022608Y015629D01*
X022687Y015819D01*
X022687Y015883D01*
X023035Y015535D01*
X023147Y015422D01*
X023294Y015361D01*
X024051Y015361D01*
X024051Y015233D01*
X024130Y015043D01*
X024275Y014897D01*
X024466Y014818D01*
X024672Y014818D01*
X024862Y014897D01*
X024902Y014936D01*
X025468Y014936D01*
X029647Y010757D01*
X024365Y010757D01*
X024248Y010708D01*
X024158Y010618D01*
X024109Y010501D01*
X024109Y008373D01*
X024158Y008256D01*
X024248Y008166D01*
X024365Y008117D01*
X035493Y008117D01*
X035610Y008166D01*
X035700Y008256D01*
X035749Y008373D01*
X035749Y010501D01*
X035700Y010618D01*
X035610Y010708D01*
X035493Y010757D01*
X033300Y010757D01*
X029203Y014854D01*
X029347Y014854D01*
X029537Y014933D01*
X029577Y014972D01*
X033461Y014972D01*
X033500Y014933D01*
X033691Y014854D01*
X033897Y014854D01*
X034087Y014933D01*
X034233Y015079D01*
X034312Y015269D01*
X034312Y015475D01*
X034233Y015666D01*
X034087Y015811D01*
X033897Y015890D01*
X033691Y015890D01*
X033500Y015811D01*
X033461Y015772D01*
X033303Y015772D01*
X033364Y015919D01*
X033364Y016126D01*
X033285Y016317D01*
X032429Y017172D01*
X035493Y017172D01*
X035610Y017221D01*
X035700Y017311D01*
X035749Y017429D01*
X035749Y019556D01*
X035700Y019674D01*
X035610Y019764D01*
X035493Y019812D01*
X024365Y019812D01*
X024248Y019764D01*
X024158Y019674D01*
X024109Y019556D01*
X024109Y018153D01*
X021938Y020323D01*
X021747Y020403D01*
X021540Y020403D01*
X014898Y020403D01*
X014691Y020403D01*
X014500Y020323D01*
X014353Y020177D01*
X014274Y019986D01*
X014274Y017894D01*
X014353Y017703D01*
X014500Y017556D01*
X015875Y016181D01*
X016010Y016125D01*
X013181Y013296D01*
X013169Y013267D01*
X013169Y015499D01*
X013278Y015608D01*
X013357Y015798D01*
X013357Y016005D01*
X013278Y016195D01*
X013133Y016341D01*
X012942Y016420D01*
X012736Y016420D01*
X012546Y016341D01*
X012400Y016195D01*
X012321Y016005D01*
X012321Y015798D01*
X012369Y015682D01*
X012369Y010343D01*
X012430Y010196D01*
X012543Y010083D01*
X012551Y010075D01*
X012551Y010019D01*
X012630Y009829D01*
X012776Y009683D01*
X012966Y009604D01*
X013120Y009604D01*
X013120Y008713D01*
X010189Y008713D01*
X010189Y008823D01*
X010220Y008854D01*
X010319Y009093D01*
X010319Y009351D01*
X010220Y009590D01*
X010189Y009621D01*
X010189Y012719D01*
X010189Y012926D01*
X010110Y013117D01*
X008864Y014363D01*
X008673Y014442D01*
X008466Y014442D01*
X004390Y014442D01*
X004390Y014674D01*
X004311Y014866D01*
X004165Y015012D01*
X003974Y015091D01*
X003767Y015091D01*
X003576Y015012D01*
X003429Y014866D01*
X003350Y014674D01*
X003350Y014068D01*
X003429Y013876D01*
X003576Y013730D01*
X003825Y013481D01*
X004016Y013402D01*
X004223Y013402D01*
X008354Y013402D01*
X009149Y012607D01*
X009149Y009621D01*
X009118Y009590D01*
X009019Y009351D01*
X009019Y009093D01*
X009118Y008854D01*
X009149Y008823D01*
X009149Y008713D01*
X008714Y008713D01*
X008714Y008774D01*
X008714Y009021D01*
X008619Y009249D01*
X008395Y009473D01*
X008220Y009648D01*
X007992Y009742D01*
X006071Y009742D01*
X005998Y009772D01*
X005740Y009772D01*
X005501Y009673D01*
X005318Y009490D01*
X005219Y009251D01*
X005219Y008993D01*
X005318Y008754D01*
X005501Y008571D01*
X005740Y008472D01*
X005998Y008472D01*
X006071Y008502D01*
X007474Y008502D01*
X007474Y007725D01*
X007455Y007765D01*
X007384Y007877D01*
X007301Y007981D01*
X007208Y008074D01*
X007104Y008157D01*
X006992Y008227D01*
X006872Y008285D01*
X006747Y008329D01*
X006618Y008358D01*
X006500Y008371D01*
X006500Y007273D01*
X006340Y007273D01*
X006340Y007113D01*
X005242Y007113D01*
X005255Y006995D01*
X005284Y006866D01*
X005328Y006741D01*
X005386Y006621D01*
X005456Y006509D01*
X005539Y006406D01*
X005633Y006312D01*
X005736Y006229D01*
X005848Y006159D01*
X005968Y006101D01*
X006093Y006057D01*
X006222Y006028D01*
X006340Y006015D01*
X006340Y007113D01*
X006500Y007113D01*
X006500Y006015D01*
X006618Y006028D01*
X006747Y006057D01*
X006872Y006101D01*
X006992Y006159D01*
X007104Y006229D01*
X007208Y006312D01*
X007301Y006406D01*
X007384Y006509D01*
X007455Y006621D01*
X007474Y006661D01*
X007474Y005874D01*
X007568Y005647D01*
X007742Y005472D01*
X007742Y005472D01*
X008144Y005071D01*
X008318Y004897D01*
X008144Y005071D02*
X008144Y005071D01*
X008141Y005073D02*
X004804Y005073D01*
X004891Y005232D02*
X007983Y005232D01*
X007824Y005391D02*
X004960Y005391D01*
X005013Y005549D02*
X007665Y005549D01*
X007543Y005708D02*
X005052Y005708D01*
X005077Y005866D02*
X007477Y005866D01*
X007474Y006025D02*
X006590Y006025D01*
X006500Y006025D02*
X006340Y006025D01*
X006250Y006025D02*
X003218Y006025D01*
X003218Y006183D02*
X003058Y006183D01*
X003058Y006342D02*
X003218Y006342D01*
X003218Y006500D02*
X003058Y006500D01*
X003058Y006659D02*
X003218Y006659D01*
X003218Y006817D02*
X003058Y006817D01*
X003058Y006976D02*
X003218Y006976D01*
X003218Y007135D02*
X003058Y007135D01*
X003058Y007293D02*
X003218Y007293D01*
X003218Y007452D02*
X003058Y007452D01*
X003058Y007610D02*
X003218Y007610D01*
X003218Y007769D02*
X003058Y007769D01*
X003058Y007927D02*
X003218Y007927D01*
X003798Y007927D02*
X005496Y007927D01*
X005456Y007877D02*
X005386Y007765D01*
X005328Y007645D01*
X005284Y007520D01*
X005255Y007391D01*
X005242Y007273D01*
X006340Y007273D01*
X006340Y008371D01*
X006222Y008358D01*
X006093Y008329D01*
X005968Y008285D01*
X005848Y008227D01*
X005736Y008157D01*
X005633Y008074D01*
X005539Y007981D01*
X005456Y007877D01*
X005388Y007769D02*
X004135Y007769D01*
X004363Y007610D02*
X005316Y007610D01*
X005269Y007452D02*
X004537Y007452D01*
X004676Y007293D02*
X005244Y007293D01*
X004789Y007135D02*
X006340Y007135D01*
X006340Y007293D02*
X006500Y007293D01*
X006500Y007452D02*
X006340Y007452D01*
X006340Y007610D02*
X006500Y007610D01*
X006500Y007769D02*
X006340Y007769D01*
X006340Y007927D02*
X006500Y007927D01*
X006500Y008086D02*
X006340Y008086D01*
X006340Y008244D02*
X006500Y008244D01*
X006957Y008244D02*
X007474Y008244D01*
X007474Y008086D02*
X007193Y008086D01*
X007344Y007927D02*
X007474Y007927D01*
X007474Y007769D02*
X007452Y007769D01*
X007474Y008403D02*
X001309Y008403D01*
X001309Y008561D02*
X005524Y008561D01*
X005352Y008720D02*
X001309Y008720D01*
X001309Y008879D02*
X005266Y008879D01*
X005219Y009037D02*
X001309Y009037D01*
X001309Y009196D02*
X005219Y009196D01*
X005262Y009354D02*
X001309Y009354D01*
X001309Y009513D02*
X005340Y009513D01*
X005499Y009671D02*
X001309Y009671D01*
X001309Y009830D02*
X009149Y009830D01*
X009149Y009988D02*
X001309Y009988D01*
X001309Y010147D02*
X009149Y010147D01*
X009149Y010305D02*
X001309Y010305D01*
X001309Y010464D02*
X009149Y010464D01*
X009149Y010622D02*
X001309Y010622D01*
X001309Y010781D02*
X009149Y010781D01*
X009149Y010940D02*
X001309Y010940D01*
X001309Y011098D02*
X009149Y011098D01*
X009149Y011257D02*
X001309Y011257D01*
X001309Y011415D02*
X009149Y011415D01*
X009149Y011574D02*
X001309Y011574D01*
X001309Y011732D02*
X009149Y011732D01*
X009149Y011891D02*
X001309Y011891D01*
X001309Y012049D02*
X009149Y012049D01*
X009149Y012208D02*
X001309Y012208D01*
X001309Y012366D02*
X009149Y012366D01*
X009149Y012525D02*
X001309Y012525D01*
X001309Y012684D02*
X009072Y012684D01*
X008914Y012842D02*
X001309Y012842D01*
X001309Y013001D02*
X008755Y013001D01*
X008597Y013159D02*
X001309Y013159D01*
X001309Y013318D02*
X008438Y013318D01*
X009275Y013952D02*
X012369Y013952D01*
X012369Y014110D02*
X009116Y014110D01*
X008958Y014269D02*
X012369Y014269D01*
X012369Y014428D02*
X008708Y014428D01*
X009433Y013793D02*
X012369Y013793D01*
X012369Y013635D02*
X009592Y013635D01*
X009750Y013476D02*
X012369Y013476D01*
X012369Y013318D02*
X009909Y013318D01*
X010067Y013159D02*
X012369Y013159D01*
X012369Y013001D02*
X010158Y013001D01*
X010189Y012842D02*
X012369Y012842D01*
X012369Y012684D02*
X010189Y012684D01*
X010189Y012525D02*
X012369Y012525D01*
X012369Y012366D02*
X010189Y012366D01*
X010189Y012208D02*
X012369Y012208D01*
X012369Y012049D02*
X010189Y012049D01*
X010189Y011891D02*
X012369Y011891D01*
X012369Y011732D02*
X010189Y011732D01*
X010189Y011574D02*
X012369Y011574D01*
X012369Y011415D02*
X010189Y011415D01*
X010189Y011257D02*
X012369Y011257D01*
X012369Y011098D02*
X010189Y011098D01*
X010189Y010940D02*
X012369Y010940D01*
X012369Y010781D02*
X010189Y010781D01*
X010189Y010622D02*
X012369Y010622D01*
X012369Y010464D02*
X010189Y010464D01*
X010189Y010305D02*
X012385Y010305D01*
X012479Y010147D02*
X010189Y010147D01*
X010189Y009988D02*
X012564Y009988D01*
X012629Y009830D02*
X010189Y009830D01*
X010189Y009671D02*
X012804Y009671D01*
X013120Y009513D02*
X010252Y009513D01*
X010318Y009354D02*
X013120Y009354D01*
X013120Y009196D02*
X010319Y009196D01*
X010296Y009037D02*
X013120Y009037D01*
X013120Y008879D02*
X010230Y008879D01*
X010189Y008720D02*
X013120Y008720D01*
X012980Y009222D02*
X011360Y009222D01*
X012980Y009222D02*
X012980Y006633D01*
X013520Y007753D02*
X013520Y013069D01*
X018039Y017588D01*
X018169Y017588D01*
X018169Y018678D01*
X018041Y018678D01*
X017559Y018867D02*
X015314Y018867D01*
X015314Y019025D02*
X017656Y019025D01*
X017602Y018972D02*
X017523Y018781D01*
X017523Y018575D01*
X017602Y018385D01*
X017748Y018239D01*
X017769Y018230D01*
X017769Y017884D01*
X017699Y017814D01*
X016666Y016781D01*
X016610Y016917D01*
X015314Y018213D01*
X015314Y019363D01*
X021429Y019363D01*
X022804Y017988D01*
X018569Y017988D01*
X018569Y018758D01*
X018560Y018781D01*
X018560Y018781D01*
X018481Y018972D01*
X018335Y019118D01*
X018145Y019196D01*
X017938Y019196D01*
X017748Y019118D01*
X017602Y018972D01*
X017908Y019184D02*
X015314Y019184D01*
X015314Y019342D02*
X021449Y019342D01*
X021607Y019184D02*
X018175Y019184D01*
X018427Y019025D02*
X021766Y019025D01*
X021924Y018867D02*
X018524Y018867D01*
X018569Y018708D02*
X022083Y018708D01*
X022242Y018550D02*
X018569Y018550D01*
X018569Y018391D02*
X022400Y018391D01*
X022559Y018233D02*
X018569Y018233D01*
X018569Y018074D02*
X022717Y018074D01*
X022735Y017588D02*
X018169Y017588D01*
X017769Y017915D02*
X015611Y017915D01*
X015770Y017757D02*
X017642Y017757D01*
X017484Y017598D02*
X015928Y017598D01*
X016087Y017440D02*
X017325Y017440D01*
X017167Y017281D02*
X016245Y017281D01*
X016404Y017123D02*
X017008Y017123D01*
X016849Y016964D02*
X016562Y016964D01*
X016656Y016806D02*
X016691Y016806D01*
X015726Y016330D02*
X013143Y016330D01*
X013288Y016171D02*
X015898Y016171D01*
X015898Y016013D02*
X013354Y016013D01*
X013357Y015854D02*
X015740Y015854D01*
X015581Y015696D02*
X013315Y015696D01*
X013208Y015537D02*
X015423Y015537D01*
X015264Y015379D02*
X013169Y015379D01*
X013169Y015220D02*
X015105Y015220D01*
X014947Y015062D02*
X013169Y015062D01*
X013169Y014903D02*
X014788Y014903D01*
X014630Y014745D02*
X013169Y014745D01*
X013169Y014586D02*
X014471Y014586D01*
X014313Y014428D02*
X013169Y014428D01*
X013169Y014269D02*
X014154Y014269D01*
X013996Y014110D02*
X013169Y014110D01*
X013169Y013952D02*
X013837Y013952D01*
X013679Y013793D02*
X013169Y013793D01*
X013169Y013635D02*
X013520Y013635D01*
X013361Y013476D02*
X013169Y013476D01*
X013169Y013318D02*
X013203Y013318D01*
X013920Y012904D02*
X014200Y013184D01*
X014200Y008713D01*
X013920Y008713D01*
X013920Y012904D01*
X013920Y012842D02*
X014200Y012842D01*
X014200Y012684D02*
X013920Y012684D01*
X013920Y012525D02*
X014200Y012525D01*
X014200Y012366D02*
X013920Y012366D01*
X013920Y012208D02*
X014200Y012208D01*
X014200Y012049D02*
X013920Y012049D01*
X013920Y011891D02*
X014200Y011891D01*
X014200Y011732D02*
X013920Y011732D01*
X013920Y011574D02*
X014200Y011574D01*
X014200Y011415D02*
X013920Y011415D01*
X013920Y011257D02*
X014200Y011257D01*
X014200Y011098D02*
X013920Y011098D01*
X013920Y010940D02*
X014200Y010940D01*
X014200Y010781D02*
X013920Y010781D01*
X013920Y010622D02*
X014200Y010622D01*
X014200Y010464D02*
X013920Y010464D01*
X013920Y010305D02*
X014200Y010305D01*
X014200Y010147D02*
X013920Y010147D01*
X013920Y009988D02*
X014200Y009988D01*
X014200Y009830D02*
X013920Y009830D01*
X013920Y009671D02*
X014200Y009671D01*
X014200Y009513D02*
X013920Y009513D01*
X013920Y009354D02*
X014200Y009354D01*
X014200Y009196D02*
X013920Y009196D01*
X013920Y009037D02*
X014200Y009037D01*
X014200Y008879D02*
X013920Y008879D01*
X013920Y008720D02*
X014200Y008720D01*
X015000Y008720D02*
X015280Y008720D01*
X015280Y008713D02*
X015000Y008713D01*
X015000Y013087D01*
X015280Y013367D01*
X015280Y008713D01*
X015280Y008879D02*
X015000Y008879D01*
X015000Y009037D02*
X015280Y009037D01*
X015280Y009196D02*
X015000Y009196D01*
X015000Y009354D02*
X015280Y009354D01*
X015280Y009513D02*
X015000Y009513D01*
X015000Y009671D02*
X015280Y009671D01*
X015280Y009830D02*
X015000Y009830D01*
X015000Y009988D02*
X015280Y009988D01*
X015280Y010147D02*
X015000Y010147D01*
X015000Y010305D02*
X015280Y010305D01*
X015280Y010464D02*
X015000Y010464D01*
X015000Y010622D02*
X015280Y010622D01*
X015280Y010781D02*
X015000Y010781D01*
X015000Y010940D02*
X015280Y010940D01*
X015280Y011098D02*
X015000Y011098D01*
X015000Y011257D02*
X015280Y011257D01*
X015280Y011415D02*
X015000Y011415D01*
X015000Y011574D02*
X015280Y011574D01*
X015280Y011732D02*
X015000Y011732D01*
X015000Y011891D02*
X015280Y011891D01*
X015280Y012049D02*
X015000Y012049D01*
X015000Y012208D02*
X015280Y012208D01*
X015280Y012366D02*
X015000Y012366D01*
X015000Y012525D02*
X015280Y012525D01*
X015280Y012684D02*
X015000Y012684D01*
X015000Y012842D02*
X015280Y012842D01*
X015280Y013001D02*
X015000Y013001D01*
X015072Y013159D02*
X015280Y013159D01*
X015280Y013318D02*
X015231Y013318D01*
X015680Y013313D02*
X015680Y007753D01*
X014600Y007753D02*
X014600Y013253D01*
X018449Y017101D01*
X021664Y017101D01*
X022574Y016561D02*
X023374Y015761D01*
X026033Y015761D01*
X031429Y010366D01*
X031429Y009437D01*
X030429Y009437D02*
X030429Y010541D01*
X025633Y015336D01*
X024569Y015336D01*
X024122Y015062D02*
X019274Y015062D01*
X019433Y015220D02*
X024056Y015220D01*
X023253Y015379D02*
X019591Y015379D01*
X019569Y015922D02*
X016469Y012822D01*
X016469Y010422D01*
X016947Y010622D02*
X024162Y010622D01*
X024109Y010464D02*
X016987Y010464D01*
X016981Y010305D02*
X024109Y010305D01*
X024109Y010147D02*
X016916Y010147D01*
X016768Y009988D02*
X024109Y009988D01*
X024109Y009830D02*
X016080Y009830D01*
X016080Y009988D02*
X016170Y009988D01*
X016080Y009671D02*
X024109Y009671D01*
X024109Y009513D02*
X016080Y009513D01*
X016080Y009354D02*
X024109Y009354D01*
X024109Y009196D02*
X016080Y009196D01*
X016080Y009037D02*
X024109Y009037D01*
X024109Y008879D02*
X016080Y008879D01*
X016080Y008720D02*
X024109Y008720D01*
X024109Y008561D02*
X017677Y008561D01*
X017720Y008403D02*
X024109Y008403D01*
X024169Y008244D02*
X020077Y008244D01*
X020112Y008227D02*
X019992Y008285D01*
X019867Y008329D01*
X019738Y008358D01*
X019620Y008371D01*
X019620Y007273D01*
X020719Y007273D01*
X020705Y007391D01*
X020676Y007520D01*
X020632Y007645D01*
X020575Y007765D01*
X020504Y007877D01*
X020421Y007981D01*
X020328Y008074D01*
X020224Y008157D01*
X020112Y008227D01*
X020313Y008086D02*
X042376Y008086D01*
X042348Y008018D02*
X042348Y007811D01*
X042427Y007620D01*
X042573Y007474D01*
X042764Y007394D01*
X042971Y007394D01*
X043068Y007434D01*
X044557Y007434D01*
X044733Y007507D01*
X044868Y007642D01*
X046868Y009642D01*
X052570Y009642D01*
X053097Y009115D01*
X051046Y009115D01*
X050929Y009067D01*
X050839Y008977D01*
X050790Y008859D01*
X050790Y006732D01*
X050839Y006614D01*
X050929Y006524D01*
X051046Y006475D01*
X056174Y006475D01*
X056291Y006524D01*
X056381Y006614D01*
X056430Y006732D01*
X056430Y008859D01*
X056381Y008977D01*
X056291Y009067D01*
X056174Y009115D01*
X054455Y009115D01*
X053176Y010394D01*
X053041Y010529D01*
X052865Y010602D01*
X046765Y010602D01*
X046574Y010602D01*
X046397Y010529D01*
X044262Y008394D01*
X043068Y008394D01*
X042971Y008434D01*
X042764Y008434D01*
X042573Y008355D01*
X042427Y008209D01*
X042348Y008018D01*
X042348Y007927D02*
X031605Y007927D01*
X031942Y007769D02*
X042365Y007769D01*
X042437Y007610D02*
X032170Y007610D01*
X032344Y007452D02*
X042626Y007452D01*
X044598Y007452D02*
X046463Y007452D01*
X046323Y007293D02*
X032484Y007293D01*
X032596Y007135D02*
X046211Y007135D01*
X046121Y006976D02*
X032685Y006976D01*
X032757Y006817D02*
X046050Y006817D01*
X045994Y006659D02*
X032813Y006659D01*
X032854Y006500D02*
X045953Y006500D01*
X045925Y006342D02*
X032882Y006342D01*
X032896Y006183D02*
X045911Y006183D01*
X045923Y005866D02*
X032884Y005866D01*
X032859Y005708D02*
X045948Y005708D01*
X045987Y005549D02*
X032820Y005549D01*
X032767Y005391D02*
X046040Y005391D01*
X046109Y005232D02*
X032698Y005232D01*
X032611Y005073D02*
X046196Y005073D01*
X046303Y004915D02*
X032504Y004915D01*
X032370Y004756D02*
X046436Y004756D01*
X046605Y004598D02*
X032202Y004598D01*
X031988Y004439D02*
X046819Y004439D01*
X047129Y004281D02*
X031678Y004281D01*
X031025Y006025D02*
X047782Y006025D01*
X047782Y006183D02*
X047942Y006183D01*
X047942Y006025D02*
X062506Y006025D01*
X062506Y006183D02*
X062666Y006183D01*
X062666Y006342D02*
X062506Y006342D01*
X062506Y006500D02*
X062666Y006500D01*
X062666Y006659D02*
X062506Y006659D01*
X062506Y006817D02*
X062666Y006817D01*
X062666Y006976D02*
X062506Y006976D01*
X062506Y007135D02*
X062666Y007135D01*
X062666Y007293D02*
X062506Y007293D01*
X062506Y007452D02*
X062666Y007452D01*
X062666Y007610D02*
X062506Y007610D01*
X062506Y007769D02*
X062666Y007769D01*
X062666Y007927D02*
X062506Y007927D01*
X061926Y007927D02*
X056430Y007927D01*
X056430Y007769D02*
X061590Y007769D01*
X061361Y007610D02*
X056430Y007610D01*
X056430Y007452D02*
X061187Y007452D01*
X061048Y007293D02*
X056430Y007293D01*
X056430Y007135D02*
X060936Y007135D01*
X060846Y006976D02*
X056430Y006976D01*
X056430Y006817D02*
X060774Y006817D01*
X060718Y006659D02*
X056400Y006659D01*
X056234Y006500D02*
X060677Y006500D01*
X060649Y006342D02*
X049799Y006342D01*
X049813Y006183D02*
X060635Y006183D01*
X060647Y005866D02*
X049801Y005866D01*
X049776Y005708D02*
X060672Y005708D01*
X060711Y005549D02*
X049737Y005549D01*
X049684Y005391D02*
X060764Y005391D01*
X060833Y005232D02*
X049615Y005232D01*
X049528Y005073D02*
X060920Y005073D01*
X061027Y004915D02*
X049421Y004915D01*
X049288Y004756D02*
X061161Y004756D01*
X061329Y004598D02*
X049119Y004598D01*
X048905Y004439D02*
X061543Y004439D01*
X061853Y004281D02*
X048595Y004281D01*
X047942Y006342D02*
X047782Y006342D01*
X047782Y006500D02*
X047942Y006500D01*
X047942Y006659D02*
X047782Y006659D01*
X047782Y006817D02*
X047942Y006817D01*
X047942Y006976D02*
X047782Y006976D01*
X047782Y007135D02*
X047942Y007135D01*
X047942Y007293D02*
X047782Y007293D01*
X047782Y007452D02*
X047942Y007452D01*
X047942Y007610D02*
X047782Y007610D01*
X047782Y007769D02*
X047942Y007769D01*
X047942Y007927D02*
X047782Y007927D01*
X047202Y007927D02*
X045153Y007927D01*
X044994Y007769D02*
X046865Y007769D01*
X046637Y007610D02*
X044836Y007610D01*
X045312Y008086D02*
X050790Y008086D01*
X050790Y008244D02*
X045470Y008244D01*
X045629Y008403D02*
X050790Y008403D01*
X050790Y008561D02*
X045787Y008561D01*
X045946Y008720D02*
X050790Y008720D01*
X050798Y008879D02*
X046104Y008879D01*
X046263Y009037D02*
X050899Y009037D01*
X052700Y009513D02*
X046738Y009513D01*
X046580Y009354D02*
X052858Y009354D01*
X053017Y009196D02*
X046421Y009196D01*
X045539Y009671D02*
X035749Y009671D01*
X035749Y009513D02*
X045381Y009513D01*
X045222Y009354D02*
X035749Y009354D01*
X035749Y009196D02*
X045064Y009196D01*
X044905Y009037D02*
X035749Y009037D01*
X035749Y008879D02*
X044747Y008879D01*
X044588Y008720D02*
X035749Y008720D01*
X035749Y008561D02*
X044430Y008561D01*
X044271Y008403D02*
X043047Y008403D01*
X042689Y008403D02*
X035749Y008403D01*
X035689Y008244D02*
X042463Y008244D01*
X045698Y009830D02*
X035749Y009830D01*
X035749Y009988D02*
X045856Y009988D01*
X046015Y010147D02*
X035749Y010147D01*
X035749Y010305D02*
X046174Y010305D01*
X046332Y010464D02*
X035749Y010464D01*
X035696Y010622D02*
X061135Y010622D01*
X061135Y010781D02*
X033276Y010781D01*
X033117Y010940D02*
X061135Y010940D01*
X061135Y011098D02*
X032959Y011098D01*
X032800Y011257D02*
X061135Y011257D01*
X061135Y011415D02*
X032642Y011415D01*
X032483Y011574D02*
X061135Y011574D01*
X061135Y011732D02*
X032325Y011732D01*
X032166Y011891D02*
X061135Y011891D01*
X061135Y012049D02*
X060207Y012049D01*
X059910Y012049D02*
X059751Y012049D01*
X059751Y012208D02*
X059910Y012208D01*
X059910Y012366D02*
X059751Y012366D01*
X059751Y012525D02*
X059910Y012525D01*
X059910Y012684D02*
X059751Y012684D01*
X059751Y012842D02*
X059910Y012842D01*
X059910Y013001D02*
X059751Y013001D01*
X059751Y013159D02*
X059910Y013159D01*
X059910Y013318D02*
X059751Y013318D01*
X059751Y013476D02*
X059910Y013476D01*
X059910Y013635D02*
X059751Y013635D01*
X059751Y013793D02*
X059910Y013793D01*
X059750Y013952D02*
X050304Y013952D01*
X050304Y013885D02*
X050304Y014045D01*
X050144Y014045D01*
X050144Y015916D01*
X050139Y015916D01*
X049969Y015901D01*
X049801Y015872D01*
X049637Y015828D01*
X049477Y015769D01*
X049322Y015697D01*
X049175Y015612D01*
X049035Y015515D01*
X048904Y015405D01*
X048784Y015284D01*
X048674Y015154D01*
X048577Y015014D01*
X048491Y014867D01*
X048419Y014712D01*
X048361Y014552D01*
X048317Y014388D01*
X048287Y014220D01*
X048273Y014050D01*
X048273Y014045D01*
X050144Y014045D01*
X050144Y013885D01*
X048273Y013885D01*
X048273Y013879D01*
X048287Y013710D01*
X048317Y013542D01*
X048361Y013377D01*
X048419Y013217D01*
X048491Y013063D01*
X048577Y012915D01*
X048674Y012775D01*
X048784Y012645D01*
X048904Y012524D01*
X049035Y012415D01*
X049175Y012317D01*
X049322Y012232D01*
X049477Y012160D01*
X049637Y012102D01*
X049801Y012058D01*
X049969Y012028D01*
X050139Y012013D01*
X050144Y012013D01*
X050144Y013885D01*
X050304Y013885D01*
X052176Y013885D01*
X052176Y013879D01*
X052161Y013710D01*
X052131Y013542D01*
X052087Y013377D01*
X052029Y013217D01*
X051957Y013063D01*
X051872Y012915D01*
X051774Y012775D01*
X051664Y012645D01*
X051544Y012524D01*
X051413Y012415D01*
X051274Y012317D01*
X051126Y012232D01*
X050972Y012160D01*
X050812Y012102D01*
X050647Y012058D01*
X050479Y012028D01*
X050309Y012013D01*
X050304Y012013D01*
X050304Y013885D01*
X050304Y013793D02*
X050144Y013793D01*
X050144Y013635D02*
X050304Y013635D01*
X050304Y013476D02*
X050144Y013476D01*
X050144Y013318D02*
X050304Y013318D01*
X050304Y013159D02*
X050144Y013159D01*
X050144Y013001D02*
X050304Y013001D01*
X050304Y012842D02*
X050144Y012842D01*
X050144Y012684D02*
X050304Y012684D01*
X050304Y012525D02*
X050144Y012525D01*
X050144Y012366D02*
X050304Y012366D01*
X050304Y012208D02*
X050144Y012208D01*
X050144Y012049D02*
X050304Y012049D01*
X050601Y012049D02*
X059454Y012049D01*
X058980Y012208D02*
X051075Y012208D01*
X051344Y012366D02*
X058710Y012366D01*
X058510Y012525D02*
X051545Y012525D01*
X051697Y012684D02*
X058358Y012684D01*
X058234Y012842D02*
X051821Y012842D01*
X051921Y013001D02*
X058134Y013001D01*
X058053Y013159D02*
X052002Y013159D01*
X052066Y013318D02*
X057989Y013318D01*
X057941Y013476D02*
X052114Y013476D01*
X052148Y013635D02*
X057907Y013635D01*
X057886Y013793D02*
X052168Y013793D01*
X052176Y014045D02*
X052176Y014050D01*
X052161Y014220D01*
X052131Y014388D01*
X052087Y014552D01*
X052029Y014712D01*
X051957Y014867D01*
X051872Y015014D01*
X051774Y015154D01*
X051664Y015284D01*
X051544Y015405D01*
X051413Y015515D01*
X051274Y015612D01*
X051126Y015697D01*
X050972Y015769D01*
X050812Y015828D01*
X050647Y015872D01*
X050479Y015901D01*
X050309Y015916D01*
X050304Y015916D01*
X050304Y014045D01*
X052176Y014045D01*
X052171Y014110D02*
X057884Y014110D01*
X057902Y014269D02*
X052152Y014269D01*
X052121Y014428D02*
X057934Y014428D01*
X057980Y014586D02*
X052075Y014586D01*
X052014Y014745D02*
X058041Y014745D01*
X058119Y014903D02*
X051936Y014903D01*
X051839Y015062D02*
X058216Y015062D01*
X058336Y015220D02*
X051718Y015220D01*
X051570Y015379D02*
X058485Y015379D01*
X058674Y015537D02*
X051381Y015537D01*
X051129Y015696D02*
X058926Y015696D01*
X059342Y015854D02*
X050712Y015854D01*
X050304Y015854D02*
X050144Y015854D01*
X050144Y015696D02*
X050304Y015696D01*
X050304Y015537D02*
X050144Y015537D01*
X050144Y015379D02*
X050304Y015379D01*
X050304Y015220D02*
X050144Y015220D01*
X050144Y015062D02*
X050304Y015062D01*
X050304Y014903D02*
X050144Y014903D01*
X050144Y014745D02*
X050304Y014745D01*
X050304Y014586D02*
X050144Y014586D01*
X050144Y014428D02*
X050304Y014428D01*
X050304Y014269D02*
X050144Y014269D01*
X050144Y014110D02*
X050304Y014110D01*
X050144Y013952D02*
X046367Y013952D01*
X046367Y013885D02*
X046367Y014045D01*
X046207Y014045D01*
X046207Y015916D01*
X046202Y015916D01*
X046032Y015901D01*
X045864Y015872D01*
X045700Y015828D01*
X045540Y015769D01*
X045385Y015697D01*
X045238Y015612D01*
X045098Y015515D01*
X044967Y015405D01*
X044847Y015284D01*
X044737Y015154D01*
X044640Y015014D01*
X044554Y014867D01*
X044482Y014712D01*
X044424Y014552D01*
X044380Y014388D01*
X044350Y014220D01*
X044336Y014050D01*
X044336Y014045D01*
X046207Y014045D01*
X046207Y013885D01*
X044336Y013885D01*
X044336Y013879D01*
X044350Y013710D01*
X044380Y013542D01*
X044424Y013377D01*
X044482Y013217D01*
X044554Y013063D01*
X044640Y012915D01*
X044737Y012775D01*
X044847Y012645D01*
X044967Y012524D01*
X045098Y012415D01*
X045238Y012317D01*
X045385Y012232D01*
X045540Y012160D01*
X045700Y012102D01*
X045864Y012058D01*
X046032Y012028D01*
X046202Y012013D01*
X046207Y012013D01*
X046207Y013885D01*
X046367Y013885D01*
X048239Y013885D01*
X048239Y013879D01*
X048224Y013710D01*
X048194Y013542D01*
X048150Y013377D01*
X048092Y013217D01*
X048020Y013063D01*
X047935Y012915D01*
X047837Y012775D01*
X047727Y012645D01*
X047607Y012524D01*
X047476Y012415D01*
X047337Y012317D01*
X047189Y012232D01*
X047035Y012160D01*
X046875Y012102D01*
X046710Y012058D01*
X046542Y012028D01*
X046372Y012013D01*
X046367Y012013D01*
X046367Y013885D01*
X046367Y013793D02*
X046207Y013793D01*
X046207Y013635D02*
X046367Y013635D01*
X046367Y013476D02*
X046207Y013476D01*
X046207Y013318D02*
X046367Y013318D01*
X046367Y013159D02*
X046207Y013159D01*
X046207Y013001D02*
X046367Y013001D01*
X046367Y012842D02*
X046207Y012842D01*
X046207Y012684D02*
X046367Y012684D01*
X046367Y012525D02*
X046207Y012525D01*
X046207Y012366D02*
X046367Y012366D01*
X046367Y012208D02*
X046207Y012208D01*
X046207Y012049D02*
X046367Y012049D01*
X046664Y012049D02*
X049848Y012049D01*
X049374Y012208D02*
X047138Y012208D01*
X047407Y012366D02*
X049104Y012366D01*
X048904Y012525D02*
X047608Y012525D01*
X047760Y012684D02*
X048752Y012684D01*
X048628Y012842D02*
X047884Y012842D01*
X047984Y013001D02*
X048527Y013001D01*
X048446Y013159D02*
X048065Y013159D01*
X048129Y013318D02*
X048383Y013318D01*
X048335Y013476D02*
X048177Y013476D01*
X048211Y013635D02*
X048301Y013635D01*
X048280Y013793D02*
X048231Y013793D01*
X048239Y014045D02*
X048239Y014050D01*
X048224Y014220D01*
X048194Y014388D01*
X048150Y014552D01*
X048092Y014712D01*
X048020Y014867D01*
X047935Y015014D01*
X047837Y015154D01*
X047727Y015284D01*
X047607Y015405D01*
X047476Y015515D01*
X047337Y015612D01*
X047189Y015697D01*
X047035Y015769D01*
X046875Y015828D01*
X046710Y015872D01*
X046542Y015901D01*
X046372Y015916D01*
X046367Y015916D01*
X046367Y014045D01*
X048239Y014045D01*
X048234Y014110D02*
X048278Y014110D01*
X048296Y014269D02*
X048215Y014269D01*
X048184Y014428D02*
X048328Y014428D01*
X048374Y014586D02*
X048138Y014586D01*
X048077Y014745D02*
X048435Y014745D01*
X048512Y014903D02*
X047999Y014903D01*
X047902Y015062D02*
X048610Y015062D01*
X048730Y015220D02*
X047781Y015220D01*
X047633Y015379D02*
X048878Y015379D01*
X049068Y015537D02*
X047444Y015537D01*
X047192Y015696D02*
X049319Y015696D01*
X049736Y015854D02*
X046775Y015854D01*
X046367Y015854D02*
X046207Y015854D01*
X046207Y015696D02*
X046367Y015696D01*
X046367Y015537D02*
X046207Y015537D01*
X046207Y015379D02*
X046367Y015379D01*
X046367Y015220D02*
X046207Y015220D01*
X046207Y015062D02*
X046367Y015062D01*
X046367Y014903D02*
X046207Y014903D01*
X046207Y014745D02*
X046367Y014745D01*
X046367Y014586D02*
X046207Y014586D01*
X046207Y014428D02*
X046367Y014428D01*
X046367Y014269D02*
X046207Y014269D01*
X046207Y014110D02*
X046367Y014110D01*
X046207Y013952D02*
X042430Y013952D01*
X042430Y013885D02*
X042430Y014045D01*
X042270Y014045D01*
X042270Y015916D01*
X042265Y015916D01*
X042095Y015901D01*
X041927Y015872D01*
X041763Y015828D01*
X041603Y015769D01*
X041448Y015697D01*
X041301Y015612D01*
X041161Y015515D01*
X041030Y015405D01*
X040910Y015284D01*
X040800Y015154D01*
X040703Y015014D01*
X040617Y014867D01*
X040545Y014712D01*
X040487Y014552D01*
X040443Y014388D01*
X040413Y014220D01*
X040399Y014050D01*
X040399Y014045D01*
X042270Y014045D01*
X042270Y013885D01*
X040399Y013885D01*
X040399Y013879D01*
X040413Y013710D01*
X040443Y013542D01*
X040487Y013377D01*
X040545Y013217D01*
X040617Y013063D01*
X040703Y012915D01*
X040800Y012775D01*
X040910Y012645D01*
X041030Y012524D01*
X041161Y012415D01*
X041301Y012317D01*
X041448Y012232D01*
X041603Y012160D01*
X041763Y012102D01*
X041927Y012058D01*
X042095Y012028D01*
X042265Y012013D01*
X042270Y012013D01*
X042270Y013885D01*
X042430Y013885D01*
X044302Y013885D01*
X044302Y013879D01*
X044287Y013710D01*
X044257Y013542D01*
X044213Y013377D01*
X044155Y013217D01*
X044083Y013063D01*
X043998Y012915D01*
X043900Y012775D01*
X043790Y012645D01*
X043670Y012524D01*
X043539Y012415D01*
X043400Y012317D01*
X043252Y012232D01*
X043098Y012160D01*
X042938Y012102D01*
X042773Y012058D01*
X042605Y012028D01*
X042435Y012013D01*
X042430Y012013D01*
X042430Y013885D01*
X042430Y013793D02*
X042270Y013793D01*
X042270Y013635D02*
X042430Y013635D01*
X042430Y013476D02*
X042270Y013476D01*
X042270Y013318D02*
X042430Y013318D01*
X042430Y013159D02*
X042270Y013159D01*
X042270Y013001D02*
X042430Y013001D01*
X042430Y012842D02*
X042270Y012842D01*
X042270Y012684D02*
X042430Y012684D01*
X042430Y012525D02*
X042270Y012525D01*
X042270Y012366D02*
X042430Y012366D01*
X042430Y012208D02*
X042270Y012208D01*
X042270Y012049D02*
X042430Y012049D01*
X042727Y012049D02*
X045911Y012049D01*
X045437Y012208D02*
X043201Y012208D01*
X043470Y012366D02*
X045167Y012366D01*
X044967Y012525D02*
X043671Y012525D01*
X043823Y012684D02*
X044815Y012684D01*
X044691Y012842D02*
X043947Y012842D01*
X044047Y013001D02*
X044590Y013001D01*
X044509Y013159D02*
X044128Y013159D01*
X044192Y013318D02*
X044446Y013318D01*
X044398Y013476D02*
X044240Y013476D01*
X044274Y013635D02*
X044364Y013635D01*
X044343Y013793D02*
X044294Y013793D01*
X044302Y014045D02*
X044302Y014050D01*
X044287Y014220D01*
X044257Y014388D01*
X044213Y014552D01*
X044155Y014712D01*
X044083Y014867D01*
X043998Y015014D01*
X043900Y015154D01*
X043790Y015284D01*
X043670Y015405D01*
X043539Y015515D01*
X043400Y015612D01*
X043252Y015697D01*
X043098Y015769D01*
X042938Y015828D01*
X042773Y015872D01*
X042605Y015901D01*
X042435Y015916D01*
X042430Y015916D01*
X042430Y014045D01*
X044302Y014045D01*
X044297Y014110D02*
X044341Y014110D01*
X044359Y014269D02*
X044278Y014269D01*
X044247Y014428D02*
X044391Y014428D01*
X044436Y014586D02*
X044201Y014586D01*
X044140Y014745D02*
X044498Y014745D01*
X044575Y014903D02*
X044062Y014903D01*
X043965Y015062D02*
X044673Y015062D01*
X044793Y015220D02*
X043844Y015220D01*
X043696Y015379D02*
X044941Y015379D01*
X045131Y015537D02*
X043507Y015537D01*
X043255Y015696D02*
X045382Y015696D01*
X045799Y015854D02*
X042838Y015854D01*
X042430Y015854D02*
X042270Y015854D01*
X042270Y015696D02*
X042430Y015696D01*
X042430Y015537D02*
X042270Y015537D01*
X042270Y015379D02*
X042430Y015379D01*
X042430Y015220D02*
X042270Y015220D01*
X042270Y015062D02*
X042430Y015062D01*
X042430Y014903D02*
X042270Y014903D01*
X042270Y014745D02*
X042430Y014745D01*
X042430Y014586D02*
X042270Y014586D01*
X042270Y014428D02*
X042430Y014428D01*
X042430Y014269D02*
X042270Y014269D01*
X042270Y014110D02*
X042430Y014110D01*
X042270Y013952D02*
X030105Y013952D01*
X029946Y014110D02*
X040404Y014110D01*
X040422Y014269D02*
X029788Y014269D01*
X029629Y014428D02*
X040454Y014428D01*
X040499Y014586D02*
X029471Y014586D01*
X029312Y014745D02*
X040561Y014745D01*
X040638Y014903D02*
X034015Y014903D01*
X034216Y015062D02*
X040736Y015062D01*
X040856Y015220D02*
X034292Y015220D01*
X034312Y015379D02*
X041004Y015379D01*
X041194Y015537D02*
X034286Y015537D01*
X034203Y015696D02*
X041445Y015696D01*
X041862Y015854D02*
X033984Y015854D01*
X033604Y015854D02*
X033337Y015854D01*
X033364Y016013D02*
X061135Y016013D01*
X061135Y016171D02*
X033345Y016171D01*
X033271Y016330D02*
X061135Y016330D01*
X061135Y016489D02*
X033113Y016489D01*
X032954Y016647D02*
X061135Y016647D01*
X061135Y016806D02*
X032796Y016806D01*
X032637Y016964D02*
X061135Y016964D01*
X061135Y017123D02*
X032479Y017123D01*
X035671Y017281D02*
X061135Y017281D01*
X061135Y017440D02*
X035749Y017440D01*
X035749Y017598D02*
X061135Y017598D01*
X061160Y017757D02*
X035749Y017757D01*
X035749Y017915D02*
X061202Y017915D01*
X061275Y018074D02*
X035749Y018074D01*
X035749Y018233D02*
X061275Y018233D01*
X061275Y018391D02*
X035749Y018391D01*
X035749Y018550D02*
X061786Y018550D01*
X064415Y018708D02*
X035749Y018708D01*
X035749Y018867D02*
X064415Y018867D01*
X064415Y019025D02*
X035749Y019025D01*
X035749Y019184D02*
X039297Y019184D01*
X039292Y019191D02*
X039309Y019165D01*
X039329Y019140D01*
X039352Y019118D01*
X039376Y019098D01*
X039402Y019081D01*
X039430Y019066D01*
X039459Y019054D01*
X039489Y019045D01*
X039520Y019039D01*
X039551Y019036D01*
X044851Y019036D01*
X044883Y019039D01*
X044914Y019045D01*
X044944Y019054D01*
X044973Y019066D01*
X045000Y019081D01*
X045027Y019098D01*
X045051Y019118D01*
X045073Y019140D01*
X045093Y019165D01*
X045111Y019191D01*
X045125Y019219D01*
X045137Y019248D01*
X045146Y019278D01*
X045153Y019309D01*
X045156Y019340D01*
X045156Y020205D01*
X045153Y020236D01*
X045146Y020267D01*
X045137Y020297D01*
X045125Y020326D01*
X045111Y020354D01*
X045093Y020380D01*
X045073Y020404D01*
X045051Y020426D01*
X045027Y020446D01*
X045000Y020464D01*
X044973Y020478D01*
X044944Y020490D01*
X044929Y020495D01*
X044939Y020499D01*
X044967Y020514D01*
X044993Y020532D01*
X045018Y020551D01*
X045040Y020574D01*
X045060Y020598D01*
X045077Y020624D01*
X045092Y020652D01*
X045104Y020681D01*
X045113Y020711D01*
X045119Y020742D01*
X045122Y020773D01*
X045122Y021971D01*
X045119Y022003D01*
X045113Y022033D01*
X045104Y022063D01*
X045092Y022092D01*
X045077Y022120D01*
X045060Y022146D01*
X045040Y022171D01*
X045018Y022193D01*
X044993Y022213D01*
X044967Y022230D01*
X044939Y022245D01*
X044910Y022257D01*
X044880Y022266D01*
X044849Y022272D01*
X044818Y022275D01*
X037927Y022275D01*
X037896Y022272D01*
X037865Y022266D01*
X037835Y022257D01*
X037806Y022245D01*
X037778Y022230D01*
X037752Y022213D01*
X037728Y022193D01*
X037706Y022171D01*
X037686Y022146D01*
X037668Y022120D01*
X037653Y022092D01*
X037641Y022063D01*
X037632Y022033D01*
X037626Y022003D01*
X037623Y021971D01*
X037623Y020773D01*
X037626Y020742D01*
X037632Y020711D01*
X037641Y020681D01*
X037653Y020652D01*
X037668Y020624D01*
X037686Y020598D01*
X037706Y020574D01*
X037728Y020551D01*
X037752Y020532D01*
X037778Y020514D01*
X037806Y020499D01*
X037835Y020487D01*
X037865Y020478D01*
X037896Y020472D01*
X037927Y020469D01*
X039412Y020469D01*
X039402Y020464D01*
X039376Y020446D01*
X039352Y020426D01*
X039329Y020404D01*
X039309Y020380D01*
X039292Y020354D01*
X039277Y020326D01*
X039265Y020297D01*
X039256Y020267D01*
X039250Y020236D01*
X039247Y020205D01*
X039247Y019340D01*
X039250Y019309D01*
X039256Y019278D01*
X039265Y019248D01*
X039277Y019219D01*
X039292Y019191D01*
X039247Y019342D02*
X035749Y019342D01*
X035749Y019501D02*
X039247Y019501D01*
X039247Y019659D02*
X035706Y019659D01*
X037677Y020611D02*
X032462Y020611D01*
X032578Y020769D02*
X037623Y020769D01*
X037623Y020928D02*
X032672Y020928D01*
X032747Y021086D02*
X037623Y021086D01*
X037623Y021245D02*
X032805Y021245D01*
X032849Y021403D02*
X037623Y021403D01*
X037623Y021562D02*
X032878Y021562D01*
X032893Y021721D02*
X037623Y021721D01*
X037623Y021879D02*
X031025Y021879D01*
X031025Y021721D02*
X030865Y021721D01*
X030865Y021879D02*
X027234Y021879D01*
X027233Y021721D02*
X027073Y021721D01*
X027073Y021879D02*
X022622Y021879D01*
X022622Y021721D02*
X025205Y021721D01*
X025220Y021562D02*
X022622Y021562D01*
X022622Y021423D02*
X022622Y022621D01*
X022619Y022653D01*
X022613Y022683D01*
X022604Y022713D01*
X022592Y022742D01*
X022577Y022770D01*
X022560Y022796D01*
X022540Y022821D01*
X022518Y022843D01*
X022493Y022863D01*
X022467Y022880D01*
X022439Y022895D01*
X022410Y022907D01*
X022380Y022916D01*
X022349Y022922D01*
X022318Y022925D01*
X018653Y022925D01*
X018622Y022922D01*
X018591Y022916D01*
X018561Y022907D01*
X018532Y022895D01*
X018504Y022880D01*
X018478Y022863D01*
X018454Y022843D01*
X018431Y022821D01*
X018411Y022796D01*
X018394Y022770D01*
X018379Y022742D01*
X018367Y022713D01*
X018358Y022683D01*
X018352Y022653D01*
X018349Y022621D01*
X018349Y021423D01*
X018352Y021392D01*
X018358Y021361D01*
X018367Y021331D01*
X018379Y021302D01*
X018394Y021274D01*
X018411Y021248D01*
X018431Y021224D01*
X018454Y021201D01*
X018478Y021182D01*
X018504Y021164D01*
X018532Y021149D01*
X018561Y021137D01*
X018591Y021128D01*
X018622Y021122D01*
X018653Y021119D01*
X022318Y021119D01*
X022349Y021122D01*
X022380Y021128D01*
X022410Y021137D01*
X022439Y021149D01*
X022467Y021164D01*
X022493Y021182D01*
X022518Y021201D01*
X022540Y021224D01*
X022560Y021248D01*
X022577Y021274D01*
X022592Y021302D01*
X022604Y021331D01*
X022613Y021361D01*
X022619Y021392D01*
X022622Y021423D01*
X022620Y021403D02*
X025249Y021403D01*
X025293Y021245D02*
X022557Y021245D01*
X022622Y022038D02*
X025212Y022038D01*
X025235Y022196D02*
X022622Y022196D01*
X022622Y022355D02*
X025271Y022355D01*
X025322Y022513D02*
X022622Y022513D01*
X022616Y022672D02*
X025388Y022672D01*
X025472Y022830D02*
X022530Y022830D01*
X025576Y022989D02*
X004715Y022989D01*
X004819Y022830D02*
X018441Y022830D01*
X018356Y022672D02*
X004903Y022672D01*
X004969Y022513D02*
X018349Y022513D01*
X018349Y022355D02*
X005020Y022355D01*
X005056Y022196D02*
X018349Y022196D01*
X018349Y022038D02*
X005079Y022038D01*
X005086Y021721D02*
X018349Y021721D01*
X018349Y021879D02*
X003218Y021879D01*
X003218Y021721D02*
X003058Y021721D01*
X003058Y021562D02*
X003218Y021562D01*
X003218Y021403D02*
X003058Y021403D01*
X003058Y021245D02*
X003218Y021245D01*
X003218Y021086D02*
X003058Y021086D01*
X003058Y020928D02*
X003218Y020928D01*
X003218Y020769D02*
X003058Y020769D01*
X003058Y020611D02*
X003218Y020611D01*
X003218Y020452D02*
X003058Y020452D01*
X003058Y020294D02*
X003218Y020294D01*
X003218Y020135D02*
X003058Y020135D01*
X003058Y019977D02*
X003218Y019977D01*
X003728Y019977D02*
X014274Y019977D01*
X014274Y019818D02*
X001309Y019818D01*
X001309Y019659D02*
X014274Y019659D01*
X014274Y019501D02*
X001309Y019501D01*
X001309Y019342D02*
X014274Y019342D01*
X014274Y019184D02*
X001309Y019184D01*
X001309Y019025D02*
X014274Y019025D01*
X014274Y018867D02*
X001309Y018867D01*
X001309Y018708D02*
X014274Y018708D01*
X014274Y018550D02*
X001309Y018550D01*
X001309Y018391D02*
X014274Y018391D01*
X014274Y018233D02*
X001309Y018233D01*
X001309Y018074D02*
X014274Y018074D01*
X014274Y017915D02*
X001309Y017915D01*
X001309Y017757D02*
X014331Y017757D01*
X014458Y017598D02*
X001309Y017598D01*
X001309Y017440D02*
X014616Y017440D01*
X014775Y017281D02*
X001309Y017281D01*
X001309Y017123D02*
X014933Y017123D01*
X015092Y016964D02*
X001309Y016964D01*
X001309Y016806D02*
X015250Y016806D01*
X015409Y016647D02*
X001309Y016647D01*
X001309Y016489D02*
X015567Y016489D01*
X012839Y015901D02*
X012769Y015831D01*
X012769Y010422D01*
X013069Y010122D01*
X016869Y010781D02*
X029623Y010781D01*
X029464Y010940D02*
X016869Y010940D01*
X016869Y011098D02*
X029306Y011098D01*
X029147Y011257D02*
X016869Y011257D01*
X016869Y011415D02*
X028989Y011415D01*
X028830Y011574D02*
X016869Y011574D01*
X016869Y011732D02*
X018198Y011732D01*
X018251Y011680D02*
X018087Y011843D01*
X017999Y012056D01*
X017999Y012287D01*
X018087Y012500D01*
X018251Y012663D01*
X018464Y012751D01*
X018694Y012751D01*
X018908Y012663D01*
X019071Y012500D01*
X019159Y012287D01*
X019159Y012056D01*
X019071Y011843D01*
X018908Y011680D01*
X018694Y011591D01*
X018464Y011591D01*
X018251Y011680D01*
X018068Y011891D02*
X016869Y011891D01*
X016869Y012049D02*
X018002Y012049D01*
X017999Y012208D02*
X016869Y012208D01*
X016869Y012366D02*
X018032Y012366D01*
X018112Y012525D02*
X016869Y012525D01*
X016896Y012684D02*
X018300Y012684D01*
X018858Y012684D02*
X020200Y012684D01*
X020151Y012663D02*
X019987Y012500D01*
X019899Y012287D01*
X019899Y012056D01*
X019987Y011843D01*
X020151Y011680D01*
X020364Y011591D01*
X020594Y011591D01*
X020808Y011680D01*
X020971Y011843D01*
X021059Y012056D01*
X021059Y012287D01*
X020971Y012500D01*
X020808Y012663D01*
X020594Y012751D01*
X020364Y012751D01*
X020151Y012663D01*
X020012Y012525D02*
X019046Y012525D01*
X019126Y012366D02*
X019932Y012366D01*
X019899Y012208D02*
X019159Y012208D01*
X019156Y012049D02*
X019902Y012049D01*
X019968Y011891D02*
X019091Y011891D01*
X018960Y011732D02*
X020098Y011732D01*
X020860Y011732D02*
X028672Y011732D01*
X028513Y011891D02*
X020991Y011891D01*
X021056Y012049D02*
X028355Y012049D01*
X028196Y012208D02*
X021059Y012208D01*
X021026Y012366D02*
X028038Y012366D01*
X027879Y012525D02*
X020946Y012525D01*
X020758Y012684D02*
X027720Y012684D01*
X027562Y012842D02*
X017055Y012842D01*
X017213Y013001D02*
X027403Y013001D01*
X027245Y013159D02*
X017372Y013159D01*
X017530Y013318D02*
X027086Y013318D01*
X026928Y013476D02*
X017689Y013476D01*
X017847Y013635D02*
X026769Y013635D01*
X026611Y013793D02*
X018006Y013793D01*
X018164Y013952D02*
X026452Y013952D01*
X026294Y014110D02*
X018323Y014110D01*
X018482Y014269D02*
X026135Y014269D01*
X025976Y014428D02*
X018640Y014428D01*
X018799Y014586D02*
X025818Y014586D01*
X025659Y014745D02*
X018957Y014745D01*
X019116Y014903D02*
X024270Y014903D01*
X024868Y014903D02*
X025501Y014903D01*
X023032Y015537D02*
X022517Y015537D01*
X022636Y015696D02*
X022874Y015696D01*
X022715Y015854D02*
X022687Y015854D01*
X022169Y015922D02*
X019569Y015922D01*
X018929Y016561D02*
X015680Y013313D01*
X014200Y013159D02*
X014176Y013159D01*
X014200Y013001D02*
X014017Y013001D01*
X012369Y014586D02*
X004390Y014586D01*
X004361Y014745D02*
X012369Y014745D01*
X012369Y014903D02*
X004274Y014903D01*
X004044Y015062D02*
X012369Y015062D01*
X012369Y015220D02*
X001309Y015220D01*
X001309Y015062D02*
X003696Y015062D01*
X003467Y014903D02*
X001309Y014903D01*
X001309Y014745D02*
X003379Y014745D01*
X003350Y014586D02*
X001309Y014586D01*
X001309Y014428D02*
X003350Y014428D01*
X003350Y014269D02*
X001309Y014269D01*
X001309Y014110D02*
X003350Y014110D01*
X003398Y013952D02*
X001309Y013952D01*
X001309Y013793D02*
X003513Y013793D01*
X003671Y013635D02*
X001309Y013635D01*
X001309Y013476D02*
X003837Y013476D01*
X001309Y015379D02*
X012369Y015379D01*
X012369Y015537D02*
X001309Y015537D01*
X001309Y015696D02*
X012364Y015696D01*
X012321Y015854D02*
X001309Y015854D01*
X001309Y016013D02*
X012325Y016013D01*
X012390Y016171D02*
X001309Y016171D01*
X001309Y016330D02*
X012535Y016330D01*
X015453Y018074D02*
X017769Y018074D01*
X017764Y018233D02*
X015314Y018233D01*
X015314Y018391D02*
X017600Y018391D01*
X017534Y018550D02*
X015314Y018550D01*
X015314Y018708D02*
X017523Y018708D01*
X014336Y020135D02*
X004090Y020135D01*
X004332Y020294D02*
X014470Y020294D01*
X018351Y021403D02*
X005041Y021403D01*
X005071Y021562D02*
X018349Y021562D01*
X018414Y021245D02*
X004998Y021245D01*
X004940Y021086D02*
X025351Y021086D01*
X025426Y020928D02*
X004865Y020928D01*
X004771Y020769D02*
X025520Y020769D01*
X025636Y020611D02*
X004655Y020611D01*
X004511Y020452D02*
X025780Y020452D01*
X025959Y020294D02*
X021968Y020294D01*
X022127Y020135D02*
X026201Y020135D01*
X026563Y019977D02*
X022285Y019977D01*
X022444Y019818D02*
X039247Y019818D01*
X039247Y019977D02*
X031535Y019977D01*
X031897Y020135D02*
X039247Y020135D01*
X039264Y020294D02*
X032140Y020294D01*
X032318Y020452D02*
X039385Y020452D01*
X037634Y022038D02*
X032886Y022038D01*
X032863Y022196D02*
X037732Y022196D01*
X032827Y022355D02*
X045980Y022355D01*
X045943Y022196D02*
X045014Y022196D01*
X045112Y022038D02*
X045920Y022038D01*
X045913Y021721D02*
X045122Y021721D01*
X045122Y021879D02*
X047782Y021879D01*
X047782Y021721D02*
X047942Y021721D01*
X047942Y021879D02*
X062506Y021879D01*
X062506Y021721D02*
X062666Y021721D01*
X062666Y021562D02*
X062506Y021562D01*
X062506Y021403D02*
X062666Y021403D01*
X062666Y021245D02*
X062506Y021245D01*
X062506Y021086D02*
X062666Y021086D01*
X062666Y020928D02*
X062506Y020928D01*
X062506Y020769D02*
X062666Y020769D01*
X062666Y020611D02*
X062506Y020611D01*
X062506Y020452D02*
X062666Y020452D01*
X062666Y020294D02*
X062506Y020294D01*
X062506Y020135D02*
X062666Y020135D01*
X062666Y019977D02*
X062506Y019977D01*
X061996Y019977D02*
X048452Y019977D01*
X048815Y020135D02*
X061634Y020135D01*
X061392Y020294D02*
X049057Y020294D01*
X049236Y020452D02*
X061213Y020452D01*
X061069Y020611D02*
X049379Y020611D01*
X049496Y020769D02*
X060953Y020769D01*
X060859Y020928D02*
X049590Y020928D01*
X049665Y021086D02*
X060784Y021086D01*
X060726Y021245D02*
X049723Y021245D01*
X049766Y021403D02*
X060683Y021403D01*
X060653Y021562D02*
X049795Y021562D01*
X049811Y021721D02*
X060638Y021721D01*
X060645Y022038D02*
X049804Y022038D01*
X049781Y022196D02*
X060668Y022196D01*
X060704Y022355D02*
X049744Y022355D01*
X049693Y022513D02*
X060755Y022513D01*
X060822Y022672D02*
X049627Y022672D01*
X049543Y022830D02*
X060905Y022830D01*
X061009Y022989D02*
X049439Y022989D01*
X049312Y023147D02*
X061137Y023147D01*
X061299Y023306D02*
X049150Y023306D01*
X048943Y023464D02*
X061506Y023464D01*
X061795Y023623D02*
X048654Y023623D01*
X047071Y023623D02*
X031736Y023623D01*
X032026Y023464D02*
X046781Y023464D01*
X046574Y023306D02*
X032232Y023306D01*
X032394Y023147D02*
X046412Y023147D01*
X046285Y022989D02*
X032522Y022989D01*
X032626Y022830D02*
X046181Y022830D01*
X046097Y022672D02*
X032710Y022672D01*
X032776Y022513D02*
X046031Y022513D01*
X045929Y021562D02*
X045122Y021562D01*
X045122Y021403D02*
X045958Y021403D01*
X046001Y021245D02*
X045122Y021245D01*
X045122Y021086D02*
X046059Y021086D01*
X046134Y020928D02*
X045122Y020928D01*
X045122Y020769D02*
X046228Y020769D01*
X046345Y020611D02*
X045068Y020611D01*
X045018Y020452D02*
X046489Y020452D01*
X046667Y020294D02*
X045138Y020294D01*
X045156Y020135D02*
X046909Y020135D01*
X047272Y019977D02*
X045156Y019977D01*
X045156Y019818D02*
X064415Y019818D01*
X064415Y019659D02*
X045156Y019659D01*
X045156Y019501D02*
X064415Y019501D01*
X064415Y019342D02*
X045156Y019342D01*
X045106Y019184D02*
X064415Y019184D01*
X064415Y019977D02*
X063176Y019977D01*
X063539Y020135D02*
X064415Y020135D01*
X064415Y020294D02*
X063781Y020294D01*
X063960Y020452D02*
X064415Y020452D01*
X064415Y020611D02*
X064104Y020611D01*
X064220Y020769D02*
X064415Y020769D01*
X064415Y020928D02*
X064314Y020928D01*
X064389Y021086D02*
X064415Y021086D01*
X061135Y015854D02*
X060319Y015854D01*
X059910Y015854D02*
X059751Y015854D01*
X059751Y015696D02*
X059910Y015696D01*
X059910Y015537D02*
X059751Y015537D01*
X059751Y015379D02*
X059910Y015379D01*
X059910Y015220D02*
X059751Y015220D01*
X059751Y015062D02*
X059910Y015062D01*
X059910Y014903D02*
X059751Y014903D01*
X059751Y014745D02*
X059910Y014745D01*
X059910Y014586D02*
X059751Y014586D01*
X059751Y014428D02*
X059910Y014428D01*
X059910Y014269D02*
X059751Y014269D01*
X059751Y014110D02*
X059910Y014110D01*
X060735Y015696D02*
X061135Y015696D01*
X061135Y015537D02*
X060987Y015537D01*
X060951Y012366D02*
X061135Y012366D01*
X061135Y012208D02*
X060681Y012208D01*
X061166Y010464D02*
X053106Y010464D01*
X053265Y010305D02*
X061209Y010305D01*
X061275Y010147D02*
X053423Y010147D01*
X053582Y009988D02*
X061275Y009988D01*
X061275Y009830D02*
X053740Y009830D01*
X053899Y009671D02*
X061827Y009671D01*
X064415Y009513D02*
X054057Y009513D01*
X054216Y009354D02*
X064415Y009354D01*
X064415Y009196D02*
X054375Y009196D01*
X056321Y009037D02*
X064415Y009037D01*
X064415Y008879D02*
X056422Y008879D01*
X056430Y008720D02*
X064415Y008720D01*
X064415Y008561D02*
X056430Y008561D01*
X056430Y008403D02*
X064415Y008403D01*
X064415Y008244D02*
X056430Y008244D01*
X056430Y008086D02*
X064415Y008086D01*
X064415Y007927D02*
X063247Y007927D01*
X063583Y007769D02*
X064415Y007769D01*
X064415Y007610D02*
X063812Y007610D01*
X063986Y007452D02*
X064415Y007452D01*
X064415Y007293D02*
X064125Y007293D01*
X064237Y007135D02*
X064415Y007135D01*
X064415Y006976D02*
X064327Y006976D01*
X064399Y006817D02*
X064415Y006817D01*
X050986Y006500D02*
X049772Y006500D01*
X049730Y006659D02*
X050820Y006659D01*
X050790Y006817D02*
X049674Y006817D01*
X049603Y006976D02*
X050790Y006976D01*
X050790Y007135D02*
X049513Y007135D01*
X049401Y007293D02*
X050790Y007293D01*
X050790Y007452D02*
X049261Y007452D01*
X049087Y007610D02*
X050790Y007610D01*
X050790Y007769D02*
X048859Y007769D01*
X048522Y007927D02*
X050790Y007927D01*
X041974Y012049D02*
X032008Y012049D01*
X031849Y012208D02*
X041500Y012208D01*
X041230Y012366D02*
X031690Y012366D01*
X031532Y012525D02*
X041030Y012525D01*
X040878Y012684D02*
X031373Y012684D01*
X031215Y012842D02*
X040754Y012842D01*
X040653Y013001D02*
X031056Y013001D01*
X030898Y013159D02*
X040572Y013159D01*
X040509Y013318D02*
X030739Y013318D01*
X030581Y013476D02*
X040461Y013476D01*
X040427Y013635D02*
X030422Y013635D01*
X030264Y013793D02*
X040406Y013793D01*
X033794Y015372D02*
X029244Y015372D01*
X029465Y014903D02*
X033572Y014903D01*
X033429Y010062D02*
X027969Y015522D01*
X027769Y015522D01*
X026344Y016222D02*
X032429Y010137D01*
X032429Y009437D01*
X033429Y009437D02*
X033429Y010062D01*
X031025Y007927D02*
X030865Y007927D01*
X030865Y007769D02*
X031025Y007769D01*
X031025Y007610D02*
X030865Y007610D01*
X030865Y007452D02*
X031025Y007452D01*
X031025Y007293D02*
X030865Y007293D01*
X030865Y007135D02*
X031025Y007135D01*
X031025Y006976D02*
X030865Y006976D01*
X030865Y006817D02*
X031025Y006817D01*
X031025Y006659D02*
X030865Y006659D01*
X030865Y006500D02*
X031025Y006500D01*
X031025Y006342D02*
X030865Y006342D01*
X030865Y006183D02*
X031025Y006183D01*
X030865Y006171D02*
X030865Y006011D01*
X028993Y006011D01*
X027234Y006011D01*
X027234Y006171D01*
X028993Y006171D01*
X030865Y006171D01*
X030865Y006025D02*
X027234Y006025D01*
X027233Y006183D02*
X027073Y006183D01*
X027073Y006025D02*
X021013Y006025D01*
X021244Y005866D02*
X025214Y005866D01*
X025239Y005708D02*
X021354Y005708D01*
X021419Y005549D02*
X025278Y005549D01*
X025331Y005391D02*
X021419Y005391D01*
X021394Y005232D02*
X025400Y005232D01*
X025487Y005073D02*
X021328Y005073D01*
X021181Y004915D02*
X025594Y004915D01*
X025202Y006183D02*
X020151Y006183D01*
X020358Y006342D02*
X025216Y006342D01*
X025244Y006500D02*
X020497Y006500D01*
X020593Y006659D02*
X025285Y006659D01*
X025341Y006817D02*
X020659Y006817D01*
X020701Y006976D02*
X025413Y006976D01*
X025502Y007135D02*
X019620Y007135D01*
X019620Y007293D02*
X019460Y007293D01*
X019460Y007273D02*
X019460Y008371D01*
X019342Y008358D01*
X019213Y008329D01*
X019088Y008285D01*
X018968Y008227D01*
X018856Y008157D01*
X018753Y008074D01*
X018659Y007981D01*
X018576Y007877D01*
X018506Y007765D01*
X018448Y007645D01*
X018404Y007520D01*
X018375Y007391D01*
X018362Y007273D01*
X019460Y007273D01*
X019460Y007135D02*
X017720Y007135D01*
X017720Y007293D02*
X018364Y007293D01*
X018389Y007452D02*
X017720Y007452D01*
X017720Y007610D02*
X018436Y007610D01*
X018508Y007769D02*
X017720Y007769D01*
X017720Y007927D02*
X018616Y007927D01*
X018767Y008086D02*
X017720Y008086D01*
X017720Y008244D02*
X019004Y008244D01*
X019460Y008244D02*
X019620Y008244D01*
X019620Y008086D02*
X019460Y008086D01*
X019460Y007927D02*
X019620Y007927D01*
X019620Y007769D02*
X019460Y007769D01*
X019460Y007610D02*
X019620Y007610D01*
X019620Y007452D02*
X019460Y007452D01*
X020464Y007927D02*
X026493Y007927D01*
X026156Y007769D02*
X020572Y007769D01*
X020644Y007610D02*
X025928Y007610D01*
X025754Y007452D02*
X020691Y007452D01*
X020716Y007293D02*
X025615Y007293D01*
X027073Y007293D02*
X027233Y007293D01*
X027233Y007135D02*
X027073Y007135D01*
X027073Y006976D02*
X027233Y006976D01*
X027233Y006817D02*
X027073Y006817D01*
X027073Y006659D02*
X027233Y006659D01*
X027233Y006500D02*
X027073Y006500D01*
X027073Y006342D02*
X027233Y006342D01*
X028894Y006976D02*
X029204Y006976D01*
X029132Y006817D02*
X028966Y006817D01*
X029022Y006659D02*
X029076Y006659D01*
X029294Y007135D02*
X028804Y007135D01*
X028692Y007293D02*
X029406Y007293D01*
X029546Y007452D02*
X028552Y007452D01*
X028379Y007610D02*
X029719Y007610D01*
X029948Y007769D02*
X028150Y007769D01*
X027814Y007927D02*
X030284Y007927D01*
X027233Y007927D02*
X027073Y007927D01*
X027073Y007769D02*
X027233Y007769D01*
X027233Y007610D02*
X027073Y007610D01*
X027073Y007452D02*
X027233Y007452D01*
X018929Y006183D02*
X017720Y006183D01*
X017720Y006342D02*
X018723Y006342D01*
X018583Y006500D02*
X017720Y006500D01*
X017720Y006659D02*
X018488Y006659D01*
X018421Y006817D02*
X017720Y006817D01*
X017720Y006976D02*
X018379Y006976D01*
X009149Y008720D02*
X008714Y008720D01*
X008714Y008879D02*
X009108Y008879D01*
X009042Y009037D02*
X008707Y009037D01*
X008641Y009196D02*
X009019Y009196D01*
X009020Y009354D02*
X008514Y009354D01*
X008355Y009513D02*
X009086Y009513D01*
X009149Y009671D02*
X008164Y009671D01*
X005884Y008244D02*
X001309Y008244D01*
X001309Y008086D02*
X005647Y008086D01*
X005259Y006976D02*
X004878Y006976D01*
X004950Y006817D02*
X005301Y006817D01*
X005368Y006659D02*
X005006Y006659D01*
X005047Y006500D02*
X005463Y006500D01*
X005603Y006342D02*
X005075Y006342D01*
X005089Y006183D02*
X005809Y006183D01*
X006340Y006183D02*
X006500Y006183D01*
X006500Y006342D02*
X006340Y006342D01*
X006340Y006500D02*
X006500Y006500D01*
X006500Y006659D02*
X006340Y006659D01*
X006340Y006817D02*
X006500Y006817D01*
X006500Y006976D02*
X006340Y006976D01*
X007238Y006342D02*
X007474Y006342D01*
X007474Y006500D02*
X007377Y006500D01*
X007473Y006659D02*
X007474Y006659D01*
X007474Y006183D02*
X007031Y006183D01*
X002477Y007927D02*
X001309Y007927D01*
X001309Y007769D02*
X002141Y007769D01*
X001912Y007610D02*
X001309Y007610D01*
X001309Y007452D02*
X001739Y007452D01*
X001599Y007293D02*
X001309Y007293D01*
X001309Y007135D02*
X001487Y007135D01*
X001397Y006976D02*
X001309Y006976D01*
X001309Y006817D02*
X001325Y006817D01*
X022735Y017588D02*
X024100Y016222D01*
X026344Y016222D01*
X022574Y016561D02*
X018929Y016561D01*
X023554Y018708D02*
X024109Y018708D01*
X024109Y018550D02*
X023712Y018550D01*
X023871Y018391D02*
X024109Y018391D01*
X024109Y018233D02*
X024029Y018233D01*
X024109Y018867D02*
X023395Y018867D01*
X023237Y019025D02*
X024109Y019025D01*
X024109Y019184D02*
X023078Y019184D01*
X022920Y019342D02*
X024109Y019342D01*
X024109Y019501D02*
X022761Y019501D01*
X022602Y019659D02*
X024152Y019659D01*
X027073Y019977D02*
X027233Y019977D01*
X027233Y020135D02*
X027073Y020135D01*
X027073Y020294D02*
X027233Y020294D01*
X027233Y020452D02*
X027073Y020452D01*
X027073Y020611D02*
X027233Y020611D01*
X027233Y020769D02*
X027073Y020769D01*
X027073Y020928D02*
X027233Y020928D01*
X027233Y021086D02*
X027073Y021086D01*
X027073Y021245D02*
X027233Y021245D01*
X027233Y021403D02*
X027073Y021403D01*
X027073Y021562D02*
X027233Y021562D01*
X028787Y020769D02*
X029311Y020769D01*
X029217Y020928D02*
X028881Y020928D01*
X028956Y021086D02*
X029142Y021086D01*
X029084Y021245D02*
X029014Y021245D01*
X030865Y021245D02*
X031025Y021245D01*
X031025Y021403D02*
X030865Y021403D01*
X030865Y021562D02*
X031025Y021562D01*
X031025Y021086D02*
X030865Y021086D01*
X030865Y020928D02*
X031025Y020928D01*
X031025Y020769D02*
X030865Y020769D01*
X030865Y020611D02*
X031025Y020611D01*
X031025Y020452D02*
X030865Y020452D01*
X030865Y020294D02*
X031025Y020294D01*
X031025Y020135D02*
X030865Y020135D01*
X030865Y019977D02*
X031025Y019977D01*
X030355Y019977D02*
X027743Y019977D01*
X028106Y020135D02*
X029992Y020135D01*
X029750Y020294D02*
X028348Y020294D01*
X028527Y020452D02*
X029571Y020452D01*
X029427Y020611D02*
X028671Y020611D01*
X025704Y023147D02*
X004587Y023147D01*
X004425Y023306D02*
X025866Y023306D01*
X026073Y023464D02*
X004218Y023464D01*
X003929Y023623D02*
X026362Y023623D01*
X047782Y021562D02*
X047942Y021562D01*
X047942Y021403D02*
X047782Y021403D01*
X047782Y021245D02*
X047942Y021245D01*
X047942Y021086D02*
X047782Y021086D01*
X047782Y020928D02*
X047942Y020928D01*
X047942Y020769D02*
X047782Y020769D01*
X047782Y020611D02*
X047942Y020611D01*
X047942Y020452D02*
X047782Y020452D01*
X047782Y020294D02*
X047942Y020294D01*
X047942Y020135D02*
X047782Y020135D01*
X047782Y019977D02*
X047942Y019977D01*
X002548Y019977D02*
X001309Y019977D01*
X001309Y020135D02*
X002185Y020135D01*
X001943Y020294D02*
X001309Y020294D01*
X001309Y020452D02*
X001764Y020452D01*
X001620Y020611D02*
X001309Y020611D01*
X001309Y020769D02*
X001504Y020769D01*
X001410Y020928D02*
X001309Y020928D01*
X001309Y021086D02*
X001335Y021086D01*
D17*
X014794Y019883D02*
X014794Y017997D01*
X016169Y016622D01*
X009669Y012822D02*
X008569Y013922D01*
X004119Y013922D01*
X003870Y014171D01*
X003870Y014571D01*
X009669Y012822D02*
X009669Y009222D01*
X009669Y007753D01*
X010280Y007753D01*
X009669Y007753D02*
X009200Y007753D01*
X011360Y007753D02*
X011360Y009222D01*
X016760Y007753D02*
X018980Y007753D01*
X019540Y007193D01*
X025429Y009437D02*
X025429Y011122D01*
X026169Y011122D01*
X027429Y011122D02*
X028169Y011122D01*
X027429Y011122D02*
X027429Y009437D01*
X034169Y011122D02*
X034429Y011122D01*
X034429Y009437D01*
X032844Y016022D02*
X031744Y017122D01*
X030429Y017122D01*
X024404Y017122D01*
X021644Y019883D01*
X014794Y019883D01*
X024169Y019622D02*
X024169Y021122D01*
X024169Y019622D02*
X025429Y019622D01*
X027429Y019622D01*
X027429Y018492D01*
X025429Y018492D02*
X025429Y019622D01*
X030429Y018492D02*
X030429Y017122D01*
X034429Y017122D02*
X034429Y018492D01*
X034429Y017122D02*
X036169Y017122D01*
X052169Y009122D02*
X052169Y007795D01*
X052110Y007795D01*
X053110Y007795D01*
X055110Y007795D02*
X056169Y007795D01*
X056169Y009122D01*
X011900Y006633D02*
X010820Y006633D01*
X010669Y006633D01*
X009740Y006633D01*
X010669Y006633D02*
X010669Y005422D01*
D18*
X006169Y005122D03*
X004169Y009122D03*
X002169Y009122D03*
X002169Y011122D03*
X004169Y011122D03*
X004169Y013122D03*
X002169Y013122D03*
X003870Y014571D03*
X002169Y015122D03*
X002169Y017122D03*
X006169Y017122D03*
X008169Y017122D03*
X010169Y017122D03*
X012839Y015901D03*
X010169Y015122D03*
X008169Y015122D03*
X008169Y013122D03*
X012169Y013122D03*
X014069Y012622D03*
X015169Y012622D03*
X016969Y012022D03*
X019169Y011422D03*
X019969Y011422D03*
X022169Y011122D03*
X026169Y011122D03*
X028169Y011122D03*
X026169Y013122D03*
X024169Y013122D03*
X022169Y013122D03*
X020169Y013622D03*
X024569Y015336D03*
X022169Y015922D03*
X022574Y016561D03*
X021664Y017101D03*
X020169Y018122D03*
X018041Y018678D03*
X016169Y019122D03*
X014794Y019883D03*
X013669Y019122D03*
X010169Y019122D03*
X008169Y019122D03*
X006169Y019122D03*
X004169Y019122D03*
X002169Y019122D03*
X006169Y021122D03*
X008169Y021122D03*
X010169Y021122D03*
X012169Y021122D03*
X014169Y021122D03*
X016169Y021122D03*
X018169Y021122D03*
X018169Y023122D03*
X016169Y023122D03*
X014169Y023122D03*
X012169Y023122D03*
X010169Y023122D03*
X008169Y023122D03*
X006169Y023122D03*
X020169Y023122D03*
X022169Y023122D03*
X024169Y023122D03*
X024169Y021122D03*
X034169Y021122D03*
X036169Y021122D03*
X036169Y019122D03*
X038169Y019122D03*
X038169Y017122D03*
X036169Y017122D03*
X040169Y017122D03*
X042169Y017122D03*
X044169Y017122D03*
X046169Y017122D03*
X048169Y017122D03*
X050169Y017122D03*
X052169Y017122D03*
X054169Y017122D03*
X056169Y017122D03*
X058169Y017122D03*
X060169Y017122D03*
X059169Y016122D03*
X057169Y016122D03*
X055169Y016122D03*
X053169Y016122D03*
X051169Y016122D03*
X052169Y015122D03*
X054169Y015122D03*
X056169Y015122D03*
X055169Y014122D03*
X053169Y014122D03*
X052169Y013122D03*
X054169Y013122D03*
X056169Y013122D03*
X055169Y012122D03*
X053169Y012122D03*
X052169Y011122D03*
X050169Y011122D03*
X048169Y011122D03*
X046169Y011122D03*
X044169Y011122D03*
X042169Y011122D03*
X040169Y011122D03*
X036169Y011122D03*
X034169Y011122D03*
X034169Y013122D03*
X032169Y013122D03*
X031169Y014122D03*
X029244Y015372D03*
X027769Y015522D03*
X033794Y015372D03*
X036169Y015122D03*
X038169Y015122D03*
X040169Y015122D03*
X040169Y013122D03*
X038169Y013122D03*
X036169Y009122D03*
X036169Y007122D03*
X034169Y007122D03*
X034169Y005122D03*
X036169Y005122D03*
X038169Y005122D03*
X040169Y005122D03*
X042169Y005122D03*
X044169Y005122D03*
X050169Y005122D03*
X052169Y005122D03*
X054169Y005122D03*
X056169Y005122D03*
X058169Y005122D03*
X060169Y005122D03*
X060169Y007122D03*
X058169Y007122D03*
X057169Y008122D03*
X056169Y009122D03*
X058169Y009122D03*
X060169Y009122D03*
X062169Y009122D03*
X064169Y009122D03*
X061169Y010122D03*
X059169Y010122D03*
X058169Y011122D03*
X056169Y011122D03*
X054169Y011122D03*
X055169Y010122D03*
X057169Y010122D03*
X060169Y011122D03*
X057169Y012122D03*
X057169Y014122D03*
X057169Y018122D03*
X055169Y018122D03*
X053169Y018122D03*
X051169Y018122D03*
X049169Y018122D03*
X048169Y019122D03*
X046169Y019122D03*
X050169Y019122D03*
X052169Y019122D03*
X054169Y019122D03*
X056169Y019122D03*
X058169Y019122D03*
X060169Y019122D03*
X062169Y019122D03*
X064169Y019122D03*
X061169Y018122D03*
X059169Y018122D03*
X059169Y020122D03*
X058169Y021122D03*
X056169Y021122D03*
X054169Y021122D03*
X052169Y021122D03*
X050169Y021122D03*
X051169Y020122D03*
X053169Y020122D03*
X055169Y020122D03*
X057169Y020122D03*
X056169Y023122D03*
X054169Y023122D03*
X052169Y023122D03*
X050169Y023122D03*
X044169Y023122D03*
X042169Y023122D03*
X040169Y023122D03*
X038169Y023122D03*
X036169Y023122D03*
X034169Y023122D03*
X016169Y016622D03*
X013169Y017122D03*
X012169Y011122D03*
X013069Y010122D03*
X016469Y010422D03*
X018169Y009122D03*
X020169Y009122D03*
X024169Y007122D03*
X024169Y005122D03*
X022169Y005122D03*
X048169Y009122D03*
X050169Y009122D03*
X052169Y009122D03*
X050169Y007122D03*
X059169Y008122D03*
X058169Y023122D03*
D19*
X032844Y016022D03*
X042868Y007914D03*
D20*
X044461Y007914D01*
X046669Y010122D01*
X052769Y010122D01*
X054110Y008781D01*
X054110Y007795D01*
D21*
X020769Y005422D02*
X010669Y005422D01*
X008669Y005422D01*
X008094Y005998D01*
X008094Y008898D01*
X007869Y009122D01*
X005869Y009122D01*
M02*
