%
M48
M72
T01C0.0236
T02C0.0354
T03C0.1181
T04C0.1300
%
T01
X8255Y5122
X8255Y9122
X6255Y9122
X4255Y9122
X4255Y11122
X6255Y11122
X8255Y11122
X12255Y11122
X14255Y11122
X16255Y11122
X16255Y9122
X14255Y9122
X12255Y9122
X12255Y13122
X15675Y16122
X14255Y16622
X12085Y16592
X10755Y18622
X14255Y18622
X18255Y19122
X20255Y19122
X21885Y20092
X20255Y21122
X20955Y21422
X18255Y21122
X15675Y21300
X17255Y24122
X18255Y24122
X18825Y24932
X20255Y26122
X21355Y26962
X22005Y27452
X22755Y26122
X24965Y24942
X26130Y25322
X26665Y24542
X26015Y24132
X26255Y23522
X25455Y23322
X28255Y23522
X30255Y23522
X32255Y23122
X33115Y22800
X34255Y23122
X36255Y23122
X38255Y23122
X38255Y21122
X40255Y21122
X40255Y19122
X42255Y19122
X44755Y17622
X44755Y16300
X44255Y15122
X44755Y14122
X44255Y13122
X42255Y13122
X40255Y13122
X40255Y15122
X42255Y15122
X42255Y17122
X40255Y17122
X37425Y18300
X36255Y19122
X34255Y19122
X32255Y19122
X30255Y19122
X32255Y21122
X34255Y21122
X31685Y16002
X34255Y15122
X33455Y14122
X32255Y14122
X34255Y13122
X36255Y13122
X36255Y15122
X36255Y11122
X34255Y11122
X32255Y11122
X32255Y9122
X34255Y9122
X36255Y9122
X38255Y9122
X40255Y11122
X42255Y11122
X44255Y11122
X44255Y9122
X46255Y9122
X48255Y9122
X50255Y9122
X50255Y11122
X50255Y13122
X50255Y15122
X50255Y17122
X50255Y19122
X50255Y21122
X50255Y23122
X50255Y25122
X50255Y27122
X50255Y29122
X48255Y29122
X46255Y29122
X44255Y29122
X44255Y27752
X45255Y27362
X44255Y25122
X42255Y25122
X44255Y23122
X38925Y26322
X32345Y28352
X28255Y29122
X26255Y29122
X24255Y29122
X24255Y31122
X26255Y31122
X28255Y31122
X28255Y33122
X26255Y33122
X24255Y33122
X22255Y33122
X20255Y33122
X18255Y33122
X16255Y33122
X14255Y33122
X12255Y33122
X10255Y33122
X8255Y33122
X8255Y31122
X10255Y31122
X10255Y29122
X8255Y29122
X6255Y29122
X4255Y29122
X4255Y27122
X6255Y27122
X8255Y27122
X10255Y27122
X12255Y25122
X14255Y27122
X16255Y27122
X17255Y26122
X18255Y27122
X26255Y26122
X28255Y26122
X30255Y33122
X32255Y33122
X34255Y33122
X36255Y33122
X38255Y33122
X40255Y33122
X42255Y33122
X44255Y33122
X46255Y33122
X46255Y31122
X44255Y31122
X24255Y19122
X24255Y17122
X24255Y15122
X22255Y15122
X20255Y15122
X18255Y15122
X18255Y17122
X20255Y17122
X20955Y13122
X26255Y11122
X28255Y11122
X26255Y9122
X30255Y9122
X26255Y5122
X24255Y5122
X22255Y5122
X20255Y5122
X18255Y5122
X16255Y5122
X14255Y5122
X18255Y9122
X26255Y15122
X28255Y15122
X42255Y9122
X42255Y5122
X40255Y5122
X44255Y5122
X46255Y5122
X4255Y13122
X4255Y15122
X4255Y17122
X4255Y19122
X4255Y21122
X4255Y23122
X4255Y25122
T02
X7752Y21243
X7752Y20163
X6632Y20703
X6632Y19623
X7752Y19083
X6632Y18543
X7752Y18003
X6632Y17463
X7752Y16923
X11332Y7753
X12412Y7753
X13492Y7753
X14572Y7753
X15652Y7753
X15112Y6633
X14032Y6633
X12952Y6633
X11872Y6633
X24717Y7753
X25797Y7753
X26877Y7753
X27957Y7753
X29037Y7753
X28497Y6633
X27417Y6633
X26337Y6633
X25257Y6633
X38103Y7753
X39183Y7753
X40263Y7753
X41343Y7753
X42423Y7753
X41883Y6633
X40803Y6633
X39723Y6633
X38643Y6633
X46869Y15303
X46869Y16383
X47989Y16923
X46869Y17463
X47989Y18003
X46869Y18543
X47989Y19083
X46869Y19623
X47989Y20163
X47989Y21243
X46869Y21783
X47989Y22323
X46869Y22863
X46869Y20703
X47989Y15843
X38880Y29546
X37800Y29546
X36720Y29546
X35640Y29546
X34560Y29546
X35100Y30666
X36180Y30666
X37260Y30666
X38340Y30666
X19195Y29546
X18115Y29546
X17035Y29546
X15955Y29546
X14875Y29546
X15415Y30666
X16495Y30666
X17575Y30666
X18655Y30666
T03
X5224Y32075
X26877Y19083
X48531Y32075
X48531Y6091
X5224Y6091
T04
X8562Y7193
X7192Y14153
X18422Y7193
X21947Y7193
X31807Y7193
X35333Y7193
X45193Y7193
X47429Y12523
X47429Y25643
X41650Y30106
X31790Y30106
X21965Y30106
X12105Y30106
X7192Y24013
M30
