G75*
G70*
%OFA0B0*%
%FSLAX24Y24*%
%IPPOS*%
%LPD*%
%AMOC8*
5,1,8,0,0,1.08239X$1,22.5*
%
%ADD10R,0.0220X0.0470*%
%ADD11R,0.0470X0.0220*%
%ADD12R,0.0787X0.0630*%
%ADD13R,0.0630X0.0709*%
%ADD14R,0.0630X0.0787*%
%ADD15R,0.0800X0.0260*%
%ADD16R,0.1200X0.0300*%
%ADD17R,0.0709X0.0630*%
%ADD18R,0.0591X0.0591*%
%ADD19R,0.0250X0.1200*%
D10*
X036815Y023800D03*
X037130Y023800D03*
X037445Y023800D03*
X037760Y023800D03*
X038075Y023800D03*
X038390Y023800D03*
X038704Y023800D03*
X039019Y023800D03*
X039334Y023800D03*
X039649Y023800D03*
X039964Y023800D03*
X040279Y023800D03*
X040594Y023800D03*
X040909Y023800D03*
X041224Y023800D03*
X041539Y023800D03*
X041539Y029942D03*
X041224Y029942D03*
X040909Y029942D03*
X040594Y029942D03*
X040279Y029942D03*
X039964Y029942D03*
X039649Y029942D03*
X039334Y029942D03*
X039019Y029942D03*
X038704Y029942D03*
X038390Y029942D03*
X038075Y029942D03*
X037760Y029942D03*
X037445Y029942D03*
X037130Y029942D03*
X036815Y029942D03*
D11*
X036106Y029233D03*
X036106Y028918D03*
X036106Y028603D03*
X036106Y028288D03*
X036106Y027973D03*
X036106Y027658D03*
X036106Y027343D03*
X036106Y027028D03*
X036106Y026713D03*
X036106Y026398D03*
X036106Y026083D03*
X036106Y025768D03*
X036106Y025454D03*
X036106Y025139D03*
X036106Y024824D03*
X036106Y024509D03*
X042248Y024509D03*
X042248Y024824D03*
X042248Y025139D03*
X042248Y025454D03*
X042248Y025768D03*
X042248Y026083D03*
X042248Y026398D03*
X042248Y026713D03*
X042248Y027028D03*
X042248Y027343D03*
X042248Y027658D03*
X042248Y027973D03*
X042248Y028288D03*
X042248Y028603D03*
X042248Y028918D03*
X042248Y029233D03*
D12*
X045084Y028423D03*
X045084Y027321D03*
X042693Y032934D03*
X042693Y034036D03*
D13*
X033282Y031843D03*
X034384Y031843D03*
X036876Y036284D03*
X037979Y036284D03*
X039889Y036305D03*
X040991Y036305D03*
X042906Y043939D03*
X044008Y043939D03*
D14*
X039659Y043163D03*
X038557Y043163D03*
X038550Y045074D03*
X039652Y045074D03*
X034384Y033101D03*
X033282Y033101D03*
X024865Y038695D03*
X023762Y038695D03*
X023762Y040328D03*
X024865Y040328D03*
X024865Y043199D03*
X023762Y043199D03*
X023762Y044820D03*
X024865Y044820D03*
X044894Y024309D03*
X045996Y024309D03*
X044006Y021314D03*
X042904Y021314D03*
X042904Y019871D03*
X044006Y019871D03*
X044006Y018319D03*
X042904Y018319D03*
D15*
X043985Y038534D03*
X043985Y039034D03*
X043985Y039534D03*
X043985Y040034D03*
X043985Y040534D03*
X043985Y041034D03*
X043985Y041534D03*
X043985Y042034D03*
X041565Y042034D03*
X041565Y041534D03*
X041565Y041034D03*
X041565Y040534D03*
X041565Y040034D03*
X041565Y039534D03*
X041565Y039034D03*
X041565Y038534D03*
X037074Y043502D03*
X037074Y044002D03*
X037074Y044502D03*
X037074Y045002D03*
X034334Y045002D03*
X034334Y044502D03*
X034334Y044002D03*
X034334Y043502D03*
X022588Y043445D03*
X022588Y043945D03*
X022588Y044445D03*
X022588Y044945D03*
X019848Y044945D03*
X019848Y044445D03*
X019848Y043945D03*
X019848Y043445D03*
X019824Y040490D03*
X019824Y039990D03*
X019824Y039490D03*
X019824Y038990D03*
X022564Y038990D03*
X022564Y039490D03*
X022564Y039990D03*
X022564Y040490D03*
D16*
X017576Y040640D03*
X017576Y040040D03*
X017576Y039440D03*
X017576Y038840D03*
X014576Y038840D03*
X014576Y039440D03*
X014576Y040040D03*
X014576Y040640D03*
X014600Y043295D03*
X014600Y043895D03*
X014600Y044495D03*
X014600Y045095D03*
X017600Y045095D03*
X017600Y044495D03*
X017600Y043895D03*
X017600Y043295D03*
X029086Y043352D03*
X029086Y043952D03*
X029086Y044552D03*
X029086Y045152D03*
X032086Y045152D03*
X032086Y044552D03*
X032086Y043952D03*
X032086Y043352D03*
D17*
X045992Y043393D03*
X045992Y042290D03*
X047130Y041131D03*
X047130Y040028D03*
X048431Y040037D03*
X048431Y038935D03*
X018943Y036294D03*
X018943Y035191D03*
D18*
X045403Y022808D03*
X046781Y022808D03*
X046791Y021314D03*
X045413Y021314D03*
X045350Y019871D03*
X046728Y019871D03*
X046758Y018319D03*
X045380Y018319D03*
D19*
X046251Y027311D03*
X046751Y027311D03*
X047251Y027311D03*
X047751Y027311D03*
X047751Y030991D03*
X047251Y030991D03*
X046751Y030991D03*
X046251Y030991D03*
M02*
