G75*
G70*
%OFA0B0*%
%FSLAX24Y24*%
%IPPOS*%
%LPD*%
%AMOC8*
5,1,8,0,0,1.08239X$1,22.5*
%
%ADD10C,0.0110*%
%ADD11C,0.1000*%
%ADD12C,0.0060*%
%ADD13R,0.0220X0.0470*%
%ADD14R,0.0470X0.0220*%
%ADD15C,0.0520*%
%ADD16R,0.0591X0.0591*%
%ADD17R,0.0630X0.0709*%
%ADD18R,0.0630X0.0787*%
%ADD19R,0.0709X0.0630*%
%ADD20R,0.0787X0.0630*%
%ADD21C,0.3543*%
%ADD22C,0.0660*%
%ADD23C,0.2000*%
%ADD24C,0.0472*%
%ADD25C,0.0160*%
%ADD26C,0.0396*%
%ADD27C,0.0120*%
%ADD28C,0.0400*%
%ADD29C,0.0600*%
%ADD30C,0.0240*%
D10*
X025877Y012377D02*
X026074Y012377D01*
X025976Y012377D02*
X025976Y012968D01*
X026074Y012968D02*
X025877Y012968D01*
X026307Y012968D02*
X026504Y012968D01*
X026405Y012968D02*
X026405Y012377D01*
X026307Y012377D02*
X026504Y012377D01*
X026933Y012377D02*
X026933Y012968D01*
X026737Y012968D02*
X027130Y012968D01*
X027381Y012968D02*
X027381Y012377D01*
X027676Y012377D01*
X027775Y012476D01*
X027775Y012574D01*
X027676Y012672D01*
X027381Y012672D01*
X027676Y012672D02*
X027775Y012771D01*
X027775Y012869D01*
X027676Y012968D01*
X027381Y012968D01*
X028670Y012968D02*
X028670Y012377D01*
X028670Y012574D02*
X028965Y012574D01*
X029064Y012672D01*
X029064Y012869D01*
X028965Y012968D01*
X028670Y012968D01*
X029315Y012771D02*
X029315Y012377D01*
X029315Y012574D02*
X029511Y012771D01*
X029610Y012771D01*
X029950Y012771D02*
X030147Y012771D01*
X030245Y012672D01*
X030245Y012377D01*
X029950Y012377D01*
X029852Y012476D01*
X029950Y012574D01*
X030245Y012574D01*
X030496Y012771D02*
X030693Y012771D01*
X030595Y012869D02*
X030595Y012476D01*
X030693Y012377D01*
X030926Y012377D02*
X030926Y012968D01*
X031024Y012771D02*
X031221Y012771D01*
X031320Y012672D01*
X031320Y012377D01*
X031571Y012476D02*
X031669Y012574D01*
X031964Y012574D01*
X031964Y012672D02*
X031964Y012377D01*
X031669Y012377D01*
X031571Y012476D01*
X031669Y012771D02*
X031866Y012771D01*
X031964Y012672D01*
X032215Y012771D02*
X032215Y012377D01*
X032412Y012377D02*
X032412Y012672D01*
X032510Y012771D01*
X032609Y012672D01*
X032609Y012377D01*
X032412Y012672D02*
X032313Y012771D01*
X032215Y012771D01*
X031024Y012771D02*
X030926Y012672D01*
D11*
X024728Y013572D02*
X024730Y013611D01*
X024736Y013650D01*
X024746Y013688D01*
X024759Y013725D01*
X024776Y013760D01*
X024796Y013794D01*
X024820Y013825D01*
X024847Y013854D01*
X024876Y013880D01*
X024908Y013903D01*
X024942Y013923D01*
X024978Y013939D01*
X025015Y013951D01*
X025054Y013960D01*
X025093Y013965D01*
X025132Y013966D01*
X025171Y013963D01*
X025210Y013956D01*
X025247Y013945D01*
X025284Y013931D01*
X025319Y013913D01*
X025352Y013892D01*
X025383Y013867D01*
X025411Y013840D01*
X025436Y013810D01*
X025458Y013777D01*
X025477Y013743D01*
X025492Y013707D01*
X025504Y013669D01*
X025512Y013631D01*
X025516Y013592D01*
X025516Y013552D01*
X025512Y013513D01*
X025504Y013475D01*
X025492Y013437D01*
X025477Y013401D01*
X025458Y013367D01*
X025436Y013334D01*
X025411Y013304D01*
X025383Y013277D01*
X025352Y013252D01*
X025319Y013231D01*
X025284Y013213D01*
X025247Y013199D01*
X025210Y013188D01*
X025171Y013181D01*
X025132Y013178D01*
X025093Y013179D01*
X025054Y013184D01*
X025015Y013193D01*
X024978Y013205D01*
X024942Y013221D01*
X024908Y013241D01*
X024876Y013264D01*
X024847Y013290D01*
X024820Y013319D01*
X024796Y013350D01*
X024776Y013384D01*
X024759Y013419D01*
X024746Y013456D01*
X024736Y013494D01*
X024730Y013533D01*
X024728Y013572D01*
D12*
X045741Y048539D02*
X045741Y049179D01*
X046061Y049179D01*
X046168Y049072D01*
X046168Y048859D01*
X046061Y048752D01*
X045741Y048752D01*
X045524Y048859D02*
X045524Y049072D01*
X045417Y049179D01*
X045203Y049179D01*
X045097Y049072D01*
X045097Y048859D01*
X045203Y048752D01*
X045417Y048752D01*
X045524Y048859D01*
X044879Y049393D02*
X044452Y049393D01*
X044666Y049393D02*
X044666Y048752D01*
D13*
X019811Y028760D03*
X019496Y028760D03*
X019181Y028760D03*
X018866Y028760D03*
X018551Y028760D03*
X018236Y028760D03*
X017921Y028760D03*
X017606Y028760D03*
X017291Y028760D03*
X016976Y028760D03*
X016661Y028760D03*
X016346Y028760D03*
X016031Y028760D03*
X015716Y028760D03*
X015401Y028760D03*
X015086Y028760D03*
X015086Y022618D03*
X015401Y022618D03*
X015716Y022618D03*
X016031Y022618D03*
X016346Y022618D03*
X016661Y022618D03*
X016976Y022618D03*
X017291Y022618D03*
X017606Y022618D03*
X017921Y022618D03*
X018236Y022618D03*
X018551Y022618D03*
X018866Y022618D03*
X019181Y022618D03*
X019496Y022618D03*
X019811Y022618D03*
D14*
X020519Y023327D03*
X020519Y023641D03*
X020519Y023956D03*
X020519Y024271D03*
X020519Y024586D03*
X020519Y024901D03*
X020519Y025216D03*
X020519Y025531D03*
X020519Y025846D03*
X020519Y026161D03*
X020519Y026476D03*
X020519Y026791D03*
X020519Y027106D03*
X020519Y027421D03*
X020519Y027736D03*
X020519Y028051D03*
X014378Y028051D03*
X014378Y027736D03*
X014378Y027421D03*
X014378Y027106D03*
X014378Y026791D03*
X014378Y026476D03*
X014378Y026161D03*
X014378Y025846D03*
X014378Y025531D03*
X014378Y025216D03*
X014378Y024901D03*
X014378Y024586D03*
X014378Y024271D03*
X014378Y023956D03*
X014378Y023641D03*
X014378Y023327D03*
D15*
X016862Y033910D03*
X018762Y033910D03*
X037989Y034890D03*
X039889Y034890D03*
D16*
X049266Y027942D03*
X049266Y026564D03*
X020789Y016006D03*
X020789Y014628D03*
X019300Y014628D03*
X019300Y016006D03*
X017688Y016006D03*
X017688Y014628D03*
X016115Y014628D03*
X016115Y016006D03*
D17*
X021512Y032335D03*
X022614Y032335D03*
X019862Y035343D03*
X018760Y035343D03*
X016856Y035345D03*
X015754Y035345D03*
X045393Y012145D03*
X046495Y012145D03*
X049897Y047172D03*
X050999Y047172D03*
D18*
X049287Y025147D03*
X048184Y025147D03*
X022614Y033593D03*
X021512Y033593D03*
D19*
X009922Y027182D03*
X009922Y026080D03*
X016022Y010873D03*
X016022Y009771D03*
D20*
X016115Y017144D03*
X016115Y018246D03*
X017697Y018246D03*
X017697Y017144D03*
X019300Y017144D03*
X019300Y018246D03*
X020789Y018246D03*
X020789Y017144D03*
D21*
X006091Y006091D03*
X029713Y029713D03*
X053335Y053335D03*
X053335Y006091D03*
X006091Y053335D03*
D22*
X013343Y044487D03*
X013343Y043295D03*
X015793Y042337D03*
X016763Y042337D03*
X017863Y042337D03*
X018963Y042337D03*
X018943Y037667D03*
X017893Y037662D03*
X016793Y037662D03*
X015793Y037662D03*
X013543Y038852D03*
X013343Y040042D03*
X007693Y039555D03*
X006693Y039015D03*
X007693Y038475D03*
X007693Y037395D03*
X006693Y037935D03*
X006693Y040095D03*
X007693Y040635D03*
X006693Y041175D03*
X007693Y041715D03*
X016090Y051654D03*
X017170Y051654D03*
X016630Y052654D03*
X017710Y052654D03*
X018250Y051654D03*
X018790Y052654D03*
X019330Y051654D03*
X019870Y052654D03*
X020410Y051654D03*
X020950Y052654D03*
X021490Y051654D03*
X022030Y052654D03*
X023110Y052654D03*
X022570Y051654D03*
X023650Y051654D03*
X024722Y049522D03*
X022322Y049522D03*
X024872Y043999D03*
X027628Y044547D03*
X027753Y043352D03*
X024872Y039399D03*
X021722Y035297D03*
X032453Y042337D03*
X033453Y042337D03*
X034773Y037547D03*
X034773Y036447D03*
X034792Y035297D03*
X035573Y033947D03*
X033286Y033947D03*
X039659Y042034D03*
X039659Y044134D03*
X042693Y041376D03*
X042693Y036302D03*
X051654Y037395D03*
X051654Y038475D03*
X052654Y037935D03*
X052654Y039015D03*
X051654Y039555D03*
X052654Y040095D03*
X051654Y040635D03*
X052654Y041175D03*
X051654Y041715D03*
X053978Y045566D03*
X053178Y046366D03*
X052378Y047166D03*
X041715Y051654D03*
X041175Y052654D03*
X040635Y051654D03*
X040095Y052654D03*
X039555Y051654D03*
X039015Y052654D03*
X038475Y051654D03*
X037395Y051654D03*
X037935Y052654D03*
X039522Y049122D03*
X045083Y026232D03*
X047751Y026232D03*
X051654Y023650D03*
X051654Y022570D03*
X052654Y022030D03*
X052654Y023110D03*
X051654Y021490D03*
X052654Y020950D03*
X051654Y020410D03*
X052654Y019870D03*
X051654Y019330D03*
X052654Y018790D03*
X051654Y018250D03*
X052654Y017710D03*
X052654Y016630D03*
X051654Y016090D03*
X051654Y017170D03*
X044522Y012145D03*
X044522Y010142D03*
X043335Y007693D03*
X042795Y006693D03*
X042255Y007693D03*
X041715Y006693D03*
X041175Y007693D03*
X040635Y006693D03*
X040095Y007693D03*
X039555Y006693D03*
X039015Y007693D03*
X038475Y006693D03*
X037395Y006693D03*
X036855Y007693D03*
X037935Y007693D03*
X036315Y006693D03*
X035775Y007693D03*
X037922Y010122D03*
X023650Y007693D03*
X022570Y007693D03*
X022030Y006693D03*
X023110Y006693D03*
X021490Y007693D03*
X020950Y006693D03*
X020410Y007693D03*
X019870Y006693D03*
X019330Y007693D03*
X018790Y006693D03*
X018250Y007693D03*
X017710Y006693D03*
X016630Y006693D03*
X016090Y007693D03*
X017170Y007693D03*
X014910Y009684D03*
X009922Y016322D03*
X009922Y018522D03*
X009922Y020497D03*
X009922Y022522D03*
X009922Y023722D03*
X009922Y024722D03*
X007693Y023650D03*
X007693Y022570D03*
X006693Y022030D03*
X006693Y023110D03*
X007693Y021490D03*
X006693Y020950D03*
X007693Y020410D03*
X006693Y019870D03*
X007693Y019330D03*
X006693Y018790D03*
X007693Y018250D03*
X006693Y017710D03*
X006693Y016630D03*
X007693Y016090D03*
X007693Y017170D03*
X020147Y020497D03*
X020372Y021172D03*
X004922Y030922D03*
D23*
X007193Y034625D03*
X007193Y026430D03*
X007193Y013310D03*
X013310Y007193D03*
X026430Y007193D03*
X032995Y007193D03*
X046115Y007193D03*
X052154Y013310D03*
X052154Y026430D03*
X052154Y034625D03*
X052154Y044485D03*
X044485Y052154D03*
X034625Y052154D03*
X026430Y052154D03*
X013310Y052154D03*
X007193Y044485D03*
D24*
X014622Y049222D03*
X015322Y049222D03*
X017322Y049222D03*
X018722Y049222D03*
X019922Y049222D03*
X021322Y049222D03*
X009922Y032722D03*
X009922Y031722D03*
X009922Y030722D03*
X035722Y010122D03*
X038922Y010122D03*
X040122Y010122D03*
X041222Y010122D03*
X042322Y010122D03*
X043422Y010122D03*
X047322Y015222D03*
X047322Y016122D03*
X047322Y017622D03*
X047822Y018222D03*
X048322Y018822D03*
X048822Y019330D03*
X048822Y020410D03*
X048322Y020922D03*
X047822Y021422D03*
X047322Y021922D03*
X037722Y038522D03*
X038922Y039022D03*
X038922Y040022D03*
D25*
X038934Y040034D01*
X039422Y040034D01*
X039208Y040506D02*
X039033Y040578D01*
X038812Y040578D01*
X038607Y040494D01*
X038451Y040337D01*
X038366Y040133D01*
X038366Y039912D01*
X038451Y039707D01*
X038607Y039551D01*
X038676Y039522D01*
X038607Y039494D01*
X038451Y039337D01*
X038366Y039133D01*
X038366Y039035D01*
X038325Y039052D01*
X038119Y039052D01*
X038008Y039006D01*
X037833Y039078D01*
X037612Y039078D01*
X037407Y038994D01*
X037251Y038837D01*
X037166Y038633D01*
X037166Y038412D01*
X037251Y038207D01*
X037407Y038051D01*
X037612Y037966D01*
X037833Y037966D01*
X038036Y038050D01*
X038119Y038016D01*
X038325Y038016D01*
X038516Y038095D01*
X038661Y038240D01*
X038740Y038431D01*
X038740Y038496D01*
X038812Y038466D01*
X039033Y038466D01*
X039236Y038550D01*
X039319Y038516D01*
X039525Y038516D01*
X039716Y038595D01*
X039861Y038740D01*
X039940Y038931D01*
X039940Y039137D01*
X039861Y039327D01*
X039716Y039473D01*
X039569Y039534D01*
X039716Y039595D01*
X039861Y039740D01*
X039940Y039931D01*
X039940Y040137D01*
X039861Y040327D01*
X039716Y040473D01*
X039525Y040552D01*
X039319Y040552D01*
X039208Y040506D01*
X039760Y040429D02*
X040004Y040429D01*
X040060Y040373D02*
X040250Y040294D01*
X040456Y040294D01*
X040647Y040373D01*
X040793Y040519D01*
X040871Y040709D01*
X040871Y040915D01*
X040793Y041104D01*
X040793Y049790D01*
X040884Y049881D01*
X041008Y050005D01*
X041075Y050167D01*
X041075Y050634D01*
X042419Y050634D01*
X042537Y050682D01*
X042627Y050772D01*
X042675Y050890D01*
X042675Y053417D01*
X042627Y053535D01*
X042537Y053625D01*
X042419Y053674D01*
X036692Y053674D01*
X036574Y053625D01*
X036484Y053535D01*
X036435Y053417D01*
X036435Y050890D01*
X036484Y050772D01*
X036574Y050682D01*
X036692Y050634D01*
X036955Y050634D01*
X036955Y050193D01*
X037022Y050031D01*
X037146Y049907D01*
X037454Y049599D01*
X037616Y049532D01*
X037791Y049532D01*
X039013Y049532D01*
X038971Y049490D01*
X038872Y049251D01*
X038872Y048993D01*
X038971Y048754D01*
X039154Y048571D01*
X039393Y048472D01*
X039651Y048472D01*
X039890Y048571D01*
X039913Y048594D01*
X039913Y044732D01*
X039788Y044784D01*
X039530Y044784D01*
X039291Y044685D01*
X039108Y044502D01*
X039009Y044263D01*
X039009Y044005D01*
X039108Y043766D01*
X039291Y043583D01*
X039530Y043484D01*
X039788Y043484D01*
X039913Y043536D01*
X039913Y042632D01*
X039788Y042684D01*
X039530Y042684D01*
X039291Y042585D01*
X039108Y042402D01*
X039009Y042163D01*
X039009Y041905D01*
X039108Y041666D01*
X039291Y041483D01*
X039530Y041384D01*
X039788Y041384D01*
X039913Y041436D01*
X039913Y041104D01*
X039835Y040915D01*
X039835Y040709D01*
X039914Y040519D01*
X040060Y040373D01*
X039885Y040270D02*
X050634Y040270D01*
X050634Y040112D02*
X039940Y040112D01*
X039940Y039953D02*
X049551Y039953D01*
X049491Y039928D02*
X048964Y039401D01*
X048897Y039240D01*
X048897Y039065D01*
X048897Y038448D01*
X048738Y038289D01*
X048550Y038211D01*
X048404Y038066D01*
X048325Y037875D01*
X048325Y037669D01*
X048404Y037479D01*
X048550Y037333D01*
X048740Y037254D01*
X048946Y037254D01*
X049137Y037333D01*
X049283Y037479D01*
X049361Y037667D01*
X049586Y037893D01*
X049710Y038017D01*
X049777Y038179D01*
X049777Y038970D01*
X049923Y039115D01*
X050634Y039115D01*
X050634Y036692D01*
X050682Y036574D01*
X050772Y036484D01*
X050890Y036435D01*
X053417Y036435D01*
X053535Y036484D01*
X053625Y036574D01*
X053674Y036692D01*
X053674Y042419D01*
X053625Y042537D01*
X053535Y042627D01*
X053417Y042675D01*
X050890Y042675D01*
X050772Y042627D01*
X050682Y042537D01*
X050634Y042419D01*
X050634Y039995D01*
X049828Y039995D01*
X049653Y039995D01*
X049491Y039928D01*
X049357Y039794D02*
X039884Y039794D01*
X039757Y039636D02*
X049199Y039636D01*
X049040Y039477D02*
X039705Y039477D01*
X039865Y039319D02*
X048930Y039319D01*
X048897Y039160D02*
X039931Y039160D01*
X039940Y039002D02*
X048897Y039002D01*
X048897Y038843D02*
X039904Y038843D01*
X039806Y038685D02*
X048897Y038685D01*
X048897Y038526D02*
X039550Y038526D01*
X039294Y038526D02*
X039178Y038526D01*
X038714Y038368D02*
X048816Y038368D01*
X048547Y038209D02*
X038630Y038209D01*
X038409Y038050D02*
X048398Y038050D01*
X048332Y037892D02*
X035393Y037892D01*
X035393Y037749D02*
X035393Y047033D01*
X035393Y047280D01*
X035299Y047508D01*
X032759Y050048D01*
X032531Y050142D01*
X032284Y050142D01*
X024924Y050142D01*
X024851Y050172D01*
X024593Y050172D01*
X024520Y050142D01*
X024479Y050142D01*
X023987Y050634D01*
X024354Y050634D01*
X024471Y050682D01*
X024561Y050772D01*
X024610Y050890D01*
X024610Y053417D01*
X024561Y053535D01*
X024471Y053625D01*
X024354Y053674D01*
X018507Y053674D01*
X017670Y054511D01*
X017523Y054572D01*
X017364Y054572D01*
X015603Y054572D01*
X015444Y054572D01*
X015297Y054511D01*
X014527Y053741D01*
X014414Y053629D01*
X014353Y053482D01*
X014353Y052707D01*
X014345Y052725D01*
X014274Y052838D01*
X014191Y052941D01*
X014098Y053035D01*
X013994Y053118D01*
X013882Y053188D01*
X013762Y053246D01*
X013637Y053289D01*
X013508Y053319D01*
X013390Y053332D01*
X013390Y052234D01*
X013230Y052234D01*
X013230Y053332D01*
X013112Y053319D01*
X012983Y053289D01*
X012858Y053246D01*
X012739Y053188D01*
X012626Y053118D01*
X012523Y053035D01*
X012429Y052941D01*
X012346Y052838D01*
X012276Y052725D01*
X012218Y052606D01*
X012175Y052481D01*
X012145Y052352D01*
X012132Y052234D01*
X013230Y052234D01*
X013230Y052074D01*
X012132Y052074D01*
X012145Y051956D01*
X012175Y051826D01*
X012218Y051701D01*
X012276Y051582D01*
X012346Y051470D01*
X012429Y051366D01*
X012523Y051272D01*
X012626Y051190D01*
X012739Y051119D01*
X012858Y051062D01*
X012983Y051018D01*
X013112Y050989D01*
X013230Y050975D01*
X013230Y052074D01*
X013390Y052074D01*
X013390Y050975D01*
X013508Y050989D01*
X013637Y051018D01*
X013762Y051062D01*
X013882Y051119D01*
X013994Y051190D01*
X014098Y051272D01*
X014191Y051366D01*
X014274Y051470D01*
X014345Y051582D01*
X014353Y051600D01*
X014353Y049713D01*
X014307Y049694D01*
X014151Y049537D01*
X014066Y049333D01*
X014066Y049112D01*
X014151Y048907D01*
X014307Y048751D01*
X014353Y048732D01*
X014353Y048362D01*
X014353Y048203D01*
X014414Y048056D01*
X016824Y045646D01*
X016937Y045533D01*
X017084Y045472D01*
X027838Y045472D01*
X028358Y044951D01*
X028358Y043590D01*
X028304Y043720D01*
X028121Y043903D01*
X027947Y043976D01*
X027996Y043996D01*
X028179Y044179D01*
X028278Y044418D01*
X028278Y044676D01*
X028179Y044915D01*
X027996Y045098D01*
X027758Y045197D01*
X027499Y045197D01*
X027260Y045098D01*
X027077Y044915D01*
X026978Y044676D01*
X026978Y044418D01*
X027077Y044179D01*
X027260Y043996D01*
X027435Y043924D01*
X027385Y043903D01*
X027202Y043720D01*
X027103Y043481D01*
X027103Y043223D01*
X027202Y042984D01*
X027385Y042801D01*
X027624Y042702D01*
X027883Y042702D01*
X028121Y042801D01*
X028304Y042984D01*
X028358Y043114D01*
X028358Y037931D01*
X028276Y037965D01*
X028070Y037965D01*
X027880Y037886D01*
X027841Y037847D01*
X023952Y037847D01*
X023793Y037847D01*
X023646Y037786D01*
X023325Y037465D01*
X023269Y037465D01*
X023234Y037451D01*
X023234Y037557D01*
X023629Y037952D01*
X024749Y037952D01*
X024996Y037952D01*
X025223Y038047D01*
X025398Y038221D01*
X025492Y038449D01*
X025492Y039197D01*
X025522Y039269D01*
X025522Y039528D01*
X025492Y039601D01*
X025492Y043797D01*
X025522Y043869D01*
X025522Y044128D01*
X025423Y044367D01*
X025240Y044550D01*
X025001Y044649D01*
X024743Y044649D01*
X024504Y044550D01*
X024321Y044367D01*
X024222Y044128D01*
X024222Y043869D01*
X024252Y043797D01*
X024252Y039601D01*
X024222Y039528D01*
X024222Y039269D01*
X024252Y039197D01*
X024252Y039192D01*
X023249Y039192D01*
X023021Y039098D01*
X022847Y038923D01*
X022263Y038339D01*
X022263Y038339D01*
X022088Y038165D01*
X021994Y037937D01*
X021994Y035917D01*
X021924Y035917D01*
X021851Y035947D01*
X021593Y035947D01*
X021354Y035848D01*
X021323Y035817D01*
X021176Y035817D01*
X020969Y035817D01*
X020778Y035738D01*
X020305Y035265D01*
X019940Y035265D01*
X019940Y035420D01*
X020357Y035420D01*
X020357Y035721D01*
X020345Y035766D01*
X020321Y035807D01*
X020288Y035841D01*
X020247Y035865D01*
X020201Y035877D01*
X019940Y035877D01*
X019940Y035420D01*
X019785Y035420D01*
X019785Y035877D01*
X019524Y035877D01*
X019478Y035865D01*
X019437Y035841D01*
X019403Y035807D01*
X019387Y035779D01*
X019346Y035878D01*
X019256Y035968D01*
X019139Y036017D01*
X018381Y036017D01*
X018264Y035968D01*
X018174Y035878D01*
X018125Y035761D01*
X018125Y034925D01*
X018174Y034807D01*
X018264Y034717D01*
X018362Y034676D01*
X018362Y034331D01*
X018270Y034239D01*
X018182Y034026D01*
X018182Y033795D01*
X018270Y033582D01*
X018349Y033503D01*
X017768Y032923D01*
X017262Y033429D01*
X017262Y033490D01*
X017353Y033582D01*
X017442Y033795D01*
X017442Y034026D01*
X017353Y034239D01*
X017262Y034331D01*
X017262Y034682D01*
X017352Y034719D01*
X017442Y034809D01*
X017491Y034927D01*
X017491Y035763D01*
X017442Y035880D01*
X017352Y035970D01*
X017234Y036019D01*
X016477Y036019D01*
X016360Y035970D01*
X016270Y035880D01*
X016229Y035781D01*
X016212Y035810D01*
X016179Y035843D01*
X016138Y035867D01*
X016092Y035879D01*
X015831Y035879D01*
X015831Y035423D01*
X015676Y035423D01*
X015676Y035879D01*
X015415Y035879D01*
X015369Y035867D01*
X015328Y035843D01*
X015294Y035810D01*
X015271Y035769D01*
X015259Y035723D01*
X015259Y035422D01*
X015676Y035422D01*
X015676Y035267D01*
X015831Y035267D01*
X015831Y034810D01*
X016092Y034810D01*
X016138Y034823D01*
X016179Y034846D01*
X016212Y034880D01*
X016240Y034880D01*
X016212Y034880D02*
X016229Y034908D01*
X016270Y034809D01*
X016360Y034719D01*
X016462Y034677D01*
X016462Y034331D01*
X016370Y034239D01*
X016282Y034026D01*
X016282Y033795D01*
X016370Y033582D01*
X016462Y033490D01*
X016462Y033184D01*
X016487Y033122D01*
X010309Y033122D01*
X010237Y033194D01*
X010033Y033278D01*
X009812Y033278D01*
X009607Y033194D01*
X009576Y033162D01*
X008756Y033162D01*
X008581Y033162D01*
X008419Y033095D01*
X004470Y029146D01*
X004403Y028985D01*
X004403Y028810D01*
X004403Y020745D01*
X004403Y020570D01*
X004470Y020408D01*
X005381Y019497D01*
X005543Y019430D01*
X005673Y019430D01*
X005673Y015387D01*
X005722Y015269D01*
X005812Y015179D01*
X005929Y015130D01*
X008457Y015130D01*
X008574Y015179D01*
X008664Y015269D01*
X008713Y015387D01*
X008713Y024354D01*
X008664Y024471D01*
X008574Y024561D01*
X008457Y024610D01*
X005963Y024610D01*
X005963Y028440D01*
X008806Y031282D01*
X009576Y031282D01*
X009607Y031251D01*
X009676Y031222D01*
X009607Y031194D01*
X009536Y031122D01*
X009451Y031122D01*
X009425Y031148D01*
X009235Y031227D01*
X009029Y031227D01*
X008838Y031148D01*
X008693Y031002D01*
X008614Y030811D01*
X008614Y030605D01*
X008693Y030415D01*
X008838Y030269D01*
X009029Y030190D01*
X009235Y030190D01*
X009425Y030269D01*
X009465Y030308D01*
X009549Y030308D01*
X009607Y030251D01*
X009812Y030166D01*
X010033Y030166D01*
X010237Y030251D01*
X010295Y030308D01*
X012602Y030308D01*
X012602Y024986D01*
X011747Y024986D01*
X011588Y024986D01*
X011441Y024925D01*
X010977Y024461D01*
X010864Y024349D01*
X010803Y024202D01*
X010803Y020443D01*
X010864Y020296D01*
X010977Y020183D01*
X012577Y018583D01*
X012724Y018522D01*
X012883Y018522D01*
X015401Y018522D01*
X015401Y017868D01*
X015450Y017750D01*
X015505Y017695D01*
X015450Y017640D01*
X015401Y017523D01*
X015401Y016765D01*
X015450Y016648D01*
X015540Y016558D01*
X015599Y016533D01*
X015548Y016483D01*
X015500Y016365D01*
X015500Y015647D01*
X015548Y015530D01*
X015638Y015440D01*
X015756Y015391D01*
X016474Y015391D01*
X016591Y015440D01*
X016681Y015530D01*
X016730Y015647D01*
X016730Y016365D01*
X016681Y016483D01*
X016631Y016533D01*
X016690Y016558D01*
X016780Y016648D01*
X016828Y016765D01*
X016828Y017523D01*
X016780Y017640D01*
X016725Y017695D01*
X016780Y017750D01*
X016828Y017868D01*
X016828Y018625D01*
X016780Y018743D01*
X016690Y018833D01*
X016572Y018881D01*
X016456Y018881D01*
X016454Y018887D01*
X016269Y019072D01*
X016738Y019072D01*
X017050Y018760D01*
X017032Y018743D01*
X016983Y018625D01*
X016983Y017868D01*
X017032Y017750D01*
X017087Y017695D01*
X017032Y017640D01*
X016983Y017523D01*
X016983Y016765D01*
X017032Y016648D01*
X017122Y016558D01*
X017175Y016536D01*
X017122Y016483D01*
X017073Y016365D01*
X017073Y015647D01*
X017122Y015530D01*
X017212Y015440D01*
X017329Y015391D01*
X018047Y015391D01*
X018165Y015440D01*
X018255Y015530D01*
X018303Y015647D01*
X018303Y016365D01*
X018255Y016483D01*
X018207Y016531D01*
X018272Y016558D01*
X018362Y016648D01*
X018411Y016765D01*
X018411Y017523D01*
X018362Y017640D01*
X018307Y017695D01*
X018362Y017750D01*
X018411Y017868D01*
X018411Y018625D01*
X018362Y018743D01*
X018272Y018833D01*
X018154Y018881D01*
X018046Y018881D01*
X018036Y018905D01*
X017369Y019572D01*
X017838Y019572D01*
X018651Y018759D01*
X018635Y018743D01*
X018586Y018625D01*
X018586Y017868D01*
X018635Y017750D01*
X018690Y017695D01*
X018635Y017640D01*
X018586Y017523D01*
X018586Y016765D01*
X018635Y016648D01*
X018725Y016558D01*
X018784Y016533D01*
X018734Y016483D01*
X018685Y016365D01*
X018685Y015647D01*
X018734Y015530D01*
X018824Y015440D01*
X018941Y015391D01*
X019659Y015391D01*
X019777Y015440D01*
X019867Y015530D01*
X019915Y015647D01*
X019915Y016365D01*
X019867Y016483D01*
X019816Y016533D01*
X019875Y016558D01*
X019965Y016648D01*
X020014Y016765D01*
X020014Y017523D01*
X019965Y017640D01*
X019910Y017695D01*
X019965Y017750D01*
X020014Y017868D01*
X020014Y018625D01*
X019965Y018743D01*
X019875Y018833D01*
X019757Y018881D01*
X019648Y018881D01*
X019639Y018902D01*
X018519Y020022D01*
X018938Y020022D01*
X020170Y018789D01*
X020124Y018743D01*
X020075Y018625D01*
X020075Y017868D01*
X020124Y017750D01*
X020179Y017695D01*
X020124Y017640D01*
X020075Y017523D01*
X020075Y016765D01*
X020124Y016648D01*
X020214Y016558D01*
X020272Y016533D01*
X020222Y016483D01*
X020173Y016365D01*
X020173Y015647D01*
X020222Y015530D01*
X020312Y015440D01*
X020430Y015391D01*
X021148Y015391D01*
X021265Y015440D01*
X021355Y015530D01*
X021404Y015647D01*
X021404Y016365D01*
X021355Y016483D01*
X021305Y016533D01*
X021364Y016558D01*
X021454Y016648D01*
X021502Y016765D01*
X021502Y017523D01*
X021454Y017640D01*
X021399Y017695D01*
X021454Y017750D01*
X021502Y017868D01*
X021502Y018625D01*
X021454Y018743D01*
X021364Y018833D01*
X021246Y018881D01*
X021162Y018881D01*
X021128Y018964D01*
X020244Y019847D01*
X020276Y019847D01*
X020515Y019946D01*
X020698Y020129D01*
X020728Y020201D01*
X020898Y020371D01*
X020992Y020599D01*
X020992Y020802D01*
X022186Y020802D01*
X022303Y020851D01*
X022393Y020941D01*
X022442Y021059D01*
X022442Y022712D01*
X027871Y017283D01*
X028018Y017222D01*
X028177Y017222D01*
X035340Y017222D01*
X035336Y017219D01*
X035257Y017028D01*
X035257Y016822D01*
X035335Y016634D01*
X035335Y010522D01*
X035251Y010437D01*
X035166Y010233D01*
X035166Y010012D01*
X035251Y009807D01*
X035335Y009723D01*
X035335Y008713D01*
X035072Y008713D01*
X034954Y008664D01*
X034864Y008574D01*
X034815Y008457D01*
X034815Y005929D01*
X034864Y005812D01*
X034954Y005722D01*
X035072Y005673D01*
X037302Y005673D01*
X037302Y005499D01*
X037397Y005271D01*
X038071Y004597D01*
X038299Y004502D01*
X038546Y004502D01*
X044046Y004502D01*
X044273Y004597D01*
X044448Y004771D01*
X044873Y005197D01*
X045048Y005371D01*
X045142Y005599D01*
X045142Y006524D01*
X045151Y006509D01*
X045234Y006406D01*
X045328Y006312D01*
X045431Y006229D01*
X045544Y006159D01*
X045663Y006101D01*
X045788Y006057D01*
X045917Y006028D01*
X046035Y006015D01*
X046035Y007113D01*
X046195Y007113D01*
X046195Y006015D01*
X046313Y006028D01*
X046442Y006057D01*
X046568Y006101D01*
X046687Y006159D01*
X046799Y006229D01*
X046903Y006312D01*
X046996Y006406D01*
X047079Y006509D01*
X047150Y006621D01*
X047207Y006741D01*
X047251Y006866D01*
X047280Y006995D01*
X047294Y007113D01*
X046195Y007113D01*
X046195Y007273D01*
X046035Y007273D01*
X046035Y008371D01*
X045917Y008358D01*
X045788Y008329D01*
X045663Y008285D01*
X045544Y008227D01*
X045431Y008157D01*
X045328Y008074D01*
X045234Y007981D01*
X045151Y007877D01*
X045142Y007862D01*
X045142Y009940D01*
X045172Y010013D01*
X045172Y010271D01*
X045142Y010344D01*
X045142Y011470D01*
X045772Y011470D01*
X045889Y011519D01*
X045979Y011609D01*
X046020Y011708D01*
X046036Y011680D01*
X046070Y011646D01*
X046111Y011623D01*
X046157Y011610D01*
X046418Y011610D01*
X046418Y012067D01*
X046573Y012067D01*
X046573Y011610D01*
X046834Y011610D01*
X046880Y011623D01*
X046921Y011646D01*
X046954Y011680D01*
X046978Y011721D01*
X046990Y011767D01*
X046990Y012067D01*
X046573Y012067D01*
X046573Y012222D01*
X046990Y012222D01*
X046990Y012523D01*
X046978Y012569D01*
X046954Y012610D01*
X046921Y012643D01*
X046880Y012667D01*
X046834Y012679D01*
X046573Y012679D01*
X046573Y012222D01*
X046418Y012222D01*
X046418Y012679D01*
X046157Y012679D01*
X046111Y012667D01*
X046070Y012643D01*
X046036Y012610D01*
X046020Y012581D01*
X045979Y012680D01*
X045889Y012770D01*
X045772Y012819D01*
X045014Y012819D01*
X044897Y012770D01*
X044891Y012765D01*
X044724Y012765D01*
X044651Y012795D01*
X044393Y012795D01*
X044154Y012696D01*
X043971Y012513D01*
X043872Y012274D01*
X043872Y012015D01*
X043902Y011943D01*
X043902Y010417D01*
X043894Y010437D01*
X043737Y010594D01*
X043611Y010646D01*
X043547Y010801D01*
X043401Y010947D01*
X043211Y011026D01*
X043005Y011026D01*
X042814Y010947D01*
X042669Y010801D01*
X042591Y010613D01*
X042433Y010678D01*
X042212Y010678D01*
X042007Y010594D01*
X041851Y010437D01*
X041772Y010248D01*
X041694Y010437D01*
X041537Y010594D01*
X041333Y010678D01*
X041112Y010678D01*
X040907Y010594D01*
X040751Y010437D01*
X040672Y010248D01*
X040594Y010437D01*
X040437Y010594D01*
X040233Y010678D01*
X040012Y010678D01*
X039807Y010594D01*
X039651Y010437D01*
X039566Y010233D01*
X039566Y010012D01*
X039651Y009807D01*
X039695Y009763D01*
X039695Y008713D01*
X039415Y008713D01*
X039415Y009859D01*
X039478Y010012D01*
X039478Y010233D01*
X039415Y010385D01*
X039415Y012377D01*
X039454Y012417D01*
X039533Y012607D01*
X039533Y012813D01*
X039454Y013004D01*
X039309Y013149D01*
X039118Y013228D01*
X038912Y013228D01*
X038722Y013149D01*
X038576Y013004D01*
X038497Y012813D01*
X038497Y012607D01*
X038576Y012417D01*
X038615Y012377D01*
X038615Y010597D01*
X038607Y010594D01*
X038451Y010437D01*
X038366Y010233D01*
X038366Y010012D01*
X038451Y009807D01*
X038607Y009651D01*
X038615Y009647D01*
X038615Y008713D01*
X037295Y008713D01*
X037295Y009702D01*
X037295Y009877D01*
X037228Y010038D01*
X036895Y010371D01*
X036771Y010495D01*
X036610Y010562D01*
X036215Y010562D01*
X036215Y016634D01*
X036293Y016822D01*
X036293Y017028D01*
X036214Y017219D01*
X036211Y017222D01*
X046936Y017222D01*
X047007Y017151D01*
X047212Y017066D01*
X047313Y017066D01*
X048628Y015751D01*
X048775Y015690D01*
X048934Y015690D01*
X050634Y015690D01*
X050634Y015387D01*
X050682Y015269D01*
X050772Y015179D01*
X050890Y015130D01*
X053417Y015130D01*
X053535Y015179D01*
X053625Y015269D01*
X053674Y015387D01*
X053674Y024354D01*
X053625Y024471D01*
X053535Y024561D01*
X053417Y024610D01*
X050890Y024610D01*
X050772Y024561D01*
X050682Y024471D01*
X050634Y024354D01*
X050634Y024050D01*
X049130Y024050D01*
X048971Y024050D01*
X048824Y023989D01*
X047313Y022478D01*
X047212Y022478D01*
X047007Y022394D01*
X046851Y022237D01*
X046766Y022033D01*
X046766Y021932D01*
X046756Y021922D01*
X034799Y021922D01*
X034793Y021928D01*
X034793Y023559D01*
X034833Y023599D01*
X034911Y023789D01*
X034911Y023995D01*
X034833Y024186D01*
X034687Y024331D01*
X034671Y024338D01*
X034741Y024509D01*
X034741Y024715D01*
X034663Y024906D01*
X034517Y025051D01*
X034326Y025130D01*
X034120Y025130D01*
X033930Y025051D01*
X033784Y024906D01*
X033705Y024715D01*
X033705Y024660D01*
X033664Y024619D01*
X033664Y026700D01*
X033704Y026740D01*
X033782Y026930D01*
X033782Y027136D01*
X033704Y027327D01*
X033558Y027472D01*
X033367Y027551D01*
X033173Y027551D01*
X033173Y027586D01*
X034051Y028464D01*
X034106Y028464D01*
X034297Y028543D01*
X034443Y028689D01*
X034521Y028879D01*
X034521Y029085D01*
X034443Y029276D01*
X034297Y029421D01*
X034106Y029500D01*
X033900Y029500D01*
X033710Y029421D01*
X033564Y029276D01*
X033485Y029085D01*
X033485Y029030D01*
X032434Y027979D01*
X032373Y027832D01*
X032373Y027673D01*
X032373Y027113D01*
X032357Y027129D01*
X032245Y027241D01*
X032098Y027302D01*
X027204Y027302D01*
X026045Y028461D01*
X025898Y028522D01*
X025739Y028522D01*
X023949Y028522D01*
X027854Y032427D01*
X030148Y032427D01*
X030295Y032488D01*
X030407Y032601D01*
X031440Y033633D01*
X031552Y033746D01*
X031613Y033893D01*
X031613Y046587D01*
X031552Y046734D01*
X031440Y046846D01*
X029495Y048791D01*
X029348Y048852D01*
X029189Y048852D01*
X022214Y048852D01*
X021878Y049188D01*
X021878Y049333D01*
X021794Y049537D01*
X021637Y049694D01*
X021433Y049778D01*
X021288Y049778D01*
X020810Y050256D01*
X020810Y050634D01*
X022502Y050634D01*
X022502Y050499D01*
X022597Y050271D01*
X023871Y048997D01*
X024099Y048902D01*
X024346Y048902D01*
X024520Y048902D01*
X024593Y048872D01*
X024851Y048872D01*
X024924Y048902D01*
X032151Y048902D01*
X034153Y046899D01*
X034153Y037749D01*
X034123Y037676D01*
X034123Y037418D01*
X034153Y037345D01*
X034153Y036649D01*
X034123Y036576D01*
X034123Y036318D01*
X034172Y036200D01*
X034172Y035499D01*
X034142Y035426D01*
X034142Y035168D01*
X034241Y034929D01*
X034424Y034746D01*
X034663Y034647D01*
X034921Y034647D01*
X035160Y034746D01*
X035343Y034929D01*
X035442Y035168D01*
X035442Y035426D01*
X035412Y035499D01*
X035412Y036291D01*
X035423Y036318D01*
X035423Y036576D01*
X035393Y036649D01*
X035393Y037345D01*
X035423Y037418D01*
X035423Y037676D01*
X035393Y037749D01*
X035400Y037733D02*
X048325Y037733D01*
X048364Y037575D02*
X035423Y037575D01*
X035423Y037416D02*
X048466Y037416D01*
X048731Y037258D02*
X035393Y037258D01*
X035393Y037099D02*
X050634Y037099D01*
X050634Y036941D02*
X042850Y036941D01*
X042823Y036952D02*
X042564Y036952D01*
X042325Y036853D01*
X042142Y036670D01*
X042043Y036431D01*
X042043Y036173D01*
X042142Y035934D01*
X042325Y035751D01*
X042564Y035652D01*
X042823Y035652D01*
X043061Y035751D01*
X043244Y035934D01*
X043343Y036173D01*
X043343Y036431D01*
X043244Y036670D01*
X043061Y036853D01*
X042823Y036952D01*
X042536Y036941D02*
X035393Y036941D01*
X035393Y036782D02*
X042254Y036782D01*
X042123Y036624D02*
X035404Y036624D01*
X035423Y036465D02*
X042057Y036465D01*
X042043Y036306D02*
X035419Y036306D01*
X035412Y036148D02*
X042054Y036148D01*
X042119Y035989D02*
X035412Y035989D01*
X035412Y035831D02*
X042245Y035831D01*
X042515Y035672D02*
X035412Y035672D01*
X035412Y035514D02*
X051375Y035514D01*
X051366Y035506D02*
X051272Y035413D01*
X051190Y035309D01*
X051119Y035197D01*
X051062Y035078D01*
X051018Y034952D01*
X050989Y034823D01*
X050975Y034705D01*
X052074Y034705D01*
X052074Y034545D01*
X052234Y034545D01*
X052234Y034705D01*
X053332Y034705D01*
X053319Y034823D01*
X053289Y034952D01*
X053246Y035078D01*
X053188Y035197D01*
X053118Y035309D01*
X053035Y035413D01*
X052941Y035506D01*
X052838Y035589D01*
X052725Y035660D01*
X052606Y035717D01*
X052481Y035761D01*
X052352Y035790D01*
X052234Y035804D01*
X052234Y034705D01*
X052074Y034705D01*
X052074Y035804D01*
X051956Y035790D01*
X051826Y035761D01*
X051701Y035717D01*
X051582Y035660D01*
X051470Y035589D01*
X051366Y035506D01*
X051227Y035355D02*
X040244Y035355D01*
X040218Y035381D02*
X040005Y035470D01*
X039774Y035470D01*
X039561Y035381D01*
X039397Y035218D01*
X039309Y035005D01*
X039309Y034774D01*
X039397Y034561D01*
X039561Y034398D01*
X039774Y034310D01*
X040005Y034310D01*
X040218Y034398D01*
X040381Y034561D01*
X040469Y034774D01*
X040469Y035005D01*
X040381Y035218D01*
X040218Y035381D01*
X040390Y035197D02*
X051119Y035197D01*
X051048Y035038D02*
X040455Y035038D01*
X040469Y034880D02*
X051001Y034880D01*
X050977Y034721D02*
X040447Y034721D01*
X040381Y034563D02*
X052074Y034563D01*
X052074Y034545D02*
X050975Y034545D01*
X050989Y034427D01*
X051018Y034298D01*
X051062Y034173D01*
X051119Y034054D01*
X051190Y033941D01*
X051272Y033838D01*
X051366Y033744D01*
X051470Y033661D01*
X051582Y033591D01*
X051701Y033533D01*
X051826Y033490D01*
X051956Y033460D01*
X052074Y033447D01*
X052074Y034545D01*
X052074Y034404D02*
X052234Y034404D01*
X052234Y034545D02*
X052234Y033447D01*
X052352Y033460D01*
X052481Y033490D01*
X052606Y033533D01*
X052725Y033591D01*
X052838Y033661D01*
X052941Y033744D01*
X053035Y033838D01*
X053118Y033941D01*
X053188Y034054D01*
X053246Y034173D01*
X053289Y034298D01*
X053319Y034427D01*
X053332Y034545D01*
X052234Y034545D01*
X052234Y034563D02*
X055163Y034563D01*
X055163Y034721D02*
X053330Y034721D01*
X053306Y034880D02*
X055163Y034880D01*
X055163Y035038D02*
X053259Y035038D01*
X053188Y035197D02*
X055163Y035197D01*
X055163Y035355D02*
X053081Y035355D01*
X052932Y035514D02*
X055163Y035514D01*
X055163Y035672D02*
X052699Y035672D01*
X052234Y035672D02*
X052074Y035672D01*
X052074Y035514D02*
X052234Y035514D01*
X052234Y035355D02*
X052074Y035355D01*
X052074Y035197D02*
X052234Y035197D01*
X052234Y035038D02*
X052074Y035038D01*
X052074Y034880D02*
X052234Y034880D01*
X052234Y034721D02*
X052074Y034721D01*
X052074Y034245D02*
X052234Y034245D01*
X052234Y034087D02*
X052074Y034087D01*
X052074Y033928D02*
X052234Y033928D01*
X052234Y033770D02*
X052074Y033770D01*
X052074Y033611D02*
X052234Y033611D01*
X052234Y033453D02*
X052074Y033453D01*
X052021Y033453D02*
X035998Y033453D01*
X035941Y033396D02*
X036124Y033579D01*
X036223Y033818D01*
X036223Y034076D01*
X036124Y034315D01*
X035941Y034498D01*
X035703Y034597D01*
X035444Y034597D01*
X035205Y034498D01*
X035022Y034315D01*
X034923Y034076D01*
X034923Y033818D01*
X035022Y033579D01*
X035205Y033396D01*
X035444Y033297D01*
X035703Y033297D01*
X035941Y033396D01*
X036138Y033611D02*
X051550Y033611D01*
X051340Y033770D02*
X036203Y033770D01*
X036223Y033928D02*
X051200Y033928D01*
X051103Y034087D02*
X036219Y034087D01*
X036153Y034245D02*
X051036Y034245D01*
X050994Y034404D02*
X040224Y034404D01*
X039555Y034404D02*
X038324Y034404D01*
X038318Y034398D02*
X038481Y034561D01*
X038569Y034774D01*
X038569Y035005D01*
X038481Y035218D01*
X038318Y035381D01*
X038105Y035470D01*
X037874Y035470D01*
X037661Y035381D01*
X037497Y035218D01*
X037409Y035005D01*
X037409Y034774D01*
X037497Y034561D01*
X037661Y034398D01*
X037874Y034310D01*
X038105Y034310D01*
X038318Y034398D01*
X038481Y034563D02*
X039397Y034563D01*
X039331Y034721D02*
X038547Y034721D01*
X038569Y034880D02*
X039309Y034880D01*
X039323Y035038D02*
X038555Y035038D01*
X038490Y035197D02*
X039389Y035197D01*
X039535Y035355D02*
X038344Y035355D01*
X037635Y035355D02*
X035442Y035355D01*
X035442Y035197D02*
X037489Y035197D01*
X037423Y035038D02*
X035388Y035038D01*
X035294Y034880D02*
X037409Y034880D01*
X037431Y034721D02*
X035100Y034721D01*
X035360Y034563D02*
X033499Y034563D01*
X033415Y034597D02*
X033156Y034597D01*
X032917Y034498D01*
X032735Y034315D01*
X032636Y034076D01*
X032636Y033818D01*
X032735Y033579D01*
X032917Y033396D01*
X033156Y033297D01*
X033415Y033297D01*
X033654Y033396D01*
X033837Y033579D01*
X033936Y033818D01*
X033936Y034076D01*
X033837Y034315D01*
X033654Y034498D01*
X033415Y034597D01*
X033073Y034563D02*
X031613Y034563D01*
X031613Y034721D02*
X034485Y034721D01*
X034291Y034880D02*
X031613Y034880D01*
X031613Y035038D02*
X034196Y035038D01*
X034142Y035197D02*
X031613Y035197D01*
X031613Y035355D02*
X034142Y035355D01*
X034172Y035514D02*
X031613Y035514D01*
X031613Y035672D02*
X034172Y035672D01*
X034172Y035831D02*
X031613Y035831D01*
X031613Y035989D02*
X034172Y035989D01*
X034172Y036148D02*
X031613Y036148D01*
X031613Y036306D02*
X034128Y036306D01*
X034123Y036465D02*
X031613Y036465D01*
X031613Y036624D02*
X034143Y036624D01*
X034153Y036782D02*
X031613Y036782D01*
X031613Y036941D02*
X034153Y036941D01*
X034153Y037099D02*
X031613Y037099D01*
X031613Y037258D02*
X034153Y037258D01*
X034124Y037416D02*
X031613Y037416D01*
X031613Y037575D02*
X034123Y037575D01*
X034147Y037733D02*
X031613Y037733D01*
X031613Y037892D02*
X034153Y037892D01*
X034153Y038050D02*
X031613Y038050D01*
X031613Y038209D02*
X034153Y038209D01*
X034153Y038368D02*
X031613Y038368D01*
X031613Y038526D02*
X034153Y038526D01*
X034153Y038685D02*
X031613Y038685D01*
X031613Y038843D02*
X034153Y038843D01*
X034153Y039002D02*
X031613Y039002D01*
X031613Y039160D02*
X034153Y039160D01*
X034153Y039319D02*
X031613Y039319D01*
X031613Y039477D02*
X034153Y039477D01*
X034153Y039636D02*
X031613Y039636D01*
X031613Y039794D02*
X034153Y039794D01*
X034153Y039953D02*
X031613Y039953D01*
X031613Y040112D02*
X034153Y040112D01*
X034153Y040270D02*
X031613Y040270D01*
X031613Y040429D02*
X034153Y040429D01*
X034153Y040587D02*
X031613Y040587D01*
X031613Y040746D02*
X034153Y040746D01*
X034153Y040904D02*
X031613Y040904D01*
X031613Y041063D02*
X034153Y041063D01*
X034153Y041221D02*
X031613Y041221D01*
X031613Y041380D02*
X034153Y041380D01*
X034153Y041538D02*
X031613Y041538D01*
X031613Y041697D02*
X032300Y041697D01*
X032324Y041687D02*
X032583Y041687D01*
X032821Y041786D01*
X032953Y041918D01*
X033085Y041786D01*
X033324Y041687D01*
X033583Y041687D01*
X033821Y041786D01*
X034004Y041969D01*
X034103Y042208D01*
X034103Y042466D01*
X034004Y042705D01*
X033821Y042888D01*
X033583Y042987D01*
X033324Y042987D01*
X033085Y042888D01*
X032953Y042756D01*
X032821Y042888D01*
X032583Y042987D01*
X032324Y042987D01*
X032085Y042888D01*
X031902Y042705D01*
X031803Y042466D01*
X031803Y042208D01*
X031902Y041969D01*
X032085Y041786D01*
X032324Y041687D01*
X032606Y041697D02*
X033300Y041697D01*
X033606Y041697D02*
X034153Y041697D01*
X034153Y041856D02*
X033891Y041856D01*
X034023Y042014D02*
X034153Y042014D01*
X034153Y042173D02*
X034089Y042173D01*
X034103Y042331D02*
X034153Y042331D01*
X034153Y042490D02*
X034094Y042490D01*
X034153Y042648D02*
X034028Y042648D01*
X033903Y042807D02*
X034153Y042807D01*
X034153Y042965D02*
X033635Y042965D01*
X033271Y042965D02*
X032635Y042965D01*
X032903Y042807D02*
X033004Y042807D01*
X032271Y042965D02*
X031613Y042965D01*
X031613Y042807D02*
X032004Y042807D01*
X031879Y042648D02*
X031613Y042648D01*
X031613Y042490D02*
X031813Y042490D01*
X031803Y042331D02*
X031613Y042331D01*
X031613Y042173D02*
X031818Y042173D01*
X031884Y042014D02*
X031613Y042014D01*
X031613Y041856D02*
X032016Y041856D01*
X032891Y041856D02*
X033016Y041856D01*
X034153Y043124D02*
X031613Y043124D01*
X031613Y043282D02*
X034153Y043282D01*
X034153Y043441D02*
X031613Y043441D01*
X031613Y043599D02*
X034153Y043599D01*
X034153Y043758D02*
X031613Y043758D01*
X031613Y043917D02*
X034153Y043917D01*
X034153Y044075D02*
X031613Y044075D01*
X031613Y044234D02*
X034153Y044234D01*
X034153Y044392D02*
X031613Y044392D01*
X031613Y044551D02*
X034153Y044551D01*
X034153Y044709D02*
X031613Y044709D01*
X031613Y044868D02*
X034153Y044868D01*
X034153Y045026D02*
X031613Y045026D01*
X031613Y045185D02*
X034153Y045185D01*
X034153Y045343D02*
X031613Y045343D01*
X031613Y045502D02*
X034153Y045502D01*
X034153Y045661D02*
X031613Y045661D01*
X031613Y045819D02*
X034153Y045819D01*
X034153Y045978D02*
X031613Y045978D01*
X031613Y046136D02*
X034153Y046136D01*
X034153Y046295D02*
X031613Y046295D01*
X031613Y046453D02*
X034153Y046453D01*
X034153Y046612D02*
X031603Y046612D01*
X031516Y046770D02*
X034153Y046770D01*
X034124Y046929D02*
X031357Y046929D01*
X031199Y047087D02*
X033965Y047087D01*
X033807Y047246D02*
X031040Y047246D01*
X030882Y047405D02*
X033648Y047405D01*
X033490Y047563D02*
X030723Y047563D01*
X030565Y047722D02*
X033331Y047722D01*
X033173Y047880D02*
X030406Y047880D01*
X030247Y048039D02*
X033014Y048039D01*
X032856Y048197D02*
X030089Y048197D01*
X029930Y048356D02*
X032697Y048356D01*
X032538Y048514D02*
X029772Y048514D01*
X029613Y048673D02*
X032380Y048673D01*
X032221Y048831D02*
X029398Y048831D01*
X029268Y048452D02*
X031213Y046507D01*
X031213Y033972D01*
X030068Y032827D01*
X027688Y032827D01*
X022583Y027722D01*
X020533Y027722D01*
X020519Y027736D01*
X020528Y028042D02*
X020519Y028051D01*
X022307Y028051D01*
X029233Y034977D01*
X029233Y045467D01*
X028288Y046412D01*
X017493Y046412D01*
X015248Y048657D01*
X015248Y049122D01*
X015322Y049196D01*
X015322Y049222D01*
X015248Y049122D02*
X015248Y053237D01*
X015688Y053677D01*
X016783Y053677D01*
X017710Y052750D01*
X017710Y052654D01*
X017170Y051654D02*
X017170Y049445D01*
X017308Y049308D01*
X017322Y049293D01*
X017322Y049222D01*
X017322Y049293D02*
X019708Y046907D01*
X028563Y046907D01*
X029728Y045742D01*
X029728Y034412D01*
X029243Y033927D01*
X029718Y033387D02*
X030223Y033892D01*
X030223Y045977D01*
X028803Y047397D01*
X020478Y047397D01*
X018653Y049222D01*
X018638Y049238D01*
X018250Y049625D01*
X018250Y051654D01*
X018790Y052654D02*
X018790Y052825D01*
X017443Y054172D01*
X015523Y054172D01*
X014753Y053402D01*
X014753Y049122D01*
X014653Y049222D01*
X014622Y049222D01*
X014753Y049122D02*
X014753Y048282D01*
X017163Y045872D01*
X028003Y045872D01*
X028758Y045117D01*
X028758Y035207D01*
X024138Y030587D01*
X020108Y030587D01*
X019811Y030290D01*
X019811Y028760D01*
X019496Y028760D02*
X019496Y030880D01*
X020038Y031422D01*
X022222Y031422D01*
X022614Y031814D01*
X022614Y032335D01*
X022692Y032343D02*
X025328Y032343D01*
X025170Y032184D02*
X023109Y032184D01*
X023109Y032258D02*
X022692Y032258D01*
X022692Y032413D01*
X023109Y032413D01*
X023109Y032714D01*
X023097Y032759D01*
X023073Y032800D01*
X023039Y032834D01*
X022998Y032857D01*
X022953Y032870D01*
X022691Y032870D01*
X022691Y032413D01*
X022536Y032413D01*
X022536Y032870D01*
X022275Y032870D01*
X022229Y032857D01*
X022188Y032834D01*
X022155Y032800D01*
X022139Y032772D01*
X022098Y032871D01*
X022024Y032944D01*
X022063Y032983D01*
X022118Y032928D01*
X022235Y032879D01*
X022993Y032879D01*
X023110Y032928D01*
X023200Y033018D01*
X023249Y033135D01*
X023249Y034050D01*
X023234Y034086D01*
X023234Y035174D01*
X023234Y036444D01*
X023269Y036429D01*
X023339Y036429D01*
X023339Y036369D01*
X023418Y036179D01*
X023564Y036033D01*
X023754Y035954D01*
X023960Y035954D01*
X024151Y036033D01*
X024296Y036179D01*
X024375Y036369D01*
X024375Y036372D01*
X027889Y036372D01*
X027929Y036333D01*
X028119Y036254D01*
X028325Y036254D01*
X028358Y036268D01*
X028358Y035373D01*
X023973Y030987D01*
X020029Y030987D01*
X019882Y030926D01*
X019769Y030814D01*
X019598Y030642D01*
X019266Y030642D01*
X019266Y030909D01*
X020292Y031935D01*
X020877Y031935D01*
X020877Y031917D01*
X020925Y031800D01*
X021015Y031710D01*
X021133Y031661D01*
X021890Y031661D01*
X022008Y031710D01*
X022098Y031800D01*
X022139Y031899D01*
X022155Y031871D01*
X022188Y031837D01*
X022229Y031813D01*
X022275Y031801D01*
X022536Y031801D01*
X022536Y032258D01*
X022691Y032258D01*
X022691Y031801D01*
X022953Y031801D01*
X022998Y031813D01*
X023039Y031837D01*
X023073Y031871D01*
X023097Y031912D01*
X023109Y031957D01*
X023109Y032258D01*
X023109Y032026D02*
X025011Y032026D01*
X024853Y031867D02*
X023070Y031867D01*
X022691Y031867D02*
X022536Y031867D01*
X022536Y032026D02*
X022691Y032026D01*
X022691Y032184D02*
X022536Y032184D01*
X022536Y032501D02*
X022691Y032501D01*
X022691Y032660D02*
X022536Y032660D01*
X022536Y032819D02*
X022691Y032819D01*
X023055Y032819D02*
X025804Y032819D01*
X025963Y032977D02*
X023160Y032977D01*
X023249Y033136D02*
X026121Y033136D01*
X026280Y033294D02*
X023249Y033294D01*
X023249Y033453D02*
X026438Y033453D01*
X026597Y033611D02*
X023249Y033611D01*
X023249Y033770D02*
X026755Y033770D01*
X026914Y033928D02*
X023249Y033928D01*
X023234Y034087D02*
X027072Y034087D01*
X027231Y034245D02*
X023234Y034245D01*
X023234Y034404D02*
X027389Y034404D01*
X027548Y034563D02*
X023234Y034563D01*
X023234Y034721D02*
X027706Y034721D01*
X027865Y034880D02*
X023234Y034880D01*
X023234Y035038D02*
X028024Y035038D01*
X028182Y035197D02*
X023234Y035197D01*
X023234Y035355D02*
X028341Y035355D01*
X028358Y035514D02*
X023234Y035514D01*
X023234Y035672D02*
X028358Y035672D01*
X028358Y035831D02*
X023234Y035831D01*
X023234Y035989D02*
X023669Y035989D01*
X023449Y036148D02*
X023234Y036148D01*
X023234Y036306D02*
X023365Y036306D01*
X023857Y036472D02*
X024157Y036772D01*
X028222Y036772D01*
X027993Y036306D02*
X024349Y036306D01*
X024266Y036148D02*
X028358Y036148D01*
X028358Y035989D02*
X024046Y035989D01*
X023372Y036947D02*
X023872Y037447D01*
X028173Y037447D01*
X027893Y037892D02*
X023569Y037892D01*
X023593Y037733D02*
X023410Y037733D01*
X023434Y037575D02*
X023252Y037575D01*
X022449Y038526D02*
X014112Y038526D01*
X014094Y038484D02*
X014193Y038723D01*
X014193Y038981D01*
X014094Y039220D01*
X013911Y039403D01*
X013705Y039489D01*
X013711Y039491D01*
X013894Y039674D01*
X013993Y039913D01*
X013993Y040171D01*
X013962Y040247D01*
X013962Y041376D01*
X013868Y041603D01*
X013693Y041778D01*
X012123Y043348D01*
X011896Y043442D01*
X011649Y043442D01*
X007747Y043442D01*
X007765Y043451D01*
X007877Y043521D01*
X007981Y043604D01*
X008074Y043698D01*
X008157Y043801D01*
X008227Y043914D01*
X008285Y044033D01*
X008329Y044158D01*
X008358Y044287D01*
X008371Y044405D01*
X007273Y044405D01*
X007273Y044565D01*
X008371Y044565D01*
X008358Y044683D01*
X008329Y044812D01*
X008285Y044938D01*
X008227Y045057D01*
X008157Y045169D01*
X008074Y045273D01*
X007981Y045366D01*
X007877Y045449D01*
X007765Y045520D01*
X007645Y045577D01*
X007520Y045621D01*
X007391Y045650D01*
X007273Y045664D01*
X007273Y044565D01*
X007113Y044565D01*
X007113Y044405D01*
X006015Y044405D01*
X006028Y044287D01*
X006057Y044158D01*
X006101Y044033D01*
X006159Y043914D01*
X006229Y043801D01*
X006312Y043698D01*
X006406Y043604D01*
X006509Y043521D01*
X006621Y043451D01*
X006640Y043442D01*
X006036Y043442D01*
X005808Y043348D01*
X005634Y043173D01*
X004847Y042386D01*
X004752Y042158D01*
X004752Y041911D01*
X004752Y040259D01*
X004847Y040031D01*
X005021Y039857D01*
X005308Y039570D01*
X005536Y039475D01*
X005673Y039475D01*
X005673Y036692D01*
X005722Y036574D01*
X005812Y036484D01*
X005929Y036435D01*
X008457Y036435D01*
X008574Y036484D01*
X008664Y036574D01*
X008713Y036692D01*
X008713Y042202D01*
X011515Y042202D01*
X012722Y040995D01*
X012722Y040241D01*
X012693Y040171D01*
X012693Y039913D01*
X012792Y039674D01*
X012975Y039491D01*
X013181Y039406D01*
X013175Y039403D01*
X012992Y039220D01*
X012893Y038981D01*
X012893Y038723D01*
X012992Y038484D01*
X013175Y038301D01*
X013414Y038202D01*
X013673Y038202D01*
X013911Y038301D01*
X014094Y038484D01*
X013978Y038368D02*
X022291Y038368D01*
X022132Y038209D02*
X019321Y038209D01*
X019311Y038218D02*
X019073Y038317D01*
X018814Y038317D01*
X018575Y038218D01*
X018416Y038059D01*
X018261Y038213D01*
X018023Y038312D01*
X017764Y038312D01*
X017525Y038213D01*
X017343Y038031D01*
X017161Y038213D01*
X016923Y038312D01*
X016664Y038312D01*
X016425Y038213D01*
X016293Y038081D01*
X016161Y038213D01*
X015923Y038312D01*
X015664Y038312D01*
X015425Y038213D01*
X015242Y038030D01*
X015143Y037791D01*
X015143Y037533D01*
X015242Y037294D01*
X015425Y037111D01*
X015664Y037012D01*
X015923Y037012D01*
X016161Y037111D01*
X016293Y037243D01*
X016425Y037111D01*
X016664Y037012D01*
X016923Y037012D01*
X017161Y037111D01*
X017343Y037293D01*
X017525Y037111D01*
X017764Y037012D01*
X018023Y037012D01*
X018261Y037111D01*
X018421Y037270D01*
X018575Y037116D01*
X018814Y037017D01*
X019073Y037017D01*
X019311Y037116D01*
X019494Y037299D01*
X019593Y037538D01*
X019593Y037796D01*
X019494Y038035D01*
X019311Y038218D01*
X019479Y038050D02*
X022041Y038050D01*
X021994Y037892D02*
X019554Y037892D01*
X019593Y037733D02*
X021994Y037733D01*
X021994Y037575D02*
X019593Y037575D01*
X019543Y037416D02*
X021994Y037416D01*
X021994Y037258D02*
X019453Y037258D01*
X019271Y037099D02*
X021994Y037099D01*
X021994Y036941D02*
X008713Y036941D01*
X008713Y037099D02*
X015454Y037099D01*
X015278Y037258D02*
X008713Y037258D01*
X008713Y037416D02*
X015192Y037416D01*
X015143Y037575D02*
X008713Y037575D01*
X008713Y037733D02*
X015143Y037733D01*
X015185Y037892D02*
X008713Y037892D01*
X008713Y038050D02*
X015262Y038050D01*
X015421Y038209D02*
X013689Y038209D01*
X013398Y038209D02*
X008713Y038209D01*
X008713Y038368D02*
X013109Y038368D01*
X012975Y038526D02*
X008713Y038526D01*
X008713Y038685D02*
X012909Y038685D01*
X012893Y038843D02*
X008713Y038843D01*
X008713Y039002D02*
X012902Y039002D01*
X012967Y039160D02*
X008713Y039160D01*
X008713Y039319D02*
X013091Y039319D01*
X013008Y039477D02*
X008713Y039477D01*
X008713Y039636D02*
X012830Y039636D01*
X012742Y039794D02*
X008713Y039794D01*
X008713Y039953D02*
X012693Y039953D01*
X012693Y040112D02*
X008713Y040112D01*
X008713Y040270D02*
X012722Y040270D01*
X012722Y040429D02*
X008713Y040429D01*
X008713Y040587D02*
X012722Y040587D01*
X012722Y040746D02*
X008713Y040746D01*
X008713Y040904D02*
X012722Y040904D01*
X012655Y041063D02*
X008713Y041063D01*
X008713Y041221D02*
X012496Y041221D01*
X012338Y041380D02*
X008713Y041380D01*
X008713Y041538D02*
X012179Y041538D01*
X012021Y041697D02*
X008713Y041697D01*
X008713Y041856D02*
X011862Y041856D01*
X011704Y042014D02*
X008713Y042014D01*
X008713Y042173D02*
X011545Y042173D01*
X012347Y043124D02*
X012710Y043124D01*
X012693Y043165D02*
X012792Y042926D01*
X012975Y042744D01*
X013214Y042645D01*
X013473Y042645D01*
X013711Y042744D01*
X013894Y042926D01*
X013993Y043165D01*
X013993Y043424D01*
X013894Y043663D01*
X013711Y043846D01*
X013602Y043891D01*
X013711Y043936D01*
X013894Y044119D01*
X013993Y044358D01*
X013993Y044616D01*
X013894Y044855D01*
X013711Y045038D01*
X013473Y045137D01*
X013214Y045137D01*
X012975Y045038D01*
X012792Y044855D01*
X012693Y044616D01*
X012693Y044358D01*
X012792Y044119D01*
X012975Y043936D01*
X013084Y043891D01*
X012975Y043846D01*
X012792Y043663D01*
X012693Y043424D01*
X012693Y043165D01*
X012693Y043282D02*
X012189Y043282D01*
X011898Y043441D02*
X012700Y043441D01*
X012766Y043599D02*
X007975Y043599D01*
X008122Y043758D02*
X012888Y043758D01*
X013022Y043917D02*
X008229Y043917D01*
X008300Y044075D02*
X012836Y044075D01*
X012745Y044234D02*
X008346Y044234D01*
X008370Y044392D02*
X012693Y044392D01*
X012693Y044551D02*
X007273Y044551D01*
X007273Y044709D02*
X007113Y044709D01*
X007113Y044565D02*
X007113Y045664D01*
X006995Y045650D01*
X006866Y045621D01*
X006741Y045577D01*
X006621Y045520D01*
X006509Y045449D01*
X006406Y045366D01*
X006312Y045273D01*
X006229Y045169D01*
X006159Y045057D01*
X006101Y044938D01*
X006057Y044812D01*
X006028Y044683D01*
X006015Y044565D01*
X007113Y044565D01*
X007113Y044551D02*
X004262Y044551D01*
X004262Y044709D02*
X006034Y044709D01*
X006077Y044868D02*
X004262Y044868D01*
X004262Y045026D02*
X006144Y045026D01*
X006242Y045185D02*
X004262Y045185D01*
X004262Y045343D02*
X006382Y045343D01*
X006593Y045502D02*
X004262Y045502D01*
X004262Y045661D02*
X007085Y045661D01*
X007113Y045661D02*
X007273Y045661D01*
X007301Y045661D02*
X016809Y045661D01*
X016651Y045819D02*
X004262Y045819D01*
X004262Y045978D02*
X016492Y045978D01*
X016334Y046136D02*
X004262Y046136D01*
X004262Y046295D02*
X016175Y046295D01*
X016017Y046453D02*
X004262Y046453D01*
X004262Y046612D02*
X015858Y046612D01*
X015699Y046770D02*
X004262Y046770D01*
X004262Y046929D02*
X015541Y046929D01*
X015382Y047087D02*
X004262Y047087D01*
X004262Y047246D02*
X015224Y047246D01*
X015065Y047405D02*
X004262Y047405D01*
X004262Y047563D02*
X014907Y047563D01*
X014748Y047722D02*
X004262Y047722D01*
X004262Y047880D02*
X014590Y047880D01*
X014431Y048039D02*
X004262Y048039D01*
X004262Y048197D02*
X014356Y048197D01*
X014353Y048356D02*
X004262Y048356D01*
X004262Y048514D02*
X014353Y048514D01*
X014353Y048673D02*
X004262Y048673D01*
X004262Y048831D02*
X014226Y048831D01*
X014116Y048990D02*
X004262Y048990D01*
X004262Y049149D02*
X014066Y049149D01*
X014066Y049307D02*
X004262Y049307D01*
X004262Y049466D02*
X014121Y049466D01*
X014238Y049624D02*
X004262Y049624D01*
X004262Y049783D02*
X014353Y049783D01*
X014353Y049941D02*
X004262Y049941D01*
X004262Y050100D02*
X014353Y050100D01*
X014353Y050258D02*
X004262Y050258D01*
X004262Y050417D02*
X014353Y050417D01*
X014353Y050575D02*
X004262Y050575D01*
X004262Y050734D02*
X014353Y050734D01*
X014353Y050892D02*
X004262Y050892D01*
X004262Y051051D02*
X012889Y051051D01*
X012601Y051210D02*
X004262Y051210D01*
X004262Y051368D02*
X012427Y051368D01*
X012311Y051527D02*
X006829Y051527D01*
X006838Y051530D02*
X006993Y051602D01*
X007140Y051687D01*
X007280Y051785D01*
X007410Y051895D01*
X007531Y052015D01*
X007641Y052146D01*
X007738Y052285D01*
X007823Y052433D01*
X007895Y052587D01*
X007954Y052747D01*
X007998Y052912D01*
X008027Y053080D01*
X008042Y053250D01*
X008042Y053255D01*
X006171Y053255D01*
X006171Y053415D01*
X008042Y053415D01*
X008042Y053420D01*
X008027Y053590D01*
X007998Y053758D01*
X007954Y053922D01*
X007895Y054082D01*
X007823Y054237D01*
X007738Y054384D01*
X007641Y054524D01*
X007531Y054655D01*
X007410Y054775D01*
X007280Y054885D01*
X007140Y054982D01*
X006993Y055068D01*
X006838Y055140D01*
X006773Y055163D01*
X052653Y055163D01*
X052587Y055140D01*
X052433Y055068D01*
X052285Y054982D01*
X052146Y054885D01*
X052015Y054775D01*
X051895Y054655D01*
X051785Y054524D01*
X051687Y054384D01*
X051602Y054237D01*
X051530Y054082D01*
X051472Y053922D01*
X051428Y053758D01*
X051398Y053590D01*
X051383Y053420D01*
X051383Y053415D01*
X053255Y053415D01*
X053255Y053255D01*
X053415Y053255D01*
X053415Y051383D01*
X053420Y051383D01*
X053590Y051398D01*
X053758Y051428D01*
X053922Y051472D01*
X054082Y051530D01*
X054237Y051602D01*
X054384Y051687D01*
X054524Y051785D01*
X054655Y051895D01*
X054775Y052015D01*
X054885Y052146D01*
X054982Y052285D01*
X055068Y052433D01*
X055140Y052587D01*
X055163Y052653D01*
X055163Y006773D01*
X055140Y006838D01*
X055068Y006993D01*
X054982Y007140D01*
X054885Y007280D01*
X054775Y007410D01*
X054655Y007531D01*
X054524Y007641D01*
X054384Y007738D01*
X054237Y007823D01*
X054082Y007895D01*
X053922Y007954D01*
X053758Y007998D01*
X053590Y008027D01*
X053420Y008042D01*
X053415Y008042D01*
X053415Y006171D01*
X053255Y006171D01*
X053255Y008042D01*
X053250Y008042D01*
X053080Y008027D01*
X052912Y007998D01*
X052747Y007954D01*
X052587Y007895D01*
X052433Y007823D01*
X052285Y007738D01*
X052146Y007641D01*
X052015Y007531D01*
X051895Y007410D01*
X051785Y007280D01*
X051687Y007140D01*
X051602Y006993D01*
X051530Y006838D01*
X051472Y006678D01*
X051428Y006514D01*
X051398Y006346D01*
X051383Y006176D01*
X051383Y006171D01*
X053255Y006171D01*
X053255Y006011D01*
X051383Y006011D01*
X051383Y006005D01*
X051398Y005836D01*
X051428Y005668D01*
X051472Y005503D01*
X051530Y005343D01*
X051602Y005189D01*
X051687Y005041D01*
X051785Y004901D01*
X051895Y004771D01*
X052015Y004650D01*
X052146Y004541D01*
X052285Y004443D01*
X052433Y004358D01*
X052587Y004286D01*
X052653Y004262D01*
X006773Y004262D01*
X006838Y004286D01*
X006993Y004358D01*
X007140Y004443D01*
X007280Y004541D01*
X007410Y004650D01*
X007531Y004771D01*
X007641Y004901D01*
X007738Y005041D01*
X007823Y005189D01*
X007895Y005343D01*
X007954Y005503D01*
X007998Y005668D01*
X008027Y005836D01*
X008042Y006005D01*
X008042Y006011D01*
X006171Y006011D01*
X006171Y006171D01*
X008042Y006171D01*
X008042Y006176D01*
X008027Y006346D01*
X007998Y006514D01*
X007954Y006678D01*
X007895Y006838D01*
X007823Y006993D01*
X007738Y007140D01*
X007641Y007280D01*
X007531Y007410D01*
X007410Y007531D01*
X007280Y007641D01*
X007140Y007738D01*
X006993Y007823D01*
X006838Y007895D01*
X006678Y007954D01*
X006514Y007998D01*
X006346Y008027D01*
X006176Y008042D01*
X006171Y008042D01*
X006171Y006171D01*
X006011Y006171D01*
X006011Y008042D01*
X006005Y008042D01*
X005836Y008027D01*
X005668Y007998D01*
X005503Y007954D01*
X005343Y007895D01*
X005189Y007823D01*
X005041Y007738D01*
X004901Y007641D01*
X004771Y007531D01*
X004650Y007410D01*
X004541Y007280D01*
X004443Y007140D01*
X004358Y006993D01*
X004286Y006838D01*
X004262Y006773D01*
X004262Y052653D01*
X004286Y052587D01*
X004358Y052433D01*
X004443Y052285D01*
X004541Y052146D01*
X004650Y052015D01*
X004771Y051895D01*
X004901Y051785D01*
X005041Y051687D01*
X005189Y051602D01*
X005343Y051530D01*
X005503Y051472D01*
X005668Y051428D01*
X005836Y051398D01*
X006005Y051383D01*
X006011Y051383D01*
X006011Y053255D01*
X006171Y053255D01*
X006171Y051383D01*
X006176Y051383D01*
X006346Y051398D01*
X006514Y051428D01*
X006678Y051472D01*
X006838Y051530D01*
X007137Y051685D02*
X012226Y051685D01*
X012171Y051844D02*
X007350Y051844D01*
X007518Y052002D02*
X012140Y052002D01*
X012141Y052319D02*
X007758Y052319D01*
X007844Y052478D02*
X012174Y052478D01*
X012233Y052636D02*
X007913Y052636D01*
X007967Y052795D02*
X012320Y052795D01*
X012441Y052954D02*
X008005Y052954D01*
X008030Y053112D02*
X012619Y053112D01*
X012930Y053271D02*
X006171Y053271D01*
X006171Y053112D02*
X006011Y053112D01*
X006011Y052954D02*
X006171Y052954D01*
X006171Y052795D02*
X006011Y052795D01*
X006011Y052636D02*
X006171Y052636D01*
X006171Y052478D02*
X006011Y052478D01*
X006011Y052319D02*
X006171Y052319D01*
X006171Y052161D02*
X006011Y052161D01*
X006011Y052002D02*
X006171Y052002D01*
X006171Y051844D02*
X006011Y051844D01*
X006011Y051685D02*
X006171Y051685D01*
X006171Y051527D02*
X006011Y051527D01*
X005352Y051527D02*
X004262Y051527D01*
X004262Y051685D02*
X005045Y051685D01*
X004831Y051844D02*
X004262Y051844D01*
X004262Y052002D02*
X004663Y052002D01*
X004530Y052161D02*
X004262Y052161D01*
X004262Y052319D02*
X004423Y052319D01*
X004337Y052478D02*
X004262Y052478D01*
X004262Y052636D02*
X004268Y052636D01*
X007084Y055015D02*
X052341Y055015D01*
X052112Y054856D02*
X007314Y054856D01*
X007488Y054698D02*
X051937Y054698D01*
X051798Y054539D02*
X017603Y054539D01*
X017801Y054380D02*
X051685Y054380D01*
X051595Y054222D02*
X017959Y054222D01*
X018118Y054063D02*
X051523Y054063D01*
X051467Y053905D02*
X018276Y053905D01*
X018435Y053746D02*
X051426Y053746D01*
X051398Y053588D02*
X042574Y053588D01*
X042670Y053429D02*
X051384Y053429D01*
X051383Y053255D02*
X051383Y053250D01*
X051398Y053080D01*
X051428Y052912D01*
X051472Y052747D01*
X051530Y052587D01*
X051602Y052433D01*
X051687Y052285D01*
X051785Y052146D01*
X051895Y052015D01*
X052015Y051895D01*
X052146Y051785D01*
X052285Y051687D01*
X052433Y051602D01*
X052587Y051530D01*
X052747Y051472D01*
X052912Y051428D01*
X053080Y051398D01*
X053250Y051383D01*
X053255Y051383D01*
X053255Y053255D01*
X051383Y053255D01*
X051395Y053112D02*
X045176Y053112D01*
X045169Y053118D02*
X045057Y053188D01*
X044938Y053246D01*
X044812Y053289D01*
X044683Y053319D01*
X044565Y053332D01*
X044565Y052234D01*
X044405Y052234D01*
X044405Y053332D01*
X044287Y053319D01*
X044158Y053289D01*
X044033Y053246D01*
X043914Y053188D01*
X043801Y053118D01*
X043698Y053035D01*
X043604Y052941D01*
X043521Y052838D01*
X043451Y052725D01*
X043393Y052606D01*
X043350Y052481D01*
X043320Y052352D01*
X043307Y052234D01*
X044405Y052234D01*
X044405Y052074D01*
X043307Y052074D01*
X043320Y051956D01*
X043350Y051826D01*
X043393Y051701D01*
X043451Y051582D01*
X043521Y051470D01*
X043604Y051366D01*
X043698Y051272D01*
X043801Y051190D01*
X043914Y051119D01*
X044033Y051062D01*
X044158Y051018D01*
X044287Y050989D01*
X044405Y050975D01*
X044405Y052074D01*
X044565Y052074D01*
X044565Y052234D01*
X045664Y052234D01*
X045650Y052352D01*
X045621Y052481D01*
X045577Y052606D01*
X045520Y052725D01*
X045449Y052838D01*
X045366Y052941D01*
X045273Y053035D01*
X045169Y053118D01*
X045354Y052954D02*
X051420Y052954D01*
X051459Y052795D02*
X045476Y052795D01*
X045562Y052636D02*
X051512Y052636D01*
X051581Y052478D02*
X045622Y052478D01*
X045654Y052319D02*
X051667Y052319D01*
X051774Y052161D02*
X044565Y052161D01*
X044565Y052074D02*
X045664Y052074D01*
X045650Y051956D01*
X045621Y051826D01*
X045577Y051701D01*
X045520Y051582D01*
X045449Y051470D01*
X045366Y051366D01*
X045273Y051272D01*
X045169Y051190D01*
X045057Y051119D01*
X044938Y051062D01*
X044812Y051018D01*
X044683Y050989D01*
X044565Y050975D01*
X044565Y052074D01*
X044565Y052002D02*
X044405Y052002D01*
X044405Y051844D02*
X044565Y051844D01*
X044565Y051685D02*
X044405Y051685D01*
X044405Y051527D02*
X044565Y051527D01*
X044565Y051368D02*
X044405Y051368D01*
X044405Y051210D02*
X044565Y051210D01*
X044565Y051051D02*
X044405Y051051D01*
X044064Y051051D02*
X042675Y051051D01*
X042675Y050892D02*
X055163Y050892D01*
X055163Y050734D02*
X042588Y050734D01*
X042675Y051210D02*
X043777Y051210D01*
X043602Y051368D02*
X042675Y051368D01*
X042675Y051527D02*
X043486Y051527D01*
X043401Y051685D02*
X042675Y051685D01*
X042675Y051844D02*
X043346Y051844D01*
X043315Y052002D02*
X042675Y052002D01*
X042675Y052161D02*
X044405Y052161D01*
X044405Y052319D02*
X044565Y052319D01*
X044565Y052478D02*
X044405Y052478D01*
X044405Y052636D02*
X044565Y052636D01*
X044565Y052795D02*
X044405Y052795D01*
X044405Y052954D02*
X044565Y052954D01*
X044565Y053112D02*
X044405Y053112D01*
X044405Y053271D02*
X044565Y053271D01*
X044866Y053271D02*
X053255Y053271D01*
X053255Y053112D02*
X053415Y053112D01*
X053415Y052954D02*
X053255Y052954D01*
X053255Y052795D02*
X053415Y052795D01*
X053415Y052636D02*
X053255Y052636D01*
X053255Y052478D02*
X053415Y052478D01*
X053415Y052319D02*
X053255Y052319D01*
X053255Y052161D02*
X053415Y052161D01*
X053415Y052002D02*
X053255Y052002D01*
X053255Y051844D02*
X053415Y051844D01*
X053415Y051685D02*
X053255Y051685D01*
X053255Y051527D02*
X053415Y051527D01*
X054073Y051527D02*
X055163Y051527D01*
X055163Y051685D02*
X054381Y051685D01*
X054594Y051844D02*
X055163Y051844D01*
X055163Y052002D02*
X054762Y052002D01*
X054895Y052161D02*
X055163Y052161D01*
X055163Y052319D02*
X055002Y052319D01*
X055089Y052478D02*
X055163Y052478D01*
X055157Y052636D02*
X055163Y052636D01*
X055163Y051368D02*
X045368Y051368D01*
X045485Y051527D02*
X052596Y051527D01*
X052289Y051685D02*
X045569Y051685D01*
X045625Y051844D02*
X052076Y051844D01*
X051907Y052002D02*
X045656Y052002D01*
X045194Y051210D02*
X055163Y051210D01*
X055163Y051051D02*
X044907Y051051D01*
X044173Y049975D02*
X044142Y049972D01*
X044111Y049966D01*
X044081Y049957D01*
X044052Y049945D01*
X044024Y049930D01*
X043998Y049913D01*
X043974Y049893D01*
X043951Y049871D01*
X043932Y049846D01*
X043914Y049820D01*
X043899Y049792D01*
X043887Y049763D01*
X043878Y049733D01*
X043872Y049703D01*
X043869Y049671D01*
X043869Y048473D01*
X043872Y048442D01*
X043878Y048411D01*
X043887Y048381D01*
X043899Y048352D01*
X043914Y048324D01*
X043932Y048298D01*
X043951Y048274D01*
X043974Y048251D01*
X043998Y048232D01*
X044024Y048214D01*
X044052Y048199D01*
X044081Y048187D01*
X044111Y048178D01*
X044142Y048172D01*
X044173Y048169D01*
X046271Y048169D01*
X046302Y048172D01*
X046333Y048178D01*
X046363Y048187D01*
X046392Y048199D01*
X046420Y048214D01*
X046446Y048232D01*
X046470Y048251D01*
X046492Y048274D01*
X046512Y048298D01*
X046530Y048324D01*
X046545Y048352D01*
X046557Y048381D01*
X046566Y048411D01*
X046572Y048442D01*
X046575Y048473D01*
X046575Y049671D01*
X046572Y049703D01*
X046566Y049733D01*
X046557Y049763D01*
X046545Y049792D01*
X046530Y049820D01*
X046512Y049846D01*
X046492Y049871D01*
X046470Y049893D01*
X046446Y049913D01*
X046420Y049930D01*
X046392Y049945D01*
X046363Y049957D01*
X046333Y049966D01*
X046302Y049972D01*
X046271Y049975D01*
X044173Y049975D01*
X044045Y049941D02*
X040945Y049941D01*
X041048Y050100D02*
X055163Y050100D01*
X055163Y050258D02*
X041075Y050258D01*
X041075Y050417D02*
X055163Y050417D01*
X055163Y050575D02*
X041075Y050575D01*
X040793Y049783D02*
X043895Y049783D01*
X043869Y049624D02*
X040793Y049624D01*
X040793Y049466D02*
X043869Y049466D01*
X043869Y049307D02*
X040793Y049307D01*
X040793Y049149D02*
X043869Y049149D01*
X043869Y048990D02*
X040793Y048990D01*
X040793Y048831D02*
X043869Y048831D01*
X043869Y048673D02*
X040793Y048673D01*
X040793Y048514D02*
X043869Y048514D01*
X043898Y048356D02*
X040793Y048356D01*
X040793Y048197D02*
X044057Y048197D01*
X046387Y048197D02*
X055163Y048197D01*
X055163Y048039D02*
X040793Y048039D01*
X040793Y047880D02*
X055163Y047880D01*
X055163Y047722D02*
X052736Y047722D01*
X052746Y047717D02*
X052508Y047816D01*
X052249Y047816D01*
X052191Y047792D01*
X051501Y047792D01*
X051495Y047798D01*
X051378Y047847D01*
X050620Y047847D01*
X050503Y047798D01*
X050413Y047708D01*
X050372Y047609D01*
X050356Y047637D01*
X050322Y047671D01*
X050281Y047694D01*
X050235Y047707D01*
X049974Y047707D01*
X049974Y047250D01*
X049819Y047250D01*
X049819Y047707D01*
X049558Y047707D01*
X049512Y047694D01*
X049471Y047671D01*
X049438Y047637D01*
X049414Y047596D01*
X049402Y047550D01*
X049402Y047250D01*
X049819Y047250D01*
X049819Y047095D01*
X049402Y047095D01*
X049402Y046794D01*
X049414Y046748D01*
X049438Y046707D01*
X049471Y046674D01*
X049512Y046650D01*
X049558Y046638D01*
X049819Y046638D01*
X049819Y047094D01*
X049974Y047094D01*
X049974Y046638D01*
X050235Y046638D01*
X050281Y046650D01*
X050322Y046674D01*
X050356Y046707D01*
X050372Y046736D01*
X050413Y046637D01*
X050503Y046547D01*
X050620Y046498D01*
X051378Y046498D01*
X051495Y046547D01*
X051501Y046552D01*
X052115Y046552D01*
X052597Y046070D01*
X052627Y045998D01*
X052810Y045815D01*
X052883Y045785D01*
X053397Y045270D01*
X053427Y045198D01*
X053610Y045015D01*
X053849Y044916D01*
X054108Y044916D01*
X054346Y045015D01*
X054529Y045198D01*
X054628Y045437D01*
X054628Y045695D01*
X054529Y045934D01*
X054346Y046117D01*
X054274Y046147D01*
X053759Y046662D01*
X053729Y046734D01*
X053546Y046917D01*
X053474Y046947D01*
X052959Y047462D01*
X052929Y047534D01*
X052746Y047717D01*
X052901Y047563D02*
X055163Y047563D01*
X055163Y047405D02*
X053017Y047405D01*
X053175Y047246D02*
X055163Y047246D01*
X055163Y047087D02*
X053334Y047087D01*
X053518Y046929D02*
X055163Y046929D01*
X055163Y046770D02*
X053693Y046770D01*
X053809Y046612D02*
X055163Y046612D01*
X055163Y046453D02*
X053968Y046453D01*
X054126Y046295D02*
X055163Y046295D01*
X055163Y046136D02*
X054301Y046136D01*
X054486Y045978D02*
X055163Y045978D01*
X055163Y045819D02*
X054577Y045819D01*
X054628Y045661D02*
X055163Y045661D01*
X055163Y045502D02*
X054628Y045502D01*
X054590Y045343D02*
X055163Y045343D01*
X055163Y045185D02*
X054516Y045185D01*
X054358Y045026D02*
X055163Y045026D01*
X055163Y044868D02*
X053270Y044868D01*
X053289Y044812D02*
X053246Y044938D01*
X053188Y045057D01*
X053118Y045169D01*
X053035Y045273D01*
X052941Y045366D01*
X052838Y045449D01*
X052725Y045520D01*
X052606Y045577D01*
X052481Y045621D01*
X052352Y045650D01*
X052234Y045664D01*
X052234Y044565D01*
X053332Y044565D01*
X053319Y044683D01*
X053289Y044812D01*
X053313Y044709D02*
X055163Y044709D01*
X055163Y044551D02*
X052234Y044551D01*
X052234Y044565D02*
X052234Y044405D01*
X053332Y044405D01*
X053319Y044287D01*
X053289Y044158D01*
X053246Y044033D01*
X053188Y043914D01*
X053118Y043801D01*
X053035Y043698D01*
X052941Y043604D01*
X052838Y043521D01*
X052725Y043451D01*
X052606Y043393D01*
X052481Y043350D01*
X052352Y043320D01*
X052234Y043307D01*
X052234Y044405D01*
X052074Y044405D01*
X052074Y043307D01*
X051956Y043320D01*
X051826Y043350D01*
X051701Y043393D01*
X051582Y043451D01*
X051470Y043521D01*
X051366Y043604D01*
X051272Y043698D01*
X051190Y043801D01*
X051119Y043914D01*
X051062Y044033D01*
X051018Y044158D01*
X050989Y044287D01*
X050975Y044405D01*
X052074Y044405D01*
X052074Y044565D01*
X050975Y044565D01*
X050989Y044683D01*
X051018Y044812D01*
X051062Y044938D01*
X051119Y045057D01*
X051190Y045169D01*
X051272Y045273D01*
X051366Y045366D01*
X051470Y045449D01*
X051582Y045520D01*
X051701Y045577D01*
X051826Y045621D01*
X051956Y045650D01*
X052074Y045664D01*
X052074Y044565D01*
X052234Y044565D01*
X052234Y044709D02*
X052074Y044709D01*
X052074Y044551D02*
X040793Y044551D01*
X040793Y044709D02*
X050995Y044709D01*
X051037Y044868D02*
X040793Y044868D01*
X040793Y045026D02*
X051105Y045026D01*
X051202Y045185D02*
X040793Y045185D01*
X040793Y045343D02*
X051343Y045343D01*
X051554Y045502D02*
X040793Y045502D01*
X040793Y045661D02*
X052046Y045661D01*
X052074Y045661D02*
X052234Y045661D01*
X052261Y045661D02*
X053007Y045661D01*
X053166Y045502D02*
X052753Y045502D01*
X052964Y045343D02*
X053324Y045343D01*
X053440Y045185D02*
X053105Y045185D01*
X053203Y045026D02*
X053599Y045026D01*
X053331Y044392D02*
X055163Y044392D01*
X055163Y044234D02*
X053307Y044234D01*
X053260Y044075D02*
X055163Y044075D01*
X055163Y043917D02*
X053189Y043917D01*
X053083Y043758D02*
X055163Y043758D01*
X055163Y043599D02*
X052936Y043599D01*
X052705Y043441D02*
X055163Y043441D01*
X055163Y043282D02*
X040793Y043282D01*
X040793Y043124D02*
X055163Y043124D01*
X055163Y042965D02*
X040793Y042965D01*
X040793Y042807D02*
X055163Y042807D01*
X055163Y042648D02*
X053483Y042648D01*
X053644Y042490D02*
X055163Y042490D01*
X055163Y042331D02*
X053674Y042331D01*
X053674Y042173D02*
X055163Y042173D01*
X055163Y042014D02*
X053674Y042014D01*
X053674Y041856D02*
X055163Y041856D01*
X055163Y041697D02*
X053674Y041697D01*
X053674Y041538D02*
X055163Y041538D01*
X055163Y041380D02*
X053674Y041380D01*
X053674Y041221D02*
X055163Y041221D01*
X055163Y041063D02*
X053674Y041063D01*
X053674Y040904D02*
X055163Y040904D01*
X055163Y040746D02*
X053674Y040746D01*
X053674Y040587D02*
X055163Y040587D01*
X055163Y040429D02*
X053674Y040429D01*
X053674Y040270D02*
X055163Y040270D01*
X055163Y040112D02*
X053674Y040112D01*
X053674Y039953D02*
X055163Y039953D01*
X055163Y039794D02*
X053674Y039794D01*
X053674Y039636D02*
X055163Y039636D01*
X055163Y039477D02*
X053674Y039477D01*
X053674Y039319D02*
X055163Y039319D01*
X055163Y039160D02*
X053674Y039160D01*
X053674Y039002D02*
X055163Y039002D01*
X055163Y038843D02*
X053674Y038843D01*
X053674Y038685D02*
X055163Y038685D01*
X055163Y038526D02*
X053674Y038526D01*
X053674Y038368D02*
X055163Y038368D01*
X055163Y038209D02*
X053674Y038209D01*
X053674Y038050D02*
X055163Y038050D01*
X055163Y037892D02*
X053674Y037892D01*
X053674Y037733D02*
X055163Y037733D01*
X055163Y037575D02*
X053674Y037575D01*
X053674Y037416D02*
X055163Y037416D01*
X055163Y037258D02*
X053674Y037258D01*
X053674Y037099D02*
X055163Y037099D01*
X055163Y036941D02*
X053674Y036941D01*
X053674Y036782D02*
X055163Y036782D01*
X055163Y036624D02*
X053645Y036624D01*
X053489Y036465D02*
X055163Y036465D01*
X055163Y036306D02*
X043343Y036306D01*
X043333Y036148D02*
X055163Y036148D01*
X055163Y035989D02*
X043267Y035989D01*
X043141Y035831D02*
X055163Y035831D01*
X055163Y034404D02*
X053313Y034404D01*
X053271Y034245D02*
X055163Y034245D01*
X055163Y034087D02*
X053204Y034087D01*
X053107Y033928D02*
X055163Y033928D01*
X055163Y033770D02*
X052967Y033770D01*
X052758Y033611D02*
X055163Y033611D01*
X055163Y033453D02*
X052286Y033453D01*
X051608Y035672D02*
X042871Y035672D01*
X043329Y036465D02*
X050818Y036465D01*
X050662Y036624D02*
X043264Y036624D01*
X043133Y036782D02*
X050634Y036782D01*
X050634Y037258D02*
X048955Y037258D01*
X049220Y037416D02*
X050634Y037416D01*
X050634Y037575D02*
X049322Y037575D01*
X049427Y037733D02*
X050634Y037733D01*
X050634Y037892D02*
X049585Y037892D01*
X049724Y038050D02*
X050634Y038050D01*
X050634Y038209D02*
X049777Y038209D01*
X049777Y038368D02*
X050634Y038368D01*
X050634Y038526D02*
X049777Y038526D01*
X049777Y038685D02*
X050634Y038685D01*
X050634Y038843D02*
X049777Y038843D01*
X049809Y039002D02*
X050634Y039002D01*
X050634Y040429D02*
X040702Y040429D01*
X040821Y040587D02*
X050634Y040587D01*
X050634Y040746D02*
X042870Y040746D01*
X042823Y040726D02*
X043061Y040825D01*
X043244Y041008D01*
X043343Y041247D01*
X043343Y041505D01*
X043244Y041744D01*
X043061Y041927D01*
X042823Y042026D01*
X042564Y042026D01*
X042325Y041927D01*
X042142Y041744D01*
X042043Y041505D01*
X042043Y041247D01*
X042142Y041008D01*
X042325Y040825D01*
X042564Y040726D01*
X042823Y040726D01*
X042517Y040746D02*
X040871Y040746D01*
X040871Y040904D02*
X042246Y040904D01*
X042119Y041063D02*
X040810Y041063D01*
X040793Y041221D02*
X042054Y041221D01*
X042043Y041380D02*
X040793Y041380D01*
X040793Y041538D02*
X042057Y041538D01*
X042123Y041697D02*
X040793Y041697D01*
X040793Y041856D02*
X042253Y041856D01*
X042535Y042014D02*
X040793Y042014D01*
X040793Y042173D02*
X050634Y042173D01*
X050634Y042331D02*
X040793Y042331D01*
X040793Y042490D02*
X050663Y042490D01*
X050825Y042648D02*
X040793Y042648D01*
X039913Y042648D02*
X039874Y042648D01*
X039913Y042807D02*
X035393Y042807D01*
X035393Y042965D02*
X039913Y042965D01*
X039913Y043124D02*
X035393Y043124D01*
X035393Y043282D02*
X039913Y043282D01*
X039913Y043441D02*
X035393Y043441D01*
X035393Y043599D02*
X039274Y043599D01*
X039116Y043758D02*
X035393Y043758D01*
X035393Y043917D02*
X039046Y043917D01*
X039009Y044075D02*
X035393Y044075D01*
X035393Y044234D02*
X039009Y044234D01*
X039063Y044392D02*
X035393Y044392D01*
X035393Y044551D02*
X039157Y044551D01*
X039350Y044709D02*
X035393Y044709D01*
X035393Y044868D02*
X039913Y044868D01*
X039913Y045026D02*
X035393Y045026D01*
X035393Y045185D02*
X039913Y045185D01*
X039913Y045343D02*
X035393Y045343D01*
X035393Y045502D02*
X039913Y045502D01*
X039913Y045661D02*
X035393Y045661D01*
X035393Y045819D02*
X039913Y045819D01*
X039913Y045978D02*
X035393Y045978D01*
X035393Y046136D02*
X039913Y046136D01*
X039913Y046295D02*
X035393Y046295D01*
X035393Y046453D02*
X039913Y046453D01*
X039913Y046612D02*
X035393Y046612D01*
X035393Y046770D02*
X039913Y046770D01*
X039913Y046929D02*
X035393Y046929D01*
X035393Y047087D02*
X039913Y047087D01*
X039913Y047246D02*
X035393Y047246D01*
X035342Y047405D02*
X039913Y047405D01*
X039913Y047563D02*
X035243Y047563D01*
X035085Y047722D02*
X039913Y047722D01*
X039913Y047880D02*
X034926Y047880D01*
X034768Y048039D02*
X039913Y048039D01*
X039913Y048197D02*
X034609Y048197D01*
X034451Y048356D02*
X039913Y048356D01*
X039913Y048514D02*
X039753Y048514D01*
X039291Y048514D02*
X034292Y048514D01*
X034134Y048673D02*
X039052Y048673D01*
X038939Y048831D02*
X033975Y048831D01*
X033816Y048990D02*
X038873Y048990D01*
X038872Y049149D02*
X033658Y049149D01*
X033499Y049307D02*
X038895Y049307D01*
X038961Y049466D02*
X033341Y049466D01*
X033182Y049624D02*
X037429Y049624D01*
X037271Y049783D02*
X033024Y049783D01*
X032865Y049941D02*
X037112Y049941D01*
X036994Y050100D02*
X032633Y050100D01*
X033838Y051272D02*
X033744Y051366D01*
X033661Y051470D01*
X033591Y051582D01*
X033533Y051701D01*
X033490Y051826D01*
X033460Y051956D01*
X033447Y052074D01*
X034545Y052074D01*
X034545Y052234D01*
X034545Y053332D01*
X034427Y053319D01*
X034298Y053289D01*
X034173Y053246D01*
X034054Y053188D01*
X033941Y053118D01*
X033838Y053035D01*
X033744Y052941D01*
X033661Y052838D01*
X033591Y052725D01*
X033533Y052606D01*
X033490Y052481D01*
X033460Y052352D01*
X033447Y052234D01*
X034545Y052234D01*
X034705Y052234D01*
X034705Y053332D01*
X034823Y053319D01*
X034952Y053289D01*
X035078Y053246D01*
X035197Y053188D01*
X035309Y053118D01*
X035413Y053035D01*
X035506Y052941D01*
X035589Y052838D01*
X035660Y052725D01*
X035717Y052606D01*
X035761Y052481D01*
X035790Y052352D01*
X035804Y052234D01*
X034705Y052234D01*
X034705Y052074D01*
X035804Y052074D01*
X035790Y051956D01*
X035761Y051826D01*
X035717Y051701D01*
X035660Y051582D01*
X035589Y051470D01*
X035506Y051366D01*
X035413Y051272D01*
X035309Y051190D01*
X035197Y051119D01*
X035078Y051062D01*
X034952Y051018D01*
X034823Y050989D01*
X034705Y050975D01*
X034705Y052074D01*
X034545Y052074D01*
X034545Y050975D01*
X034427Y050989D01*
X034298Y051018D01*
X034173Y051062D01*
X034054Y051119D01*
X033941Y051190D01*
X033838Y051272D01*
X033917Y051210D02*
X027139Y051210D01*
X027114Y051190D02*
X027218Y051272D01*
X027311Y051366D01*
X027394Y051470D01*
X027465Y051582D01*
X027522Y051701D01*
X027566Y051826D01*
X027595Y051956D01*
X027609Y052074D01*
X026510Y052074D01*
X026510Y052234D01*
X026350Y052234D01*
X026350Y053332D01*
X026232Y053319D01*
X026103Y053289D01*
X025978Y053246D01*
X025859Y053188D01*
X025746Y053118D01*
X025643Y053035D01*
X025549Y052941D01*
X025466Y052838D01*
X025396Y052725D01*
X025338Y052606D01*
X025295Y052481D01*
X025265Y052352D01*
X025252Y052234D01*
X026350Y052234D01*
X026350Y052074D01*
X025252Y052074D01*
X025265Y051956D01*
X025295Y051826D01*
X025338Y051701D01*
X025396Y051582D01*
X025466Y051470D01*
X025549Y051366D01*
X025643Y051272D01*
X025746Y051190D01*
X025859Y051119D01*
X025978Y051062D01*
X026103Y051018D01*
X026232Y050989D01*
X026350Y050975D01*
X026350Y052074D01*
X026510Y052074D01*
X026510Y050975D01*
X026628Y050989D01*
X026757Y051018D01*
X026882Y051062D01*
X027002Y051119D01*
X027114Y051190D01*
X027313Y051368D02*
X033742Y051368D01*
X033626Y051527D02*
X027430Y051527D01*
X027514Y051685D02*
X033541Y051685D01*
X033486Y051844D02*
X027570Y051844D01*
X027601Y052002D02*
X033455Y052002D01*
X033456Y052319D02*
X027599Y052319D01*
X027595Y052352D02*
X027566Y052481D01*
X027522Y052606D01*
X027465Y052725D01*
X027394Y052838D01*
X027311Y052941D01*
X027218Y053035D01*
X027114Y053118D01*
X027002Y053188D01*
X026882Y053246D01*
X026757Y053289D01*
X026628Y053319D01*
X026510Y053332D01*
X026510Y052234D01*
X027609Y052234D01*
X027595Y052352D01*
X027567Y052478D02*
X033489Y052478D01*
X033548Y052636D02*
X027507Y052636D01*
X027421Y052795D02*
X033635Y052795D01*
X033756Y052954D02*
X027299Y052954D01*
X027121Y053112D02*
X033934Y053112D01*
X034245Y053271D02*
X026811Y053271D01*
X026510Y053271D02*
X026350Y053271D01*
X026350Y053112D02*
X026510Y053112D01*
X026510Y052954D02*
X026350Y052954D01*
X026350Y052795D02*
X026510Y052795D01*
X026510Y052636D02*
X026350Y052636D01*
X026350Y052478D02*
X026510Y052478D01*
X026510Y052319D02*
X026350Y052319D01*
X026350Y052161D02*
X024610Y052161D01*
X024610Y052319D02*
X025261Y052319D01*
X025294Y052478D02*
X024610Y052478D01*
X024610Y052636D02*
X025353Y052636D01*
X025440Y052795D02*
X024610Y052795D01*
X024610Y052954D02*
X025561Y052954D01*
X025739Y053112D02*
X024610Y053112D01*
X024610Y053271D02*
X026050Y053271D01*
X026510Y052161D02*
X034545Y052161D01*
X034545Y052319D02*
X034705Y052319D01*
X034705Y052161D02*
X036435Y052161D01*
X036435Y052319D02*
X035794Y052319D01*
X035762Y052478D02*
X036435Y052478D01*
X036435Y052636D02*
X035702Y052636D01*
X035616Y052795D02*
X036435Y052795D01*
X036435Y052954D02*
X035494Y052954D01*
X035316Y053112D02*
X036435Y053112D01*
X036435Y053271D02*
X035006Y053271D01*
X034705Y053271D02*
X034545Y053271D01*
X034545Y053112D02*
X034705Y053112D01*
X034705Y052954D02*
X034545Y052954D01*
X034545Y052795D02*
X034705Y052795D01*
X034705Y052636D02*
X034545Y052636D01*
X034545Y052478D02*
X034705Y052478D01*
X034705Y052002D02*
X034545Y052002D01*
X034545Y051844D02*
X034705Y051844D01*
X034705Y051685D02*
X034545Y051685D01*
X034545Y051527D02*
X034705Y051527D01*
X034705Y051368D02*
X034545Y051368D01*
X034545Y051210D02*
X034705Y051210D01*
X034705Y051051D02*
X034545Y051051D01*
X034204Y051051D02*
X026852Y051051D01*
X026510Y051051D02*
X026350Y051051D01*
X026350Y051210D02*
X026510Y051210D01*
X026510Y051368D02*
X026350Y051368D01*
X026350Y051527D02*
X026510Y051527D01*
X026510Y051685D02*
X026350Y051685D01*
X026350Y051844D02*
X026510Y051844D01*
X026510Y052002D02*
X026350Y052002D01*
X026009Y051051D02*
X024610Y051051D01*
X024610Y050892D02*
X036435Y050892D01*
X036435Y051051D02*
X035047Y051051D01*
X035334Y051210D02*
X036435Y051210D01*
X036435Y051368D02*
X035508Y051368D01*
X035625Y051527D02*
X036435Y051527D01*
X036435Y051685D02*
X035709Y051685D01*
X035765Y051844D02*
X036435Y051844D01*
X036435Y052002D02*
X035796Y052002D01*
X036522Y050734D02*
X024523Y050734D01*
X024204Y050417D02*
X036955Y050417D01*
X036955Y050575D02*
X024046Y050575D01*
X024363Y050258D02*
X036955Y050258D01*
X036440Y053429D02*
X024605Y053429D01*
X024509Y053588D02*
X036537Y053588D01*
X042675Y053271D02*
X044105Y053271D01*
X043794Y053112D02*
X042675Y053112D01*
X042675Y052954D02*
X043616Y052954D01*
X043495Y052795D02*
X042675Y052795D01*
X042675Y052636D02*
X043408Y052636D01*
X043349Y052478D02*
X042675Y052478D01*
X042675Y052319D02*
X043316Y052319D01*
X046399Y049941D02*
X055163Y049941D01*
X055163Y049783D02*
X046549Y049783D01*
X046575Y049624D02*
X055163Y049624D01*
X055163Y049466D02*
X046575Y049466D01*
X046575Y049307D02*
X055163Y049307D01*
X055163Y049149D02*
X046575Y049149D01*
X046575Y048990D02*
X055163Y048990D01*
X055163Y048831D02*
X046575Y048831D01*
X046575Y048673D02*
X055163Y048673D01*
X055163Y048514D02*
X046575Y048514D01*
X046546Y048356D02*
X055163Y048356D01*
X052531Y046136D02*
X040793Y046136D01*
X040793Y045978D02*
X052647Y045978D01*
X052806Y045819D02*
X040793Y045819D01*
X040793Y046295D02*
X052373Y046295D01*
X052214Y046453D02*
X040793Y046453D01*
X040793Y046612D02*
X050438Y046612D01*
X049974Y046770D02*
X049819Y046770D01*
X049819Y046929D02*
X049974Y046929D01*
X049974Y047087D02*
X049819Y047087D01*
X049819Y047246D02*
X040793Y047246D01*
X040793Y047405D02*
X049402Y047405D01*
X049405Y047563D02*
X040793Y047563D01*
X040793Y047722D02*
X050427Y047722D01*
X049974Y047563D02*
X049819Y047563D01*
X049819Y047405D02*
X049974Y047405D01*
X049402Y047087D02*
X040793Y047087D01*
X040793Y046929D02*
X049402Y046929D01*
X049408Y046770D02*
X040793Y046770D01*
X040793Y044392D02*
X050977Y044392D01*
X051001Y044234D02*
X040793Y044234D01*
X040793Y044075D02*
X051047Y044075D01*
X051118Y043917D02*
X040793Y043917D01*
X040793Y043758D02*
X051224Y043758D01*
X051372Y043599D02*
X040793Y043599D01*
X040793Y043441D02*
X051603Y043441D01*
X052074Y043441D02*
X052234Y043441D01*
X052234Y043599D02*
X052074Y043599D01*
X052074Y043758D02*
X052234Y043758D01*
X052234Y043917D02*
X052074Y043917D01*
X052074Y044075D02*
X052234Y044075D01*
X052234Y044234D02*
X052074Y044234D01*
X052074Y044392D02*
X052234Y044392D01*
X052234Y044868D02*
X052074Y044868D01*
X052074Y045026D02*
X052234Y045026D01*
X052234Y045185D02*
X052074Y045185D01*
X052074Y045343D02*
X052234Y045343D01*
X052234Y045502D02*
X052074Y045502D01*
X050634Y042014D02*
X042852Y042014D01*
X043133Y041856D02*
X050634Y041856D01*
X050634Y041697D02*
X043264Y041697D01*
X043330Y041538D02*
X050634Y041538D01*
X050634Y041380D02*
X043343Y041380D01*
X043333Y041221D02*
X050634Y041221D01*
X050634Y041063D02*
X043267Y041063D01*
X043141Y040904D02*
X050634Y040904D01*
X055163Y033294D02*
X031101Y033294D01*
X030942Y033136D02*
X055163Y033136D01*
X055163Y032977D02*
X030784Y032977D01*
X030625Y032819D02*
X055163Y032819D01*
X055163Y032660D02*
X030467Y032660D01*
X030308Y032501D02*
X055163Y032501D01*
X055163Y032343D02*
X027770Y032343D01*
X027611Y032184D02*
X055163Y032184D01*
X055163Y032026D02*
X027453Y032026D01*
X027294Y031867D02*
X055163Y031867D01*
X055163Y031709D02*
X027135Y031709D01*
X026977Y031550D02*
X029055Y031550D01*
X029125Y031576D02*
X028965Y031518D01*
X028811Y031446D01*
X028663Y031360D01*
X028524Y031263D01*
X028393Y031153D01*
X028272Y031033D01*
X028163Y030902D01*
X028065Y030762D01*
X027980Y030615D01*
X027908Y030460D01*
X027850Y030300D01*
X027806Y030136D01*
X027776Y029968D01*
X027761Y029798D01*
X027761Y029793D01*
X029633Y029793D01*
X029633Y031664D01*
X029628Y031664D01*
X029458Y031650D01*
X029290Y031620D01*
X029125Y031576D01*
X028717Y031392D02*
X026818Y031392D01*
X026660Y031233D02*
X028488Y031233D01*
X028315Y031075D02*
X026501Y031075D01*
X026343Y030916D02*
X028175Y030916D01*
X028062Y030757D02*
X026184Y030757D01*
X026026Y030599D02*
X027973Y030599D01*
X027901Y030440D02*
X025867Y030440D01*
X025709Y030282D02*
X027845Y030282D01*
X027803Y030123D02*
X025550Y030123D01*
X025391Y029965D02*
X027776Y029965D01*
X027762Y029806D02*
X025233Y029806D01*
X025074Y029648D02*
X029633Y029648D01*
X029633Y029633D02*
X027761Y029633D01*
X027761Y029628D01*
X027776Y029458D01*
X027806Y029290D01*
X027850Y029125D01*
X027908Y028965D01*
X027980Y028811D01*
X028065Y028663D01*
X028163Y028524D01*
X028272Y028393D01*
X028393Y028272D01*
X028524Y028163D01*
X028663Y028065D01*
X028811Y027980D01*
X028965Y027908D01*
X029125Y027850D01*
X029290Y027806D01*
X029458Y027776D01*
X029628Y027761D01*
X029633Y027761D01*
X029633Y029633D01*
X029793Y029633D01*
X029793Y029793D01*
X031664Y029793D01*
X031664Y029798D01*
X031650Y029968D01*
X031620Y030136D01*
X031576Y030300D01*
X031518Y030460D01*
X031446Y030615D01*
X031360Y030762D01*
X031263Y030902D01*
X031153Y031033D01*
X031033Y031153D01*
X030902Y031263D01*
X030762Y031360D01*
X030615Y031446D01*
X030460Y031518D01*
X030300Y031576D01*
X030136Y031620D01*
X029968Y031650D01*
X029798Y031664D01*
X029793Y031664D01*
X029793Y029793D01*
X029633Y029793D01*
X029633Y029633D01*
X029633Y029489D02*
X029793Y029489D01*
X029793Y029633D02*
X029793Y027761D01*
X029798Y027761D01*
X029968Y027776D01*
X030136Y027806D01*
X030300Y027850D01*
X030460Y027908D01*
X030615Y027980D01*
X030762Y028065D01*
X030902Y028163D01*
X031033Y028272D01*
X031153Y028393D01*
X031263Y028524D01*
X031360Y028663D01*
X031446Y028811D01*
X031518Y028965D01*
X031576Y029125D01*
X031620Y029290D01*
X031650Y029458D01*
X031664Y029628D01*
X031664Y029633D01*
X029793Y029633D01*
X029793Y029648D02*
X055163Y029648D01*
X055163Y029806D02*
X031664Y029806D01*
X031650Y029965D02*
X055163Y029965D01*
X055163Y030123D02*
X031622Y030123D01*
X031581Y030282D02*
X055163Y030282D01*
X055163Y030440D02*
X031525Y030440D01*
X031453Y030599D02*
X055163Y030599D01*
X055163Y030757D02*
X031363Y030757D01*
X031251Y030916D02*
X055163Y030916D01*
X055163Y031075D02*
X031111Y031075D01*
X030937Y031233D02*
X055163Y031233D01*
X055163Y031392D02*
X030708Y031392D01*
X030371Y031550D02*
X055163Y031550D01*
X055163Y029489D02*
X034133Y029489D01*
X033873Y029489D02*
X031652Y029489D01*
X031627Y029331D02*
X033619Y029331D01*
X033521Y029172D02*
X031588Y029172D01*
X031535Y029014D02*
X033469Y029014D01*
X033310Y028855D02*
X031466Y028855D01*
X031380Y028696D02*
X033152Y028696D01*
X032993Y028538D02*
X031273Y028538D01*
X031139Y028379D02*
X032835Y028379D01*
X032676Y028221D02*
X030971Y028221D01*
X030757Y028062D02*
X032518Y028062D01*
X032403Y027904D02*
X030449Y027904D01*
X029793Y027904D02*
X029633Y027904D01*
X029633Y028062D02*
X029793Y028062D01*
X029793Y028221D02*
X029633Y028221D01*
X029633Y028379D02*
X029793Y028379D01*
X029793Y028538D02*
X029633Y028538D01*
X029633Y028696D02*
X029793Y028696D01*
X029793Y028855D02*
X029633Y028855D01*
X029633Y029014D02*
X029793Y029014D01*
X029793Y029172D02*
X029633Y029172D01*
X029633Y029331D02*
X029793Y029331D01*
X029793Y029806D02*
X029633Y029806D01*
X029633Y029965D02*
X029793Y029965D01*
X029793Y030123D02*
X029633Y030123D01*
X029633Y030282D02*
X029793Y030282D01*
X029793Y030440D02*
X029633Y030440D01*
X029633Y030599D02*
X029793Y030599D01*
X029793Y030757D02*
X029633Y030757D01*
X029633Y030916D02*
X029793Y030916D01*
X029793Y031075D02*
X029633Y031075D01*
X029633Y031233D02*
X029793Y031233D01*
X029793Y031392D02*
X029633Y031392D01*
X029633Y031550D02*
X029793Y031550D01*
X031259Y033453D02*
X032861Y033453D01*
X032721Y033611D02*
X031418Y033611D01*
X031440Y033633D02*
X031440Y033633D01*
X031562Y033770D02*
X032656Y033770D01*
X032636Y033928D02*
X031613Y033928D01*
X031613Y034087D02*
X032640Y034087D01*
X032706Y034245D02*
X031613Y034245D01*
X031613Y034404D02*
X032823Y034404D01*
X033748Y034404D02*
X035111Y034404D01*
X034993Y034245D02*
X033866Y034245D01*
X033931Y034087D02*
X034928Y034087D01*
X034923Y033928D02*
X033936Y033928D01*
X033916Y033770D02*
X034943Y033770D01*
X035009Y033611D02*
X033850Y033611D01*
X033710Y033453D02*
X035149Y033453D01*
X036036Y034404D02*
X037655Y034404D01*
X037497Y034563D02*
X035786Y034563D01*
X035393Y038050D02*
X037408Y038050D01*
X037250Y038209D02*
X035393Y038209D01*
X035393Y038368D02*
X037184Y038368D01*
X037166Y038526D02*
X035393Y038526D01*
X035393Y038685D02*
X037187Y038685D01*
X037257Y038843D02*
X035393Y038843D01*
X035393Y039002D02*
X037427Y039002D01*
X037734Y038534D02*
X038222Y038534D01*
X037734Y038534D02*
X037722Y038522D01*
X038377Y039160D02*
X035393Y039160D01*
X035393Y039319D02*
X038443Y039319D01*
X038591Y039477D02*
X035393Y039477D01*
X035393Y039636D02*
X038522Y039636D01*
X038414Y039794D02*
X035393Y039794D01*
X035393Y039953D02*
X038366Y039953D01*
X038366Y040112D02*
X035393Y040112D01*
X035393Y040270D02*
X038423Y040270D01*
X038542Y040429D02*
X035393Y040429D01*
X035393Y040587D02*
X039886Y040587D01*
X039835Y040746D02*
X035393Y040746D01*
X035393Y040904D02*
X039835Y040904D01*
X039896Y041063D02*
X035393Y041063D01*
X035393Y041221D02*
X039913Y041221D01*
X039913Y041380D02*
X035393Y041380D01*
X035393Y041538D02*
X039235Y041538D01*
X039095Y041697D02*
X035393Y041697D01*
X035393Y041856D02*
X039029Y041856D01*
X039009Y042014D02*
X035393Y042014D01*
X035393Y042173D02*
X039013Y042173D01*
X039079Y042331D02*
X035393Y042331D01*
X035393Y042490D02*
X039196Y042490D01*
X039444Y042648D02*
X035393Y042648D01*
X038934Y039034D02*
X039422Y039034D01*
X038934Y039034D02*
X038922Y039022D01*
X030718Y034482D02*
X030693Y034457D01*
X030718Y034482D02*
X030718Y046232D01*
X029028Y047922D01*
X021203Y047922D01*
X019963Y049163D01*
X019922Y049203D01*
X019922Y049222D01*
X019922Y049203D02*
X019330Y049795D01*
X019330Y051654D01*
X020410Y051654D02*
X020410Y050090D01*
X021322Y049178D01*
X021350Y049150D01*
X022048Y048452D01*
X029268Y048452D01*
X027966Y045343D02*
X008004Y045343D01*
X008144Y045185D02*
X027469Y045185D01*
X027787Y045185D02*
X028125Y045185D01*
X028068Y045026D02*
X028283Y045026D01*
X028358Y044868D02*
X028199Y044868D01*
X028265Y044709D02*
X028358Y044709D01*
X028358Y044551D02*
X028278Y044551D01*
X028268Y044392D02*
X028358Y044392D01*
X028358Y044234D02*
X028202Y044234D01*
X028075Y044075D02*
X028358Y044075D01*
X028358Y043917D02*
X028089Y043917D01*
X028267Y043758D02*
X028358Y043758D01*
X028354Y043599D02*
X028358Y043599D01*
X028358Y042965D02*
X028286Y042965D01*
X028358Y042807D02*
X028127Y042807D01*
X028358Y042648D02*
X025492Y042648D01*
X025492Y042490D02*
X028358Y042490D01*
X028358Y042331D02*
X025492Y042331D01*
X025492Y042173D02*
X028358Y042173D01*
X028358Y042014D02*
X025492Y042014D01*
X025492Y041856D02*
X028358Y041856D01*
X028358Y041697D02*
X025492Y041697D01*
X025492Y041538D02*
X028358Y041538D01*
X028358Y041380D02*
X025492Y041380D01*
X025492Y041221D02*
X028358Y041221D01*
X028358Y041063D02*
X025492Y041063D01*
X025492Y040904D02*
X028358Y040904D01*
X028358Y040746D02*
X025492Y040746D01*
X025492Y040587D02*
X028358Y040587D01*
X028358Y040429D02*
X025492Y040429D01*
X025492Y040270D02*
X028358Y040270D01*
X028358Y040112D02*
X025492Y040112D01*
X025492Y039953D02*
X028358Y039953D01*
X028358Y039794D02*
X025492Y039794D01*
X025492Y039636D02*
X028358Y039636D01*
X028358Y039477D02*
X025522Y039477D01*
X025522Y039319D02*
X028358Y039319D01*
X028358Y039160D02*
X025492Y039160D01*
X025492Y039002D02*
X028358Y039002D01*
X028358Y038843D02*
X025492Y038843D01*
X025492Y038685D02*
X028358Y038685D01*
X028358Y038526D02*
X025492Y038526D01*
X025458Y038368D02*
X028358Y038368D01*
X028358Y038209D02*
X025386Y038209D01*
X025227Y038050D02*
X028358Y038050D01*
X024222Y039319D02*
X013996Y039319D01*
X014119Y039160D02*
X023172Y039160D01*
X022925Y039002D02*
X014185Y039002D01*
X014193Y038843D02*
X022766Y038843D01*
X022847Y038923D02*
X022847Y038923D01*
X022608Y038685D02*
X014177Y038685D01*
X013733Y039477D02*
X024222Y039477D01*
X024252Y039636D02*
X013856Y039636D01*
X013944Y039794D02*
X024252Y039794D01*
X024252Y039953D02*
X013993Y039953D01*
X013993Y040112D02*
X024252Y040112D01*
X024252Y040270D02*
X013962Y040270D01*
X013962Y040429D02*
X024252Y040429D01*
X024252Y040587D02*
X013962Y040587D01*
X013962Y040746D02*
X024252Y040746D01*
X024252Y040904D02*
X013962Y040904D01*
X013962Y041063D02*
X024252Y041063D01*
X024252Y041221D02*
X013962Y041221D01*
X013960Y041380D02*
X024252Y041380D01*
X024252Y041538D02*
X013895Y041538D01*
X013774Y041697D02*
X015640Y041697D01*
X015664Y041687D02*
X015923Y041687D01*
X016161Y041786D01*
X016278Y041903D01*
X016395Y041786D01*
X016634Y041687D01*
X016893Y041687D01*
X017131Y041786D01*
X017313Y041968D01*
X017495Y041786D01*
X017734Y041687D01*
X017993Y041687D01*
X018231Y041786D01*
X018413Y041968D01*
X018595Y041786D01*
X018834Y041687D01*
X019093Y041687D01*
X019331Y041786D01*
X019514Y041969D01*
X019613Y042208D01*
X019613Y042466D01*
X019514Y042705D01*
X019331Y042888D01*
X019093Y042987D01*
X018834Y042987D01*
X018595Y042888D01*
X018413Y042706D01*
X018231Y042888D01*
X017993Y042987D01*
X017734Y042987D01*
X017495Y042888D01*
X017313Y042706D01*
X017131Y042888D01*
X016893Y042987D01*
X016634Y042987D01*
X016395Y042888D01*
X016278Y042771D01*
X016161Y042888D01*
X015923Y042987D01*
X015664Y042987D01*
X015425Y042888D01*
X015242Y042705D01*
X015143Y042466D01*
X015143Y042208D01*
X015242Y041969D01*
X015425Y041786D01*
X015664Y041687D01*
X015946Y041697D02*
X016610Y041697D01*
X016916Y041697D02*
X017710Y041697D01*
X018016Y041697D02*
X018810Y041697D01*
X019116Y041697D02*
X024252Y041697D01*
X024252Y041856D02*
X019401Y041856D01*
X019533Y042014D02*
X024252Y042014D01*
X024252Y042173D02*
X019599Y042173D01*
X019613Y042331D02*
X024252Y042331D01*
X024252Y042490D02*
X019604Y042490D01*
X019538Y042648D02*
X024252Y042648D01*
X024252Y042807D02*
X019413Y042807D01*
X019145Y042965D02*
X024252Y042965D01*
X024252Y043124D02*
X013976Y043124D01*
X013993Y043282D02*
X024252Y043282D01*
X024252Y043441D02*
X013986Y043441D01*
X013921Y043599D02*
X024252Y043599D01*
X024252Y043758D02*
X013799Y043758D01*
X013664Y043917D02*
X024222Y043917D01*
X024222Y044075D02*
X013850Y044075D01*
X013942Y044234D02*
X024266Y044234D01*
X024346Y044392D02*
X013993Y044392D01*
X013993Y044551D02*
X024506Y044551D01*
X025238Y044551D02*
X026978Y044551D01*
X026992Y044709D02*
X013955Y044709D01*
X013882Y044868D02*
X027058Y044868D01*
X027188Y045026D02*
X013723Y045026D01*
X012963Y045026D02*
X008242Y045026D01*
X008309Y044868D02*
X012805Y044868D01*
X012732Y044709D02*
X008352Y044709D01*
X007793Y045502D02*
X017012Y045502D01*
X016945Y042965D02*
X017681Y042965D01*
X017414Y042807D02*
X017213Y042807D01*
X018045Y042965D02*
X018781Y042965D01*
X018514Y042807D02*
X018313Y042807D01*
X018301Y041856D02*
X018526Y041856D01*
X017426Y041856D02*
X017201Y041856D01*
X016326Y041856D02*
X016231Y041856D01*
X015356Y041856D02*
X013616Y041856D01*
X013457Y042014D02*
X015224Y042014D01*
X015158Y042173D02*
X013299Y042173D01*
X013140Y042331D02*
X015143Y042331D01*
X015153Y042490D02*
X012981Y042490D01*
X012823Y042648D02*
X013205Y042648D01*
X013481Y042648D02*
X015219Y042648D01*
X015344Y042807D02*
X013775Y042807D01*
X013910Y042965D02*
X015611Y042965D01*
X015975Y042965D02*
X016581Y042965D01*
X016314Y042807D02*
X016243Y042807D01*
X012912Y042807D02*
X012664Y042807D01*
X012776Y042965D02*
X012506Y042965D01*
X016166Y038209D02*
X016421Y038209D01*
X017166Y038209D02*
X017521Y038209D01*
X017362Y038050D02*
X017324Y038050D01*
X018266Y038209D02*
X018566Y038209D01*
X018433Y037258D02*
X018408Y037258D01*
X018233Y037099D02*
X018616Y037099D01*
X017554Y037099D02*
X017133Y037099D01*
X017308Y037258D02*
X017378Y037258D01*
X016454Y037099D02*
X016133Y037099D01*
X016406Y035989D02*
X004262Y035989D01*
X004262Y035831D02*
X015316Y035831D01*
X015259Y035672D02*
X007738Y035672D01*
X007765Y035660D02*
X007645Y035717D01*
X007520Y035761D01*
X007391Y035790D01*
X007273Y035804D01*
X007273Y034705D01*
X008371Y034705D01*
X008358Y034823D01*
X008329Y034952D01*
X008285Y035078D01*
X008227Y035197D01*
X008157Y035309D01*
X008074Y035413D01*
X007981Y035506D01*
X007877Y035589D01*
X007765Y035660D01*
X007971Y035514D02*
X015259Y035514D01*
X015259Y035267D02*
X015259Y034967D01*
X015271Y034921D01*
X015294Y034880D01*
X015328Y034846D01*
X015369Y034823D01*
X015415Y034810D01*
X015676Y034810D01*
X015676Y035267D01*
X015259Y035267D01*
X015259Y035197D02*
X008228Y035197D01*
X008299Y035038D02*
X015259Y035038D01*
X015295Y034880D02*
X008345Y034880D01*
X008370Y034721D02*
X016358Y034721D01*
X016462Y034563D02*
X007273Y034563D01*
X007273Y034545D02*
X007273Y034705D01*
X007113Y034705D01*
X007113Y034545D01*
X007273Y034545D01*
X007273Y033447D01*
X007391Y033460D01*
X007520Y033490D01*
X007645Y033533D01*
X007765Y033591D01*
X007877Y033661D01*
X007981Y033744D01*
X008074Y033838D01*
X008157Y033941D01*
X008227Y034054D01*
X008285Y034173D01*
X008329Y034298D01*
X008358Y034427D01*
X008371Y034545D01*
X007273Y034545D01*
X007273Y034404D02*
X007113Y034404D01*
X007113Y034545D02*
X007113Y033447D01*
X006995Y033460D01*
X006866Y033490D01*
X006741Y033533D01*
X006621Y033591D01*
X006509Y033661D01*
X006406Y033744D01*
X006312Y033838D01*
X006229Y033941D01*
X006159Y034054D01*
X006101Y034173D01*
X006057Y034298D01*
X006028Y034427D01*
X006015Y034545D01*
X007113Y034545D01*
X007113Y034563D02*
X004262Y034563D01*
X004262Y034721D02*
X006016Y034721D01*
X006015Y034705D02*
X007113Y034705D01*
X007113Y035804D01*
X006995Y035790D01*
X006866Y035761D01*
X006741Y035717D01*
X006621Y035660D01*
X006509Y035589D01*
X006406Y035506D01*
X006312Y035413D01*
X006229Y035309D01*
X006159Y035197D01*
X006101Y035078D01*
X006057Y034952D01*
X006028Y034823D01*
X006015Y034705D01*
X006041Y034880D02*
X004262Y034880D01*
X004262Y035038D02*
X006087Y035038D01*
X006159Y035197D02*
X004262Y035197D01*
X004262Y035355D02*
X006266Y035355D01*
X006415Y035514D02*
X004262Y035514D01*
X004262Y035672D02*
X006648Y035672D01*
X007113Y035672D02*
X007273Y035672D01*
X007273Y035514D02*
X007113Y035514D01*
X007113Y035355D02*
X007273Y035355D01*
X007273Y035197D02*
X007113Y035197D01*
X007113Y035038D02*
X007273Y035038D01*
X007273Y034880D02*
X007113Y034880D01*
X007113Y034721D02*
X007273Y034721D01*
X007273Y034245D02*
X007113Y034245D01*
X007113Y034087D02*
X007273Y034087D01*
X007273Y033928D02*
X007113Y033928D01*
X007113Y033770D02*
X007273Y033770D01*
X007273Y033611D02*
X007113Y033611D01*
X007113Y033453D02*
X007273Y033453D01*
X007325Y033453D02*
X016462Y033453D01*
X016462Y033294D02*
X004262Y033294D01*
X004262Y033136D02*
X008517Y033136D01*
X008301Y032977D02*
X004262Y032977D01*
X004262Y032819D02*
X008142Y032819D01*
X007984Y032660D02*
X004262Y032660D01*
X004262Y032501D02*
X007825Y032501D01*
X007667Y032343D02*
X004262Y032343D01*
X004262Y032184D02*
X007508Y032184D01*
X007350Y032026D02*
X004262Y032026D01*
X004262Y031867D02*
X007191Y031867D01*
X007033Y031709D02*
X004262Y031709D01*
X004262Y031550D02*
X004740Y031550D01*
X004793Y031572D02*
X004554Y031473D01*
X004371Y031290D01*
X004272Y031051D01*
X004272Y030793D01*
X004371Y030554D01*
X004554Y030371D01*
X004793Y030272D01*
X005051Y030272D01*
X005290Y030371D01*
X005473Y030554D01*
X005572Y030793D01*
X005572Y031051D01*
X005473Y031290D01*
X005290Y031473D01*
X005051Y031572D01*
X004793Y031572D01*
X005105Y031550D02*
X006874Y031550D01*
X006716Y031392D02*
X005372Y031392D01*
X005497Y031233D02*
X006557Y031233D01*
X006398Y031075D02*
X005563Y031075D01*
X005572Y030916D02*
X006240Y030916D01*
X006081Y030757D02*
X005557Y030757D01*
X005492Y030599D02*
X005923Y030599D01*
X005764Y030440D02*
X005360Y030440D01*
X005606Y030282D02*
X005075Y030282D01*
X004770Y030282D02*
X004262Y030282D01*
X004262Y030440D02*
X004485Y030440D01*
X004353Y030599D02*
X004262Y030599D01*
X004262Y030757D02*
X004287Y030757D01*
X004272Y030916D02*
X004262Y030916D01*
X004262Y031075D02*
X004282Y031075D01*
X004262Y031233D02*
X004347Y031233D01*
X004262Y031392D02*
X004472Y031392D01*
X004262Y030123D02*
X005447Y030123D01*
X005289Y029965D02*
X004262Y029965D01*
X004262Y029806D02*
X005130Y029806D01*
X004972Y029648D02*
X004262Y029648D01*
X004262Y029489D02*
X004813Y029489D01*
X004654Y029331D02*
X004262Y029331D01*
X004262Y029172D02*
X004496Y029172D01*
X004415Y029014D02*
X004262Y029014D01*
X004262Y028855D02*
X004403Y028855D01*
X004403Y028696D02*
X004262Y028696D01*
X004262Y028538D02*
X004403Y028538D01*
X004403Y028379D02*
X004262Y028379D01*
X004262Y028221D02*
X004403Y028221D01*
X004403Y028062D02*
X004262Y028062D01*
X004262Y027904D02*
X004403Y027904D01*
X004403Y027745D02*
X004262Y027745D01*
X004262Y027587D02*
X004403Y027587D01*
X004403Y027428D02*
X004262Y027428D01*
X004262Y027270D02*
X004403Y027270D01*
X004403Y027111D02*
X004262Y027111D01*
X004262Y026952D02*
X004403Y026952D01*
X004403Y026794D02*
X004262Y026794D01*
X004262Y026635D02*
X004403Y026635D01*
X004403Y026477D02*
X004262Y026477D01*
X004262Y026318D02*
X004403Y026318D01*
X004403Y026160D02*
X004262Y026160D01*
X004262Y026001D02*
X004403Y026001D01*
X004403Y025843D02*
X004262Y025843D01*
X004262Y025684D02*
X004403Y025684D01*
X004403Y025526D02*
X004262Y025526D01*
X004262Y025367D02*
X004403Y025367D01*
X004403Y025208D02*
X004262Y025208D01*
X004262Y025050D02*
X004403Y025050D01*
X004403Y024891D02*
X004262Y024891D01*
X004262Y024733D02*
X004403Y024733D01*
X004403Y024574D02*
X004262Y024574D01*
X004262Y024416D02*
X004403Y024416D01*
X004403Y024257D02*
X004262Y024257D01*
X004262Y024099D02*
X004403Y024099D01*
X004403Y023940D02*
X004262Y023940D01*
X004262Y023782D02*
X004403Y023782D01*
X004403Y023623D02*
X004262Y023623D01*
X004262Y023464D02*
X004403Y023464D01*
X004403Y023306D02*
X004262Y023306D01*
X004262Y023147D02*
X004403Y023147D01*
X004403Y022989D02*
X004262Y022989D01*
X004262Y022830D02*
X004403Y022830D01*
X004403Y022672D02*
X004262Y022672D01*
X004262Y022513D02*
X004403Y022513D01*
X004403Y022355D02*
X004262Y022355D01*
X004262Y022196D02*
X004403Y022196D01*
X004403Y022038D02*
X004262Y022038D01*
X004262Y021879D02*
X004403Y021879D01*
X004403Y021721D02*
X004262Y021721D01*
X004262Y021562D02*
X004403Y021562D01*
X004403Y021403D02*
X004262Y021403D01*
X004262Y021245D02*
X004403Y021245D01*
X004403Y021086D02*
X004262Y021086D01*
X004262Y020928D02*
X004403Y020928D01*
X004403Y020769D02*
X004262Y020769D01*
X004262Y020611D02*
X004403Y020611D01*
X004452Y020452D02*
X004262Y020452D01*
X004262Y020294D02*
X004585Y020294D01*
X004743Y020135D02*
X004262Y020135D01*
X004262Y019977D02*
X004902Y019977D01*
X005060Y019818D02*
X004262Y019818D01*
X004262Y019659D02*
X005219Y019659D01*
X005377Y019501D02*
X004262Y019501D01*
X004262Y019342D02*
X005673Y019342D01*
X005673Y019184D02*
X004262Y019184D01*
X004262Y019025D02*
X005673Y019025D01*
X005673Y018867D02*
X004262Y018867D01*
X004262Y018708D02*
X005673Y018708D01*
X005673Y018550D02*
X004262Y018550D01*
X004262Y018391D02*
X005673Y018391D01*
X005673Y018233D02*
X004262Y018233D01*
X004262Y018074D02*
X005673Y018074D01*
X005673Y017915D02*
X004262Y017915D01*
X004262Y017757D02*
X005673Y017757D01*
X005673Y017598D02*
X004262Y017598D01*
X004262Y017440D02*
X005673Y017440D01*
X005673Y017281D02*
X004262Y017281D01*
X004262Y017123D02*
X005673Y017123D01*
X005673Y016964D02*
X004262Y016964D01*
X004262Y016806D02*
X005673Y016806D01*
X005673Y016647D02*
X004262Y016647D01*
X004262Y016489D02*
X005673Y016489D01*
X005673Y016330D02*
X004262Y016330D01*
X004262Y016171D02*
X005673Y016171D01*
X005673Y016013D02*
X004262Y016013D01*
X004262Y015854D02*
X005673Y015854D01*
X005673Y015696D02*
X004262Y015696D01*
X004262Y015537D02*
X005673Y015537D01*
X005676Y015379D02*
X004262Y015379D01*
X004262Y015220D02*
X005770Y015220D01*
X006509Y014274D02*
X006406Y014191D01*
X006312Y014098D01*
X006229Y013994D01*
X006159Y013882D01*
X006101Y013762D01*
X006057Y013637D01*
X006028Y013508D01*
X006015Y013390D01*
X007113Y013390D01*
X007113Y013230D01*
X007273Y013230D01*
X007273Y012132D01*
X007391Y012145D01*
X007520Y012175D01*
X007645Y012218D01*
X007765Y012276D01*
X007877Y012346D01*
X007981Y012429D01*
X008074Y012523D01*
X008157Y012626D01*
X008227Y012739D01*
X008285Y012858D01*
X008329Y012983D01*
X008358Y013112D01*
X008371Y013230D01*
X007273Y013230D01*
X007273Y013390D01*
X008371Y013390D01*
X008358Y013508D01*
X008329Y013637D01*
X008285Y013762D01*
X008227Y013882D01*
X008157Y013994D01*
X008074Y014098D01*
X007981Y014191D01*
X007877Y014274D01*
X007765Y014345D01*
X007645Y014402D01*
X007520Y014446D01*
X007391Y014475D01*
X007273Y014489D01*
X007273Y013390D01*
X007113Y013390D01*
X007113Y014489D01*
X006995Y014475D01*
X006866Y014446D01*
X006741Y014402D01*
X006621Y014345D01*
X006509Y014274D01*
X006503Y014269D02*
X004262Y014269D01*
X004262Y014428D02*
X006813Y014428D01*
X007113Y014428D02*
X007273Y014428D01*
X007273Y014269D02*
X007113Y014269D01*
X007113Y014110D02*
X007273Y014110D01*
X007273Y013952D02*
X007113Y013952D01*
X007113Y013793D02*
X007273Y013793D01*
X007273Y013635D02*
X007113Y013635D01*
X007113Y013476D02*
X007273Y013476D01*
X007273Y013318D02*
X023643Y013318D01*
X023655Y013330D02*
X023598Y013271D01*
X023542Y013214D01*
X023530Y013212D01*
X023475Y013212D01*
X023444Y013199D01*
X023411Y013194D01*
X023364Y013166D01*
X023313Y013145D01*
X023289Y013122D01*
X023114Y013016D01*
X023063Y012995D01*
X023039Y012972D01*
X023011Y012954D01*
X022978Y012910D01*
X022939Y012871D01*
X022926Y012841D01*
X022907Y012814D01*
X022893Y012761D01*
X022872Y012710D01*
X022872Y012676D01*
X022864Y012644D01*
X022872Y012590D01*
X022872Y012176D01*
X022864Y012144D01*
X022872Y012090D01*
X022872Y012035D01*
X022885Y012004D01*
X022890Y011971D01*
X022918Y011924D01*
X022939Y011873D01*
X022963Y011849D01*
X022980Y011821D01*
X023024Y011788D01*
X023063Y011749D01*
X023094Y011736D01*
X023121Y011717D01*
X023174Y011703D01*
X023225Y011682D01*
X023258Y011682D01*
X023290Y011674D01*
X023345Y011682D01*
X023400Y011682D01*
X023431Y011695D01*
X023464Y011700D01*
X023511Y011728D01*
X023561Y011749D01*
X023585Y011773D01*
X023761Y011878D01*
X023811Y011899D01*
X023835Y011923D01*
X023864Y011940D01*
X023896Y011984D01*
X023934Y012022D01*
X024000Y012022D01*
X024004Y012024D01*
X024009Y012024D01*
X024085Y012057D01*
X024161Y012089D01*
X024165Y012093D01*
X024334Y012167D01*
X024411Y012199D01*
X024415Y012203D01*
X024419Y012205D01*
X024476Y012264D01*
X024535Y012323D01*
X024537Y012328D01*
X024541Y012331D01*
X024570Y012408D01*
X024602Y012485D01*
X024602Y012490D01*
X024911Y012377D01*
X025333Y012377D01*
X025502Y012439D01*
X025502Y012303D01*
X025559Y012165D01*
X025665Y012059D01*
X025803Y012002D01*
X025901Y012002D01*
X026050Y012002D01*
X026149Y012002D01*
X026190Y012020D01*
X026232Y012002D01*
X026331Y012002D01*
X026480Y012002D01*
X026578Y012002D01*
X026716Y012059D01*
X026719Y012062D01*
X026721Y012059D01*
X026859Y012002D01*
X027008Y012002D01*
X027146Y012059D01*
X027157Y012071D01*
X027169Y012059D01*
X027306Y012002D01*
X027751Y012002D01*
X027851Y012044D01*
X027889Y012059D01*
X027958Y012128D01*
X027987Y012158D01*
X028024Y012194D01*
X028093Y012263D01*
X028102Y012285D01*
X028150Y012401D01*
X028150Y012550D01*
X028150Y012649D01*
X028140Y012672D01*
X028150Y012696D01*
X028150Y012845D01*
X028150Y012944D01*
X028103Y013056D01*
X028093Y013082D01*
X028026Y013149D01*
X027987Y013187D01*
X027956Y013219D01*
X027889Y013286D01*
X027845Y013303D01*
X027751Y013343D01*
X027602Y013343D01*
X027306Y013343D01*
X027256Y013322D01*
X027205Y013343D01*
X026662Y013343D01*
X026620Y013325D01*
X026578Y013343D01*
X026295Y013343D01*
X026334Y013563D01*
X026345Y013567D01*
X026421Y013599D01*
X026425Y013603D01*
X026594Y013677D01*
X026671Y013709D01*
X026675Y013713D01*
X026679Y013715D01*
X026694Y013730D01*
X026777Y013732D01*
X026860Y013732D01*
X026864Y013734D01*
X026869Y013734D01*
X026945Y013767D01*
X027021Y013799D01*
X027025Y013803D01*
X027194Y013877D01*
X027271Y013909D01*
X027275Y013913D01*
X027279Y013915D01*
X027336Y013974D01*
X027395Y014033D01*
X027397Y014038D01*
X027401Y014041D01*
X027430Y014118D01*
X027462Y014195D01*
X027462Y014200D01*
X027464Y014204D01*
X027462Y014287D01*
X027462Y014700D01*
X027464Y014704D01*
X027462Y014787D01*
X027462Y014870D01*
X027460Y014874D01*
X027460Y014879D01*
X027427Y014954D01*
X027395Y015031D01*
X027392Y015035D01*
X027390Y015039D01*
X027331Y015096D01*
X027271Y015155D01*
X027267Y015157D01*
X027263Y015161D01*
X027187Y015190D01*
X027110Y015222D01*
X027105Y015222D01*
X027100Y015224D01*
X027017Y015222D01*
X026935Y015222D01*
X026930Y015220D01*
X008616Y015220D01*
X008710Y015379D02*
X035335Y015379D01*
X035335Y015537D02*
X021358Y015537D01*
X021404Y015696D02*
X035335Y015696D01*
X035335Y015854D02*
X021404Y015854D01*
X021404Y016013D02*
X035335Y016013D01*
X035335Y016171D02*
X021404Y016171D01*
X021404Y016330D02*
X035335Y016330D01*
X035335Y016489D02*
X021349Y016489D01*
X021453Y016647D02*
X035330Y016647D01*
X035264Y016806D02*
X021502Y016806D01*
X021502Y016964D02*
X035257Y016964D01*
X035296Y017123D02*
X021502Y017123D01*
X021502Y017281D02*
X027875Y017281D01*
X027714Y017440D02*
X021502Y017440D01*
X021471Y017598D02*
X027555Y017598D01*
X027397Y017757D02*
X021456Y017757D01*
X021502Y017915D02*
X027238Y017915D01*
X027080Y018074D02*
X021502Y018074D01*
X021502Y018233D02*
X026921Y018233D01*
X026763Y018391D02*
X021502Y018391D01*
X021502Y018550D02*
X026604Y018550D01*
X026446Y018708D02*
X021468Y018708D01*
X021281Y018867D02*
X026287Y018867D01*
X026128Y019025D02*
X021066Y019025D01*
X020907Y019184D02*
X025970Y019184D01*
X025811Y019342D02*
X020749Y019342D01*
X020590Y019501D02*
X025653Y019501D01*
X025494Y019659D02*
X020432Y019659D01*
X020273Y019818D02*
X025336Y019818D01*
X025177Y019977D02*
X020546Y019977D01*
X020701Y020135D02*
X025019Y020135D01*
X024860Y020294D02*
X020820Y020294D01*
X020931Y020452D02*
X024702Y020452D01*
X024543Y020611D02*
X020992Y020611D01*
X020992Y020769D02*
X024384Y020769D01*
X024226Y020928D02*
X022380Y020928D01*
X022442Y021086D02*
X024067Y021086D01*
X023909Y021245D02*
X022442Y021245D01*
X022442Y021403D02*
X023750Y021403D01*
X023592Y021562D02*
X022442Y021562D01*
X022442Y021721D02*
X023433Y021721D01*
X023275Y021879D02*
X022442Y021879D01*
X022442Y022038D02*
X023116Y022038D01*
X022958Y022196D02*
X022442Y022196D01*
X022442Y022355D02*
X022799Y022355D01*
X022640Y022513D02*
X022442Y022513D01*
X022442Y022672D02*
X022482Y022672D01*
X022260Y023460D02*
X022078Y023641D01*
X020519Y023641D01*
X020519Y023956D02*
X022499Y023956D01*
X028233Y018222D01*
X047822Y018222D01*
X048874Y017170D01*
X051654Y017170D01*
X051654Y016090D02*
X048854Y016090D01*
X047322Y017622D01*
X028097Y017622D01*
X022260Y023460D01*
X022153Y024271D02*
X022403Y024521D01*
X022403Y024947D01*
X022403Y025531D01*
X022403Y025741D01*
X022298Y025846D01*
X020519Y025846D01*
X020519Y025531D02*
X022403Y025531D01*
X022442Y025526D02*
X023903Y025526D01*
X023745Y025684D02*
X022442Y025684D01*
X022442Y025761D02*
X023668Y025761D01*
X024404Y025025D01*
X024404Y024969D01*
X024483Y024779D01*
X024629Y024633D01*
X024819Y024554D01*
X025025Y024554D01*
X025216Y024633D01*
X025255Y024672D01*
X031389Y024672D01*
X031429Y024633D01*
X031619Y024554D01*
X031825Y024554D01*
X031978Y024618D01*
X031978Y024418D01*
X031631Y024070D01*
X031575Y024070D01*
X031385Y023991D01*
X031239Y023846D01*
X031160Y023655D01*
X031160Y023449D01*
X031239Y023259D01*
X031385Y023113D01*
X031575Y023034D01*
X031781Y023034D01*
X031972Y023113D01*
X032118Y023259D01*
X032196Y023449D01*
X032196Y023505D01*
X032373Y023682D01*
X032373Y021352D01*
X032373Y021193D01*
X032434Y021046D01*
X033696Y019784D01*
X033750Y019730D01*
X028792Y019730D01*
X024152Y024370D01*
X024152Y024426D01*
X024073Y024616D01*
X023927Y024762D01*
X023737Y024841D01*
X023531Y024841D01*
X023340Y024762D01*
X023195Y024616D01*
X023116Y024426D01*
X023116Y024219D01*
X023195Y024029D01*
X023340Y023883D01*
X023531Y023804D01*
X023586Y023804D01*
X024629Y022762D01*
X024629Y022761D01*
X024483Y022616D01*
X024460Y022561D01*
X022726Y024296D01*
X022579Y024356D01*
X022442Y024356D01*
X022442Y025761D01*
X022442Y025367D02*
X024062Y025367D01*
X024220Y025208D02*
X022442Y025208D01*
X022442Y025050D02*
X024379Y025050D01*
X024436Y024891D02*
X022442Y024891D01*
X022442Y024733D02*
X023312Y024733D01*
X023177Y024574D02*
X022442Y024574D01*
X022442Y024416D02*
X023116Y024416D01*
X023116Y024257D02*
X022764Y024257D01*
X022922Y024099D02*
X023166Y024099D01*
X023081Y023940D02*
X023284Y023940D01*
X023240Y023782D02*
X023609Y023782D01*
X023768Y023623D02*
X023398Y023623D01*
X023557Y023464D02*
X023926Y023464D01*
X024085Y023306D02*
X023715Y023306D01*
X023874Y023147D02*
X024243Y023147D01*
X024402Y022989D02*
X024032Y022989D01*
X024191Y022830D02*
X024560Y022830D01*
X024539Y022672D02*
X024349Y022672D01*
X024922Y022322D02*
X028422Y018822D01*
X048322Y018822D01*
X048894Y018250D01*
X051654Y018250D01*
X051654Y019330D02*
X028626Y019330D01*
X023634Y024322D01*
X024090Y024574D02*
X024770Y024574D01*
X024529Y024733D02*
X023956Y024733D01*
X024152Y024416D02*
X031976Y024416D01*
X031978Y024574D02*
X031874Y024574D01*
X031570Y024574D02*
X025074Y024574D01*
X024922Y025072D02*
X031722Y025072D01*
X031353Y025722D02*
X025872Y025722D01*
X025322Y026272D01*
X025118Y026476D01*
X020519Y026476D01*
X020523Y026472D01*
X020519Y026476D02*
X020526Y026482D01*
X020519Y026791D02*
X025647Y026791D01*
X026247Y026191D01*
X030828Y026191D01*
X032018Y026902D02*
X027038Y026902D01*
X025818Y028122D01*
X023772Y028122D01*
X023071Y027421D01*
X020519Y027421D01*
X020521Y027422D01*
X020519Y027106D02*
X025681Y027106D01*
X025847Y027272D01*
X026602Y027904D02*
X028977Y027904D01*
X028668Y028062D02*
X026444Y028062D01*
X026285Y028221D02*
X028455Y028221D01*
X028286Y028379D02*
X026127Y028379D01*
X026761Y027745D02*
X032373Y027745D01*
X032373Y027587D02*
X026920Y027587D01*
X027078Y027428D02*
X032373Y027428D01*
X032373Y027270D02*
X032177Y027270D01*
X032018Y026902D02*
X032378Y026542D01*
X032378Y024252D01*
X031678Y023552D01*
X031334Y023940D02*
X024582Y023940D01*
X024740Y023782D02*
X031213Y023782D01*
X031160Y023623D02*
X024899Y023623D01*
X025058Y023464D02*
X031160Y023464D01*
X031219Y023306D02*
X025216Y023306D01*
X025375Y023147D02*
X031350Y023147D01*
X032006Y023147D02*
X032373Y023147D01*
X032373Y022989D02*
X025533Y022989D01*
X025692Y022830D02*
X032373Y022830D01*
X032373Y022672D02*
X025850Y022672D01*
X026009Y022513D02*
X032373Y022513D01*
X032373Y022355D02*
X026167Y022355D01*
X026326Y022196D02*
X032373Y022196D01*
X032373Y022038D02*
X026484Y022038D01*
X026643Y021879D02*
X032373Y021879D01*
X032373Y021721D02*
X026802Y021721D01*
X026960Y021562D02*
X032373Y021562D01*
X032373Y021403D02*
X027119Y021403D01*
X027277Y021245D02*
X032373Y021245D01*
X032417Y021086D02*
X027436Y021086D01*
X027594Y020928D02*
X032552Y020928D01*
X032711Y020769D02*
X027753Y020769D01*
X027911Y020611D02*
X032869Y020611D01*
X033028Y020452D02*
X028070Y020452D01*
X028228Y020294D02*
X033186Y020294D01*
X033345Y020135D02*
X028387Y020135D01*
X028546Y019977D02*
X033503Y019977D01*
X033662Y019818D02*
X028704Y019818D01*
X032137Y023306D02*
X032373Y023306D01*
X032373Y023464D02*
X032196Y023464D01*
X032315Y023623D02*
X032373Y023623D01*
X031818Y024257D02*
X024265Y024257D01*
X024423Y024099D02*
X031659Y024099D01*
X033664Y024733D02*
X033713Y024733D01*
X033664Y024891D02*
X033778Y024891D01*
X033664Y025050D02*
X033928Y025050D01*
X033664Y025208D02*
X047549Y025208D01*
X047549Y025050D02*
X034518Y025050D01*
X034668Y024891D02*
X047549Y024891D01*
X047549Y024733D02*
X034734Y024733D01*
X034741Y024574D02*
X047597Y024574D01*
X047598Y024572D02*
X047688Y024482D01*
X047806Y024433D01*
X048563Y024433D01*
X048680Y024482D01*
X048735Y024537D01*
X048790Y024482D01*
X048908Y024433D01*
X049665Y024433D01*
X049783Y024482D01*
X049873Y024572D01*
X049921Y024690D01*
X049921Y025604D01*
X049873Y025722D01*
X049783Y025812D01*
X049727Y025835D01*
X049727Y025991D01*
X049742Y025998D01*
X049832Y026088D01*
X049881Y026205D01*
X049881Y026923D01*
X049832Y027041D01*
X049742Y027131D01*
X049625Y027180D01*
X048907Y027180D01*
X048789Y027131D01*
X048699Y027041D01*
X048650Y026923D01*
X048650Y026205D01*
X048699Y026088D01*
X048789Y025998D01*
X048847Y025974D01*
X048847Y025835D01*
X048790Y025812D01*
X048735Y025757D01*
X048680Y025812D01*
X048624Y025835D01*
X048624Y025887D01*
X048557Y026049D01*
X048401Y026204D01*
X048401Y026361D01*
X048302Y026600D01*
X048120Y026783D01*
X047881Y026882D01*
X047622Y026882D01*
X047383Y026783D01*
X047200Y026600D01*
X047101Y026361D01*
X047101Y026103D01*
X047200Y025864D01*
X047383Y025681D01*
X047552Y025611D01*
X047549Y025604D01*
X047549Y024690D01*
X047598Y024572D01*
X047549Y025367D02*
X033664Y025367D01*
X033664Y025526D02*
X047549Y025526D01*
X047380Y025684D02*
X045454Y025684D01*
X045451Y025681D02*
X045634Y025864D01*
X045733Y026103D01*
X045733Y026361D01*
X045634Y026600D01*
X045451Y026783D01*
X045213Y026882D01*
X044954Y026882D01*
X044715Y026783D01*
X044532Y026600D01*
X044433Y026361D01*
X044433Y026103D01*
X044532Y025864D01*
X044715Y025681D01*
X044954Y025582D01*
X045213Y025582D01*
X045451Y025681D01*
X045613Y025843D02*
X047222Y025843D01*
X047144Y026001D02*
X045691Y026001D01*
X045733Y026160D02*
X047101Y026160D01*
X047101Y026318D02*
X045733Y026318D01*
X045686Y026477D02*
X047149Y026477D01*
X047235Y026635D02*
X045599Y026635D01*
X045426Y026794D02*
X047409Y026794D01*
X048094Y026794D02*
X048650Y026794D01*
X048650Y026635D02*
X048268Y026635D01*
X048354Y026477D02*
X048650Y026477D01*
X048650Y026318D02*
X048401Y026318D01*
X048446Y026160D02*
X048669Y026160D01*
X048577Y026001D02*
X048786Y026001D01*
X048847Y025843D02*
X048624Y025843D01*
X049727Y025843D02*
X051129Y025843D01*
X051119Y025859D02*
X051190Y025746D01*
X051272Y025643D01*
X051366Y025549D01*
X051470Y025466D01*
X051582Y025396D01*
X051701Y025338D01*
X051826Y025295D01*
X051956Y025265D01*
X052074Y025252D01*
X052074Y026350D01*
X052234Y026350D01*
X052234Y026510D01*
X053332Y026510D01*
X053319Y026628D01*
X053289Y026757D01*
X053246Y026882D01*
X053188Y027002D01*
X053118Y027114D01*
X053035Y027218D01*
X052941Y027311D01*
X052838Y027394D01*
X052725Y027465D01*
X052606Y027522D01*
X052481Y027566D01*
X052352Y027595D01*
X052234Y027609D01*
X052234Y026510D01*
X052074Y026510D01*
X052074Y027609D01*
X051956Y027595D01*
X051826Y027566D01*
X051701Y027522D01*
X051582Y027465D01*
X051470Y027394D01*
X051366Y027311D01*
X051272Y027218D01*
X051190Y027114D01*
X051119Y027002D01*
X051062Y026882D01*
X051018Y026757D01*
X050989Y026628D01*
X050975Y026510D01*
X052074Y026510D01*
X052074Y026350D01*
X050975Y026350D01*
X050989Y026232D01*
X051018Y026103D01*
X051062Y025978D01*
X051119Y025859D01*
X051054Y026001D02*
X049745Y026001D01*
X049862Y026160D02*
X051005Y026160D01*
X050979Y026318D02*
X049881Y026318D01*
X049881Y026477D02*
X052074Y026477D01*
X052074Y026635D02*
X052234Y026635D01*
X052234Y026477D02*
X055163Y026477D01*
X055163Y026635D02*
X053317Y026635D01*
X053277Y026794D02*
X055163Y026794D01*
X055163Y026952D02*
X053212Y026952D01*
X053120Y027111D02*
X055163Y027111D01*
X055163Y027270D02*
X052983Y027270D01*
X052784Y027428D02*
X055163Y027428D01*
X055163Y027587D02*
X052390Y027587D01*
X052234Y027587D02*
X052074Y027587D01*
X051917Y027587D02*
X049731Y027587D01*
X049729Y027578D02*
X049741Y027623D01*
X049741Y027875D01*
X049333Y027875D01*
X049333Y028010D01*
X049198Y028010D01*
X049198Y028418D01*
X048947Y028418D01*
X048901Y028405D01*
X048860Y028382D01*
X048826Y028348D01*
X048803Y028307D01*
X048790Y028261D01*
X048790Y028010D01*
X049198Y028010D01*
X049198Y027875D01*
X048790Y027875D01*
X048790Y027623D01*
X048803Y027578D01*
X048826Y027537D01*
X048860Y027503D01*
X048901Y027479D01*
X048947Y027467D01*
X049198Y027467D01*
X049198Y027874D01*
X049333Y027874D01*
X049333Y027467D01*
X049585Y027467D01*
X049630Y027479D01*
X049671Y027503D01*
X049705Y027537D01*
X049729Y027578D01*
X049741Y027745D02*
X055163Y027745D01*
X055163Y027904D02*
X049333Y027904D01*
X049333Y028010D02*
X049741Y028010D01*
X049741Y028261D01*
X049729Y028307D01*
X049705Y028348D01*
X049671Y028382D01*
X049630Y028405D01*
X049585Y028418D01*
X049333Y028418D01*
X049333Y028010D01*
X049333Y028062D02*
X049198Y028062D01*
X049198Y027904D02*
X033490Y027904D01*
X033332Y027745D02*
X048790Y027745D01*
X048800Y027587D02*
X033173Y027587D01*
X032773Y027752D02*
X034003Y028982D01*
X034485Y029172D02*
X055163Y029172D01*
X055163Y029014D02*
X034521Y029014D01*
X034511Y028855D02*
X055163Y028855D01*
X055163Y028696D02*
X034446Y028696D01*
X034284Y028538D02*
X055163Y028538D01*
X055163Y028379D02*
X049674Y028379D01*
X049741Y028221D02*
X055163Y028221D01*
X055163Y028062D02*
X049741Y028062D01*
X049333Y028221D02*
X049198Y028221D01*
X049198Y028379D02*
X049333Y028379D01*
X048857Y028379D02*
X033966Y028379D01*
X033808Y028221D02*
X048790Y028221D01*
X048790Y028062D02*
X033649Y028062D01*
X033602Y027428D02*
X051524Y027428D01*
X051324Y027270D02*
X033727Y027270D01*
X033782Y027111D02*
X048769Y027111D01*
X048662Y026952D02*
X033782Y026952D01*
X033726Y026794D02*
X044741Y026794D01*
X044567Y026635D02*
X033664Y026635D01*
X033664Y026477D02*
X044481Y026477D01*
X044433Y026318D02*
X033664Y026318D01*
X033664Y026160D02*
X044433Y026160D01*
X044475Y026001D02*
X033664Y026001D01*
X033664Y025843D02*
X044554Y025843D01*
X044712Y025684D02*
X033664Y025684D01*
X034223Y024612D02*
X033823Y024212D01*
X033823Y021702D01*
X034503Y021022D01*
X047422Y021022D01*
X047822Y021422D01*
X048970Y022570D01*
X051654Y022570D01*
X051654Y023650D02*
X049050Y023650D01*
X047322Y021922D01*
X046922Y021522D01*
X034633Y021522D01*
X034393Y021762D01*
X034393Y023892D01*
X034761Y024257D02*
X050634Y024257D01*
X050634Y024099D02*
X034869Y024099D01*
X034911Y023940D02*
X048774Y023940D01*
X048616Y023782D02*
X034908Y023782D01*
X034843Y023623D02*
X048457Y023623D01*
X048299Y023464D02*
X034793Y023464D01*
X034793Y023306D02*
X048140Y023306D01*
X047982Y023147D02*
X034793Y023147D01*
X034793Y022989D02*
X047823Y022989D01*
X047665Y022830D02*
X034793Y022830D01*
X034793Y022672D02*
X047506Y022672D01*
X047348Y022513D02*
X034793Y022513D01*
X034793Y022355D02*
X046968Y022355D01*
X046834Y022196D02*
X034793Y022196D01*
X034793Y022038D02*
X046768Y022038D01*
X047922Y020522D02*
X048322Y020922D01*
X048890Y021490D01*
X051654Y021490D01*
X051654Y020410D02*
X048822Y020410D01*
X048422Y020010D01*
X034035Y020010D01*
X032773Y021272D01*
X032773Y027752D01*
X033264Y027033D02*
X033264Y021591D01*
X034333Y020522D01*
X047922Y020522D01*
X048822Y019330D02*
X051654Y019330D01*
X053674Y019342D02*
X055163Y019342D01*
X055163Y019184D02*
X053674Y019184D01*
X053674Y019025D02*
X055163Y019025D01*
X055163Y018867D02*
X053674Y018867D01*
X053674Y018708D02*
X055163Y018708D01*
X055163Y018550D02*
X053674Y018550D01*
X053674Y018391D02*
X055163Y018391D01*
X055163Y018233D02*
X053674Y018233D01*
X053674Y018074D02*
X055163Y018074D01*
X055163Y017915D02*
X053674Y017915D01*
X053674Y017757D02*
X055163Y017757D01*
X055163Y017598D02*
X053674Y017598D01*
X053674Y017440D02*
X055163Y017440D01*
X055163Y017281D02*
X053674Y017281D01*
X053674Y017123D02*
X055163Y017123D01*
X055163Y016964D02*
X053674Y016964D01*
X053674Y016806D02*
X055163Y016806D01*
X055163Y016647D02*
X053674Y016647D01*
X053674Y016489D02*
X055163Y016489D01*
X055163Y016330D02*
X053674Y016330D01*
X053674Y016171D02*
X055163Y016171D01*
X055163Y016013D02*
X053674Y016013D01*
X053674Y015854D02*
X055163Y015854D01*
X055163Y015696D02*
X053674Y015696D01*
X053674Y015537D02*
X055163Y015537D01*
X055163Y015379D02*
X053670Y015379D01*
X053576Y015220D02*
X055163Y015220D01*
X055163Y015062D02*
X047858Y015062D01*
X047878Y015112D02*
X047878Y015333D01*
X047794Y015537D01*
X047659Y015672D01*
X047794Y015807D01*
X047878Y016012D01*
X047878Y016233D01*
X047794Y016437D01*
X047637Y016594D01*
X047433Y016678D01*
X047212Y016678D01*
X047035Y016605D01*
X046926Y016650D01*
X046720Y016650D01*
X046530Y016571D01*
X046384Y016426D01*
X046305Y016235D01*
X046305Y016029D01*
X046380Y015848D01*
X046325Y015715D01*
X046325Y015509D01*
X046404Y015319D01*
X046550Y015173D01*
X046740Y015094D01*
X046773Y015094D01*
X046851Y014907D01*
X047007Y014751D01*
X047212Y014666D01*
X047433Y014666D01*
X047637Y014751D01*
X047794Y014907D01*
X047878Y015112D01*
X047878Y015220D02*
X050731Y015220D01*
X050637Y015379D02*
X047859Y015379D01*
X047794Y015537D02*
X050634Y015537D01*
X051470Y014274D02*
X051366Y014191D01*
X051272Y014098D01*
X051190Y013994D01*
X051119Y013882D01*
X051062Y013762D01*
X051018Y013637D01*
X050989Y013508D01*
X050975Y013390D01*
X052074Y013390D01*
X052074Y014489D01*
X051956Y014475D01*
X051826Y014446D01*
X051701Y014402D01*
X051582Y014345D01*
X051470Y014274D01*
X051463Y014269D02*
X036215Y014269D01*
X036215Y014428D02*
X051774Y014428D01*
X052074Y014428D02*
X052234Y014428D01*
X052234Y014489D02*
X052234Y013390D01*
X053332Y013390D01*
X053319Y013508D01*
X053289Y013637D01*
X053246Y013762D01*
X053188Y013882D01*
X053118Y013994D01*
X053035Y014098D01*
X052941Y014191D01*
X052838Y014274D01*
X052725Y014345D01*
X052606Y014402D01*
X052481Y014446D01*
X052352Y014475D01*
X052234Y014489D01*
X052234Y014269D02*
X052074Y014269D01*
X052074Y014110D02*
X052234Y014110D01*
X052234Y013952D02*
X052074Y013952D01*
X052074Y013793D02*
X052234Y013793D01*
X052234Y013635D02*
X052074Y013635D01*
X052074Y013476D02*
X052234Y013476D01*
X052234Y013390D02*
X052074Y013390D01*
X052074Y013230D01*
X052234Y013230D01*
X052234Y013390D01*
X052234Y013318D02*
X055163Y013318D01*
X055163Y013476D02*
X053322Y013476D01*
X053290Y013635D02*
X055163Y013635D01*
X055163Y013793D02*
X053231Y013793D01*
X053144Y013952D02*
X055163Y013952D01*
X055163Y014110D02*
X053022Y014110D01*
X052844Y014269D02*
X055163Y014269D01*
X055163Y014428D02*
X052533Y014428D01*
X052074Y013318D02*
X036215Y013318D01*
X036215Y013476D02*
X050985Y013476D01*
X051017Y013635D02*
X036215Y013635D01*
X036215Y013793D02*
X051077Y013793D01*
X051163Y013952D02*
X036215Y013952D01*
X036215Y014110D02*
X051285Y014110D01*
X050975Y013230D02*
X050989Y013112D01*
X051018Y012983D01*
X051062Y012858D01*
X051119Y012739D01*
X051190Y012626D01*
X051272Y012523D01*
X051366Y012429D01*
X051470Y012346D01*
X051582Y012276D01*
X051701Y012218D01*
X051826Y012175D01*
X051956Y012145D01*
X052074Y012132D01*
X052074Y013230D01*
X050975Y013230D01*
X050983Y013159D02*
X039285Y013159D01*
X039456Y013001D02*
X051014Y013001D01*
X051069Y012842D02*
X039521Y012842D01*
X039533Y012684D02*
X044142Y012684D01*
X043983Y012525D02*
X039499Y012525D01*
X039415Y012366D02*
X043911Y012366D01*
X043872Y012208D02*
X039415Y012208D01*
X039415Y012049D02*
X043872Y012049D01*
X043902Y011891D02*
X039415Y011891D01*
X039415Y011732D02*
X043902Y011732D01*
X043902Y011574D02*
X039415Y011574D01*
X039415Y011415D02*
X043902Y011415D01*
X043902Y011257D02*
X039415Y011257D01*
X039415Y011098D02*
X043902Y011098D01*
X043902Y010940D02*
X043409Y010940D01*
X043555Y010781D02*
X043902Y010781D01*
X043902Y010622D02*
X043668Y010622D01*
X043867Y010464D02*
X043902Y010464D01*
X043422Y010193D02*
X043108Y010508D01*
X043422Y010193D02*
X043422Y010122D01*
X043087Y009671D02*
X042658Y009671D01*
X042655Y009669D02*
X042794Y009807D01*
X042872Y009997D01*
X042951Y009807D01*
X043107Y009651D01*
X043312Y009566D01*
X043533Y009566D01*
X043737Y009651D01*
X043894Y009807D01*
X043902Y009828D01*
X043902Y008713D01*
X042655Y008713D01*
X042655Y009669D01*
X042655Y009513D02*
X043902Y009513D01*
X043902Y009671D02*
X043758Y009671D01*
X043902Y009354D02*
X042655Y009354D01*
X042655Y009196D02*
X043902Y009196D01*
X043902Y009037D02*
X042655Y009037D01*
X042655Y008879D02*
X043902Y008879D01*
X043902Y008720D02*
X042655Y008720D01*
X042255Y007693D02*
X042255Y010055D01*
X042322Y010122D01*
X041796Y010305D02*
X041748Y010305D01*
X041667Y010464D02*
X041877Y010464D01*
X042077Y010622D02*
X041468Y010622D01*
X040977Y010622D02*
X040368Y010622D01*
X040567Y010464D02*
X040777Y010464D01*
X040696Y010305D02*
X040648Y010305D01*
X040122Y010122D02*
X040095Y010095D01*
X040095Y007693D01*
X039015Y007693D02*
X039015Y010122D01*
X038922Y010122D01*
X039015Y010122D02*
X039015Y012710D01*
X038531Y012525D02*
X036215Y012525D01*
X036215Y012684D02*
X038497Y012684D01*
X038509Y012842D02*
X036215Y012842D01*
X036215Y013001D02*
X038575Y013001D01*
X038745Y013159D02*
X036215Y013159D01*
X036215Y012366D02*
X038615Y012366D01*
X038615Y012208D02*
X036215Y012208D01*
X036215Y012049D02*
X038615Y012049D01*
X038615Y011891D02*
X036215Y011891D01*
X036215Y011732D02*
X038615Y011732D01*
X038615Y011574D02*
X036215Y011574D01*
X036215Y011415D02*
X038615Y011415D01*
X038615Y011257D02*
X036215Y011257D01*
X036215Y011098D02*
X038615Y011098D01*
X038615Y010940D02*
X036215Y010940D01*
X036215Y010781D02*
X038615Y010781D01*
X038615Y010622D02*
X036215Y010622D01*
X036803Y010464D02*
X038477Y010464D01*
X038396Y010305D02*
X036961Y010305D01*
X037120Y010147D02*
X038366Y010147D01*
X038376Y009988D02*
X037249Y009988D01*
X037295Y009830D02*
X038441Y009830D01*
X038587Y009671D02*
X037295Y009671D01*
X037295Y009513D02*
X038615Y009513D01*
X038615Y009354D02*
X037295Y009354D01*
X037295Y009196D02*
X038615Y009196D01*
X038615Y009037D02*
X037295Y009037D01*
X037295Y008879D02*
X038615Y008879D01*
X038615Y008720D02*
X037295Y008720D01*
X035335Y008720D02*
X015530Y008720D01*
X015530Y008713D02*
X015530Y009064D01*
X016146Y009064D01*
X016319Y009136D01*
X016440Y009136D01*
X016558Y009185D01*
X016648Y009275D01*
X016696Y009392D01*
X016696Y010150D01*
X016648Y010267D01*
X016558Y010357D01*
X016459Y010398D01*
X016487Y010414D01*
X016521Y010448D01*
X016544Y010489D01*
X016556Y010535D01*
X016556Y010796D01*
X016100Y010796D01*
X016100Y010951D01*
X016556Y010951D01*
X016556Y011212D01*
X016544Y011258D01*
X016521Y011299D01*
X016487Y011332D01*
X016446Y011356D01*
X016400Y011368D01*
X016100Y011368D01*
X016100Y010951D01*
X015945Y010951D01*
X015945Y011368D01*
X015644Y011368D01*
X015598Y011356D01*
X015557Y011332D01*
X015524Y011299D01*
X015500Y011258D01*
X015488Y011212D01*
X015488Y010951D01*
X015944Y010951D01*
X015944Y010796D01*
X015488Y010796D01*
X015488Y010535D01*
X015500Y010489D01*
X015524Y010448D01*
X015557Y010414D01*
X015585Y010398D01*
X015487Y010357D01*
X015433Y010304D01*
X015112Y010304D01*
X015040Y010334D01*
X014781Y010334D01*
X014542Y010235D01*
X014359Y010052D01*
X014260Y009813D01*
X014260Y009555D01*
X014290Y009482D01*
X014290Y007851D01*
X014274Y007877D01*
X014191Y007981D01*
X014098Y008074D01*
X013994Y008157D01*
X013882Y008227D01*
X013762Y008285D01*
X013637Y008329D01*
X013508Y008358D01*
X013390Y008371D01*
X013390Y007273D01*
X013230Y007273D01*
X013230Y007113D01*
X012132Y007113D01*
X012145Y006995D01*
X012175Y006866D01*
X012218Y006741D01*
X012276Y006621D01*
X012346Y006509D01*
X012429Y006406D01*
X012523Y006312D01*
X012626Y006229D01*
X012739Y006159D01*
X012858Y006101D01*
X012983Y006057D01*
X013112Y006028D01*
X013230Y006015D01*
X013230Y007113D01*
X013390Y007113D01*
X013390Y006015D01*
X013508Y006028D01*
X013637Y006057D01*
X013762Y006101D01*
X013882Y006159D01*
X013994Y006229D01*
X014098Y006312D01*
X014191Y006406D01*
X014274Y006509D01*
X014290Y006535D01*
X014290Y005657D01*
X014290Y005411D01*
X014385Y005183D01*
X014997Y004571D01*
X015171Y004397D01*
X015399Y004302D01*
X016599Y004302D01*
X016846Y004302D01*
X017073Y004397D01*
X017848Y005171D01*
X017942Y005399D01*
X017942Y005646D01*
X017931Y005673D01*
X024354Y005673D01*
X024471Y005722D01*
X024561Y005812D01*
X024610Y005929D01*
X024610Y008457D01*
X024561Y008574D01*
X024471Y008664D01*
X024354Y008713D01*
X015530Y008713D01*
X015530Y008879D02*
X035335Y008879D01*
X035335Y009037D02*
X015530Y009037D01*
X016569Y009196D02*
X035335Y009196D01*
X035335Y009354D02*
X016681Y009354D01*
X016696Y009513D02*
X035335Y009513D01*
X035335Y009671D02*
X016696Y009671D01*
X016696Y009830D02*
X035241Y009830D01*
X035176Y009988D02*
X016696Y009988D01*
X016696Y010147D02*
X035166Y010147D01*
X035196Y010305D02*
X016610Y010305D01*
X016530Y010464D02*
X035277Y010464D01*
X035335Y010622D02*
X016556Y010622D01*
X016556Y010781D02*
X035335Y010781D01*
X035335Y010940D02*
X016100Y010940D01*
X015944Y010940D02*
X004262Y010940D01*
X004262Y011098D02*
X015488Y011098D01*
X015500Y011257D02*
X004262Y011257D01*
X004262Y011415D02*
X035335Y011415D01*
X035335Y011257D02*
X016545Y011257D01*
X016556Y011098D02*
X035335Y011098D01*
X035335Y011574D02*
X004262Y011574D01*
X004262Y011732D02*
X023099Y011732D01*
X022932Y011891D02*
X004262Y011891D01*
X004262Y012049D02*
X022872Y012049D01*
X022872Y012208D02*
X007615Y012208D01*
X007902Y012366D02*
X022872Y012366D01*
X022872Y012525D02*
X008076Y012525D01*
X008193Y012684D02*
X022872Y012684D01*
X022927Y012842D02*
X008277Y012842D01*
X008333Y013001D02*
X023076Y013001D01*
X023347Y013159D02*
X008363Y013159D01*
X008362Y013476D02*
X023925Y013476D01*
X023930Y013452D02*
X023913Y013445D01*
X023909Y013442D01*
X023740Y013367D01*
X023663Y013335D01*
X023659Y013332D01*
X023655Y013330D01*
X023930Y013452D02*
X023909Y013572D01*
X023982Y013987D01*
X024192Y014352D01*
X024515Y014623D01*
X024911Y014767D01*
X025333Y014767D01*
X025729Y014623D01*
X025751Y014605D01*
X025764Y014637D01*
X025794Y014713D01*
X025797Y014717D01*
X025799Y014721D01*
X025858Y014781D01*
X025915Y014840D01*
X025919Y014842D01*
X025923Y014845D01*
X026000Y014877D01*
X026169Y014952D01*
X026173Y014955D01*
X026250Y014987D01*
X026325Y015020D01*
X026330Y015020D01*
X026335Y015022D01*
X026417Y015022D01*
X026500Y015024D01*
X026515Y015040D01*
X026519Y015042D01*
X026523Y015045D01*
X026600Y015077D01*
X026769Y015152D01*
X026773Y015155D01*
X026850Y015187D01*
X026925Y015220D01*
X026930Y015220D01*
X027114Y015220D02*
X035335Y015220D01*
X035335Y015062D02*
X027366Y015062D01*
X027450Y014903D02*
X035335Y014903D01*
X035335Y014745D02*
X027463Y014745D01*
X027462Y014586D02*
X035335Y014586D01*
X035335Y014428D02*
X027462Y014428D01*
X027463Y014269D02*
X035335Y014269D01*
X035335Y014110D02*
X027427Y014110D01*
X027315Y013952D02*
X035335Y013952D01*
X035335Y013793D02*
X027007Y013793D01*
X026498Y013635D02*
X035335Y013635D01*
X035335Y013476D02*
X026319Y013476D01*
X025822Y014745D02*
X025396Y014745D01*
X024849Y014745D02*
X021264Y014745D01*
X021264Y014696D02*
X021264Y014947D01*
X021252Y014993D01*
X021228Y015034D01*
X021194Y015068D01*
X021153Y015091D01*
X021108Y015104D01*
X020856Y015104D01*
X020856Y014696D01*
X020721Y014696D01*
X020721Y014561D01*
X020313Y014561D01*
X020313Y014309D01*
X020326Y014264D01*
X020349Y014223D01*
X020383Y014189D01*
X020424Y014165D01*
X020470Y014153D01*
X020721Y014153D01*
X020721Y014561D01*
X020856Y014561D01*
X020856Y014153D01*
X021108Y014153D01*
X021153Y014165D01*
X021194Y014189D01*
X021228Y014223D01*
X021252Y014264D01*
X021264Y014309D01*
X021264Y014561D01*
X020856Y014561D01*
X020856Y014696D01*
X021264Y014696D01*
X021264Y014903D02*
X026059Y014903D01*
X026563Y015062D02*
X021200Y015062D01*
X020856Y015062D02*
X020721Y015062D01*
X020721Y015104D02*
X020470Y015104D01*
X020424Y015091D01*
X020383Y015068D01*
X020349Y015034D01*
X020326Y014993D01*
X020313Y014947D01*
X020313Y014696D01*
X020721Y014696D01*
X020721Y015104D01*
X020721Y014903D02*
X020856Y014903D01*
X020856Y014745D02*
X020721Y014745D01*
X020721Y014586D02*
X019368Y014586D01*
X019368Y014561D02*
X019368Y014696D01*
X019775Y014696D01*
X019775Y014947D01*
X019763Y014993D01*
X019739Y015034D01*
X019706Y015068D01*
X019665Y015091D01*
X019619Y015104D01*
X019368Y015104D01*
X019368Y014696D01*
X019232Y014696D01*
X019232Y014561D01*
X018825Y014561D01*
X018825Y014309D01*
X018837Y014264D01*
X018861Y014223D01*
X018894Y014189D01*
X018935Y014165D01*
X018981Y014153D01*
X019232Y014153D01*
X019232Y014561D01*
X019368Y014561D01*
X019775Y014561D01*
X019775Y014309D01*
X019763Y014264D01*
X019739Y014223D01*
X019706Y014189D01*
X019665Y014165D01*
X019619Y014153D01*
X019368Y014153D01*
X019368Y014561D01*
X019368Y014428D02*
X019232Y014428D01*
X019232Y014586D02*
X017756Y014586D01*
X017756Y014561D02*
X017756Y014696D01*
X018163Y014696D01*
X018163Y014947D01*
X018151Y014993D01*
X018127Y015034D01*
X018094Y015068D01*
X018053Y015091D01*
X018007Y015104D01*
X017756Y015104D01*
X017756Y014696D01*
X017620Y014696D01*
X017620Y014561D01*
X017213Y014561D01*
X017213Y014309D01*
X017225Y014264D01*
X017249Y014223D01*
X017282Y014189D01*
X017323Y014165D01*
X017369Y014153D01*
X017620Y014153D01*
X017620Y014561D01*
X017756Y014561D01*
X018163Y014561D01*
X018163Y014309D01*
X018151Y014264D01*
X018127Y014223D01*
X018094Y014189D01*
X018053Y014165D01*
X018007Y014153D01*
X017756Y014153D01*
X017756Y014561D01*
X017756Y014428D02*
X017620Y014428D01*
X017620Y014586D02*
X016183Y014586D01*
X016183Y014561D02*
X016183Y014696D01*
X016590Y014696D01*
X016590Y014947D01*
X016578Y014993D01*
X016554Y015034D01*
X016521Y015068D01*
X016480Y015091D01*
X016434Y015104D01*
X016182Y015104D01*
X016182Y014696D01*
X016047Y014696D01*
X016047Y014561D01*
X015640Y014561D01*
X015640Y014309D01*
X015652Y014264D01*
X015675Y014223D01*
X015709Y014189D01*
X015750Y014165D01*
X015796Y014153D01*
X016047Y014153D01*
X016047Y014561D01*
X016182Y014561D01*
X016182Y014153D01*
X016434Y014153D01*
X016480Y014165D01*
X016521Y014189D01*
X016554Y014223D01*
X016578Y014264D01*
X016590Y014309D01*
X016590Y014561D01*
X016183Y014561D01*
X016182Y014428D02*
X016047Y014428D01*
X016047Y014586D02*
X004262Y014586D01*
X004262Y014745D02*
X015640Y014745D01*
X015640Y014696D02*
X016047Y014696D01*
X016047Y015104D01*
X015796Y015104D01*
X015750Y015091D01*
X015709Y015068D01*
X015675Y015034D01*
X015652Y014993D01*
X015640Y014947D01*
X015640Y014696D01*
X015640Y014903D02*
X004262Y014903D01*
X004262Y015062D02*
X015703Y015062D01*
X016047Y015062D02*
X016182Y015062D01*
X016182Y014903D02*
X016047Y014903D01*
X016047Y014745D02*
X016182Y014745D01*
X016590Y014745D02*
X017213Y014745D01*
X017213Y014696D02*
X017620Y014696D01*
X017620Y015104D01*
X017369Y015104D01*
X017323Y015091D01*
X017282Y015068D01*
X017249Y015034D01*
X017225Y014993D01*
X017213Y014947D01*
X017213Y014696D01*
X017213Y014903D02*
X016590Y014903D01*
X016527Y015062D02*
X017276Y015062D01*
X017620Y015062D02*
X017756Y015062D01*
X017756Y014903D02*
X017620Y014903D01*
X017620Y014745D02*
X017756Y014745D01*
X018163Y014745D02*
X018825Y014745D01*
X018825Y014696D02*
X019232Y014696D01*
X019232Y015104D01*
X018981Y015104D01*
X018935Y015091D01*
X018894Y015068D01*
X018861Y015034D01*
X018837Y014993D01*
X018825Y014947D01*
X018825Y014696D01*
X018825Y014903D02*
X018163Y014903D01*
X018100Y015062D02*
X018888Y015062D01*
X019232Y015062D02*
X019368Y015062D01*
X019368Y014903D02*
X019232Y014903D01*
X019232Y014745D02*
X019368Y014745D01*
X019775Y014745D02*
X020313Y014745D01*
X020313Y014903D02*
X019775Y014903D01*
X019712Y015062D02*
X020377Y015062D01*
X020219Y015537D02*
X019870Y015537D01*
X019915Y015696D02*
X020173Y015696D01*
X020173Y015854D02*
X019915Y015854D01*
X019915Y016013D02*
X020173Y016013D01*
X020173Y016171D02*
X019915Y016171D01*
X019915Y016330D02*
X020173Y016330D01*
X020228Y016489D02*
X019861Y016489D01*
X019964Y016647D02*
X020124Y016647D01*
X020075Y016806D02*
X020014Y016806D01*
X020014Y016964D02*
X020075Y016964D01*
X020075Y017123D02*
X020014Y017123D01*
X020014Y017281D02*
X020075Y017281D01*
X020075Y017440D02*
X020014Y017440D01*
X019982Y017598D02*
X020106Y017598D01*
X020121Y017757D02*
X019968Y017757D01*
X020014Y017915D02*
X020075Y017915D01*
X020075Y018074D02*
X020014Y018074D01*
X020014Y018233D02*
X020075Y018233D01*
X020075Y018391D02*
X020014Y018391D01*
X020014Y018550D02*
X020075Y018550D01*
X020109Y018708D02*
X019979Y018708D01*
X020093Y018867D02*
X019793Y018867D01*
X019935Y019025D02*
X019516Y019025D01*
X019357Y019184D02*
X019776Y019184D01*
X019617Y019342D02*
X019199Y019342D01*
X019040Y019501D02*
X019459Y019501D01*
X019300Y019659D02*
X018882Y019659D01*
X018723Y019818D02*
X019142Y019818D01*
X018983Y019977D02*
X018565Y019977D01*
X018003Y019972D02*
X013103Y019972D01*
X012053Y021022D01*
X012053Y023622D01*
X012388Y023956D01*
X014378Y023956D01*
X014378Y023641D02*
X012723Y023641D01*
X012503Y023422D01*
X012503Y021272D01*
X013353Y020422D01*
X019103Y020422D01*
X020789Y018737D01*
X020789Y018246D01*
X020789Y017144D02*
X020789Y016006D01*
X020856Y014586D02*
X024471Y014586D01*
X024282Y014428D02*
X021264Y014428D01*
X021253Y014269D02*
X024144Y014269D01*
X024053Y014110D02*
X008062Y014110D01*
X008184Y013952D02*
X023975Y013952D01*
X023948Y013793D02*
X008270Y013793D01*
X008329Y013635D02*
X023920Y013635D01*
X024554Y012366D02*
X025502Y012366D01*
X025541Y012208D02*
X024423Y012208D01*
X024066Y012049D02*
X025689Y012049D01*
X026692Y012049D02*
X026745Y012049D01*
X027122Y012049D02*
X027193Y012049D01*
X027865Y012049D02*
X028482Y012049D01*
X028458Y012059D02*
X028596Y012002D01*
X028745Y012002D01*
X028883Y012059D01*
X028988Y012165D01*
X028992Y012175D01*
X028997Y012165D01*
X029102Y012059D01*
X029240Y012002D01*
X029389Y012002D01*
X029527Y012059D01*
X029632Y012165D01*
X029738Y012059D01*
X029876Y012002D01*
X030025Y012002D01*
X030320Y012002D01*
X030458Y012059D01*
X030469Y012071D01*
X030481Y012059D01*
X030619Y012002D01*
X030768Y012002D01*
X030810Y012020D01*
X030851Y012002D01*
X031001Y012002D01*
X031123Y012053D01*
X031245Y012002D01*
X031394Y012002D01*
X031494Y012044D01*
X031594Y012002D01*
X031743Y012002D01*
X032039Y012002D01*
X032090Y012023D01*
X032140Y012002D01*
X032290Y012002D01*
X032313Y012012D01*
X032337Y012002D01*
X032486Y012002D01*
X032510Y012012D01*
X032534Y012002D01*
X032683Y012002D01*
X032821Y012059D01*
X032927Y012165D01*
X032984Y012303D01*
X032984Y012747D01*
X032927Y012885D01*
X032821Y012990D01*
X032723Y013089D01*
X032585Y013146D01*
X032436Y013146D01*
X032412Y013136D01*
X032388Y013146D01*
X032239Y013146D01*
X032140Y013146D01*
X032040Y013104D01*
X031940Y013146D01*
X031791Y013146D01*
X031594Y013146D01*
X031456Y013089D01*
X031445Y013077D01*
X031434Y013089D01*
X031296Y013146D01*
X031258Y013146D01*
X031244Y013180D01*
X031138Y013286D01*
X031001Y013343D01*
X030851Y013343D01*
X030714Y013286D01*
X030671Y013243D01*
X030669Y013244D01*
X030520Y013244D01*
X030382Y013187D01*
X030306Y013111D01*
X030222Y013146D01*
X030072Y013146D01*
X029876Y013146D01*
X029780Y013106D01*
X029684Y013146D01*
X029437Y013146D01*
X029413Y013136D01*
X029389Y013146D01*
X029318Y013146D01*
X029315Y013149D01*
X029276Y013187D01*
X029245Y013219D01*
X029178Y013286D01*
X029135Y013303D01*
X029040Y013343D01*
X028891Y013343D01*
X028596Y013343D01*
X028458Y013286D01*
X028352Y013180D01*
X028295Y013042D01*
X028295Y012893D01*
X028295Y012649D01*
X028295Y012499D01*
X028295Y012303D01*
X028352Y012165D01*
X028458Y012059D01*
X028334Y012208D02*
X028037Y012208D01*
X027987Y012158D02*
X027987Y012158D01*
X027889Y012059D02*
X027889Y012059D01*
X027889Y012059D01*
X028093Y012263D02*
X028093Y012263D01*
X028093Y012263D01*
X028135Y012366D02*
X028295Y012366D01*
X028295Y012525D02*
X028150Y012525D01*
X028144Y012684D02*
X028295Y012684D01*
X028295Y012842D02*
X028150Y012842D01*
X028150Y012944D02*
X028150Y012944D01*
X028126Y013001D02*
X028295Y013001D01*
X028344Y013159D02*
X028015Y013159D01*
X027987Y013187D02*
X027987Y013187D01*
X027889Y013286D02*
X027889Y013286D01*
X027889Y013286D01*
X027811Y013318D02*
X028535Y013318D01*
X028093Y013082D02*
X028093Y013082D01*
X028093Y013082D01*
X027751Y013343D02*
X027751Y013343D01*
X029040Y013343D02*
X029040Y013343D01*
X029100Y013318D02*
X030791Y013318D01*
X031061Y013318D02*
X035335Y013318D01*
X035335Y013159D02*
X031253Y013159D01*
X030354Y013159D02*
X029304Y013159D01*
X029276Y013187D02*
X029276Y013187D01*
X029178Y013286D02*
X029178Y013286D01*
X029178Y013286D01*
X029437Y013146D02*
X029437Y013146D01*
X029503Y012049D02*
X029762Y012049D01*
X029126Y012049D02*
X028859Y012049D01*
X030434Y012049D02*
X030505Y012049D01*
X031114Y012049D02*
X031131Y012049D01*
X032797Y012049D02*
X035335Y012049D01*
X035335Y011891D02*
X023791Y011891D01*
X023521Y011732D02*
X035335Y011732D01*
X035335Y012208D02*
X032944Y012208D01*
X032984Y012366D02*
X035335Y012366D01*
X035335Y012525D02*
X032984Y012525D01*
X032984Y012684D02*
X035335Y012684D01*
X035335Y012842D02*
X032944Y012842D01*
X032811Y013001D02*
X035335Y013001D01*
X036215Y014586D02*
X055163Y014586D01*
X055163Y014745D02*
X047623Y014745D01*
X047790Y014903D02*
X055163Y014903D01*
X055163Y013159D02*
X053324Y013159D01*
X053319Y013112D02*
X053332Y013230D01*
X052234Y013230D01*
X052234Y012132D01*
X052352Y012145D01*
X052481Y012175D01*
X052606Y012218D01*
X052725Y012276D01*
X052838Y012346D01*
X052941Y012429D01*
X053035Y012523D01*
X053118Y012626D01*
X053188Y012739D01*
X053246Y012858D01*
X053289Y012983D01*
X053319Y013112D01*
X053293Y013001D02*
X055163Y013001D01*
X055163Y012842D02*
X053238Y012842D01*
X053154Y012684D02*
X055163Y012684D01*
X055163Y012525D02*
X053037Y012525D01*
X052863Y012366D02*
X055163Y012366D01*
X055163Y012208D02*
X052576Y012208D01*
X052234Y012208D02*
X052074Y012208D01*
X052074Y012366D02*
X052234Y012366D01*
X052234Y012525D02*
X052074Y012525D01*
X052074Y012684D02*
X052234Y012684D01*
X052234Y012842D02*
X052074Y012842D01*
X052074Y013001D02*
X052234Y013001D01*
X052234Y013159D02*
X052074Y013159D01*
X051271Y012525D02*
X046990Y012525D01*
X046990Y012366D02*
X051445Y012366D01*
X051731Y012208D02*
X046573Y012208D01*
X046573Y012366D02*
X046418Y012366D01*
X046418Y012525D02*
X046573Y012525D01*
X046573Y012049D02*
X046418Y012049D01*
X046418Y011891D02*
X046573Y011891D01*
X046573Y011732D02*
X046418Y011732D01*
X045944Y011574D02*
X055163Y011574D01*
X055163Y011732D02*
X046981Y011732D01*
X046990Y011891D02*
X055163Y011891D01*
X055163Y012049D02*
X046990Y012049D01*
X045976Y012684D02*
X051154Y012684D01*
X048761Y015696D02*
X047682Y015696D01*
X047813Y015854D02*
X048524Y015854D01*
X048366Y016013D02*
X047878Y016013D01*
X047878Y016171D02*
X048207Y016171D01*
X048049Y016330D02*
X047838Y016330D01*
X047890Y016489D02*
X047742Y016489D01*
X047732Y016647D02*
X047508Y016647D01*
X047573Y016806D02*
X036286Y016806D01*
X036293Y016964D02*
X047414Y016964D01*
X047074Y017123D02*
X036254Y017123D01*
X036221Y016647D02*
X046713Y016647D01*
X046934Y016647D02*
X047136Y016647D01*
X047312Y016132D02*
X046823Y016132D01*
X047312Y016132D02*
X047322Y016122D01*
X046843Y015612D02*
X047233Y015222D01*
X047322Y015222D01*
X046787Y015062D02*
X036215Y015062D01*
X036215Y015220D02*
X046503Y015220D01*
X046379Y015379D02*
X036215Y015379D01*
X036215Y015537D02*
X046325Y015537D01*
X046325Y015696D02*
X036215Y015696D01*
X036215Y015854D02*
X046378Y015854D01*
X046312Y016013D02*
X036215Y016013D01*
X036215Y016171D02*
X046305Y016171D01*
X046344Y016330D02*
X036215Y016330D01*
X036215Y016489D02*
X046447Y016489D01*
X046855Y014903D02*
X036215Y014903D01*
X036215Y014745D02*
X047022Y014745D01*
X045142Y011415D02*
X055163Y011415D01*
X055163Y011257D02*
X045142Y011257D01*
X045142Y011098D02*
X055163Y011098D01*
X055163Y010940D02*
X045142Y010940D01*
X045142Y010781D02*
X055163Y010781D01*
X055163Y010622D02*
X045142Y010622D01*
X045142Y010464D02*
X055163Y010464D01*
X055163Y010305D02*
X045158Y010305D01*
X045172Y010147D02*
X055163Y010147D01*
X055163Y009988D02*
X045162Y009988D01*
X045142Y009830D02*
X055163Y009830D01*
X055163Y009671D02*
X045142Y009671D01*
X045142Y009513D02*
X055163Y009513D01*
X055163Y009354D02*
X045142Y009354D01*
X045142Y009196D02*
X055163Y009196D01*
X055163Y009037D02*
X045142Y009037D01*
X045142Y008879D02*
X055163Y008879D01*
X055163Y008720D02*
X045142Y008720D01*
X045142Y008561D02*
X055163Y008561D01*
X055163Y008403D02*
X045142Y008403D01*
X045142Y008244D02*
X045579Y008244D01*
X045342Y008086D02*
X045142Y008086D01*
X045142Y007927D02*
X045191Y007927D01*
X046035Y007927D02*
X046195Y007927D01*
X046195Y007769D02*
X046035Y007769D01*
X046035Y007610D02*
X046195Y007610D01*
X046195Y007452D02*
X046035Y007452D01*
X046035Y007293D02*
X046195Y007293D01*
X046195Y007273D02*
X046195Y008371D01*
X046313Y008358D01*
X046442Y008329D01*
X046568Y008285D01*
X046687Y008227D01*
X046799Y008157D01*
X046903Y008074D01*
X046996Y007981D01*
X047079Y007877D01*
X047150Y007765D01*
X047207Y007645D01*
X047251Y007520D01*
X047280Y007391D01*
X047294Y007273D01*
X046195Y007273D01*
X046195Y007135D02*
X051684Y007135D01*
X051594Y006976D02*
X047276Y006976D01*
X047234Y006817D02*
X051522Y006817D01*
X051467Y006659D02*
X047168Y006659D01*
X047072Y006500D02*
X051425Y006500D01*
X051398Y006342D02*
X046933Y006342D01*
X046726Y006183D02*
X051384Y006183D01*
X051395Y005866D02*
X045142Y005866D01*
X045142Y005708D02*
X051421Y005708D01*
X051459Y005549D02*
X045122Y005549D01*
X045056Y005391D02*
X051513Y005391D01*
X051582Y005232D02*
X044909Y005232D01*
X044873Y005197D02*
X044873Y005197D01*
X044750Y005073D02*
X051668Y005073D01*
X051776Y004915D02*
X044592Y004915D01*
X044448Y004771D02*
X044448Y004771D01*
X044433Y004756D02*
X051909Y004756D01*
X052078Y004598D02*
X044275Y004598D01*
X045142Y006025D02*
X045946Y006025D01*
X046035Y006025D02*
X046195Y006025D01*
X046285Y006025D02*
X053255Y006025D01*
X053255Y006183D02*
X053415Y006183D01*
X053415Y006342D02*
X053255Y006342D01*
X053255Y006500D02*
X053415Y006500D01*
X053415Y006659D02*
X053255Y006659D01*
X053255Y006817D02*
X053415Y006817D01*
X053415Y006976D02*
X053255Y006976D01*
X053255Y007135D02*
X053415Y007135D01*
X053415Y007293D02*
X053255Y007293D01*
X053255Y007452D02*
X053415Y007452D01*
X053415Y007610D02*
X053255Y007610D01*
X053255Y007769D02*
X053415Y007769D01*
X053415Y007927D02*
X053255Y007927D01*
X052674Y007927D02*
X047039Y007927D01*
X047147Y007769D02*
X052338Y007769D01*
X052109Y007610D02*
X047219Y007610D01*
X047267Y007452D02*
X051936Y007452D01*
X051796Y007293D02*
X047291Y007293D01*
X046888Y008086D02*
X055163Y008086D01*
X055163Y008244D02*
X046652Y008244D01*
X046195Y008244D02*
X046035Y008244D01*
X046035Y008086D02*
X046195Y008086D01*
X046195Y006976D02*
X046035Y006976D01*
X046035Y006817D02*
X046195Y006817D01*
X046195Y006659D02*
X046035Y006659D01*
X046035Y006500D02*
X046195Y006500D01*
X046195Y006342D02*
X046035Y006342D01*
X046035Y006183D02*
X046195Y006183D01*
X045504Y006183D02*
X045142Y006183D01*
X045142Y006342D02*
X045298Y006342D01*
X045158Y006500D02*
X045142Y006500D01*
X042941Y009830D02*
X042803Y009830D01*
X042869Y009988D02*
X042876Y009988D01*
X042595Y010622D02*
X042568Y010622D01*
X042660Y010781D02*
X039415Y010781D01*
X039415Y010622D02*
X039877Y010622D01*
X039677Y010464D02*
X039415Y010464D01*
X039448Y010305D02*
X039596Y010305D01*
X039566Y010147D02*
X039478Y010147D01*
X039469Y009988D02*
X039576Y009988D01*
X039641Y009830D02*
X039415Y009830D01*
X039415Y009671D02*
X039695Y009671D01*
X039695Y009513D02*
X039415Y009513D01*
X039415Y009354D02*
X039695Y009354D01*
X039695Y009196D02*
X039415Y009196D01*
X039415Y009037D02*
X039695Y009037D01*
X039695Y008879D02*
X039415Y008879D01*
X039415Y008720D02*
X039695Y008720D01*
X041175Y007693D02*
X041175Y010075D01*
X041222Y010122D01*
X042807Y010940D02*
X039415Y010940D01*
X034859Y008561D02*
X024567Y008561D01*
X024610Y008403D02*
X034815Y008403D01*
X034815Y008244D02*
X033532Y008244D01*
X033567Y008227D02*
X033448Y008285D01*
X033322Y008329D01*
X033193Y008358D01*
X033075Y008371D01*
X033075Y007273D01*
X032915Y007273D01*
X032915Y007113D01*
X031817Y007113D01*
X031830Y006995D01*
X031860Y006866D01*
X031903Y006741D01*
X031961Y006621D01*
X032031Y006509D01*
X032114Y006406D01*
X032208Y006312D01*
X032311Y006229D01*
X032424Y006159D01*
X032543Y006101D01*
X032668Y006057D01*
X032797Y006028D01*
X032915Y006015D01*
X032915Y007113D01*
X033075Y007113D01*
X033075Y006015D01*
X033193Y006028D01*
X033322Y006057D01*
X033448Y006101D01*
X033567Y006159D01*
X033679Y006229D01*
X033783Y006312D01*
X033876Y006406D01*
X033959Y006509D01*
X034030Y006621D01*
X034087Y006741D01*
X034131Y006866D01*
X034160Y006995D01*
X034174Y007113D01*
X033075Y007113D01*
X033075Y007273D01*
X034174Y007273D01*
X034160Y007391D01*
X034131Y007520D01*
X034087Y007645D01*
X034030Y007765D01*
X033959Y007877D01*
X033876Y007981D01*
X033783Y008074D01*
X033679Y008157D01*
X033567Y008227D01*
X033768Y008086D02*
X034815Y008086D01*
X034815Y007927D02*
X033919Y007927D01*
X034027Y007769D02*
X034815Y007769D01*
X034815Y007610D02*
X034099Y007610D01*
X034147Y007452D02*
X034815Y007452D01*
X034815Y007293D02*
X034171Y007293D01*
X034156Y006976D02*
X034815Y006976D01*
X034815Y006817D02*
X034114Y006817D01*
X034048Y006659D02*
X034815Y006659D01*
X034815Y006500D02*
X033952Y006500D01*
X033813Y006342D02*
X034815Y006342D01*
X034815Y006183D02*
X033606Y006183D01*
X033165Y006025D02*
X034815Y006025D01*
X034841Y005866D02*
X024584Y005866D01*
X024610Y006025D02*
X026261Y006025D01*
X026232Y006028D02*
X026350Y006015D01*
X026350Y007113D01*
X025252Y007113D01*
X025265Y006995D01*
X025295Y006866D01*
X025338Y006741D01*
X025396Y006621D01*
X025466Y006509D01*
X025549Y006406D01*
X025643Y006312D01*
X025746Y006229D01*
X025859Y006159D01*
X025978Y006101D01*
X026103Y006057D01*
X026232Y006028D01*
X026350Y006025D02*
X026510Y006025D01*
X026510Y006015D02*
X026628Y006028D01*
X026757Y006057D01*
X026882Y006101D01*
X027002Y006159D01*
X027114Y006229D01*
X027218Y006312D01*
X027311Y006406D01*
X027394Y006509D01*
X027465Y006621D01*
X027522Y006741D01*
X027566Y006866D01*
X027595Y006995D01*
X027609Y007113D01*
X026510Y007113D01*
X026510Y006015D01*
X026600Y006025D02*
X032826Y006025D01*
X032915Y006025D02*
X033075Y006025D01*
X033075Y006183D02*
X032915Y006183D01*
X032915Y006342D02*
X033075Y006342D01*
X033075Y006500D02*
X032915Y006500D01*
X032915Y006659D02*
X033075Y006659D01*
X033075Y006817D02*
X032915Y006817D01*
X032915Y006976D02*
X033075Y006976D01*
X033075Y007135D02*
X034815Y007135D01*
X034988Y005708D02*
X024437Y005708D01*
X024610Y006183D02*
X025819Y006183D01*
X025613Y006342D02*
X024610Y006342D01*
X024610Y006500D02*
X025473Y006500D01*
X025378Y006659D02*
X024610Y006659D01*
X024610Y006817D02*
X025311Y006817D01*
X025269Y006976D02*
X024610Y006976D01*
X024610Y007135D02*
X026350Y007135D01*
X026350Y007113D02*
X026350Y007273D01*
X025252Y007273D01*
X025265Y007391D01*
X025295Y007520D01*
X025338Y007645D01*
X025396Y007765D01*
X025466Y007877D01*
X025549Y007981D01*
X025643Y008074D01*
X025746Y008157D01*
X025859Y008227D01*
X025978Y008285D01*
X026103Y008329D01*
X026232Y008358D01*
X026350Y008371D01*
X026350Y007273D01*
X026510Y007273D01*
X026510Y008371D01*
X026628Y008358D01*
X026757Y008329D01*
X026882Y008285D01*
X027002Y008227D01*
X027114Y008157D01*
X027218Y008074D01*
X027311Y007981D01*
X027394Y007877D01*
X027465Y007765D01*
X027522Y007645D01*
X027566Y007520D01*
X027595Y007391D01*
X027609Y007273D01*
X026510Y007273D01*
X026510Y007113D01*
X026350Y007113D01*
X026350Y006976D02*
X026510Y006976D01*
X026510Y006817D02*
X026350Y006817D01*
X026350Y006659D02*
X026510Y006659D01*
X026510Y006500D02*
X026350Y006500D01*
X026350Y006342D02*
X026510Y006342D01*
X026510Y006183D02*
X026350Y006183D01*
X027041Y006183D02*
X032384Y006183D01*
X032178Y006342D02*
X027248Y006342D01*
X027387Y006500D02*
X032038Y006500D01*
X031943Y006659D02*
X027483Y006659D01*
X027549Y006817D02*
X031877Y006817D01*
X031834Y006976D02*
X027591Y006976D01*
X027606Y007293D02*
X031819Y007293D01*
X031817Y007273D02*
X032915Y007273D01*
X032915Y008371D01*
X032797Y008358D01*
X032668Y008329D01*
X032543Y008285D01*
X032424Y008227D01*
X032311Y008157D01*
X032208Y008074D01*
X032114Y007981D01*
X032031Y007877D01*
X031961Y007765D01*
X031903Y007645D01*
X031860Y007520D01*
X031830Y007391D01*
X031817Y007273D01*
X031844Y007452D02*
X027582Y007452D01*
X027534Y007610D02*
X031891Y007610D01*
X031963Y007769D02*
X027462Y007769D01*
X027354Y007927D02*
X032071Y007927D01*
X032222Y008086D02*
X027203Y008086D01*
X026967Y008244D02*
X032459Y008244D01*
X032915Y008244D02*
X033075Y008244D01*
X033075Y008086D02*
X032915Y008086D01*
X032915Y007927D02*
X033075Y007927D01*
X033075Y007769D02*
X032915Y007769D01*
X032915Y007610D02*
X033075Y007610D01*
X033075Y007452D02*
X032915Y007452D01*
X032915Y007293D02*
X033075Y007293D01*
X032915Y007135D02*
X026510Y007135D01*
X026510Y007293D02*
X026350Y007293D01*
X026350Y007452D02*
X026510Y007452D01*
X026510Y007610D02*
X026350Y007610D01*
X026350Y007769D02*
X026510Y007769D01*
X026510Y007927D02*
X026350Y007927D01*
X026350Y008086D02*
X026510Y008086D01*
X026510Y008244D02*
X026350Y008244D01*
X025894Y008244D02*
X024610Y008244D01*
X024610Y008086D02*
X025657Y008086D01*
X025506Y007927D02*
X024610Y007927D01*
X024610Y007769D02*
X025398Y007769D01*
X025326Y007610D02*
X024610Y007610D01*
X024610Y007452D02*
X025279Y007452D01*
X025254Y007293D02*
X024610Y007293D01*
X017942Y005549D02*
X037302Y005549D01*
X037347Y005391D02*
X017939Y005391D01*
X017873Y005232D02*
X037436Y005232D01*
X037594Y005073D02*
X017750Y005073D01*
X017592Y004915D02*
X037753Y004915D01*
X037911Y004756D02*
X017433Y004756D01*
X017275Y004598D02*
X038070Y004598D01*
X052292Y004439D02*
X017116Y004439D01*
X015128Y004439D02*
X007134Y004439D01*
X007348Y004598D02*
X014970Y004598D01*
X014811Y004756D02*
X007516Y004756D01*
X007650Y004915D02*
X014653Y004915D01*
X014494Y005073D02*
X007757Y005073D01*
X007844Y005232D02*
X014364Y005232D01*
X014299Y005391D02*
X007913Y005391D01*
X007966Y005549D02*
X014290Y005549D01*
X014290Y005708D02*
X008005Y005708D01*
X008030Y005866D02*
X014290Y005866D01*
X014290Y006025D02*
X013480Y006025D01*
X013390Y006025D02*
X013230Y006025D01*
X013141Y006025D02*
X006171Y006025D01*
X006171Y006183D02*
X006011Y006183D01*
X006011Y006342D02*
X006171Y006342D01*
X006171Y006500D02*
X006011Y006500D01*
X006011Y006659D02*
X006171Y006659D01*
X006171Y006817D02*
X006011Y006817D01*
X006011Y006976D02*
X006171Y006976D01*
X006171Y007135D02*
X006011Y007135D01*
X006011Y007293D02*
X006171Y007293D01*
X006171Y007452D02*
X006011Y007452D01*
X006011Y007610D02*
X006171Y007610D01*
X006171Y007769D02*
X006011Y007769D01*
X006011Y007927D02*
X006171Y007927D01*
X006751Y007927D02*
X012386Y007927D01*
X012346Y007877D02*
X012276Y007765D01*
X012218Y007645D01*
X012175Y007520D01*
X012145Y007391D01*
X012132Y007273D01*
X013230Y007273D01*
X013230Y008371D01*
X013112Y008358D01*
X012983Y008329D01*
X012858Y008285D01*
X012739Y008227D01*
X012626Y008157D01*
X012523Y008074D01*
X012429Y007981D01*
X012346Y007877D01*
X012278Y007769D02*
X007088Y007769D01*
X007316Y007610D02*
X012206Y007610D01*
X012159Y007452D02*
X007490Y007452D01*
X007629Y007293D02*
X012134Y007293D01*
X012149Y006976D02*
X007831Y006976D01*
X007903Y006817D02*
X012191Y006817D01*
X012258Y006659D02*
X007959Y006659D01*
X008000Y006500D02*
X012353Y006500D01*
X012493Y006342D02*
X008028Y006342D01*
X008042Y006183D02*
X012699Y006183D01*
X013230Y006183D02*
X013390Y006183D01*
X013390Y006342D02*
X013230Y006342D01*
X013230Y006500D02*
X013390Y006500D01*
X013390Y006659D02*
X013230Y006659D01*
X013230Y006817D02*
X013390Y006817D01*
X013390Y006976D02*
X013230Y006976D01*
X013230Y007135D02*
X007742Y007135D01*
X005430Y007927D02*
X004262Y007927D01*
X004262Y007769D02*
X005094Y007769D01*
X004865Y007610D02*
X004262Y007610D01*
X004262Y007452D02*
X004692Y007452D01*
X004552Y007293D02*
X004262Y007293D01*
X004262Y007135D02*
X004440Y007135D01*
X004350Y006976D02*
X004262Y006976D01*
X004262Y006817D02*
X004278Y006817D01*
X004262Y008086D02*
X012537Y008086D01*
X012774Y008244D02*
X004262Y008244D01*
X004262Y008403D02*
X014290Y008403D01*
X014290Y008561D02*
X004262Y008561D01*
X004262Y008720D02*
X014290Y008720D01*
X014290Y008879D02*
X004262Y008879D01*
X004262Y009037D02*
X014290Y009037D01*
X014290Y009196D02*
X004262Y009196D01*
X004262Y009354D02*
X014290Y009354D01*
X014278Y009513D02*
X004262Y009513D01*
X004262Y009671D02*
X014260Y009671D01*
X014267Y009830D02*
X004262Y009830D01*
X004262Y009988D02*
X014333Y009988D01*
X014454Y010147D02*
X004262Y010147D01*
X004262Y010305D02*
X014712Y010305D01*
X015109Y010305D02*
X015435Y010305D01*
X015515Y010464D02*
X004262Y010464D01*
X004262Y010622D02*
X015488Y010622D01*
X015488Y010781D02*
X004262Y010781D01*
X004262Y012208D02*
X006771Y012208D01*
X006741Y012218D02*
X006866Y012175D01*
X006995Y012145D01*
X007113Y012132D01*
X007113Y013230D01*
X006015Y013230D01*
X006028Y013112D01*
X006057Y012983D01*
X006101Y012858D01*
X006159Y012739D01*
X006229Y012626D01*
X006312Y012523D01*
X006406Y012429D01*
X006509Y012346D01*
X006621Y012276D01*
X006741Y012218D01*
X006484Y012366D02*
X004262Y012366D01*
X004262Y012525D02*
X006310Y012525D01*
X006193Y012684D02*
X004262Y012684D01*
X004262Y012842D02*
X006109Y012842D01*
X006053Y013001D02*
X004262Y013001D01*
X004262Y013159D02*
X006023Y013159D01*
X006024Y013476D02*
X004262Y013476D01*
X004262Y013318D02*
X007113Y013318D01*
X007113Y013159D02*
X007273Y013159D01*
X007273Y013001D02*
X007113Y013001D01*
X007113Y012842D02*
X007273Y012842D01*
X007273Y012684D02*
X007113Y012684D01*
X007113Y012525D02*
X007273Y012525D01*
X007273Y012366D02*
X007113Y012366D01*
X007113Y012208D02*
X007273Y012208D01*
X006057Y013635D02*
X004262Y013635D01*
X004262Y013793D02*
X006116Y013793D01*
X006203Y013952D02*
X004262Y013952D01*
X004262Y014110D02*
X006324Y014110D01*
X007573Y014428D02*
X015640Y014428D01*
X015650Y014269D02*
X007883Y014269D01*
X008713Y015537D02*
X015545Y015537D01*
X015500Y015696D02*
X010109Y015696D01*
X010051Y015672D02*
X010290Y015771D01*
X010473Y015954D01*
X010572Y016193D01*
X010572Y016451D01*
X010473Y016690D01*
X010290Y016873D01*
X010051Y016972D01*
X009793Y016972D01*
X009554Y016873D01*
X009371Y016690D01*
X009272Y016451D01*
X009272Y016193D01*
X009371Y015954D01*
X009554Y015771D01*
X009793Y015672D01*
X010051Y015672D01*
X009736Y015696D02*
X008713Y015696D01*
X008713Y015854D02*
X009471Y015854D01*
X009347Y016013D02*
X008713Y016013D01*
X008713Y016171D02*
X009281Y016171D01*
X009272Y016330D02*
X008713Y016330D01*
X008713Y016489D02*
X009288Y016489D01*
X009353Y016647D02*
X008713Y016647D01*
X008713Y016806D02*
X009486Y016806D01*
X009774Y016964D02*
X008713Y016964D01*
X008713Y017123D02*
X015401Y017123D01*
X015401Y017281D02*
X008713Y017281D01*
X008713Y017440D02*
X015401Y017440D01*
X015432Y017598D02*
X008713Y017598D01*
X008713Y017757D02*
X015447Y017757D01*
X015401Y017915D02*
X010156Y017915D01*
X010051Y017872D02*
X010290Y017971D01*
X010473Y018154D01*
X010572Y018393D01*
X010572Y018651D01*
X010473Y018890D01*
X010290Y019073D01*
X010051Y019172D01*
X009793Y019172D01*
X009554Y019073D01*
X009371Y018890D01*
X009272Y018651D01*
X009272Y018393D01*
X009371Y018154D01*
X009554Y017971D01*
X009793Y017872D01*
X010051Y017872D01*
X009688Y017915D02*
X008713Y017915D01*
X008713Y018074D02*
X009451Y018074D01*
X009339Y018233D02*
X008713Y018233D01*
X008713Y018391D02*
X009273Y018391D01*
X009272Y018550D02*
X008713Y018550D01*
X008713Y018708D02*
X009296Y018708D01*
X009361Y018867D02*
X008713Y018867D01*
X008713Y019025D02*
X009506Y019025D01*
X010338Y019025D02*
X012135Y019025D01*
X012293Y018867D02*
X010483Y018867D01*
X010549Y018708D02*
X012452Y018708D01*
X012657Y018550D02*
X010572Y018550D01*
X010571Y018391D02*
X015401Y018391D01*
X015401Y018233D02*
X010506Y018233D01*
X010393Y018074D02*
X015401Y018074D01*
X016115Y018661D02*
X015853Y018922D01*
X012803Y018922D01*
X011203Y020522D01*
X011203Y024122D01*
X011667Y024586D01*
X014378Y024586D01*
X014378Y024271D02*
X012053Y024271D01*
X011653Y023872D01*
X011653Y020772D01*
X012953Y019472D01*
X016903Y019472D01*
X017697Y018679D01*
X017697Y018246D01*
X016983Y018233D02*
X016828Y018233D01*
X016828Y018391D02*
X016983Y018391D01*
X016983Y018550D02*
X016828Y018550D01*
X016794Y018708D02*
X017018Y018708D01*
X016943Y018867D02*
X016607Y018867D01*
X016785Y019025D02*
X016316Y019025D01*
X016115Y018661D02*
X016115Y018246D01*
X016828Y018074D02*
X016983Y018074D01*
X016983Y017915D02*
X016828Y017915D01*
X016783Y017757D02*
X017029Y017757D01*
X017015Y017598D02*
X016797Y017598D01*
X016828Y017440D02*
X016983Y017440D01*
X016983Y017281D02*
X016828Y017281D01*
X016828Y017123D02*
X016983Y017123D01*
X016983Y016964D02*
X016828Y016964D01*
X016828Y016806D02*
X016983Y016806D01*
X017033Y016647D02*
X016779Y016647D01*
X016676Y016489D02*
X017127Y016489D01*
X017073Y016330D02*
X016730Y016330D01*
X016730Y016171D02*
X017073Y016171D01*
X017073Y016013D02*
X016730Y016013D01*
X016730Y015854D02*
X017073Y015854D01*
X017073Y015696D02*
X016730Y015696D01*
X016684Y015537D02*
X017118Y015537D01*
X017688Y016006D02*
X017697Y016015D01*
X017697Y017144D01*
X018379Y017598D02*
X018618Y017598D01*
X018632Y017757D02*
X018365Y017757D01*
X018411Y017915D02*
X018586Y017915D01*
X018586Y018074D02*
X018411Y018074D01*
X018411Y018233D02*
X018586Y018233D01*
X018586Y018391D02*
X018411Y018391D01*
X018411Y018550D02*
X018586Y018550D01*
X018621Y018708D02*
X018376Y018708D01*
X018543Y018867D02*
X018190Y018867D01*
X018385Y019025D02*
X017916Y019025D01*
X017757Y019184D02*
X018226Y019184D01*
X018067Y019342D02*
X017599Y019342D01*
X017440Y019501D02*
X017909Y019501D01*
X018003Y019972D02*
X019300Y018675D01*
X019300Y018246D01*
X018586Y017440D02*
X018411Y017440D01*
X018411Y017281D02*
X018586Y017281D01*
X018586Y017123D02*
X018411Y017123D01*
X018411Y016964D02*
X018586Y016964D01*
X018586Y016806D02*
X018411Y016806D01*
X018361Y016647D02*
X018636Y016647D01*
X018739Y016489D02*
X018249Y016489D01*
X018303Y016330D02*
X018685Y016330D01*
X018685Y016171D02*
X018303Y016171D01*
X018303Y016013D02*
X018685Y016013D01*
X018685Y015854D02*
X018303Y015854D01*
X018303Y015696D02*
X018685Y015696D01*
X018730Y015537D02*
X018258Y015537D01*
X018163Y014428D02*
X018825Y014428D01*
X018836Y014269D02*
X018152Y014269D01*
X017756Y014269D02*
X017620Y014269D01*
X017224Y014269D02*
X016579Y014269D01*
X016590Y014428D02*
X017213Y014428D01*
X016182Y014269D02*
X016047Y014269D01*
X015500Y015854D02*
X010374Y015854D01*
X010498Y016013D02*
X015500Y016013D01*
X015500Y016171D02*
X010563Y016171D01*
X010572Y016330D02*
X015500Y016330D01*
X015554Y016489D02*
X010557Y016489D01*
X010491Y016647D02*
X015450Y016647D01*
X015401Y016806D02*
X010358Y016806D01*
X010071Y016964D02*
X015401Y016964D01*
X016115Y017144D02*
X016115Y016006D01*
X019300Y016006D02*
X019300Y017144D01*
X019775Y014428D02*
X020313Y014428D01*
X020324Y014269D02*
X019764Y014269D01*
X019368Y014269D02*
X019232Y014269D01*
X020721Y014269D02*
X020856Y014269D01*
X020856Y014428D02*
X020721Y014428D01*
X016100Y011257D02*
X015945Y011257D01*
X015945Y011098D02*
X016100Y011098D01*
X014290Y008244D02*
X013847Y008244D01*
X014083Y008086D02*
X014290Y008086D01*
X014290Y007927D02*
X014234Y007927D01*
X013390Y007927D02*
X013230Y007927D01*
X013230Y007769D02*
X013390Y007769D01*
X013390Y007610D02*
X013230Y007610D01*
X013230Y007452D02*
X013390Y007452D01*
X013390Y007293D02*
X013230Y007293D01*
X013230Y008086D02*
X013390Y008086D01*
X013390Y008244D02*
X013230Y008244D01*
X014267Y006500D02*
X014290Y006500D01*
X014290Y006342D02*
X014128Y006342D01*
X014290Y006183D02*
X013921Y006183D01*
X006824Y004281D02*
X052601Y004281D01*
X055147Y006817D02*
X055163Y006817D01*
X055163Y006976D02*
X055075Y006976D01*
X055163Y007135D02*
X054986Y007135D01*
X054874Y007293D02*
X055163Y007293D01*
X055163Y007452D02*
X054734Y007452D01*
X054560Y007610D02*
X055163Y007610D01*
X055163Y007769D02*
X054332Y007769D01*
X053995Y007927D02*
X055163Y007927D01*
X055163Y019501D02*
X053674Y019501D01*
X053674Y019659D02*
X055163Y019659D01*
X055163Y019818D02*
X053674Y019818D01*
X053674Y019977D02*
X055163Y019977D01*
X055163Y020135D02*
X053674Y020135D01*
X053674Y020294D02*
X055163Y020294D01*
X055163Y020452D02*
X053674Y020452D01*
X053674Y020611D02*
X055163Y020611D01*
X055163Y020769D02*
X053674Y020769D01*
X053674Y020928D02*
X055163Y020928D01*
X055163Y021086D02*
X053674Y021086D01*
X053674Y021245D02*
X055163Y021245D01*
X055163Y021403D02*
X053674Y021403D01*
X053674Y021562D02*
X055163Y021562D01*
X055163Y021721D02*
X053674Y021721D01*
X053674Y021879D02*
X055163Y021879D01*
X055163Y022038D02*
X053674Y022038D01*
X053674Y022196D02*
X055163Y022196D01*
X055163Y022355D02*
X053674Y022355D01*
X053674Y022513D02*
X055163Y022513D01*
X055163Y022672D02*
X053674Y022672D01*
X053674Y022830D02*
X055163Y022830D01*
X055163Y022989D02*
X053674Y022989D01*
X053674Y023147D02*
X055163Y023147D01*
X055163Y023306D02*
X053674Y023306D01*
X053674Y023464D02*
X055163Y023464D01*
X055163Y023623D02*
X053674Y023623D01*
X053674Y023782D02*
X055163Y023782D01*
X055163Y023940D02*
X053674Y023940D01*
X053674Y024099D02*
X055163Y024099D01*
X055163Y024257D02*
X053674Y024257D01*
X053648Y024416D02*
X055163Y024416D01*
X055163Y024574D02*
X053504Y024574D01*
X052838Y025466D02*
X052941Y025549D01*
X053035Y025643D01*
X053118Y025746D01*
X053188Y025859D01*
X053246Y025978D01*
X053289Y026103D01*
X053319Y026232D01*
X053332Y026350D01*
X052234Y026350D01*
X052234Y025252D01*
X052352Y025265D01*
X052481Y025295D01*
X052606Y025338D01*
X052725Y025396D01*
X052838Y025466D01*
X052912Y025526D02*
X055163Y025526D01*
X055163Y025684D02*
X053068Y025684D01*
X053178Y025843D02*
X055163Y025843D01*
X055163Y026001D02*
X053254Y026001D01*
X053302Y026160D02*
X055163Y026160D01*
X055163Y026318D02*
X053328Y026318D01*
X052234Y026318D02*
X052074Y026318D01*
X052074Y026160D02*
X052234Y026160D01*
X052234Y026001D02*
X052074Y026001D01*
X052074Y025843D02*
X052234Y025843D01*
X052234Y025684D02*
X052074Y025684D01*
X052074Y025526D02*
X052234Y025526D01*
X052234Y025367D02*
X052074Y025367D01*
X051642Y025367D02*
X049921Y025367D01*
X049921Y025208D02*
X055163Y025208D01*
X055163Y025050D02*
X049921Y025050D01*
X049921Y024891D02*
X055163Y024891D01*
X055163Y024733D02*
X049921Y024733D01*
X049874Y024574D02*
X050803Y024574D01*
X050659Y024416D02*
X034703Y024416D01*
X034388Y029331D02*
X055163Y029331D01*
X052234Y027428D02*
X052074Y027428D01*
X052074Y027270D02*
X052234Y027270D01*
X052234Y027111D02*
X052074Y027111D01*
X052074Y026952D02*
X052234Y026952D01*
X052234Y026794D02*
X052074Y026794D01*
X051188Y027111D02*
X049762Y027111D01*
X049869Y026952D02*
X051096Y026952D01*
X051031Y026794D02*
X049881Y026794D01*
X049881Y026635D02*
X050990Y026635D01*
X051239Y025684D02*
X049889Y025684D01*
X049921Y025526D02*
X051396Y025526D01*
X052665Y025367D02*
X055163Y025367D01*
X049333Y027587D02*
X049198Y027587D01*
X049198Y027745D02*
X049333Y027745D01*
X028153Y028538D02*
X023965Y028538D01*
X024123Y028696D02*
X028046Y028696D01*
X027959Y028855D02*
X024282Y028855D01*
X024440Y029014D02*
X027890Y029014D01*
X027837Y029172D02*
X024599Y029172D01*
X024757Y029331D02*
X027798Y029331D01*
X027773Y029489D02*
X024916Y029489D01*
X024060Y031075D02*
X019431Y031075D01*
X019496Y030880D02*
X019280Y030880D01*
X019181Y030781D01*
X019181Y028760D01*
X018866Y028760D02*
X018853Y028747D01*
X018853Y028041D01*
X018872Y028022D01*
X018853Y028022D01*
X019653Y027222D01*
X019653Y025872D01*
X019633Y025212D02*
X018813Y026032D01*
X018233Y025902D02*
X017973Y026162D01*
X014379Y026162D01*
X014378Y026161D01*
X014372Y025847D02*
X016447Y025847D01*
X016612Y025682D01*
X017033Y025682D01*
X017633Y025372D02*
X018093Y024912D01*
X020509Y024912D01*
X020519Y024901D01*
X020515Y025212D02*
X019633Y025212D01*
X020515Y025212D02*
X020519Y025216D01*
X020519Y024586D02*
X020515Y024582D01*
X017023Y024582D01*
X016293Y025312D01*
X016248Y023790D02*
X019662Y023790D01*
X019811Y023641D01*
X019811Y022618D01*
X019813Y022615D01*
X019813Y021331D01*
X019972Y021172D01*
X020372Y021172D01*
X019496Y021096D02*
X019222Y020822D01*
X018866Y020822D01*
X018551Y020822D01*
X018236Y020822D01*
X017921Y020822D01*
X017606Y020822D01*
X017291Y020822D01*
X016976Y020822D01*
X016661Y020822D01*
X016346Y020822D01*
X015716Y020822D01*
X015401Y020822D01*
X015086Y020822D01*
X014053Y020822D01*
X013653Y021222D01*
X012922Y021953D01*
X012922Y023122D01*
X013127Y023327D01*
X014378Y023327D01*
X015086Y022622D02*
X015086Y022618D01*
X015086Y020822D01*
X015401Y020822D02*
X015401Y022618D01*
X015716Y022618D02*
X015716Y020822D01*
X016346Y020822D02*
X016346Y022618D01*
X016031Y022618D02*
X016031Y023573D01*
X016248Y023790D01*
X016661Y022618D02*
X016661Y020822D01*
X016976Y020822D02*
X016976Y022618D01*
X017291Y022618D02*
X017291Y020822D01*
X017606Y020822D02*
X017606Y022618D01*
X017921Y022618D02*
X017921Y020822D01*
X018236Y020822D02*
X018236Y022618D01*
X018551Y022618D02*
X018551Y020822D01*
X018866Y020822D02*
X018866Y022618D01*
X019496Y022618D02*
X019496Y021096D01*
X020519Y024271D02*
X022153Y024271D01*
X020519Y026161D02*
X023833Y026161D01*
X024922Y025072D01*
X020561Y027098D02*
X020561Y027106D01*
X020519Y027106D01*
X019243Y026482D02*
X014384Y026482D01*
X014378Y026476D01*
X014378Y026791D02*
X012653Y026791D01*
X012503Y026941D01*
X012503Y027106D01*
X012503Y027421D01*
X012522Y027421D02*
X012522Y027736D01*
X014378Y027736D01*
X014378Y027421D02*
X012522Y027421D01*
X012602Y027428D02*
X010456Y027428D01*
X010456Y027521D02*
X010444Y027567D01*
X010421Y027608D01*
X010387Y027641D01*
X010346Y027665D01*
X010300Y027677D01*
X010000Y027677D01*
X010000Y027260D01*
X010456Y027260D01*
X010456Y027521D01*
X010433Y027587D02*
X012602Y027587D01*
X012602Y027745D02*
X005963Y027745D01*
X005963Y027587D02*
X006957Y027587D01*
X006995Y027595D02*
X006866Y027566D01*
X006741Y027522D01*
X006621Y027465D01*
X006509Y027394D01*
X006406Y027311D01*
X006312Y027218D01*
X006229Y027114D01*
X006159Y027002D01*
X006101Y026882D01*
X006057Y026757D01*
X006028Y026628D01*
X006015Y026510D01*
X007113Y026510D01*
X007113Y026350D01*
X007273Y026350D01*
X007273Y025252D01*
X007391Y025265D01*
X007520Y025295D01*
X007645Y025338D01*
X007765Y025396D01*
X007877Y025466D01*
X007981Y025549D01*
X008074Y025643D01*
X008157Y025746D01*
X008227Y025859D01*
X008285Y025978D01*
X008329Y026103D01*
X008358Y026232D01*
X008371Y026350D01*
X007273Y026350D01*
X007273Y026510D01*
X008371Y026510D01*
X008358Y026628D01*
X008329Y026757D01*
X008285Y026882D01*
X008227Y027002D01*
X008157Y027114D01*
X008074Y027218D01*
X007981Y027311D01*
X007877Y027394D01*
X007765Y027465D01*
X007645Y027522D01*
X007520Y027566D01*
X007391Y027595D01*
X007273Y027609D01*
X007273Y026510D01*
X007113Y026510D01*
X007113Y027609D01*
X006995Y027595D01*
X007113Y027587D02*
X007273Y027587D01*
X007429Y027587D02*
X009412Y027587D01*
X009400Y027567D02*
X009388Y027521D01*
X009388Y027260D01*
X009844Y027260D01*
X009844Y027105D01*
X009388Y027105D01*
X009388Y026844D01*
X009400Y026798D01*
X009424Y026757D01*
X009457Y026723D01*
X009485Y026707D01*
X009387Y026666D01*
X009297Y026576D01*
X009248Y026459D01*
X009248Y025701D01*
X009297Y025584D01*
X009387Y025494D01*
X009402Y025487D01*
X009402Y025121D01*
X009371Y025090D01*
X009272Y024851D01*
X009272Y024593D01*
X009371Y024354D01*
X009503Y024222D01*
X009371Y024090D01*
X009272Y023851D01*
X009272Y023593D01*
X009371Y023354D01*
X009554Y023171D01*
X009793Y023072D01*
X010051Y023072D01*
X010290Y023171D01*
X010473Y023354D01*
X010572Y023593D01*
X010572Y023851D01*
X010473Y024090D01*
X010341Y024222D01*
X010473Y024354D01*
X010572Y024593D01*
X010572Y024851D01*
X010473Y025090D01*
X010442Y025121D01*
X010442Y025487D01*
X010458Y025494D01*
X010548Y025584D01*
X010596Y025701D01*
X010596Y026459D01*
X010548Y026576D01*
X010458Y026666D01*
X010359Y026707D01*
X010387Y026723D01*
X010421Y026757D01*
X010444Y026798D01*
X010456Y026844D01*
X010456Y027105D01*
X010000Y027105D01*
X010000Y027260D01*
X009845Y027260D01*
X009845Y027677D01*
X009544Y027677D01*
X009498Y027665D01*
X009457Y027641D01*
X009424Y027608D01*
X009400Y027567D01*
X009388Y027428D02*
X007823Y027428D01*
X008023Y027270D02*
X009388Y027270D01*
X009388Y026952D02*
X008251Y026952D01*
X008316Y026794D02*
X009402Y026794D01*
X009356Y026635D02*
X008357Y026635D01*
X008368Y026318D02*
X009248Y026318D01*
X009248Y026160D02*
X008342Y026160D01*
X008293Y026001D02*
X009248Y026001D01*
X009248Y025843D02*
X008217Y025843D01*
X008107Y025684D02*
X009255Y025684D01*
X009355Y025526D02*
X007951Y025526D01*
X007705Y025367D02*
X009402Y025367D01*
X009402Y025208D02*
X005963Y025208D01*
X005963Y025050D02*
X009354Y025050D01*
X009289Y024891D02*
X005963Y024891D01*
X005963Y024733D02*
X009272Y024733D01*
X009280Y024574D02*
X008543Y024574D01*
X008687Y024416D02*
X009346Y024416D01*
X009468Y024257D02*
X008713Y024257D01*
X008713Y024099D02*
X009379Y024099D01*
X009309Y023940D02*
X008713Y023940D01*
X008713Y023782D02*
X009272Y023782D01*
X009272Y023623D02*
X008713Y023623D01*
X008713Y023464D02*
X009325Y023464D01*
X009419Y023306D02*
X008713Y023306D01*
X008713Y023147D02*
X009611Y023147D01*
X010233Y023147D02*
X010803Y023147D01*
X010803Y022989D02*
X008713Y022989D01*
X008713Y022830D02*
X010803Y022830D01*
X010803Y022672D02*
X008713Y022672D01*
X008713Y022513D02*
X010803Y022513D01*
X010803Y022355D02*
X008713Y022355D01*
X008713Y022196D02*
X010803Y022196D01*
X010803Y022038D02*
X008713Y022038D01*
X008713Y021879D02*
X010803Y021879D01*
X010803Y021721D02*
X008713Y021721D01*
X008713Y021562D02*
X010803Y021562D01*
X010803Y021403D02*
X008713Y021403D01*
X008713Y021245D02*
X010803Y021245D01*
X010803Y021086D02*
X010198Y021086D01*
X010290Y021048D02*
X010051Y021147D01*
X009793Y021147D01*
X009554Y021048D01*
X009371Y020865D01*
X009272Y020626D01*
X009272Y020368D01*
X009371Y020129D01*
X009554Y019946D01*
X009793Y019847D01*
X010051Y019847D01*
X010290Y019946D01*
X010473Y020129D01*
X010572Y020368D01*
X010572Y020626D01*
X010473Y020865D01*
X010290Y021048D01*
X010411Y020928D02*
X010803Y020928D01*
X010803Y020769D02*
X010513Y020769D01*
X010572Y020611D02*
X010803Y020611D01*
X010803Y020452D02*
X010572Y020452D01*
X010541Y020294D02*
X010866Y020294D01*
X010977Y020183D02*
X010977Y020183D01*
X011025Y020135D02*
X010476Y020135D01*
X010321Y019977D02*
X011183Y019977D01*
X011342Y019818D02*
X008713Y019818D01*
X008713Y019977D02*
X009524Y019977D01*
X009369Y020135D02*
X008713Y020135D01*
X008713Y020294D02*
X009303Y020294D01*
X009272Y020452D02*
X008713Y020452D01*
X008713Y020611D02*
X009272Y020611D01*
X009331Y020769D02*
X008713Y020769D01*
X008713Y020928D02*
X009434Y020928D01*
X009646Y021086D02*
X008713Y021086D01*
X008713Y019659D02*
X011500Y019659D01*
X011659Y019501D02*
X008713Y019501D01*
X008713Y019342D02*
X011817Y019342D01*
X011976Y019184D02*
X008713Y019184D01*
X010425Y023306D02*
X010803Y023306D01*
X010803Y023464D02*
X010519Y023464D01*
X010572Y023623D02*
X010803Y023623D01*
X010803Y023782D02*
X010572Y023782D01*
X010535Y023940D02*
X010803Y023940D01*
X010803Y024099D02*
X010465Y024099D01*
X010376Y024257D02*
X010826Y024257D01*
X010931Y024416D02*
X010499Y024416D01*
X010564Y024574D02*
X011090Y024574D01*
X011248Y024733D02*
X010572Y024733D01*
X010556Y024891D02*
X011407Y024891D01*
X010490Y025050D02*
X012602Y025050D01*
X012503Y024941D02*
X012503Y025216D01*
X012503Y025531D01*
X014378Y025531D01*
X014382Y025842D02*
X014378Y025846D01*
X014378Y025216D02*
X012503Y025216D01*
X012602Y025208D02*
X010442Y025208D01*
X010442Y025367D02*
X012602Y025367D01*
X012602Y025526D02*
X010490Y025526D01*
X010589Y025684D02*
X012602Y025684D01*
X012602Y025843D02*
X010596Y025843D01*
X010596Y026001D02*
X012602Y026001D01*
X012602Y026160D02*
X010596Y026160D01*
X010596Y026318D02*
X012602Y026318D01*
X012602Y026477D02*
X010589Y026477D01*
X010489Y026635D02*
X012602Y026635D01*
X012602Y026794D02*
X010442Y026794D01*
X010456Y026952D02*
X012602Y026952D01*
X012602Y027111D02*
X010000Y027111D01*
X009844Y027111D02*
X008159Y027111D01*
X007273Y027111D02*
X007113Y027111D01*
X007113Y027270D02*
X007273Y027270D01*
X007273Y027428D02*
X007113Y027428D01*
X007113Y026952D02*
X007273Y026952D01*
X007273Y026794D02*
X007113Y026794D01*
X007113Y026635D02*
X007273Y026635D01*
X007273Y026477D02*
X009255Y026477D01*
X009845Y027270D02*
X010000Y027270D01*
X010000Y027428D02*
X009845Y027428D01*
X009845Y027587D02*
X010000Y027587D01*
X010456Y027270D02*
X012602Y027270D01*
X012503Y027106D02*
X014378Y027106D01*
X015087Y027827D02*
X015212Y027702D01*
X015722Y027702D01*
X015716Y027708D01*
X015716Y028760D01*
X015401Y028760D02*
X015401Y030296D01*
X014988Y030708D01*
X009132Y030708D01*
X009132Y030722D01*
X009922Y030722D01*
X010322Y031108D02*
X010237Y031194D01*
X010168Y031222D01*
X010237Y031251D01*
X010309Y031322D01*
X016054Y031322D01*
X015985Y031155D01*
X015985Y031120D01*
X015940Y031120D01*
X015750Y031041D01*
X015604Y030896D01*
X015535Y030728D01*
X015328Y030935D01*
X015215Y031048D01*
X015068Y031108D01*
X010322Y031108D01*
X010195Y031233D02*
X016017Y031233D01*
X015830Y031075D02*
X015150Y031075D01*
X015347Y030916D02*
X015624Y030916D01*
X015547Y030757D02*
X015505Y030757D01*
X016043Y030602D02*
X016346Y030299D01*
X016346Y028760D01*
X016031Y028760D02*
X016031Y027827D01*
X015906Y027702D01*
X015722Y027702D01*
X015087Y027827D02*
X015087Y028760D01*
X015086Y028760D01*
X015086Y029958D01*
X014885Y030160D01*
X012553Y030160D01*
X012503Y030110D01*
X012503Y028522D01*
X012503Y028051D01*
X012503Y027736D01*
X012522Y027736D01*
X012602Y027904D02*
X005963Y027904D01*
X005963Y028062D02*
X012602Y028062D01*
X012503Y028051D02*
X014378Y028051D01*
X012602Y028221D02*
X005963Y028221D01*
X005963Y028379D02*
X012602Y028379D01*
X012602Y028538D02*
X006061Y028538D01*
X006220Y028696D02*
X012602Y028696D01*
X012602Y028855D02*
X006378Y028855D01*
X006537Y029014D02*
X012602Y029014D01*
X012602Y029172D02*
X006695Y029172D01*
X006854Y029331D02*
X012602Y029331D01*
X012602Y029489D02*
X007012Y029489D01*
X007171Y029648D02*
X012602Y029648D01*
X012602Y029806D02*
X007330Y029806D01*
X007488Y029965D02*
X012602Y029965D01*
X012602Y030123D02*
X007647Y030123D01*
X007805Y030282D02*
X008826Y030282D01*
X008682Y030440D02*
X007964Y030440D01*
X008122Y030599D02*
X008616Y030599D01*
X008614Y030757D02*
X008281Y030757D01*
X008439Y030916D02*
X008657Y030916D01*
X008598Y031075D02*
X008765Y031075D01*
X008756Y031233D02*
X009649Y031233D01*
X009922Y031722D02*
X016672Y031722D01*
X016973Y031421D01*
X016973Y028762D01*
X016976Y028760D01*
X016661Y028760D02*
X016661Y030894D01*
X016503Y031052D01*
X016518Y032122D02*
X016318Y032322D01*
X010309Y032322D01*
X010237Y032251D01*
X010168Y032222D01*
X010237Y032194D01*
X010309Y032122D01*
X016518Y032122D01*
X016455Y032184D02*
X010247Y032184D01*
X009922Y032722D02*
X016483Y032722D01*
X017293Y031912D01*
X017293Y028762D01*
X017291Y028760D01*
X017593Y028772D02*
X017606Y028760D01*
X017593Y028772D02*
X017593Y032532D01*
X016862Y033264D01*
X016862Y033910D01*
X016862Y035345D01*
X016856Y035345D01*
X017491Y035355D02*
X018125Y035355D01*
X018125Y035197D02*
X017491Y035197D01*
X017491Y035038D02*
X018125Y035038D01*
X018144Y034880D02*
X017471Y034880D01*
X017354Y034721D02*
X018260Y034721D01*
X018362Y034563D02*
X017262Y034563D01*
X017262Y034404D02*
X018362Y034404D01*
X018277Y034245D02*
X017347Y034245D01*
X017416Y034087D02*
X018207Y034087D01*
X018182Y033928D02*
X017442Y033928D01*
X017431Y033770D02*
X018192Y033770D01*
X018258Y033611D02*
X017366Y033611D01*
X017262Y033453D02*
X018298Y033453D01*
X018140Y033294D02*
X017397Y033294D01*
X017556Y033136D02*
X017981Y033136D01*
X017823Y032977D02*
X017714Y032977D01*
X017921Y032510D02*
X018762Y033351D01*
X018762Y033910D01*
X018762Y035343D01*
X018760Y035343D01*
X018125Y035514D02*
X017491Y035514D01*
X017491Y035672D02*
X018125Y035672D01*
X018154Y035831D02*
X017463Y035831D01*
X017306Y035989D02*
X018315Y035989D01*
X019205Y035989D02*
X021994Y035989D01*
X021994Y036148D02*
X004262Y036148D01*
X004262Y036306D02*
X021994Y036306D01*
X021994Y036465D02*
X008529Y036465D01*
X008685Y036624D02*
X021994Y036624D01*
X021994Y036782D02*
X008713Y036782D01*
X008120Y035355D02*
X015676Y035355D01*
X015676Y035197D02*
X015831Y035197D01*
X015831Y035038D02*
X015676Y035038D01*
X015676Y034880D02*
X015831Y034880D01*
X015831Y035514D02*
X015676Y035514D01*
X015676Y035672D02*
X015831Y035672D01*
X015831Y035831D02*
X015676Y035831D01*
X016191Y035831D02*
X016249Y035831D01*
X016462Y034404D02*
X008353Y034404D01*
X008310Y034245D02*
X016377Y034245D01*
X016307Y034087D02*
X008243Y034087D01*
X008147Y033928D02*
X016282Y033928D01*
X016292Y033770D02*
X008006Y033770D01*
X007797Y033611D02*
X016358Y033611D01*
X016482Y033136D02*
X010295Y033136D01*
X010268Y030282D02*
X012602Y030282D01*
X009576Y030282D02*
X009438Y030282D01*
X007061Y033453D02*
X004262Y033453D01*
X004262Y033611D02*
X006589Y033611D01*
X006380Y033770D02*
X004262Y033770D01*
X004262Y033928D02*
X006240Y033928D01*
X006143Y034087D02*
X004262Y034087D01*
X004262Y034245D02*
X006076Y034245D01*
X006033Y034404D02*
X004262Y034404D01*
X004262Y036465D02*
X005857Y036465D01*
X005701Y036624D02*
X004262Y036624D01*
X004262Y036782D02*
X005673Y036782D01*
X005673Y036941D02*
X004262Y036941D01*
X004262Y037099D02*
X005673Y037099D01*
X005673Y037258D02*
X004262Y037258D01*
X004262Y037416D02*
X005673Y037416D01*
X005673Y037575D02*
X004262Y037575D01*
X004262Y037733D02*
X005673Y037733D01*
X005673Y037892D02*
X004262Y037892D01*
X004262Y038050D02*
X005673Y038050D01*
X005673Y038209D02*
X004262Y038209D01*
X004262Y038368D02*
X005673Y038368D01*
X005673Y038526D02*
X004262Y038526D01*
X004262Y038685D02*
X005673Y038685D01*
X005673Y038843D02*
X004262Y038843D01*
X004262Y039002D02*
X005673Y039002D01*
X005673Y039160D02*
X004262Y039160D01*
X004262Y039319D02*
X005673Y039319D01*
X005531Y039477D02*
X004262Y039477D01*
X004262Y039636D02*
X005242Y039636D01*
X005084Y039794D02*
X004262Y039794D01*
X004262Y039953D02*
X004925Y039953D01*
X004813Y040112D02*
X004262Y040112D01*
X004262Y040270D02*
X004752Y040270D01*
X004752Y040429D02*
X004262Y040429D01*
X004262Y040587D02*
X004752Y040587D01*
X004752Y040746D02*
X004262Y040746D01*
X004262Y040904D02*
X004752Y040904D01*
X004752Y041063D02*
X004262Y041063D01*
X004262Y041221D02*
X004752Y041221D01*
X004752Y041380D02*
X004262Y041380D01*
X004262Y041538D02*
X004752Y041538D01*
X004752Y041697D02*
X004262Y041697D01*
X004262Y041856D02*
X004752Y041856D01*
X004752Y042014D02*
X004262Y042014D01*
X004262Y042173D02*
X004758Y042173D01*
X004824Y042331D02*
X004262Y042331D01*
X004262Y042490D02*
X004950Y042490D01*
X005109Y042648D02*
X004262Y042648D01*
X004262Y042807D02*
X005267Y042807D01*
X005426Y042965D02*
X004262Y042965D01*
X004262Y043124D02*
X005584Y043124D01*
X005743Y043282D02*
X004262Y043282D01*
X004262Y043441D02*
X006033Y043441D01*
X006264Y043758D02*
X004262Y043758D01*
X004262Y043599D02*
X006411Y043599D01*
X006157Y043917D02*
X004262Y043917D01*
X004262Y044075D02*
X006086Y044075D01*
X006040Y044234D02*
X004262Y044234D01*
X004262Y044392D02*
X006016Y044392D01*
X007113Y044868D02*
X007273Y044868D01*
X007273Y045026D02*
X007113Y045026D01*
X007113Y045185D02*
X007273Y045185D01*
X007273Y045343D02*
X007113Y045343D01*
X007113Y045502D02*
X007273Y045502D01*
X013230Y051051D02*
X013390Y051051D01*
X013390Y051210D02*
X013230Y051210D01*
X013230Y051368D02*
X013390Y051368D01*
X013390Y051527D02*
X013230Y051527D01*
X013230Y051685D02*
X013390Y051685D01*
X013390Y051844D02*
X013230Y051844D01*
X013230Y052002D02*
X013390Y052002D01*
X013230Y052161D02*
X007651Y052161D01*
X008042Y053429D02*
X014353Y053429D01*
X014353Y053271D02*
X013691Y053271D01*
X013390Y053271D02*
X013230Y053271D01*
X013230Y053112D02*
X013390Y053112D01*
X013390Y052954D02*
X013230Y052954D01*
X013230Y052795D02*
X013390Y052795D01*
X013390Y052636D02*
X013230Y052636D01*
X013230Y052478D02*
X013390Y052478D01*
X013390Y052319D02*
X013230Y052319D01*
X014001Y053112D02*
X014353Y053112D01*
X014353Y052954D02*
X014179Y052954D01*
X014301Y052795D02*
X014353Y052795D01*
X014397Y053588D02*
X008028Y053588D01*
X008000Y053746D02*
X014532Y053746D01*
X014690Y053905D02*
X007958Y053905D01*
X007902Y054063D02*
X014849Y054063D01*
X015007Y054222D02*
X007830Y054222D01*
X007741Y054380D02*
X015166Y054380D01*
X015364Y054539D02*
X007628Y054539D01*
X013732Y051051D02*
X014353Y051051D01*
X014353Y051210D02*
X014019Y051210D01*
X014193Y051368D02*
X014353Y051368D01*
X014353Y051527D02*
X014310Y051527D01*
X018653Y049222D02*
X018722Y049222D01*
X020810Y050258D02*
X022609Y050258D01*
X022536Y050417D02*
X020810Y050417D01*
X020810Y050575D02*
X022502Y050575D01*
X022768Y050100D02*
X020966Y050100D01*
X021125Y049941D02*
X022926Y049941D01*
X023085Y049783D02*
X021283Y049783D01*
X021707Y049624D02*
X023243Y049624D01*
X023402Y049466D02*
X021823Y049466D01*
X021878Y049307D02*
X023561Y049307D01*
X023719Y049149D02*
X021918Y049149D01*
X022076Y048990D02*
X023887Y048990D01*
X024610Y051210D02*
X025721Y051210D01*
X025547Y051368D02*
X024610Y051368D01*
X024610Y051527D02*
X025431Y051527D01*
X025346Y051685D02*
X024610Y051685D01*
X024610Y051844D02*
X025291Y051844D01*
X025260Y052002D02*
X024610Y052002D01*
X021322Y049222D02*
X021322Y049178D01*
X025398Y044392D02*
X026989Y044392D01*
X027055Y044234D02*
X025478Y044234D01*
X025522Y044075D02*
X027181Y044075D01*
X027417Y043917D02*
X025522Y043917D01*
X025492Y043758D02*
X027240Y043758D01*
X027152Y043599D02*
X025492Y043599D01*
X025492Y043441D02*
X027103Y043441D01*
X027103Y043282D02*
X025492Y043282D01*
X025492Y043124D02*
X027144Y043124D01*
X027221Y042965D02*
X025492Y042965D01*
X025492Y042807D02*
X027379Y042807D01*
X021337Y035831D02*
X020298Y035831D01*
X020357Y035672D02*
X020712Y035672D01*
X020553Y035514D02*
X020357Y035514D01*
X020395Y035355D02*
X019940Y035355D01*
X019862Y035343D02*
X019862Y033651D01*
X018236Y032025D01*
X018236Y028760D01*
X018240Y028760D01*
X018551Y028760D02*
X018551Y031449D01*
X020678Y033576D01*
X020678Y034903D01*
X020191Y034721D02*
X019260Y034721D01*
X019256Y034717D02*
X019346Y034807D01*
X019387Y034906D01*
X019403Y034878D01*
X019437Y034844D01*
X019478Y034821D01*
X019524Y034808D01*
X019785Y034808D01*
X019785Y035265D01*
X019940Y035265D01*
X019940Y034808D01*
X020158Y034808D01*
X020158Y034800D01*
X020237Y034609D01*
X020278Y034568D01*
X020278Y033742D01*
X018324Y031788D01*
X018321Y031785D01*
X018321Y032344D01*
X018988Y033012D01*
X019101Y033124D01*
X019162Y033271D01*
X019162Y033490D01*
X019253Y033582D01*
X019342Y033795D01*
X019342Y034026D01*
X019253Y034239D01*
X019162Y034331D01*
X019162Y034678D01*
X019256Y034717D01*
X019162Y034563D02*
X020278Y034563D01*
X020278Y034404D02*
X019162Y034404D01*
X019247Y034245D02*
X020278Y034245D01*
X020278Y034087D02*
X019316Y034087D01*
X019342Y033928D02*
X020278Y033928D01*
X020278Y033770D02*
X019331Y033770D01*
X019266Y033611D02*
X020148Y033611D01*
X019989Y033453D02*
X019162Y033453D01*
X019162Y033294D02*
X019830Y033294D01*
X019672Y033136D02*
X019106Y033136D01*
X018954Y032977D02*
X019513Y032977D01*
X019355Y032819D02*
X018795Y032819D01*
X018637Y032660D02*
X019196Y032660D01*
X019038Y032501D02*
X018478Y032501D01*
X018321Y032343D02*
X018879Y032343D01*
X018721Y032184D02*
X018321Y032184D01*
X018321Y032026D02*
X018562Y032026D01*
X018404Y031867D02*
X018321Y031867D01*
X017921Y032510D02*
X017921Y028760D01*
X018551Y028760D02*
X018553Y028762D01*
X018866Y028760D02*
X018866Y031075D01*
X020127Y032335D01*
X021512Y032335D01*
X021512Y033593D01*
X022057Y032977D02*
X022068Y032977D01*
X022120Y032819D02*
X022173Y032819D01*
X023109Y032660D02*
X025645Y032660D01*
X025487Y032501D02*
X023109Y032501D01*
X022158Y031867D02*
X022126Y031867D01*
X022005Y031709D02*
X024694Y031709D01*
X024536Y031550D02*
X019907Y031550D01*
X019748Y031392D02*
X024377Y031392D01*
X024219Y031233D02*
X019590Y031233D01*
X019871Y030916D02*
X019273Y030916D01*
X019266Y030757D02*
X019713Y030757D01*
X020066Y031709D02*
X021018Y031709D01*
X020897Y031867D02*
X020224Y031867D01*
X019940Y034880D02*
X019785Y034880D01*
X019785Y035038D02*
X019940Y035038D01*
X019940Y035197D02*
X019785Y035197D01*
X019785Y035514D02*
X019940Y035514D01*
X019940Y035672D02*
X019785Y035672D01*
X019785Y035831D02*
X019940Y035831D01*
X019427Y035831D02*
X019366Y035831D01*
X019376Y034880D02*
X019402Y034880D01*
X012503Y024941D02*
X012543Y024901D01*
X014378Y024901D01*
X007273Y025367D02*
X007113Y025367D01*
X007113Y025252D02*
X007113Y026350D01*
X006015Y026350D01*
X006028Y026232D01*
X006057Y026103D01*
X006101Y025978D01*
X006159Y025859D01*
X006229Y025746D01*
X006312Y025643D01*
X006406Y025549D01*
X006509Y025466D01*
X006621Y025396D01*
X006741Y025338D01*
X006866Y025295D01*
X006995Y025265D01*
X007113Y025252D01*
X007113Y025526D02*
X007273Y025526D01*
X007273Y025684D02*
X007113Y025684D01*
X007113Y025843D02*
X007273Y025843D01*
X007273Y026001D02*
X007113Y026001D01*
X007113Y026160D02*
X007273Y026160D01*
X007273Y026318D02*
X007113Y026318D01*
X007113Y026477D02*
X005963Y026477D01*
X005963Y026635D02*
X006030Y026635D01*
X006070Y026794D02*
X005963Y026794D01*
X005963Y026952D02*
X006135Y026952D01*
X006227Y027111D02*
X005963Y027111D01*
X005963Y027270D02*
X006364Y027270D01*
X006563Y027428D02*
X005963Y027428D01*
X005963Y026318D02*
X006018Y026318D01*
X006044Y026160D02*
X005963Y026160D01*
X005963Y026001D02*
X006093Y026001D01*
X006169Y025843D02*
X005963Y025843D01*
X005963Y025684D02*
X006279Y025684D01*
X006435Y025526D02*
X005963Y025526D01*
X005963Y025367D02*
X006681Y025367D01*
D26*
X009132Y030708D03*
X007122Y032122D03*
X012503Y028522D03*
X014122Y031222D03*
X014122Y032222D03*
X014122Y034122D03*
X014122Y036122D03*
X017122Y036122D03*
X018722Y032522D03*
X019322Y030722D03*
X016503Y031052D03*
X016043Y030602D03*
X019243Y026482D03*
X018813Y026032D03*
X018233Y025902D03*
X017633Y025372D03*
X017033Y025682D03*
X016293Y025312D03*
X019653Y025872D03*
X022403Y024947D03*
X023634Y024322D03*
X024922Y025072D03*
X025322Y026272D03*
X025847Y027272D03*
X026247Y026191D03*
X027122Y023122D03*
X029122Y023122D03*
X029122Y021122D03*
X031678Y023552D03*
X031722Y025072D03*
X031353Y025722D03*
X030828Y026191D03*
X033264Y027033D03*
X034003Y028982D03*
X035522Y031322D03*
X032122Y033122D03*
X030693Y034457D03*
X029718Y033387D03*
X029243Y033927D03*
X028122Y036122D03*
X028222Y036772D03*
X028173Y037447D03*
X032122Y037122D03*
X037122Y042122D03*
X038523Y044007D03*
X039122Y047122D03*
X041122Y047122D03*
X043122Y047122D03*
X045122Y047122D03*
X047122Y047122D03*
X049122Y048122D03*
X052122Y050122D03*
X054122Y050122D03*
X054122Y048122D03*
X049122Y044122D03*
X047122Y044122D03*
X041803Y043122D03*
X040353Y040812D03*
X039422Y040034D03*
X039422Y039034D03*
X038222Y038534D03*
X038122Y037122D03*
X041122Y037122D03*
X045122Y036122D03*
X045122Y034122D03*
X047122Y034122D03*
X047122Y036122D03*
X049122Y036122D03*
X048843Y037772D03*
X049122Y034122D03*
X049122Y032122D03*
X052122Y031122D03*
X054122Y031122D03*
X054122Y029122D03*
X043922Y031322D03*
X035003Y022222D03*
X034393Y023892D03*
X034223Y024612D03*
X035775Y016925D03*
X033122Y015122D03*
X033122Y013122D03*
X031122Y015122D03*
X029122Y015122D03*
X029122Y017122D03*
X031122Y017122D03*
X027122Y017122D03*
X025122Y017122D03*
X025122Y015122D03*
X023122Y015122D03*
X023122Y017122D03*
X021122Y013122D03*
X019122Y013122D03*
X019122Y011122D03*
X019122Y009122D03*
X021122Y009122D03*
X021122Y011122D03*
X023122Y011122D03*
X023122Y009122D03*
X025122Y009122D03*
X025122Y011122D03*
X027122Y011122D03*
X027122Y009122D03*
X029122Y009122D03*
X029122Y007122D03*
X031122Y007122D03*
X031122Y009122D03*
X031122Y011122D03*
X029122Y011122D03*
X033122Y011122D03*
X033122Y009122D03*
X035122Y009122D03*
X035122Y011122D03*
X035122Y013122D03*
X039015Y012710D03*
X042122Y013122D03*
X044122Y015122D03*
X044122Y017122D03*
X046122Y017122D03*
X046823Y016132D03*
X046843Y015612D03*
X046122Y013122D03*
X046122Y011122D03*
X047122Y009122D03*
X043122Y009122D03*
X043108Y010508D03*
X048122Y013122D03*
X053122Y009122D03*
X055122Y009122D03*
X055122Y011122D03*
X049122Y005122D03*
X024922Y022322D03*
X023122Y021122D03*
X022260Y023460D03*
X013653Y021222D03*
X013122Y017122D03*
X013122Y015122D03*
X013122Y013122D03*
X015122Y013122D03*
X017122Y013122D03*
X017122Y011122D03*
X017122Y009122D03*
X005122Y009122D03*
X012503Y025531D03*
X023372Y036947D03*
X023857Y036472D03*
X023703Y039497D03*
X020122Y042122D03*
X018933Y040467D03*
X018623Y044587D03*
X023633Y043987D03*
X031122Y052122D03*
X036122Y047122D03*
X033403Y044972D03*
X049122Y052122D03*
X049122Y054122D03*
X011122Y050122D03*
X009122Y048122D03*
X007122Y050122D03*
X009122Y052122D03*
X009122Y054122D03*
X005122Y050122D03*
X005122Y048122D03*
X009953Y039947D03*
D27*
X014372Y025847D02*
X014373Y025846D01*
X014378Y025846D01*
D28*
X009922Y026080D02*
X009922Y024722D01*
X020678Y034903D02*
X021072Y035297D01*
X021722Y035297D01*
X006693Y040095D02*
X005660Y040095D01*
X023122Y050622D02*
X023122Y051654D01*
X022570Y051654D01*
X023122Y051654D02*
X023650Y051654D01*
X018790Y006693D02*
X017710Y006693D01*
X017322Y006693D01*
X016630Y006693D01*
X017322Y006693D02*
X017322Y005522D01*
X036315Y006693D02*
X037395Y006693D01*
X037922Y006693D01*
X037922Y005622D01*
X037922Y006693D02*
X038475Y006693D01*
D29*
X037922Y005622D02*
X038422Y005122D01*
X043922Y005122D01*
X044522Y005722D01*
X044522Y010142D01*
X044522Y012145D01*
X045393Y012145D01*
X022623Y033593D02*
X022614Y033593D01*
X022614Y035297D01*
X022614Y037814D01*
X023372Y038572D01*
X024872Y038572D01*
X024872Y039399D01*
X024872Y043999D01*
X024722Y049522D02*
X024222Y049522D01*
X023122Y050622D01*
X024722Y049522D02*
X032407Y049522D01*
X034773Y047156D01*
X034773Y037547D01*
X034773Y036447D01*
X034792Y036428D01*
X034792Y035297D01*
X022614Y035297D02*
X021722Y035297D01*
X013343Y040042D02*
X013342Y040043D01*
X013342Y041252D01*
X011772Y042822D01*
X006160Y042822D01*
X005372Y042035D01*
X005372Y040383D01*
X005660Y040095D01*
X020372Y021172D02*
X020372Y020722D01*
X020147Y020497D01*
X016022Y009771D02*
X016022Y009684D01*
X014910Y009684D01*
X014910Y005534D01*
X015522Y004922D01*
X016722Y004922D01*
X017322Y005522D01*
X053978Y045566D02*
X052372Y047172D01*
X050999Y047172D01*
D30*
X051654Y039555D02*
X049740Y039555D01*
X049337Y039152D01*
X049337Y038266D01*
X048843Y037772D01*
X040353Y040812D02*
X040353Y049972D01*
X040635Y050254D01*
X040635Y051654D01*
X040353Y049972D02*
X037703Y049972D01*
X037395Y050280D01*
X037395Y051654D01*
X047751Y026232D02*
X048184Y025799D01*
X048184Y025147D01*
X049287Y025147D02*
X049287Y026564D01*
X049266Y026564D01*
X035775Y016925D02*
X035775Y010122D01*
X035722Y010122D01*
X036522Y010122D01*
X036855Y009789D01*
X036855Y007693D01*
X035775Y007693D02*
X035775Y010122D01*
X027022Y014282D02*
X026772Y014172D01*
X026772Y014672D01*
X027022Y014782D01*
X027022Y014282D01*
X026422Y014082D02*
X026172Y013972D01*
X026172Y014472D01*
X026422Y014582D01*
X026422Y014082D01*
X024162Y013072D02*
X024162Y012572D01*
X023912Y012462D01*
X023912Y012962D01*
X024162Y013072D01*
X023562Y012772D02*
X023562Y012272D01*
X023312Y012122D01*
X023312Y012622D01*
X023562Y012772D01*
X006693Y019870D02*
X005630Y019870D01*
X004843Y020657D01*
X004843Y028897D01*
X008668Y032722D01*
X009922Y032722D01*
X009922Y031722D02*
X008623Y031722D01*
X005523Y028622D01*
X005523Y021302D01*
X005875Y020950D01*
X006693Y020950D01*
M02*
