G75*
G70*
%OFA0B0*%
%FSLAX24Y24*%
%IPPOS*%
%LPD*%
%AMOC8*
5,1,8,0,0,1.08239X$1,22.5*
%
%ADD10C,0.0520*%
%ADD11C,0.1581*%
%ADD12C,0.0554*%
%ADD13C,0.1700*%
%ADD14C,0.0396*%
%ADD15C,0.0160*%
%ADD16C,0.0400*%
%ADD17C,0.0600*%
D10*
X016862Y033910D03*
X018762Y033910D03*
X037989Y034890D03*
X039889Y034890D03*
D11*
X006091Y006091D03*
X029713Y029713D03*
X053335Y053335D03*
X053335Y006091D03*
X006091Y053335D03*
D12*
X016090Y051654D03*
X017170Y051654D03*
X016630Y052654D03*
X017710Y052654D03*
X018250Y051654D03*
X018790Y052654D03*
X019330Y051654D03*
X019870Y052654D03*
X020410Y051654D03*
X020950Y052654D03*
X021490Y051654D03*
X022030Y052654D03*
X023110Y052654D03*
X022570Y051654D03*
X023650Y051654D03*
X037395Y051654D03*
X038475Y051654D03*
X037935Y052654D03*
X039015Y052654D03*
X039555Y051654D03*
X040095Y052654D03*
X040635Y051654D03*
X041175Y052654D03*
X041715Y051654D03*
X051654Y041715D03*
X052654Y041175D03*
X051654Y040635D03*
X052654Y040095D03*
X051654Y039555D03*
X052654Y039015D03*
X051654Y038475D03*
X051654Y037395D03*
X052654Y037935D03*
X051654Y023650D03*
X051654Y022570D03*
X052654Y022030D03*
X052654Y023110D03*
X051654Y021490D03*
X052654Y020950D03*
X051654Y020410D03*
X052654Y019870D03*
X051654Y019330D03*
X052654Y018790D03*
X051654Y018250D03*
X052654Y017710D03*
X052654Y016630D03*
X051654Y016090D03*
X051654Y017170D03*
X043335Y007693D03*
X042795Y006693D03*
X042255Y007693D03*
X041715Y006693D03*
X041175Y007693D03*
X040635Y006693D03*
X040095Y007693D03*
X039555Y006693D03*
X039015Y007693D03*
X038475Y006693D03*
X037395Y006693D03*
X036855Y007693D03*
X037935Y007693D03*
X036315Y006693D03*
X035775Y007693D03*
X023650Y007693D03*
X022570Y007693D03*
X022030Y006693D03*
X023110Y006693D03*
X021490Y007693D03*
X020950Y006693D03*
X020410Y007693D03*
X019870Y006693D03*
X019330Y007693D03*
X018790Y006693D03*
X018250Y007693D03*
X017710Y006693D03*
X016630Y006693D03*
X016090Y007693D03*
X017170Y007693D03*
X007693Y016090D03*
X007693Y017170D03*
X006693Y016630D03*
X006693Y017710D03*
X007693Y018250D03*
X006693Y018790D03*
X007693Y019330D03*
X006693Y019870D03*
X007693Y020410D03*
X006693Y020950D03*
X007693Y021490D03*
X006693Y022030D03*
X006693Y023110D03*
X007693Y022570D03*
X007693Y023650D03*
X007693Y037395D03*
X007693Y038475D03*
X006693Y037935D03*
X006693Y039015D03*
X007693Y039555D03*
X006693Y040095D03*
X007693Y040635D03*
X006693Y041175D03*
X007693Y041715D03*
D13*
X007193Y044485D03*
X013310Y052154D03*
X026430Y052154D03*
X034625Y052154D03*
X044485Y052154D03*
X052154Y044485D03*
X052154Y034625D03*
X052154Y026430D03*
X052154Y013310D03*
X046115Y007193D03*
X032995Y007193D03*
X026430Y007193D03*
X013310Y007193D03*
X007193Y013310D03*
X007193Y026430D03*
X007193Y034625D03*
D14*
X007122Y032122D03*
X009132Y030708D03*
X012503Y028522D03*
X014122Y031222D03*
X014122Y032222D03*
X014122Y034122D03*
X014122Y036122D03*
X015793Y037662D03*
X016793Y037662D03*
X017893Y037662D03*
X018943Y037667D03*
X017122Y036122D03*
X018722Y032522D03*
X019322Y030722D03*
X016503Y031052D03*
X016043Y030602D03*
X019243Y026482D03*
X018813Y026032D03*
X018233Y025902D03*
X017633Y025372D03*
X017033Y025682D03*
X016293Y025312D03*
X019653Y025872D03*
X022403Y024947D03*
X023634Y024322D03*
X024922Y025072D03*
X025322Y026272D03*
X025847Y027272D03*
X026247Y026191D03*
X027122Y023122D03*
X029122Y023122D03*
X029122Y021122D03*
X031678Y023552D03*
X031722Y025072D03*
X031353Y025722D03*
X030828Y026191D03*
X033264Y027033D03*
X034003Y028982D03*
X035522Y031322D03*
X035573Y033947D03*
X034792Y035297D03*
X034773Y036447D03*
X034773Y037547D03*
X032122Y037122D03*
X030693Y034457D03*
X029718Y033387D03*
X029243Y033927D03*
X028122Y036122D03*
X028222Y036772D03*
X028173Y037447D03*
X024872Y039399D03*
X023703Y039497D03*
X023372Y036947D03*
X023857Y036472D03*
X021722Y035297D03*
X018933Y040467D03*
X020122Y042122D03*
X018963Y042337D03*
X017863Y042337D03*
X016763Y042337D03*
X015793Y042337D03*
X013343Y043295D03*
X013343Y044487D03*
X013343Y040042D03*
X013543Y038852D03*
X009953Y039947D03*
X009122Y048122D03*
X007122Y050122D03*
X009122Y052122D03*
X011122Y050122D03*
X009122Y054122D03*
X005122Y050122D03*
X005122Y048122D03*
X018623Y044587D03*
X023633Y043987D03*
X024872Y043999D03*
X027628Y044547D03*
X027753Y043352D03*
X032453Y042337D03*
X033453Y042337D03*
X033403Y044972D03*
X036122Y047122D03*
X039122Y047122D03*
X039522Y049122D03*
X041122Y047122D03*
X043122Y047122D03*
X045122Y047122D03*
X047122Y047122D03*
X049122Y048122D03*
X052122Y050122D03*
X054122Y050122D03*
X054122Y048122D03*
X052378Y047166D03*
X053178Y046366D03*
X053978Y045566D03*
X049122Y044122D03*
X047122Y044122D03*
X042693Y041376D03*
X041803Y043122D03*
X039659Y044134D03*
X038523Y044007D03*
X039659Y042034D03*
X040353Y040812D03*
X039422Y040034D03*
X039422Y039034D03*
X038222Y038534D03*
X038122Y037122D03*
X041122Y037122D03*
X042693Y036302D03*
X045122Y036122D03*
X045122Y034122D03*
X047122Y034122D03*
X047122Y036122D03*
X049122Y036122D03*
X048843Y037772D03*
X049122Y034122D03*
X049122Y032122D03*
X052122Y031122D03*
X054122Y031122D03*
X054122Y029122D03*
X047751Y026232D03*
X045083Y026232D03*
X043922Y031322D03*
X035003Y022222D03*
X034393Y023892D03*
X034223Y024612D03*
X035775Y016925D03*
X033122Y015122D03*
X033122Y013122D03*
X031122Y015122D03*
X029122Y015122D03*
X029122Y017122D03*
X031122Y017122D03*
X027122Y017122D03*
X025122Y017122D03*
X025122Y015122D03*
X023122Y015122D03*
X023122Y017122D03*
X021122Y013122D03*
X019122Y013122D03*
X019122Y011122D03*
X019122Y009122D03*
X021122Y009122D03*
X021122Y011122D03*
X023122Y011122D03*
X023122Y009122D03*
X025122Y009122D03*
X025122Y011122D03*
X027122Y011122D03*
X027122Y009122D03*
X029122Y009122D03*
X029122Y007122D03*
X031122Y007122D03*
X031122Y009122D03*
X031122Y011122D03*
X029122Y011122D03*
X033122Y011122D03*
X033122Y009122D03*
X035122Y009122D03*
X035122Y011122D03*
X035122Y013122D03*
X037922Y010122D03*
X039015Y012710D03*
X042122Y013122D03*
X044122Y015122D03*
X044122Y017122D03*
X046122Y017122D03*
X046823Y016132D03*
X046843Y015612D03*
X046122Y013122D03*
X044522Y012145D03*
X046122Y011122D03*
X044522Y010142D03*
X043108Y010508D03*
X043122Y009122D03*
X047122Y009122D03*
X048122Y013122D03*
X053122Y009122D03*
X055122Y009122D03*
X055122Y011122D03*
X049122Y005122D03*
X024922Y022322D03*
X023122Y021122D03*
X022260Y023460D03*
X020372Y021172D03*
X020147Y020497D03*
X013653Y021222D03*
X009922Y020497D03*
X009922Y018522D03*
X009922Y016322D03*
X013122Y017122D03*
X013122Y015122D03*
X013122Y013122D03*
X015122Y013122D03*
X017122Y013122D03*
X017122Y011122D03*
X017122Y009122D03*
X014910Y009684D03*
X005122Y009122D03*
X009922Y022522D03*
X009922Y023722D03*
X009922Y024722D03*
X012503Y025531D03*
X004922Y030922D03*
X022322Y049522D03*
X024722Y049522D03*
X031122Y052122D03*
X037122Y042122D03*
X033286Y033947D03*
X032122Y033122D03*
X049122Y052122D03*
X049122Y054122D03*
D15*
X048765Y053746D02*
X009479Y053746D01*
X009416Y053683D02*
X009561Y053829D01*
X009640Y054019D01*
X009640Y054225D01*
X009561Y054416D01*
X009416Y054561D01*
X009225Y054640D01*
X009072Y054640D01*
X009072Y055163D01*
X050372Y055163D01*
X050372Y050372D01*
X051665Y050372D01*
X051604Y050225D01*
X051604Y050019D01*
X051683Y049829D01*
X051829Y049683D01*
X052019Y049604D01*
X052225Y049604D01*
X052416Y049683D01*
X052561Y049829D01*
X052640Y050019D01*
X052640Y050225D01*
X052579Y050372D01*
X053665Y050372D01*
X053604Y050225D01*
X053604Y050019D01*
X053683Y049829D01*
X053829Y049683D01*
X054019Y049604D01*
X054225Y049604D01*
X054416Y049683D01*
X054561Y049829D01*
X054640Y050019D01*
X054640Y050225D01*
X054579Y050372D01*
X055163Y050372D01*
X055163Y033847D01*
X053460Y033847D01*
X053460Y042472D01*
X050822Y042472D01*
X050822Y045372D01*
X045372Y050822D01*
X042472Y050822D01*
X042472Y053460D01*
X036622Y053460D01*
X036622Y050847D01*
X024347Y050847D01*
X024347Y053460D01*
X015347Y053460D01*
X015347Y050847D01*
X014072Y050847D01*
X008572Y045622D01*
X008572Y042472D01*
X005935Y042472D01*
X005935Y036622D01*
X008572Y036622D01*
X008572Y027972D01*
X005854Y027972D01*
X005854Y021022D01*
X004262Y021022D01*
X004262Y050372D01*
X004665Y050372D01*
X004604Y050225D01*
X004604Y050019D01*
X004683Y049829D01*
X004829Y049683D01*
X005019Y049604D01*
X005225Y049604D01*
X005416Y049683D01*
X005561Y049829D01*
X005640Y050019D01*
X005640Y050225D01*
X005579Y050372D01*
X006665Y050372D01*
X006604Y050225D01*
X006604Y050019D01*
X006683Y049829D01*
X006829Y049683D01*
X007019Y049604D01*
X007225Y049604D01*
X007416Y049683D01*
X007561Y049829D01*
X007640Y050019D01*
X007640Y050225D01*
X007579Y050372D01*
X009072Y050372D01*
X009072Y051604D01*
X009225Y051604D01*
X009416Y051683D01*
X009561Y051829D01*
X009640Y052019D01*
X009640Y052225D01*
X009561Y052416D01*
X009416Y052561D01*
X009225Y052640D01*
X009072Y052640D01*
X009072Y053604D01*
X009225Y053604D01*
X009416Y053683D01*
X009593Y053905D02*
X048651Y053905D01*
X048683Y053829D02*
X048604Y054019D01*
X048604Y054225D01*
X048683Y054416D01*
X048829Y054561D01*
X049019Y054640D01*
X049225Y054640D01*
X049416Y054561D01*
X049561Y054416D01*
X049640Y054225D01*
X049640Y054019D01*
X049561Y053829D01*
X049416Y053683D01*
X049225Y053604D01*
X049019Y053604D01*
X048829Y053683D01*
X048683Y053829D01*
X048604Y054063D02*
X009640Y054063D01*
X009640Y054222D02*
X048604Y054222D01*
X048668Y054380D02*
X009576Y054380D01*
X009438Y054539D02*
X048806Y054539D01*
X049438Y054539D02*
X050372Y054539D01*
X050372Y054698D02*
X009072Y054698D01*
X009072Y054856D02*
X050372Y054856D01*
X050372Y055015D02*
X009072Y055015D01*
X009072Y053588D02*
X050372Y053588D01*
X050372Y053746D02*
X049479Y053746D01*
X049593Y053905D02*
X050372Y053905D01*
X050372Y054063D02*
X049640Y054063D01*
X049640Y054222D02*
X050372Y054222D01*
X050372Y054380D02*
X049576Y054380D01*
X050372Y053429D02*
X042472Y053429D01*
X042472Y053271D02*
X044133Y053271D01*
X044034Y053244D02*
X043767Y053090D01*
X043549Y052872D01*
X043395Y052605D01*
X043315Y052308D01*
X043315Y052000D01*
X043395Y051702D01*
X043549Y051435D01*
X043767Y051217D01*
X044034Y051063D01*
X044331Y050984D01*
X044639Y050984D01*
X044937Y051063D01*
X045204Y051217D01*
X045421Y051435D01*
X045576Y051702D01*
X045655Y052000D01*
X045655Y052308D01*
X045576Y052605D01*
X045421Y052872D01*
X045204Y053090D01*
X044937Y053244D01*
X044639Y053324D01*
X044331Y053324D01*
X044034Y053244D01*
X043805Y053112D02*
X042472Y053112D01*
X042472Y052954D02*
X043630Y052954D01*
X043505Y052795D02*
X042472Y052795D01*
X042472Y052636D02*
X043413Y052636D01*
X043361Y052478D02*
X042472Y052478D01*
X042472Y052319D02*
X043318Y052319D01*
X043315Y052161D02*
X042472Y052161D01*
X042472Y052002D02*
X043315Y052002D01*
X043357Y051844D02*
X042472Y051844D01*
X042472Y051685D02*
X043405Y051685D01*
X043496Y051527D02*
X042472Y051527D01*
X042472Y051368D02*
X043616Y051368D01*
X043780Y051210D02*
X042472Y051210D01*
X042472Y051051D02*
X044080Y051051D01*
X044891Y051051D02*
X050372Y051051D01*
X050372Y050892D02*
X042472Y050892D01*
X045072Y050347D02*
X048572Y046847D01*
X048572Y046022D01*
X015922Y046022D01*
X014022Y043872D01*
X014022Y036598D01*
X013851Y036527D01*
X013717Y036393D01*
X013644Y036217D01*
X013644Y036027D01*
X013717Y035851D01*
X013851Y035717D01*
X014022Y035646D01*
X014022Y034598D01*
X013851Y034527D01*
X013717Y034393D01*
X013644Y034217D01*
X013644Y034027D01*
X013717Y033851D01*
X013851Y033717D01*
X014022Y033646D01*
X014022Y032698D01*
X013851Y032627D01*
X013717Y032493D01*
X013644Y032317D01*
X013644Y032127D01*
X013717Y031951D01*
X013851Y031817D01*
X014022Y031746D01*
X014022Y031698D01*
X013851Y031627D01*
X013717Y031493D01*
X013644Y031317D01*
X013644Y031127D01*
X013717Y030951D01*
X013851Y030817D01*
X014022Y030746D01*
X014022Y024522D01*
X009072Y024522D01*
X009072Y030230D01*
X009227Y030230D01*
X009403Y030303D01*
X009537Y030438D01*
X009610Y030613D01*
X009610Y030804D01*
X009537Y030979D01*
X009403Y031114D01*
X009227Y031187D01*
X009072Y031187D01*
X009072Y045422D01*
X014322Y050347D01*
X045072Y050347D01*
X045161Y050258D02*
X014227Y050258D01*
X014058Y050100D02*
X045320Y050100D01*
X045478Y049941D02*
X024960Y049941D01*
X024993Y049927D02*
X024817Y050000D01*
X024627Y050000D01*
X024451Y049927D01*
X024317Y049793D01*
X024244Y049617D01*
X024244Y049427D01*
X024317Y049251D01*
X024451Y049117D01*
X024627Y049044D01*
X024817Y049044D01*
X024993Y049117D01*
X025127Y049251D01*
X025200Y049427D01*
X025200Y049617D01*
X025127Y049793D01*
X024993Y049927D01*
X025132Y049783D02*
X045637Y049783D01*
X045795Y049624D02*
X025197Y049624D01*
X025200Y049466D02*
X045954Y049466D01*
X046112Y049307D02*
X025151Y049307D01*
X025025Y049149D02*
X046271Y049149D01*
X046429Y048990D02*
X012875Y048990D01*
X012706Y048831D02*
X046588Y048831D01*
X046747Y048673D02*
X012537Y048673D01*
X012368Y048514D02*
X046905Y048514D01*
X047064Y048356D02*
X012199Y048356D01*
X012030Y048197D02*
X047222Y048197D01*
X047381Y048039D02*
X011861Y048039D01*
X011692Y047880D02*
X047539Y047880D01*
X047698Y047722D02*
X011523Y047722D01*
X011354Y047563D02*
X035937Y047563D01*
X035851Y047527D02*
X035717Y047393D01*
X035644Y047217D01*
X035644Y047027D01*
X035717Y046851D01*
X035851Y046717D01*
X036027Y046644D01*
X036217Y046644D01*
X036393Y046717D01*
X036527Y046851D01*
X036600Y047027D01*
X036600Y047217D01*
X036527Y047393D01*
X036393Y047527D01*
X036217Y047600D01*
X036027Y047600D01*
X035851Y047527D01*
X035728Y047405D02*
X011185Y047405D01*
X011016Y047246D02*
X035656Y047246D01*
X035644Y047087D02*
X010847Y047087D01*
X010678Y046929D02*
X035685Y046929D01*
X035798Y046770D02*
X010509Y046770D01*
X010340Y046612D02*
X048572Y046612D01*
X048572Y046770D02*
X047446Y046770D01*
X047393Y046717D02*
X047527Y046851D01*
X047600Y047027D01*
X047600Y047217D01*
X047527Y047393D01*
X047393Y047527D01*
X047217Y047600D01*
X047027Y047600D01*
X046851Y047527D01*
X046717Y047393D01*
X046644Y047217D01*
X046644Y047027D01*
X046717Y046851D01*
X046851Y046717D01*
X047027Y046644D01*
X047217Y046644D01*
X047393Y046717D01*
X047560Y046929D02*
X048491Y046929D01*
X048332Y047087D02*
X047600Y047087D01*
X047588Y047246D02*
X048173Y047246D01*
X048015Y047405D02*
X047516Y047405D01*
X047307Y047563D02*
X047856Y047563D01*
X048314Y047880D02*
X048662Y047880D01*
X048683Y047829D02*
X048829Y047683D01*
X049019Y047604D01*
X049225Y047604D01*
X049416Y047683D01*
X049561Y047829D01*
X049640Y048019D01*
X049640Y048225D01*
X049561Y048416D01*
X049416Y048561D01*
X049225Y048640D01*
X049019Y048640D01*
X048829Y048561D01*
X048683Y048416D01*
X048604Y048225D01*
X048604Y048019D01*
X048683Y047829D01*
X048790Y047722D02*
X048473Y047722D01*
X048631Y047563D02*
X055163Y047563D01*
X055163Y047405D02*
X048790Y047405D01*
X048948Y047246D02*
X055163Y047246D01*
X055163Y047087D02*
X049107Y047087D01*
X049266Y046929D02*
X055163Y046929D01*
X055163Y046770D02*
X049424Y046770D01*
X049583Y046612D02*
X055163Y046612D01*
X055163Y046453D02*
X049741Y046453D01*
X049900Y046295D02*
X055163Y046295D01*
X055163Y046136D02*
X050058Y046136D01*
X050217Y045978D02*
X055163Y045978D01*
X055163Y045819D02*
X050375Y045819D01*
X050534Y045661D02*
X055163Y045661D01*
X055163Y045502D02*
X052733Y045502D01*
X052605Y045576D02*
X052308Y045655D01*
X052000Y045655D01*
X051702Y045576D01*
X051435Y045421D01*
X051217Y045204D01*
X051063Y044937D01*
X050984Y044639D01*
X050984Y044331D01*
X051063Y044034D01*
X051217Y043767D01*
X051435Y043549D01*
X051702Y043395D01*
X052000Y043315D01*
X052308Y043315D01*
X052605Y043395D01*
X052872Y043549D01*
X053090Y043767D01*
X053244Y044034D01*
X053324Y044331D01*
X053324Y044639D01*
X053244Y044937D01*
X053090Y045204D01*
X052872Y045421D01*
X052605Y045576D01*
X052950Y045343D02*
X055163Y045343D01*
X055163Y045185D02*
X053101Y045185D01*
X053192Y045026D02*
X055163Y045026D01*
X055163Y044868D02*
X053262Y044868D01*
X053305Y044709D02*
X055163Y044709D01*
X055163Y044551D02*
X053324Y044551D01*
X053324Y044392D02*
X055163Y044392D01*
X055163Y044234D02*
X053298Y044234D01*
X053255Y044075D02*
X055163Y044075D01*
X055163Y043917D02*
X053176Y043917D01*
X053081Y043758D02*
X055163Y043758D01*
X055163Y043599D02*
X052923Y043599D01*
X052685Y043441D02*
X055163Y043441D01*
X055163Y043282D02*
X050822Y043282D01*
X050822Y043124D02*
X055163Y043124D01*
X055163Y042965D02*
X050822Y042965D01*
X050822Y042807D02*
X055163Y042807D01*
X055163Y042648D02*
X050822Y042648D01*
X050822Y042490D02*
X055163Y042490D01*
X055163Y042331D02*
X053460Y042331D01*
X053460Y042173D02*
X055163Y042173D01*
X055163Y042014D02*
X053460Y042014D01*
X053460Y041856D02*
X055163Y041856D01*
X055163Y041697D02*
X053460Y041697D01*
X053460Y041538D02*
X055163Y041538D01*
X055163Y041380D02*
X053460Y041380D01*
X053460Y041221D02*
X055163Y041221D01*
X055163Y041063D02*
X053460Y041063D01*
X053460Y040904D02*
X055163Y040904D01*
X055163Y040746D02*
X053460Y040746D01*
X053460Y040587D02*
X055163Y040587D01*
X055163Y040429D02*
X053460Y040429D01*
X053460Y040270D02*
X055163Y040270D01*
X055163Y040112D02*
X053460Y040112D01*
X053460Y039953D02*
X055163Y039953D01*
X055163Y039794D02*
X053460Y039794D01*
X053460Y039636D02*
X055163Y039636D01*
X055163Y039477D02*
X053460Y039477D01*
X053460Y039319D02*
X055163Y039319D01*
X055163Y039160D02*
X053460Y039160D01*
X053460Y039002D02*
X055163Y039002D01*
X055163Y038843D02*
X053460Y038843D01*
X053460Y038685D02*
X055163Y038685D01*
X055163Y038526D02*
X053460Y038526D01*
X053460Y038368D02*
X055163Y038368D01*
X055163Y038209D02*
X053460Y038209D01*
X053460Y038050D02*
X055163Y038050D01*
X055163Y037892D02*
X053460Y037892D01*
X053460Y037733D02*
X055163Y037733D01*
X055163Y037575D02*
X053460Y037575D01*
X053460Y037416D02*
X055163Y037416D01*
X055163Y037258D02*
X053460Y037258D01*
X053460Y037099D02*
X055163Y037099D01*
X055163Y036941D02*
X053460Y036941D01*
X053460Y036782D02*
X055163Y036782D01*
X055163Y036624D02*
X053460Y036624D01*
X053460Y036465D02*
X055163Y036465D01*
X055163Y036306D02*
X053460Y036306D01*
X053460Y036148D02*
X055163Y036148D01*
X055163Y035989D02*
X053460Y035989D01*
X053460Y035831D02*
X055163Y035831D01*
X055163Y035672D02*
X053460Y035672D01*
X053460Y035514D02*
X055163Y035514D01*
X055163Y035355D02*
X053460Y035355D01*
X053460Y035197D02*
X055163Y035197D01*
X055163Y035038D02*
X053460Y035038D01*
X053460Y034880D02*
X055163Y034880D01*
X055163Y034721D02*
X053460Y034721D01*
X053460Y034563D02*
X055163Y034563D01*
X055163Y034404D02*
X053460Y034404D01*
X053460Y034245D02*
X055163Y034245D01*
X055163Y034087D02*
X053460Y034087D01*
X053460Y033928D02*
X055163Y033928D01*
X055163Y033272D02*
X055163Y020422D01*
X053460Y020422D01*
X053460Y024422D01*
X050747Y024422D01*
X050747Y019622D01*
X027222Y019622D01*
X027222Y022646D01*
X027393Y022717D01*
X027527Y022851D01*
X027600Y023027D01*
X027600Y023217D01*
X027527Y023393D01*
X027393Y023527D01*
X027222Y023598D01*
X027222Y027222D01*
X032172Y027222D01*
X032172Y032172D01*
X027122Y032172D01*
X027122Y023600D01*
X027027Y023600D01*
X026851Y023527D01*
X026717Y023393D01*
X026644Y023217D01*
X026644Y023027D01*
X026717Y022851D01*
X026851Y022717D01*
X027027Y022644D01*
X027122Y022644D01*
X027122Y019622D01*
X008472Y019622D01*
X008472Y022022D01*
X022122Y022022D01*
X022122Y022999D01*
X022165Y022982D01*
X022355Y022982D01*
X022531Y023054D01*
X022665Y023189D01*
X022738Y023365D01*
X022738Y023555D01*
X022665Y023730D01*
X022531Y023865D01*
X022355Y023938D01*
X022165Y023938D01*
X022122Y023920D01*
X022122Y024552D01*
X022132Y024542D01*
X022308Y024469D01*
X022498Y024469D01*
X022674Y024542D01*
X022809Y024676D01*
X022881Y024852D01*
X022881Y025042D01*
X022809Y025218D01*
X022674Y025352D01*
X022498Y025425D01*
X022308Y025425D01*
X022132Y025352D01*
X022122Y025342D01*
X022122Y037872D01*
X027950Y037872D01*
X027902Y037852D01*
X027768Y037718D01*
X027695Y037542D01*
X027695Y037352D01*
X027768Y037176D01*
X027859Y037085D01*
X027817Y037043D01*
X027744Y036867D01*
X027744Y036677D01*
X027817Y036501D01*
X027821Y036497D01*
X027717Y036393D01*
X027644Y036217D01*
X027644Y036027D01*
X027717Y035851D01*
X027851Y035717D01*
X028027Y035644D01*
X028217Y035644D01*
X028393Y035717D01*
X028527Y035851D01*
X028600Y036027D01*
X028600Y036217D01*
X028527Y036393D01*
X028523Y036397D01*
X028627Y036501D01*
X028700Y036677D01*
X028700Y036867D01*
X028627Y037043D01*
X028536Y037134D01*
X028579Y037176D01*
X028651Y037352D01*
X028651Y037542D01*
X028579Y037718D01*
X028444Y037852D01*
X028396Y037872D01*
X037272Y037872D01*
X037272Y041667D01*
X037393Y041717D01*
X037527Y041851D01*
X037600Y042027D01*
X037600Y042217D01*
X037527Y042393D01*
X037393Y042527D01*
X037272Y042578D01*
X037272Y045522D01*
X049897Y045522D01*
X050347Y045122D01*
X050347Y033272D01*
X055163Y033272D01*
X055163Y033136D02*
X032600Y033136D01*
X032600Y033217D02*
X032527Y033393D01*
X032393Y033527D01*
X032217Y033600D01*
X032027Y033600D01*
X031851Y033527D01*
X031717Y033393D01*
X031644Y033217D01*
X031644Y033027D01*
X031717Y032851D01*
X031851Y032717D01*
X032027Y032644D01*
X032217Y032644D01*
X032393Y032717D01*
X032527Y032851D01*
X032600Y033027D01*
X032600Y033217D01*
X032568Y033294D02*
X050347Y033294D01*
X050347Y033453D02*
X032468Y033453D01*
X032580Y032977D02*
X055163Y032977D01*
X055163Y032819D02*
X032495Y032819D01*
X032256Y032660D02*
X055163Y032660D01*
X055163Y032501D02*
X049419Y032501D01*
X049393Y032527D02*
X049217Y032600D01*
X049027Y032600D01*
X048851Y032527D01*
X048717Y032393D01*
X048644Y032217D01*
X048644Y032027D01*
X048717Y031851D01*
X048851Y031717D01*
X049027Y031644D01*
X049217Y031644D01*
X049393Y031717D01*
X049527Y031851D01*
X049600Y032027D01*
X049600Y032217D01*
X049527Y032393D01*
X049393Y032527D01*
X049548Y032343D02*
X055163Y032343D01*
X055163Y032184D02*
X049600Y032184D01*
X049600Y032026D02*
X055163Y032026D01*
X055163Y031867D02*
X049534Y031867D01*
X049373Y031709D02*
X055163Y031709D01*
X055163Y031550D02*
X054338Y031550D01*
X054393Y031527D02*
X054217Y031600D01*
X054027Y031600D01*
X053851Y031527D01*
X053717Y031393D01*
X053644Y031217D01*
X053644Y031027D01*
X053717Y030851D01*
X053851Y030717D01*
X054027Y030644D01*
X054217Y030644D01*
X054393Y030717D01*
X054527Y030851D01*
X054600Y031027D01*
X054600Y031217D01*
X054527Y031393D01*
X054393Y031527D01*
X054528Y031392D02*
X055163Y031392D01*
X055163Y031233D02*
X054594Y031233D01*
X054600Y031075D02*
X055163Y031075D01*
X055163Y030916D02*
X054554Y030916D01*
X054434Y030757D02*
X055163Y030757D01*
X055163Y030599D02*
X032172Y030599D01*
X032172Y030757D02*
X051811Y030757D01*
X051851Y030717D02*
X052027Y030644D01*
X052217Y030644D01*
X052393Y030717D01*
X052527Y030851D01*
X052600Y031027D01*
X052600Y031217D01*
X052527Y031393D01*
X052393Y031527D01*
X052217Y031600D01*
X052027Y031600D01*
X051851Y031527D01*
X051717Y031393D01*
X051644Y031217D01*
X051644Y031027D01*
X051717Y030851D01*
X051851Y030717D01*
X051690Y030916D02*
X044191Y030916D01*
X044193Y030917D02*
X044327Y031051D01*
X044400Y031227D01*
X044400Y031417D01*
X044327Y031593D01*
X044193Y031727D01*
X044017Y031800D01*
X043827Y031800D01*
X043651Y031727D01*
X043517Y031593D01*
X043444Y031417D01*
X043444Y031227D01*
X043517Y031051D01*
X043651Y030917D01*
X043827Y030844D01*
X044017Y030844D01*
X044193Y030917D01*
X044337Y031075D02*
X051644Y031075D01*
X051651Y031233D02*
X044400Y031233D01*
X044400Y031392D02*
X051716Y031392D01*
X051906Y031550D02*
X044345Y031550D01*
X044212Y031709D02*
X048871Y031709D01*
X048710Y031867D02*
X032172Y031867D01*
X032172Y031709D02*
X035233Y031709D01*
X035251Y031727D02*
X035117Y031593D01*
X035044Y031417D01*
X035044Y031227D01*
X035117Y031051D01*
X035251Y030917D01*
X035427Y030844D01*
X035617Y030844D01*
X035793Y030917D01*
X035927Y031051D01*
X036000Y031227D01*
X036000Y031417D01*
X035927Y031593D01*
X035793Y031727D01*
X035617Y031800D01*
X035427Y031800D01*
X035251Y031727D01*
X035099Y031550D02*
X032172Y031550D01*
X032172Y031392D02*
X035044Y031392D01*
X035044Y031233D02*
X032172Y031233D01*
X032172Y031075D02*
X035107Y031075D01*
X035253Y030916D02*
X032172Y030916D01*
X032172Y030440D02*
X055163Y030440D01*
X055163Y030282D02*
X032172Y030282D01*
X032172Y030123D02*
X055163Y030123D01*
X055163Y029965D02*
X032172Y029965D01*
X032172Y029806D02*
X055163Y029806D01*
X055163Y029648D02*
X032172Y029648D01*
X032172Y029489D02*
X053813Y029489D01*
X053851Y029527D02*
X053717Y029393D01*
X053644Y029217D01*
X053644Y029027D01*
X053717Y028851D01*
X053851Y028717D01*
X054027Y028644D01*
X054217Y028644D01*
X054393Y028717D01*
X054527Y028851D01*
X054600Y029027D01*
X054600Y029217D01*
X054527Y029393D01*
X054393Y029527D01*
X054217Y029600D01*
X054027Y029600D01*
X053851Y029527D01*
X053691Y029331D02*
X034331Y029331D01*
X034274Y029387D02*
X034098Y029460D01*
X033908Y029460D01*
X033732Y029387D01*
X033598Y029253D01*
X033525Y029077D01*
X033525Y028887D01*
X033598Y028711D01*
X033732Y028577D01*
X033908Y028504D01*
X034098Y028504D01*
X034274Y028577D01*
X034409Y028711D01*
X034481Y028887D01*
X034481Y029077D01*
X034409Y029253D01*
X034274Y029387D01*
X034442Y029172D02*
X053644Y029172D01*
X053650Y029014D02*
X034481Y029014D01*
X034468Y028855D02*
X053715Y028855D01*
X053901Y028696D02*
X034394Y028696D01*
X034180Y028538D02*
X055163Y028538D01*
X055163Y028696D02*
X054344Y028696D01*
X054529Y028855D02*
X055163Y028855D01*
X055163Y029014D02*
X054595Y029014D01*
X054600Y029172D02*
X055163Y029172D01*
X055163Y029331D02*
X054553Y029331D01*
X054431Y029489D02*
X055163Y029489D01*
X055163Y028379D02*
X032172Y028379D01*
X032172Y028221D02*
X055163Y028221D01*
X055163Y028062D02*
X032172Y028062D01*
X032172Y027904D02*
X055163Y027904D01*
X055163Y027745D02*
X032172Y027745D01*
X032172Y027587D02*
X055163Y027587D01*
X055163Y027428D02*
X052685Y027428D01*
X052590Y027483D02*
X052302Y027560D01*
X052005Y027560D01*
X051718Y027483D01*
X051460Y027334D01*
X051249Y027124D01*
X051101Y026866D01*
X051024Y026579D01*
X051024Y026281D01*
X051101Y025994D01*
X051249Y025736D01*
X051460Y025526D01*
X051718Y025377D01*
X052005Y025300D01*
X052302Y025300D01*
X052590Y025377D01*
X052848Y025526D01*
X053058Y025736D01*
X053207Y025994D01*
X053284Y026281D01*
X053284Y026579D01*
X053207Y026866D01*
X053058Y027124D01*
X052848Y027334D01*
X052590Y027483D01*
X052912Y027270D02*
X055163Y027270D01*
X055163Y027111D02*
X053065Y027111D01*
X053157Y026952D02*
X055163Y026952D01*
X055163Y026794D02*
X053226Y026794D01*
X053269Y026635D02*
X055163Y026635D01*
X055163Y026477D02*
X053284Y026477D01*
X053284Y026318D02*
X055163Y026318D01*
X055163Y026160D02*
X053251Y026160D01*
X053209Y026001D02*
X055163Y026001D01*
X055163Y025843D02*
X053119Y025843D01*
X053006Y025684D02*
X055163Y025684D01*
X055163Y025526D02*
X052847Y025526D01*
X052552Y025367D02*
X055163Y025367D01*
X055163Y025208D02*
X032183Y025208D01*
X032200Y025167D02*
X032127Y025343D01*
X031993Y025477D01*
X031817Y025550D01*
X031800Y025550D01*
X031831Y025627D01*
X031831Y025817D01*
X031759Y025993D01*
X031624Y026127D01*
X031448Y026200D01*
X031306Y026200D01*
X031306Y026286D01*
X031234Y026462D01*
X031099Y026596D01*
X030923Y026669D01*
X030733Y026669D01*
X030557Y026596D01*
X030423Y026462D01*
X030350Y026286D01*
X030350Y026096D01*
X030423Y025920D01*
X030557Y025786D01*
X030733Y025713D01*
X030875Y025713D01*
X030875Y025627D01*
X030948Y025451D01*
X031082Y025317D01*
X031258Y025244D01*
X031276Y025244D01*
X031244Y025167D01*
X031244Y024977D01*
X031317Y024801D01*
X031451Y024667D01*
X031627Y024594D01*
X031817Y024594D01*
X031993Y024667D01*
X032127Y024801D01*
X032200Y024977D01*
X032200Y025167D01*
X032200Y025050D02*
X034031Y025050D01*
X033952Y025017D02*
X033818Y024883D01*
X033745Y024707D01*
X033745Y024517D01*
X033818Y024341D01*
X033952Y024207D01*
X034009Y024184D01*
X033988Y024163D01*
X033915Y023987D01*
X033915Y023797D01*
X033988Y023621D01*
X034122Y023487D01*
X034298Y023414D01*
X034488Y023414D01*
X034664Y023487D01*
X034799Y023621D01*
X034871Y023797D01*
X034871Y023987D01*
X034799Y024163D01*
X034664Y024297D01*
X034608Y024321D01*
X034629Y024341D01*
X034701Y024517D01*
X034701Y024707D01*
X034629Y024883D01*
X034494Y025017D01*
X034318Y025090D01*
X034128Y025090D01*
X033952Y025017D01*
X033826Y024891D02*
X032165Y024891D01*
X032059Y024733D02*
X033756Y024733D01*
X033745Y024574D02*
X027222Y024574D01*
X027122Y024574D02*
X024047Y024574D01*
X024039Y024593D02*
X023905Y024728D01*
X023729Y024801D01*
X023539Y024801D01*
X023363Y024728D01*
X023229Y024593D01*
X023156Y024418D01*
X023156Y024227D01*
X023229Y024052D01*
X023363Y023917D01*
X023539Y023844D01*
X023729Y023844D01*
X023905Y023917D01*
X024039Y024052D01*
X024112Y024227D01*
X024112Y024418D01*
X024039Y024593D01*
X024112Y024416D02*
X027122Y024416D01*
X027222Y024416D02*
X033787Y024416D01*
X033902Y024257D02*
X027222Y024257D01*
X027122Y024257D02*
X024112Y024257D01*
X024059Y024099D02*
X027122Y024099D01*
X027222Y024099D02*
X033961Y024099D01*
X033915Y023940D02*
X031966Y023940D01*
X031949Y023957D02*
X031773Y024030D01*
X031583Y024030D01*
X031407Y023957D01*
X031273Y023823D01*
X031200Y023647D01*
X031200Y023457D01*
X031273Y023281D01*
X031407Y023147D01*
X029600Y023147D01*
X029600Y023217D02*
X029527Y023393D01*
X029393Y023527D01*
X029217Y023600D01*
X029027Y023600D01*
X028851Y023527D01*
X028717Y023393D01*
X028644Y023217D01*
X028644Y023027D01*
X028717Y022851D01*
X028851Y022717D01*
X029027Y022644D01*
X029217Y022644D01*
X029393Y022717D01*
X029527Y022851D01*
X029600Y023027D01*
X029600Y023217D01*
X029564Y023306D02*
X031263Y023306D01*
X031200Y023464D02*
X029456Y023464D01*
X029584Y022989D02*
X050747Y022989D01*
X050747Y023147D02*
X031950Y023147D01*
X031949Y023147D02*
X032084Y023281D01*
X032156Y023457D01*
X032156Y023647D01*
X032084Y023823D01*
X031949Y023957D01*
X032101Y023782D02*
X033922Y023782D01*
X033987Y023623D02*
X032156Y023623D01*
X032156Y023464D02*
X034177Y023464D01*
X034610Y023464D02*
X050747Y023464D01*
X050747Y023306D02*
X032094Y023306D01*
X031949Y023147D02*
X031773Y023074D01*
X031583Y023074D01*
X031407Y023147D01*
X031200Y023623D02*
X027222Y023623D01*
X027122Y023623D02*
X022710Y023623D01*
X022738Y023464D02*
X026788Y023464D01*
X026681Y023306D02*
X022714Y023306D01*
X022624Y023147D02*
X026644Y023147D01*
X026660Y022989D02*
X022372Y022989D01*
X022147Y022989D02*
X022122Y022989D01*
X022122Y022830D02*
X026738Y022830D01*
X026960Y022672D02*
X025249Y022672D01*
X025193Y022727D02*
X025017Y022800D01*
X024827Y022800D01*
X024651Y022727D01*
X024517Y022593D01*
X024444Y022417D01*
X024444Y022227D01*
X024517Y022051D01*
X024651Y021917D01*
X024827Y021844D01*
X025017Y021844D01*
X025193Y021917D01*
X025327Y022051D01*
X025400Y022227D01*
X025400Y022417D01*
X025327Y022593D01*
X025193Y022727D01*
X025361Y022513D02*
X027122Y022513D01*
X027222Y022513D02*
X034618Y022513D01*
X034598Y022493D02*
X034525Y022317D01*
X034525Y022127D01*
X034598Y021951D01*
X034732Y021817D01*
X034908Y021744D01*
X035098Y021744D01*
X035274Y021817D01*
X035409Y021951D01*
X035481Y022127D01*
X035481Y022317D01*
X035409Y022493D01*
X035274Y022627D01*
X035098Y022700D01*
X034908Y022700D01*
X034732Y022627D01*
X034598Y022493D01*
X034541Y022355D02*
X027222Y022355D01*
X027122Y022355D02*
X025400Y022355D01*
X025387Y022196D02*
X027122Y022196D01*
X027222Y022196D02*
X034525Y022196D01*
X034562Y022038D02*
X027222Y022038D01*
X027122Y022038D02*
X025314Y022038D01*
X025102Y021879D02*
X027122Y021879D01*
X027222Y021879D02*
X034670Y021879D01*
X035336Y021879D02*
X050747Y021879D01*
X050747Y021721D02*
X027222Y021721D01*
X027122Y021721D02*
X008472Y021721D01*
X008472Y021879D02*
X024743Y021879D01*
X024531Y022038D02*
X022122Y022038D01*
X022122Y022196D02*
X024457Y022196D01*
X024444Y022355D02*
X022122Y022355D01*
X022122Y022513D02*
X024484Y022513D01*
X024596Y022672D02*
X022122Y022672D01*
X021622Y022672D02*
X010378Y022672D01*
X010400Y022617D02*
X010327Y022793D01*
X010193Y022927D01*
X010017Y023000D01*
X009827Y023000D01*
X009651Y022927D01*
X009517Y022793D01*
X009444Y022617D01*
X009444Y022522D01*
X008472Y022522D01*
X008472Y024022D01*
X014522Y024022D01*
X014522Y030946D01*
X014527Y030951D01*
X014600Y031127D01*
X014600Y031317D01*
X014527Y031493D01*
X014522Y031498D01*
X014522Y031946D01*
X014527Y031951D01*
X014600Y032127D01*
X014600Y032317D01*
X014527Y032493D01*
X014522Y032498D01*
X014522Y033846D01*
X014527Y033851D01*
X014600Y034027D01*
X014600Y034217D01*
X014527Y034393D01*
X014522Y034398D01*
X014522Y035846D01*
X014527Y035851D01*
X014600Y036027D01*
X014600Y036217D01*
X014527Y036393D01*
X014522Y036398D01*
X014522Y043622D01*
X016172Y045522D01*
X036772Y045522D01*
X036772Y042448D01*
X036717Y042393D01*
X036644Y042217D01*
X036644Y042027D01*
X036717Y041851D01*
X036772Y041796D01*
X036772Y038372D01*
X021622Y038372D01*
X021622Y035877D01*
X021607Y035877D01*
X021394Y035789D01*
X021231Y035626D01*
X021142Y035413D01*
X021142Y035182D01*
X021231Y034969D01*
X021394Y034806D01*
X021607Y034717D01*
X021622Y034717D01*
X021622Y022522D01*
X010400Y022522D01*
X010400Y022617D01*
X010290Y022830D02*
X021622Y022830D01*
X021622Y022989D02*
X010045Y022989D01*
X009800Y022989D02*
X008472Y022989D01*
X008472Y023147D02*
X021622Y023147D01*
X021622Y023306D02*
X008472Y023306D01*
X008472Y023464D02*
X021622Y023464D01*
X021622Y023623D02*
X008472Y023623D01*
X008472Y023782D02*
X021622Y023782D01*
X021622Y023940D02*
X008472Y023940D01*
X009072Y024574D02*
X014022Y024574D01*
X014022Y024733D02*
X009072Y024733D01*
X009072Y024891D02*
X014022Y024891D01*
X014022Y025050D02*
X009072Y025050D01*
X009072Y025208D02*
X012150Y025208D01*
X012098Y025260D02*
X012232Y025126D01*
X012408Y025053D01*
X012598Y025053D01*
X012774Y025126D01*
X012909Y025260D01*
X012981Y025436D01*
X012981Y025626D01*
X012909Y025802D01*
X012774Y025937D01*
X012598Y026009D01*
X012408Y026009D01*
X012232Y025937D01*
X012098Y025802D01*
X012025Y025626D01*
X012025Y025436D01*
X012098Y025260D01*
X012054Y025367D02*
X009072Y025367D01*
X009072Y025526D02*
X012025Y025526D01*
X012049Y025684D02*
X009072Y025684D01*
X009072Y025843D02*
X012139Y025843D01*
X012389Y026001D02*
X009072Y026001D01*
X009072Y026160D02*
X014022Y026160D01*
X014022Y026318D02*
X009072Y026318D01*
X009072Y026477D02*
X014022Y026477D01*
X014022Y026635D02*
X009072Y026635D01*
X009072Y026794D02*
X014022Y026794D01*
X014022Y026952D02*
X009072Y026952D01*
X009072Y027111D02*
X014022Y027111D01*
X014022Y027270D02*
X009072Y027270D01*
X009072Y027428D02*
X014022Y027428D01*
X014022Y027587D02*
X009072Y027587D01*
X009072Y027745D02*
X014022Y027745D01*
X014022Y027904D02*
X009072Y027904D01*
X009072Y028062D02*
X012364Y028062D01*
X012408Y028044D02*
X012598Y028044D01*
X012774Y028117D01*
X012909Y028251D01*
X012981Y028427D01*
X012981Y028617D01*
X012909Y028793D01*
X012774Y028927D01*
X012598Y029000D01*
X012408Y029000D01*
X012232Y028927D01*
X012098Y028793D01*
X012025Y028617D01*
X012025Y028427D01*
X012098Y028251D01*
X012232Y028117D01*
X012408Y028044D01*
X012642Y028062D02*
X014022Y028062D01*
X014022Y028221D02*
X012878Y028221D01*
X012962Y028379D02*
X014022Y028379D01*
X014022Y028538D02*
X012981Y028538D01*
X012949Y028696D02*
X014022Y028696D01*
X014022Y028855D02*
X012847Y028855D01*
X012160Y028855D02*
X009072Y028855D01*
X009072Y029014D02*
X014022Y029014D01*
X014022Y029172D02*
X009072Y029172D01*
X009072Y029331D02*
X014022Y029331D01*
X014022Y029489D02*
X009072Y029489D01*
X009072Y029648D02*
X014022Y029648D01*
X014022Y029806D02*
X009072Y029806D01*
X009072Y029965D02*
X014022Y029965D01*
X014022Y030123D02*
X009072Y030123D01*
X009351Y030282D02*
X014022Y030282D01*
X014022Y030440D02*
X009538Y030440D01*
X009604Y030599D02*
X014022Y030599D01*
X013995Y030757D02*
X009610Y030757D01*
X009563Y030916D02*
X013752Y030916D01*
X013666Y031075D02*
X009442Y031075D01*
X009072Y031233D02*
X013644Y031233D01*
X013675Y031392D02*
X009072Y031392D01*
X009072Y031550D02*
X013774Y031550D01*
X014022Y031709D02*
X009072Y031709D01*
X009072Y031867D02*
X013801Y031867D01*
X013686Y032026D02*
X009072Y032026D01*
X009072Y032184D02*
X013644Y032184D01*
X013655Y032343D02*
X009072Y032343D01*
X009072Y032501D02*
X013725Y032501D01*
X013930Y032660D02*
X009072Y032660D01*
X009072Y032819D02*
X014022Y032819D01*
X014022Y032977D02*
X009072Y032977D01*
X009072Y033136D02*
X014022Y033136D01*
X014022Y033294D02*
X009072Y033294D01*
X009072Y033453D02*
X014022Y033453D01*
X014022Y033611D02*
X009072Y033611D01*
X009072Y033770D02*
X013798Y033770D01*
X013685Y033928D02*
X009072Y033928D01*
X009072Y034087D02*
X013644Y034087D01*
X013656Y034245D02*
X009072Y034245D01*
X009072Y034404D02*
X013728Y034404D01*
X013936Y034563D02*
X009072Y034563D01*
X009072Y034721D02*
X014022Y034721D01*
X014022Y034880D02*
X009072Y034880D01*
X009072Y035038D02*
X014022Y035038D01*
X014022Y035197D02*
X009072Y035197D01*
X009072Y035355D02*
X014022Y035355D01*
X014022Y035514D02*
X009072Y035514D01*
X009072Y035672D02*
X013959Y035672D01*
X013737Y035831D02*
X009072Y035831D01*
X009072Y035989D02*
X013660Y035989D01*
X013644Y036148D02*
X009072Y036148D01*
X009072Y036306D02*
X013681Y036306D01*
X013789Y036465D02*
X009072Y036465D01*
X009072Y036624D02*
X014022Y036624D01*
X014022Y036782D02*
X009072Y036782D01*
X009072Y036941D02*
X014022Y036941D01*
X014022Y037099D02*
X009072Y037099D01*
X009072Y037258D02*
X014022Y037258D01*
X014022Y037416D02*
X009072Y037416D01*
X009072Y037575D02*
X014022Y037575D01*
X014022Y037733D02*
X009072Y037733D01*
X009072Y037892D02*
X014022Y037892D01*
X014022Y038050D02*
X009072Y038050D01*
X009072Y038209D02*
X014022Y038209D01*
X014022Y038368D02*
X009072Y038368D01*
X009072Y038526D02*
X013193Y038526D01*
X013138Y038581D02*
X013272Y038447D01*
X013448Y038374D01*
X013638Y038374D01*
X013814Y038447D01*
X013949Y038581D01*
X014021Y038757D01*
X014021Y038947D01*
X013949Y039123D01*
X013814Y039257D01*
X013638Y039330D01*
X013448Y039330D01*
X013272Y039257D01*
X013138Y039123D01*
X013065Y038947D01*
X013065Y038757D01*
X013138Y038581D01*
X013095Y038685D02*
X009072Y038685D01*
X009072Y038843D02*
X013065Y038843D01*
X013088Y039002D02*
X009072Y039002D01*
X009072Y039160D02*
X013175Y039160D01*
X013421Y039319D02*
X009072Y039319D01*
X009072Y039477D02*
X009838Y039477D01*
X009858Y039469D02*
X010048Y039469D01*
X010224Y039542D01*
X010359Y039676D01*
X010431Y039852D01*
X010431Y040042D01*
X010359Y040218D01*
X010224Y040352D01*
X010048Y040425D01*
X009858Y040425D01*
X009682Y040352D01*
X009548Y040218D01*
X009475Y040042D01*
X009475Y039852D01*
X009548Y039676D01*
X009682Y039542D01*
X009858Y039469D01*
X010068Y039477D02*
X014022Y039477D01*
X014022Y039319D02*
X013666Y039319D01*
X013911Y039160D02*
X014022Y039160D01*
X014022Y039002D02*
X013999Y039002D01*
X014021Y038843D02*
X014022Y038843D01*
X014022Y038685D02*
X013991Y038685D01*
X014022Y038526D02*
X013893Y038526D01*
X014522Y038526D02*
X036772Y038526D01*
X036772Y038685D02*
X014522Y038685D01*
X014522Y038843D02*
X036772Y038843D01*
X036772Y039002D02*
X025151Y039002D01*
X025143Y038994D02*
X025277Y039128D01*
X025350Y039304D01*
X025350Y039494D01*
X025277Y039670D01*
X025143Y039804D01*
X024967Y039877D01*
X024777Y039877D01*
X024601Y039804D01*
X024467Y039670D01*
X024394Y039494D01*
X024394Y039304D01*
X024467Y039128D01*
X024601Y038994D01*
X024777Y038921D01*
X024967Y038921D01*
X025143Y038994D01*
X025291Y039160D02*
X036772Y039160D01*
X036772Y039319D02*
X025350Y039319D01*
X025350Y039477D02*
X036772Y039477D01*
X036772Y039636D02*
X025291Y039636D01*
X025153Y039794D02*
X036772Y039794D01*
X036772Y039953D02*
X023852Y039953D01*
X023798Y039975D02*
X023608Y039975D01*
X023432Y039902D01*
X023298Y039768D01*
X023225Y039592D01*
X023225Y039402D01*
X023298Y039226D01*
X023432Y039092D01*
X023608Y039019D01*
X023798Y039019D01*
X023974Y039092D01*
X024109Y039226D01*
X024181Y039402D01*
X024181Y039592D01*
X024109Y039768D01*
X023974Y039902D01*
X023798Y039975D01*
X023554Y039953D02*
X014522Y039953D01*
X014522Y040112D02*
X018613Y040112D01*
X018662Y040062D02*
X018838Y039989D01*
X019028Y039989D01*
X019204Y040062D01*
X019339Y040196D01*
X019411Y040372D01*
X019411Y040562D01*
X019339Y040738D01*
X019204Y040872D01*
X019028Y040945D01*
X018838Y040945D01*
X018662Y040872D01*
X018528Y040738D01*
X018455Y040562D01*
X018455Y040372D01*
X018528Y040196D01*
X018662Y040062D01*
X018497Y040270D02*
X014522Y040270D01*
X014522Y040429D02*
X018455Y040429D01*
X018466Y040587D02*
X014522Y040587D01*
X014522Y040746D02*
X018536Y040746D01*
X018739Y040904D02*
X014522Y040904D01*
X014522Y041063D02*
X036772Y041063D01*
X036772Y041221D02*
X014522Y041221D01*
X014522Y041380D02*
X036772Y041380D01*
X036772Y041538D02*
X014522Y041538D01*
X014522Y041697D02*
X019899Y041697D01*
X019851Y041717D02*
X020027Y041644D01*
X020217Y041644D01*
X020393Y041717D01*
X020527Y041851D01*
X020600Y042027D01*
X020600Y042217D01*
X020527Y042393D01*
X020393Y042527D01*
X020217Y042600D01*
X020027Y042600D01*
X019851Y042527D01*
X019717Y042393D01*
X019644Y042217D01*
X019644Y042027D01*
X019717Y041851D01*
X019851Y041717D01*
X019715Y041856D02*
X014522Y041856D01*
X014522Y042014D02*
X019649Y042014D01*
X019644Y042173D02*
X014522Y042173D01*
X014522Y042331D02*
X019691Y042331D01*
X019814Y042490D02*
X014522Y042490D01*
X014522Y042648D02*
X036772Y042648D01*
X036772Y042490D02*
X020431Y042490D01*
X020553Y042331D02*
X036691Y042331D01*
X036644Y042173D02*
X020600Y042173D01*
X020595Y042014D02*
X036649Y042014D01*
X036715Y041856D02*
X020529Y041856D01*
X020345Y041697D02*
X036772Y041697D01*
X037272Y041538D02*
X050347Y041538D01*
X050347Y041380D02*
X037272Y041380D01*
X037272Y041221D02*
X040092Y041221D01*
X040082Y041217D02*
X039948Y041083D01*
X039875Y040907D01*
X039875Y040717D01*
X039948Y040541D01*
X040082Y040407D01*
X040258Y040334D01*
X040448Y040334D01*
X040624Y040407D01*
X040759Y040541D01*
X040831Y040717D01*
X040831Y040907D01*
X040759Y041083D01*
X040624Y041217D01*
X040448Y041290D01*
X040258Y041290D01*
X040082Y041217D01*
X039940Y041063D02*
X037272Y041063D01*
X037272Y040904D02*
X039875Y040904D01*
X039875Y040746D02*
X037272Y040746D01*
X037272Y040587D02*
X039929Y040587D01*
X040061Y040429D02*
X039704Y040429D01*
X039693Y040439D02*
X039517Y040512D01*
X039327Y040512D01*
X039151Y040439D01*
X039017Y040305D01*
X038944Y040129D01*
X038944Y039939D01*
X039017Y039763D01*
X039151Y039629D01*
X039327Y039556D01*
X039517Y039556D01*
X039693Y039629D01*
X039827Y039763D01*
X039900Y039939D01*
X039900Y040129D01*
X039827Y040305D01*
X039693Y040439D01*
X039842Y040270D02*
X050347Y040270D01*
X050347Y040112D02*
X039900Y040112D01*
X039900Y039953D02*
X050347Y039953D01*
X050347Y039794D02*
X039840Y039794D01*
X039700Y039636D02*
X050347Y039636D01*
X050347Y039477D02*
X039601Y039477D01*
X039517Y039512D02*
X039327Y039512D01*
X039151Y039439D01*
X039017Y039305D01*
X038944Y039129D01*
X038944Y038939D01*
X039017Y038763D01*
X039151Y038629D01*
X039327Y038556D01*
X039517Y038556D01*
X039693Y038629D01*
X039827Y038763D01*
X039900Y038939D01*
X039900Y039129D01*
X039827Y039305D01*
X039693Y039439D01*
X039517Y039512D01*
X039244Y039477D02*
X037272Y039477D01*
X037272Y039319D02*
X039031Y039319D01*
X038957Y039160D02*
X037272Y039160D01*
X037272Y039002D02*
X038102Y039002D01*
X038127Y039012D02*
X037951Y038939D01*
X037817Y038805D01*
X037744Y038629D01*
X037744Y038439D01*
X037817Y038263D01*
X037951Y038129D01*
X038127Y038056D01*
X038317Y038056D01*
X038493Y038129D01*
X038627Y038263D01*
X038700Y038439D01*
X038700Y038629D01*
X038627Y038805D01*
X038493Y038939D01*
X038317Y039012D01*
X038127Y039012D01*
X038342Y039002D02*
X038944Y039002D01*
X038984Y038843D02*
X038589Y038843D01*
X038677Y038685D02*
X039095Y038685D01*
X038700Y038526D02*
X050347Y038526D01*
X050347Y038368D02*
X038671Y038368D01*
X038573Y038209D02*
X048649Y038209D01*
X048572Y038177D02*
X048438Y038043D01*
X048365Y037867D01*
X048365Y037677D01*
X048438Y037501D01*
X048572Y037367D01*
X048748Y037294D01*
X048938Y037294D01*
X049114Y037367D01*
X049249Y037501D01*
X049321Y037677D01*
X049321Y037867D01*
X049249Y038043D01*
X049114Y038177D01*
X048938Y038250D01*
X048748Y038250D01*
X048572Y038177D01*
X048445Y038050D02*
X037272Y038050D01*
X037272Y037892D02*
X048375Y037892D01*
X048365Y037733D02*
X028563Y037733D01*
X028638Y037575D02*
X031966Y037575D01*
X032027Y037600D02*
X031851Y037527D01*
X031717Y037393D01*
X031644Y037217D01*
X031644Y037027D01*
X031717Y036851D01*
X031851Y036717D01*
X032027Y036644D01*
X032217Y036644D01*
X032393Y036717D01*
X032527Y036851D01*
X032600Y037027D01*
X032600Y037217D01*
X032527Y037393D01*
X032393Y037527D01*
X032217Y037600D01*
X032027Y037600D01*
X032279Y037575D02*
X037966Y037575D01*
X038027Y037600D02*
X037851Y037527D01*
X037717Y037393D01*
X037644Y037217D01*
X037644Y037027D01*
X037717Y036851D01*
X037851Y036717D01*
X038027Y036644D01*
X038217Y036644D01*
X038393Y036717D01*
X038527Y036851D01*
X038600Y037027D01*
X038600Y037217D01*
X038527Y037393D01*
X038393Y037527D01*
X038217Y037600D01*
X038027Y037600D01*
X038279Y037575D02*
X040966Y037575D01*
X041027Y037600D02*
X040851Y037527D01*
X040717Y037393D01*
X040644Y037217D01*
X040644Y037027D01*
X040717Y036851D01*
X040851Y036717D01*
X041027Y036644D01*
X041217Y036644D01*
X041393Y036717D01*
X041527Y036851D01*
X041600Y037027D01*
X041600Y037217D01*
X041527Y037393D01*
X041393Y037527D01*
X041217Y037600D01*
X041027Y037600D01*
X041279Y037575D02*
X048408Y037575D01*
X048523Y037416D02*
X041504Y037416D01*
X041584Y037258D02*
X050347Y037258D01*
X050347Y037416D02*
X049164Y037416D01*
X049279Y037575D02*
X050347Y037575D01*
X050347Y037733D02*
X049321Y037733D01*
X049311Y037892D02*
X050347Y037892D01*
X050347Y038050D02*
X049241Y038050D01*
X049038Y038209D02*
X050347Y038209D01*
X050347Y038685D02*
X039749Y038685D01*
X039861Y038843D02*
X050347Y038843D01*
X050347Y039002D02*
X039900Y039002D01*
X039887Y039160D02*
X050347Y039160D01*
X050347Y039319D02*
X039813Y039319D01*
X039144Y039636D02*
X037272Y039636D01*
X037272Y039794D02*
X039004Y039794D01*
X038944Y039953D02*
X037272Y039953D01*
X037272Y040112D02*
X038944Y040112D01*
X039003Y040270D02*
X037272Y040270D01*
X037272Y040429D02*
X039141Y040429D01*
X037529Y041856D02*
X050347Y041856D01*
X050347Y042014D02*
X037595Y042014D01*
X037600Y042173D02*
X050347Y042173D01*
X050347Y042331D02*
X037553Y042331D01*
X037431Y042490D02*
X050347Y042490D01*
X050347Y042648D02*
X041908Y042648D01*
X041898Y042644D02*
X042074Y042717D01*
X042209Y042851D01*
X042281Y043027D01*
X042281Y043217D01*
X042209Y043393D01*
X042074Y043527D01*
X041898Y043600D01*
X041708Y043600D01*
X041532Y043527D01*
X041398Y043393D01*
X041325Y043217D01*
X041325Y043027D01*
X041398Y042851D01*
X041532Y042717D01*
X041708Y042644D01*
X041898Y042644D01*
X041698Y042648D02*
X037272Y042648D01*
X037272Y042807D02*
X041443Y042807D01*
X041351Y042965D02*
X037272Y042965D01*
X037272Y043124D02*
X041325Y043124D01*
X041352Y043282D02*
X037272Y043282D01*
X037272Y043441D02*
X041446Y043441D01*
X041706Y043599D02*
X038788Y043599D01*
X038794Y043602D02*
X038929Y043736D01*
X039001Y043912D01*
X039001Y044102D01*
X038929Y044278D01*
X038794Y044412D01*
X038618Y044485D01*
X038428Y044485D01*
X038252Y044412D01*
X038118Y044278D01*
X038045Y044102D01*
X038045Y043912D01*
X038118Y043736D01*
X038252Y043602D01*
X038428Y043529D01*
X038618Y043529D01*
X038794Y043602D01*
X038938Y043758D02*
X046810Y043758D01*
X046851Y043717D02*
X047027Y043644D01*
X047217Y043644D01*
X047393Y043717D01*
X047527Y043851D01*
X047600Y044027D01*
X047600Y044217D01*
X047527Y044393D01*
X047393Y044527D01*
X047217Y044600D01*
X047027Y044600D01*
X046851Y044527D01*
X046717Y044393D01*
X046644Y044217D01*
X046644Y044027D01*
X046717Y043851D01*
X046851Y043717D01*
X046690Y043917D02*
X039001Y043917D01*
X039001Y044075D02*
X046644Y044075D01*
X046651Y044234D02*
X038947Y044234D01*
X038814Y044392D02*
X046717Y044392D01*
X046908Y044551D02*
X037272Y044551D01*
X037272Y044709D02*
X050347Y044709D01*
X050347Y044551D02*
X049337Y044551D01*
X049393Y044527D02*
X049217Y044600D01*
X049027Y044600D01*
X048851Y044527D01*
X048717Y044393D01*
X048644Y044217D01*
X048644Y044027D01*
X048717Y043851D01*
X048851Y043717D01*
X049027Y043644D01*
X049217Y043644D01*
X049393Y043717D01*
X049527Y043851D01*
X049600Y044027D01*
X049600Y044217D01*
X049527Y044393D01*
X049393Y044527D01*
X049528Y044392D02*
X050347Y044392D01*
X050347Y044234D02*
X049594Y044234D01*
X049600Y044075D02*
X050347Y044075D01*
X050347Y043917D02*
X049554Y043917D01*
X049434Y043758D02*
X050347Y043758D01*
X050347Y043599D02*
X041900Y043599D01*
X042161Y043441D02*
X050347Y043441D01*
X050347Y043282D02*
X042254Y043282D01*
X042281Y043124D02*
X050347Y043124D01*
X050347Y042965D02*
X042256Y042965D01*
X042164Y042807D02*
X050347Y042807D01*
X050822Y043441D02*
X051622Y043441D01*
X051385Y043599D02*
X050822Y043599D01*
X050822Y043758D02*
X051226Y043758D01*
X051131Y043917D02*
X050822Y043917D01*
X050822Y044075D02*
X051052Y044075D01*
X051010Y044234D02*
X050822Y044234D01*
X050822Y044392D02*
X050984Y044392D01*
X050984Y044551D02*
X050822Y044551D01*
X050822Y044709D02*
X051002Y044709D01*
X051045Y044868D02*
X050822Y044868D01*
X050822Y045026D02*
X051115Y045026D01*
X051207Y045185D02*
X050822Y045185D01*
X050822Y045343D02*
X051357Y045343D01*
X051575Y045502D02*
X050692Y045502D01*
X050277Y045185D02*
X037272Y045185D01*
X037272Y045343D02*
X050098Y045343D01*
X049920Y045502D02*
X037272Y045502D01*
X037272Y045026D02*
X050347Y045026D01*
X050347Y044868D02*
X037272Y044868D01*
X037272Y044392D02*
X038232Y044392D01*
X038100Y044234D02*
X037272Y044234D01*
X037272Y044075D02*
X038045Y044075D01*
X038045Y043917D02*
X037272Y043917D01*
X037272Y043758D02*
X038109Y043758D01*
X038258Y043599D02*
X037272Y043599D01*
X036772Y043599D02*
X028168Y043599D01*
X028159Y043623D02*
X028024Y043757D01*
X027848Y043830D01*
X027658Y043830D01*
X027482Y043757D01*
X027348Y043623D01*
X027275Y043447D01*
X027275Y043257D01*
X027348Y043081D01*
X027482Y042947D01*
X027658Y042874D01*
X027848Y042874D01*
X028024Y042947D01*
X028159Y043081D01*
X028231Y043257D01*
X028231Y043447D01*
X028159Y043623D01*
X028023Y043758D02*
X036772Y043758D01*
X036772Y043917D02*
X025350Y043917D01*
X025350Y043904D02*
X025350Y044094D01*
X025277Y044270D01*
X025143Y044404D01*
X024967Y044477D01*
X024777Y044477D01*
X024601Y044404D01*
X024467Y044270D01*
X024394Y044094D01*
X024394Y043904D01*
X024467Y043728D01*
X024601Y043594D01*
X024777Y043521D01*
X024967Y043521D01*
X025143Y043594D01*
X025277Y043728D01*
X025350Y043904D01*
X025290Y043758D02*
X027484Y043758D01*
X027338Y043599D02*
X025149Y043599D01*
X025350Y044075D02*
X027519Y044075D01*
X027533Y044069D02*
X027723Y044069D01*
X027899Y044142D01*
X028034Y044276D01*
X028106Y044452D01*
X028106Y044642D01*
X028034Y044818D01*
X027899Y044952D01*
X027723Y045025D01*
X027533Y045025D01*
X027357Y044952D01*
X027223Y044818D01*
X027150Y044642D01*
X027150Y044452D01*
X027223Y044276D01*
X027357Y044142D01*
X027533Y044069D01*
X027738Y044075D02*
X036772Y044075D01*
X036772Y044234D02*
X027991Y044234D01*
X028082Y044392D02*
X036772Y044392D01*
X036772Y044551D02*
X033635Y044551D01*
X033674Y044567D02*
X033809Y044701D01*
X033881Y044877D01*
X033881Y045067D01*
X033809Y045243D01*
X033674Y045377D01*
X033498Y045450D01*
X033308Y045450D01*
X033132Y045377D01*
X032998Y045243D01*
X032925Y045067D01*
X032925Y044877D01*
X032998Y044701D01*
X033132Y044567D01*
X033308Y044494D01*
X033498Y044494D01*
X033674Y044567D01*
X033812Y044709D02*
X036772Y044709D01*
X036772Y044868D02*
X033878Y044868D01*
X033881Y045026D02*
X036772Y045026D01*
X036772Y045185D02*
X033833Y045185D01*
X033708Y045343D02*
X036772Y045343D01*
X036772Y045502D02*
X016155Y045502D01*
X016017Y045343D02*
X033098Y045343D01*
X032974Y045185D02*
X015879Y045185D01*
X015742Y045026D02*
X018434Y045026D01*
X018352Y044992D02*
X018528Y045065D01*
X018718Y045065D01*
X018894Y044992D01*
X019029Y044858D01*
X019101Y044682D01*
X019101Y044492D01*
X019029Y044316D01*
X018894Y044182D01*
X018718Y044109D01*
X018528Y044109D01*
X018352Y044182D01*
X018218Y044316D01*
X018145Y044492D01*
X018145Y044682D01*
X018218Y044858D01*
X018352Y044992D01*
X018228Y044868D02*
X015604Y044868D01*
X015466Y044709D02*
X018156Y044709D01*
X018145Y044551D02*
X015329Y044551D01*
X015191Y044392D02*
X018187Y044392D01*
X018301Y044234D02*
X015053Y044234D01*
X014916Y044075D02*
X023155Y044075D01*
X023155Y044082D02*
X023155Y043892D01*
X023228Y043716D01*
X023362Y043582D01*
X023538Y043509D01*
X023728Y043509D01*
X023904Y043582D01*
X024039Y043716D01*
X024111Y043892D01*
X024111Y044082D01*
X024039Y044258D01*
X023904Y044392D01*
X024589Y044392D01*
X024452Y044234D02*
X024049Y044234D01*
X024111Y044075D02*
X024394Y044075D01*
X024394Y043917D02*
X024111Y043917D01*
X024056Y043758D02*
X024454Y043758D01*
X024595Y043599D02*
X023922Y043599D01*
X023345Y043599D02*
X014522Y043599D01*
X014522Y043441D02*
X027275Y043441D01*
X027275Y043282D02*
X014522Y043282D01*
X014522Y043124D02*
X027330Y043124D01*
X027464Y042965D02*
X014522Y042965D01*
X014522Y042807D02*
X036772Y042807D01*
X036772Y042965D02*
X028043Y042965D01*
X028176Y043124D02*
X036772Y043124D01*
X036772Y043282D02*
X028231Y043282D01*
X028231Y043441D02*
X036772Y043441D01*
X037345Y041697D02*
X050347Y041697D01*
X050347Y041221D02*
X040615Y041221D01*
X040767Y041063D02*
X050347Y041063D01*
X050347Y040904D02*
X040831Y040904D01*
X040831Y040746D02*
X050347Y040746D01*
X050347Y040587D02*
X040778Y040587D01*
X040646Y040429D02*
X050347Y040429D01*
X048810Y043758D02*
X047434Y043758D01*
X047554Y043917D02*
X048690Y043917D01*
X048644Y044075D02*
X047600Y044075D01*
X047594Y044234D02*
X048651Y044234D01*
X048717Y044392D02*
X047528Y044392D01*
X047337Y044551D02*
X048908Y044551D01*
X048572Y046136D02*
X009833Y046136D01*
X009664Y045978D02*
X015883Y045978D01*
X015743Y045819D02*
X009495Y045819D01*
X009326Y045661D02*
X015603Y045661D01*
X015463Y045502D02*
X009157Y045502D01*
X009072Y045343D02*
X015322Y045343D01*
X015182Y045185D02*
X009072Y045185D01*
X009072Y045026D02*
X015042Y045026D01*
X014902Y044868D02*
X013639Y044868D01*
X013614Y044892D02*
X013438Y044965D01*
X013248Y044965D01*
X013072Y044892D01*
X012938Y044758D01*
X012865Y044582D01*
X012865Y044392D01*
X012938Y044216D01*
X013072Y044082D01*
X013248Y044009D01*
X013438Y044009D01*
X013614Y044082D01*
X013749Y044216D01*
X013821Y044392D01*
X013821Y044582D01*
X013749Y044758D01*
X013614Y044892D01*
X013769Y044709D02*
X014762Y044709D01*
X014622Y044551D02*
X013821Y044551D01*
X013821Y044392D02*
X014482Y044392D01*
X014342Y044234D02*
X013756Y044234D01*
X013598Y044075D02*
X014202Y044075D01*
X014061Y043917D02*
X009072Y043917D01*
X009072Y044075D02*
X013089Y044075D01*
X012931Y044234D02*
X009072Y044234D01*
X009072Y044392D02*
X012865Y044392D01*
X012865Y044551D02*
X009072Y044551D01*
X009072Y044709D02*
X012918Y044709D01*
X013048Y044868D02*
X009072Y044868D01*
X008572Y044868D02*
X008302Y044868D01*
X008283Y044937D02*
X008129Y045204D01*
X007911Y045421D01*
X007645Y045576D01*
X007347Y045655D01*
X007039Y045655D01*
X006741Y045576D01*
X006475Y045421D01*
X006257Y045204D01*
X006103Y044937D01*
X006023Y044639D01*
X006023Y044331D01*
X006103Y044034D01*
X006257Y043767D01*
X006475Y043549D01*
X006741Y043395D01*
X007039Y043315D01*
X007347Y043315D01*
X007645Y043395D01*
X007911Y043549D01*
X008129Y043767D01*
X008283Y044034D01*
X008363Y044331D01*
X008363Y044639D01*
X008283Y044937D01*
X008232Y045026D02*
X008572Y045026D01*
X008572Y045185D02*
X008140Y045185D01*
X007989Y045343D02*
X008572Y045343D01*
X008572Y045502D02*
X007772Y045502D01*
X008613Y045661D02*
X004262Y045661D01*
X004262Y045819D02*
X008779Y045819D01*
X008946Y045978D02*
X004262Y045978D01*
X004262Y046136D02*
X009113Y046136D01*
X009280Y046295D02*
X004262Y046295D01*
X004262Y046453D02*
X009447Y046453D01*
X009614Y046612D02*
X004262Y046612D01*
X004262Y046770D02*
X009781Y046770D01*
X009948Y046929D02*
X004262Y046929D01*
X004262Y047087D02*
X010115Y047087D01*
X010281Y047246D02*
X004262Y047246D01*
X004262Y047405D02*
X010448Y047405D01*
X010615Y047563D02*
X004262Y047563D01*
X004262Y047722D02*
X004790Y047722D01*
X004829Y047683D02*
X005019Y047604D01*
X005225Y047604D01*
X005416Y047683D01*
X005561Y047829D01*
X005640Y048019D01*
X005640Y048225D01*
X005561Y048416D01*
X005416Y048561D01*
X005225Y048640D01*
X005019Y048640D01*
X004829Y048561D01*
X004683Y048416D01*
X004604Y048225D01*
X004604Y048019D01*
X004683Y047829D01*
X004829Y047683D01*
X004662Y047880D02*
X004262Y047880D01*
X004262Y048039D02*
X004604Y048039D01*
X004604Y048197D02*
X004262Y048197D01*
X004262Y048356D02*
X004658Y048356D01*
X004782Y048514D02*
X004262Y048514D01*
X004262Y048673D02*
X011783Y048673D01*
X011617Y048514D02*
X009463Y048514D01*
X009416Y048561D02*
X009225Y048640D01*
X009019Y048640D01*
X008829Y048561D01*
X008683Y048416D01*
X008604Y048225D01*
X008604Y048019D01*
X008683Y047829D01*
X008829Y047683D01*
X009019Y047604D01*
X009225Y047604D01*
X009416Y047683D01*
X009561Y047829D01*
X009640Y048019D01*
X009640Y048225D01*
X009561Y048416D01*
X009416Y048561D01*
X009586Y048356D02*
X011450Y048356D01*
X011283Y048197D02*
X009640Y048197D01*
X009640Y048039D02*
X011116Y048039D01*
X010949Y047880D02*
X009583Y047880D01*
X009454Y047722D02*
X010782Y047722D01*
X010171Y046453D02*
X048572Y046453D01*
X048572Y046295D02*
X010002Y046295D01*
X008790Y047722D02*
X005454Y047722D01*
X005583Y047880D02*
X008662Y047880D01*
X008604Y048039D02*
X005640Y048039D01*
X005640Y048197D02*
X008604Y048197D01*
X008658Y048356D02*
X005586Y048356D01*
X005463Y048514D02*
X008782Y048514D01*
X007515Y049783D02*
X010729Y049783D01*
X010683Y049829D02*
X010829Y049683D01*
X011019Y049604D01*
X011225Y049604D01*
X011416Y049683D01*
X011561Y049829D01*
X011640Y050019D01*
X011640Y050225D01*
X011561Y050416D01*
X011416Y050561D01*
X011225Y050640D01*
X011019Y050640D01*
X010829Y050561D01*
X010683Y050416D01*
X010604Y050225D01*
X010604Y050019D01*
X010683Y049829D01*
X010636Y049941D02*
X007608Y049941D01*
X007640Y050100D02*
X010604Y050100D01*
X010618Y050258D02*
X007627Y050258D01*
X007274Y049624D02*
X010971Y049624D01*
X011274Y049624D02*
X012785Y049624D01*
X012952Y049783D02*
X011515Y049783D01*
X011608Y049941D02*
X013119Y049941D01*
X013285Y050100D02*
X011640Y050100D01*
X011627Y050258D02*
X013452Y050258D01*
X013619Y050417D02*
X011560Y050417D01*
X011382Y050575D02*
X013786Y050575D01*
X013953Y050734D02*
X009072Y050734D01*
X009072Y050892D02*
X015347Y050892D01*
X015347Y051051D02*
X013716Y051051D01*
X013762Y051063D02*
X014029Y051217D01*
X014246Y051435D01*
X014400Y051702D01*
X014480Y052000D01*
X014480Y052308D01*
X014400Y052605D01*
X014246Y052872D01*
X014029Y053090D01*
X013762Y053244D01*
X013464Y053324D01*
X013156Y053324D01*
X012859Y053244D01*
X012592Y053090D01*
X012374Y052872D01*
X012220Y052605D01*
X012140Y052308D01*
X012140Y052000D01*
X012220Y051702D01*
X012374Y051435D01*
X012592Y051217D01*
X012859Y051063D01*
X013156Y050984D01*
X013464Y050984D01*
X013762Y051063D01*
X014015Y051210D02*
X015347Y051210D01*
X015347Y051368D02*
X014179Y051368D01*
X014299Y051527D02*
X015347Y051527D01*
X015347Y051685D02*
X014391Y051685D01*
X014438Y051844D02*
X015347Y051844D01*
X015347Y052002D02*
X014480Y052002D01*
X014480Y052161D02*
X015347Y052161D01*
X015347Y052319D02*
X014477Y052319D01*
X014435Y052478D02*
X015347Y052478D01*
X015347Y052636D02*
X014382Y052636D01*
X014291Y052795D02*
X015347Y052795D01*
X015347Y052954D02*
X014165Y052954D01*
X013990Y053112D02*
X015347Y053112D01*
X015347Y053271D02*
X013662Y053271D01*
X012958Y053271D02*
X009072Y053271D01*
X009072Y053429D02*
X015347Y053429D01*
X012630Y053112D02*
X009072Y053112D01*
X009072Y052954D02*
X012455Y052954D01*
X012329Y052795D02*
X009072Y052795D01*
X009234Y052636D02*
X012238Y052636D01*
X012186Y052478D02*
X009499Y052478D01*
X009601Y052319D02*
X012143Y052319D01*
X012140Y052161D02*
X009640Y052161D01*
X009633Y052002D02*
X012140Y052002D01*
X012182Y051844D02*
X009568Y051844D01*
X009418Y051685D02*
X012230Y051685D01*
X012321Y051527D02*
X009072Y051527D01*
X009072Y051368D02*
X012441Y051368D01*
X012605Y051210D02*
X009072Y051210D01*
X009072Y051051D02*
X012905Y051051D01*
X013889Y049941D02*
X022085Y049941D01*
X022051Y049927D02*
X021917Y049793D01*
X021844Y049617D01*
X021844Y049427D01*
X021917Y049251D01*
X022051Y049117D01*
X022227Y049044D01*
X022417Y049044D01*
X022593Y049117D01*
X022727Y049251D01*
X022800Y049427D01*
X022800Y049617D01*
X022727Y049793D01*
X022593Y049927D01*
X022417Y050000D01*
X022227Y050000D01*
X022051Y049927D01*
X021913Y049783D02*
X013720Y049783D01*
X013551Y049624D02*
X021847Y049624D01*
X021844Y049466D02*
X013382Y049466D01*
X013213Y049307D02*
X021894Y049307D01*
X022020Y049149D02*
X013044Y049149D01*
X012618Y049466D02*
X004262Y049466D01*
X004262Y049624D02*
X004971Y049624D01*
X004729Y049783D02*
X004262Y049783D01*
X004262Y049941D02*
X004636Y049941D01*
X004604Y050100D02*
X004262Y050100D01*
X004262Y050258D02*
X004618Y050258D01*
X005274Y049624D02*
X006971Y049624D01*
X006729Y049783D02*
X005515Y049783D01*
X005608Y049941D02*
X006636Y049941D01*
X006604Y050100D02*
X005640Y050100D01*
X005627Y050258D02*
X006618Y050258D01*
X009072Y050417D02*
X010684Y050417D01*
X010862Y050575D02*
X009072Y050575D01*
X011950Y048831D02*
X004262Y048831D01*
X004262Y048990D02*
X012117Y048990D01*
X012284Y049149D02*
X004262Y049149D01*
X004262Y049307D02*
X012451Y049307D01*
X008572Y044709D02*
X008344Y044709D01*
X008363Y044551D02*
X008572Y044551D01*
X008572Y044392D02*
X008363Y044392D01*
X008337Y044234D02*
X008572Y044234D01*
X008572Y044075D02*
X008294Y044075D01*
X008216Y043917D02*
X008572Y043917D01*
X008572Y043758D02*
X008120Y043758D01*
X007962Y043599D02*
X008572Y043599D01*
X008572Y043441D02*
X007724Y043441D01*
X008572Y043282D02*
X004262Y043282D01*
X004262Y043124D02*
X008572Y043124D01*
X008572Y042965D02*
X004262Y042965D01*
X004262Y042807D02*
X008572Y042807D01*
X008572Y042648D02*
X004262Y042648D01*
X004262Y042490D02*
X008572Y042490D01*
X009072Y042490D02*
X014022Y042490D01*
X014022Y042648D02*
X009072Y042648D01*
X009072Y042807D02*
X014022Y042807D01*
X014022Y042965D02*
X013690Y042965D01*
X013749Y043024D02*
X013821Y043199D01*
X013821Y043390D01*
X013749Y043565D01*
X013614Y043700D01*
X013438Y043773D01*
X013248Y043773D01*
X013072Y043700D01*
X012938Y043565D01*
X012865Y043390D01*
X012865Y043199D01*
X012938Y043024D01*
X013072Y042889D01*
X013248Y042816D01*
X013438Y042816D01*
X013614Y042889D01*
X013749Y043024D01*
X013790Y043124D02*
X014022Y043124D01*
X014022Y043282D02*
X013821Y043282D01*
X013800Y043441D02*
X014022Y043441D01*
X014022Y043599D02*
X013714Y043599D01*
X013474Y043758D02*
X014022Y043758D01*
X014640Y043758D02*
X023211Y043758D01*
X023155Y043917D02*
X014778Y043917D01*
X013213Y043758D02*
X009072Y043758D01*
X009072Y043599D02*
X012972Y043599D01*
X012886Y043441D02*
X009072Y043441D01*
X009072Y043282D02*
X012865Y043282D01*
X012896Y043124D02*
X009072Y043124D01*
X009072Y042965D02*
X012996Y042965D01*
X014022Y042331D02*
X009072Y042331D01*
X009072Y042173D02*
X014022Y042173D01*
X014022Y042014D02*
X009072Y042014D01*
X009072Y041856D02*
X014022Y041856D01*
X014022Y041697D02*
X009072Y041697D01*
X009072Y041538D02*
X014022Y041538D01*
X014022Y041380D02*
X009072Y041380D01*
X009072Y041221D02*
X014022Y041221D01*
X014022Y041063D02*
X009072Y041063D01*
X009072Y040904D02*
X014022Y040904D01*
X014022Y040746D02*
X009072Y040746D01*
X009072Y040587D02*
X014022Y040587D01*
X014022Y040429D02*
X013633Y040429D01*
X013614Y040447D02*
X013438Y040520D01*
X013248Y040520D01*
X013072Y040447D01*
X012938Y040313D01*
X012865Y040137D01*
X012865Y039947D01*
X012938Y039771D01*
X013072Y039637D01*
X013248Y039564D01*
X013438Y039564D01*
X013614Y039637D01*
X013749Y039771D01*
X013821Y039947D01*
X013821Y040137D01*
X013749Y040313D01*
X013614Y040447D01*
X013766Y040270D02*
X014022Y040270D01*
X014022Y040112D02*
X013821Y040112D01*
X013821Y039953D02*
X014022Y039953D01*
X014022Y039794D02*
X013758Y039794D01*
X013612Y039636D02*
X014022Y039636D01*
X014522Y039636D02*
X023243Y039636D01*
X023225Y039477D02*
X014522Y039477D01*
X014522Y039319D02*
X023260Y039319D01*
X023364Y039160D02*
X014522Y039160D01*
X014522Y039002D02*
X024593Y039002D01*
X024454Y039160D02*
X024042Y039160D01*
X024147Y039319D02*
X024394Y039319D01*
X024394Y039477D02*
X024181Y039477D01*
X024163Y039636D02*
X024453Y039636D01*
X024592Y039794D02*
X024082Y039794D01*
X023324Y039794D02*
X014522Y039794D01*
X013075Y039636D02*
X010318Y039636D01*
X010407Y039794D02*
X012928Y039794D01*
X012865Y039953D02*
X010431Y039953D01*
X010403Y040112D02*
X012865Y040112D01*
X012920Y040270D02*
X010306Y040270D01*
X009600Y040270D02*
X009072Y040270D01*
X009072Y040112D02*
X009504Y040112D01*
X009475Y039953D02*
X009072Y039953D01*
X009072Y039794D02*
X009499Y039794D01*
X009588Y039636D02*
X009072Y039636D01*
X009072Y040429D02*
X013054Y040429D01*
X014522Y038368D02*
X021622Y038368D01*
X021622Y038209D02*
X014522Y038209D01*
X014522Y038050D02*
X021622Y038050D01*
X021622Y037892D02*
X014522Y037892D01*
X014522Y037733D02*
X021622Y037733D01*
X021622Y037575D02*
X014522Y037575D01*
X014522Y037416D02*
X021622Y037416D01*
X021622Y037258D02*
X014522Y037258D01*
X014522Y037099D02*
X021622Y037099D01*
X021622Y036941D02*
X014522Y036941D01*
X014522Y036782D02*
X021622Y036782D01*
X021622Y036624D02*
X014522Y036624D01*
X014522Y036465D02*
X016789Y036465D01*
X016851Y036527D02*
X016717Y036393D01*
X016644Y036217D01*
X016644Y036027D01*
X016717Y035851D01*
X016851Y035717D01*
X017027Y035644D01*
X017217Y035644D01*
X017393Y035717D01*
X017527Y035851D01*
X017600Y036027D01*
X017600Y036217D01*
X017527Y036393D01*
X017393Y036527D01*
X017217Y036600D01*
X017027Y036600D01*
X016851Y036527D01*
X016681Y036306D02*
X014563Y036306D01*
X014600Y036148D02*
X016644Y036148D01*
X016660Y035989D02*
X014585Y035989D01*
X014522Y035831D02*
X016737Y035831D01*
X016959Y035672D02*
X014522Y035672D01*
X014522Y035514D02*
X021184Y035514D01*
X021142Y035355D02*
X014522Y035355D01*
X014522Y035197D02*
X021142Y035197D01*
X021202Y035038D02*
X014522Y035038D01*
X014522Y034880D02*
X021320Y034880D01*
X021597Y034721D02*
X014522Y034721D01*
X014522Y034563D02*
X021622Y034563D01*
X021622Y034404D02*
X018981Y034404D01*
X019068Y034368D02*
X018869Y034450D01*
X018654Y034450D01*
X018456Y034368D01*
X018304Y034216D01*
X018222Y034018D01*
X018222Y033803D01*
X018304Y033604D01*
X018456Y033453D01*
X017168Y033453D01*
X017319Y033604D01*
X017402Y033803D01*
X017402Y034018D01*
X017319Y034216D01*
X017168Y034368D01*
X016969Y034450D01*
X016754Y034450D01*
X016556Y034368D01*
X016404Y034216D01*
X016322Y034018D01*
X016322Y033803D01*
X016404Y033604D01*
X016556Y033453D01*
X014522Y033453D01*
X014522Y033611D02*
X016401Y033611D01*
X016335Y033770D02*
X014522Y033770D01*
X014559Y033928D02*
X016322Y033928D01*
X016350Y034087D02*
X014600Y034087D01*
X014589Y034245D02*
X016433Y034245D01*
X016642Y034404D02*
X014522Y034404D01*
X014522Y033294D02*
X021622Y033294D01*
X021622Y033136D02*
X014522Y033136D01*
X014522Y032977D02*
X018571Y032977D01*
X018627Y033000D02*
X018451Y032927D01*
X018317Y032793D01*
X018244Y032617D01*
X018244Y032427D01*
X018317Y032251D01*
X018451Y032117D01*
X018627Y032044D01*
X018817Y032044D01*
X018993Y032117D01*
X019127Y032251D01*
X019200Y032427D01*
X019200Y032617D01*
X019127Y032793D01*
X018993Y032927D01*
X018817Y033000D01*
X018627Y033000D01*
X018873Y032977D02*
X021622Y032977D01*
X021622Y032819D02*
X019102Y032819D01*
X019183Y032660D02*
X021622Y032660D01*
X021622Y032501D02*
X019200Y032501D01*
X019165Y032343D02*
X021622Y032343D01*
X021622Y032184D02*
X019060Y032184D01*
X018384Y032184D02*
X014600Y032184D01*
X014590Y032343D02*
X018279Y032343D01*
X018244Y032501D02*
X014522Y032501D01*
X014522Y032660D02*
X018262Y032660D01*
X018342Y032819D02*
X014522Y032819D01*
X014558Y032026D02*
X021622Y032026D01*
X021622Y031867D02*
X014522Y031867D01*
X014522Y031709D02*
X021622Y031709D01*
X021622Y031550D02*
X014522Y031550D01*
X014569Y031392D02*
X016167Y031392D01*
X016232Y031457D02*
X016098Y031323D01*
X016025Y031147D01*
X016025Y031080D01*
X015948Y031080D01*
X015772Y031007D01*
X015638Y030873D01*
X015565Y030697D01*
X015565Y030507D01*
X015638Y030331D01*
X015772Y030197D01*
X015948Y030124D01*
X016138Y030124D01*
X016314Y030197D01*
X016449Y030331D01*
X016521Y030507D01*
X016521Y030574D01*
X016598Y030574D01*
X016774Y030647D01*
X016909Y030781D01*
X016981Y030957D01*
X016981Y031147D01*
X016909Y031323D01*
X016774Y031457D01*
X016598Y031530D01*
X016408Y031530D01*
X016232Y031457D01*
X016061Y031233D02*
X014600Y031233D01*
X014579Y031075D02*
X015934Y031075D01*
X015681Y030916D02*
X014522Y030916D01*
X014522Y030757D02*
X015590Y030757D01*
X015565Y030599D02*
X014522Y030599D01*
X014522Y030440D02*
X015593Y030440D01*
X015688Y030282D02*
X014522Y030282D01*
X014522Y030123D02*
X021622Y030123D01*
X021622Y029965D02*
X014522Y029965D01*
X014522Y029806D02*
X021622Y029806D01*
X021622Y029648D02*
X014522Y029648D01*
X014522Y029489D02*
X021622Y029489D01*
X021622Y029331D02*
X014522Y029331D01*
X014522Y029172D02*
X021622Y029172D01*
X021622Y029014D02*
X014522Y029014D01*
X014522Y028855D02*
X021622Y028855D01*
X021622Y028696D02*
X014522Y028696D01*
X014522Y028538D02*
X021622Y028538D01*
X021622Y028379D02*
X014522Y028379D01*
X014522Y028221D02*
X021622Y028221D01*
X021622Y028062D02*
X014522Y028062D01*
X014522Y027904D02*
X021622Y027904D01*
X021622Y027745D02*
X014522Y027745D01*
X014522Y027587D02*
X021622Y027587D01*
X021622Y027428D02*
X014522Y027428D01*
X014522Y027270D02*
X021622Y027270D01*
X021622Y027111D02*
X014522Y027111D01*
X014522Y026952D02*
X019129Y026952D01*
X019148Y026960D02*
X018972Y026887D01*
X018838Y026753D01*
X018765Y026577D01*
X018765Y026510D01*
X018718Y026510D01*
X018542Y026437D01*
X018439Y026334D01*
X018328Y026380D01*
X018138Y026380D01*
X017962Y026307D01*
X017828Y026173D01*
X017755Y025997D01*
X017755Y025839D01*
X017728Y025850D01*
X017538Y025850D01*
X017489Y025830D01*
X017439Y025953D01*
X017304Y026087D01*
X017128Y026160D01*
X016938Y026160D01*
X016762Y026087D01*
X016628Y025953D01*
X016555Y025777D01*
X016555Y025721D01*
X016388Y025790D01*
X016198Y025790D01*
X016022Y025717D01*
X015888Y025583D01*
X015815Y025407D01*
X015815Y025217D01*
X015888Y025041D01*
X016022Y024907D01*
X016198Y024834D01*
X016388Y024834D01*
X016564Y024907D01*
X016699Y025041D01*
X016771Y025217D01*
X016771Y025273D01*
X016938Y025204D01*
X017128Y025204D01*
X017177Y025224D01*
X017228Y025101D01*
X017362Y024967D01*
X017538Y024894D01*
X017728Y024894D01*
X017904Y024967D01*
X018039Y025101D01*
X018111Y025277D01*
X018111Y025435D01*
X018138Y025424D01*
X018328Y025424D01*
X018504Y025497D01*
X018607Y025600D01*
X018718Y025554D01*
X018908Y025554D01*
X019084Y025627D01*
X019193Y025735D01*
X019248Y025601D01*
X019382Y025467D01*
X019558Y025394D01*
X019748Y025394D01*
X019924Y025467D01*
X020059Y025601D01*
X020131Y025777D01*
X020131Y025967D01*
X020059Y026143D01*
X019924Y026277D01*
X019748Y026350D01*
X019706Y026350D01*
X019721Y026387D01*
X019721Y026577D01*
X019649Y026753D01*
X019514Y026887D01*
X019338Y026960D01*
X019148Y026960D01*
X019357Y026952D02*
X021622Y026952D01*
X021622Y026794D02*
X019608Y026794D01*
X019697Y026635D02*
X021622Y026635D01*
X021622Y026477D02*
X019721Y026477D01*
X019826Y026318D02*
X021622Y026318D01*
X021622Y026160D02*
X020042Y026160D01*
X020117Y026001D02*
X021622Y026001D01*
X021622Y025843D02*
X020131Y025843D01*
X020093Y025684D02*
X021622Y025684D01*
X021622Y025526D02*
X019983Y025526D01*
X019324Y025526D02*
X018533Y025526D01*
X018111Y025367D02*
X021622Y025367D01*
X021622Y025208D02*
X018083Y025208D01*
X017987Y025050D02*
X021622Y025050D01*
X021622Y024891D02*
X016527Y024891D01*
X016702Y025050D02*
X017279Y025050D01*
X017184Y025208D02*
X017139Y025208D01*
X016928Y025208D02*
X016768Y025208D01*
X016582Y025843D02*
X014522Y025843D01*
X014522Y026001D02*
X016676Y026001D01*
X016937Y026160D02*
X014522Y026160D01*
X014522Y026318D02*
X017989Y026318D01*
X017823Y026160D02*
X017130Y026160D01*
X017390Y026001D02*
X017757Y026001D01*
X017747Y025843D02*
X017755Y025843D01*
X017520Y025843D02*
X017484Y025843D01*
X018637Y026477D02*
X014522Y026477D01*
X014522Y026635D02*
X018789Y026635D01*
X018879Y026794D02*
X014522Y026794D01*
X014022Y026001D02*
X012618Y026001D01*
X012868Y025843D02*
X014022Y025843D01*
X014022Y025684D02*
X012957Y025684D01*
X012981Y025526D02*
X014022Y025526D01*
X014022Y025367D02*
X012953Y025367D01*
X012857Y025208D02*
X014022Y025208D01*
X014522Y025208D02*
X015819Y025208D01*
X015815Y025367D02*
X014522Y025367D01*
X014522Y025526D02*
X015864Y025526D01*
X015989Y025684D02*
X014522Y025684D01*
X014522Y025050D02*
X015884Y025050D01*
X016060Y024891D02*
X014522Y024891D01*
X014522Y024733D02*
X021622Y024733D01*
X021622Y024574D02*
X014522Y024574D01*
X014522Y024416D02*
X021622Y024416D01*
X021622Y024257D02*
X014522Y024257D01*
X014522Y024099D02*
X021622Y024099D01*
X022122Y024099D02*
X023209Y024099D01*
X023156Y024257D02*
X022122Y024257D01*
X022122Y024416D02*
X023156Y024416D01*
X023221Y024574D02*
X022706Y024574D01*
X022832Y024733D02*
X023375Y024733D01*
X023892Y024733D02*
X024585Y024733D01*
X024651Y024667D02*
X024827Y024594D01*
X025017Y024594D01*
X025193Y024667D01*
X025327Y024801D01*
X025400Y024977D01*
X025400Y025167D01*
X025327Y025343D01*
X025193Y025477D01*
X025017Y025550D01*
X024827Y025550D01*
X024651Y025477D01*
X024517Y025343D01*
X024444Y025167D01*
X024444Y024977D01*
X024517Y024801D01*
X024651Y024667D01*
X024480Y024891D02*
X022881Y024891D01*
X022878Y025050D02*
X024444Y025050D01*
X024461Y025208D02*
X022813Y025208D01*
X022639Y025367D02*
X024541Y025367D01*
X024767Y025526D02*
X022122Y025526D01*
X022122Y025684D02*
X027122Y025684D01*
X027222Y025684D02*
X030875Y025684D01*
X030917Y025526D02*
X027222Y025526D01*
X027122Y025526D02*
X025077Y025526D01*
X025303Y025367D02*
X027122Y025367D01*
X027222Y025367D02*
X031032Y025367D01*
X031261Y025208D02*
X027222Y025208D01*
X027122Y025208D02*
X025383Y025208D01*
X025400Y025050D02*
X027122Y025050D01*
X027222Y025050D02*
X031244Y025050D01*
X031280Y024891D02*
X027222Y024891D01*
X027122Y024891D02*
X025365Y024891D01*
X025259Y024733D02*
X027122Y024733D01*
X027222Y024733D02*
X031385Y024733D01*
X031390Y023940D02*
X027222Y023940D01*
X027122Y023940D02*
X023928Y023940D01*
X023340Y023940D02*
X022122Y023940D01*
X022614Y023782D02*
X027122Y023782D01*
X027222Y023782D02*
X031256Y023782D01*
X032103Y025367D02*
X051756Y025367D01*
X051461Y025526D02*
X031877Y025526D01*
X031831Y025684D02*
X051302Y025684D01*
X051188Y025843D02*
X031821Y025843D01*
X031750Y026001D02*
X051099Y026001D01*
X051056Y026160D02*
X031546Y026160D01*
X031293Y026318D02*
X051024Y026318D01*
X051024Y026477D02*
X031219Y026477D01*
X031005Y026635D02*
X032986Y026635D01*
X032994Y026628D02*
X033169Y026555D01*
X033359Y026555D01*
X033535Y026628D01*
X033670Y026762D01*
X033742Y026938D01*
X033742Y027128D01*
X033670Y027304D01*
X033535Y027439D01*
X033359Y027511D01*
X033169Y027511D01*
X032994Y027439D01*
X032859Y027304D01*
X032786Y027128D01*
X032786Y026938D01*
X032859Y026762D01*
X032994Y026628D01*
X032846Y026794D02*
X027222Y026794D01*
X027122Y026794D02*
X022122Y026794D01*
X022122Y026952D02*
X025491Y026952D01*
X025442Y027001D02*
X025576Y026867D01*
X025752Y026794D01*
X025942Y026794D01*
X026118Y026867D01*
X026252Y027001D01*
X026325Y027177D01*
X026325Y027367D01*
X026252Y027543D01*
X026118Y027677D01*
X025942Y027750D01*
X025752Y027750D01*
X025576Y027677D01*
X025442Y027543D01*
X025369Y027367D01*
X025369Y027177D01*
X025442Y027001D01*
X025396Y027111D02*
X022122Y027111D01*
X022122Y027270D02*
X025369Y027270D01*
X025394Y027428D02*
X022122Y027428D01*
X022122Y027587D02*
X025486Y027587D01*
X025740Y027745D02*
X022122Y027745D01*
X022122Y027904D02*
X027122Y027904D01*
X027122Y028062D02*
X022122Y028062D01*
X022122Y028221D02*
X027122Y028221D01*
X027122Y028379D02*
X022122Y028379D01*
X022122Y028538D02*
X027122Y028538D01*
X027122Y028696D02*
X022122Y028696D01*
X022122Y028855D02*
X027122Y028855D01*
X027122Y029014D02*
X022122Y029014D01*
X022122Y029172D02*
X027122Y029172D01*
X027122Y029331D02*
X022122Y029331D01*
X022122Y029489D02*
X027122Y029489D01*
X027122Y029648D02*
X022122Y029648D01*
X022122Y029806D02*
X027122Y029806D01*
X027122Y029965D02*
X022122Y029965D01*
X022122Y030123D02*
X027122Y030123D01*
X027122Y030282D02*
X022122Y030282D01*
X022122Y030440D02*
X027122Y030440D01*
X027122Y030599D02*
X022122Y030599D01*
X022122Y030757D02*
X027122Y030757D01*
X027122Y030916D02*
X022122Y030916D01*
X022122Y031075D02*
X027122Y031075D01*
X027122Y031233D02*
X022122Y031233D01*
X022122Y031392D02*
X027122Y031392D01*
X027122Y031550D02*
X022122Y031550D01*
X022122Y031709D02*
X027122Y031709D01*
X027122Y031867D02*
X022122Y031867D01*
X022122Y032026D02*
X027122Y032026D01*
X028838Y033656D02*
X028972Y033522D01*
X029148Y033449D01*
X029240Y033449D01*
X029240Y033292D01*
X029313Y033116D01*
X029447Y032982D01*
X029623Y032909D01*
X029813Y032909D01*
X029989Y032982D01*
X030124Y033116D01*
X030196Y033292D01*
X030196Y033482D01*
X030124Y033658D01*
X029989Y033792D01*
X029813Y033865D01*
X029721Y033865D01*
X029721Y034022D01*
X029649Y034198D01*
X029514Y034332D01*
X029338Y034405D01*
X029148Y034405D01*
X028972Y034332D01*
X028838Y034198D01*
X028765Y034022D01*
X028765Y033832D01*
X028838Y033656D01*
X028883Y033611D02*
X022122Y033611D01*
X022122Y033453D02*
X029139Y033453D01*
X029240Y033294D02*
X022122Y033294D01*
X022122Y033136D02*
X029305Y033136D01*
X029459Y032977D02*
X022122Y032977D01*
X022122Y032819D02*
X031750Y032819D01*
X031665Y032977D02*
X029977Y032977D01*
X030132Y033136D02*
X031644Y033136D01*
X031676Y033294D02*
X030196Y033294D01*
X030196Y033453D02*
X031777Y033453D01*
X031989Y032660D02*
X022122Y032660D01*
X022122Y032501D02*
X048825Y032501D01*
X048696Y032343D02*
X022122Y032343D01*
X022122Y032184D02*
X048644Y032184D01*
X048645Y032026D02*
X032172Y032026D01*
X030964Y034052D02*
X030788Y033979D01*
X030598Y033979D01*
X030422Y034052D01*
X030288Y034186D01*
X030215Y034362D01*
X030215Y034552D01*
X030288Y034728D01*
X030422Y034862D01*
X030598Y034935D01*
X030788Y034935D01*
X030964Y034862D01*
X031099Y034728D01*
X031171Y034552D01*
X031171Y034362D01*
X031099Y034186D01*
X030964Y034052D01*
X030999Y034087D02*
X044644Y034087D01*
X044644Y034027D02*
X044717Y033851D01*
X044851Y033717D01*
X045027Y033644D01*
X045217Y033644D01*
X045393Y033717D01*
X045527Y033851D01*
X045600Y034027D01*
X045600Y034217D01*
X045527Y034393D01*
X045393Y034527D01*
X045217Y034600D01*
X045027Y034600D01*
X044851Y034527D01*
X044717Y034393D01*
X044644Y034217D01*
X044644Y034027D01*
X044685Y033928D02*
X029721Y033928D01*
X029695Y034087D02*
X030387Y034087D01*
X030264Y034245D02*
X029601Y034245D01*
X029342Y034404D02*
X030215Y034404D01*
X030219Y034563D02*
X022122Y034563D01*
X022122Y034721D02*
X030285Y034721D01*
X030464Y034880D02*
X022122Y034880D01*
X022122Y035038D02*
X037466Y035038D01*
X037449Y034997D02*
X037531Y035196D01*
X037683Y035347D01*
X037882Y035430D01*
X038097Y035430D01*
X038295Y035347D01*
X038447Y035196D01*
X038529Y034997D01*
X038529Y034782D01*
X038447Y034584D01*
X038295Y034432D01*
X038097Y034350D01*
X037882Y034350D01*
X037683Y034432D01*
X037531Y034584D01*
X037449Y034782D01*
X037449Y034997D01*
X037449Y034880D02*
X030923Y034880D01*
X031101Y034721D02*
X037474Y034721D01*
X037553Y034563D02*
X031167Y034563D01*
X031171Y034404D02*
X037751Y034404D01*
X038228Y034404D02*
X039651Y034404D01*
X039583Y034432D02*
X039782Y034350D01*
X039997Y034350D01*
X040195Y034432D01*
X040347Y034584D01*
X040429Y034782D01*
X040429Y034997D01*
X040347Y035196D01*
X040195Y035347D01*
X039997Y035430D01*
X039782Y035430D01*
X039583Y035347D01*
X039431Y035196D01*
X039349Y034997D01*
X039349Y034782D01*
X039431Y034584D01*
X039583Y034432D01*
X039453Y034563D02*
X038426Y034563D01*
X038504Y034721D02*
X039374Y034721D01*
X039349Y034880D02*
X038529Y034880D01*
X038512Y035038D02*
X039366Y035038D01*
X039433Y035197D02*
X038446Y035197D01*
X038276Y035355D02*
X039602Y035355D01*
X040176Y035355D02*
X050347Y035355D01*
X050347Y035197D02*
X040346Y035197D01*
X040412Y035038D02*
X050347Y035038D01*
X050347Y034880D02*
X040429Y034880D01*
X040404Y034721D02*
X050347Y034721D01*
X050347Y034563D02*
X049308Y034563D01*
X049393Y034527D02*
X049217Y034600D01*
X049027Y034600D01*
X048851Y034527D01*
X048717Y034393D01*
X048644Y034217D01*
X048644Y034027D01*
X048717Y033851D01*
X048851Y033717D01*
X049027Y033644D01*
X049217Y033644D01*
X049393Y033717D01*
X049527Y033851D01*
X049600Y034027D01*
X049600Y034217D01*
X049527Y034393D01*
X049393Y034527D01*
X049516Y034404D02*
X050347Y034404D01*
X050347Y034245D02*
X049589Y034245D01*
X049600Y034087D02*
X050347Y034087D01*
X050347Y033928D02*
X049559Y033928D01*
X049446Y033770D02*
X050347Y033770D01*
X050347Y033611D02*
X030143Y033611D01*
X030012Y033770D02*
X044798Y033770D01*
X044656Y034245D02*
X031123Y034245D01*
X029145Y034404D02*
X022122Y034404D01*
X022122Y034245D02*
X028885Y034245D01*
X028792Y034087D02*
X022122Y034087D01*
X022122Y033928D02*
X028765Y033928D01*
X028791Y033770D02*
X022122Y033770D01*
X021622Y033770D02*
X019288Y033770D01*
X019302Y033803D02*
X019219Y033604D01*
X019068Y033453D01*
X021622Y033453D01*
X021622Y033611D02*
X019222Y033611D01*
X019302Y033803D02*
X019302Y034018D01*
X019219Y034216D01*
X019068Y034368D01*
X019190Y034245D02*
X021622Y034245D01*
X021622Y034087D02*
X019273Y034087D01*
X019302Y033928D02*
X021622Y033928D01*
X022122Y035197D02*
X037533Y035197D01*
X037702Y035355D02*
X022122Y035355D01*
X022122Y035514D02*
X050347Y035514D01*
X050347Y035672D02*
X049285Y035672D01*
X049217Y035644D02*
X049393Y035717D01*
X049527Y035851D01*
X049600Y036027D01*
X049600Y036217D01*
X049527Y036393D01*
X049393Y036527D01*
X049217Y036600D01*
X049027Y036600D01*
X048851Y036527D01*
X048717Y036393D01*
X048644Y036217D01*
X048644Y036027D01*
X048717Y035851D01*
X048851Y035717D01*
X049027Y035644D01*
X049217Y035644D01*
X048959Y035672D02*
X047285Y035672D01*
X047217Y035644D02*
X047393Y035717D01*
X047527Y035851D01*
X047600Y036027D01*
X047600Y036217D01*
X047527Y036393D01*
X047393Y036527D01*
X047217Y036600D01*
X047027Y036600D01*
X046851Y036527D01*
X046717Y036393D01*
X046644Y036217D01*
X046644Y036027D01*
X046717Y035851D01*
X046851Y035717D01*
X047027Y035644D01*
X047217Y035644D01*
X046959Y035672D02*
X045285Y035672D01*
X045217Y035644D02*
X045393Y035717D01*
X045527Y035851D01*
X045600Y036027D01*
X045600Y036217D01*
X045527Y036393D01*
X045393Y036527D01*
X045217Y036600D01*
X045027Y036600D01*
X044851Y036527D01*
X044717Y036393D01*
X044644Y036217D01*
X044644Y036027D01*
X044717Y035851D01*
X044851Y035717D01*
X045027Y035644D01*
X045217Y035644D01*
X044959Y035672D02*
X028285Y035672D01*
X028507Y035831D02*
X044737Y035831D01*
X044660Y035989D02*
X028585Y035989D01*
X028600Y036148D02*
X044644Y036148D01*
X044681Y036306D02*
X028563Y036306D01*
X028591Y036465D02*
X044789Y036465D01*
X045455Y036465D02*
X046789Y036465D01*
X046681Y036306D02*
X045563Y036306D01*
X045600Y036148D02*
X046644Y036148D01*
X046660Y035989D02*
X045585Y035989D01*
X045507Y035831D02*
X046737Y035831D01*
X047455Y036465D02*
X048789Y036465D01*
X048681Y036306D02*
X047563Y036306D01*
X047600Y036148D02*
X048644Y036148D01*
X048660Y035989D02*
X047585Y035989D01*
X047507Y035831D02*
X048737Y035831D01*
X049507Y035831D02*
X050347Y035831D01*
X050347Y035989D02*
X049585Y035989D01*
X049600Y036148D02*
X050347Y036148D01*
X050347Y036306D02*
X049563Y036306D01*
X049455Y036465D02*
X050347Y036465D01*
X050347Y036624D02*
X028678Y036624D01*
X028700Y036782D02*
X031786Y036782D01*
X031680Y036941D02*
X028670Y036941D01*
X028571Y037099D02*
X031644Y037099D01*
X031661Y037258D02*
X028612Y037258D01*
X028651Y037416D02*
X031740Y037416D01*
X032504Y037416D02*
X037740Y037416D01*
X037661Y037258D02*
X032584Y037258D01*
X032600Y037099D02*
X037644Y037099D01*
X037680Y036941D02*
X032564Y036941D01*
X032458Y036782D02*
X037786Y036782D01*
X038458Y036782D02*
X040786Y036782D01*
X040680Y036941D02*
X038564Y036941D01*
X038600Y037099D02*
X040644Y037099D01*
X040661Y037258D02*
X038584Y037258D01*
X038504Y037416D02*
X040740Y037416D01*
X041600Y037099D02*
X050347Y037099D01*
X050347Y036941D02*
X041564Y036941D01*
X041458Y036782D02*
X050347Y036782D01*
X048936Y034563D02*
X047308Y034563D01*
X047393Y034527D02*
X047217Y034600D01*
X047027Y034600D01*
X046851Y034527D01*
X046717Y034393D01*
X046644Y034217D01*
X046644Y034027D01*
X046717Y033851D01*
X046851Y033717D01*
X047027Y033644D01*
X047217Y033644D01*
X047393Y033717D01*
X047527Y033851D01*
X047600Y034027D01*
X047600Y034217D01*
X047527Y034393D01*
X047393Y034527D01*
X047516Y034404D02*
X048728Y034404D01*
X048656Y034245D02*
X047589Y034245D01*
X047600Y034087D02*
X048644Y034087D01*
X048685Y033928D02*
X047559Y033928D01*
X047446Y033770D02*
X048798Y033770D01*
X046936Y034563D02*
X045308Y034563D01*
X045516Y034404D02*
X046728Y034404D01*
X046656Y034245D02*
X045589Y034245D01*
X045600Y034087D02*
X046644Y034087D01*
X046685Y033928D02*
X045559Y033928D01*
X045446Y033770D02*
X046798Y033770D01*
X044936Y034563D02*
X040326Y034563D01*
X040128Y034404D02*
X044728Y034404D01*
X043633Y031709D02*
X035812Y031709D01*
X035945Y031550D02*
X043499Y031550D01*
X043444Y031392D02*
X036000Y031392D01*
X036000Y031233D02*
X043444Y031233D01*
X043507Y031075D02*
X035937Y031075D01*
X035791Y030916D02*
X043653Y030916D01*
X037871Y038209D02*
X037272Y038209D01*
X037272Y038368D02*
X037774Y038368D01*
X037744Y038526D02*
X037272Y038526D01*
X037272Y038685D02*
X037767Y038685D01*
X037855Y038843D02*
X037272Y038843D01*
X036772Y040112D02*
X019254Y040112D01*
X019369Y040270D02*
X036772Y040270D01*
X036772Y040429D02*
X019411Y040429D01*
X019401Y040587D02*
X036772Y040587D01*
X036772Y040746D02*
X019331Y040746D01*
X019127Y040904D02*
X036772Y040904D01*
X033171Y044551D02*
X028106Y044551D01*
X028079Y044709D02*
X032995Y044709D01*
X032929Y044868D02*
X027984Y044868D01*
X027273Y044868D02*
X019019Y044868D01*
X019090Y044709D02*
X027178Y044709D01*
X027150Y044551D02*
X019101Y044551D01*
X019060Y044392D02*
X023362Y044392D01*
X023228Y044258D01*
X023155Y044082D01*
X023218Y044234D02*
X018946Y044234D01*
X018812Y045026D02*
X032925Y045026D01*
X036446Y046770D02*
X038798Y046770D01*
X038851Y046717D02*
X039027Y046644D01*
X039217Y046644D01*
X039393Y046717D01*
X039527Y046851D01*
X039600Y047027D01*
X039600Y047217D01*
X039527Y047393D01*
X039393Y047527D01*
X039217Y047600D01*
X039027Y047600D01*
X038851Y047527D01*
X038717Y047393D01*
X038644Y047217D01*
X038644Y047027D01*
X038717Y046851D01*
X038851Y046717D01*
X038685Y046929D02*
X036560Y046929D01*
X036600Y047087D02*
X038644Y047087D01*
X038656Y047246D02*
X036588Y047246D01*
X036516Y047405D02*
X038728Y047405D01*
X038937Y047563D02*
X036307Y047563D01*
X039307Y047563D02*
X040937Y047563D01*
X040851Y047527D02*
X040717Y047393D01*
X040644Y047217D01*
X040644Y047027D01*
X040717Y046851D01*
X040851Y046717D01*
X041027Y046644D01*
X041217Y046644D01*
X041393Y046717D01*
X041527Y046851D01*
X041600Y047027D01*
X041600Y047217D01*
X041527Y047393D01*
X041393Y047527D01*
X041217Y047600D01*
X041027Y047600D01*
X040851Y047527D01*
X040728Y047405D02*
X039516Y047405D01*
X039588Y047246D02*
X040656Y047246D01*
X040644Y047087D02*
X039600Y047087D01*
X039560Y046929D02*
X040685Y046929D01*
X040798Y046770D02*
X039446Y046770D01*
X041446Y046770D02*
X042798Y046770D01*
X042851Y046717D02*
X043027Y046644D01*
X043217Y046644D01*
X043393Y046717D01*
X043527Y046851D01*
X043600Y047027D01*
X043600Y047217D01*
X043527Y047393D01*
X043393Y047527D01*
X043217Y047600D01*
X043027Y047600D01*
X042851Y047527D01*
X042717Y047393D01*
X042644Y047217D01*
X042644Y047027D01*
X042717Y046851D01*
X042851Y046717D01*
X042685Y046929D02*
X041560Y046929D01*
X041600Y047087D02*
X042644Y047087D01*
X042656Y047246D02*
X041588Y047246D01*
X041516Y047405D02*
X042728Y047405D01*
X042937Y047563D02*
X041307Y047563D01*
X043307Y047563D02*
X044937Y047563D01*
X044851Y047527D02*
X044717Y047393D01*
X044644Y047217D01*
X044644Y047027D01*
X044717Y046851D01*
X044851Y046717D01*
X045027Y046644D01*
X045217Y046644D01*
X045393Y046717D01*
X045527Y046851D01*
X045600Y047027D01*
X045600Y047217D01*
X045527Y047393D01*
X045393Y047527D01*
X045217Y047600D01*
X045027Y047600D01*
X044851Y047527D01*
X044728Y047405D02*
X043516Y047405D01*
X043588Y047246D02*
X044656Y047246D01*
X044644Y047087D02*
X043600Y047087D01*
X043560Y046929D02*
X044685Y046929D01*
X044798Y046770D02*
X043446Y046770D01*
X045446Y046770D02*
X046798Y046770D01*
X046685Y046929D02*
X045560Y046929D01*
X045600Y047087D02*
X046644Y047087D01*
X046656Y047246D02*
X045588Y047246D01*
X045516Y047405D02*
X046728Y047405D01*
X046937Y047563D02*
X045307Y047563D01*
X047046Y049149D02*
X055163Y049149D01*
X055163Y049307D02*
X046887Y049307D01*
X046729Y049466D02*
X055163Y049466D01*
X055163Y049624D02*
X054274Y049624D01*
X054515Y049783D02*
X055163Y049783D01*
X055163Y049941D02*
X054608Y049941D01*
X054640Y050100D02*
X055163Y050100D01*
X055163Y050258D02*
X054627Y050258D01*
X053971Y049624D02*
X052274Y049624D01*
X052515Y049783D02*
X053729Y049783D01*
X053636Y049941D02*
X052608Y049941D01*
X052640Y050100D02*
X053604Y050100D01*
X053618Y050258D02*
X052627Y050258D01*
X051971Y049624D02*
X046570Y049624D01*
X046412Y049783D02*
X051729Y049783D01*
X051636Y049941D02*
X046253Y049941D01*
X046095Y050100D02*
X051604Y050100D01*
X051618Y050258D02*
X045936Y050258D01*
X045778Y050417D02*
X050372Y050417D01*
X050372Y050575D02*
X045619Y050575D01*
X045460Y050734D02*
X050372Y050734D01*
X050372Y051210D02*
X045190Y051210D01*
X045354Y051368D02*
X050372Y051368D01*
X050372Y051527D02*
X045474Y051527D01*
X045566Y051685D02*
X048826Y051685D01*
X048829Y051683D02*
X049019Y051604D01*
X049225Y051604D01*
X049416Y051683D01*
X049561Y051829D01*
X049640Y052019D01*
X049640Y052225D01*
X049561Y052416D01*
X049416Y052561D01*
X049225Y052640D01*
X049019Y052640D01*
X048829Y052561D01*
X048683Y052416D01*
X048604Y052225D01*
X048604Y052019D01*
X048683Y051829D01*
X048829Y051683D01*
X048677Y051844D02*
X045613Y051844D01*
X045655Y052002D02*
X048611Y052002D01*
X048604Y052161D02*
X045655Y052161D01*
X045652Y052319D02*
X048643Y052319D01*
X048745Y052478D02*
X045610Y052478D01*
X045558Y052636D02*
X049010Y052636D01*
X049234Y052636D02*
X050372Y052636D01*
X050372Y052478D02*
X049499Y052478D01*
X049601Y052319D02*
X050372Y052319D01*
X050372Y052161D02*
X049640Y052161D01*
X049633Y052002D02*
X050372Y052002D01*
X050372Y051844D02*
X049568Y051844D01*
X049418Y051685D02*
X050372Y051685D01*
X050372Y052795D02*
X045466Y052795D01*
X045340Y052954D02*
X050372Y052954D01*
X050372Y053112D02*
X045165Y053112D01*
X044837Y053271D02*
X050372Y053271D01*
X047204Y048990D02*
X055163Y048990D01*
X055163Y048831D02*
X047363Y048831D01*
X047522Y048673D02*
X055163Y048673D01*
X055163Y048514D02*
X054463Y048514D01*
X054416Y048561D02*
X054225Y048640D01*
X054019Y048640D01*
X053829Y048561D01*
X053683Y048416D01*
X053604Y048225D01*
X053604Y048019D01*
X053683Y047829D01*
X053829Y047683D01*
X054019Y047604D01*
X054225Y047604D01*
X054416Y047683D01*
X054561Y047829D01*
X054640Y048019D01*
X054640Y048225D01*
X054561Y048416D01*
X054416Y048561D01*
X054586Y048356D02*
X055163Y048356D01*
X055163Y048197D02*
X054640Y048197D01*
X054640Y048039D02*
X055163Y048039D01*
X055163Y047880D02*
X054583Y047880D01*
X054454Y047722D02*
X055163Y047722D01*
X053790Y047722D02*
X049454Y047722D01*
X049583Y047880D02*
X053662Y047880D01*
X053604Y048039D02*
X049640Y048039D01*
X049640Y048197D02*
X053604Y048197D01*
X053658Y048356D02*
X049586Y048356D01*
X049463Y048514D02*
X053782Y048514D01*
X048782Y048514D02*
X047680Y048514D01*
X047839Y048356D02*
X048658Y048356D01*
X048604Y048197D02*
X047997Y048197D01*
X048156Y048039D02*
X048604Y048039D01*
X036622Y050892D02*
X024347Y050892D01*
X024347Y051051D02*
X026025Y051051D01*
X025979Y051063D02*
X026276Y050984D01*
X026584Y050984D01*
X026882Y051063D01*
X027149Y051217D01*
X027366Y051435D01*
X027520Y051702D01*
X027600Y052000D01*
X027600Y052308D01*
X027520Y052605D01*
X027366Y052872D01*
X027149Y053090D01*
X026882Y053244D01*
X026584Y053324D01*
X026276Y053324D01*
X025979Y053244D01*
X025712Y053090D01*
X025494Y052872D01*
X025340Y052605D01*
X025260Y052308D01*
X025260Y052000D01*
X025340Y051702D01*
X025494Y051435D01*
X025712Y051217D01*
X025979Y051063D01*
X025725Y051210D02*
X024347Y051210D01*
X024347Y051368D02*
X025561Y051368D01*
X025441Y051527D02*
X024347Y051527D01*
X024347Y051685D02*
X025350Y051685D01*
X025302Y051844D02*
X024347Y051844D01*
X024347Y052002D02*
X025260Y052002D01*
X025260Y052161D02*
X024347Y052161D01*
X024347Y052319D02*
X025263Y052319D01*
X025306Y052478D02*
X024347Y052478D01*
X024347Y052636D02*
X025358Y052636D01*
X025449Y052795D02*
X024347Y052795D01*
X024347Y052954D02*
X025575Y052954D01*
X025750Y053112D02*
X024347Y053112D01*
X024347Y053271D02*
X026078Y053271D01*
X026782Y053271D02*
X034273Y053271D01*
X034174Y053244D02*
X033907Y053090D01*
X033689Y052872D01*
X033535Y052605D01*
X033455Y052308D01*
X033455Y052000D01*
X033535Y051702D01*
X033689Y051435D01*
X033907Y051217D01*
X034174Y051063D01*
X034471Y050984D01*
X034779Y050984D01*
X035077Y051063D01*
X035344Y051217D01*
X035561Y051435D01*
X035716Y051702D01*
X035795Y052000D01*
X035795Y052308D01*
X035716Y052605D01*
X035561Y052872D01*
X035344Y053090D01*
X035077Y053244D01*
X034779Y053324D01*
X034471Y053324D01*
X034174Y053244D01*
X033945Y053112D02*
X027110Y053112D01*
X027285Y052954D02*
X033770Y052954D01*
X033645Y052795D02*
X027411Y052795D01*
X027502Y052636D02*
X031010Y052636D01*
X031019Y052640D02*
X030829Y052561D01*
X030683Y052416D01*
X030604Y052225D01*
X030604Y052019D01*
X030683Y051829D01*
X030829Y051683D01*
X031019Y051604D01*
X031225Y051604D01*
X031416Y051683D01*
X031561Y051829D01*
X031640Y052019D01*
X031640Y052225D01*
X031561Y052416D01*
X031416Y052561D01*
X031225Y052640D01*
X031019Y052640D01*
X031234Y052636D02*
X033553Y052636D01*
X033501Y052478D02*
X031499Y052478D01*
X031601Y052319D02*
X033458Y052319D01*
X033455Y052161D02*
X031640Y052161D01*
X031633Y052002D02*
X033455Y052002D01*
X033497Y051844D02*
X031568Y051844D01*
X031418Y051685D02*
X033545Y051685D01*
X033636Y051527D02*
X027419Y051527D01*
X027511Y051685D02*
X030826Y051685D01*
X030677Y051844D02*
X027558Y051844D01*
X027600Y052002D02*
X030611Y052002D01*
X030604Y052161D02*
X027600Y052161D01*
X027597Y052319D02*
X030643Y052319D01*
X030745Y052478D02*
X027555Y052478D01*
X027299Y051368D02*
X033756Y051368D01*
X033920Y051210D02*
X027135Y051210D01*
X026836Y051051D02*
X034220Y051051D01*
X035031Y051051D02*
X036622Y051051D01*
X036622Y051210D02*
X035330Y051210D01*
X035494Y051368D02*
X036622Y051368D01*
X036622Y051527D02*
X035614Y051527D01*
X035706Y051685D02*
X036622Y051685D01*
X036622Y051844D02*
X035753Y051844D01*
X035795Y052002D02*
X036622Y052002D01*
X036622Y052161D02*
X035795Y052161D01*
X035792Y052319D02*
X036622Y052319D01*
X036622Y052478D02*
X035750Y052478D01*
X035698Y052636D02*
X036622Y052636D01*
X036622Y052795D02*
X035606Y052795D01*
X035480Y052954D02*
X036622Y052954D01*
X036622Y053112D02*
X035305Y053112D01*
X034977Y053271D02*
X036622Y053271D01*
X036622Y053429D02*
X024347Y053429D01*
X024485Y049941D02*
X022560Y049941D01*
X022732Y049783D02*
X024313Y049783D01*
X024247Y049624D02*
X022797Y049624D01*
X022800Y049466D02*
X024244Y049466D01*
X024294Y049307D02*
X022751Y049307D01*
X022625Y049149D02*
X024420Y049149D01*
X023728Y044465D02*
X023538Y044465D01*
X023362Y044392D01*
X023728Y044465D02*
X023904Y044392D01*
X025155Y044392D02*
X027175Y044392D01*
X027266Y044234D02*
X025292Y044234D01*
X027783Y037733D02*
X022122Y037733D01*
X022122Y037575D02*
X027709Y037575D01*
X027695Y037416D02*
X023489Y037416D01*
X023467Y037425D02*
X023277Y037425D01*
X023101Y037352D01*
X022967Y037218D01*
X022894Y037042D01*
X022894Y036852D01*
X022967Y036676D01*
X023101Y036542D01*
X023277Y036469D01*
X023379Y036469D01*
X023379Y036377D01*
X023452Y036201D01*
X023586Y036067D01*
X023762Y035994D01*
X023952Y035994D01*
X024128Y036067D01*
X024262Y036201D01*
X024335Y036377D01*
X024335Y036567D01*
X024262Y036743D01*
X024128Y036877D01*
X023952Y036950D01*
X023850Y036950D01*
X023850Y037042D01*
X023777Y037218D01*
X023643Y037352D01*
X023467Y037425D01*
X023255Y037416D02*
X022122Y037416D01*
X022122Y037258D02*
X023007Y037258D01*
X022918Y037099D02*
X022122Y037099D01*
X022122Y036941D02*
X022894Y036941D01*
X022923Y036782D02*
X022122Y036782D01*
X022122Y036624D02*
X023020Y036624D01*
X023379Y036465D02*
X022122Y036465D01*
X022122Y036306D02*
X023408Y036306D01*
X023505Y036148D02*
X022122Y036148D01*
X022122Y035989D02*
X027660Y035989D01*
X027644Y036148D02*
X024209Y036148D01*
X024306Y036306D02*
X027681Y036306D01*
X027789Y036465D02*
X024335Y036465D01*
X024312Y036624D02*
X027766Y036624D01*
X027744Y036782D02*
X024223Y036782D01*
X023975Y036941D02*
X027775Y036941D01*
X027845Y037099D02*
X023827Y037099D01*
X023738Y037258D02*
X027734Y037258D01*
X027737Y035831D02*
X022122Y035831D01*
X022122Y035672D02*
X027959Y035672D01*
X021622Y035989D02*
X017585Y035989D01*
X017600Y036148D02*
X021622Y036148D01*
X021622Y036306D02*
X017563Y036306D01*
X017455Y036465D02*
X021622Y036465D01*
X021495Y035831D02*
X017507Y035831D01*
X017285Y035672D02*
X021277Y035672D01*
X018542Y034404D02*
X017081Y034404D01*
X017290Y034245D02*
X018333Y034245D01*
X018250Y034087D02*
X017373Y034087D01*
X017402Y033928D02*
X018222Y033928D01*
X018235Y033770D02*
X017388Y033770D01*
X017322Y033611D02*
X018301Y033611D01*
X018456Y033453D02*
X018654Y033370D01*
X018869Y033370D01*
X019068Y033453D01*
X017168Y033453D02*
X016969Y033370D01*
X016754Y033370D01*
X016556Y033453D01*
X016840Y031392D02*
X021622Y031392D01*
X021622Y031233D02*
X016946Y031233D01*
X016981Y031075D02*
X018998Y031075D01*
X019051Y031127D02*
X018917Y030993D01*
X018844Y030817D01*
X018844Y030627D01*
X018917Y030451D01*
X019051Y030317D01*
X019227Y030244D01*
X019417Y030244D01*
X019593Y030317D01*
X019727Y030451D01*
X019800Y030627D01*
X019800Y030817D01*
X019727Y030993D01*
X019593Y031127D01*
X019417Y031200D01*
X019227Y031200D01*
X019051Y031127D01*
X018885Y030916D02*
X016964Y030916D01*
X016885Y030757D02*
X018844Y030757D01*
X018856Y030599D02*
X016658Y030599D01*
X016494Y030440D02*
X018928Y030440D01*
X019136Y030282D02*
X016399Y030282D01*
X019508Y030282D02*
X021622Y030282D01*
X021622Y030440D02*
X019716Y030440D01*
X019789Y030599D02*
X021622Y030599D01*
X021622Y030757D02*
X019800Y030757D01*
X019759Y030916D02*
X021622Y030916D01*
X021622Y031075D02*
X019646Y031075D01*
X022122Y026635D02*
X025009Y026635D01*
X025051Y026677D02*
X024917Y026543D01*
X024844Y026367D01*
X024844Y026177D01*
X024917Y026001D01*
X022122Y026001D01*
X022122Y025843D02*
X025110Y025843D01*
X025051Y025867D02*
X025227Y025794D01*
X025417Y025794D01*
X025593Y025867D01*
X025727Y026001D01*
X025808Y026001D01*
X025727Y026001D02*
X025769Y026102D01*
X025769Y026096D01*
X025842Y025920D01*
X025976Y025786D01*
X026152Y025713D01*
X026342Y025713D01*
X026518Y025786D01*
X026652Y025920D01*
X026725Y026096D01*
X026725Y026286D01*
X026652Y026462D01*
X026518Y026596D01*
X026342Y026669D01*
X026152Y026669D01*
X025976Y026596D01*
X025842Y026462D01*
X025800Y026361D01*
X025800Y026367D01*
X025727Y026543D01*
X025593Y026677D01*
X025417Y026750D01*
X025227Y026750D01*
X025051Y026677D01*
X024889Y026477D02*
X022122Y026477D01*
X022122Y026318D02*
X024844Y026318D01*
X024851Y026160D02*
X022122Y026160D01*
X022122Y025367D02*
X022168Y025367D01*
X024917Y026001D02*
X025051Y025867D01*
X025534Y025843D02*
X025920Y025843D01*
X025857Y026477D02*
X025755Y026477D01*
X025635Y026635D02*
X026070Y026635D01*
X026204Y026952D02*
X027122Y026952D01*
X027222Y026952D02*
X032786Y026952D01*
X032786Y027111D02*
X027222Y027111D01*
X027122Y027111D02*
X026298Y027111D01*
X026325Y027270D02*
X027122Y027270D01*
X027122Y027428D02*
X026300Y027428D01*
X026209Y027587D02*
X027122Y027587D01*
X027122Y027745D02*
X025955Y027745D01*
X026424Y026635D02*
X027122Y026635D01*
X027222Y026635D02*
X030652Y026635D01*
X030438Y026477D02*
X027222Y026477D01*
X027122Y026477D02*
X026638Y026477D01*
X026712Y026318D02*
X027122Y026318D01*
X027222Y026318D02*
X030364Y026318D01*
X030350Y026160D02*
X027222Y026160D01*
X027122Y026160D02*
X026725Y026160D01*
X026686Y026001D02*
X027122Y026001D01*
X027222Y026001D02*
X030389Y026001D01*
X030501Y025843D02*
X027222Y025843D01*
X027122Y025843D02*
X026575Y025843D01*
X027456Y023464D02*
X028788Y023464D01*
X028681Y023306D02*
X027564Y023306D01*
X027600Y023147D02*
X028644Y023147D01*
X028660Y022989D02*
X027584Y022989D01*
X027506Y022830D02*
X028738Y022830D01*
X028960Y022672D02*
X027284Y022672D01*
X027222Y021562D02*
X028935Y021562D01*
X028851Y021527D02*
X028717Y021393D01*
X028644Y021217D01*
X028644Y021027D01*
X028717Y020851D01*
X028851Y020717D01*
X029027Y020644D01*
X029217Y020644D01*
X029393Y020717D01*
X029527Y020851D01*
X029600Y021027D01*
X029600Y021217D01*
X029527Y021393D01*
X029393Y021527D01*
X029217Y021600D01*
X029027Y021600D01*
X028851Y021527D01*
X028727Y021403D02*
X027222Y021403D01*
X027122Y021403D02*
X023517Y021403D01*
X023527Y021393D02*
X023393Y021527D01*
X023217Y021600D01*
X023027Y021600D01*
X022851Y021527D01*
X022717Y021393D01*
X022644Y021217D01*
X022644Y021027D01*
X022717Y020851D01*
X022851Y020717D01*
X023027Y020644D01*
X023217Y020644D01*
X023393Y020717D01*
X023527Y020851D01*
X023600Y021027D01*
X023600Y021217D01*
X023527Y021393D01*
X023589Y021245D02*
X027122Y021245D01*
X027222Y021245D02*
X028656Y021245D01*
X028644Y021086D02*
X027222Y021086D01*
X027122Y021086D02*
X023600Y021086D01*
X023559Y020928D02*
X027122Y020928D01*
X027222Y020928D02*
X028685Y020928D01*
X028799Y020769D02*
X027222Y020769D01*
X027122Y020769D02*
X023445Y020769D01*
X022799Y020769D02*
X013809Y020769D01*
X013748Y020744D02*
X013924Y020817D01*
X014059Y020951D01*
X014131Y021127D01*
X014131Y021317D01*
X014059Y021493D01*
X013924Y021627D01*
X013748Y021700D01*
X013558Y021700D01*
X013382Y021627D01*
X013248Y021493D01*
X013175Y021317D01*
X013175Y021127D01*
X013248Y020951D01*
X013382Y020817D01*
X013558Y020744D01*
X013748Y020744D01*
X013497Y020769D02*
X008472Y020769D01*
X008472Y020611D02*
X027122Y020611D01*
X027222Y020611D02*
X050747Y020611D01*
X050747Y020769D02*
X029445Y020769D01*
X029559Y020928D02*
X050747Y020928D01*
X050747Y021086D02*
X029600Y021086D01*
X029589Y021245D02*
X050747Y021245D01*
X050747Y021403D02*
X029517Y021403D01*
X029310Y021562D02*
X050747Y021562D01*
X050747Y022038D02*
X035444Y022038D01*
X035481Y022196D02*
X050747Y022196D01*
X050747Y022355D02*
X035466Y022355D01*
X035388Y022513D02*
X050747Y022513D01*
X050747Y022672D02*
X035167Y022672D01*
X034839Y022672D02*
X029284Y022672D01*
X029506Y022830D02*
X050747Y022830D01*
X050747Y023623D02*
X034799Y023623D01*
X034865Y023782D02*
X050747Y023782D01*
X050747Y023940D02*
X034871Y023940D01*
X034825Y024099D02*
X050747Y024099D01*
X050747Y024257D02*
X034704Y024257D01*
X034659Y024416D02*
X050747Y024416D01*
X051039Y026635D02*
X033543Y026635D01*
X033683Y026794D02*
X051081Y026794D01*
X051150Y026952D02*
X033742Y026952D01*
X033742Y027111D02*
X051242Y027111D01*
X051395Y027270D02*
X033684Y027270D01*
X033546Y027428D02*
X051622Y027428D01*
X052434Y030757D02*
X053811Y030757D01*
X053690Y030916D02*
X052554Y030916D01*
X052600Y031075D02*
X053644Y031075D01*
X053651Y031233D02*
X052594Y031233D01*
X052528Y031392D02*
X053716Y031392D01*
X053906Y031550D02*
X052338Y031550D01*
X055163Y025050D02*
X034416Y025050D01*
X034620Y024891D02*
X055163Y024891D01*
X055163Y024733D02*
X034691Y024733D01*
X034701Y024574D02*
X055163Y024574D01*
X055163Y024416D02*
X053460Y024416D01*
X053460Y024257D02*
X055163Y024257D01*
X055163Y024099D02*
X053460Y024099D01*
X053460Y023940D02*
X055163Y023940D01*
X055163Y023782D02*
X053460Y023782D01*
X053460Y023623D02*
X055163Y023623D01*
X055163Y023464D02*
X053460Y023464D01*
X053460Y023306D02*
X055163Y023306D01*
X055163Y023147D02*
X053460Y023147D01*
X053460Y022989D02*
X055163Y022989D01*
X055163Y022830D02*
X053460Y022830D01*
X053460Y022672D02*
X055163Y022672D01*
X055163Y022513D02*
X053460Y022513D01*
X053460Y022355D02*
X055163Y022355D01*
X055163Y022196D02*
X053460Y022196D01*
X053460Y022038D02*
X055163Y022038D01*
X055163Y021879D02*
X053460Y021879D01*
X053460Y021721D02*
X055163Y021721D01*
X055163Y021562D02*
X053460Y021562D01*
X053460Y021403D02*
X055163Y021403D01*
X055163Y021245D02*
X053460Y021245D01*
X053460Y021086D02*
X055163Y021086D01*
X055163Y020928D02*
X053460Y020928D01*
X053460Y020769D02*
X055163Y020769D01*
X055163Y020611D02*
X053460Y020611D01*
X053460Y020452D02*
X055163Y020452D01*
X055163Y019322D02*
X053460Y019322D01*
X053460Y011772D01*
X049672Y011772D01*
X047289Y009571D01*
X047393Y009527D01*
X047527Y009393D01*
X047600Y009217D01*
X047600Y009027D01*
X047527Y008851D01*
X047393Y008717D01*
X047217Y008644D01*
X047027Y008644D01*
X046851Y008717D01*
X046717Y008851D01*
X046660Y008989D01*
X046208Y008572D01*
X044122Y008572D01*
X044122Y005935D01*
X035022Y005935D01*
X035022Y008572D01*
X024397Y008572D01*
X024397Y005935D01*
X015347Y005935D01*
X015347Y008572D01*
X012622Y008572D01*
X009172Y011972D01*
X005854Y011972D01*
X005854Y018772D01*
X004262Y018772D01*
X004262Y009072D01*
X004644Y009072D01*
X004644Y009217D01*
X004717Y009393D01*
X004851Y009527D01*
X005027Y009600D01*
X005217Y009600D01*
X005393Y009527D01*
X005527Y009393D01*
X005600Y009217D01*
X005600Y009072D01*
X009072Y009072D01*
X009072Y004262D01*
X050372Y004262D01*
X050372Y009072D01*
X052644Y009072D01*
X052644Y009217D01*
X052717Y009393D01*
X052851Y009527D01*
X053027Y009600D01*
X053217Y009600D01*
X053393Y009527D01*
X053527Y009393D01*
X053600Y009217D01*
X053600Y009072D01*
X054644Y009072D01*
X054644Y009217D01*
X054717Y009393D01*
X054851Y009527D01*
X055027Y009600D01*
X055163Y009600D01*
X055163Y010644D01*
X055027Y010644D01*
X054851Y010717D01*
X054717Y010851D01*
X054644Y011027D01*
X054644Y011217D01*
X054717Y011393D01*
X054851Y011527D01*
X055027Y011600D01*
X055163Y011600D01*
X055163Y019322D01*
X055163Y019184D02*
X053460Y019184D01*
X053460Y019025D02*
X055163Y019025D01*
X055163Y018867D02*
X053460Y018867D01*
X053460Y018708D02*
X055163Y018708D01*
X055163Y018550D02*
X053460Y018550D01*
X053460Y018391D02*
X055163Y018391D01*
X055163Y018233D02*
X053460Y018233D01*
X053460Y018074D02*
X055163Y018074D01*
X055163Y017915D02*
X053460Y017915D01*
X053460Y017757D02*
X055163Y017757D01*
X055163Y017598D02*
X053460Y017598D01*
X053460Y017440D02*
X055163Y017440D01*
X055163Y017281D02*
X053460Y017281D01*
X053460Y017123D02*
X055163Y017123D01*
X055163Y016964D02*
X053460Y016964D01*
X053460Y016806D02*
X055163Y016806D01*
X055163Y016647D02*
X053460Y016647D01*
X053460Y016489D02*
X055163Y016489D01*
X055163Y016330D02*
X053460Y016330D01*
X053460Y016171D02*
X055163Y016171D01*
X055163Y016013D02*
X053460Y016013D01*
X053460Y015854D02*
X055163Y015854D01*
X055163Y015696D02*
X053460Y015696D01*
X053460Y015537D02*
X055163Y015537D01*
X055163Y015379D02*
X053460Y015379D01*
X053460Y015220D02*
X055163Y015220D01*
X055163Y015062D02*
X053460Y015062D01*
X053460Y014903D02*
X055163Y014903D01*
X055163Y014745D02*
X053460Y014745D01*
X053460Y014586D02*
X055163Y014586D01*
X055163Y014428D02*
X053460Y014428D01*
X053460Y014269D02*
X055163Y014269D01*
X055163Y014110D02*
X053460Y014110D01*
X053460Y013952D02*
X055163Y013952D01*
X055163Y013793D02*
X053460Y013793D01*
X053460Y013635D02*
X055163Y013635D01*
X055163Y013476D02*
X053460Y013476D01*
X053460Y013318D02*
X055163Y013318D01*
X055163Y013159D02*
X053460Y013159D01*
X053460Y013001D02*
X055163Y013001D01*
X055163Y012842D02*
X053460Y012842D01*
X053460Y012684D02*
X055163Y012684D01*
X055163Y012525D02*
X053460Y012525D01*
X053460Y012366D02*
X055163Y012366D01*
X055163Y012208D02*
X053460Y012208D01*
X053460Y012049D02*
X055163Y012049D01*
X055163Y011891D02*
X053460Y011891D01*
X054660Y011257D02*
X049114Y011257D01*
X049286Y011415D02*
X054739Y011415D01*
X054963Y011574D02*
X049457Y011574D01*
X049629Y011732D02*
X055163Y011732D01*
X054644Y011098D02*
X048942Y011098D01*
X048771Y010940D02*
X054680Y010940D01*
X054787Y010781D02*
X048599Y010781D01*
X048428Y010622D02*
X055163Y010622D01*
X055163Y010464D02*
X048256Y010464D01*
X048084Y010305D02*
X055163Y010305D01*
X055163Y010147D02*
X047913Y010147D01*
X047741Y009988D02*
X055163Y009988D01*
X055163Y009830D02*
X047569Y009830D01*
X047398Y009671D02*
X055163Y009671D01*
X054837Y009513D02*
X053408Y009513D01*
X053544Y009354D02*
X054701Y009354D01*
X054644Y009196D02*
X053600Y009196D01*
X052837Y009513D02*
X047408Y009513D01*
X047544Y009354D02*
X052701Y009354D01*
X052644Y009196D02*
X047600Y009196D01*
X047600Y009037D02*
X050372Y009037D01*
X050372Y008879D02*
X047539Y008879D01*
X047396Y008720D02*
X050372Y008720D01*
X050372Y008561D02*
X044122Y008561D01*
X044122Y008403D02*
X050372Y008403D01*
X050372Y008244D02*
X046554Y008244D01*
X046551Y008246D02*
X046264Y008323D01*
X045966Y008323D01*
X045679Y008246D01*
X045421Y008097D01*
X045211Y007887D01*
X045062Y007629D01*
X044985Y007342D01*
X044985Y007044D01*
X045062Y006757D01*
X045211Y006499D01*
X045421Y006289D01*
X045679Y006140D01*
X045966Y006063D01*
X046264Y006063D01*
X046551Y006140D01*
X046809Y006289D01*
X047019Y006499D01*
X047168Y006757D01*
X047245Y007044D01*
X047245Y007342D01*
X047168Y007629D01*
X047019Y007887D01*
X046809Y008097D01*
X046551Y008246D01*
X046821Y008086D02*
X050372Y008086D01*
X050372Y007927D02*
X046979Y007927D01*
X047088Y007769D02*
X050372Y007769D01*
X050372Y007610D02*
X047173Y007610D01*
X047216Y007452D02*
X050372Y007452D01*
X050372Y007293D02*
X047245Y007293D01*
X047245Y007135D02*
X050372Y007135D01*
X050372Y006976D02*
X047227Y006976D01*
X047184Y006817D02*
X050372Y006817D01*
X050372Y006659D02*
X047112Y006659D01*
X047020Y006500D02*
X050372Y006500D01*
X050372Y006342D02*
X046862Y006342D01*
X046626Y006183D02*
X050372Y006183D01*
X050372Y006025D02*
X044122Y006025D01*
X044122Y006183D02*
X045604Y006183D01*
X045368Y006342D02*
X044122Y006342D01*
X044122Y006500D02*
X045210Y006500D01*
X045119Y006659D02*
X044122Y006659D01*
X044122Y006817D02*
X045046Y006817D01*
X045004Y006976D02*
X044122Y006976D01*
X044122Y007135D02*
X044985Y007135D01*
X044985Y007293D02*
X044122Y007293D01*
X044122Y007452D02*
X045015Y007452D01*
X045057Y007610D02*
X044122Y007610D01*
X044122Y007769D02*
X045143Y007769D01*
X045251Y007927D02*
X044122Y007927D01*
X044122Y008086D02*
X045410Y008086D01*
X045676Y008244D02*
X044122Y008244D01*
X043600Y009072D02*
X043600Y009217D01*
X043527Y009393D01*
X043393Y009527D01*
X043217Y009600D01*
X043027Y009600D01*
X042851Y009527D01*
X042717Y009393D01*
X042644Y009217D01*
X042644Y009072D01*
X035600Y009072D01*
X035600Y009217D01*
X035527Y009393D01*
X035393Y009527D01*
X035217Y009600D01*
X035027Y009600D01*
X034851Y009527D01*
X034717Y009393D01*
X034644Y009217D01*
X034644Y009072D01*
X033600Y009072D01*
X033600Y009217D01*
X033527Y009393D01*
X033393Y009527D01*
X033217Y009600D01*
X033027Y009600D01*
X032851Y009527D01*
X032717Y009393D01*
X032644Y009217D01*
X032644Y009072D01*
X032372Y009072D01*
X032372Y014172D01*
X015122Y014122D01*
X015122Y017272D01*
X013578Y017272D01*
X013527Y017393D01*
X013393Y017527D01*
X013217Y017600D01*
X013027Y017600D01*
X012851Y017527D01*
X012717Y017393D01*
X012667Y017272D01*
X008472Y017272D01*
X008472Y019122D01*
X050747Y019122D01*
X050747Y013372D01*
X045972Y009072D01*
X043600Y009072D01*
X043600Y009196D02*
X046109Y009196D01*
X046285Y009354D02*
X043544Y009354D01*
X043408Y009513D02*
X046461Y009513D01*
X046637Y009671D02*
X038083Y009671D01*
X038017Y009644D02*
X038193Y009717D01*
X038327Y009851D01*
X038400Y010027D01*
X038400Y010217D01*
X038327Y010393D01*
X038193Y010527D01*
X038017Y010600D01*
X037827Y010600D01*
X037651Y010527D01*
X037517Y010393D01*
X037444Y010217D01*
X037444Y010027D01*
X037517Y009851D01*
X037651Y009717D01*
X037827Y009644D01*
X038017Y009644D01*
X037762Y009671D02*
X032372Y009671D01*
X032372Y009513D02*
X032837Y009513D01*
X032701Y009354D02*
X032372Y009354D01*
X032372Y009196D02*
X032644Y009196D01*
X032372Y009830D02*
X037539Y009830D01*
X037460Y009988D02*
X032372Y009988D01*
X032372Y010147D02*
X037444Y010147D01*
X037481Y010305D02*
X032372Y010305D01*
X032372Y010464D02*
X037588Y010464D01*
X038257Y010464D02*
X042630Y010464D01*
X042630Y010413D02*
X042702Y010237D01*
X042837Y010102D01*
X043013Y010030D01*
X043203Y010030D01*
X043379Y010102D01*
X043513Y010237D01*
X043586Y010413D01*
X043586Y010603D01*
X043513Y010779D01*
X043379Y010913D01*
X043203Y010986D01*
X043013Y010986D01*
X042837Y010913D01*
X042702Y010779D01*
X042630Y010603D01*
X042630Y010413D01*
X042674Y010305D02*
X038364Y010305D01*
X038400Y010147D02*
X042793Y010147D01*
X042638Y010622D02*
X032372Y010622D01*
X032372Y010781D02*
X032787Y010781D01*
X032851Y010717D02*
X033027Y010644D01*
X033217Y010644D01*
X033393Y010717D01*
X033527Y010851D01*
X033600Y011027D01*
X033600Y011217D01*
X033527Y011393D01*
X033393Y011527D01*
X033217Y011600D01*
X033027Y011600D01*
X032851Y011527D01*
X032717Y011393D01*
X032644Y011217D01*
X032644Y011027D01*
X032717Y010851D01*
X032851Y010717D01*
X032680Y010940D02*
X032372Y010940D01*
X032372Y011098D02*
X032644Y011098D01*
X032660Y011257D02*
X032372Y011257D01*
X032372Y011415D02*
X032739Y011415D01*
X032963Y011574D02*
X032372Y011574D01*
X032372Y011732D02*
X048926Y011732D01*
X048750Y011574D02*
X046281Y011574D01*
X046217Y011600D02*
X046027Y011600D01*
X045851Y011527D01*
X045717Y011393D01*
X045644Y011217D01*
X045644Y011027D01*
X045717Y010851D01*
X045851Y010717D01*
X046027Y010644D01*
X046217Y010644D01*
X046393Y010717D01*
X046527Y010851D01*
X046600Y011027D01*
X046600Y011217D01*
X046527Y011393D01*
X046393Y011527D01*
X046217Y011600D01*
X045963Y011574D02*
X035281Y011574D01*
X035217Y011600D02*
X035027Y011600D01*
X034851Y011527D01*
X034717Y011393D01*
X034644Y011217D01*
X034644Y011027D01*
X034717Y010851D01*
X034851Y010717D01*
X035027Y010644D01*
X035217Y010644D01*
X035393Y010717D01*
X035527Y010851D01*
X035600Y011027D01*
X035600Y011217D01*
X035527Y011393D01*
X035393Y011527D01*
X035217Y011600D01*
X034963Y011574D02*
X033281Y011574D01*
X033505Y011415D02*
X034739Y011415D01*
X034660Y011257D02*
X033584Y011257D01*
X033600Y011098D02*
X034644Y011098D01*
X034680Y010940D02*
X033564Y010940D01*
X033457Y010781D02*
X034787Y010781D01*
X035457Y010781D02*
X042705Y010781D01*
X042901Y010940D02*
X035564Y010940D01*
X035600Y011098D02*
X045644Y011098D01*
X045660Y011257D02*
X035584Y011257D01*
X035505Y011415D02*
X045739Y011415D01*
X045680Y010940D02*
X043315Y010940D01*
X043511Y010781D02*
X045787Y010781D01*
X046457Y010781D02*
X047870Y010781D01*
X048046Y010940D02*
X046564Y010940D01*
X046600Y011098D02*
X048222Y011098D01*
X048398Y011257D02*
X046584Y011257D01*
X046505Y011415D02*
X048574Y011415D01*
X049102Y011891D02*
X032372Y011891D01*
X032372Y012049D02*
X049278Y012049D01*
X049454Y012208D02*
X032372Y012208D01*
X032372Y012366D02*
X038683Y012366D01*
X038744Y012305D02*
X038920Y012232D01*
X039110Y012232D01*
X039286Y012305D01*
X039421Y012439D01*
X039493Y012615D01*
X039493Y012805D01*
X039421Y012981D01*
X039286Y013116D01*
X039110Y013188D01*
X038920Y013188D01*
X038744Y013116D01*
X038610Y012981D01*
X038537Y012805D01*
X038537Y012615D01*
X038610Y012439D01*
X038744Y012305D01*
X038574Y012525D02*
X032372Y012525D01*
X032372Y012684D02*
X032932Y012684D01*
X032851Y012717D02*
X033027Y012644D01*
X033217Y012644D01*
X033393Y012717D01*
X033527Y012851D01*
X033600Y013027D01*
X033600Y013217D01*
X033527Y013393D01*
X033393Y013527D01*
X033217Y013600D01*
X033027Y013600D01*
X032851Y013527D01*
X032717Y013393D01*
X032644Y013217D01*
X032644Y013027D01*
X032717Y012851D01*
X032851Y012717D01*
X032726Y012842D02*
X032372Y012842D01*
X032372Y013001D02*
X032655Y013001D01*
X032644Y013159D02*
X032372Y013159D01*
X032372Y013318D02*
X032686Y013318D01*
X032800Y013476D02*
X032372Y013476D01*
X032372Y013635D02*
X050747Y013635D01*
X050747Y013793D02*
X032372Y013793D01*
X032372Y013952D02*
X050747Y013952D01*
X050747Y014110D02*
X032372Y014110D01*
X031872Y013622D02*
X031872Y009072D01*
X031600Y009072D01*
X031600Y009217D01*
X031527Y009393D01*
X031393Y009527D01*
X031217Y009600D01*
X031027Y009600D01*
X030851Y009527D01*
X030717Y009393D01*
X030644Y009217D01*
X030644Y009072D01*
X029600Y009072D01*
X029600Y009217D01*
X029527Y009393D01*
X029393Y009527D01*
X029217Y009600D01*
X029027Y009600D01*
X028851Y009527D01*
X028717Y009393D01*
X028644Y009217D01*
X028644Y009072D01*
X027600Y009072D01*
X027600Y009217D01*
X027527Y009393D01*
X027393Y009527D01*
X027217Y009600D01*
X027027Y009600D01*
X026851Y009527D01*
X026717Y009393D01*
X026644Y009217D01*
X026644Y009072D01*
X025600Y009072D01*
X025600Y009217D01*
X025527Y009393D01*
X025393Y009527D01*
X025217Y009600D01*
X025027Y009600D01*
X024851Y009527D01*
X024717Y009393D01*
X024644Y009217D01*
X024644Y009072D01*
X023600Y009072D01*
X023600Y009217D01*
X023527Y009393D01*
X023393Y009527D01*
X023217Y009600D01*
X023027Y009600D01*
X022851Y009527D01*
X022717Y009393D01*
X022644Y009217D01*
X022644Y009072D01*
X021600Y009072D01*
X021600Y009217D01*
X021527Y009393D01*
X021393Y009527D01*
X021217Y009600D01*
X021027Y009600D01*
X020851Y009527D01*
X020717Y009393D01*
X020644Y009217D01*
X020644Y009072D01*
X019600Y009072D01*
X019600Y009217D01*
X019527Y009393D01*
X019393Y009527D01*
X019217Y009600D01*
X019027Y009600D01*
X018851Y009527D01*
X018717Y009393D01*
X018644Y009217D01*
X018644Y009072D01*
X017600Y009072D01*
X017600Y009217D01*
X017527Y009393D01*
X017393Y009527D01*
X017217Y009600D01*
X017027Y009600D01*
X016851Y009527D01*
X016717Y009393D01*
X016644Y009217D01*
X016644Y009072D01*
X012972Y009072D01*
X008472Y013522D01*
X008472Y016772D01*
X012796Y016772D01*
X012851Y016717D01*
X013027Y016644D01*
X013217Y016644D01*
X013393Y016717D01*
X013448Y016772D01*
X014622Y016772D01*
X014622Y013622D01*
X031872Y013622D01*
X031872Y013476D02*
X021444Y013476D01*
X021393Y013527D02*
X021217Y013600D01*
X021027Y013600D01*
X020851Y013527D01*
X020717Y013393D01*
X020644Y013217D01*
X020644Y013027D01*
X020717Y012851D01*
X020851Y012717D01*
X021027Y012644D01*
X021217Y012644D01*
X021393Y012717D01*
X021527Y012851D01*
X021600Y013027D01*
X021600Y013217D01*
X021527Y013393D01*
X021393Y013527D01*
X021559Y013318D02*
X031872Y013318D01*
X031872Y013159D02*
X021600Y013159D01*
X021589Y013001D02*
X031872Y013001D01*
X031872Y012842D02*
X021518Y012842D01*
X021312Y012684D02*
X031872Y012684D01*
X031872Y012525D02*
X009481Y012525D01*
X009641Y012366D02*
X031872Y012366D01*
X031872Y012208D02*
X009801Y012208D01*
X009962Y012049D02*
X031872Y012049D01*
X031872Y011891D02*
X010122Y011891D01*
X010282Y011732D02*
X031872Y011732D01*
X031872Y011574D02*
X031281Y011574D01*
X031217Y011600D02*
X031027Y011600D01*
X030851Y011527D01*
X030717Y011393D01*
X030644Y011217D01*
X030644Y011027D01*
X030717Y010851D01*
X030851Y010717D01*
X031027Y010644D01*
X031217Y010644D01*
X031393Y010717D01*
X031527Y010851D01*
X031600Y011027D01*
X031600Y011217D01*
X031527Y011393D01*
X031393Y011527D01*
X031217Y011600D01*
X030963Y011574D02*
X029281Y011574D01*
X029217Y011600D02*
X029027Y011600D01*
X028851Y011527D01*
X028717Y011393D01*
X028644Y011217D01*
X028644Y011027D01*
X028717Y010851D01*
X028851Y010717D01*
X029027Y010644D01*
X029217Y010644D01*
X029393Y010717D01*
X029527Y010851D01*
X029600Y011027D01*
X029600Y011217D01*
X029527Y011393D01*
X029393Y011527D01*
X029217Y011600D01*
X028963Y011574D02*
X027281Y011574D01*
X027217Y011600D02*
X027027Y011600D01*
X026851Y011527D01*
X026717Y011393D01*
X026644Y011217D01*
X026644Y011027D01*
X026717Y010851D01*
X026851Y010717D01*
X027027Y010644D01*
X027217Y010644D01*
X027393Y010717D01*
X027527Y010851D01*
X027600Y011027D01*
X027600Y011217D01*
X027527Y011393D01*
X027393Y011527D01*
X027217Y011600D01*
X026963Y011574D02*
X025281Y011574D01*
X025217Y011600D02*
X025027Y011600D01*
X024851Y011527D01*
X024717Y011393D01*
X024644Y011217D01*
X024644Y011027D01*
X024717Y010851D01*
X024851Y010717D01*
X025027Y010644D01*
X025217Y010644D01*
X025393Y010717D01*
X025527Y010851D01*
X025600Y011027D01*
X025600Y011217D01*
X025527Y011393D01*
X025393Y011527D01*
X025217Y011600D01*
X024963Y011574D02*
X023281Y011574D01*
X023217Y011600D02*
X023027Y011600D01*
X022851Y011527D01*
X022717Y011393D01*
X022644Y011217D01*
X022644Y011027D01*
X022717Y010851D01*
X022851Y010717D01*
X023027Y010644D01*
X023217Y010644D01*
X023393Y010717D01*
X023527Y010851D01*
X023600Y011027D01*
X023600Y011217D01*
X023527Y011393D01*
X023393Y011527D01*
X023217Y011600D01*
X022963Y011574D02*
X021281Y011574D01*
X021217Y011600D02*
X021027Y011600D01*
X020851Y011527D01*
X020717Y011393D01*
X020644Y011217D01*
X020644Y011027D01*
X020717Y010851D01*
X020851Y010717D01*
X021027Y010644D01*
X021217Y010644D01*
X021393Y010717D01*
X021527Y010851D01*
X021600Y011027D01*
X021600Y011217D01*
X021527Y011393D01*
X021393Y011527D01*
X021217Y011600D01*
X020963Y011574D02*
X019281Y011574D01*
X019217Y011600D02*
X019027Y011600D01*
X018851Y011527D01*
X018717Y011393D01*
X018644Y011217D01*
X018644Y011027D01*
X018717Y010851D01*
X018851Y010717D01*
X019027Y010644D01*
X019217Y010644D01*
X019393Y010717D01*
X019527Y010851D01*
X019600Y011027D01*
X019600Y011217D01*
X019527Y011393D01*
X019393Y011527D01*
X019217Y011600D01*
X018963Y011574D02*
X017281Y011574D01*
X017217Y011600D02*
X017027Y011600D01*
X016851Y011527D01*
X016717Y011393D01*
X016644Y011217D01*
X016644Y011027D01*
X016717Y010851D01*
X016851Y010717D01*
X017027Y010644D01*
X017217Y010644D01*
X017393Y010717D01*
X017527Y010851D01*
X017600Y011027D01*
X017600Y011217D01*
X017527Y011393D01*
X017393Y011527D01*
X017217Y011600D01*
X016963Y011574D02*
X010443Y011574D01*
X010603Y011415D02*
X016739Y011415D01*
X016660Y011257D02*
X010763Y011257D01*
X010924Y011098D02*
X016644Y011098D01*
X016680Y010940D02*
X011084Y010940D01*
X011244Y010781D02*
X016787Y010781D01*
X017457Y010781D02*
X018787Y010781D01*
X018680Y010940D02*
X017564Y010940D01*
X017600Y011098D02*
X018644Y011098D01*
X018660Y011257D02*
X017584Y011257D01*
X017505Y011415D02*
X018739Y011415D01*
X019505Y011415D02*
X020739Y011415D01*
X020660Y011257D02*
X019584Y011257D01*
X019600Y011098D02*
X020644Y011098D01*
X020680Y010940D02*
X019564Y010940D01*
X019457Y010781D02*
X020787Y010781D01*
X021457Y010781D02*
X022787Y010781D01*
X022680Y010940D02*
X021564Y010940D01*
X021600Y011098D02*
X022644Y011098D01*
X022660Y011257D02*
X021584Y011257D01*
X021505Y011415D02*
X022739Y011415D01*
X023505Y011415D02*
X024739Y011415D01*
X024660Y011257D02*
X023584Y011257D01*
X023600Y011098D02*
X024644Y011098D01*
X024680Y010940D02*
X023564Y010940D01*
X023457Y010781D02*
X024787Y010781D01*
X025457Y010781D02*
X026787Y010781D01*
X026680Y010940D02*
X025564Y010940D01*
X025600Y011098D02*
X026644Y011098D01*
X026660Y011257D02*
X025584Y011257D01*
X025505Y011415D02*
X026739Y011415D01*
X027505Y011415D02*
X028739Y011415D01*
X028660Y011257D02*
X027584Y011257D01*
X027600Y011098D02*
X028644Y011098D01*
X028680Y010940D02*
X027564Y010940D01*
X027457Y010781D02*
X028787Y010781D01*
X029457Y010781D02*
X030787Y010781D01*
X030680Y010940D02*
X029564Y010940D01*
X029600Y011098D02*
X030644Y011098D01*
X030660Y011257D02*
X029584Y011257D01*
X029505Y011415D02*
X030739Y011415D01*
X031505Y011415D02*
X031872Y011415D01*
X031872Y011257D02*
X031584Y011257D01*
X031600Y011098D02*
X031872Y011098D01*
X031872Y010940D02*
X031564Y010940D01*
X031457Y010781D02*
X031872Y010781D01*
X031872Y010622D02*
X011405Y010622D01*
X011565Y010464D02*
X031872Y010464D01*
X031872Y010305D02*
X011725Y010305D01*
X011886Y010147D02*
X031872Y010147D01*
X031872Y009988D02*
X012046Y009988D01*
X012206Y009830D02*
X031872Y009830D01*
X031872Y009671D02*
X012366Y009671D01*
X012527Y009513D02*
X016837Y009513D01*
X016701Y009354D02*
X012687Y009354D01*
X012847Y009196D02*
X016644Y009196D01*
X017408Y009513D02*
X018837Y009513D01*
X018701Y009354D02*
X017544Y009354D01*
X017600Y009196D02*
X018644Y009196D01*
X019408Y009513D02*
X020837Y009513D01*
X020701Y009354D02*
X019544Y009354D01*
X019600Y009196D02*
X020644Y009196D01*
X021408Y009513D02*
X022837Y009513D01*
X022701Y009354D02*
X021544Y009354D01*
X021600Y009196D02*
X022644Y009196D01*
X023408Y009513D02*
X024837Y009513D01*
X024701Y009354D02*
X023544Y009354D01*
X023600Y009196D02*
X024644Y009196D01*
X024397Y008561D02*
X035022Y008561D01*
X035022Y008403D02*
X024397Y008403D01*
X024397Y008244D02*
X025991Y008244D01*
X025994Y008246D02*
X025736Y008097D01*
X025526Y007887D01*
X025377Y007629D01*
X025300Y007342D01*
X025300Y007044D01*
X025377Y006757D01*
X025526Y006499D01*
X025736Y006289D01*
X025994Y006140D01*
X026281Y006063D01*
X026579Y006063D01*
X026866Y006140D01*
X027124Y006289D01*
X027334Y006499D01*
X027483Y006757D01*
X027560Y007044D01*
X027560Y007342D01*
X027483Y007629D01*
X027334Y007887D01*
X027124Y008097D01*
X026866Y008246D01*
X026579Y008323D01*
X026281Y008323D01*
X025994Y008246D01*
X025725Y008086D02*
X024397Y008086D01*
X024397Y007927D02*
X025566Y007927D01*
X025458Y007769D02*
X024397Y007769D01*
X024397Y007610D02*
X025372Y007610D01*
X025330Y007452D02*
X024397Y007452D01*
X024397Y007293D02*
X025300Y007293D01*
X025300Y007135D02*
X024397Y007135D01*
X024397Y006976D02*
X025319Y006976D01*
X025361Y006817D02*
X024397Y006817D01*
X024397Y006659D02*
X025434Y006659D01*
X025525Y006500D02*
X024397Y006500D01*
X024397Y006342D02*
X025683Y006342D01*
X025919Y006183D02*
X024397Y006183D01*
X024397Y006025D02*
X035022Y006025D01*
X035022Y006183D02*
X033506Y006183D01*
X033431Y006140D02*
X033689Y006289D01*
X033899Y006499D01*
X034048Y006757D01*
X034125Y007044D01*
X034125Y007342D01*
X034048Y007629D01*
X033899Y007887D01*
X033689Y008097D01*
X033431Y008246D01*
X033144Y008323D01*
X032846Y008323D01*
X032559Y008246D01*
X032301Y008097D01*
X032091Y007887D01*
X031942Y007629D01*
X031865Y007342D01*
X031865Y007044D01*
X031942Y006757D01*
X032091Y006499D01*
X032301Y006289D01*
X032559Y006140D01*
X032846Y006063D01*
X033144Y006063D01*
X033431Y006140D01*
X033742Y006342D02*
X035022Y006342D01*
X035022Y006500D02*
X033900Y006500D01*
X033992Y006659D02*
X035022Y006659D01*
X035022Y006817D02*
X034064Y006817D01*
X034107Y006976D02*
X035022Y006976D01*
X035022Y007135D02*
X034125Y007135D01*
X034125Y007293D02*
X035022Y007293D01*
X035022Y007452D02*
X034096Y007452D01*
X034053Y007610D02*
X035022Y007610D01*
X035022Y007769D02*
X033968Y007769D01*
X033859Y007927D02*
X035022Y007927D01*
X035022Y008086D02*
X033701Y008086D01*
X033434Y008244D02*
X035022Y008244D01*
X034644Y009196D02*
X033600Y009196D01*
X033544Y009354D02*
X034701Y009354D01*
X034837Y009513D02*
X033408Y009513D01*
X032556Y008244D02*
X026869Y008244D01*
X027136Y008086D02*
X032290Y008086D01*
X032131Y007927D02*
X027294Y007927D01*
X027403Y007769D02*
X032023Y007769D01*
X031937Y007610D02*
X027488Y007610D01*
X027531Y007452D02*
X028776Y007452D01*
X028717Y007393D02*
X028644Y007217D01*
X028644Y007027D01*
X028717Y006851D01*
X028851Y006717D01*
X029027Y006644D01*
X029217Y006644D01*
X029393Y006717D01*
X029527Y006851D01*
X029600Y007027D01*
X029600Y007217D01*
X029527Y007393D01*
X029393Y007527D01*
X029217Y007600D01*
X029027Y007600D01*
X028851Y007527D01*
X028717Y007393D01*
X028676Y007293D02*
X027560Y007293D01*
X027560Y007135D02*
X028644Y007135D01*
X028665Y006976D02*
X027542Y006976D01*
X027499Y006817D02*
X028751Y006817D01*
X028991Y006659D02*
X027427Y006659D01*
X027335Y006500D02*
X032090Y006500D01*
X031999Y006659D02*
X031253Y006659D01*
X031217Y006644D02*
X031393Y006717D01*
X031527Y006851D01*
X031600Y007027D01*
X031600Y007217D01*
X031527Y007393D01*
X031393Y007527D01*
X031217Y007600D01*
X031027Y007600D01*
X030851Y007527D01*
X030717Y007393D01*
X030644Y007217D01*
X030644Y007027D01*
X030717Y006851D01*
X030851Y006717D01*
X031027Y006644D01*
X031217Y006644D01*
X030991Y006659D02*
X029253Y006659D01*
X029494Y006817D02*
X030751Y006817D01*
X030665Y006976D02*
X029579Y006976D01*
X029600Y007135D02*
X030644Y007135D01*
X030676Y007293D02*
X029569Y007293D01*
X029469Y007452D02*
X030776Y007452D01*
X031469Y007452D02*
X031895Y007452D01*
X031865Y007293D02*
X031569Y007293D01*
X031600Y007135D02*
X031865Y007135D01*
X031884Y006976D02*
X031579Y006976D01*
X031494Y006817D02*
X031926Y006817D01*
X032248Y006342D02*
X027177Y006342D01*
X026941Y006183D02*
X032484Y006183D01*
X031872Y009196D02*
X031600Y009196D01*
X031544Y009354D02*
X031872Y009354D01*
X031872Y009513D02*
X031408Y009513D01*
X030837Y009513D02*
X029408Y009513D01*
X029544Y009354D02*
X030701Y009354D01*
X030644Y009196D02*
X029600Y009196D01*
X028837Y009513D02*
X027408Y009513D01*
X027544Y009354D02*
X028701Y009354D01*
X028644Y009196D02*
X027600Y009196D01*
X026837Y009513D02*
X025408Y009513D01*
X025544Y009354D02*
X026701Y009354D01*
X026644Y009196D02*
X025600Y009196D01*
X020932Y012684D02*
X019312Y012684D01*
X019393Y012717D02*
X019527Y012851D01*
X019600Y013027D01*
X019600Y013217D01*
X019527Y013393D01*
X019393Y013527D01*
X019217Y013600D01*
X019027Y013600D01*
X018851Y013527D01*
X018717Y013393D01*
X018644Y013217D01*
X018644Y013027D01*
X018717Y012851D01*
X018851Y012717D01*
X019027Y012644D01*
X019217Y012644D01*
X019393Y012717D01*
X019518Y012842D02*
X020726Y012842D01*
X020655Y013001D02*
X019589Y013001D01*
X019600Y013159D02*
X020644Y013159D01*
X020686Y013318D02*
X019559Y013318D01*
X019444Y013476D02*
X020800Y013476D01*
X022717Y014851D02*
X022851Y014717D01*
X023027Y014644D01*
X023217Y014644D01*
X023393Y014717D01*
X023527Y014851D01*
X023600Y015027D01*
X023600Y015217D01*
X023527Y015393D01*
X023393Y015527D01*
X023217Y015600D01*
X023027Y015600D01*
X022851Y015527D01*
X022717Y015393D01*
X022644Y015217D01*
X022644Y015027D01*
X022717Y014851D01*
X022695Y014903D02*
X015122Y014903D01*
X015122Y014745D02*
X022824Y014745D01*
X022644Y015062D02*
X015122Y015062D01*
X015122Y015220D02*
X022645Y015220D01*
X022711Y015379D02*
X015122Y015379D01*
X015122Y015537D02*
X022875Y015537D01*
X023369Y015537D02*
X024875Y015537D01*
X024851Y015527D02*
X024717Y015393D01*
X024644Y015217D01*
X024644Y015027D01*
X024717Y014851D01*
X024851Y014717D01*
X025027Y014644D01*
X025217Y014644D01*
X025393Y014717D01*
X025527Y014851D01*
X025600Y015027D01*
X025600Y015217D01*
X025527Y015393D01*
X025393Y015527D01*
X025217Y015600D01*
X025027Y015600D01*
X024851Y015527D01*
X024711Y015379D02*
X023533Y015379D01*
X023599Y015220D02*
X024645Y015220D01*
X024644Y015062D02*
X023600Y015062D01*
X023549Y014903D02*
X024695Y014903D01*
X024824Y014745D02*
X023421Y014745D01*
X025421Y014745D02*
X028824Y014745D01*
X028851Y014717D02*
X029027Y014644D01*
X029217Y014644D01*
X029393Y014717D01*
X029527Y014851D01*
X029600Y015027D01*
X029600Y015217D01*
X029527Y015393D01*
X029393Y015527D01*
X029217Y015600D01*
X029027Y015600D01*
X028851Y015527D01*
X028717Y015393D01*
X028644Y015217D01*
X028644Y015027D01*
X028717Y014851D01*
X028851Y014717D01*
X028695Y014903D02*
X025549Y014903D01*
X025600Y015062D02*
X028644Y015062D01*
X028645Y015220D02*
X025599Y015220D01*
X025533Y015379D02*
X028711Y015379D01*
X028875Y015537D02*
X025369Y015537D01*
X025217Y016644D02*
X025393Y016717D01*
X025527Y016851D01*
X025600Y017027D01*
X025600Y017217D01*
X025527Y017393D01*
X025393Y017527D01*
X025217Y017600D01*
X025027Y017600D01*
X024851Y017527D01*
X024717Y017393D01*
X024644Y017217D01*
X024644Y017027D01*
X024717Y016851D01*
X024851Y016717D01*
X025027Y016644D01*
X025217Y016644D01*
X025225Y016647D02*
X027020Y016647D01*
X027027Y016644D02*
X027217Y016644D01*
X027393Y016717D01*
X027527Y016851D01*
X027600Y017027D01*
X027600Y017217D01*
X027527Y017393D01*
X027393Y017527D01*
X027217Y017600D01*
X027027Y017600D01*
X026851Y017527D01*
X026717Y017393D01*
X026644Y017217D01*
X026644Y017027D01*
X026717Y016851D01*
X026851Y016717D01*
X027027Y016644D01*
X027225Y016647D02*
X029020Y016647D01*
X029027Y016644D02*
X029217Y016644D01*
X029393Y016717D01*
X029527Y016851D01*
X029600Y017027D01*
X029600Y017217D01*
X029527Y017393D01*
X029393Y017527D01*
X029217Y017600D01*
X029027Y017600D01*
X028851Y017527D01*
X028717Y017393D01*
X028644Y017217D01*
X028644Y017027D01*
X028717Y016851D01*
X028851Y016717D01*
X029027Y016644D01*
X029225Y016647D02*
X031020Y016647D01*
X031027Y016644D02*
X031217Y016644D01*
X031393Y016717D01*
X031527Y016851D01*
X031600Y017027D01*
X031600Y017217D01*
X031527Y017393D01*
X031393Y017527D01*
X031217Y017600D01*
X031027Y017600D01*
X030851Y017527D01*
X030717Y017393D01*
X030644Y017217D01*
X030644Y017027D01*
X030717Y016851D01*
X030851Y016717D01*
X031027Y016644D01*
X031225Y016647D02*
X035377Y016647D01*
X035370Y016654D02*
X035504Y016520D01*
X035680Y016447D01*
X035870Y016447D01*
X036046Y016520D01*
X036181Y016654D01*
X036253Y016830D01*
X036253Y017020D01*
X036181Y017196D01*
X036046Y017331D01*
X035870Y017403D01*
X035680Y017403D01*
X035504Y017331D01*
X035370Y017196D01*
X035297Y017020D01*
X035297Y016830D01*
X035370Y016654D01*
X035307Y016806D02*
X031482Y016806D01*
X031574Y016964D02*
X035297Y016964D01*
X035340Y017123D02*
X031600Y017123D01*
X031574Y017281D02*
X035455Y017281D01*
X036095Y017281D02*
X043671Y017281D01*
X043644Y017217D02*
X043644Y017027D01*
X043717Y016851D01*
X043851Y016717D01*
X044027Y016644D01*
X044217Y016644D01*
X044393Y016717D01*
X044527Y016851D01*
X044600Y017027D01*
X044600Y017217D01*
X044527Y017393D01*
X044393Y017527D01*
X044217Y017600D01*
X044027Y017600D01*
X043851Y017527D01*
X043717Y017393D01*
X043644Y017217D01*
X043644Y017123D02*
X036211Y017123D01*
X036253Y016964D02*
X043670Y016964D01*
X043763Y016806D02*
X036243Y016806D01*
X036173Y016647D02*
X044020Y016647D01*
X044225Y016647D02*
X046020Y016647D01*
X046027Y016644D02*
X046217Y016644D01*
X046393Y016717D01*
X046527Y016851D01*
X046600Y017027D01*
X046600Y017217D01*
X046527Y017393D01*
X046393Y017527D01*
X046217Y017600D01*
X046027Y017600D01*
X045851Y017527D01*
X045717Y017393D01*
X045644Y017217D01*
X045644Y017027D01*
X045717Y016851D01*
X045851Y016717D01*
X046027Y016644D01*
X046225Y016647D02*
X050747Y016647D01*
X050747Y016489D02*
X047143Y016489D01*
X047094Y016537D02*
X046918Y016610D01*
X046728Y016610D01*
X046552Y016537D01*
X046418Y016403D01*
X046345Y016227D01*
X046345Y016037D01*
X046418Y015861D01*
X046426Y015854D01*
X046365Y015707D01*
X046365Y015517D01*
X046438Y015341D01*
X046572Y015207D01*
X046748Y015134D01*
X046938Y015134D01*
X047114Y015207D01*
X047249Y015341D01*
X047321Y015517D01*
X047321Y015707D01*
X047249Y015883D01*
X047241Y015891D01*
X047301Y016037D01*
X047301Y016227D01*
X047229Y016403D01*
X047094Y016537D01*
X047259Y016330D02*
X050747Y016330D01*
X050747Y016171D02*
X047301Y016171D01*
X047291Y016013D02*
X050747Y016013D01*
X050747Y015854D02*
X047260Y015854D01*
X047321Y015696D02*
X050747Y015696D01*
X050747Y015537D02*
X047321Y015537D01*
X047264Y015379D02*
X050747Y015379D01*
X050747Y015220D02*
X047127Y015220D01*
X046559Y015220D02*
X044599Y015220D01*
X044600Y015217D02*
X044527Y015393D01*
X044393Y015527D01*
X044217Y015600D01*
X044027Y015600D01*
X043851Y015527D01*
X043717Y015393D01*
X043644Y015217D01*
X043644Y015027D01*
X043717Y014851D01*
X043851Y014717D01*
X044027Y014644D01*
X044217Y014644D01*
X044393Y014717D01*
X044527Y014851D01*
X044600Y015027D01*
X044600Y015217D01*
X044600Y015062D02*
X050747Y015062D01*
X050747Y014903D02*
X044549Y014903D01*
X044421Y014745D02*
X050747Y014745D01*
X050747Y014586D02*
X015122Y014586D01*
X015122Y014428D02*
X050747Y014428D01*
X050747Y014269D02*
X015122Y014269D01*
X014622Y014269D02*
X008472Y014269D01*
X008472Y014428D02*
X014622Y014428D01*
X014622Y014586D02*
X008472Y014586D01*
X008472Y014745D02*
X012824Y014745D01*
X012851Y014717D02*
X013027Y014644D01*
X013217Y014644D01*
X013393Y014717D01*
X013527Y014851D01*
X013600Y015027D01*
X013600Y015217D01*
X013527Y015393D01*
X013393Y015527D01*
X013217Y015600D01*
X013027Y015600D01*
X012851Y015527D01*
X012717Y015393D01*
X012644Y015217D01*
X012644Y015027D01*
X012717Y014851D01*
X012851Y014717D01*
X012695Y014903D02*
X008472Y014903D01*
X008472Y015062D02*
X012644Y015062D01*
X012645Y015220D02*
X008472Y015220D01*
X008472Y015379D02*
X012711Y015379D01*
X012875Y015537D02*
X008472Y015537D01*
X008472Y015696D02*
X014622Y015696D01*
X014622Y015854D02*
X008472Y015854D01*
X008472Y016013D02*
X014622Y016013D01*
X014622Y016171D02*
X008472Y016171D01*
X008472Y016330D02*
X014622Y016330D01*
X014622Y016489D02*
X008472Y016489D01*
X008472Y016647D02*
X013020Y016647D01*
X013225Y016647D02*
X014622Y016647D01*
X015122Y016647D02*
X023020Y016647D01*
X023027Y016644D02*
X023217Y016644D01*
X023393Y016717D01*
X023527Y016851D01*
X023600Y017027D01*
X023600Y017217D01*
X023527Y017393D01*
X023393Y017527D01*
X023217Y017600D01*
X023027Y017600D01*
X022851Y017527D01*
X022717Y017393D01*
X022644Y017217D01*
X022644Y017027D01*
X022717Y016851D01*
X022851Y016717D01*
X023027Y016644D01*
X023225Y016647D02*
X025020Y016647D01*
X024763Y016806D02*
X023482Y016806D01*
X023574Y016964D02*
X024670Y016964D01*
X024644Y017123D02*
X023600Y017123D01*
X023574Y017281D02*
X024671Y017281D01*
X024764Y017440D02*
X023481Y017440D01*
X023222Y017598D02*
X025023Y017598D01*
X025222Y017598D02*
X027023Y017598D01*
X027222Y017598D02*
X029023Y017598D01*
X029222Y017598D02*
X031023Y017598D01*
X031222Y017598D02*
X044023Y017598D01*
X044222Y017598D02*
X046023Y017598D01*
X046222Y017598D02*
X050747Y017598D01*
X050747Y017440D02*
X046481Y017440D01*
X046574Y017281D02*
X050747Y017281D01*
X050747Y017123D02*
X046600Y017123D01*
X046574Y016964D02*
X050747Y016964D01*
X050747Y016806D02*
X046482Y016806D01*
X046504Y016489D02*
X035970Y016489D01*
X035580Y016489D02*
X015122Y016489D01*
X015122Y016330D02*
X046388Y016330D01*
X046345Y016171D02*
X015122Y016171D01*
X015122Y016013D02*
X046355Y016013D01*
X046425Y015854D02*
X015122Y015854D01*
X015122Y015696D02*
X046365Y015696D01*
X046365Y015537D02*
X044369Y015537D01*
X044533Y015379D02*
X046422Y015379D01*
X045763Y016806D02*
X044482Y016806D01*
X044574Y016964D02*
X045670Y016964D01*
X045644Y017123D02*
X044600Y017123D01*
X044574Y017281D02*
X045671Y017281D01*
X045764Y017440D02*
X044481Y017440D01*
X043764Y017440D02*
X031481Y017440D01*
X030764Y017440D02*
X029481Y017440D01*
X029574Y017281D02*
X030671Y017281D01*
X030644Y017123D02*
X029600Y017123D01*
X029574Y016964D02*
X030670Y016964D01*
X030763Y016806D02*
X029482Y016806D01*
X028763Y016806D02*
X027482Y016806D01*
X027574Y016964D02*
X028670Y016964D01*
X028644Y017123D02*
X027600Y017123D01*
X027574Y017281D02*
X028671Y017281D01*
X028764Y017440D02*
X027481Y017440D01*
X026764Y017440D02*
X025481Y017440D01*
X025574Y017281D02*
X026671Y017281D01*
X026644Y017123D02*
X025600Y017123D01*
X025574Y016964D02*
X026670Y016964D01*
X026763Y016806D02*
X025482Y016806D01*
X023023Y017598D02*
X013222Y017598D01*
X013023Y017598D02*
X008472Y017598D01*
X008472Y017440D02*
X012764Y017440D01*
X012671Y017281D02*
X008472Y017281D01*
X008472Y017757D02*
X050747Y017757D01*
X050747Y017915D02*
X008472Y017915D01*
X008472Y018074D02*
X050747Y018074D01*
X050747Y018233D02*
X008472Y018233D01*
X008472Y018391D02*
X050747Y018391D01*
X050747Y018550D02*
X008472Y018550D01*
X008472Y018708D02*
X050747Y018708D01*
X050747Y018867D02*
X008472Y018867D01*
X008472Y019025D02*
X050747Y019025D01*
X050747Y019659D02*
X027222Y019659D01*
X027122Y019659D02*
X008472Y019659D01*
X008472Y019818D02*
X027122Y019818D01*
X027222Y019818D02*
X050747Y019818D01*
X050747Y019977D02*
X027222Y019977D01*
X027122Y019977D02*
X008472Y019977D01*
X008472Y020135D02*
X027122Y020135D01*
X027222Y020135D02*
X050747Y020135D01*
X050747Y020294D02*
X027222Y020294D01*
X027122Y020294D02*
X008472Y020294D01*
X008472Y020452D02*
X027122Y020452D01*
X027222Y020452D02*
X050747Y020452D01*
X050747Y013476D02*
X048444Y013476D01*
X048393Y013527D02*
X048217Y013600D01*
X048027Y013600D01*
X047851Y013527D01*
X047717Y013393D01*
X047644Y013217D01*
X047644Y013027D01*
X047717Y012851D01*
X047851Y012717D01*
X048027Y012644D01*
X048217Y012644D01*
X048393Y012717D01*
X048527Y012851D01*
X048600Y013027D01*
X048600Y013217D01*
X048527Y013393D01*
X048393Y013527D01*
X048559Y013318D02*
X050687Y013318D01*
X050511Y013159D02*
X048600Y013159D01*
X048589Y013001D02*
X050335Y013001D01*
X050159Y012842D02*
X048518Y012842D01*
X048312Y012684D02*
X049982Y012684D01*
X049806Y012525D02*
X039456Y012525D01*
X039493Y012684D02*
X041932Y012684D01*
X041851Y012717D02*
X042027Y012644D01*
X042217Y012644D01*
X042393Y012717D01*
X042527Y012851D01*
X042600Y013027D01*
X042600Y013217D01*
X042527Y013393D01*
X042393Y013527D01*
X042217Y013600D01*
X042027Y013600D01*
X041851Y013527D01*
X041717Y013393D01*
X041644Y013217D01*
X041644Y013027D01*
X041717Y012851D01*
X041851Y012717D01*
X041726Y012842D02*
X039478Y012842D01*
X039401Y013001D02*
X041655Y013001D01*
X041644Y013159D02*
X039181Y013159D01*
X038850Y013159D02*
X035600Y013159D01*
X035600Y013217D02*
X035527Y013393D01*
X035393Y013527D01*
X035217Y013600D01*
X035027Y013600D01*
X034851Y013527D01*
X034717Y013393D01*
X034644Y013217D01*
X034644Y013027D01*
X034717Y012851D01*
X034851Y012717D01*
X035027Y012644D01*
X035217Y012644D01*
X035393Y012717D01*
X035527Y012851D01*
X035600Y013027D01*
X035600Y013217D01*
X035559Y013318D02*
X041686Y013318D01*
X041800Y013476D02*
X035444Y013476D01*
X035589Y013001D02*
X038630Y013001D01*
X038552Y012842D02*
X035518Y012842D01*
X035312Y012684D02*
X038537Y012684D01*
X039348Y012366D02*
X049630Y012366D01*
X047932Y012684D02*
X046312Y012684D01*
X046393Y012717D02*
X046527Y012851D01*
X046600Y013027D01*
X046600Y013217D01*
X046527Y013393D01*
X046393Y013527D01*
X046217Y013600D01*
X046027Y013600D01*
X045851Y013527D01*
X045717Y013393D01*
X045644Y013217D01*
X045644Y013027D01*
X045717Y012851D01*
X045851Y012717D01*
X046027Y012644D01*
X046217Y012644D01*
X046393Y012717D01*
X046518Y012842D02*
X047726Y012842D01*
X047655Y013001D02*
X046589Y013001D01*
X046600Y013159D02*
X047644Y013159D01*
X047686Y013318D02*
X046559Y013318D01*
X046444Y013476D02*
X047800Y013476D01*
X045800Y013476D02*
X042444Y013476D01*
X042559Y013318D02*
X045686Y013318D01*
X045644Y013159D02*
X042600Y013159D01*
X042589Y013001D02*
X045655Y013001D01*
X045726Y012842D02*
X042518Y012842D01*
X042312Y012684D02*
X045932Y012684D01*
X047694Y010622D02*
X043578Y010622D01*
X043586Y010464D02*
X047518Y010464D01*
X047342Y010305D02*
X043541Y010305D01*
X043423Y010147D02*
X047166Y010147D01*
X046990Y009988D02*
X038384Y009988D01*
X038306Y009830D02*
X046813Y009830D01*
X046706Y008879D02*
X046540Y008879D01*
X046368Y008720D02*
X046848Y008720D01*
X048851Y005527D02*
X048717Y005393D01*
X048644Y005217D01*
X048644Y005027D01*
X048717Y004851D01*
X048851Y004717D01*
X049027Y004644D01*
X049217Y004644D01*
X049393Y004717D01*
X049527Y004851D01*
X049600Y005027D01*
X049600Y005217D01*
X049527Y005393D01*
X049393Y005527D01*
X049217Y005600D01*
X049027Y005600D01*
X048851Y005527D01*
X048904Y005549D02*
X009072Y005549D01*
X009072Y005391D02*
X048716Y005391D01*
X048650Y005232D02*
X009072Y005232D01*
X009072Y005073D02*
X048644Y005073D01*
X048691Y004915D02*
X009072Y004915D01*
X009072Y004756D02*
X048812Y004756D01*
X049432Y004756D02*
X050372Y004756D01*
X050372Y004598D02*
X009072Y004598D01*
X009072Y004439D02*
X050372Y004439D01*
X050372Y004281D02*
X009072Y004281D01*
X009072Y005708D02*
X050372Y005708D01*
X050372Y005866D02*
X009072Y005866D01*
X009072Y006025D02*
X015347Y006025D01*
X015347Y006183D02*
X013821Y006183D01*
X013746Y006140D02*
X014004Y006289D01*
X014214Y006499D01*
X014363Y006757D01*
X014440Y007044D01*
X014440Y007342D01*
X014363Y007629D01*
X014214Y007887D01*
X014004Y008097D01*
X013746Y008246D01*
X013459Y008323D01*
X013161Y008323D01*
X012874Y008246D01*
X012616Y008097D01*
X012406Y007887D01*
X012257Y007629D01*
X012180Y007342D01*
X012180Y007044D01*
X012257Y006757D01*
X012406Y006499D01*
X012616Y006289D01*
X012874Y006140D01*
X013161Y006063D01*
X013459Y006063D01*
X013746Y006140D01*
X014057Y006342D02*
X015347Y006342D01*
X015347Y006500D02*
X014215Y006500D01*
X014307Y006659D02*
X015347Y006659D01*
X015347Y006817D02*
X014379Y006817D01*
X014422Y006976D02*
X015347Y006976D01*
X015347Y007135D02*
X014440Y007135D01*
X014440Y007293D02*
X015347Y007293D01*
X015347Y007452D02*
X014411Y007452D01*
X014368Y007610D02*
X015347Y007610D01*
X015347Y007769D02*
X014283Y007769D01*
X014174Y007927D02*
X015347Y007927D01*
X015347Y008086D02*
X014016Y008086D01*
X013749Y008244D02*
X015347Y008244D01*
X015347Y008403D02*
X009072Y008403D01*
X009072Y008561D02*
X015347Y008561D01*
X012871Y008244D02*
X009072Y008244D01*
X009072Y008086D02*
X012605Y008086D01*
X012446Y007927D02*
X009072Y007927D01*
X009072Y007769D02*
X012338Y007769D01*
X012252Y007610D02*
X009072Y007610D01*
X009072Y007452D02*
X012210Y007452D01*
X012180Y007293D02*
X009072Y007293D01*
X009072Y007135D02*
X012180Y007135D01*
X012199Y006976D02*
X009072Y006976D01*
X009072Y006817D02*
X012241Y006817D01*
X012314Y006659D02*
X009072Y006659D01*
X009072Y006500D02*
X012405Y006500D01*
X012563Y006342D02*
X009072Y006342D01*
X009072Y006183D02*
X012799Y006183D01*
X012472Y008720D02*
X009072Y008720D01*
X009072Y008879D02*
X012311Y008879D01*
X012151Y009037D02*
X009072Y009037D01*
X010542Y010622D02*
X004262Y010622D01*
X004262Y010464D02*
X010703Y010464D01*
X010864Y010305D02*
X004262Y010305D01*
X004262Y010147D02*
X011024Y010147D01*
X011185Y009988D02*
X004262Y009988D01*
X004262Y009830D02*
X011346Y009830D01*
X011507Y009671D02*
X004262Y009671D01*
X004262Y009513D02*
X004837Y009513D01*
X004701Y009354D02*
X004262Y009354D01*
X004262Y009196D02*
X004644Y009196D01*
X005408Y009513D02*
X011668Y009513D01*
X011829Y009354D02*
X005544Y009354D01*
X005600Y009196D02*
X011990Y009196D01*
X010381Y010781D02*
X004262Y010781D01*
X004262Y010940D02*
X010220Y010940D01*
X010059Y011098D02*
X004262Y011098D01*
X004262Y011257D02*
X009898Y011257D01*
X009737Y011415D02*
X004262Y011415D01*
X004262Y011574D02*
X009576Y011574D01*
X009416Y011732D02*
X004262Y011732D01*
X004262Y011891D02*
X009255Y011891D01*
X009320Y012684D02*
X012932Y012684D01*
X012851Y012717D02*
X013027Y012644D01*
X013217Y012644D01*
X013393Y012717D01*
X013527Y012851D01*
X013600Y013027D01*
X013600Y013217D01*
X013527Y013393D01*
X013393Y013527D01*
X013217Y013600D01*
X013027Y013600D01*
X012851Y013527D01*
X012717Y013393D01*
X012644Y013217D01*
X012644Y013027D01*
X012717Y012851D01*
X012851Y012717D01*
X012726Y012842D02*
X009160Y012842D01*
X009000Y013001D02*
X012655Y013001D01*
X012644Y013159D02*
X008839Y013159D01*
X008679Y013318D02*
X012686Y013318D01*
X012800Y013476D02*
X008519Y013476D01*
X008472Y013635D02*
X014622Y013635D01*
X014622Y013793D02*
X008472Y013793D01*
X008472Y013952D02*
X014622Y013952D01*
X014622Y014110D02*
X008472Y014110D01*
X005854Y014110D02*
X004262Y014110D01*
X004262Y013952D02*
X005854Y013952D01*
X005854Y013793D02*
X004262Y013793D01*
X004262Y013635D02*
X005854Y013635D01*
X005854Y013476D02*
X004262Y013476D01*
X004262Y013318D02*
X005854Y013318D01*
X005854Y013159D02*
X004262Y013159D01*
X004262Y013001D02*
X005854Y013001D01*
X005854Y012842D02*
X004262Y012842D01*
X004262Y012684D02*
X005854Y012684D01*
X005854Y012525D02*
X004262Y012525D01*
X004262Y012366D02*
X005854Y012366D01*
X005854Y012208D02*
X004262Y012208D01*
X004262Y012049D02*
X005854Y012049D01*
X005854Y014269D02*
X004262Y014269D01*
X004262Y014428D02*
X005854Y014428D01*
X005854Y014586D02*
X004262Y014586D01*
X004262Y014745D02*
X005854Y014745D01*
X005854Y014903D02*
X004262Y014903D01*
X004262Y015062D02*
X005854Y015062D01*
X005854Y015220D02*
X004262Y015220D01*
X004262Y015379D02*
X005854Y015379D01*
X005854Y015537D02*
X004262Y015537D01*
X004262Y015696D02*
X005854Y015696D01*
X005854Y015854D02*
X004262Y015854D01*
X004262Y016013D02*
X005854Y016013D01*
X005854Y016171D02*
X004262Y016171D01*
X004262Y016330D02*
X005854Y016330D01*
X005854Y016489D02*
X004262Y016489D01*
X004262Y016647D02*
X005854Y016647D01*
X005854Y016806D02*
X004262Y016806D01*
X004262Y016964D02*
X005854Y016964D01*
X005854Y017123D02*
X004262Y017123D01*
X004262Y017281D02*
X005854Y017281D01*
X005854Y017440D02*
X004262Y017440D01*
X004262Y017598D02*
X005854Y017598D01*
X005854Y017757D02*
X004262Y017757D01*
X004262Y017915D02*
X005854Y017915D01*
X005854Y018074D02*
X004262Y018074D01*
X004262Y018233D02*
X005854Y018233D01*
X005854Y018391D02*
X004262Y018391D01*
X004262Y018550D02*
X005854Y018550D01*
X005854Y018708D02*
X004262Y018708D01*
X004262Y021086D02*
X005854Y021086D01*
X005854Y021245D02*
X004262Y021245D01*
X004262Y021403D02*
X005854Y021403D01*
X005854Y021562D02*
X004262Y021562D01*
X004262Y021721D02*
X005854Y021721D01*
X005854Y021879D02*
X004262Y021879D01*
X004262Y022038D02*
X005854Y022038D01*
X005854Y022196D02*
X004262Y022196D01*
X004262Y022355D02*
X005854Y022355D01*
X005854Y022513D02*
X004262Y022513D01*
X004262Y022672D02*
X005854Y022672D01*
X005854Y022830D02*
X004262Y022830D01*
X004262Y022989D02*
X005854Y022989D01*
X005854Y023147D02*
X004262Y023147D01*
X004262Y023306D02*
X005854Y023306D01*
X005854Y023464D02*
X004262Y023464D01*
X004262Y023623D02*
X005854Y023623D01*
X005854Y023782D02*
X004262Y023782D01*
X004262Y023940D02*
X005854Y023940D01*
X005854Y024099D02*
X004262Y024099D01*
X004262Y024257D02*
X005854Y024257D01*
X005854Y024416D02*
X004262Y024416D01*
X004262Y024574D02*
X005854Y024574D01*
X005854Y024733D02*
X004262Y024733D01*
X004262Y024891D02*
X005854Y024891D01*
X005854Y025050D02*
X004262Y025050D01*
X004262Y025208D02*
X005854Y025208D01*
X005854Y025367D02*
X004262Y025367D01*
X004262Y025526D02*
X005854Y025526D01*
X005854Y025684D02*
X004262Y025684D01*
X004262Y025843D02*
X005854Y025843D01*
X005854Y026001D02*
X004262Y026001D01*
X004262Y026160D02*
X005854Y026160D01*
X005854Y026318D02*
X004262Y026318D01*
X004262Y026477D02*
X005854Y026477D01*
X005854Y026635D02*
X004262Y026635D01*
X004262Y026794D02*
X005854Y026794D01*
X005854Y026952D02*
X004262Y026952D01*
X004262Y027111D02*
X005854Y027111D01*
X005854Y027270D02*
X004262Y027270D01*
X004262Y027428D02*
X005854Y027428D01*
X005854Y027587D02*
X004262Y027587D01*
X004262Y027745D02*
X005854Y027745D01*
X005854Y027904D02*
X004262Y027904D01*
X004262Y028062D02*
X008572Y028062D01*
X008572Y028221D02*
X004262Y028221D01*
X004262Y028379D02*
X008572Y028379D01*
X008572Y028538D02*
X004262Y028538D01*
X004262Y028696D02*
X008572Y028696D01*
X008572Y028855D02*
X004262Y028855D01*
X004262Y029014D02*
X008572Y029014D01*
X008572Y029172D02*
X004262Y029172D01*
X004262Y029331D02*
X008572Y029331D01*
X008572Y029489D02*
X004262Y029489D01*
X004262Y029648D02*
X008572Y029648D01*
X008572Y029806D02*
X004262Y029806D01*
X004262Y029965D02*
X008572Y029965D01*
X008572Y030123D02*
X004262Y030123D01*
X004262Y030282D02*
X008572Y030282D01*
X008572Y030440D02*
X004262Y030440D01*
X004262Y030599D02*
X008572Y030599D01*
X008572Y030757D02*
X004262Y030757D01*
X004262Y030916D02*
X008572Y030916D01*
X008572Y031075D02*
X004262Y031075D01*
X004262Y031233D02*
X008572Y031233D01*
X008572Y031392D02*
X004262Y031392D01*
X004262Y031550D02*
X008572Y031550D01*
X008572Y031709D02*
X007441Y031709D01*
X007416Y031683D02*
X007561Y031829D01*
X007640Y032019D01*
X007640Y032225D01*
X007561Y032416D01*
X007416Y032561D01*
X007225Y032640D01*
X007019Y032640D01*
X006829Y032561D01*
X006683Y032416D01*
X006604Y032225D01*
X006604Y032019D01*
X006683Y031829D01*
X006829Y031683D01*
X007019Y031604D01*
X007225Y031604D01*
X007416Y031683D01*
X007577Y031867D02*
X008572Y031867D01*
X008572Y032026D02*
X007640Y032026D01*
X007640Y032184D02*
X008572Y032184D01*
X008572Y032343D02*
X007592Y032343D01*
X007476Y032501D02*
X008572Y032501D01*
X008572Y032660D02*
X004262Y032660D01*
X004262Y032819D02*
X008572Y032819D01*
X008572Y032977D02*
X004262Y032977D01*
X004262Y033136D02*
X008572Y033136D01*
X008572Y033294D02*
X004262Y033294D01*
X004262Y033453D02*
X008572Y033453D01*
X008572Y033611D02*
X007777Y033611D01*
X007645Y033535D02*
X007911Y033689D01*
X008129Y033907D01*
X008283Y034174D01*
X008363Y034471D01*
X008363Y034779D01*
X008283Y035077D01*
X008129Y035344D01*
X007911Y035561D01*
X007645Y035716D01*
X007347Y035795D01*
X007039Y035795D01*
X006741Y035716D01*
X006475Y035561D01*
X006257Y035344D01*
X006103Y035077D01*
X006023Y034779D01*
X006023Y034471D01*
X006103Y034174D01*
X006257Y033907D01*
X006475Y033689D01*
X006741Y033535D01*
X007039Y033455D01*
X007347Y033455D01*
X007645Y033535D01*
X007992Y033770D02*
X008572Y033770D01*
X008572Y033928D02*
X008142Y033928D01*
X008233Y034087D02*
X008572Y034087D01*
X008572Y034245D02*
X008303Y034245D01*
X008345Y034404D02*
X008572Y034404D01*
X008572Y034563D02*
X008363Y034563D01*
X008363Y034721D02*
X008572Y034721D01*
X008572Y034880D02*
X008336Y034880D01*
X008294Y035038D02*
X008572Y035038D01*
X008572Y035197D02*
X008214Y035197D01*
X008118Y035355D02*
X008572Y035355D01*
X008572Y035514D02*
X007959Y035514D01*
X007719Y035672D02*
X008572Y035672D01*
X008572Y035831D02*
X004262Y035831D01*
X004262Y035989D02*
X008572Y035989D01*
X008572Y036148D02*
X004262Y036148D01*
X004262Y036306D02*
X008572Y036306D01*
X008572Y036465D02*
X004262Y036465D01*
X004262Y036624D02*
X005935Y036624D01*
X005935Y036782D02*
X004262Y036782D01*
X004262Y036941D02*
X005935Y036941D01*
X005935Y037099D02*
X004262Y037099D01*
X004262Y037258D02*
X005935Y037258D01*
X005935Y037416D02*
X004262Y037416D01*
X004262Y037575D02*
X005935Y037575D01*
X005935Y037733D02*
X004262Y037733D01*
X004262Y037892D02*
X005935Y037892D01*
X005935Y038050D02*
X004262Y038050D01*
X004262Y038209D02*
X005935Y038209D01*
X005935Y038368D02*
X004262Y038368D01*
X004262Y038526D02*
X005935Y038526D01*
X005935Y038685D02*
X004262Y038685D01*
X004262Y038843D02*
X005935Y038843D01*
X005935Y039002D02*
X004262Y039002D01*
X004262Y039160D02*
X005935Y039160D01*
X005935Y039319D02*
X004262Y039319D01*
X004262Y039477D02*
X005935Y039477D01*
X005935Y039636D02*
X004262Y039636D01*
X004262Y039794D02*
X005935Y039794D01*
X005935Y039953D02*
X004262Y039953D01*
X004262Y040112D02*
X005935Y040112D01*
X005935Y040270D02*
X004262Y040270D01*
X004262Y040429D02*
X005935Y040429D01*
X005935Y040587D02*
X004262Y040587D01*
X004262Y040746D02*
X005935Y040746D01*
X005935Y040904D02*
X004262Y040904D01*
X004262Y041063D02*
X005935Y041063D01*
X005935Y041221D02*
X004262Y041221D01*
X004262Y041380D02*
X005935Y041380D01*
X005935Y041538D02*
X004262Y041538D01*
X004262Y041697D02*
X005935Y041697D01*
X005935Y041856D02*
X004262Y041856D01*
X004262Y042014D02*
X005935Y042014D01*
X005935Y042173D02*
X004262Y042173D01*
X004262Y042331D02*
X005935Y042331D01*
X006662Y043441D02*
X004262Y043441D01*
X004262Y043599D02*
X006424Y043599D01*
X006266Y043758D02*
X004262Y043758D01*
X004262Y043917D02*
X006170Y043917D01*
X006092Y044075D02*
X004262Y044075D01*
X004262Y044234D02*
X006049Y044234D01*
X006023Y044392D02*
X004262Y044392D01*
X004262Y044551D02*
X006023Y044551D01*
X006042Y044709D02*
X004262Y044709D01*
X004262Y044868D02*
X006084Y044868D01*
X006154Y045026D02*
X004262Y045026D01*
X004262Y045185D02*
X006246Y045185D01*
X006397Y045343D02*
X004262Y045343D01*
X004262Y045502D02*
X006614Y045502D01*
X006667Y035672D02*
X004262Y035672D01*
X004262Y035514D02*
X006427Y035514D01*
X006268Y035355D02*
X004262Y035355D01*
X004262Y035197D02*
X006172Y035197D01*
X006092Y035038D02*
X004262Y035038D01*
X004262Y034880D02*
X006050Y034880D01*
X006023Y034721D02*
X004262Y034721D01*
X004262Y034563D02*
X006023Y034563D01*
X006041Y034404D02*
X004262Y034404D01*
X004262Y034245D02*
X006084Y034245D01*
X006153Y034087D02*
X004262Y034087D01*
X004262Y033928D02*
X006244Y033928D01*
X006394Y033770D02*
X004262Y033770D01*
X004262Y033611D02*
X006609Y033611D01*
X006769Y032501D02*
X004262Y032501D01*
X004262Y032343D02*
X006653Y032343D01*
X006604Y032184D02*
X004262Y032184D01*
X004262Y032026D02*
X006604Y032026D01*
X006667Y031867D02*
X004262Y031867D01*
X004262Y031709D02*
X006803Y031709D01*
X009072Y028696D02*
X012058Y028696D01*
X012025Y028538D02*
X009072Y028538D01*
X009072Y028379D02*
X012045Y028379D01*
X012129Y028221D02*
X009072Y028221D01*
X009554Y022830D02*
X008472Y022830D01*
X008472Y022672D02*
X009467Y022672D01*
X008472Y021562D02*
X013317Y021562D01*
X013211Y021403D02*
X008472Y021403D01*
X008472Y021245D02*
X013175Y021245D01*
X013192Y021086D02*
X008472Y021086D01*
X008472Y020928D02*
X013272Y020928D01*
X014035Y020928D02*
X022685Y020928D01*
X022644Y021086D02*
X014114Y021086D01*
X014131Y021245D02*
X022656Y021245D01*
X022727Y021403D02*
X014096Y021403D01*
X013990Y021562D02*
X022935Y021562D01*
X023310Y021562D02*
X027122Y021562D01*
X022764Y017440D02*
X013481Y017440D01*
X013574Y017281D02*
X022671Y017281D01*
X022644Y017123D02*
X015122Y017123D01*
X015122Y016964D02*
X022670Y016964D01*
X022763Y016806D02*
X015122Y016806D01*
X014622Y015537D02*
X013369Y015537D01*
X013533Y015379D02*
X014622Y015379D01*
X014622Y015220D02*
X013599Y015220D01*
X013600Y015062D02*
X014622Y015062D01*
X014622Y014903D02*
X013549Y014903D01*
X013421Y014745D02*
X014622Y014745D01*
X015027Y013600D02*
X014851Y013527D01*
X014717Y013393D01*
X014644Y013217D01*
X014644Y013027D01*
X014717Y012851D01*
X014851Y012717D01*
X015027Y012644D01*
X015217Y012644D01*
X015393Y012717D01*
X015527Y012851D01*
X015600Y013027D01*
X015600Y013217D01*
X015527Y013393D01*
X015393Y013527D01*
X015217Y013600D01*
X015027Y013600D01*
X014800Y013476D02*
X013444Y013476D01*
X013559Y013318D02*
X014686Y013318D01*
X014644Y013159D02*
X013600Y013159D01*
X013589Y013001D02*
X014655Y013001D01*
X014726Y012842D02*
X013518Y012842D01*
X013312Y012684D02*
X014932Y012684D01*
X015312Y012684D02*
X016932Y012684D01*
X016851Y012717D02*
X017027Y012644D01*
X017217Y012644D01*
X017393Y012717D01*
X017527Y012851D01*
X017600Y013027D01*
X017600Y013217D01*
X017527Y013393D01*
X017393Y013527D01*
X017217Y013600D01*
X017027Y013600D01*
X016851Y013527D01*
X016717Y013393D01*
X016644Y013217D01*
X016644Y013027D01*
X016717Y012851D01*
X016851Y012717D01*
X016726Y012842D02*
X015518Y012842D01*
X015589Y013001D02*
X016655Y013001D01*
X016644Y013159D02*
X015600Y013159D01*
X015559Y013318D02*
X016686Y013318D01*
X016800Y013476D02*
X015444Y013476D01*
X017444Y013476D02*
X018800Y013476D01*
X018686Y013318D02*
X017559Y013318D01*
X017600Y013159D02*
X018644Y013159D01*
X018655Y013001D02*
X017589Y013001D01*
X017518Y012842D02*
X018726Y012842D01*
X018932Y012684D02*
X017312Y012684D01*
X029421Y014745D02*
X030824Y014745D01*
X030851Y014717D02*
X031027Y014644D01*
X031217Y014644D01*
X031393Y014717D01*
X031527Y014851D01*
X031600Y015027D01*
X031600Y015217D01*
X031527Y015393D01*
X031393Y015527D01*
X031217Y015600D01*
X031027Y015600D01*
X030851Y015527D01*
X030717Y015393D01*
X030644Y015217D01*
X030644Y015027D01*
X030717Y014851D01*
X030851Y014717D01*
X030695Y014903D02*
X029549Y014903D01*
X029600Y015062D02*
X030644Y015062D01*
X030645Y015220D02*
X029599Y015220D01*
X029533Y015379D02*
X030711Y015379D01*
X030875Y015537D02*
X029369Y015537D01*
X031369Y015537D02*
X032875Y015537D01*
X032851Y015527D02*
X032717Y015393D01*
X032644Y015217D01*
X032644Y015027D01*
X032717Y014851D01*
X032851Y014717D01*
X033027Y014644D01*
X033217Y014644D01*
X033393Y014717D01*
X033527Y014851D01*
X033600Y015027D01*
X033600Y015217D01*
X033527Y015393D01*
X033393Y015527D01*
X033217Y015600D01*
X033027Y015600D01*
X032851Y015527D01*
X032711Y015379D02*
X031533Y015379D01*
X031599Y015220D02*
X032645Y015220D01*
X032644Y015062D02*
X031600Y015062D01*
X031549Y014903D02*
X032695Y014903D01*
X032824Y014745D02*
X031421Y014745D01*
X033421Y014745D02*
X043824Y014745D01*
X043695Y014903D02*
X033549Y014903D01*
X033600Y015062D02*
X043644Y015062D01*
X043645Y015220D02*
X033599Y015220D01*
X033533Y015379D02*
X043711Y015379D01*
X043875Y015537D02*
X033369Y015537D01*
X033444Y013476D02*
X034800Y013476D01*
X034686Y013318D02*
X033559Y013318D01*
X033600Y013159D02*
X034644Y013159D01*
X034655Y013001D02*
X033589Y013001D01*
X033518Y012842D02*
X034726Y012842D01*
X034932Y012684D02*
X033312Y012684D01*
X035408Y009513D02*
X042837Y009513D01*
X042701Y009354D02*
X035544Y009354D01*
X035600Y009196D02*
X042644Y009196D01*
X049341Y005549D02*
X050372Y005549D01*
X050372Y005391D02*
X049529Y005391D01*
X049594Y005232D02*
X050372Y005232D01*
X050372Y005073D02*
X049600Y005073D01*
X049554Y004915D02*
X050372Y004915D01*
X032845Y027270D02*
X032172Y027270D01*
X032172Y027428D02*
X032983Y027428D01*
X032172Y028538D02*
X033827Y028538D01*
X033613Y028696D02*
X032172Y028696D01*
X032172Y028855D02*
X033539Y028855D01*
X033525Y029014D02*
X032172Y029014D01*
X032172Y029172D02*
X033564Y029172D01*
X033676Y029331D02*
X032172Y029331D01*
X019214Y025684D02*
X019141Y025684D01*
D16*
X009922Y023722D02*
X007693Y023722D01*
X007693Y023650D01*
X006693Y023110D02*
X006693Y024493D01*
X006693Y022030D02*
X005595Y022030D01*
X007693Y021490D02*
X007693Y020410D01*
X007693Y020497D01*
X009922Y020497D01*
X009922Y018522D02*
X007693Y018522D01*
X007693Y018250D01*
X007693Y018522D02*
X007693Y019330D01*
X007693Y017170D02*
X007693Y016290D01*
X007693Y016090D01*
X007693Y016290D02*
X009954Y016290D01*
X006693Y016630D02*
X005603Y016630D01*
X039555Y049122D02*
X039555Y051654D01*
X039555Y051955D01*
X040095Y052495D01*
X040095Y052654D01*
X052654Y037935D02*
X053666Y037935D01*
X053750Y020950D02*
X052654Y020950D01*
X052654Y018790D02*
X052654Y017322D01*
X052654Y017710D01*
X052654Y017322D02*
X052654Y016630D01*
X052654Y017322D02*
X053922Y017322D01*
D17*
X054272Y016972D01*
X054272Y011872D01*
X052922Y010522D01*
X050922Y010522D01*
X049122Y008722D01*
X049122Y007122D01*
X047122Y005122D01*
X012322Y005122D01*
X010922Y006522D01*
X010922Y009182D01*
X008682Y011422D01*
X006322Y011422D01*
X005203Y012541D01*
X005203Y016230D01*
X005603Y016630D01*
X009954Y016290D02*
X010622Y015622D01*
X010622Y013022D01*
X012822Y010822D01*
X013772Y010822D01*
X014910Y009684D01*
X009922Y018522D02*
X039522Y018522D01*
X044522Y013522D01*
X044522Y012145D01*
X053750Y020950D02*
X054322Y021522D01*
X054322Y027397D01*
X052297Y029422D01*
X049051Y029422D01*
X047751Y028122D01*
X047751Y026232D01*
X045083Y026232D01*
X042693Y026232D01*
X042693Y036302D01*
X034792Y036302D01*
X034792Y035297D01*
X033286Y035297D01*
X021722Y035297D01*
X018938Y037662D02*
X015793Y037662D01*
X015093Y036962D01*
X015093Y024143D01*
X014672Y023722D01*
X009922Y023722D01*
X009922Y024722D02*
X010322Y024722D01*
X011272Y025672D01*
X011272Y044552D01*
X015242Y048522D01*
X038922Y048522D01*
X039522Y049122D01*
X039555Y049122D01*
X045772Y053772D02*
X053978Y045566D01*
X053978Y038247D01*
X053666Y037935D01*
X042693Y036302D02*
X042693Y041376D01*
X042036Y042034D01*
X039659Y042034D01*
X033286Y035297D02*
X033286Y033947D01*
X035573Y033947D01*
X020147Y020497D02*
X009922Y020497D01*
X009922Y024722D02*
X006922Y024722D01*
X006693Y024493D01*
X004903Y022722D02*
X005595Y022030D01*
X004903Y022722D02*
X004903Y046472D01*
X012203Y053772D01*
X045772Y053772D01*
X018963Y042337D02*
X015793Y042337D01*
X015793Y037662D01*
M02*
