%
M48
M72
T01C0.0236
T02C0.0320
T03C0.0354
T04C0.0394
T05C0.0551
T06C0.1181
T07C0.1300
%
T01
X10122Y5122
X12122Y5122
X10122Y7122
X12122Y10122
X12122Y12122
X12122Y14122
X14122Y14122
X14122Y12122
X14122Y10122
X16122Y10122
X16122Y12122
X17122Y14122
X19122Y14122
X21122Y13622
X23122Y13622
X25122Y13622
X25122Y14522
X26122Y12122
X26122Y10122
X28122Y9122
X28122Y7122
X30122Y9122
X30122Y11122
X28122Y11122
X28122Y15122
X28122Y19122
X26622Y19822
X24322Y20922
X22303Y22191
X21622Y20822
X20612Y20752
X20612Y21652
X20612Y22652
X18939Y21391
X18122Y23122
X22212Y24226
X23712Y27526
X24722Y30622
X25422Y31722
X27622Y33922
X28722Y33922
X32122Y34122
X34122Y31122
X38122Y31122
X38122Y33122
X40122Y34122
X42122Y33122
X41122Y36122
X40132Y36622
X41122Y40122
X40132Y40632
X40132Y41632
X40132Y42632
X40132Y46132
X40132Y47172
X40122Y49122
X38122Y49122
X38122Y47122
X42122Y46122
X42122Y49122
X44122Y49122
X46122Y49122
X46122Y51122
X48122Y49122
X50022Y49322
X50122Y47122
X50122Y45122
X48122Y47122
X46622Y46352
X45122Y46852
X46622Y44852
X46622Y43352
X48122Y43122
X48122Y41122
X46622Y40302
X46622Y38802
X46622Y37302
X47922Y36022
X46622Y33552
X46622Y32052
X46622Y30552
X46622Y29052
X45122Y27302
X46622Y25302
X46622Y23802
X46622Y22302
X45122Y20302
X46622Y19302
X46622Y17802
X46622Y16302
X45122Y14122
X46622Y13622
X46622Y12122
X46622Y11122
X48122Y13122
X50122Y13122
X50122Y7122
X48122Y7122
X48122Y5122
X50122Y5122
X46122Y5122
X44122Y5122
X46122Y7122
X42122Y9122
X40122Y9122
X39493Y11014
X38693Y11014
X38122Y9122
X36122Y9122
X34122Y9122
X32122Y9122
X32122Y7122
X38693Y13266
X39493Y13266
X40393Y13266
X42122Y15122
X39922Y18122
X39922Y19122
X39922Y20122
X40122Y21122
X42122Y21122
X42122Y19122
X42122Y23122
X39782Y25622
X39782Y26622
X39782Y27622
X40122Y29122
X42122Y29122
X45122Y34052
X48122Y30122
X48473Y29373
X53172Y29572
X45122Y40802
X34226Y42766
X33372Y44412
X30622Y44122
X28122Y47122
X26122Y47122
X26122Y51122
X28122Y51122
X30122Y51122
X30122Y53122
X32122Y51122
X32195Y47642
X30695Y47642
X27122Y54122
X18122Y49122
X16122Y45122
X12122Y46622
X11122Y45622
X10122Y44622
X10122Y47122
X9422Y49322
X10122Y41172
X10122Y40172
X10122Y39172
X12122Y39122
X11882Y40172
X12882Y40172
X13882Y40172
X12122Y41122
X17882Y40172
X19882Y40172
X20882Y40172
X21882Y40172
X22122Y41122
X22882Y40172
X23882Y40172
X24882Y40172
X25882Y40172
X26122Y41122
X26882Y40172
X26122Y39122
X24122Y41122
X22122Y39122
X20122Y39122
X20122Y35122
X22122Y34122
X22122Y32122
X18322Y32722
X17972Y32122
X16122Y33122
X14882Y33582
X12122Y33122
X10422Y30872
X9772Y31422
X9772Y32222
X10422Y29722
X8032Y29272
X7032Y29272
X6032Y29272
X6277Y31054
X5282Y32732
X5282Y33732
X6122Y27122
X8972Y27272
X12122Y23122
X12122Y21122
X10122Y21122
X14820Y18521
X15820Y18521
X16820Y18521
X17620Y18521
X17122Y17122
X19122Y17122
X21122Y17122
X22122Y10122
X24122Y10122
X19880Y9985
X19880Y9085
X18122Y10122
X12122Y16122
X10122Y15122
X10122Y13122
X10122Y11122
X14362Y27123
X16322Y27123
X16122Y29122
X12122Y35122
X21122Y45122
X34122Y38122
X30122Y25122
X28582Y24222
X30122Y21122
X32122Y21122
X34122Y23122
X34226Y24766
X38122Y23122
X37922Y17122
X38122Y15122
X34122Y15122
X34226Y16766
X49122Y52122
X49122Y54122
X47122Y54122
T02
X29882Y43103
X28882Y43103
X27882Y43103
X26882Y43103
X25882Y43103
X24882Y43103
X23882Y43103
X22882Y43103
X21882Y43103
X20882Y43103
X19882Y43103
X18882Y43103
X17882Y43103
X16882Y43103
X15882Y43103
X14882Y43103
X13882Y43103
X12882Y43103
X11882Y43103
X10882Y43103
X11387Y44655
X13387Y44655
X13882Y37103
X12882Y37103
X11882Y37103
X10882Y37103
X14882Y37103
X15882Y37103
X16882Y37103
X17882Y37103
X18882Y37103
X19882Y37103
X20882Y37103
X21882Y37103
X22882Y37103
X23882Y37103
X24882Y37103
X25882Y37103
X26882Y37103
X27882Y37103
X28882Y37103
X29882Y37103
X24272Y45963
X22372Y45963
T03
X22030Y51594
X20950Y51594
X19870Y51594
X18790Y51594
X17710Y51594
X18250Y52714
X19330Y52714
X20410Y52714
X21490Y52714
X7753Y41715
X7753Y40635
X7753Y39555
X7753Y38475
X7753Y37395
X6633Y37935
X6633Y39015
X6633Y40095
X6633Y41175
X7753Y22075
X7753Y20995
X7753Y19915
X7753Y18835
X7753Y17755
X7753Y16675
X7753Y15595
X7753Y14515
X6633Y15055
X6633Y16135
X6633Y17215
X6633Y18295
X6633Y19375
X6633Y20455
X6633Y21535
X17710Y7753
X18790Y7753
X19870Y7753
X20950Y7753
X22030Y7753
X21490Y6633
X20410Y6633
X19330Y6633
X18250Y6633
X37395Y7753
X38475Y7753
X39555Y7753
X40635Y7753
X41715Y7753
X41175Y6633
X40095Y6633
X39015Y6633
X37935Y6633
X51594Y16090
X51594Y17170
X51594Y18250
X51594Y19330
X51594Y20410
X51594Y21490
X51594Y22570
X51594Y23650
X52714Y23110
X52714Y22030
X52714Y20950
X52714Y19870
X52714Y18790
X52714Y17710
X52714Y16630
X51594Y37395
X51594Y38475
X51594Y39555
X51594Y40635
X51594Y41715
X52714Y41175
X52714Y40095
X52714Y39015
X52714Y37935
X41715Y51594
X40635Y51594
X39555Y51594
X38475Y51594
X37395Y51594
X37935Y52714
X39015Y52714
X40095Y52714
X41175Y52714
T04
X22422Y27522
X29782Y22503
X29782Y7503
X7422Y27522
T05
X12422Y25522
X12422Y29522
X17922Y29522
X17922Y25522
X28032Y17503
X31532Y17503
X34232Y17803
X35632Y17803
X37032Y17803
X37532Y21003
X33732Y21003
X34232Y25803
X35632Y25803
X37032Y25803
X37532Y29003
X33732Y29003
X34232Y33803
X35632Y33803
X37032Y33803
X37532Y37003
X33732Y37003
X34232Y41803
X35632Y41803
X37032Y41803
X37532Y13003
X33732Y13003
X31532Y12503
X28032Y12503
T06
X6101Y6091
X29723Y29713
X53345Y53335
X53345Y6091
X6101Y53335
T07
X7193Y44485
X14940Y52154
X24800Y52154
X34625Y52154
X44485Y52154
X52154Y44485
X52154Y34625
X52154Y26430
X52154Y13310
X44485Y7193
X34625Y7193
X24800Y7193
X14940Y7193
X7193Y11735
X7193Y24855
X7193Y34625
M30
