G75*
G70*
%OFA0B0*%
%FSLAX24Y24*%
%IPPOS*%
%LPD*%
%AMOC8*
5,1,8,0,0,1.08239X$1,22.5*
%
%ADD10R,0.1250X0.1000*%
%ADD11R,0.1000X0.1250*%
%ADD12R,0.0709X0.0630*%
%ADD13R,0.0710X0.0630*%
%ADD14R,0.0630X0.0710*%
%ADD15R,0.0630X0.0709*%
%ADD16R,0.1575X0.2165*%
%ADD17R,0.0217X0.0472*%
%ADD18R,0.0591X0.0787*%
%ADD19R,0.0787X0.0591*%
%ADD20R,0.0236X0.0866*%
%ADD21R,0.0098X0.0197*%
D10*
X014522Y015422D03*
X014522Y018522D03*
X040122Y030212D03*
X040122Y033312D03*
X053622Y046222D03*
X053622Y049322D03*
X006022Y049322D03*
X006022Y046222D03*
D11*
X009922Y053122D03*
X013022Y053122D03*
X028922Y053622D03*
X032022Y053622D03*
X037032Y044603D03*
X040132Y044603D03*
D12*
X037066Y047505D03*
X037066Y048607D03*
X031402Y047642D03*
X031402Y046540D03*
X029712Y046540D03*
X029712Y047642D03*
D13*
X032917Y046422D03*
X032917Y045302D03*
X016882Y045701D03*
X016882Y044581D03*
X018313Y019632D03*
X018313Y018512D03*
X019462Y018512D03*
X019462Y019632D03*
X020612Y019632D03*
X020612Y018512D03*
D14*
X018348Y021291D03*
X017228Y021291D03*
X033452Y027401D03*
X034572Y027401D03*
X035902Y027401D03*
X037022Y027401D03*
X038493Y035812D03*
X039613Y035812D03*
X013848Y046647D03*
X012729Y046647D03*
X038012Y005582D03*
X039132Y005582D03*
D15*
X040121Y005582D03*
X041223Y005582D03*
X015868Y046647D03*
X014766Y046647D03*
D16*
X023959Y024203D03*
X027305Y024203D03*
D17*
X022677Y020124D03*
X022303Y020124D03*
X021929Y020124D03*
X021929Y019100D03*
X022677Y019100D03*
D18*
X042792Y018803D03*
X043973Y018803D03*
X043973Y012622D03*
X042792Y012622D03*
X042792Y026303D03*
X043973Y026303D03*
X043973Y033053D03*
X042792Y033053D03*
X042792Y039303D03*
X043973Y039303D03*
X043973Y045353D03*
X042792Y045353D03*
D19*
X039782Y024244D03*
X039782Y023063D03*
X039922Y016394D03*
X039922Y015213D03*
D20*
X035731Y045461D03*
X035231Y045461D03*
X034731Y045461D03*
X034231Y045461D03*
X034231Y047509D03*
X034731Y047509D03*
X035231Y047509D03*
X035731Y047509D03*
D21*
X052119Y031166D03*
X052316Y031166D03*
X052513Y031166D03*
X052710Y031166D03*
X052710Y030083D03*
X052513Y030083D03*
X052316Y030083D03*
X052119Y030083D03*
M02*
