G75*
G70*
%OFA0B0*%
%FSLAX24Y24*%
%IPPOS*%
%LPD*%
%AMOC8*
5,1,8,0,0,1.08239X$1,22.5*
%
%ADD10C,0.0120*%
%ADD11C,0.0060*%
%ADD12C,0.0040*%
D10*
X000169Y000169D02*
X065555Y000169D01*
X065555Y007775D01*
X062275Y007775D01*
X062275Y014563D01*
X065555Y014563D01*
X065555Y021854D01*
X000169Y021854D01*
X000169Y000169D01*
D11*
X034769Y002999D02*
X034769Y003319D01*
X034876Y003426D01*
X034983Y003319D01*
X034983Y002999D01*
X035196Y002999D02*
X035196Y003426D01*
X035089Y003426D01*
X034983Y003319D01*
X035414Y003319D02*
X035520Y003426D01*
X035734Y003426D01*
X035841Y003319D01*
X035841Y003106D01*
X035734Y002999D01*
X035520Y002999D01*
X035414Y003106D01*
X035414Y003319D01*
X036057Y003426D02*
X036270Y003426D01*
X036164Y003533D02*
X036164Y003106D01*
X036057Y002999D01*
X036487Y002999D02*
X036593Y003106D01*
X036593Y003533D01*
X036487Y003426D02*
X036700Y003426D01*
X036918Y003319D02*
X036918Y003106D01*
X037024Y002999D01*
X037238Y002999D01*
X037345Y003106D01*
X037345Y003319D01*
X037238Y003426D01*
X037024Y003426D01*
X036918Y003319D01*
X037562Y003213D02*
X037562Y003106D01*
X037669Y002999D01*
X037989Y002999D01*
X037989Y003640D01*
X037669Y003640D01*
X037562Y003533D01*
X037562Y003426D01*
X037669Y003319D01*
X037989Y003319D01*
X037669Y003319D02*
X037562Y003213D01*
X037610Y018399D02*
X037289Y018399D01*
X037289Y018719D01*
X037396Y018826D01*
X037610Y018826D01*
X037610Y018613D02*
X037289Y018613D01*
X037072Y018826D02*
X036858Y018826D01*
X036965Y018933D02*
X036965Y018506D01*
X036858Y018399D01*
X036642Y018399D02*
X036322Y018399D01*
X036215Y018506D01*
X036215Y018613D01*
X036322Y018719D01*
X036642Y018719D01*
X036642Y018399D02*
X036642Y019040D01*
X036322Y019040D01*
X036215Y018933D01*
X036215Y018826D01*
X036322Y018719D01*
X035998Y018719D02*
X035891Y018826D01*
X035678Y018826D01*
X035571Y018719D01*
X035571Y018613D01*
X035998Y018613D01*
X035998Y018719D02*
X035998Y018506D01*
X035891Y018399D01*
X035678Y018399D01*
X035353Y018506D02*
X035246Y018613D01*
X034926Y018613D01*
X034926Y018719D02*
X034926Y018399D01*
X035246Y018399D01*
X035353Y018506D01*
X035246Y018826D02*
X035033Y018826D01*
X034926Y018719D01*
X034709Y018719D02*
X034602Y018826D01*
X034282Y018826D01*
X034064Y018719D02*
X034064Y018506D01*
X033957Y018399D01*
X033744Y018399D01*
X033637Y018506D01*
X033637Y018719D01*
X033744Y018826D01*
X033957Y018826D01*
X034064Y018719D01*
X034282Y018399D02*
X034602Y018399D01*
X034709Y018506D01*
X034709Y018719D01*
X033420Y018826D02*
X033420Y018399D01*
X032993Y018399D02*
X032993Y018719D01*
X033099Y018826D01*
X033420Y018826D01*
X037610Y018613D02*
X037716Y018506D01*
X037610Y018399D01*
X037934Y018506D02*
X038041Y018399D01*
X038254Y018399D01*
X038361Y018506D01*
X038254Y018719D02*
X038041Y018719D01*
X037934Y018613D01*
X037934Y018506D01*
X038254Y018719D02*
X038361Y018826D01*
X038361Y018933D01*
X038254Y019040D01*
X038041Y019040D01*
X037934Y018933D01*
X038579Y018719D02*
X039006Y018719D01*
X039223Y018826D02*
X039543Y018826D01*
X039650Y018719D01*
X039543Y018613D01*
X039330Y018613D01*
X039223Y018506D01*
X039330Y018399D01*
X039650Y018399D01*
X039868Y018399D02*
X039868Y018826D01*
X040295Y018826D02*
X040295Y018506D01*
X040188Y018399D01*
X039868Y018399D01*
X040512Y018399D02*
X040512Y019040D01*
X040939Y019040D02*
X040939Y018399D01*
X040939Y018719D02*
X040512Y018719D01*
D12*
X040205Y017426D02*
X040205Y017349D01*
X040205Y017196D02*
X040205Y016889D01*
X040282Y016889D02*
X040128Y016889D01*
X039975Y016966D02*
X039975Y017119D01*
X039898Y017196D01*
X039668Y017196D01*
X039668Y016812D01*
X039745Y016736D01*
X039822Y016736D01*
X039898Y016889D02*
X039668Y016889D01*
X039515Y016889D02*
X039515Y017349D01*
X039438Y017196D02*
X039284Y017196D01*
X039208Y017119D01*
X039208Y016889D01*
X038978Y016966D02*
X038901Y016889D01*
X038978Y016966D02*
X038978Y017273D01*
X039054Y017196D02*
X038901Y017196D01*
X038747Y016812D02*
X038441Y016812D01*
X038287Y016889D02*
X037980Y016889D01*
X038134Y016889D02*
X038134Y017349D01*
X038287Y017196D01*
X037827Y017196D02*
X037827Y017273D01*
X037750Y017349D01*
X037597Y017349D01*
X037520Y017273D01*
X037520Y017196D01*
X037597Y017119D01*
X037750Y017119D01*
X037827Y017196D01*
X037750Y017119D02*
X037827Y017043D01*
X037827Y016966D01*
X037750Y016889D01*
X037597Y016889D01*
X037520Y016966D01*
X037520Y017043D01*
X037597Y017119D01*
X037366Y016812D02*
X037059Y016812D01*
X036906Y016889D02*
X036599Y017196D01*
X036599Y017273D01*
X036676Y017349D01*
X036829Y017349D01*
X036906Y017273D01*
X036906Y016889D02*
X036599Y016889D01*
X036446Y016812D02*
X036139Y016812D01*
X035985Y016889D02*
X035678Y016889D01*
X035525Y016889D02*
X035218Y017196D01*
X035218Y017273D01*
X035295Y017349D01*
X035448Y017349D01*
X035525Y017273D01*
X035832Y017349D02*
X035832Y016889D01*
X035525Y016889D02*
X035218Y016889D01*
X035832Y017349D02*
X035985Y017196D01*
X039438Y017196D02*
X039515Y017119D01*
X039898Y016889D02*
X039975Y016966D01*
X040205Y017196D02*
X040282Y017196D01*
X040512Y017349D02*
X040512Y016889D01*
X040589Y016889D02*
X040435Y016889D01*
X040896Y017119D02*
X041049Y017119D01*
X041049Y016889D02*
X041049Y017349D01*
X040742Y017349D01*
X040589Y017349D02*
X040512Y017349D01*
M02*
