G75*
G70*
%OFA0B0*%
%FSLAX24Y24*%
%IPPOS*%
%LPD*%
%AMOC8*
5,1,8,0,0,1.08239X$1,22.5*
%
%ADD10R,1.5039X1.5039*%
%ADD11R,0.0800X0.2300*%
%ADD12R,0.2300X0.1000*%
%ADD13R,0.0700X0.2500*%
%ADD14R,0.2500X0.0700*%
%ADD15R,0.3000X0.3000*%
%ADD16R,0.4000X0.4500*%
%ADD17R,0.0300X0.0580*%
%ADD18R,0.0580X0.0300*%
%ADD19R,0.0710X0.0789*%
%ADD20C,0.0600*%
%ADD21R,0.0710X0.0790*%
%ADD22R,0.0867X0.0277*%
%ADD23R,0.0867X0.1261*%
%ADD24R,0.0789X0.0710*%
%ADD25C,0.3623*%
%ADD26C,0.0050*%
%ADD27R,0.0277X0.0867*%
%ADD28R,0.1261X0.0867*%
%ADD29C,0.0516*%
%ADD30C,0.0740*%
%ADD31C,0.0830*%
%ADD32C,0.1130*%
%ADD33C,0.2080*%
%ADD34C,0.0552*%
%ADD35C,0.0476*%
%ADD36C,0.0480*%
D10*
X053492Y011012D03*
D11*
X012469Y013019D03*
D12*
X005119Y013269D03*
D13*
X012819Y007519D03*
X017419Y007519D03*
D14*
X015119Y009819D03*
X015119Y005219D03*
D15*
X017169Y012669D03*
D16*
X004169Y007919D03*
D17*
X014007Y009191D03*
X014322Y009191D03*
X014637Y009191D03*
X014952Y009191D03*
X015267Y009191D03*
X015582Y009191D03*
X015897Y009191D03*
X016211Y009191D03*
X016211Y005811D03*
X015897Y005811D03*
X015582Y005811D03*
X015267Y005811D03*
X014952Y005811D03*
X014637Y005811D03*
X014322Y005811D03*
X014007Y005811D03*
D18*
X013419Y006399D03*
X013419Y006714D03*
X013419Y007029D03*
X013419Y007344D03*
X013419Y007659D03*
X013419Y007974D03*
X013419Y008289D03*
X013419Y008604D03*
X016799Y008604D03*
X016799Y008289D03*
X016799Y007974D03*
X016799Y007659D03*
X016799Y007344D03*
X016799Y007029D03*
X016799Y006714D03*
X016799Y006399D03*
D19*
X010260Y009371D03*
X009158Y009371D03*
X008000Y008131D03*
X006898Y008131D03*
X012498Y002881D03*
X013600Y002881D03*
X019500Y002881D03*
X020603Y002881D03*
X003715Y014337D03*
X002613Y014337D03*
X020018Y015951D03*
X021120Y015951D03*
D20*
X017499Y003291D03*
X015599Y003291D03*
D21*
X010159Y010511D03*
X009039Y010511D03*
D22*
X013304Y012023D03*
X013304Y012531D03*
X013304Y013055D03*
X013304Y013547D03*
X013304Y014039D03*
D23*
X016060Y013039D03*
D24*
X019969Y012590D03*
X019969Y013693D03*
X011389Y012423D03*
X011389Y011320D03*
X002657Y011245D03*
X002657Y010143D03*
D25*
X003138Y003138D03*
X027153Y003138D03*
X030945Y003138D03*
X044476Y003138D03*
X062586Y003138D03*
X059831Y011012D03*
X046760Y011012D03*
X042823Y011012D03*
X038886Y011012D03*
X044476Y018886D03*
X030945Y018886D03*
X027153Y018886D03*
X003138Y018886D03*
X062586Y018886D03*
D26*
X005106Y001169D02*
X001169Y001169D01*
X005106Y001169D01*
X005106Y005106D01*
X001169Y005106D01*
X001169Y001169D01*
X001169Y001218D02*
X005106Y001218D01*
X005106Y001266D02*
X001169Y001266D01*
X001169Y001315D02*
X005106Y001315D01*
X005106Y001363D02*
X001169Y001363D01*
X001169Y001412D02*
X005106Y001412D01*
X005106Y001460D02*
X001169Y001460D01*
X001169Y001509D02*
X005106Y001509D01*
X005106Y001557D02*
X001169Y001557D01*
X001169Y001606D02*
X005106Y001606D01*
X005106Y001655D02*
X001169Y001655D01*
X001169Y001703D02*
X005106Y001703D01*
X005106Y001752D02*
X001169Y001752D01*
X001169Y001800D02*
X005106Y001800D01*
X005106Y001849D02*
X001169Y001849D01*
X001169Y001897D02*
X005106Y001897D01*
X005106Y001946D02*
X001169Y001946D01*
X001169Y001994D02*
X005106Y001994D01*
X005106Y002043D02*
X001169Y002043D01*
X001169Y002091D02*
X005106Y002091D01*
X005106Y002140D02*
X001169Y002140D01*
X001169Y002189D02*
X005106Y002189D01*
X005106Y002237D02*
X001169Y002237D01*
X001169Y002286D02*
X005106Y002286D01*
X005106Y002334D02*
X001169Y002334D01*
X001169Y002383D02*
X005106Y002383D01*
X005106Y002431D02*
X001169Y002431D01*
X001169Y002480D02*
X005106Y002480D01*
X005106Y002528D02*
X001169Y002528D01*
X001169Y002577D02*
X005106Y002577D01*
X005106Y002625D02*
X001169Y002625D01*
X001169Y002674D02*
X005106Y002674D01*
X005106Y002723D02*
X001169Y002723D01*
X001169Y002771D02*
X005106Y002771D01*
X005106Y002820D02*
X001169Y002820D01*
X001169Y002868D02*
X005106Y002868D01*
X005106Y002917D02*
X001169Y002917D01*
X001169Y002965D02*
X005106Y002965D01*
X005106Y003014D02*
X001169Y003014D01*
X001169Y003062D02*
X005106Y003062D01*
X005106Y003111D02*
X001169Y003111D01*
X001169Y003159D02*
X005106Y003159D01*
X005106Y003208D02*
X001169Y003208D01*
X001169Y003256D02*
X005106Y003256D01*
X005106Y003305D02*
X001169Y003305D01*
X001169Y003354D02*
X005106Y003354D01*
X005106Y003402D02*
X001169Y003402D01*
X001169Y003451D02*
X005106Y003451D01*
X005106Y003499D02*
X001169Y003499D01*
X001169Y003548D02*
X005106Y003548D01*
X005106Y003596D02*
X001169Y003596D01*
X001169Y003645D02*
X005106Y003645D01*
X005106Y003693D02*
X001169Y003693D01*
X001169Y003742D02*
X005106Y003742D01*
X005106Y003790D02*
X001169Y003790D01*
X001169Y003839D02*
X005106Y003839D01*
X005106Y003888D02*
X001169Y003888D01*
X001169Y003936D02*
X005106Y003936D01*
X005106Y003985D02*
X001169Y003985D01*
X001169Y004033D02*
X005106Y004033D01*
X005106Y004082D02*
X001169Y004082D01*
X001169Y004130D02*
X005106Y004130D01*
X005106Y004179D02*
X001169Y004179D01*
X001169Y004227D02*
X005106Y004227D01*
X005106Y004276D02*
X001169Y004276D01*
X001169Y004324D02*
X005106Y004324D01*
X005106Y004373D02*
X001169Y004373D01*
X001169Y004422D02*
X005106Y004422D01*
X005106Y004470D02*
X001169Y004470D01*
X001169Y004519D02*
X005106Y004519D01*
X005106Y004567D02*
X001169Y004567D01*
X001169Y004616D02*
X005106Y004616D01*
X005106Y004664D02*
X001169Y004664D01*
X001169Y004713D02*
X005106Y004713D01*
X005106Y004761D02*
X001169Y004761D01*
X001169Y004810D02*
X005106Y004810D01*
X005106Y004858D02*
X001169Y004858D01*
X001169Y004907D02*
X005106Y004907D01*
X005106Y004956D02*
X001169Y004956D01*
X001169Y005004D02*
X005106Y005004D01*
X005106Y005053D02*
X001169Y005053D01*
X001169Y005101D02*
X005106Y005101D01*
X025185Y005106D02*
X025185Y001169D01*
X029122Y001169D01*
X029122Y005106D01*
X025185Y005106D01*
X025185Y005101D02*
X029122Y005101D01*
X029122Y005053D02*
X025185Y005053D01*
X025185Y005004D02*
X029122Y005004D01*
X029122Y004956D02*
X025185Y004956D01*
X025185Y004907D02*
X029122Y004907D01*
X029122Y004858D02*
X025185Y004858D01*
X025185Y004810D02*
X029122Y004810D01*
X029122Y004761D02*
X025185Y004761D01*
X025185Y004713D02*
X029122Y004713D01*
X029122Y004664D02*
X025185Y004664D01*
X025185Y004616D02*
X029122Y004616D01*
X029122Y004567D02*
X025185Y004567D01*
X025185Y004519D02*
X029122Y004519D01*
X029122Y004470D02*
X025185Y004470D01*
X025185Y004422D02*
X029122Y004422D01*
X029122Y004373D02*
X025185Y004373D01*
X025185Y004324D02*
X029122Y004324D01*
X029122Y004276D02*
X025185Y004276D01*
X025185Y004227D02*
X029122Y004227D01*
X029122Y004179D02*
X025185Y004179D01*
X025185Y004130D02*
X029122Y004130D01*
X029122Y004082D02*
X025185Y004082D01*
X025185Y004033D02*
X029122Y004033D01*
X029122Y003985D02*
X025185Y003985D01*
X025185Y003936D02*
X029122Y003936D01*
X029122Y003888D02*
X025185Y003888D01*
X025185Y003839D02*
X029122Y003839D01*
X029122Y003790D02*
X025185Y003790D01*
X025185Y003742D02*
X029122Y003742D01*
X029122Y003693D02*
X025185Y003693D01*
X025185Y003645D02*
X029122Y003645D01*
X029122Y003596D02*
X025185Y003596D01*
X025185Y003548D02*
X029122Y003548D01*
X029122Y003499D02*
X025185Y003499D01*
X025185Y003451D02*
X029122Y003451D01*
X029122Y003402D02*
X025185Y003402D01*
X025185Y003354D02*
X029122Y003354D01*
X029122Y003305D02*
X025185Y003305D01*
X025185Y003256D02*
X029122Y003256D01*
X029122Y003208D02*
X025185Y003208D01*
X025185Y003159D02*
X029122Y003159D01*
X029122Y003111D02*
X025185Y003111D01*
X025185Y003062D02*
X029122Y003062D01*
X029122Y003014D02*
X025185Y003014D01*
X025185Y002965D02*
X029122Y002965D01*
X029122Y002917D02*
X025185Y002917D01*
X025185Y002868D02*
X029122Y002868D01*
X029122Y002820D02*
X025185Y002820D01*
X025185Y002771D02*
X029122Y002771D01*
X029122Y002723D02*
X025185Y002723D01*
X025185Y002674D02*
X029122Y002674D01*
X029122Y002625D02*
X025185Y002625D01*
X025185Y002577D02*
X029122Y002577D01*
X029122Y002528D02*
X025185Y002528D01*
X025185Y002480D02*
X029122Y002480D01*
X029122Y002431D02*
X025185Y002431D01*
X025185Y002383D02*
X029122Y002383D01*
X029122Y002334D02*
X025185Y002334D01*
X025185Y002286D02*
X029122Y002286D01*
X029122Y002237D02*
X025185Y002237D01*
X025185Y002189D02*
X029122Y002189D01*
X029122Y002140D02*
X025185Y002140D01*
X025185Y002091D02*
X029122Y002091D01*
X029122Y002043D02*
X025185Y002043D01*
X025185Y001994D02*
X029122Y001994D01*
X029122Y001946D02*
X025185Y001946D01*
X025185Y001897D02*
X029122Y001897D01*
X029122Y001849D02*
X025185Y001849D01*
X025185Y001800D02*
X029122Y001800D01*
X029122Y001752D02*
X025185Y001752D01*
X025185Y001703D02*
X029122Y001703D01*
X029122Y001655D02*
X025185Y001655D01*
X025185Y001606D02*
X029122Y001606D01*
X029122Y001557D02*
X025185Y001557D01*
X025185Y001509D02*
X029122Y001509D01*
X029122Y001460D02*
X025185Y001460D01*
X025185Y001412D02*
X029122Y001412D01*
X029122Y001363D02*
X025185Y001363D01*
X025185Y001315D02*
X029122Y001315D01*
X029122Y001266D02*
X025185Y001266D01*
X025185Y001218D02*
X029122Y001218D01*
X029122Y001169D02*
X025185Y001169D01*
X028976Y001169D02*
X032913Y001169D01*
X032913Y005106D01*
X028976Y005106D01*
X028976Y001169D01*
X032913Y001169D01*
X032913Y001218D02*
X028976Y001218D01*
X028976Y001266D02*
X032913Y001266D01*
X032913Y001315D02*
X028976Y001315D01*
X028976Y001363D02*
X032913Y001363D01*
X032913Y001412D02*
X028976Y001412D01*
X028976Y001460D02*
X032913Y001460D01*
X032913Y001509D02*
X028976Y001509D01*
X028976Y001557D02*
X032913Y001557D01*
X032913Y001606D02*
X028976Y001606D01*
X028976Y001655D02*
X032913Y001655D01*
X032913Y001703D02*
X028976Y001703D01*
X028976Y001752D02*
X032913Y001752D01*
X032913Y001800D02*
X028976Y001800D01*
X028976Y001849D02*
X032913Y001849D01*
X032913Y001897D02*
X028976Y001897D01*
X028976Y001946D02*
X032913Y001946D01*
X032913Y001994D02*
X028976Y001994D01*
X028976Y002043D02*
X032913Y002043D01*
X032913Y002091D02*
X028976Y002091D01*
X028976Y002140D02*
X032913Y002140D01*
X032913Y002189D02*
X028976Y002189D01*
X028976Y002237D02*
X032913Y002237D01*
X032913Y002286D02*
X028976Y002286D01*
X028976Y002334D02*
X032913Y002334D01*
X032913Y002383D02*
X028976Y002383D01*
X028976Y002431D02*
X032913Y002431D01*
X032913Y002480D02*
X028976Y002480D01*
X028976Y002528D02*
X032913Y002528D01*
X032913Y002577D02*
X028976Y002577D01*
X028976Y002625D02*
X032913Y002625D01*
X032913Y002674D02*
X028976Y002674D01*
X028976Y002723D02*
X032913Y002723D01*
X032913Y002771D02*
X028976Y002771D01*
X028976Y002820D02*
X032913Y002820D01*
X032913Y002868D02*
X028976Y002868D01*
X028976Y002917D02*
X032913Y002917D01*
X032913Y002965D02*
X028976Y002965D01*
X028976Y003014D02*
X032913Y003014D01*
X032913Y003062D02*
X028976Y003062D01*
X028976Y003111D02*
X032913Y003111D01*
X032913Y003159D02*
X028976Y003159D01*
X028976Y003208D02*
X032913Y003208D01*
X032913Y003256D02*
X028976Y003256D01*
X028976Y003305D02*
X032913Y003305D01*
X032913Y003354D02*
X028976Y003354D01*
X028976Y003402D02*
X032913Y003402D01*
X032913Y003451D02*
X028976Y003451D01*
X028976Y003499D02*
X032913Y003499D01*
X032913Y003548D02*
X028976Y003548D01*
X028976Y003596D02*
X032913Y003596D01*
X032913Y003645D02*
X028976Y003645D01*
X028976Y003693D02*
X032913Y003693D01*
X032913Y003742D02*
X028976Y003742D01*
X028976Y003790D02*
X032913Y003790D01*
X032913Y003839D02*
X028976Y003839D01*
X028976Y003888D02*
X032913Y003888D01*
X032913Y003936D02*
X028976Y003936D01*
X028976Y003985D02*
X032913Y003985D01*
X032913Y004033D02*
X028976Y004033D01*
X028976Y004082D02*
X032913Y004082D01*
X032913Y004130D02*
X028976Y004130D01*
X028976Y004179D02*
X032913Y004179D01*
X032913Y004227D02*
X028976Y004227D01*
X028976Y004276D02*
X032913Y004276D01*
X032913Y004324D02*
X028976Y004324D01*
X028976Y004373D02*
X032913Y004373D01*
X032913Y004422D02*
X028976Y004422D01*
X028976Y004470D02*
X032913Y004470D01*
X032913Y004519D02*
X028976Y004519D01*
X028976Y004567D02*
X032913Y004567D01*
X032913Y004616D02*
X028976Y004616D01*
X028976Y004664D02*
X032913Y004664D01*
X032913Y004713D02*
X028976Y004713D01*
X028976Y004761D02*
X032913Y004761D01*
X032913Y004810D02*
X028976Y004810D01*
X028976Y004858D02*
X032913Y004858D01*
X032913Y004907D02*
X028976Y004907D01*
X028976Y004956D02*
X032913Y004956D01*
X032913Y005004D02*
X028976Y005004D01*
X028976Y005053D02*
X032913Y005053D01*
X032913Y005101D02*
X028976Y005101D01*
X036917Y009043D02*
X040854Y009043D01*
X040854Y012980D01*
X036917Y012980D01*
X036917Y009043D01*
X036917Y009082D02*
X040854Y009082D01*
X044791Y009082D01*
X048728Y009082D01*
X048728Y009043D02*
X048728Y012980D01*
X044791Y012980D01*
X040854Y012980D01*
X040854Y009043D01*
X044791Y009043D01*
X044791Y012980D01*
X044791Y009043D01*
X048728Y009043D01*
X048728Y009130D02*
X044791Y009130D01*
X040854Y009130D01*
X036917Y009130D01*
X036917Y009179D02*
X040854Y009179D01*
X044791Y009179D01*
X048728Y009179D01*
X048728Y009227D02*
X044791Y009227D01*
X040854Y009227D01*
X036917Y009227D01*
X036917Y009276D02*
X040854Y009276D01*
X044791Y009276D01*
X048728Y009276D01*
X048728Y009324D02*
X044791Y009324D01*
X040854Y009324D01*
X036917Y009324D01*
X036917Y009373D02*
X040854Y009373D01*
X044791Y009373D01*
X048728Y009373D01*
X048728Y009421D02*
X044791Y009421D01*
X040854Y009421D01*
X036917Y009421D01*
X036917Y009470D02*
X040854Y009470D01*
X044791Y009470D01*
X048728Y009470D01*
X048728Y009519D02*
X044791Y009519D01*
X040854Y009519D01*
X036917Y009519D01*
X036917Y009567D02*
X040854Y009567D01*
X044791Y009567D01*
X048728Y009567D01*
X048728Y009616D02*
X044791Y009616D01*
X040854Y009616D01*
X036917Y009616D01*
X036917Y009664D02*
X040854Y009664D01*
X044791Y009664D01*
X048728Y009664D01*
X048728Y009713D02*
X044791Y009713D01*
X040854Y009713D01*
X036917Y009713D01*
X036917Y009761D02*
X040854Y009761D01*
X044791Y009761D01*
X048728Y009761D01*
X048728Y009810D02*
X044791Y009810D01*
X040854Y009810D01*
X036917Y009810D01*
X036917Y009858D02*
X040854Y009858D01*
X044791Y009858D01*
X048728Y009858D01*
X048728Y009907D02*
X044791Y009907D01*
X040854Y009907D01*
X036917Y009907D01*
X036917Y009955D02*
X040854Y009955D01*
X044791Y009955D01*
X048728Y009955D01*
X048728Y010004D02*
X044791Y010004D01*
X040854Y010004D01*
X036917Y010004D01*
X036917Y010053D02*
X040854Y010053D01*
X044791Y010053D01*
X048728Y010053D01*
X048728Y010101D02*
X044791Y010101D01*
X040854Y010101D01*
X036917Y010101D01*
X036917Y010150D02*
X040854Y010150D01*
X044791Y010150D01*
X048728Y010150D01*
X048728Y010198D02*
X044791Y010198D01*
X040854Y010198D01*
X036917Y010198D01*
X036917Y010247D02*
X040854Y010247D01*
X044791Y010247D01*
X048728Y010247D01*
X048728Y010295D02*
X044791Y010295D01*
X040854Y010295D01*
X036917Y010295D01*
X036917Y010344D02*
X040854Y010344D01*
X044791Y010344D01*
X048728Y010344D01*
X048728Y010392D02*
X044791Y010392D01*
X040854Y010392D01*
X036917Y010392D01*
X036917Y010441D02*
X040854Y010441D01*
X044791Y010441D01*
X048728Y010441D01*
X048728Y010489D02*
X044791Y010489D01*
X040854Y010489D01*
X036917Y010489D01*
X036917Y010538D02*
X040854Y010538D01*
X044791Y010538D01*
X048728Y010538D01*
X048728Y010587D02*
X044791Y010587D01*
X040854Y010587D01*
X036917Y010587D01*
X036917Y010635D02*
X040854Y010635D01*
X044791Y010635D01*
X048728Y010635D01*
X048728Y010684D02*
X044791Y010684D01*
X040854Y010684D01*
X036917Y010684D01*
X036917Y010732D02*
X040854Y010732D01*
X044791Y010732D01*
X048728Y010732D01*
X048728Y010781D02*
X044791Y010781D01*
X040854Y010781D01*
X036917Y010781D01*
X036917Y010829D02*
X040854Y010829D01*
X044791Y010829D01*
X048728Y010829D01*
X048728Y010878D02*
X044791Y010878D01*
X040854Y010878D01*
X036917Y010878D01*
X036917Y010926D02*
X040854Y010926D01*
X044791Y010926D01*
X048728Y010926D01*
X048728Y010975D02*
X044791Y010975D01*
X040854Y010975D01*
X036917Y010975D01*
X036917Y011023D02*
X040854Y011023D01*
X044791Y011023D01*
X048728Y011023D01*
X048728Y011072D02*
X044791Y011072D01*
X040854Y011072D01*
X036917Y011072D01*
X036917Y011121D02*
X040854Y011121D01*
X044791Y011121D01*
X048728Y011121D01*
X048728Y011169D02*
X044791Y011169D01*
X040854Y011169D01*
X036917Y011169D01*
X036917Y011218D02*
X040854Y011218D01*
X044791Y011218D01*
X048728Y011218D01*
X048728Y011266D02*
X044791Y011266D01*
X040854Y011266D01*
X036917Y011266D01*
X036917Y011315D02*
X040854Y011315D01*
X044791Y011315D01*
X048728Y011315D01*
X048728Y011363D02*
X044791Y011363D01*
X040854Y011363D01*
X036917Y011363D01*
X036917Y011412D02*
X040854Y011412D01*
X044791Y011412D01*
X048728Y011412D01*
X048728Y011460D02*
X044791Y011460D01*
X040854Y011460D01*
X036917Y011460D01*
X036917Y011509D02*
X040854Y011509D01*
X044791Y011509D01*
X048728Y011509D01*
X048728Y011557D02*
X044791Y011557D01*
X040854Y011557D01*
X036917Y011557D01*
X036917Y011606D02*
X040854Y011606D01*
X044791Y011606D01*
X048728Y011606D01*
X048728Y011654D02*
X044791Y011654D01*
X040854Y011654D01*
X036917Y011654D01*
X036917Y011703D02*
X040854Y011703D01*
X044791Y011703D01*
X048728Y011703D01*
X048728Y011752D02*
X044791Y011752D01*
X040854Y011752D01*
X036917Y011752D01*
X036917Y011800D02*
X040854Y011800D01*
X044791Y011800D01*
X048728Y011800D01*
X048728Y011849D02*
X044791Y011849D01*
X040854Y011849D01*
X036917Y011849D01*
X036917Y011897D02*
X040854Y011897D01*
X044791Y011897D01*
X048728Y011897D01*
X048728Y011946D02*
X044791Y011946D01*
X040854Y011946D01*
X036917Y011946D01*
X036917Y011994D02*
X040854Y011994D01*
X044791Y011994D01*
X048728Y011994D01*
X048728Y012043D02*
X044791Y012043D01*
X040854Y012043D01*
X036917Y012043D01*
X036917Y012091D02*
X040854Y012091D01*
X044791Y012091D01*
X048728Y012091D01*
X048728Y012140D02*
X044791Y012140D01*
X040854Y012140D01*
X036917Y012140D01*
X036917Y012188D02*
X040854Y012188D01*
X044791Y012188D01*
X048728Y012188D01*
X048728Y012237D02*
X044791Y012237D01*
X040854Y012237D01*
X036917Y012237D01*
X036917Y012286D02*
X040854Y012286D01*
X044791Y012286D01*
X048728Y012286D01*
X048728Y012334D02*
X044791Y012334D01*
X040854Y012334D01*
X036917Y012334D01*
X036917Y012383D02*
X040854Y012383D01*
X044791Y012383D01*
X048728Y012383D01*
X048728Y012431D02*
X044791Y012431D01*
X040854Y012431D01*
X036917Y012431D01*
X036917Y012480D02*
X040854Y012480D01*
X044791Y012480D01*
X048728Y012480D01*
X048728Y012528D02*
X044791Y012528D01*
X040854Y012528D01*
X036917Y012528D01*
X036917Y012577D02*
X040854Y012577D01*
X044791Y012577D01*
X048728Y012577D01*
X048728Y012625D02*
X044791Y012625D01*
X040854Y012625D01*
X036917Y012625D01*
X036917Y012674D02*
X040854Y012674D01*
X044791Y012674D01*
X048728Y012674D01*
X048728Y012722D02*
X044791Y012722D01*
X040854Y012722D01*
X036917Y012722D01*
X036917Y012771D02*
X040854Y012771D01*
X044791Y012771D01*
X048728Y012771D01*
X048728Y012820D02*
X044791Y012820D01*
X040854Y012820D01*
X036917Y012820D01*
X036917Y012868D02*
X040854Y012868D01*
X044791Y012868D01*
X048728Y012868D01*
X048728Y012917D02*
X044791Y012917D01*
X040854Y012917D01*
X036917Y012917D01*
X036917Y012965D02*
X040854Y012965D01*
X044791Y012965D01*
X048728Y012965D01*
X057862Y012965D02*
X061799Y012965D01*
X061799Y012980D02*
X057862Y012980D01*
X057862Y009043D01*
X061799Y009043D01*
X061799Y012980D01*
X061799Y012917D02*
X057862Y012917D01*
X057862Y012868D02*
X061799Y012868D01*
X061799Y012820D02*
X057862Y012820D01*
X057862Y012771D02*
X061799Y012771D01*
X061799Y012722D02*
X057862Y012722D01*
X057862Y012674D02*
X061799Y012674D01*
X061799Y012625D02*
X057862Y012625D01*
X057862Y012577D02*
X061799Y012577D01*
X061799Y012528D02*
X057862Y012528D01*
X057862Y012480D02*
X061799Y012480D01*
X061799Y012431D02*
X057862Y012431D01*
X057862Y012383D02*
X061799Y012383D01*
X061799Y012334D02*
X057862Y012334D01*
X057862Y012286D02*
X061799Y012286D01*
X061799Y012237D02*
X057862Y012237D01*
X057862Y012188D02*
X061799Y012188D01*
X061799Y012140D02*
X057862Y012140D01*
X057862Y012091D02*
X061799Y012091D01*
X061799Y012043D02*
X057862Y012043D01*
X057862Y011994D02*
X061799Y011994D01*
X061799Y011946D02*
X057862Y011946D01*
X057862Y011897D02*
X061799Y011897D01*
X061799Y011849D02*
X057862Y011849D01*
X057862Y011800D02*
X061799Y011800D01*
X061799Y011752D02*
X057862Y011752D01*
X057862Y011703D02*
X061799Y011703D01*
X061799Y011654D02*
X057862Y011654D01*
X057862Y011606D02*
X061799Y011606D01*
X061799Y011557D02*
X057862Y011557D01*
X057862Y011509D02*
X061799Y011509D01*
X061799Y011460D02*
X057862Y011460D01*
X057862Y011412D02*
X061799Y011412D01*
X061799Y011363D02*
X057862Y011363D01*
X057862Y011315D02*
X061799Y011315D01*
X061799Y011266D02*
X057862Y011266D01*
X057862Y011218D02*
X061799Y011218D01*
X061799Y011169D02*
X057862Y011169D01*
X057862Y011121D02*
X061799Y011121D01*
X061799Y011072D02*
X057862Y011072D01*
X057862Y011023D02*
X061799Y011023D01*
X061799Y010975D02*
X057862Y010975D01*
X057862Y010926D02*
X061799Y010926D01*
X061799Y010878D02*
X057862Y010878D01*
X057862Y010829D02*
X061799Y010829D01*
X061799Y010781D02*
X057862Y010781D01*
X057862Y010732D02*
X061799Y010732D01*
X061799Y010684D02*
X057862Y010684D01*
X057862Y010635D02*
X061799Y010635D01*
X061799Y010587D02*
X057862Y010587D01*
X057862Y010538D02*
X061799Y010538D01*
X061799Y010489D02*
X057862Y010489D01*
X057862Y010441D02*
X061799Y010441D01*
X061799Y010392D02*
X057862Y010392D01*
X057862Y010344D02*
X061799Y010344D01*
X061799Y010295D02*
X057862Y010295D01*
X057862Y010247D02*
X061799Y010247D01*
X061799Y010198D02*
X057862Y010198D01*
X057862Y010150D02*
X061799Y010150D01*
X061799Y010101D02*
X057862Y010101D01*
X057862Y010053D02*
X061799Y010053D01*
X061799Y010004D02*
X057862Y010004D01*
X057862Y009955D02*
X061799Y009955D01*
X061799Y009907D02*
X057862Y009907D01*
X057862Y009858D02*
X061799Y009858D01*
X061799Y009810D02*
X057862Y009810D01*
X057862Y009761D02*
X061799Y009761D01*
X061799Y009713D02*
X057862Y009713D01*
X057862Y009664D02*
X061799Y009664D01*
X061799Y009616D02*
X057862Y009616D01*
X057862Y009567D02*
X061799Y009567D01*
X061799Y009519D02*
X057862Y009519D01*
X057862Y009470D02*
X061799Y009470D01*
X061799Y009421D02*
X057862Y009421D01*
X057862Y009373D02*
X061799Y009373D01*
X061799Y009324D02*
X057862Y009324D01*
X057862Y009276D02*
X061799Y009276D01*
X061799Y009227D02*
X057862Y009227D01*
X057862Y009179D02*
X061799Y009179D01*
X061799Y009130D02*
X057862Y009130D01*
X057862Y009082D02*
X061799Y009082D01*
X060618Y005106D02*
X064555Y005106D01*
X064555Y001169D01*
X060618Y001169D01*
X064555Y001169D01*
X064555Y001218D02*
X060618Y001218D01*
X060618Y001266D02*
X064555Y001266D01*
X064555Y001315D02*
X060618Y001315D01*
X060618Y001363D02*
X064555Y001363D01*
X064555Y001412D02*
X060618Y001412D01*
X060618Y001460D02*
X064555Y001460D01*
X064555Y001509D02*
X060618Y001509D01*
X060618Y001557D02*
X064555Y001557D01*
X064555Y001606D02*
X060618Y001606D01*
X060618Y001655D02*
X064555Y001655D01*
X064555Y001703D02*
X060618Y001703D01*
X060618Y001752D02*
X064555Y001752D01*
X064555Y001800D02*
X060618Y001800D01*
X060618Y001849D02*
X064555Y001849D01*
X064555Y001897D02*
X060618Y001897D01*
X060618Y001946D02*
X064555Y001946D01*
X064555Y001994D02*
X060618Y001994D01*
X060618Y002043D02*
X064555Y002043D01*
X064555Y002091D02*
X060618Y002091D01*
X060618Y002140D02*
X064555Y002140D01*
X064555Y002189D02*
X060618Y002189D01*
X060618Y002237D02*
X064555Y002237D01*
X064555Y002286D02*
X060618Y002286D01*
X060618Y002334D02*
X064555Y002334D01*
X064555Y002383D02*
X060618Y002383D01*
X060618Y002431D02*
X064555Y002431D01*
X064555Y002480D02*
X060618Y002480D01*
X060618Y002528D02*
X064555Y002528D01*
X064555Y002577D02*
X060618Y002577D01*
X060618Y002625D02*
X064555Y002625D01*
X064555Y002674D02*
X060618Y002674D01*
X060618Y002723D02*
X064555Y002723D01*
X064555Y002771D02*
X060618Y002771D01*
X060618Y002820D02*
X064555Y002820D01*
X064555Y002868D02*
X060618Y002868D01*
X060618Y002917D02*
X064555Y002917D01*
X064555Y002965D02*
X060618Y002965D01*
X060618Y003014D02*
X064555Y003014D01*
X064555Y003062D02*
X060618Y003062D01*
X060618Y003111D02*
X064555Y003111D01*
X064555Y003159D02*
X060618Y003159D01*
X060618Y003208D02*
X064555Y003208D01*
X064555Y003256D02*
X060618Y003256D01*
X060618Y003305D02*
X064555Y003305D01*
X064555Y003354D02*
X060618Y003354D01*
X060618Y003402D02*
X064555Y003402D01*
X064555Y003451D02*
X060618Y003451D01*
X060618Y003499D02*
X064555Y003499D01*
X064555Y003548D02*
X060618Y003548D01*
X060618Y003596D02*
X064555Y003596D01*
X064555Y003645D02*
X060618Y003645D01*
X060618Y003693D02*
X064555Y003693D01*
X064555Y003742D02*
X060618Y003742D01*
X060618Y003790D02*
X064555Y003790D01*
X064555Y003839D02*
X060618Y003839D01*
X060618Y003888D02*
X064555Y003888D01*
X064555Y003936D02*
X060618Y003936D01*
X060618Y003985D02*
X064555Y003985D01*
X064555Y004033D02*
X060618Y004033D01*
X060618Y004082D02*
X064555Y004082D01*
X064555Y004130D02*
X060618Y004130D01*
X060618Y004179D02*
X064555Y004179D01*
X064555Y004227D02*
X060618Y004227D01*
X060618Y004276D02*
X064555Y004276D01*
X064555Y004324D02*
X060618Y004324D01*
X060618Y004373D02*
X064555Y004373D01*
X064555Y004422D02*
X060618Y004422D01*
X060618Y004470D02*
X064555Y004470D01*
X064555Y004519D02*
X060618Y004519D01*
X060618Y004567D02*
X064555Y004567D01*
X064555Y004616D02*
X060618Y004616D01*
X060618Y004664D02*
X064555Y004664D01*
X064555Y004713D02*
X060618Y004713D01*
X060618Y004761D02*
X064555Y004761D01*
X064555Y004810D02*
X060618Y004810D01*
X060618Y004858D02*
X064555Y004858D01*
X064555Y004907D02*
X060618Y004907D01*
X060618Y004956D02*
X064555Y004956D01*
X064555Y005004D02*
X060618Y005004D01*
X060618Y005053D02*
X064555Y005053D01*
X064555Y005101D02*
X060618Y005101D01*
X060618Y005106D02*
X060618Y001169D01*
X046445Y001169D02*
X042508Y001169D01*
X046445Y001169D01*
X046445Y005106D01*
X042508Y005106D01*
X042508Y001169D01*
X042508Y001218D02*
X046445Y001218D01*
X046445Y001266D02*
X042508Y001266D01*
X042508Y001315D02*
X046445Y001315D01*
X046445Y001363D02*
X042508Y001363D01*
X042508Y001412D02*
X046445Y001412D01*
X046445Y001460D02*
X042508Y001460D01*
X042508Y001509D02*
X046445Y001509D01*
X046445Y001557D02*
X042508Y001557D01*
X042508Y001606D02*
X046445Y001606D01*
X046445Y001655D02*
X042508Y001655D01*
X042508Y001703D02*
X046445Y001703D01*
X046445Y001752D02*
X042508Y001752D01*
X042508Y001800D02*
X046445Y001800D01*
X046445Y001849D02*
X042508Y001849D01*
X042508Y001897D02*
X046445Y001897D01*
X046445Y001946D02*
X042508Y001946D01*
X042508Y001994D02*
X046445Y001994D01*
X046445Y002043D02*
X042508Y002043D01*
X042508Y002091D02*
X046445Y002091D01*
X046445Y002140D02*
X042508Y002140D01*
X042508Y002189D02*
X046445Y002189D01*
X046445Y002237D02*
X042508Y002237D01*
X042508Y002286D02*
X046445Y002286D01*
X046445Y002334D02*
X042508Y002334D01*
X042508Y002383D02*
X046445Y002383D01*
X046445Y002431D02*
X042508Y002431D01*
X042508Y002480D02*
X046445Y002480D01*
X046445Y002528D02*
X042508Y002528D01*
X042508Y002577D02*
X046445Y002577D01*
X046445Y002625D02*
X042508Y002625D01*
X042508Y002674D02*
X046445Y002674D01*
X046445Y002723D02*
X042508Y002723D01*
X042508Y002771D02*
X046445Y002771D01*
X046445Y002820D02*
X042508Y002820D01*
X042508Y002868D02*
X046445Y002868D01*
X046445Y002917D02*
X042508Y002917D01*
X042508Y002965D02*
X046445Y002965D01*
X046445Y003014D02*
X042508Y003014D01*
X042508Y003062D02*
X046445Y003062D01*
X046445Y003111D02*
X042508Y003111D01*
X042508Y003159D02*
X046445Y003159D01*
X046445Y003208D02*
X042508Y003208D01*
X042508Y003256D02*
X046445Y003256D01*
X046445Y003305D02*
X042508Y003305D01*
X042508Y003354D02*
X046445Y003354D01*
X046445Y003402D02*
X042508Y003402D01*
X042508Y003451D02*
X046445Y003451D01*
X046445Y003499D02*
X042508Y003499D01*
X042508Y003548D02*
X046445Y003548D01*
X046445Y003596D02*
X042508Y003596D01*
X042508Y003645D02*
X046445Y003645D01*
X046445Y003693D02*
X042508Y003693D01*
X042508Y003742D02*
X046445Y003742D01*
X046445Y003790D02*
X042508Y003790D01*
X042508Y003839D02*
X046445Y003839D01*
X046445Y003888D02*
X042508Y003888D01*
X042508Y003936D02*
X046445Y003936D01*
X046445Y003985D02*
X042508Y003985D01*
X042508Y004033D02*
X046445Y004033D01*
X046445Y004082D02*
X042508Y004082D01*
X042508Y004130D02*
X046445Y004130D01*
X046445Y004179D02*
X042508Y004179D01*
X042508Y004227D02*
X046445Y004227D01*
X046445Y004276D02*
X042508Y004276D01*
X042508Y004324D02*
X046445Y004324D01*
X046445Y004373D02*
X042508Y004373D01*
X042508Y004422D02*
X046445Y004422D01*
X046445Y004470D02*
X042508Y004470D01*
X042508Y004519D02*
X046445Y004519D01*
X046445Y004567D02*
X042508Y004567D01*
X042508Y004616D02*
X046445Y004616D01*
X046445Y004664D02*
X042508Y004664D01*
X042508Y004713D02*
X046445Y004713D01*
X046445Y004761D02*
X042508Y004761D01*
X042508Y004810D02*
X046445Y004810D01*
X046445Y004858D02*
X042508Y004858D01*
X042508Y004907D02*
X046445Y004907D01*
X046445Y004956D02*
X042508Y004956D01*
X042508Y005004D02*
X046445Y005004D01*
X046445Y005053D02*
X042508Y005053D01*
X042508Y005101D02*
X046445Y005101D01*
X046445Y016917D02*
X042508Y016917D01*
X042508Y020854D01*
X046445Y020854D01*
X046445Y016917D01*
X046445Y016946D02*
X042508Y016946D01*
X042508Y016994D02*
X046445Y016994D01*
X046445Y017043D02*
X042508Y017043D01*
X042508Y017091D02*
X046445Y017091D01*
X046445Y017140D02*
X042508Y017140D01*
X042508Y017188D02*
X046445Y017188D01*
X046445Y017237D02*
X042508Y017237D01*
X042508Y017286D02*
X046445Y017286D01*
X046445Y017334D02*
X042508Y017334D01*
X042508Y017383D02*
X046445Y017383D01*
X046445Y017431D02*
X042508Y017431D01*
X042508Y017480D02*
X046445Y017480D01*
X046445Y017528D02*
X042508Y017528D01*
X042508Y017577D02*
X046445Y017577D01*
X046445Y017625D02*
X042508Y017625D01*
X042508Y017674D02*
X046445Y017674D01*
X046445Y017722D02*
X042508Y017722D01*
X042508Y017771D02*
X046445Y017771D01*
X046445Y017819D02*
X042508Y017819D01*
X042508Y017868D02*
X046445Y017868D01*
X046445Y017917D02*
X042508Y017917D01*
X042508Y017965D02*
X046445Y017965D01*
X046445Y018014D02*
X042508Y018014D01*
X042508Y018062D02*
X046445Y018062D01*
X046445Y018111D02*
X042508Y018111D01*
X042508Y018159D02*
X046445Y018159D01*
X046445Y018208D02*
X042508Y018208D01*
X042508Y018256D02*
X046445Y018256D01*
X046445Y018305D02*
X042508Y018305D01*
X042508Y018353D02*
X046445Y018353D01*
X046445Y018402D02*
X042508Y018402D01*
X042508Y018451D02*
X046445Y018451D01*
X046445Y018499D02*
X042508Y018499D01*
X042508Y018548D02*
X046445Y018548D01*
X046445Y018596D02*
X042508Y018596D01*
X042508Y018645D02*
X046445Y018645D01*
X046445Y018693D02*
X042508Y018693D01*
X042508Y018742D02*
X046445Y018742D01*
X046445Y018790D02*
X042508Y018790D01*
X042508Y018839D02*
X046445Y018839D01*
X046445Y018887D02*
X042508Y018887D01*
X042508Y018936D02*
X046445Y018936D01*
X046445Y018985D02*
X042508Y018985D01*
X042508Y019033D02*
X046445Y019033D01*
X046445Y019082D02*
X042508Y019082D01*
X042508Y019130D02*
X046445Y019130D01*
X046445Y019179D02*
X042508Y019179D01*
X042508Y019227D02*
X046445Y019227D01*
X046445Y019276D02*
X042508Y019276D01*
X042508Y019324D02*
X046445Y019324D01*
X046445Y019373D02*
X042508Y019373D01*
X042508Y019421D02*
X046445Y019421D01*
X046445Y019470D02*
X042508Y019470D01*
X042508Y019519D02*
X046445Y019519D01*
X046445Y019567D02*
X042508Y019567D01*
X042508Y019616D02*
X046445Y019616D01*
X046445Y019664D02*
X042508Y019664D01*
X042508Y019713D02*
X046445Y019713D01*
X046445Y019761D02*
X042508Y019761D01*
X042508Y019810D02*
X046445Y019810D01*
X046445Y019858D02*
X042508Y019858D01*
X042508Y019907D02*
X046445Y019907D01*
X046445Y019955D02*
X042508Y019955D01*
X042508Y020004D02*
X046445Y020004D01*
X046445Y020052D02*
X042508Y020052D01*
X042508Y020101D02*
X046445Y020101D01*
X046445Y020150D02*
X042508Y020150D01*
X042508Y020198D02*
X046445Y020198D01*
X046445Y020247D02*
X042508Y020247D01*
X042508Y020295D02*
X046445Y020295D01*
X046445Y020344D02*
X042508Y020344D01*
X042508Y020392D02*
X046445Y020392D01*
X046445Y020441D02*
X042508Y020441D01*
X042508Y020489D02*
X046445Y020489D01*
X046445Y020538D02*
X042508Y020538D01*
X042508Y020586D02*
X046445Y020586D01*
X046445Y020635D02*
X042508Y020635D01*
X042508Y020684D02*
X046445Y020684D01*
X046445Y020732D02*
X042508Y020732D01*
X042508Y020781D02*
X046445Y020781D01*
X046445Y020829D02*
X042508Y020829D01*
X032913Y020829D02*
X028976Y020829D01*
X028976Y020854D02*
X032913Y020854D01*
X032913Y016917D01*
X028976Y016917D01*
X028976Y020854D01*
X028976Y020781D02*
X032913Y020781D01*
X032913Y020732D02*
X028976Y020732D01*
X028976Y020684D02*
X032913Y020684D01*
X032913Y020635D02*
X028976Y020635D01*
X028976Y020586D02*
X032913Y020586D01*
X032913Y020538D02*
X028976Y020538D01*
X028976Y020489D02*
X032913Y020489D01*
X032913Y020441D02*
X028976Y020441D01*
X028976Y020392D02*
X032913Y020392D01*
X032913Y020344D02*
X028976Y020344D01*
X028976Y020295D02*
X032913Y020295D01*
X032913Y020247D02*
X028976Y020247D01*
X028976Y020198D02*
X032913Y020198D01*
X032913Y020150D02*
X028976Y020150D01*
X028976Y020101D02*
X032913Y020101D01*
X032913Y020052D02*
X028976Y020052D01*
X028976Y020004D02*
X032913Y020004D01*
X032913Y019955D02*
X028976Y019955D01*
X028976Y019907D02*
X032913Y019907D01*
X032913Y019858D02*
X028976Y019858D01*
X028976Y019810D02*
X032913Y019810D01*
X032913Y019761D02*
X028976Y019761D01*
X028976Y019713D02*
X032913Y019713D01*
X032913Y019664D02*
X028976Y019664D01*
X028976Y019616D02*
X032913Y019616D01*
X032913Y019567D02*
X028976Y019567D01*
X028976Y019519D02*
X032913Y019519D01*
X032913Y019470D02*
X028976Y019470D01*
X028976Y019421D02*
X032913Y019421D01*
X032913Y019373D02*
X028976Y019373D01*
X028976Y019324D02*
X032913Y019324D01*
X032913Y019276D02*
X028976Y019276D01*
X028976Y019227D02*
X032913Y019227D01*
X032913Y019179D02*
X028976Y019179D01*
X028976Y019130D02*
X032913Y019130D01*
X032913Y019082D02*
X028976Y019082D01*
X028976Y019033D02*
X032913Y019033D01*
X032913Y018985D02*
X028976Y018985D01*
X028976Y018936D02*
X032913Y018936D01*
X032913Y018887D02*
X028976Y018887D01*
X028976Y018839D02*
X032913Y018839D01*
X032913Y018790D02*
X028976Y018790D01*
X028976Y018742D02*
X032913Y018742D01*
X032913Y018693D02*
X028976Y018693D01*
X028976Y018645D02*
X032913Y018645D01*
X032913Y018596D02*
X028976Y018596D01*
X028976Y018548D02*
X032913Y018548D01*
X032913Y018499D02*
X028976Y018499D01*
X028976Y018451D02*
X032913Y018451D01*
X032913Y018402D02*
X028976Y018402D01*
X028976Y018353D02*
X032913Y018353D01*
X032913Y018305D02*
X028976Y018305D01*
X028976Y018256D02*
X032913Y018256D01*
X032913Y018208D02*
X028976Y018208D01*
X028976Y018159D02*
X032913Y018159D01*
X032913Y018111D02*
X028976Y018111D01*
X028976Y018062D02*
X032913Y018062D01*
X032913Y018014D02*
X028976Y018014D01*
X028976Y017965D02*
X032913Y017965D01*
X032913Y017917D02*
X028976Y017917D01*
X028976Y017868D02*
X032913Y017868D01*
X032913Y017819D02*
X028976Y017819D01*
X028976Y017771D02*
X032913Y017771D01*
X032913Y017722D02*
X028976Y017722D01*
X028976Y017674D02*
X032913Y017674D01*
X032913Y017625D02*
X028976Y017625D01*
X028976Y017577D02*
X032913Y017577D01*
X032913Y017528D02*
X028976Y017528D01*
X028976Y017480D02*
X032913Y017480D01*
X032913Y017431D02*
X028976Y017431D01*
X028976Y017383D02*
X032913Y017383D01*
X032913Y017334D02*
X028976Y017334D01*
X028976Y017286D02*
X032913Y017286D01*
X032913Y017237D02*
X028976Y017237D01*
X028976Y017188D02*
X032913Y017188D01*
X032913Y017140D02*
X028976Y017140D01*
X028976Y017091D02*
X032913Y017091D01*
X032913Y017043D02*
X028976Y017043D01*
X028976Y016994D02*
X032913Y016994D01*
X032913Y016946D02*
X028976Y016946D01*
X029122Y016946D02*
X025185Y016946D01*
X025185Y016917D02*
X029122Y016917D01*
X029122Y020854D01*
X025185Y020854D01*
X025185Y016917D01*
X025185Y016994D02*
X029122Y016994D01*
X029122Y017043D02*
X025185Y017043D01*
X025185Y017091D02*
X029122Y017091D01*
X029122Y017140D02*
X025185Y017140D01*
X025185Y017188D02*
X029122Y017188D01*
X029122Y017237D02*
X025185Y017237D01*
X025185Y017286D02*
X029122Y017286D01*
X029122Y017334D02*
X025185Y017334D01*
X025185Y017383D02*
X029122Y017383D01*
X029122Y017431D02*
X025185Y017431D01*
X025185Y017480D02*
X029122Y017480D01*
X029122Y017528D02*
X025185Y017528D01*
X025185Y017577D02*
X029122Y017577D01*
X029122Y017625D02*
X025185Y017625D01*
X025185Y017674D02*
X029122Y017674D01*
X029122Y017722D02*
X025185Y017722D01*
X025185Y017771D02*
X029122Y017771D01*
X029122Y017819D02*
X025185Y017819D01*
X025185Y017868D02*
X029122Y017868D01*
X029122Y017917D02*
X025185Y017917D01*
X025185Y017965D02*
X029122Y017965D01*
X029122Y018014D02*
X025185Y018014D01*
X025185Y018062D02*
X029122Y018062D01*
X029122Y018111D02*
X025185Y018111D01*
X025185Y018159D02*
X029122Y018159D01*
X029122Y018208D02*
X025185Y018208D01*
X025185Y018256D02*
X029122Y018256D01*
X029122Y018305D02*
X025185Y018305D01*
X025185Y018353D02*
X029122Y018353D01*
X029122Y018402D02*
X025185Y018402D01*
X025185Y018451D02*
X029122Y018451D01*
X029122Y018499D02*
X025185Y018499D01*
X025185Y018548D02*
X029122Y018548D01*
X029122Y018596D02*
X025185Y018596D01*
X025185Y018645D02*
X029122Y018645D01*
X029122Y018693D02*
X025185Y018693D01*
X025185Y018742D02*
X029122Y018742D01*
X029122Y018790D02*
X025185Y018790D01*
X025185Y018839D02*
X029122Y018839D01*
X029122Y018887D02*
X025185Y018887D01*
X025185Y018936D02*
X029122Y018936D01*
X029122Y018985D02*
X025185Y018985D01*
X025185Y019033D02*
X029122Y019033D01*
X029122Y019082D02*
X025185Y019082D01*
X025185Y019130D02*
X029122Y019130D01*
X029122Y019179D02*
X025185Y019179D01*
X025185Y019227D02*
X029122Y019227D01*
X029122Y019276D02*
X025185Y019276D01*
X025185Y019324D02*
X029122Y019324D01*
X029122Y019373D02*
X025185Y019373D01*
X025185Y019421D02*
X029122Y019421D01*
X029122Y019470D02*
X025185Y019470D01*
X025185Y019519D02*
X029122Y019519D01*
X029122Y019567D02*
X025185Y019567D01*
X025185Y019616D02*
X029122Y019616D01*
X029122Y019664D02*
X025185Y019664D01*
X025185Y019713D02*
X029122Y019713D01*
X029122Y019761D02*
X025185Y019761D01*
X025185Y019810D02*
X029122Y019810D01*
X029122Y019858D02*
X025185Y019858D01*
X025185Y019907D02*
X029122Y019907D01*
X029122Y019955D02*
X025185Y019955D01*
X025185Y020004D02*
X029122Y020004D01*
X029122Y020052D02*
X025185Y020052D01*
X025185Y020101D02*
X029122Y020101D01*
X029122Y020150D02*
X025185Y020150D01*
X025185Y020198D02*
X029122Y020198D01*
X029122Y020247D02*
X025185Y020247D01*
X025185Y020295D02*
X029122Y020295D01*
X029122Y020344D02*
X025185Y020344D01*
X025185Y020392D02*
X029122Y020392D01*
X029122Y020441D02*
X025185Y020441D01*
X025185Y020489D02*
X029122Y020489D01*
X029122Y020538D02*
X025185Y020538D01*
X025185Y020586D02*
X029122Y020586D01*
X029122Y020635D02*
X025185Y020635D01*
X025185Y020684D02*
X029122Y020684D01*
X029122Y020732D02*
X025185Y020732D01*
X025185Y020781D02*
X029122Y020781D01*
X029122Y020829D02*
X025185Y020829D01*
X005106Y020854D02*
X005106Y016917D01*
X001169Y016917D01*
X001169Y020854D01*
X005106Y020854D01*
X005106Y020829D02*
X001169Y020829D01*
X001169Y020781D02*
X005106Y020781D01*
X005106Y020732D02*
X001169Y020732D01*
X001169Y020684D02*
X005106Y020684D01*
X005106Y020635D02*
X001169Y020635D01*
X001169Y020586D02*
X005106Y020586D01*
X005106Y020538D02*
X001169Y020538D01*
X001169Y020489D02*
X005106Y020489D01*
X005106Y020441D02*
X001169Y020441D01*
X001169Y020392D02*
X005106Y020392D01*
X005106Y020344D02*
X001169Y020344D01*
X001169Y020295D02*
X005106Y020295D01*
X005106Y020247D02*
X001169Y020247D01*
X001169Y020198D02*
X005106Y020198D01*
X005106Y020150D02*
X001169Y020150D01*
X001169Y020101D02*
X005106Y020101D01*
X005106Y020052D02*
X001169Y020052D01*
X001169Y020004D02*
X005106Y020004D01*
X005106Y019955D02*
X001169Y019955D01*
X001169Y019907D02*
X005106Y019907D01*
X005106Y019858D02*
X001169Y019858D01*
X001169Y019810D02*
X005106Y019810D01*
X005106Y019761D02*
X001169Y019761D01*
X001169Y019713D02*
X005106Y019713D01*
X005106Y019664D02*
X001169Y019664D01*
X001169Y019616D02*
X005106Y019616D01*
X005106Y019567D02*
X001169Y019567D01*
X001169Y019519D02*
X005106Y019519D01*
X005106Y019470D02*
X001169Y019470D01*
X001169Y019421D02*
X005106Y019421D01*
X005106Y019373D02*
X001169Y019373D01*
X001169Y019324D02*
X005106Y019324D01*
X005106Y019276D02*
X001169Y019276D01*
X001169Y019227D02*
X005106Y019227D01*
X005106Y019179D02*
X001169Y019179D01*
X001169Y019130D02*
X005106Y019130D01*
X005106Y019082D02*
X001169Y019082D01*
X001169Y019033D02*
X005106Y019033D01*
X005106Y018985D02*
X001169Y018985D01*
X001169Y018936D02*
X005106Y018936D01*
X005106Y018887D02*
X001169Y018887D01*
X001169Y018839D02*
X005106Y018839D01*
X005106Y018790D02*
X001169Y018790D01*
X001169Y018742D02*
X005106Y018742D01*
X005106Y018693D02*
X001169Y018693D01*
X001169Y018645D02*
X005106Y018645D01*
X005106Y018596D02*
X001169Y018596D01*
X001169Y018548D02*
X005106Y018548D01*
X005106Y018499D02*
X001169Y018499D01*
X001169Y018451D02*
X005106Y018451D01*
X005106Y018402D02*
X001169Y018402D01*
X001169Y018353D02*
X005106Y018353D01*
X005106Y018305D02*
X001169Y018305D01*
X001169Y018256D02*
X005106Y018256D01*
X005106Y018208D02*
X001169Y018208D01*
X001169Y018159D02*
X005106Y018159D01*
X005106Y018111D02*
X001169Y018111D01*
X001169Y018062D02*
X005106Y018062D01*
X005106Y018014D02*
X001169Y018014D01*
X001169Y017965D02*
X005106Y017965D01*
X005106Y017917D02*
X001169Y017917D01*
X001169Y017868D02*
X005106Y017868D01*
X005106Y017819D02*
X001169Y017819D01*
X001169Y017771D02*
X005106Y017771D01*
X005106Y017722D02*
X001169Y017722D01*
X001169Y017674D02*
X005106Y017674D01*
X005106Y017625D02*
X001169Y017625D01*
X001169Y017577D02*
X005106Y017577D01*
X005106Y017528D02*
X001169Y017528D01*
X001169Y017480D02*
X005106Y017480D01*
X005106Y017431D02*
X001169Y017431D01*
X001169Y017383D02*
X005106Y017383D01*
X005106Y017334D02*
X001169Y017334D01*
X001169Y017286D02*
X005106Y017286D01*
X005106Y017237D02*
X001169Y017237D01*
X001169Y017188D02*
X005106Y017188D01*
X005106Y017140D02*
X001169Y017140D01*
X001169Y017091D02*
X005106Y017091D01*
X005106Y017043D02*
X001169Y017043D01*
X001169Y016994D02*
X005106Y016994D01*
X005106Y016946D02*
X001169Y016946D01*
X060618Y016946D02*
X064555Y016946D01*
X064555Y016917D02*
X064555Y020854D01*
X060618Y020854D01*
X060618Y016917D01*
X064555Y016917D01*
X064555Y016994D02*
X060618Y016994D01*
X060618Y017043D02*
X064555Y017043D01*
X064555Y017091D02*
X060618Y017091D01*
X060618Y017140D02*
X064555Y017140D01*
X064555Y017188D02*
X060618Y017188D01*
X060618Y017237D02*
X064555Y017237D01*
X064555Y017286D02*
X060618Y017286D01*
X060618Y017334D02*
X064555Y017334D01*
X064555Y017383D02*
X060618Y017383D01*
X060618Y017431D02*
X064555Y017431D01*
X064555Y017480D02*
X060618Y017480D01*
X060618Y017528D02*
X064555Y017528D01*
X064555Y017577D02*
X060618Y017577D01*
X060618Y017625D02*
X064555Y017625D01*
X064555Y017674D02*
X060618Y017674D01*
X060618Y017722D02*
X064555Y017722D01*
X064555Y017771D02*
X060618Y017771D01*
X060618Y017819D02*
X064555Y017819D01*
X064555Y017868D02*
X060618Y017868D01*
X060618Y017917D02*
X064555Y017917D01*
X064555Y017965D02*
X060618Y017965D01*
X060618Y018014D02*
X064555Y018014D01*
X064555Y018062D02*
X060618Y018062D01*
X060618Y018111D02*
X064555Y018111D01*
X064555Y018159D02*
X060618Y018159D01*
X060618Y018208D02*
X064555Y018208D01*
X064555Y018256D02*
X060618Y018256D01*
X060618Y018305D02*
X064555Y018305D01*
X064555Y018353D02*
X060618Y018353D01*
X060618Y018402D02*
X064555Y018402D01*
X064555Y018451D02*
X060618Y018451D01*
X060618Y018499D02*
X064555Y018499D01*
X064555Y018548D02*
X060618Y018548D01*
X060618Y018596D02*
X064555Y018596D01*
X064555Y018645D02*
X060618Y018645D01*
X060618Y018693D02*
X064555Y018693D01*
X064555Y018742D02*
X060618Y018742D01*
X060618Y018790D02*
X064555Y018790D01*
X064555Y018839D02*
X060618Y018839D01*
X060618Y018887D02*
X064555Y018887D01*
X064555Y018936D02*
X060618Y018936D01*
X060618Y018985D02*
X064555Y018985D01*
X064555Y019033D02*
X060618Y019033D01*
X060618Y019082D02*
X064555Y019082D01*
X064555Y019130D02*
X060618Y019130D01*
X060618Y019179D02*
X064555Y019179D01*
X064555Y019227D02*
X060618Y019227D01*
X060618Y019276D02*
X064555Y019276D01*
X064555Y019324D02*
X060618Y019324D01*
X060618Y019373D02*
X064555Y019373D01*
X064555Y019421D02*
X060618Y019421D01*
X060618Y019470D02*
X064555Y019470D01*
X064555Y019519D02*
X060618Y019519D01*
X060618Y019567D02*
X064555Y019567D01*
X064555Y019616D02*
X060618Y019616D01*
X060618Y019664D02*
X064555Y019664D01*
X064555Y019713D02*
X060618Y019713D01*
X060618Y019761D02*
X064555Y019761D01*
X064555Y019810D02*
X060618Y019810D01*
X060618Y019858D02*
X064555Y019858D01*
X064555Y019907D02*
X060618Y019907D01*
X060618Y019955D02*
X064555Y019955D01*
X064555Y020004D02*
X060618Y020004D01*
X060618Y020052D02*
X064555Y020052D01*
X064555Y020101D02*
X060618Y020101D01*
X060618Y020150D02*
X064555Y020150D01*
X064555Y020198D02*
X060618Y020198D01*
X060618Y020247D02*
X064555Y020247D01*
X064555Y020295D02*
X060618Y020295D01*
X060618Y020344D02*
X064555Y020344D01*
X064555Y020392D02*
X060618Y020392D01*
X060618Y020441D02*
X064555Y020441D01*
X064555Y020489D02*
X060618Y020489D01*
X060618Y020538D02*
X064555Y020538D01*
X064555Y020586D02*
X060618Y020586D01*
X060618Y020635D02*
X064555Y020635D01*
X064555Y020684D02*
X060618Y020684D01*
X060618Y020732D02*
X064555Y020732D01*
X064555Y020781D02*
X060618Y020781D01*
X060618Y020829D02*
X064555Y020829D01*
D27*
X006119Y012402D03*
X005627Y012402D03*
X005135Y012402D03*
X004611Y012402D03*
X004103Y012402D03*
D28*
X005119Y009646D03*
D29*
X026625Y009512D03*
X032625Y009512D03*
X032625Y012512D03*
X026625Y012512D03*
D30*
X018759Y015951D03*
X017048Y015969D03*
X015869Y015969D03*
X015388Y017223D03*
X016468Y017223D03*
X017548Y017223D03*
X017008Y018343D03*
X015928Y018343D03*
X014848Y018343D03*
X013768Y018343D03*
X012688Y018343D03*
X011608Y018343D03*
X010528Y018343D03*
X011068Y017223D03*
X009988Y017223D03*
X012148Y017223D03*
X013228Y017223D03*
X014308Y017223D03*
X005623Y014501D03*
X052504Y003216D03*
X053504Y003216D03*
X054504Y003216D03*
X055504Y003216D03*
X055516Y018807D03*
X054516Y018807D03*
X053516Y018807D03*
D31*
X022823Y011012D03*
D32*
X024223Y012412D03*
X021423Y012412D03*
X021423Y009612D03*
X024223Y009612D03*
D33*
X020328Y017783D03*
X007208Y017783D03*
D34*
X007469Y015769D03*
X008569Y015769D03*
X009669Y015769D03*
X011069Y015769D03*
X012130Y015736D03*
X013255Y015736D03*
X014280Y015736D03*
D35*
X009669Y014169D03*
X009069Y014669D03*
X008069Y014669D03*
X007669Y014169D03*
X011669Y013169D03*
X009669Y012169D03*
X007669Y012169D03*
X011669Y010169D03*
X015169Y011169D03*
X016111Y010419D03*
X018169Y010169D03*
X018169Y009169D03*
X018647Y008589D03*
X019169Y008169D03*
X018269Y007469D03*
X020169Y006169D03*
X022169Y006169D03*
X022169Y008169D03*
X024169Y008169D03*
X026169Y008169D03*
X028169Y008169D03*
X030169Y008169D03*
X034169Y008169D03*
X036169Y008169D03*
X038169Y008169D03*
X040169Y008169D03*
X042169Y008169D03*
X044169Y008169D03*
X046169Y008169D03*
X048169Y008169D03*
X050169Y008169D03*
X052169Y008169D03*
X054169Y008169D03*
X056169Y008169D03*
X058169Y008169D03*
X060169Y008169D03*
X059169Y007169D03*
X058169Y006169D03*
X056169Y006169D03*
X054169Y006169D03*
X053169Y007169D03*
X051169Y007169D03*
X049169Y007169D03*
X047169Y007169D03*
X047169Y005169D03*
X049169Y005169D03*
X051169Y005169D03*
X050169Y004169D03*
X048169Y004169D03*
X046169Y004169D03*
X047169Y003169D03*
X049169Y003169D03*
X048169Y002169D03*
X046169Y002169D03*
X050169Y002169D03*
X057169Y003169D03*
X058169Y002169D03*
X060169Y002169D03*
X059169Y003169D03*
X058169Y004169D03*
X060169Y004169D03*
X059169Y005169D03*
X060169Y006169D03*
X062169Y006169D03*
X064169Y006169D03*
X057169Y005169D03*
X055169Y005169D03*
X055169Y007169D03*
X057169Y007169D03*
X057169Y009169D03*
X055169Y009169D03*
X053169Y009169D03*
X051169Y009169D03*
X049169Y009169D03*
X050169Y010169D03*
X052169Y010169D03*
X054169Y010169D03*
X056169Y010169D03*
X055169Y011169D03*
X053169Y011169D03*
X051169Y011169D03*
X049169Y011169D03*
X048169Y012169D03*
X050169Y012169D03*
X052169Y012169D03*
X054169Y012169D03*
X056169Y012169D03*
X055169Y013169D03*
X053169Y013169D03*
X051169Y013169D03*
X049169Y013169D03*
X048169Y014169D03*
X046169Y014169D03*
X044169Y014169D03*
X042169Y014169D03*
X040169Y014169D03*
X038169Y014169D03*
X036169Y014169D03*
X034169Y014169D03*
X032169Y014169D03*
X030169Y014169D03*
X028169Y014169D03*
X026169Y014169D03*
X024169Y014169D03*
X022169Y014169D03*
X022169Y016169D03*
X024169Y016169D03*
X026169Y016169D03*
X028169Y016169D03*
X030169Y016169D03*
X032169Y016169D03*
X024169Y018169D03*
X022169Y018169D03*
X022169Y020169D03*
X020169Y020169D03*
X024169Y020169D03*
X034169Y020169D03*
X036169Y020169D03*
X038169Y020169D03*
X040169Y020169D03*
X046169Y020169D03*
X048169Y020169D03*
X050169Y020169D03*
X050169Y018169D03*
X048169Y018169D03*
X046169Y018169D03*
X047169Y017169D03*
X049169Y017169D03*
X051169Y017169D03*
X053169Y017169D03*
X055169Y017169D03*
X057169Y017169D03*
X056169Y016169D03*
X054169Y016169D03*
X052169Y016169D03*
X050169Y016169D03*
X048169Y016169D03*
X046169Y016169D03*
X044169Y016169D03*
X042169Y016169D03*
X049169Y015169D03*
X051169Y015169D03*
X053169Y015169D03*
X055169Y015169D03*
X057169Y015169D03*
X056169Y014169D03*
X054169Y014169D03*
X052169Y014169D03*
X050169Y014169D03*
X057169Y013169D03*
X058169Y014169D03*
X060169Y014169D03*
X059169Y013169D03*
X059169Y015169D03*
X061169Y015169D03*
X060169Y016169D03*
X058169Y016169D03*
X059169Y017169D03*
X058169Y018169D03*
X060169Y018169D03*
X060169Y020169D03*
X058169Y020169D03*
X062169Y016169D03*
X064169Y016169D03*
X057169Y011169D03*
X040169Y004169D03*
X040169Y002169D03*
X038169Y002169D03*
X036169Y002169D03*
X034169Y002169D03*
X034169Y004169D03*
X024169Y004169D03*
X020169Y004169D03*
X022169Y002169D03*
X024169Y002169D03*
X014169Y003669D03*
X012169Y003669D03*
X010169Y003669D03*
X010169Y005169D03*
X008269Y005469D03*
X006169Y004169D03*
X006169Y002169D03*
X008169Y002169D03*
X012169Y005169D03*
X008544Y007019D03*
X009144Y007444D03*
X009969Y007669D03*
X011669Y008169D03*
X006169Y008169D03*
X002169Y008169D03*
X002169Y006169D03*
X004169Y006169D03*
X002169Y012169D03*
X002169Y016169D03*
X004169Y016169D03*
X016169Y012169D03*
X018169Y012169D03*
X034169Y012169D03*
X036169Y012169D03*
X036169Y010169D03*
X034169Y010169D03*
D36*
X019969Y014469D03*
X006898Y006233D03*
M02*
