%
M48
M72
T01C0.0236
T02C0.0354
T03C0.1181
T04C0.1300
%
T01
X6169Y2169
X8169Y2169
X10169Y2169
X12169Y2169
X14169Y2169
X18169Y2169
X20169Y2169
X22169Y2169
X24169Y2169
X24169Y4169
X22169Y4169
X20169Y4169
X20169Y6169
X18169Y6169
X22169Y6169
X19369Y9191
X15269Y10569
X14169Y10169
X12169Y10169
X13769Y11069
X15269Y11569
X15669Y12069
X20169Y14169
X17969Y15269
X16269Y15269
X14769Y15269
X20169Y16169
X24169Y18169
X24169Y20169
X36169Y16169
X38169Y16169
X40169Y16169
X42169Y16169
X44169Y16169
X46169Y16169
X48169Y16169
X50169Y16169
X52169Y16169
X54169Y16169
X56169Y16169
X58169Y16169
X60169Y16169
X62169Y16169
X64169Y16169
X61169Y15169
X59169Y15169
X58169Y14169
X56169Y14169
X54169Y14169
X52169Y14169
X50169Y14169
X48169Y14169
X46169Y14169
X44169Y14169
X42169Y14169
X40169Y14169
X38169Y14169
X34169Y14169
X32169Y12169
X36169Y12169
X36169Y10169
X34169Y10169
X29429Y9929
X36169Y6169
X38169Y6169
X40169Y6169
X42169Y6169
X44169Y6169
X46169Y6169
X48169Y6169
X50169Y6169
X49169Y5169
X47169Y5169
X48169Y4169
X50169Y4169
X49169Y3169
X47169Y3169
X46269Y2135
X48169Y2169
X50169Y2169
X51169Y3169
X51169Y5169
X54169Y6169
X56169Y6169
X58169Y6169
X60169Y6169
X62169Y6169
X64169Y6169
X61169Y7169
X59169Y7169
X58169Y8169
X56169Y8169
X54169Y8169
X52169Y8169
X51169Y9169
X49169Y9169
X50169Y10169
X52169Y10169
X54169Y10169
X56169Y10169
X58169Y10169
X57169Y9169
X55169Y9169
X53169Y9169
X53169Y7169
X55169Y7169
X57169Y7169
X60169Y8169
X59169Y5169
X58169Y4169
X60169Y4169
X59169Y3169
X58169Y2169
X60169Y2169
X57169Y5169
X55169Y5169
X49169Y7169
X47169Y7169
X42169Y4169
X42169Y2169
X40169Y2169
X38169Y2169
X36169Y2169
X34169Y2169
X34169Y4169
X49169Y11169
X51169Y11169
X53169Y11169
X55169Y11169
X57169Y11169
X56169Y12169
X54169Y12169
X52169Y12169
X50169Y12169
X49169Y13169
X51169Y13169
X53169Y13169
X55169Y13169
X57169Y13169
X58169Y12169
X59169Y13169
X60169Y14169
X57169Y15169
X55169Y15169
X53169Y15169
X51169Y15169
X51169Y17169
X49169Y17169
X47169Y17169
X48169Y18169
X50169Y18169
X52169Y18169
X53169Y17169
X55169Y17169
X57169Y17169
X58169Y18169
X60169Y18169
X59169Y17169
X58169Y20169
X60169Y20169
X52169Y20169
X50169Y20169
X48169Y20169
X12810Y7935
X10169Y6169
X8169Y6169
X6169Y6169
X4169Y6169
X2169Y6169
X4289Y7935
X2169Y8169
X6169Y9169
X9169Y10169
X8169Y12169
X8169Y14169
X6169Y14169
X4169Y14169
X2169Y14169
X2169Y12169
X2169Y10169
X2169Y16169
X4169Y16169
X6169Y16169
X8169Y16169
X8169Y4169
X6169Y4169
X10169Y4169
X12169Y4169
T02
X25429Y6484
X26429Y6484
X27429Y6484
X28429Y6484
X29429Y6484
X30429Y6484
X31429Y6484
X32429Y6484
X33429Y6484
X34429Y6484
X52504Y3216
X53504Y3216
X54504Y3216
X55504Y3216
X34429Y15539
X33429Y15539
X32429Y15539
X31429Y15539
X30429Y15539
X29429Y15539
X28429Y15539
X27429Y15539
X26429Y15539
X25429Y15539
X16760Y17223
X15680Y17223
X14600Y17223
X13520Y17223
X12440Y17223
X11360Y17223
X10280Y17223
X9200Y17223
X9740Y18343
X10820Y18343
X11900Y18343
X12980Y18343
X14060Y18343
X15140Y18343
X16220Y18343
X53516Y18807
X54516Y18807
X55516Y18807
T03
X62586Y18886
X44476Y18886
X30945Y18886
X27153Y18886
X38886Y11012
X42823Y11012
X46760Y11012
X59831Y11012
X62586Y3138
X44476Y3138
X30945Y3138
X27153Y3138
X3138Y3138
X3138Y18886
T04
X6420Y17783
X19540Y17783
M30
