G75*
G70*
%OFA0B0*%
%FSLAX24Y24*%
%IPPOS*%
%LPD*%
%AMOC8*
5,1,8,0,0,1.08239X$1,22.5*
%
%ADD10C,0.0120*%
%ADD11C,0.0060*%
%ADD12C,0.0040*%
D10*
X000169Y000169D02*
X000169Y021854D01*
X065555Y021854D01*
X065555Y014563D01*
X062275Y014563D01*
X062275Y007775D01*
X065555Y007775D01*
X065555Y000169D01*
X000169Y000169D01*
D11*
X035948Y003250D02*
X035948Y003571D01*
X036055Y003677D01*
X036162Y003571D01*
X036162Y003250D01*
X036375Y003250D02*
X036375Y003677D01*
X036269Y003677D01*
X036162Y003571D01*
X036593Y003571D02*
X036700Y003677D01*
X036913Y003677D01*
X037020Y003571D01*
X037020Y003357D01*
X036913Y003250D01*
X036700Y003250D01*
X036593Y003357D01*
X036593Y003571D01*
X037236Y003677D02*
X037450Y003677D01*
X037343Y003784D02*
X037343Y003357D01*
X037236Y003250D01*
X037666Y003250D02*
X037772Y003357D01*
X037772Y003784D01*
X037666Y003677D02*
X037879Y003677D01*
X038097Y003571D02*
X038204Y003677D01*
X038417Y003677D01*
X038524Y003571D01*
X038524Y003357D01*
X038417Y003250D01*
X038204Y003250D01*
X038097Y003357D01*
X038097Y003571D01*
X038741Y003677D02*
X038741Y003784D01*
X038848Y003891D01*
X039168Y003891D01*
X039168Y003250D01*
X038848Y003250D01*
X038741Y003357D01*
X038741Y003464D01*
X038848Y003571D01*
X039168Y003571D01*
X038848Y003571D02*
X038741Y003677D01*
X038454Y019099D02*
X038561Y019206D01*
X038454Y019099D02*
X038241Y019099D01*
X038134Y019206D01*
X038134Y019313D01*
X038241Y019419D01*
X038454Y019419D01*
X038561Y019526D01*
X038561Y019633D01*
X038454Y019740D01*
X038241Y019740D01*
X038134Y019633D01*
X037810Y019526D02*
X037596Y019526D01*
X037489Y019419D01*
X037489Y019099D01*
X037810Y019099D01*
X037916Y019206D01*
X037810Y019313D01*
X037489Y019313D01*
X037272Y019526D02*
X037058Y019526D01*
X037165Y019633D02*
X037165Y019206D01*
X037058Y019099D01*
X036842Y019099D02*
X036522Y019099D01*
X036415Y019206D01*
X036415Y019633D01*
X036522Y019740D01*
X036842Y019740D01*
X036842Y019099D01*
X036198Y019206D02*
X036198Y019419D01*
X036091Y019526D01*
X035878Y019526D01*
X035771Y019419D01*
X035771Y019206D01*
X035878Y019099D01*
X036091Y019099D01*
X036198Y019206D01*
X035553Y019206D02*
X035446Y019099D01*
X035340Y019206D01*
X035233Y019099D01*
X035126Y019206D01*
X035126Y019526D01*
X034909Y019526D02*
X034588Y019526D01*
X034482Y019419D01*
X034482Y019099D01*
X034264Y019099D02*
X034051Y019099D01*
X034157Y019099D02*
X034157Y019740D01*
X034264Y019740D01*
X033834Y019526D02*
X033728Y019526D01*
X033728Y019099D01*
X033834Y019099D02*
X033621Y019099D01*
X033405Y019099D02*
X033405Y019526D01*
X033085Y019526D01*
X032978Y019419D01*
X032978Y019099D01*
X032760Y019099D02*
X032760Y019740D01*
X032440Y019526D02*
X032760Y019313D01*
X032440Y019099D01*
X033728Y019740D02*
X033728Y019846D01*
X034909Y019526D02*
X034909Y019099D01*
X035553Y019206D02*
X035553Y019526D01*
X038779Y019419D02*
X039206Y019419D01*
X039423Y019526D02*
X039743Y019526D01*
X039850Y019419D01*
X039743Y019313D01*
X039530Y019313D01*
X039423Y019206D01*
X039530Y019099D01*
X039850Y019099D01*
X040068Y019099D02*
X040068Y019526D01*
X040495Y019526D02*
X040495Y019206D01*
X040388Y019099D01*
X040068Y019099D01*
X040712Y019099D02*
X040712Y019740D01*
X041139Y019740D02*
X041139Y019099D01*
X041139Y019419D02*
X040712Y019419D01*
D12*
X040405Y018126D02*
X040405Y018049D01*
X040405Y017896D02*
X040405Y017589D01*
X040482Y017589D02*
X040328Y017589D01*
X040175Y017666D02*
X040098Y017589D01*
X039868Y017589D01*
X039868Y017512D02*
X039868Y017896D01*
X040098Y017896D01*
X040175Y017819D01*
X040175Y017666D01*
X040022Y017436D02*
X039945Y017436D01*
X039868Y017512D01*
X039715Y017589D02*
X039715Y018049D01*
X039638Y017896D02*
X039484Y017896D01*
X039408Y017819D01*
X039408Y017589D01*
X039178Y017666D02*
X039101Y017589D01*
X039178Y017666D02*
X039178Y017973D01*
X039254Y017896D02*
X039101Y017896D01*
X038947Y017512D02*
X038641Y017512D01*
X038487Y017589D02*
X038180Y017589D01*
X038334Y017589D02*
X038334Y018049D01*
X038487Y017896D01*
X038027Y017896D02*
X038027Y017973D01*
X037950Y018049D01*
X037797Y018049D01*
X037720Y017973D01*
X037720Y017896D01*
X037797Y017819D01*
X037950Y017819D01*
X038027Y017896D01*
X037950Y017819D02*
X038027Y017743D01*
X038027Y017666D01*
X037950Y017589D01*
X037797Y017589D01*
X037720Y017666D01*
X037720Y017743D01*
X037797Y017819D01*
X037566Y017512D02*
X037259Y017512D01*
X037106Y017589D02*
X036799Y017896D01*
X036799Y017973D01*
X036876Y018049D01*
X037029Y018049D01*
X037106Y017973D01*
X037106Y017589D02*
X036799Y017589D01*
X036646Y017512D02*
X036339Y017512D01*
X036185Y017589D02*
X035878Y017589D01*
X035725Y017589D02*
X035418Y017896D01*
X035418Y017973D01*
X035495Y018049D01*
X035648Y018049D01*
X035725Y017973D01*
X036032Y018049D02*
X036032Y017589D01*
X035725Y017589D02*
X035418Y017589D01*
X036032Y018049D02*
X036185Y017896D01*
X039638Y017896D02*
X039715Y017819D01*
X040405Y017896D02*
X040482Y017896D01*
X040712Y018049D02*
X040712Y017589D01*
X040789Y017589D02*
X040635Y017589D01*
X041096Y017819D02*
X041249Y017819D01*
X041249Y017589D02*
X041249Y018049D01*
X040942Y018049D01*
X040789Y018049D02*
X040712Y018049D01*
M02*
