G75*
G70*
%OFA0B0*%
%FSLAX24Y24*%
%IPPOS*%
%LPD*%
%AMOC8*
5,1,8,0,0,1.08239X$1,22.5*
%
%ADD10C,0.0060*%
%ADD11C,0.1000*%
%ADD12R,0.0630X0.0709*%
%ADD13R,0.0197X0.0787*%
%ADD14R,0.1181X0.0787*%
%ADD15R,0.0709X0.0630*%
%ADD16C,0.3543*%
%ADD17C,0.0660*%
%ADD18C,0.2000*%
%ADD19R,0.0787X0.0197*%
%ADD20R,0.0787X0.1181*%
%ADD21C,0.0472*%
%ADD22C,0.0160*%
%ADD23C,0.0396*%
%ADD24C,0.0400*%
%ADD25C,0.0240*%
%ADD26C,0.0600*%
D10*
X039228Y003891D02*
X039655Y003891D01*
X039442Y003891D02*
X039442Y003250D01*
X039873Y003357D02*
X039980Y003250D01*
X040193Y003250D01*
X040300Y003357D01*
X040300Y003571D01*
X040193Y003677D01*
X039980Y003677D01*
X039873Y003571D01*
X039873Y003357D01*
X040517Y003250D02*
X040838Y003250D01*
X040944Y003357D01*
X040944Y003571D01*
X040838Y003677D01*
X040517Y003677D01*
X040517Y003037D01*
X040380Y017699D02*
X040274Y017806D01*
X040380Y017913D01*
X040701Y017913D01*
X040701Y018019D02*
X040701Y017699D01*
X040380Y017699D01*
X039950Y018126D02*
X039737Y017913D01*
X039737Y018126D02*
X039737Y017699D01*
X039519Y018019D02*
X039412Y017913D01*
X039092Y017913D01*
X039092Y017699D02*
X039092Y018340D01*
X039412Y018340D01*
X039519Y018233D01*
X039519Y018019D01*
X039950Y018126D02*
X040057Y018126D01*
X040380Y018126D02*
X040594Y018126D01*
X040701Y018019D01*
X040918Y018126D02*
X041132Y018126D01*
X041025Y018233D02*
X041025Y017806D01*
X041132Y017699D01*
X041348Y017699D02*
X041348Y018340D01*
X041455Y018126D02*
X041348Y018019D01*
X041455Y018126D02*
X041668Y018126D01*
X041775Y018019D01*
X041775Y017699D01*
X041992Y017806D02*
X042099Y017913D01*
X042419Y017913D01*
X042419Y018019D02*
X042419Y017699D01*
X042099Y017699D01*
X041992Y017806D01*
X042099Y018126D02*
X042313Y018126D01*
X042419Y018019D01*
X042637Y018126D02*
X042744Y018126D01*
X042850Y018019D01*
X042957Y018126D01*
X043064Y018019D01*
X043064Y017699D01*
X042850Y017699D02*
X042850Y018019D01*
X042637Y018126D02*
X042637Y017699D01*
X038230Y017806D02*
X038123Y017699D01*
X037803Y017699D01*
X037803Y018340D01*
X038123Y018340D01*
X038230Y018233D01*
X038230Y018126D01*
X038123Y018019D01*
X037803Y018019D01*
X038123Y018019D02*
X038230Y017913D01*
X038230Y017806D01*
X037586Y018340D02*
X037159Y018340D01*
X037372Y018340D02*
X037372Y017699D01*
X036942Y017699D02*
X036729Y017699D01*
X036836Y017699D02*
X036836Y018340D01*
X036942Y018340D02*
X036729Y018340D01*
X036513Y018340D02*
X036299Y018340D01*
X036406Y018340D02*
X036406Y017699D01*
X036299Y017699D02*
X036513Y017699D01*
D11*
X035175Y018919D02*
X035177Y018958D01*
X035183Y018997D01*
X035193Y019035D01*
X035206Y019072D01*
X035223Y019107D01*
X035243Y019141D01*
X035267Y019172D01*
X035294Y019201D01*
X035323Y019227D01*
X035355Y019250D01*
X035389Y019270D01*
X035425Y019286D01*
X035462Y019298D01*
X035501Y019307D01*
X035540Y019312D01*
X035579Y019313D01*
X035618Y019310D01*
X035657Y019303D01*
X035694Y019292D01*
X035731Y019278D01*
X035766Y019260D01*
X035799Y019239D01*
X035830Y019214D01*
X035858Y019187D01*
X035883Y019157D01*
X035905Y019124D01*
X035924Y019090D01*
X035939Y019054D01*
X035951Y019016D01*
X035959Y018978D01*
X035963Y018939D01*
X035963Y018899D01*
X035959Y018860D01*
X035951Y018822D01*
X035939Y018784D01*
X035924Y018748D01*
X035905Y018714D01*
X035883Y018681D01*
X035858Y018651D01*
X035830Y018624D01*
X035799Y018599D01*
X035766Y018578D01*
X035731Y018560D01*
X035694Y018546D01*
X035657Y018535D01*
X035618Y018528D01*
X035579Y018525D01*
X035540Y018526D01*
X035501Y018531D01*
X035462Y018540D01*
X035425Y018552D01*
X035389Y018568D01*
X035355Y018588D01*
X035323Y018611D01*
X035294Y018637D01*
X035267Y018666D01*
X035243Y018697D01*
X035223Y018731D01*
X035206Y018766D01*
X035193Y018803D01*
X035183Y018841D01*
X035177Y018880D01*
X035175Y018919D01*
D12*
X006870Y007055D03*
X005768Y007055D03*
X011703Y005719D03*
X012805Y005719D03*
X019712Y006889D03*
X020815Y006889D03*
X017415Y002319D03*
X016312Y002319D03*
X004290Y011905D03*
X003188Y011905D03*
D13*
X006379Y010362D03*
X006871Y010362D03*
X007363Y010362D03*
X007887Y010362D03*
X008395Y010362D03*
D14*
X007379Y013118D03*
D15*
X010230Y010109D03*
X010230Y009007D03*
D16*
X003138Y003138D03*
X027153Y003138D03*
X030945Y003138D03*
X044476Y003138D03*
X062586Y003138D03*
X059831Y011012D03*
X046760Y011012D03*
X042823Y011012D03*
X038886Y011012D03*
X044476Y018886D03*
X030945Y018886D03*
X027153Y018886D03*
X003138Y018886D03*
X062586Y018886D03*
D17*
X055516Y018807D03*
X054516Y018807D03*
X053516Y018807D03*
X034429Y015539D03*
X033429Y015539D03*
X032429Y015539D03*
X031429Y015539D03*
X030429Y015539D03*
X029429Y015539D03*
X028429Y015539D03*
X027429Y015539D03*
X026429Y015539D03*
X025429Y015539D03*
X017969Y015269D03*
X016269Y015269D03*
X014769Y015269D03*
X014600Y017223D03*
X015680Y017223D03*
X016760Y017223D03*
X016220Y018343D03*
X015140Y018343D03*
X014060Y018343D03*
X012980Y018343D03*
X011900Y018343D03*
X010820Y018343D03*
X009740Y018343D03*
X009200Y017223D03*
X010280Y017223D03*
X011360Y017223D03*
X012440Y017223D03*
X013520Y017223D03*
X012810Y007935D03*
X004289Y007935D03*
X025429Y006484D03*
X026429Y006484D03*
X027429Y006484D03*
X028429Y006484D03*
X029429Y006484D03*
X030429Y006484D03*
X031429Y006484D03*
X032429Y006484D03*
X033429Y006484D03*
X034429Y006484D03*
X052504Y003216D03*
X053504Y003216D03*
X054504Y003216D03*
X055504Y003216D03*
D18*
X019540Y017783D03*
X006420Y017783D03*
D19*
X014836Y005719D03*
X014836Y005227D03*
X014836Y004735D03*
X014836Y004211D03*
X014836Y003703D03*
D20*
X017592Y004719D03*
D21*
X021669Y015169D03*
X022669Y015169D03*
X023669Y015169D03*
X013469Y015269D03*
X012469Y015269D03*
X011369Y015269D03*
X010269Y015269D03*
D22*
X003885Y001333D02*
X003820Y001309D01*
X026471Y001309D01*
X026406Y001333D01*
X026251Y001405D01*
X026104Y001490D01*
X025964Y001588D01*
X025834Y001697D01*
X025713Y001818D01*
X025604Y001948D01*
X025506Y002088D01*
X025421Y002236D01*
X025349Y002390D01*
X025290Y002550D01*
X025246Y002715D01*
X025217Y002883D01*
X025202Y003052D01*
X025202Y003058D01*
X027073Y003058D01*
X027073Y003218D01*
X027073Y005089D01*
X027068Y005089D01*
X026898Y005074D01*
X026731Y005045D01*
X026566Y005001D01*
X026406Y004942D01*
X026251Y004870D01*
X026104Y004785D01*
X025964Y004687D01*
X025834Y004578D01*
X025713Y004457D01*
X025604Y004327D01*
X025506Y004187D01*
X025421Y004040D01*
X025349Y003885D01*
X025290Y003725D01*
X025246Y003560D01*
X025217Y003393D01*
X025202Y003223D01*
X025202Y003218D01*
X027073Y003218D01*
X027233Y003218D01*
X027233Y005089D01*
X027239Y005089D01*
X027408Y005074D01*
X027576Y005045D01*
X027741Y005001D01*
X027901Y004942D01*
X028055Y004870D01*
X028203Y004785D01*
X028343Y004687D01*
X028473Y004578D01*
X028594Y004457D01*
X028703Y004327D01*
X028801Y004187D01*
X028886Y004040D01*
X028958Y003885D01*
X029016Y003725D01*
X029049Y003603D01*
X029082Y003725D01*
X029140Y003885D01*
X029212Y004040D01*
X029297Y004187D01*
X029395Y004327D01*
X029504Y004457D01*
X029625Y004578D01*
X029755Y004687D01*
X029895Y004785D01*
X030043Y004870D01*
X030197Y004942D01*
X030357Y005001D01*
X030522Y005045D01*
X030690Y005074D01*
X030859Y005089D01*
X030865Y005089D01*
X030865Y003218D01*
X031025Y003218D01*
X031025Y005089D01*
X031030Y005089D01*
X031200Y005074D01*
X031368Y005045D01*
X031532Y005001D01*
X031692Y004942D01*
X031847Y004870D01*
X031994Y004785D01*
X032134Y004687D01*
X032264Y004578D01*
X032385Y004457D01*
X032495Y004327D01*
X032592Y004187D01*
X032677Y004040D01*
X032749Y003885D01*
X032808Y003725D01*
X032852Y003560D01*
X032881Y003393D01*
X032896Y003223D01*
X032896Y003218D01*
X031025Y003218D01*
X031025Y003058D01*
X032896Y003058D01*
X032896Y003052D01*
X032881Y002883D01*
X032852Y002715D01*
X032808Y002550D01*
X032749Y002390D01*
X032677Y002236D01*
X032592Y002088D01*
X032495Y001948D01*
X032385Y001818D01*
X032264Y001697D01*
X032134Y001588D01*
X031994Y001490D01*
X031847Y001405D01*
X031692Y001333D01*
X031627Y001309D01*
X043794Y001309D01*
X043729Y001333D01*
X043574Y001405D01*
X043427Y001490D01*
X043287Y001588D01*
X043156Y001697D01*
X043036Y001818D01*
X042926Y001948D01*
X042829Y002088D01*
X042743Y002236D01*
X042671Y002390D01*
X042613Y002550D01*
X042569Y002715D01*
X042539Y002883D01*
X042525Y003052D01*
X042525Y003058D01*
X044396Y003058D01*
X044396Y003218D01*
X044396Y005089D01*
X044391Y005089D01*
X044221Y005074D01*
X044053Y005045D01*
X043889Y005001D01*
X043729Y004942D01*
X043574Y004870D01*
X043427Y004785D01*
X043287Y004687D01*
X043156Y004578D01*
X043036Y004457D01*
X042926Y004327D01*
X042829Y004187D01*
X042743Y004040D01*
X042671Y003885D01*
X042613Y003725D01*
X042569Y003560D01*
X042539Y003393D01*
X042525Y003223D01*
X042525Y003218D01*
X044396Y003218D01*
X044556Y003218D01*
X044556Y005089D01*
X044561Y005089D01*
X044731Y005074D01*
X044899Y005045D01*
X045064Y005001D01*
X045224Y004942D01*
X045378Y004870D01*
X045526Y004785D01*
X045665Y004687D01*
X045796Y004578D01*
X045916Y004457D01*
X046026Y004327D01*
X046124Y004187D01*
X046209Y004040D01*
X046281Y003885D01*
X046339Y003725D01*
X046383Y003560D01*
X046413Y003393D01*
X046428Y003223D01*
X046428Y003218D01*
X044556Y003218D01*
X044556Y003058D01*
X046428Y003058D01*
X046428Y003052D01*
X046413Y002883D01*
X046383Y002715D01*
X046339Y002550D01*
X046281Y002390D01*
X046209Y002236D01*
X046124Y002088D01*
X046026Y001948D01*
X045916Y001818D01*
X045796Y001697D01*
X045665Y001588D01*
X045526Y001490D01*
X045378Y001405D01*
X045224Y001333D01*
X045158Y001309D01*
X061904Y001309D01*
X061839Y001333D01*
X061684Y001405D01*
X061537Y001490D01*
X061397Y001588D01*
X061267Y001697D01*
X061146Y001818D01*
X061037Y001948D01*
X060939Y002088D01*
X060854Y002236D01*
X060782Y002390D01*
X060723Y002550D01*
X060679Y002715D01*
X060650Y002883D01*
X060635Y003052D01*
X060635Y003058D01*
X062506Y003058D01*
X062506Y003218D01*
X060635Y003218D01*
X060635Y003223D01*
X060650Y003393D01*
X060679Y003560D01*
X060723Y003725D01*
X060782Y003885D01*
X060854Y004040D01*
X060939Y004187D01*
X061037Y004327D01*
X061146Y004457D01*
X061267Y004578D01*
X061397Y004687D01*
X061537Y004785D01*
X061684Y004870D01*
X061839Y004942D01*
X061999Y005001D01*
X062164Y005045D01*
X062331Y005074D01*
X062501Y005089D01*
X062506Y005089D01*
X062506Y003218D01*
X062666Y003218D01*
X062666Y005089D01*
X062672Y005089D01*
X062841Y005074D01*
X063009Y005045D01*
X063174Y005001D01*
X063334Y004942D01*
X063488Y004870D01*
X063636Y004785D01*
X063776Y004687D01*
X063906Y004578D01*
X064027Y004457D01*
X064136Y004327D01*
X064234Y004187D01*
X064319Y004040D01*
X064391Y003885D01*
X064415Y003820D01*
X064415Y006635D01*
X062426Y006635D01*
X062125Y006635D01*
X061835Y006713D01*
X061728Y006775D01*
X061275Y006775D01*
X061275Y007228D01*
X061213Y007335D01*
X061135Y007625D01*
X061135Y009559D01*
X061020Y009462D01*
X060880Y009364D01*
X060733Y009279D01*
X060578Y009207D01*
X060418Y009149D01*
X060253Y009104D01*
X060086Y009075D01*
X059916Y009060D01*
X059910Y009060D01*
X059910Y010931D01*
X059751Y010931D01*
X059751Y009060D01*
X059745Y009060D01*
X059576Y009075D01*
X059408Y009104D01*
X059243Y009149D01*
X059083Y009207D01*
X058929Y009279D01*
X058781Y009364D01*
X058641Y009462D01*
X058511Y009571D01*
X058390Y009692D01*
X058281Y009822D01*
X058183Y009962D01*
X058098Y010110D01*
X058026Y010264D01*
X057967Y010424D01*
X057923Y010589D01*
X057894Y010757D01*
X057879Y010926D01*
X057879Y010932D01*
X059750Y010932D01*
X059750Y011092D01*
X057879Y011092D01*
X057879Y011097D01*
X057894Y011267D01*
X057923Y011434D01*
X057967Y011599D01*
X058026Y011759D01*
X058098Y011914D01*
X058183Y012061D01*
X058281Y012201D01*
X058390Y012331D01*
X058511Y012452D01*
X058641Y012561D01*
X058781Y012659D01*
X058929Y012744D01*
X059083Y012816D01*
X059243Y012875D01*
X059408Y012919D01*
X059576Y012948D01*
X059745Y012963D01*
X059751Y012963D01*
X059751Y011092D01*
X059910Y011092D01*
X059910Y012963D01*
X059916Y012963D01*
X060086Y012948D01*
X060253Y012919D01*
X060418Y012875D01*
X060578Y012816D01*
X060733Y012744D01*
X060880Y012659D01*
X061020Y012561D01*
X061135Y012464D01*
X061135Y014413D01*
X061135Y014713D01*
X061213Y015003D01*
X061275Y015111D01*
X061275Y015563D01*
X061728Y015563D01*
X061835Y015625D01*
X062125Y015703D01*
X064415Y015703D01*
X064415Y018203D01*
X064391Y018138D01*
X064319Y017984D01*
X064234Y017836D01*
X064136Y017696D01*
X064027Y017566D01*
X063906Y017445D01*
X063776Y017336D01*
X063636Y017238D01*
X063488Y017153D01*
X063334Y017081D01*
X063174Y017023D01*
X063009Y016978D01*
X062841Y016949D01*
X062672Y016934D01*
X062666Y016934D01*
X062666Y018805D01*
X062506Y018805D01*
X062506Y016934D01*
X062501Y016934D01*
X062331Y016949D01*
X062164Y016978D01*
X061999Y017023D01*
X061839Y017081D01*
X061684Y017153D01*
X061537Y017238D01*
X061397Y017336D01*
X061267Y017445D01*
X061146Y017566D01*
X061037Y017696D01*
X060939Y017836D01*
X060854Y017984D01*
X060782Y018138D01*
X060723Y018298D01*
X060679Y018463D01*
X060650Y018631D01*
X060635Y018800D01*
X060635Y018806D01*
X062506Y018806D01*
X062506Y018966D01*
X060635Y018966D01*
X060635Y018971D01*
X060650Y019141D01*
X060679Y019308D01*
X060723Y019473D01*
X060782Y019633D01*
X060854Y019788D01*
X060939Y019935D01*
X061037Y020075D01*
X061146Y020205D01*
X061267Y020326D01*
X061397Y020435D01*
X061537Y020533D01*
X061684Y020618D01*
X061839Y020690D01*
X061904Y020714D01*
X045159Y020714D01*
X045224Y020690D01*
X045378Y020618D01*
X045526Y020533D01*
X045665Y020435D01*
X045796Y020326D01*
X045916Y020205D01*
X046026Y020075D01*
X046124Y019935D01*
X046209Y019788D01*
X046281Y019633D01*
X046339Y019473D01*
X046383Y019308D01*
X046413Y019141D01*
X046428Y018971D01*
X046428Y018966D01*
X044556Y018966D01*
X044556Y018806D01*
X046428Y018806D01*
X046428Y018800D01*
X046413Y018631D01*
X046383Y018463D01*
X046339Y018298D01*
X046281Y018138D01*
X046209Y017984D01*
X046124Y017836D01*
X046026Y017696D01*
X045916Y017566D01*
X045796Y017445D01*
X045665Y017336D01*
X045526Y017238D01*
X045378Y017153D01*
X045224Y017081D01*
X045064Y017023D01*
X044899Y016978D01*
X044731Y016949D01*
X044561Y016934D01*
X044556Y016934D01*
X044556Y018805D01*
X044396Y018805D01*
X044396Y016934D01*
X044391Y016934D01*
X044221Y016949D01*
X044053Y016978D01*
X043889Y017023D01*
X043729Y017081D01*
X043574Y017153D01*
X043427Y017238D01*
X043287Y017336D01*
X043156Y017445D01*
X043036Y017566D01*
X042926Y017696D01*
X042829Y017836D01*
X042743Y017984D01*
X042711Y018053D01*
X042711Y017420D01*
X042708Y017389D01*
X042702Y017358D01*
X042693Y017328D01*
X042681Y017299D01*
X042666Y017271D01*
X042649Y017245D01*
X042629Y017221D01*
X042606Y017198D01*
X042582Y017178D01*
X042556Y017161D01*
X042528Y017146D01*
X042499Y017134D01*
X042469Y017125D01*
X042438Y017119D01*
X042407Y017116D01*
X036020Y017116D01*
X035989Y017119D01*
X035958Y017125D01*
X035928Y017134D01*
X035899Y017146D01*
X035871Y017161D01*
X035845Y017178D01*
X035821Y017198D01*
X035798Y017221D01*
X035778Y017245D01*
X035761Y017271D01*
X035746Y017299D01*
X035734Y017328D01*
X035725Y017358D01*
X035719Y017389D01*
X035716Y017420D01*
X035716Y017724D01*
X035358Y017724D01*
X035049Y017836D01*
X035049Y017832D01*
X035017Y017755D01*
X034987Y017678D01*
X034984Y017675D01*
X034982Y017670D01*
X034923Y017611D01*
X034866Y017552D01*
X034862Y017550D01*
X034858Y017546D01*
X034781Y017514D01*
X034612Y017440D01*
X034608Y017436D01*
X034532Y017404D01*
X034456Y017371D01*
X034451Y017371D01*
X034447Y017369D01*
X034381Y017369D01*
X034343Y017331D01*
X034311Y017287D01*
X034282Y017270D01*
X034258Y017246D01*
X034208Y017225D01*
X034032Y017120D01*
X034008Y017096D01*
X033957Y017075D01*
X033910Y017047D01*
X033877Y017042D01*
X033847Y017029D01*
X033792Y017029D01*
X033737Y017021D01*
X033705Y017029D01*
X033672Y017029D01*
X033621Y017050D01*
X033567Y017064D01*
X033541Y017083D01*
X033510Y017096D01*
X033471Y017135D01*
X033427Y017168D01*
X033410Y017196D01*
X033386Y017220D01*
X033365Y017271D01*
X033337Y017318D01*
X033332Y017351D01*
X033319Y017382D01*
X033319Y017437D01*
X033311Y017491D01*
X033319Y017523D01*
X033319Y017937D01*
X033311Y017991D01*
X033319Y018023D01*
X033319Y018057D01*
X033340Y018108D01*
X033354Y018161D01*
X033373Y018187D01*
X033386Y018218D01*
X033425Y018257D01*
X033458Y018301D01*
X033486Y018319D01*
X033510Y018342D01*
X033561Y018363D01*
X033736Y018469D01*
X033760Y018492D01*
X033811Y018513D01*
X033858Y018541D01*
X033891Y018546D01*
X033922Y018559D01*
X033977Y018559D01*
X033989Y018561D01*
X034045Y018618D01*
X034102Y018677D01*
X034106Y018679D01*
X034110Y018682D01*
X034187Y018714D01*
X034356Y018789D01*
X034360Y018792D01*
X034377Y018799D01*
X034355Y018919D01*
X034429Y019334D01*
X034639Y019699D01*
X034962Y019970D01*
X035358Y020114D01*
X035780Y020114D01*
X036176Y019970D01*
X036198Y019952D01*
X036211Y019983D01*
X036241Y020060D01*
X036244Y020064D01*
X036246Y020068D01*
X036305Y020127D01*
X036362Y020187D01*
X036366Y020189D01*
X036370Y020192D01*
X036447Y020224D01*
X036616Y020299D01*
X036620Y020302D01*
X036696Y020334D01*
X036772Y020367D01*
X036777Y020367D01*
X036782Y020369D01*
X036863Y020369D01*
X036947Y020371D01*
X036962Y020387D01*
X036966Y020389D01*
X036970Y020392D01*
X037047Y020424D01*
X037216Y020499D01*
X037220Y020502D01*
X037297Y020534D01*
X037372Y020567D01*
X037377Y020567D01*
X037382Y020569D01*
X037464Y020569D01*
X037547Y020571D01*
X037552Y020569D01*
X037557Y020569D01*
X037633Y020537D01*
X037710Y020507D01*
X037714Y020504D01*
X037718Y020502D01*
X037778Y020443D01*
X037837Y020386D01*
X037839Y020382D01*
X037842Y020378D01*
X037874Y020301D01*
X037907Y020226D01*
X037907Y020221D01*
X037909Y020217D01*
X037909Y020134D01*
X037911Y020051D01*
X037909Y020047D01*
X037909Y019634D01*
X037911Y019551D01*
X037909Y019547D01*
X037909Y019542D01*
X037877Y019465D01*
X037847Y019388D01*
X037844Y019385D01*
X037842Y019380D01*
X037783Y019321D01*
X037726Y019262D01*
X037722Y019260D01*
X037718Y019256D01*
X037641Y019224D01*
X037472Y019150D01*
X037468Y019146D01*
X037392Y019114D01*
X037316Y019081D01*
X037311Y019081D01*
X037307Y019079D01*
X037224Y019079D01*
X037141Y019077D01*
X037126Y019062D01*
X037122Y019060D01*
X037118Y019056D01*
X037041Y019024D01*
X036872Y018950D01*
X036868Y018946D01*
X036811Y018922D01*
X042407Y018922D01*
X042438Y018919D01*
X042469Y018913D01*
X042499Y018904D01*
X042528Y018892D01*
X042556Y018877D01*
X042582Y018860D01*
X042606Y018840D01*
X042629Y018818D01*
X042638Y018806D01*
X044396Y018806D01*
X044396Y018966D01*
X042525Y018966D01*
X042525Y018971D01*
X042539Y019141D01*
X042569Y019308D01*
X042613Y019473D01*
X042671Y019633D01*
X042743Y019788D01*
X042829Y019935D01*
X042926Y020075D01*
X043036Y020205D01*
X043156Y020326D01*
X043287Y020435D01*
X043427Y020533D01*
X043574Y020618D01*
X043729Y020690D01*
X043794Y020714D01*
X031627Y020714D01*
X031692Y020690D01*
X031847Y020618D01*
X031994Y020533D01*
X032134Y020435D01*
X032264Y020326D01*
X032385Y020205D01*
X032495Y020075D01*
X032592Y019935D01*
X032677Y019788D01*
X032749Y019633D01*
X032808Y019473D01*
X032852Y019308D01*
X032881Y019141D01*
X032896Y018971D01*
X032896Y018966D01*
X031025Y018966D01*
X031025Y018806D01*
X032896Y018806D01*
X032896Y018800D01*
X032881Y018631D01*
X032852Y018463D01*
X032808Y018298D01*
X032749Y018138D01*
X032677Y017984D01*
X032592Y017836D01*
X032495Y017696D01*
X032385Y017566D01*
X032264Y017445D01*
X032134Y017336D01*
X031994Y017238D01*
X031847Y017153D01*
X031692Y017081D01*
X031532Y017023D01*
X031368Y016978D01*
X031200Y016949D01*
X031030Y016934D01*
X031025Y016934D01*
X031025Y018805D01*
X030865Y018805D01*
X030865Y016934D01*
X030859Y016934D01*
X030690Y016949D01*
X030522Y016978D01*
X030357Y017023D01*
X030197Y017081D01*
X030043Y017153D01*
X029895Y017238D01*
X029755Y017336D01*
X029625Y017445D01*
X029504Y017566D01*
X029395Y017696D01*
X029297Y017836D01*
X029212Y017984D01*
X029140Y018138D01*
X029082Y018298D01*
X029049Y018420D01*
X029016Y018298D01*
X028958Y018138D01*
X028886Y017984D01*
X028801Y017836D01*
X028703Y017696D01*
X028594Y017566D01*
X028473Y017445D01*
X028343Y017336D01*
X028203Y017238D01*
X028055Y017153D01*
X027901Y017081D01*
X027741Y017023D01*
X027576Y016978D01*
X027408Y016949D01*
X027239Y016934D01*
X027233Y016934D01*
X027233Y018805D01*
X027073Y018805D01*
X027073Y016934D01*
X027068Y016934D01*
X026898Y016949D01*
X026731Y016978D01*
X026566Y017023D01*
X026406Y017081D01*
X026251Y017153D01*
X026104Y017238D01*
X025964Y017336D01*
X025834Y017445D01*
X025713Y017566D01*
X025604Y017696D01*
X025506Y017836D01*
X025421Y017984D01*
X025349Y018138D01*
X025290Y018298D01*
X025246Y018463D01*
X025217Y018631D01*
X025202Y018800D01*
X025202Y018806D01*
X027073Y018806D01*
X027073Y018966D01*
X025202Y018966D01*
X025202Y018971D01*
X025217Y019141D01*
X025246Y019308D01*
X025290Y019473D01*
X025349Y019633D01*
X025421Y019788D01*
X025506Y019935D01*
X025604Y020075D01*
X025713Y020205D01*
X025834Y020326D01*
X025964Y020435D01*
X026104Y020533D01*
X026251Y020618D01*
X026406Y020690D01*
X026471Y020714D01*
X003820Y020714D01*
X003885Y020690D01*
X004040Y020618D01*
X004187Y020533D01*
X004327Y020435D01*
X004457Y020326D01*
X004578Y020205D01*
X004687Y020075D01*
X004785Y019935D01*
X004870Y019788D01*
X004942Y019633D01*
X005001Y019473D01*
X005045Y019308D01*
X005074Y019141D01*
X005089Y018971D01*
X005089Y018966D01*
X003218Y018966D01*
X003218Y018806D01*
X005089Y018806D01*
X005089Y018800D01*
X005074Y018631D01*
X005045Y018463D01*
X005001Y018298D01*
X004942Y018138D01*
X004870Y017984D01*
X004785Y017836D01*
X004687Y017696D01*
X004578Y017566D01*
X004457Y017445D01*
X004327Y017336D01*
X004187Y017238D01*
X004040Y017153D01*
X003885Y017081D01*
X003725Y017023D01*
X003560Y016978D01*
X003393Y016949D01*
X003223Y016934D01*
X003218Y016934D01*
X003218Y018805D01*
X003058Y018805D01*
X003058Y016934D01*
X003052Y016934D01*
X002883Y016949D01*
X002715Y016978D01*
X002550Y017023D01*
X002390Y017081D01*
X002236Y017153D01*
X002088Y017238D01*
X001948Y017336D01*
X001818Y017445D01*
X001697Y017566D01*
X001588Y017696D01*
X001490Y017836D01*
X001405Y017984D01*
X001333Y018138D01*
X001309Y018203D01*
X001309Y003820D01*
X001333Y003885D01*
X001405Y004040D01*
X001490Y004187D01*
X001588Y004327D01*
X001697Y004457D01*
X001818Y004578D01*
X001948Y004687D01*
X002088Y004785D01*
X002236Y004870D01*
X002390Y004942D01*
X002550Y005001D01*
X002715Y005045D01*
X002883Y005074D01*
X003052Y005089D01*
X003058Y005089D01*
X003058Y003218D01*
X003218Y003218D01*
X003218Y005089D01*
X003223Y005089D01*
X003393Y005074D01*
X003560Y005045D01*
X003725Y005001D01*
X003885Y004942D01*
X004040Y004870D01*
X004187Y004785D01*
X004327Y004687D01*
X004457Y004578D01*
X004578Y004457D01*
X004687Y004327D01*
X004785Y004187D01*
X004870Y004040D01*
X004942Y003885D01*
X005001Y003725D01*
X005045Y003560D01*
X005074Y003393D01*
X005089Y003223D01*
X005089Y003218D01*
X003218Y003218D01*
X003218Y003058D01*
X005089Y003058D01*
X005089Y003052D01*
X005074Y002883D01*
X005045Y002715D01*
X005001Y002550D01*
X004942Y002390D01*
X004870Y002236D01*
X004785Y002088D01*
X004687Y001948D01*
X004578Y001818D01*
X004457Y001697D01*
X004327Y001588D01*
X004187Y001490D01*
X004040Y001405D01*
X003885Y001333D01*
X003871Y001328D02*
X026420Y001328D01*
X026110Y001486D02*
X004181Y001486D01*
X004395Y001645D02*
X025896Y001645D01*
X025728Y001803D02*
X017810Y001803D01*
X017799Y001797D02*
X017840Y001821D01*
X017874Y001854D01*
X017897Y001895D01*
X017909Y001941D01*
X017909Y002242D01*
X017492Y002242D01*
X017492Y002397D01*
X017337Y002397D01*
X017337Y002853D01*
X017076Y002853D01*
X017030Y002841D01*
X016989Y002817D01*
X016956Y002784D01*
X016939Y002756D01*
X016898Y002855D01*
X016808Y002945D01*
X016752Y002968D01*
X016752Y003714D01*
X016685Y003875D01*
X016561Y003999D01*
X015976Y004584D01*
X015815Y004651D01*
X015639Y004651D01*
X015410Y004651D01*
X015410Y004735D01*
X015410Y004787D01*
X015589Y004787D01*
X015765Y004787D01*
X015926Y004854D01*
X017521Y006449D01*
X019086Y006449D01*
X019126Y006354D01*
X019216Y006264D01*
X019334Y006215D01*
X020091Y006215D01*
X020208Y006264D01*
X020298Y006354D01*
X020339Y006452D01*
X020356Y006424D01*
X020389Y006391D01*
X020430Y006367D01*
X020476Y006355D01*
X020737Y006355D01*
X020737Y006811D01*
X020892Y006811D01*
X020892Y006355D01*
X021153Y006355D01*
X021199Y006367D01*
X021240Y006391D01*
X021274Y006424D01*
X021297Y006465D01*
X021309Y006511D01*
X021309Y006812D01*
X020892Y006812D01*
X020892Y006967D01*
X020737Y006967D01*
X020737Y007423D01*
X020476Y007423D01*
X020430Y007411D01*
X020389Y007387D01*
X020356Y007354D01*
X020339Y007326D01*
X020298Y007425D01*
X020232Y007491D01*
X020232Y007497D01*
X020384Y007649D01*
X024151Y007649D01*
X024109Y007548D01*
X024109Y005420D01*
X024158Y005303D01*
X024248Y005213D01*
X024365Y005164D01*
X035493Y005164D01*
X035610Y005213D01*
X035700Y005303D01*
X035749Y005420D01*
X035749Y007548D01*
X035700Y007665D01*
X035610Y007755D01*
X035493Y007804D01*
X033829Y007804D01*
X033829Y009889D01*
X037289Y009889D01*
X037336Y009822D02*
X037445Y009692D01*
X037566Y009571D01*
X037696Y009462D01*
X037836Y009364D01*
X037984Y009279D01*
X038138Y009207D01*
X038298Y009149D01*
X038463Y009104D01*
X038631Y009075D01*
X038800Y009060D01*
X038806Y009060D01*
X038806Y010931D01*
X038966Y010931D01*
X038966Y009060D01*
X038971Y009060D01*
X039141Y009075D01*
X039308Y009104D01*
X039473Y009149D01*
X039633Y009207D01*
X039788Y009279D01*
X039935Y009364D01*
X040075Y009462D01*
X040205Y009571D01*
X040326Y009692D01*
X040435Y009822D01*
X040533Y009962D01*
X040618Y010110D01*
X040690Y010264D01*
X040749Y010424D01*
X040793Y010589D01*
X040822Y010757D01*
X040837Y010926D01*
X040837Y010932D01*
X038966Y010932D01*
X038966Y011092D01*
X040837Y011092D01*
X040837Y011097D01*
X040822Y011267D01*
X040793Y011434D01*
X040749Y011599D01*
X040690Y011759D01*
X040618Y011914D01*
X040533Y012061D01*
X040435Y012201D01*
X040326Y012331D01*
X040205Y012452D01*
X040075Y012561D01*
X039935Y012659D01*
X039788Y012744D01*
X039633Y012816D01*
X039473Y012875D01*
X039308Y012919D01*
X039141Y012948D01*
X038971Y012963D01*
X038966Y012963D01*
X038966Y011092D01*
X038806Y011092D01*
X038806Y012963D01*
X038800Y012963D01*
X038631Y012948D01*
X038463Y012919D01*
X038298Y012875D01*
X038138Y012816D01*
X037984Y012744D01*
X037836Y012659D01*
X037696Y012561D01*
X037566Y012452D01*
X037445Y012331D01*
X037336Y012201D01*
X037238Y012061D01*
X037153Y011914D01*
X037081Y011759D01*
X037023Y011599D01*
X036978Y011434D01*
X036949Y011267D01*
X036934Y011097D01*
X036934Y011092D01*
X038805Y011092D01*
X038805Y010932D01*
X036934Y010932D01*
X036934Y010926D01*
X036949Y010757D01*
X036978Y010589D01*
X037023Y010424D01*
X037081Y010264D01*
X037153Y010110D01*
X037238Y009962D01*
X037336Y009822D01*
X037413Y009730D02*
X033829Y009730D01*
X033829Y009572D02*
X037565Y009572D01*
X037766Y009413D02*
X033829Y009413D01*
X033829Y009255D02*
X038035Y009255D01*
X038509Y009096D02*
X033829Y009096D01*
X033829Y008938D02*
X061135Y008938D01*
X061135Y009096D02*
X060207Y009096D01*
X059910Y009096D02*
X059751Y009096D01*
X059751Y009255D02*
X059910Y009255D01*
X059910Y009413D02*
X059751Y009413D01*
X059751Y009572D02*
X059910Y009572D01*
X059910Y009730D02*
X059751Y009730D01*
X059751Y009889D02*
X059910Y009889D01*
X059910Y010048D02*
X059751Y010048D01*
X059751Y010206D02*
X059910Y010206D01*
X059910Y010365D02*
X059751Y010365D01*
X059751Y010523D02*
X059910Y010523D01*
X059910Y010682D02*
X059751Y010682D01*
X059751Y010840D02*
X059910Y010840D01*
X059750Y010999D02*
X046840Y010999D01*
X046840Y010932D02*
X046840Y011092D01*
X048711Y011092D01*
X048711Y011097D01*
X048696Y011267D01*
X048667Y011434D01*
X048623Y011599D01*
X048564Y011759D01*
X048492Y011914D01*
X048407Y012061D01*
X048309Y012201D01*
X048200Y012331D01*
X048079Y012452D01*
X047949Y012561D01*
X047809Y012659D01*
X047662Y012744D01*
X047507Y012816D01*
X047347Y012875D01*
X047182Y012919D01*
X047015Y012948D01*
X046845Y012963D01*
X046840Y012963D01*
X046840Y011092D01*
X046680Y011092D01*
X046680Y012963D01*
X046674Y012963D01*
X046505Y012948D01*
X046337Y012919D01*
X046172Y012875D01*
X046012Y012816D01*
X045858Y012744D01*
X045710Y012659D01*
X045570Y012561D01*
X045440Y012452D01*
X045319Y012331D01*
X045210Y012201D01*
X045112Y012061D01*
X045027Y011914D01*
X044955Y011759D01*
X044897Y011599D01*
X044852Y011434D01*
X044823Y011267D01*
X044808Y011097D01*
X044808Y011092D01*
X046679Y011092D01*
X046679Y010932D01*
X044808Y010932D01*
X044808Y010926D01*
X044823Y010757D01*
X044852Y010589D01*
X044897Y010424D01*
X044955Y010264D01*
X045027Y010110D01*
X045112Y009962D01*
X045210Y009822D01*
X045319Y009692D01*
X045440Y009571D01*
X045570Y009462D01*
X045710Y009364D01*
X045858Y009279D01*
X046012Y009207D01*
X046172Y009149D01*
X046337Y009104D01*
X046505Y009075D01*
X046674Y009060D01*
X046680Y009060D01*
X046680Y010931D01*
X046840Y010931D01*
X046840Y009060D01*
X046845Y009060D01*
X047015Y009075D01*
X047182Y009104D01*
X047347Y009149D01*
X047507Y009207D01*
X047662Y009279D01*
X047809Y009364D01*
X047949Y009462D01*
X048079Y009571D01*
X048200Y009692D01*
X048309Y009822D01*
X048407Y009962D01*
X048492Y010110D01*
X048564Y010264D01*
X048623Y010424D01*
X048667Y010589D01*
X048696Y010757D01*
X048711Y010926D01*
X048711Y010932D01*
X046840Y010932D01*
X046840Y010840D02*
X046680Y010840D01*
X046680Y010682D02*
X046840Y010682D01*
X046840Y010523D02*
X046680Y010523D01*
X046680Y010365D02*
X046840Y010365D01*
X046840Y010206D02*
X046680Y010206D01*
X046680Y010048D02*
X046840Y010048D01*
X046840Y009889D02*
X046680Y009889D01*
X046680Y009730D02*
X046840Y009730D01*
X046840Y009572D02*
X046680Y009572D01*
X046680Y009413D02*
X046840Y009413D01*
X046840Y009255D02*
X046680Y009255D01*
X046680Y009096D02*
X046840Y009096D01*
X047136Y009096D02*
X059454Y009096D01*
X058980Y009255D02*
X047610Y009255D01*
X047880Y009413D02*
X058710Y009413D01*
X058510Y009572D02*
X048080Y009572D01*
X048232Y009730D02*
X058358Y009730D01*
X058234Y009889D02*
X048356Y009889D01*
X048457Y010048D02*
X058134Y010048D01*
X058053Y010206D02*
X048537Y010206D01*
X048601Y010365D02*
X057989Y010365D01*
X057941Y010523D02*
X048649Y010523D01*
X048683Y010682D02*
X057907Y010682D01*
X057886Y010840D02*
X048704Y010840D01*
X048706Y011157D02*
X057884Y011157D01*
X057902Y011316D02*
X048688Y011316D01*
X048656Y011474D02*
X057934Y011474D01*
X057980Y011633D02*
X048610Y011633D01*
X048549Y011792D02*
X058041Y011792D01*
X058119Y011950D02*
X048471Y011950D01*
X048374Y012109D02*
X058216Y012109D01*
X058336Y012267D02*
X048254Y012267D01*
X048106Y012426D02*
X058485Y012426D01*
X058674Y012584D02*
X047916Y012584D01*
X047665Y012743D02*
X058926Y012743D01*
X059342Y012901D02*
X047248Y012901D01*
X046840Y012901D02*
X046680Y012901D01*
X046680Y012743D02*
X046840Y012743D01*
X046840Y012584D02*
X046680Y012584D01*
X046680Y012426D02*
X046840Y012426D01*
X046840Y012267D02*
X046680Y012267D01*
X046680Y012109D02*
X046840Y012109D01*
X046840Y011950D02*
X046680Y011950D01*
X046680Y011792D02*
X046840Y011792D01*
X046840Y011633D02*
X046680Y011633D01*
X046680Y011474D02*
X046840Y011474D01*
X046840Y011316D02*
X046680Y011316D01*
X046680Y011157D02*
X046840Y011157D01*
X046679Y010999D02*
X042903Y010999D01*
X042903Y010932D02*
X042903Y011092D01*
X044774Y011092D01*
X044774Y011097D01*
X044759Y011267D01*
X044730Y011434D01*
X044686Y011599D01*
X044627Y011759D01*
X044555Y011914D01*
X044470Y012061D01*
X044372Y012201D01*
X044263Y012331D01*
X044142Y012452D01*
X044012Y012561D01*
X043872Y012659D01*
X043725Y012744D01*
X043570Y012816D01*
X043410Y012875D01*
X043245Y012919D01*
X043078Y012948D01*
X042908Y012963D01*
X042903Y012963D01*
X042903Y011092D01*
X042743Y011092D01*
X042743Y012963D01*
X042737Y012963D01*
X042568Y012948D01*
X042400Y012919D01*
X042235Y012875D01*
X042075Y012816D01*
X041921Y012744D01*
X041773Y012659D01*
X041633Y012561D01*
X041503Y012452D01*
X041382Y012331D01*
X041273Y012201D01*
X041175Y012061D01*
X041090Y011914D01*
X041018Y011759D01*
X040960Y011599D01*
X040915Y011434D01*
X040886Y011267D01*
X040871Y011097D01*
X040871Y011092D01*
X042742Y011092D01*
X042742Y010932D01*
X040871Y010932D01*
X040871Y010926D01*
X040886Y010757D01*
X040915Y010589D01*
X040960Y010424D01*
X041018Y010264D01*
X041090Y010110D01*
X041175Y009962D01*
X041273Y009822D01*
X041382Y009692D01*
X041503Y009571D01*
X041633Y009462D01*
X041773Y009364D01*
X041921Y009279D01*
X042075Y009207D01*
X042235Y009149D01*
X042400Y009104D01*
X042568Y009075D01*
X042737Y009060D01*
X042743Y009060D01*
X042743Y010931D01*
X042903Y010931D01*
X042903Y009060D01*
X042908Y009060D01*
X043078Y009075D01*
X043245Y009104D01*
X043410Y009149D01*
X043570Y009207D01*
X043725Y009279D01*
X043872Y009364D01*
X044012Y009462D01*
X044142Y009571D01*
X044263Y009692D01*
X044372Y009822D01*
X044470Y009962D01*
X044555Y010110D01*
X044627Y010264D01*
X044686Y010424D01*
X044730Y010589D01*
X044759Y010757D01*
X044774Y010926D01*
X044774Y010932D01*
X042903Y010932D01*
X042903Y010840D02*
X042743Y010840D01*
X042743Y010682D02*
X042903Y010682D01*
X042903Y010523D02*
X042743Y010523D01*
X042743Y010365D02*
X042903Y010365D01*
X042903Y010206D02*
X042743Y010206D01*
X042743Y010048D02*
X042903Y010048D01*
X042903Y009889D02*
X042743Y009889D01*
X042743Y009730D02*
X042903Y009730D01*
X042903Y009572D02*
X042743Y009572D01*
X042743Y009413D02*
X042903Y009413D01*
X042903Y009255D02*
X042743Y009255D01*
X042743Y009096D02*
X042903Y009096D01*
X043199Y009096D02*
X046383Y009096D01*
X045909Y009255D02*
X043673Y009255D01*
X043943Y009413D02*
X045640Y009413D01*
X045439Y009572D02*
X044143Y009572D01*
X044295Y009730D02*
X045287Y009730D01*
X045163Y009889D02*
X044419Y009889D01*
X044520Y010048D02*
X045063Y010048D01*
X044982Y010206D02*
X044600Y010206D01*
X044664Y010365D02*
X044918Y010365D01*
X044870Y010523D02*
X044712Y010523D01*
X044746Y010682D02*
X044836Y010682D01*
X044816Y010840D02*
X044767Y010840D01*
X044769Y011157D02*
X044813Y011157D01*
X044832Y011316D02*
X044751Y011316D01*
X044719Y011474D02*
X044863Y011474D01*
X044909Y011633D02*
X044673Y011633D01*
X044612Y011792D02*
X044970Y011792D01*
X045048Y011950D02*
X044534Y011950D01*
X044437Y012109D02*
X045145Y012109D01*
X045266Y012267D02*
X044317Y012267D01*
X044169Y012426D02*
X045414Y012426D01*
X045603Y012584D02*
X043979Y012584D01*
X043728Y012743D02*
X045855Y012743D01*
X046272Y012901D02*
X043311Y012901D01*
X042903Y012901D02*
X042743Y012901D01*
X042743Y012743D02*
X042903Y012743D01*
X042903Y012584D02*
X042743Y012584D01*
X042743Y012426D02*
X042903Y012426D01*
X042903Y012267D02*
X042743Y012267D01*
X042743Y012109D02*
X042903Y012109D01*
X042903Y011950D02*
X042743Y011950D01*
X042743Y011792D02*
X042903Y011792D01*
X042903Y011633D02*
X042743Y011633D01*
X042743Y011474D02*
X042903Y011474D01*
X042903Y011316D02*
X042743Y011316D01*
X042743Y011157D02*
X042903Y011157D01*
X042742Y010999D02*
X038966Y010999D01*
X038966Y011157D02*
X038806Y011157D01*
X038805Y010999D02*
X032805Y010999D01*
X032647Y011157D02*
X036939Y011157D01*
X036958Y011316D02*
X032488Y011316D01*
X032329Y011474D02*
X036989Y011474D01*
X037035Y011633D02*
X032171Y011633D01*
X032012Y011792D02*
X037096Y011792D01*
X037174Y011950D02*
X031854Y011950D01*
X031695Y012109D02*
X037271Y012109D01*
X037391Y012267D02*
X031537Y012267D01*
X031535Y012269D02*
X031549Y012269D01*
X031696Y012330D01*
X033585Y014219D01*
X035493Y014219D01*
X035610Y014268D01*
X035700Y014358D01*
X035749Y014476D01*
X035749Y016603D01*
X035700Y016720D01*
X035610Y016810D01*
X035493Y016859D01*
X024365Y016859D01*
X024248Y016810D01*
X024158Y016720D01*
X024109Y016603D01*
X024109Y015516D01*
X024069Y015556D01*
X024069Y018264D01*
X024008Y018411D01*
X023896Y018524D01*
X023896Y018524D01*
X022038Y020381D01*
X021926Y020494D01*
X021779Y020555D01*
X010739Y020555D01*
X010580Y020555D01*
X010433Y020494D01*
X009514Y019575D01*
X009401Y019462D01*
X009340Y019315D01*
X009340Y019303D01*
X008496Y019303D01*
X008379Y019255D01*
X008289Y019165D01*
X008240Y019047D01*
X008240Y016520D01*
X008289Y016402D01*
X008379Y016312D01*
X008496Y016263D01*
X009880Y016263D01*
X009880Y015667D01*
X009798Y015584D01*
X009713Y015380D01*
X009713Y015158D01*
X009798Y014954D01*
X009954Y014798D01*
X010158Y014713D01*
X010380Y014713D01*
X010584Y014798D01*
X010741Y014954D01*
X010819Y015144D01*
X010898Y014954D01*
X011054Y014798D01*
X011258Y014713D01*
X011480Y014713D01*
X011684Y014798D01*
X011841Y014954D01*
X011919Y015144D01*
X011998Y014954D01*
X012154Y014798D01*
X012358Y014713D01*
X012580Y014713D01*
X012784Y014798D01*
X012941Y014954D01*
X012969Y015023D01*
X012998Y014954D01*
X013154Y014798D01*
X013358Y014713D01*
X013580Y014713D01*
X013784Y014798D01*
X013941Y014954D01*
X014025Y015158D01*
X014025Y015380D01*
X013941Y015584D01*
X013920Y015605D01*
X013920Y016263D01*
X017464Y016263D01*
X017581Y016312D01*
X017671Y016402D01*
X017720Y016520D01*
X017720Y018769D01*
X018891Y018769D01*
X018856Y018747D01*
X018753Y018665D01*
X018659Y018571D01*
X018576Y018467D01*
X018506Y018355D01*
X018448Y018236D01*
X018404Y018110D01*
X018375Y017981D01*
X018362Y017863D01*
X019460Y017863D01*
X019460Y017703D01*
X019620Y017703D01*
X019620Y016605D01*
X019738Y016618D01*
X019867Y016648D01*
X019992Y016691D01*
X020112Y016749D01*
X020224Y016819D01*
X020328Y016902D01*
X020421Y016996D01*
X020504Y017099D01*
X020575Y017212D01*
X020632Y017331D01*
X020676Y017456D01*
X020705Y017585D01*
X020719Y017703D01*
X019620Y017703D01*
X019620Y017863D01*
X020719Y017863D01*
X020705Y017981D01*
X020676Y018110D01*
X020632Y018236D01*
X020575Y018355D01*
X020504Y018467D01*
X020421Y018571D01*
X020328Y018665D01*
X020224Y018747D01*
X020189Y018769D01*
X020503Y018769D01*
X021269Y018003D01*
X021269Y015556D01*
X021198Y015484D01*
X021113Y015280D01*
X021113Y015058D01*
X021198Y014854D01*
X021269Y014783D01*
X021269Y014090D01*
X021330Y013943D01*
X021443Y013830D01*
X022804Y012469D01*
X016002Y012469D01*
X015963Y012508D01*
X015772Y012587D01*
X015566Y012587D01*
X015376Y012508D01*
X015230Y012363D01*
X015151Y012172D01*
X015151Y012081D01*
X014976Y012008D01*
X014830Y011863D01*
X014751Y011672D01*
X014751Y011469D01*
X014102Y011469D01*
X014063Y011508D01*
X013872Y011587D01*
X013666Y011587D01*
X013476Y011508D01*
X013330Y011363D01*
X013251Y011172D01*
X013251Y010966D01*
X013330Y010776D01*
X013476Y010630D01*
X013666Y010551D01*
X013872Y010551D01*
X014063Y010630D01*
X014102Y010669D01*
X014751Y010669D01*
X014751Y010466D01*
X014830Y010276D01*
X014976Y010130D01*
X015166Y010051D01*
X015372Y010051D01*
X015563Y010130D01*
X015602Y010169D01*
X028966Y010169D01*
X028909Y010032D01*
X028909Y008689D01*
X020066Y008689D01*
X019875Y008610D01*
X019728Y008464D01*
X019271Y008007D01*
X019192Y007816D01*
X019192Y007609D01*
X019192Y007491D01*
X019126Y007425D01*
X019086Y007329D01*
X017252Y007329D01*
X017090Y007262D01*
X016966Y007138D01*
X015550Y005722D01*
X015550Y005881D01*
X015501Y005999D01*
X015411Y006089D01*
X015294Y006138D01*
X014976Y006138D01*
X014924Y006159D01*
X013431Y006159D01*
X013430Y006162D01*
X013430Y007733D01*
X013460Y007806D01*
X013460Y008064D01*
X013361Y008303D01*
X013178Y008486D01*
X012939Y008585D01*
X012680Y008585D01*
X012441Y008486D01*
X012259Y008303D01*
X012160Y008064D01*
X012160Y007806D01*
X012190Y007733D01*
X012190Y006184D01*
X012178Y006156D01*
X012162Y006184D01*
X012128Y006217D01*
X012087Y006241D01*
X012041Y006253D01*
X011780Y006253D01*
X011780Y005797D01*
X011625Y005797D01*
X011625Y006253D01*
X011364Y006253D01*
X011318Y006241D01*
X011277Y006217D01*
X011244Y006184D01*
X011220Y006143D01*
X011208Y006097D01*
X011208Y005797D01*
X011625Y005797D01*
X011625Y005642D01*
X011208Y005642D01*
X011208Y005341D01*
X011220Y005295D01*
X011244Y005254D01*
X011277Y005221D01*
X011318Y005197D01*
X011364Y005185D01*
X011625Y005185D01*
X011625Y005641D01*
X011780Y005641D01*
X011780Y005185D01*
X012041Y005185D01*
X012087Y005197D01*
X012128Y005221D01*
X012162Y005254D01*
X012178Y005282D01*
X012219Y005184D01*
X012309Y005094D01*
X012426Y005045D01*
X012529Y005045D01*
X012529Y003932D01*
X012596Y003770D01*
X012720Y003646D01*
X013036Y003330D01*
X013197Y003263D01*
X013372Y003263D01*
X014924Y003263D01*
X014976Y003285D01*
X015294Y003285D01*
X015411Y003334D01*
X015501Y003424D01*
X015550Y003541D01*
X015550Y003766D01*
X015872Y003444D01*
X015872Y002968D01*
X015816Y002945D01*
X015726Y002855D01*
X015677Y002737D01*
X015677Y001901D01*
X015726Y001784D01*
X015816Y001694D01*
X015934Y001645D01*
X016691Y001645D01*
X016808Y001694D01*
X016898Y001784D01*
X016939Y001882D01*
X016956Y001854D01*
X016989Y001821D01*
X017030Y001797D01*
X017076Y001785D01*
X017337Y001785D01*
X017337Y002241D01*
X017492Y002241D01*
X017492Y001785D01*
X017753Y001785D01*
X017799Y001797D01*
X017909Y001962D02*
X025594Y001962D01*
X025487Y002120D02*
X017909Y002120D01*
X017909Y002397D02*
X017492Y002397D01*
X017492Y002853D01*
X017753Y002853D01*
X017799Y002841D01*
X017840Y002817D01*
X017874Y002784D01*
X017897Y002743D01*
X017909Y002697D01*
X017909Y002397D01*
X017909Y002437D02*
X025331Y002437D01*
X025278Y002596D02*
X017909Y002596D01*
X017891Y002755D02*
X025239Y002755D01*
X025214Y002913D02*
X016840Y002913D01*
X016752Y003072D02*
X027073Y003072D01*
X027073Y003230D02*
X027233Y003230D01*
X027234Y003218D02*
X029105Y003218D01*
X030865Y003218D01*
X030865Y003058D01*
X029105Y003058D01*
X027234Y003058D01*
X027234Y003218D01*
X027234Y003072D02*
X030865Y003072D01*
X030865Y003230D02*
X031025Y003230D01*
X031025Y003072D02*
X038645Y003072D01*
X038645Y002971D02*
X038648Y002940D01*
X038654Y002909D01*
X038663Y002879D01*
X038675Y002850D01*
X038690Y002822D01*
X038708Y002796D01*
X038728Y002772D01*
X038750Y002750D01*
X038774Y002730D01*
X038800Y002712D01*
X038828Y002697D01*
X038857Y002685D01*
X038887Y002676D01*
X038918Y002670D01*
X038949Y002667D01*
X041047Y002667D01*
X041078Y002670D01*
X041109Y002676D01*
X041139Y002685D01*
X041168Y002697D01*
X041196Y002712D01*
X041222Y002730D01*
X041246Y002750D01*
X041268Y002772D01*
X041288Y002796D01*
X041306Y002822D01*
X041321Y002850D01*
X041333Y002879D01*
X041342Y002909D01*
X041348Y002940D01*
X041351Y002971D01*
X041351Y004169D01*
X041348Y004201D01*
X041342Y004231D01*
X041333Y004262D01*
X041321Y004291D01*
X041306Y004318D01*
X041288Y004344D01*
X041268Y004369D01*
X041246Y004391D01*
X041222Y004411D01*
X041196Y004428D01*
X041168Y004443D01*
X041139Y004455D01*
X041109Y004464D01*
X041078Y004471D01*
X041047Y004474D01*
X038949Y004474D01*
X038918Y004471D01*
X038887Y004464D01*
X038857Y004455D01*
X038828Y004443D01*
X038800Y004428D01*
X038774Y004411D01*
X038750Y004391D01*
X038728Y004369D01*
X038708Y004344D01*
X038690Y004318D01*
X038675Y004291D01*
X038663Y004262D01*
X038654Y004231D01*
X038648Y004201D01*
X038645Y004169D01*
X038645Y002971D01*
X038653Y002913D02*
X032884Y002913D01*
X032859Y002755D02*
X038745Y002755D01*
X038645Y003230D02*
X032896Y003230D01*
X032882Y003389D02*
X038645Y003389D01*
X038645Y003547D02*
X032854Y003547D01*
X032813Y003706D02*
X038645Y003706D01*
X038645Y003864D02*
X032757Y003864D01*
X032685Y004023D02*
X038645Y004023D01*
X038646Y004181D02*
X032596Y004181D01*
X032484Y004340D02*
X038705Y004340D01*
X041291Y004340D02*
X042937Y004340D01*
X042825Y004181D02*
X041350Y004181D01*
X041351Y004023D02*
X042736Y004023D01*
X042664Y003864D02*
X041351Y003864D01*
X041351Y003706D02*
X042608Y003706D01*
X042567Y003547D02*
X041351Y003547D01*
X041351Y003389D02*
X042539Y003389D01*
X042525Y003230D02*
X041351Y003230D01*
X041351Y003072D02*
X044396Y003072D01*
X044396Y003230D02*
X044556Y003230D01*
X044556Y003072D02*
X051184Y003072D01*
X051184Y003230D02*
X046427Y003230D01*
X046413Y003389D02*
X051184Y003389D01*
X051184Y003547D02*
X046386Y003547D01*
X046344Y003706D02*
X051184Y003706D01*
X051184Y003864D02*
X046289Y003864D01*
X046217Y004023D02*
X051184Y004023D01*
X051184Y004181D02*
X046127Y004181D01*
X046015Y004340D02*
X051209Y004340D01*
X051232Y004398D02*
X051184Y004280D01*
X051184Y002153D01*
X051232Y002035D01*
X051322Y001945D01*
X051440Y001896D01*
X056567Y001896D01*
X056685Y001945D01*
X056775Y002035D01*
X056824Y002153D01*
X056824Y004280D01*
X056775Y004398D01*
X056685Y004488D01*
X056567Y004536D01*
X051440Y004536D01*
X051322Y004488D01*
X051232Y004398D01*
X051349Y004499D02*
X045875Y004499D01*
X045702Y004657D02*
X061361Y004657D01*
X061187Y004499D02*
X056659Y004499D01*
X056799Y004340D02*
X061048Y004340D01*
X060936Y004181D02*
X056824Y004181D01*
X056824Y004023D02*
X060846Y004023D01*
X060774Y003864D02*
X056824Y003864D01*
X056824Y003706D02*
X060718Y003706D01*
X060677Y003547D02*
X056824Y003547D01*
X056824Y003389D02*
X060649Y003389D01*
X060635Y003230D02*
X056824Y003230D01*
X056824Y003072D02*
X062506Y003072D01*
X062506Y003230D02*
X062666Y003230D01*
X062666Y003389D02*
X062506Y003389D01*
X062506Y003547D02*
X062666Y003547D01*
X062666Y003706D02*
X062506Y003706D01*
X062506Y003864D02*
X062666Y003864D01*
X062666Y004023D02*
X062506Y004023D01*
X062506Y004181D02*
X062666Y004181D01*
X062666Y004340D02*
X062506Y004340D01*
X062506Y004499D02*
X062666Y004499D01*
X062666Y004657D02*
X062506Y004657D01*
X062506Y004816D02*
X062666Y004816D01*
X062666Y004974D02*
X062506Y004974D01*
X061926Y004974D02*
X045137Y004974D01*
X045473Y004816D02*
X061590Y004816D01*
X063247Y004974D02*
X064415Y004974D01*
X064415Y004816D02*
X063583Y004816D01*
X063812Y004657D02*
X064415Y004657D01*
X064415Y004499D02*
X063986Y004499D01*
X064125Y004340D02*
X064415Y004340D01*
X064415Y004181D02*
X064237Y004181D01*
X064327Y004023D02*
X064415Y004023D01*
X064399Y003864D02*
X064415Y003864D01*
X064415Y005133D02*
X018166Y005133D01*
X018166Y005291D02*
X024169Y005291D01*
X024109Y005450D02*
X018100Y005450D01*
X018097Y005454D02*
X018056Y005477D01*
X018010Y005490D01*
X017672Y005490D01*
X017672Y004799D01*
X017512Y004799D01*
X017512Y004639D01*
X017019Y004639D01*
X017019Y004105D01*
X017031Y004059D01*
X017055Y004018D01*
X017088Y003985D01*
X017129Y003961D01*
X017175Y003949D01*
X017512Y003949D01*
X017512Y004639D01*
X017672Y004639D01*
X017672Y003949D01*
X018010Y003949D01*
X018056Y003961D01*
X018097Y003985D01*
X018130Y004018D01*
X018154Y004059D01*
X018166Y004105D01*
X018166Y004639D01*
X017672Y004639D01*
X017672Y004799D01*
X018166Y004799D01*
X018166Y005333D01*
X018154Y005379D01*
X018130Y005420D01*
X018097Y005454D01*
X017672Y005450D02*
X017512Y005450D01*
X017512Y005490D02*
X017175Y005490D01*
X017129Y005477D01*
X017088Y005454D01*
X017055Y005420D01*
X017031Y005379D01*
X017019Y005333D01*
X017019Y004799D01*
X017512Y004799D01*
X017512Y005490D01*
X017512Y005291D02*
X017672Y005291D01*
X017672Y005133D02*
X017512Y005133D01*
X017512Y004974D02*
X017672Y004974D01*
X017672Y004816D02*
X017512Y004816D01*
X017512Y004657D02*
X015410Y004657D01*
X015410Y004735D02*
X014837Y004735D01*
X015410Y004735D01*
X015834Y004816D02*
X017019Y004816D01*
X017019Y004974D02*
X016046Y004974D01*
X016205Y005133D02*
X017019Y005133D01*
X017019Y005291D02*
X016364Y005291D01*
X016522Y005450D02*
X017084Y005450D01*
X016681Y005608D02*
X024109Y005608D01*
X024109Y005767D02*
X016839Y005767D01*
X016998Y005925D02*
X024109Y005925D01*
X024109Y006084D02*
X017156Y006084D01*
X017315Y006243D02*
X019267Y006243D01*
X019106Y006401D02*
X017473Y006401D01*
X016546Y006718D02*
X013430Y006718D01*
X013430Y006560D02*
X016387Y006560D01*
X016229Y006401D02*
X013430Y006401D01*
X013430Y006243D02*
X016070Y006243D01*
X015912Y006084D02*
X015416Y006084D01*
X015532Y005925D02*
X015753Y005925D01*
X015595Y005767D02*
X015550Y005767D01*
X014123Y005279D02*
X014123Y005065D01*
X014171Y004947D01*
X014261Y004857D01*
X014263Y004857D01*
X014263Y004735D01*
X014836Y004735D01*
X014836Y004735D01*
X014263Y004735D01*
X014263Y004613D01*
X014270Y004585D01*
X014261Y004581D01*
X014171Y004491D01*
X014123Y004373D01*
X014123Y004143D01*
X013467Y004143D01*
X013409Y004201D01*
X013409Y005226D01*
X013431Y005279D01*
X014123Y005279D01*
X014123Y005133D02*
X013409Y005133D01*
X013409Y004974D02*
X014160Y004974D01*
X014263Y004816D02*
X013409Y004816D01*
X013409Y004657D02*
X014263Y004657D01*
X014179Y004499D02*
X013409Y004499D01*
X013409Y004340D02*
X014123Y004340D01*
X014123Y004181D02*
X013429Y004181D01*
X012529Y004181D02*
X004789Y004181D01*
X004878Y004023D02*
X012529Y004023D01*
X012557Y003864D02*
X004950Y003864D01*
X005006Y003706D02*
X012660Y003706D01*
X012819Y003547D02*
X005047Y003547D01*
X005075Y003389D02*
X012977Y003389D01*
X012529Y004340D02*
X004676Y004340D01*
X004537Y004499D02*
X012529Y004499D01*
X012529Y004657D02*
X004363Y004657D01*
X004135Y004816D02*
X012529Y004816D01*
X012529Y004974D02*
X003798Y004974D01*
X003218Y004974D02*
X003058Y004974D01*
X003058Y004816D02*
X003218Y004816D01*
X003218Y004657D02*
X003058Y004657D01*
X003058Y004499D02*
X003218Y004499D01*
X003218Y004340D02*
X003058Y004340D01*
X003058Y004181D02*
X003218Y004181D01*
X003218Y004023D02*
X003058Y004023D01*
X003058Y003864D02*
X003218Y003864D01*
X003218Y003706D02*
X003058Y003706D01*
X003058Y003547D02*
X003218Y003547D01*
X003218Y003389D02*
X003058Y003389D01*
X003058Y003230D02*
X003218Y003230D01*
X003218Y003072D02*
X015872Y003072D01*
X015872Y003230D02*
X005089Y003230D01*
X005077Y002913D02*
X015784Y002913D01*
X015684Y002755D02*
X005052Y002755D01*
X005013Y002596D02*
X015677Y002596D01*
X015677Y002437D02*
X004960Y002437D01*
X004891Y002279D02*
X015677Y002279D01*
X015677Y002120D02*
X004804Y002120D01*
X004697Y001962D02*
X015677Y001962D01*
X015718Y001803D02*
X004563Y001803D01*
X001325Y003864D02*
X001309Y003864D01*
X001309Y004023D02*
X001397Y004023D01*
X001309Y004181D02*
X001487Y004181D01*
X001599Y004340D02*
X001309Y004340D01*
X001309Y004499D02*
X001739Y004499D01*
X001912Y004657D02*
X001309Y004657D01*
X001309Y004816D02*
X002141Y004816D01*
X002477Y004974D02*
X001309Y004974D01*
X001309Y005133D02*
X012270Y005133D01*
X011780Y005291D02*
X011625Y005291D01*
X011625Y005450D02*
X011780Y005450D01*
X011780Y005608D02*
X011625Y005608D01*
X011625Y005767D02*
X001309Y005767D01*
X001309Y005925D02*
X011208Y005925D01*
X011208Y006084D02*
X001309Y006084D01*
X001309Y006243D02*
X011323Y006243D01*
X011625Y006243D02*
X011780Y006243D01*
X011780Y006084D02*
X011625Y006084D01*
X011625Y005925D02*
X011780Y005925D01*
X012082Y006243D02*
X012190Y006243D01*
X012190Y006401D02*
X007298Y006401D01*
X007249Y006381D02*
X007367Y006429D01*
X007457Y006519D01*
X007463Y006535D01*
X009853Y006535D01*
X010060Y006535D01*
X010251Y006614D01*
X012308Y008671D01*
X019473Y008671D01*
X019664Y008750D01*
X019810Y008896D01*
X019889Y009087D01*
X019889Y009294D01*
X019810Y009485D01*
X019664Y009632D01*
X019473Y009711D01*
X011989Y009711D01*
X011798Y009632D01*
X011652Y009485D01*
X010905Y008739D01*
X010905Y009385D01*
X010856Y009503D01*
X010766Y009593D01*
X010667Y009634D01*
X010695Y009650D01*
X010729Y009683D01*
X010752Y009724D01*
X010765Y009770D01*
X010765Y010031D01*
X010308Y010031D01*
X010308Y010186D01*
X010765Y010186D01*
X010765Y010448D01*
X010752Y010493D01*
X010729Y010534D01*
X010695Y010568D01*
X010654Y010592D01*
X010609Y010604D01*
X010308Y010604D01*
X010308Y010187D01*
X010153Y010187D01*
X010153Y010604D01*
X009852Y010604D01*
X009807Y010592D01*
X009766Y010568D01*
X009732Y010534D01*
X009708Y010493D01*
X009696Y010448D01*
X009696Y010186D01*
X010153Y010186D01*
X010153Y010031D01*
X009696Y010031D01*
X009696Y009770D01*
X009708Y009724D01*
X009732Y009683D01*
X009766Y009650D01*
X009794Y009634D01*
X009695Y009593D01*
X009605Y009503D01*
X009582Y009446D01*
X008414Y009446D01*
X008327Y009534D01*
X008327Y009649D01*
X008557Y009649D01*
X008675Y009697D01*
X008765Y009787D01*
X008813Y009905D01*
X008813Y010242D01*
X008829Y010280D01*
X008829Y011143D01*
X008901Y011215D01*
X012631Y011215D01*
X012838Y011215D01*
X013029Y011294D01*
X016354Y014619D01*
X016398Y014619D01*
X016637Y014718D01*
X016820Y014901D01*
X016919Y015140D01*
X016919Y015398D01*
X016820Y015637D01*
X016637Y015820D01*
X016398Y015919D01*
X016140Y015919D01*
X015901Y015820D01*
X015718Y015637D01*
X015619Y015398D01*
X015619Y015354D01*
X012519Y012255D01*
X008696Y012255D01*
X008505Y012176D01*
X008358Y012029D01*
X008279Y011838D01*
X008279Y011837D01*
X008140Y011698D01*
X008016Y011574D01*
X007949Y011412D01*
X007949Y011076D01*
X007725Y011076D01*
X007607Y011027D01*
X007517Y010937D01*
X007514Y010928D01*
X007486Y010936D01*
X007364Y010936D01*
X007364Y010363D01*
X007363Y010363D01*
X007363Y010936D01*
X007241Y010936D01*
X007241Y010937D01*
X007151Y011027D01*
X007033Y011076D01*
X006819Y011076D01*
X006819Y011512D01*
X006752Y011674D01*
X006628Y011798D01*
X006148Y012278D01*
X005987Y012345D01*
X005812Y012345D01*
X004916Y012345D01*
X004877Y012440D01*
X004787Y012530D01*
X004669Y012579D01*
X003912Y012579D01*
X003794Y012530D01*
X003704Y012440D01*
X003663Y012342D01*
X003647Y012370D01*
X003613Y012403D01*
X003572Y012427D01*
X003527Y012439D01*
X003265Y012439D01*
X003265Y011983D01*
X003110Y011983D01*
X003110Y012439D01*
X002849Y012439D01*
X002804Y012427D01*
X002762Y012403D01*
X002729Y012370D01*
X002705Y012329D01*
X002693Y012283D01*
X002693Y011982D01*
X003110Y011982D01*
X003110Y011827D01*
X002693Y011827D01*
X002693Y011527D01*
X002705Y011481D01*
X002729Y011440D01*
X002762Y011406D01*
X002804Y011383D01*
X002849Y011371D01*
X003110Y011371D01*
X003110Y011827D01*
X003265Y011827D01*
X003265Y011371D01*
X003527Y011371D01*
X003572Y011383D01*
X003613Y011406D01*
X003647Y011440D01*
X003663Y011468D01*
X003669Y011454D01*
X003669Y008137D01*
X003639Y008064D01*
X003639Y007806D01*
X003738Y007567D01*
X003921Y007384D01*
X004160Y007285D01*
X004418Y007285D01*
X004657Y007384D01*
X004840Y007567D01*
X004939Y007806D01*
X004939Y008064D01*
X004909Y008137D01*
X004909Y011448D01*
X004916Y011465D01*
X005717Y011465D01*
X005939Y011243D01*
X005939Y010275D01*
X005961Y010223D01*
X005961Y009905D01*
X006009Y009787D01*
X006099Y009697D01*
X006217Y009649D01*
X006430Y009649D01*
X006430Y007704D01*
X006374Y007680D01*
X006284Y007590D01*
X006243Y007492D01*
X006227Y007520D01*
X006193Y007553D01*
X006152Y007577D01*
X006107Y007589D01*
X005845Y007589D01*
X005845Y007133D01*
X005690Y007133D01*
X005690Y007589D01*
X005429Y007589D01*
X005384Y007577D01*
X005342Y007553D01*
X005309Y007520D01*
X005285Y007479D01*
X005273Y007433D01*
X005273Y007132D01*
X005690Y007132D01*
X005690Y006977D01*
X005273Y006977D01*
X005273Y006677D01*
X005285Y006631D01*
X005309Y006590D01*
X005342Y006556D01*
X005384Y006533D01*
X005429Y006521D01*
X005690Y006521D01*
X005690Y006977D01*
X005845Y006977D01*
X005845Y006521D01*
X006107Y006521D01*
X006152Y006533D01*
X006193Y006556D01*
X006227Y006590D01*
X006243Y006618D01*
X006284Y006519D01*
X006374Y006429D01*
X006492Y006381D01*
X007249Y006381D01*
X006442Y006401D02*
X001309Y006401D01*
X001309Y006560D02*
X005339Y006560D01*
X005273Y006718D02*
X001309Y006718D01*
X001309Y006877D02*
X005273Y006877D01*
X005273Y007194D02*
X001309Y007194D01*
X001309Y007352D02*
X003997Y007352D01*
X003794Y007511D02*
X001309Y007511D01*
X001309Y007669D02*
X003696Y007669D01*
X003639Y007828D02*
X001309Y007828D01*
X001309Y007986D02*
X003639Y007986D01*
X003669Y008145D02*
X001309Y008145D01*
X001309Y008304D02*
X003669Y008304D01*
X003669Y008462D02*
X001309Y008462D01*
X001309Y008621D02*
X003669Y008621D01*
X003669Y008779D02*
X001309Y008779D01*
X001309Y008938D02*
X003669Y008938D01*
X003669Y009096D02*
X001309Y009096D01*
X001309Y009255D02*
X003669Y009255D01*
X003669Y009413D02*
X001309Y009413D01*
X001309Y009572D02*
X003669Y009572D01*
X003669Y009730D02*
X001309Y009730D01*
X001309Y009889D02*
X003669Y009889D01*
X003669Y010048D02*
X001309Y010048D01*
X001309Y010206D02*
X003669Y010206D01*
X003669Y010365D02*
X001309Y010365D01*
X001309Y010523D02*
X003669Y010523D01*
X003669Y010682D02*
X001309Y010682D01*
X001309Y010840D02*
X003669Y010840D01*
X003669Y010999D02*
X001309Y010999D01*
X001309Y011157D02*
X003669Y011157D01*
X003669Y011316D02*
X001309Y011316D01*
X001309Y011474D02*
X002709Y011474D01*
X002693Y011633D02*
X001309Y011633D01*
X001309Y011792D02*
X002693Y011792D01*
X002693Y012109D02*
X001309Y012109D01*
X001309Y012267D02*
X002693Y012267D01*
X002801Y012426D02*
X001309Y012426D01*
X001309Y012584D02*
X006674Y012584D01*
X006678Y012580D02*
X006719Y012557D01*
X006765Y012544D01*
X007299Y012544D01*
X007299Y013038D01*
X007459Y013038D01*
X007459Y012544D01*
X007993Y012544D01*
X008039Y012557D01*
X008080Y012580D01*
X008114Y012614D01*
X008137Y012655D01*
X008150Y012701D01*
X008150Y013038D01*
X007459Y013038D01*
X007459Y013198D01*
X007299Y013198D01*
X007299Y013038D01*
X006609Y013038D01*
X006609Y012701D01*
X006621Y012655D01*
X006645Y012614D01*
X006678Y012580D01*
X006609Y012743D02*
X001309Y012743D01*
X001309Y012901D02*
X006609Y012901D01*
X006609Y013198D02*
X006609Y013536D01*
X001309Y013536D01*
X001309Y013694D02*
X013959Y013694D01*
X014117Y013853D02*
X001309Y013853D01*
X001309Y014011D02*
X014276Y014011D01*
X014434Y014170D02*
X001309Y014170D01*
X001309Y014328D02*
X014593Y014328D01*
X014751Y014487D02*
X001309Y014487D01*
X001309Y014645D02*
X014910Y014645D01*
X015069Y014804D02*
X013790Y014804D01*
X013944Y014962D02*
X015227Y014962D01*
X015386Y015121D02*
X014010Y015121D01*
X014025Y015279D02*
X015544Y015279D01*
X015636Y015438D02*
X014001Y015438D01*
X013928Y015597D02*
X015701Y015597D01*
X015836Y015755D02*
X013920Y015755D01*
X013920Y015914D02*
X016127Y015914D01*
X016412Y015914D02*
X017827Y015914D01*
X017840Y015919D02*
X017601Y015820D01*
X017418Y015637D01*
X017319Y015398D01*
X017319Y015140D01*
X017418Y014901D01*
X017601Y014718D01*
X017840Y014619D01*
X018098Y014619D01*
X018337Y014718D01*
X018520Y014901D01*
X018619Y015140D01*
X018619Y015398D01*
X018520Y015637D01*
X018337Y015820D01*
X018098Y015919D01*
X017840Y015919D01*
X018112Y015914D02*
X021269Y015914D01*
X021269Y016072D02*
X013920Y016072D01*
X013920Y016231D02*
X021269Y016231D01*
X021269Y016389D02*
X017659Y016389D01*
X017720Y016548D02*
X021269Y016548D01*
X021269Y016706D02*
X020023Y016706D01*
X020281Y016865D02*
X021269Y016865D01*
X021269Y017023D02*
X020443Y017023D01*
X020556Y017182D02*
X021269Y017182D01*
X021269Y017341D02*
X020635Y017341D01*
X020686Y017499D02*
X021269Y017499D01*
X021269Y017658D02*
X020713Y017658D01*
X020706Y017975D02*
X021269Y017975D01*
X021269Y017816D02*
X019620Y017816D01*
X019620Y017658D02*
X019460Y017658D01*
X019460Y017703D02*
X019460Y016605D01*
X019342Y016618D01*
X019213Y016648D01*
X019088Y016691D01*
X018968Y016749D01*
X018856Y016819D01*
X018753Y016902D01*
X018659Y016996D01*
X018576Y017099D01*
X018506Y017212D01*
X018448Y017331D01*
X018404Y017456D01*
X018375Y017585D01*
X018362Y017703D01*
X019460Y017703D01*
X019460Y017816D02*
X017720Y017816D01*
X017720Y017658D02*
X018367Y017658D01*
X018395Y017499D02*
X017720Y017499D01*
X017720Y017341D02*
X018445Y017341D01*
X018524Y017182D02*
X017720Y017182D01*
X017720Y017023D02*
X018637Y017023D01*
X018799Y016865D02*
X017720Y016865D01*
X017720Y016706D02*
X019057Y016706D01*
X019460Y016706D02*
X019620Y016706D01*
X019620Y016865D02*
X019460Y016865D01*
X019460Y017023D02*
X019620Y017023D01*
X019620Y017182D02*
X019460Y017182D01*
X019460Y017341D02*
X019620Y017341D01*
X019620Y017499D02*
X019460Y017499D01*
X018374Y017975D02*
X017720Y017975D01*
X017720Y018133D02*
X018412Y018133D01*
X018475Y018292D02*
X017720Y018292D01*
X017720Y018450D02*
X018566Y018450D01*
X018697Y018609D02*
X017720Y018609D01*
X017720Y018767D02*
X018889Y018767D01*
X020192Y018767D02*
X020505Y018767D01*
X020383Y018609D02*
X020664Y018609D01*
X020515Y018450D02*
X020822Y018450D01*
X020981Y018292D02*
X020605Y018292D01*
X020668Y018133D02*
X021139Y018133D01*
X021669Y018169D02*
X021669Y015169D01*
X021669Y014169D01*
X023169Y012669D01*
X031469Y012669D01*
X033429Y014629D01*
X033429Y015539D01*
X032429Y015539D02*
X032429Y014429D01*
X031169Y013169D01*
X023669Y013169D01*
X022669Y014169D01*
X022669Y015169D01*
X022669Y018169D01*
X021169Y019669D01*
X011669Y019669D01*
X010820Y018820D01*
X010820Y018343D01*
X009740Y018343D02*
X009740Y019236D01*
X010659Y020155D01*
X021699Y020155D01*
X023669Y018185D01*
X023669Y015169D01*
X023669Y014269D01*
X024269Y013669D01*
X030669Y013669D01*
X031429Y014429D01*
X031429Y015539D01*
X031535Y017023D02*
X033728Y017023D01*
X033753Y017023D02*
X043886Y017023D01*
X043524Y017182D02*
X042586Y017182D01*
X042697Y017341D02*
X043281Y017341D01*
X043103Y017499D02*
X042711Y017499D01*
X042711Y017658D02*
X042959Y017658D01*
X042842Y017816D02*
X042711Y017816D01*
X042711Y017975D02*
X042749Y017975D01*
X044396Y017975D02*
X044556Y017975D01*
X044556Y018133D02*
X044396Y018133D01*
X044396Y018292D02*
X044556Y018292D01*
X044556Y018450D02*
X044396Y018450D01*
X044396Y018609D02*
X044556Y018609D01*
X044556Y018767D02*
X044396Y018767D01*
X044396Y018926D02*
X036820Y018926D01*
X037324Y019085D02*
X042535Y019085D01*
X042557Y019243D02*
X037687Y019243D01*
X037853Y019402D02*
X042594Y019402D01*
X042645Y019560D02*
X037911Y019560D01*
X037909Y019719D02*
X042711Y019719D01*
X042795Y019877D02*
X037909Y019877D01*
X037909Y020036D02*
X042899Y020036D01*
X043027Y020194D02*
X037909Y020194D01*
X037853Y020353D02*
X043189Y020353D01*
X043395Y020511D02*
X037700Y020511D01*
X037242Y020511D02*
X032026Y020511D01*
X032232Y020353D02*
X036740Y020353D01*
X036375Y020194D02*
X032394Y020194D01*
X032522Y020036D02*
X035142Y020036D01*
X034851Y019877D02*
X032626Y019877D01*
X032710Y019719D02*
X034663Y019719D01*
X034559Y019560D02*
X032776Y019560D01*
X032827Y019402D02*
X034468Y019402D01*
X034413Y019243D02*
X032863Y019243D01*
X032886Y019085D02*
X034385Y019085D01*
X034357Y018926D02*
X031025Y018926D01*
X031025Y018767D02*
X030865Y018767D01*
X030865Y018806D02*
X028993Y018806D01*
X027234Y018806D01*
X027234Y018966D01*
X028993Y018966D01*
X030865Y018966D01*
X030865Y018806D01*
X030865Y018926D02*
X027234Y018926D01*
X027233Y018767D02*
X027073Y018767D01*
X027073Y018609D02*
X027233Y018609D01*
X027233Y018450D02*
X027073Y018450D01*
X027073Y018292D02*
X027233Y018292D01*
X027233Y018133D02*
X027073Y018133D01*
X027073Y017975D02*
X027233Y017975D01*
X027233Y017816D02*
X027073Y017816D01*
X027073Y017658D02*
X027233Y017658D01*
X027233Y017499D02*
X027073Y017499D01*
X027073Y017341D02*
X027233Y017341D01*
X027233Y017182D02*
X027073Y017182D01*
X027073Y017023D02*
X027233Y017023D01*
X027743Y017023D02*
X030355Y017023D01*
X029992Y017182D02*
X028106Y017182D01*
X028348Y017341D02*
X029750Y017341D01*
X029571Y017499D02*
X028527Y017499D01*
X028671Y017658D02*
X029427Y017658D01*
X029311Y017816D02*
X028787Y017816D01*
X028881Y017975D02*
X029217Y017975D01*
X029142Y018133D02*
X028956Y018133D01*
X029014Y018292D02*
X029084Y018292D01*
X030865Y018292D02*
X031025Y018292D01*
X031025Y018450D02*
X030865Y018450D01*
X030865Y018609D02*
X031025Y018609D01*
X031025Y018133D02*
X030865Y018133D01*
X030865Y017975D02*
X031025Y017975D01*
X031025Y017816D02*
X030865Y017816D01*
X030865Y017658D02*
X031025Y017658D01*
X031025Y017499D02*
X030865Y017499D01*
X030865Y017341D02*
X031025Y017341D01*
X031025Y017182D02*
X030865Y017182D01*
X030865Y017023D02*
X031025Y017023D01*
X031897Y017182D02*
X033418Y017182D01*
X033333Y017341D02*
X032140Y017341D01*
X032318Y017499D02*
X033313Y017499D01*
X033319Y017658D02*
X032462Y017658D01*
X032578Y017816D02*
X033319Y017816D01*
X033313Y017975D02*
X032672Y017975D01*
X032747Y018133D02*
X033347Y018133D01*
X033451Y018292D02*
X032805Y018292D01*
X032849Y018450D02*
X033706Y018450D01*
X034037Y018609D02*
X032878Y018609D01*
X032893Y018767D02*
X034308Y018767D01*
X035043Y017816D02*
X035105Y017816D01*
X034970Y017658D02*
X035716Y017658D01*
X035716Y017499D02*
X034747Y017499D01*
X034353Y017341D02*
X035730Y017341D01*
X035841Y017182D02*
X034136Y017182D01*
X035706Y016706D02*
X064415Y016706D01*
X064415Y016548D02*
X035749Y016548D01*
X035749Y016389D02*
X064415Y016389D01*
X064415Y016231D02*
X035749Y016231D01*
X035749Y016072D02*
X064415Y016072D01*
X064415Y015914D02*
X035749Y015914D01*
X035749Y015755D02*
X064415Y015755D01*
X064415Y016865D02*
X024069Y016865D01*
X024069Y017023D02*
X026563Y017023D01*
X026201Y017182D02*
X024069Y017182D01*
X024069Y017341D02*
X025959Y017341D01*
X025780Y017499D02*
X024069Y017499D01*
X024069Y017658D02*
X025636Y017658D01*
X025520Y017816D02*
X024069Y017816D01*
X024069Y017975D02*
X025426Y017975D01*
X025351Y018133D02*
X024069Y018133D01*
X024058Y018292D02*
X025293Y018292D01*
X025249Y018450D02*
X023969Y018450D01*
X023811Y018609D02*
X025220Y018609D01*
X025205Y018767D02*
X023652Y018767D01*
X023494Y018926D02*
X027073Y018926D01*
X025388Y019719D02*
X022701Y019719D01*
X022542Y019877D02*
X025472Y019877D01*
X025576Y020036D02*
X022384Y020036D01*
X022225Y020194D02*
X025704Y020194D01*
X025866Y020353D02*
X022067Y020353D01*
X021884Y020511D02*
X026073Y020511D01*
X026362Y020670D02*
X003929Y020670D01*
X004218Y020511D02*
X010475Y020511D01*
X010291Y020353D02*
X004425Y020353D01*
X004587Y020194D02*
X010133Y020194D01*
X009974Y020036D02*
X004715Y020036D01*
X004819Y019877D02*
X009816Y019877D01*
X009657Y019719D02*
X004903Y019719D01*
X004969Y019560D02*
X009499Y019560D01*
X009376Y019402D02*
X005020Y019402D01*
X005056Y019243D02*
X008367Y019243D01*
X008256Y019085D02*
X005079Y019085D01*
X005086Y018767D02*
X005769Y018767D01*
X005736Y018747D02*
X005633Y018665D01*
X005539Y018571D01*
X005456Y018467D01*
X005386Y018355D01*
X005328Y018236D01*
X005284Y018110D01*
X005255Y017981D01*
X005242Y017863D01*
X006340Y017863D01*
X006340Y017703D01*
X006500Y017703D01*
X006500Y016605D01*
X006618Y016618D01*
X006747Y016648D01*
X006872Y016691D01*
X006992Y016749D01*
X007104Y016819D01*
X007208Y016902D01*
X007301Y016996D01*
X007384Y017099D01*
X007455Y017212D01*
X007512Y017331D01*
X007556Y017456D01*
X007585Y017585D01*
X007599Y017703D01*
X006500Y017703D01*
X006500Y017863D01*
X007599Y017863D01*
X007585Y017981D01*
X007556Y018110D01*
X007512Y018236D01*
X007455Y018355D01*
X007384Y018467D01*
X007301Y018571D01*
X007208Y018665D01*
X007104Y018747D01*
X006992Y018818D01*
X006872Y018875D01*
X006747Y018919D01*
X006618Y018948D01*
X006500Y018962D01*
X006500Y017863D01*
X006340Y017863D01*
X006340Y018962D01*
X006222Y018948D01*
X006093Y018919D01*
X005968Y018875D01*
X005848Y018818D01*
X005736Y018747D01*
X005577Y018609D02*
X005071Y018609D01*
X005041Y018450D02*
X005446Y018450D01*
X005355Y018292D02*
X004998Y018292D01*
X004940Y018133D02*
X005292Y018133D01*
X005254Y017975D02*
X004865Y017975D01*
X004771Y017816D02*
X006340Y017816D01*
X006340Y017703D02*
X005242Y017703D01*
X005255Y017585D01*
X005284Y017456D01*
X005328Y017331D01*
X005386Y017212D01*
X005456Y017099D01*
X005539Y016996D01*
X005633Y016902D01*
X005736Y016819D01*
X005848Y016749D01*
X005968Y016691D01*
X006093Y016648D01*
X006222Y016618D01*
X006340Y016605D01*
X006340Y017703D01*
X006340Y017658D02*
X006500Y017658D01*
X006500Y017816D02*
X008240Y017816D01*
X008240Y017658D02*
X007593Y017658D01*
X007566Y017499D02*
X008240Y017499D01*
X008240Y017341D02*
X007515Y017341D01*
X007436Y017182D02*
X008240Y017182D01*
X008240Y017023D02*
X007323Y017023D01*
X007161Y016865D02*
X008240Y016865D01*
X008240Y016706D02*
X006903Y016706D01*
X006500Y016706D02*
X006340Y016706D01*
X006340Y016865D02*
X006500Y016865D01*
X006500Y017023D02*
X006340Y017023D01*
X006340Y017182D02*
X006500Y017182D01*
X006500Y017341D02*
X006340Y017341D01*
X006340Y017499D02*
X006500Y017499D01*
X006500Y017975D02*
X006340Y017975D01*
X006340Y018133D02*
X006500Y018133D01*
X006500Y018292D02*
X006340Y018292D01*
X006340Y018450D02*
X006500Y018450D01*
X006500Y018609D02*
X006340Y018609D01*
X006340Y018767D02*
X006500Y018767D01*
X006500Y018926D02*
X006340Y018926D01*
X006124Y018926D02*
X003218Y018926D01*
X003218Y018767D02*
X003058Y018767D01*
X003058Y018609D02*
X003218Y018609D01*
X003218Y018450D02*
X003058Y018450D01*
X003058Y018292D02*
X003218Y018292D01*
X003218Y018133D02*
X003058Y018133D01*
X003058Y017975D02*
X003218Y017975D01*
X003218Y017816D02*
X003058Y017816D01*
X003058Y017658D02*
X003218Y017658D01*
X003218Y017499D02*
X003058Y017499D01*
X003058Y017341D02*
X003218Y017341D01*
X003218Y017182D02*
X003058Y017182D01*
X003058Y017023D02*
X003218Y017023D01*
X003728Y017023D02*
X005517Y017023D01*
X005404Y017182D02*
X004090Y017182D01*
X004332Y017341D02*
X005325Y017341D01*
X005275Y017499D02*
X004511Y017499D01*
X004655Y017658D02*
X005247Y017658D01*
X005679Y016865D02*
X001309Y016865D01*
X001309Y017023D02*
X002548Y017023D01*
X002185Y017182D02*
X001309Y017182D01*
X001309Y017341D02*
X001943Y017341D01*
X001764Y017499D02*
X001309Y017499D01*
X001309Y017658D02*
X001620Y017658D01*
X001504Y017816D02*
X001309Y017816D01*
X001309Y017975D02*
X001410Y017975D01*
X001335Y018133D02*
X001309Y018133D01*
X001309Y016706D02*
X005937Y016706D01*
X008240Y016548D02*
X001309Y016548D01*
X001309Y016389D02*
X008302Y016389D01*
X009880Y016231D02*
X001309Y016231D01*
X001309Y016072D02*
X009880Y016072D01*
X009880Y015914D02*
X001309Y015914D01*
X001309Y015755D02*
X009880Y015755D01*
X009810Y015597D02*
X001309Y015597D01*
X001309Y015438D02*
X009737Y015438D01*
X009713Y015279D02*
X001309Y015279D01*
X001309Y015121D02*
X009728Y015121D01*
X009794Y014962D02*
X001309Y014962D01*
X001309Y014804D02*
X009948Y014804D01*
X010590Y014804D02*
X011048Y014804D01*
X010894Y014962D02*
X010744Y014962D01*
X010810Y015121D02*
X010828Y015121D01*
X011360Y015269D02*
X011360Y017223D01*
X012440Y017223D02*
X012440Y015269D01*
X012469Y015269D01*
X011928Y015121D02*
X011910Y015121D01*
X011844Y014962D02*
X011994Y014962D01*
X012148Y014804D02*
X011690Y014804D01*
X011369Y015269D02*
X011360Y015269D01*
X010280Y015269D02*
X010280Y017223D01*
X008240Y017975D02*
X007586Y017975D01*
X007548Y018133D02*
X008240Y018133D01*
X008240Y018292D02*
X007485Y018292D01*
X007395Y018450D02*
X008240Y018450D01*
X008240Y018609D02*
X007263Y018609D01*
X007072Y018767D02*
X008240Y018767D01*
X008240Y018926D02*
X006716Y018926D01*
X011900Y019086D02*
X011900Y018343D01*
X011900Y019086D02*
X011983Y019169D01*
X020669Y019169D01*
X021669Y018169D01*
X023335Y019085D02*
X025212Y019085D01*
X025235Y019243D02*
X023177Y019243D01*
X023018Y019402D02*
X025271Y019402D01*
X025322Y019560D02*
X022859Y019560D01*
X024069Y016706D02*
X024152Y016706D01*
X024109Y016548D02*
X024069Y016548D01*
X024069Y016389D02*
X024109Y016389D01*
X024109Y016231D02*
X024069Y016231D01*
X024069Y016072D02*
X024109Y016072D01*
X024109Y015914D02*
X024069Y015914D01*
X024069Y015755D02*
X024109Y015755D01*
X024109Y015597D02*
X024069Y015597D01*
X021269Y015597D02*
X018537Y015597D01*
X018603Y015438D02*
X021179Y015438D01*
X021113Y015279D02*
X018619Y015279D01*
X018611Y015121D02*
X021113Y015121D01*
X021153Y014962D02*
X018546Y014962D01*
X018423Y014804D02*
X021248Y014804D01*
X021269Y014645D02*
X018162Y014645D01*
X017777Y014645D02*
X016462Y014645D01*
X016222Y014487D02*
X021269Y014487D01*
X021269Y014328D02*
X016064Y014328D01*
X015905Y014170D02*
X021269Y014170D01*
X021302Y014011D02*
X015746Y014011D01*
X015588Y013853D02*
X021420Y013853D01*
X021579Y013694D02*
X015429Y013694D01*
X015271Y013536D02*
X021737Y013536D01*
X021896Y013377D02*
X015112Y013377D01*
X014954Y013218D02*
X022054Y013218D01*
X022213Y013060D02*
X014795Y013060D01*
X014637Y012901D02*
X022371Y012901D01*
X022530Y012743D02*
X014478Y012743D01*
X014320Y012584D02*
X015559Y012584D01*
X015779Y012584D02*
X022688Y012584D01*
X017515Y014804D02*
X016723Y014804D01*
X016846Y014962D02*
X017393Y014962D01*
X017327Y015121D02*
X016911Y015121D01*
X016919Y015279D02*
X017319Y015279D01*
X017336Y015438D02*
X016903Y015438D01*
X016837Y015597D02*
X017401Y015597D01*
X017536Y015755D02*
X016702Y015755D01*
X018402Y015755D02*
X021269Y015755D01*
X013520Y015269D02*
X013520Y017223D01*
X013520Y015269D02*
X013469Y015269D01*
X012994Y014962D02*
X012944Y014962D01*
X012790Y014804D02*
X013148Y014804D01*
X013800Y013536D02*
X008150Y013536D01*
X008137Y013581D01*
X008114Y013622D01*
X008080Y013656D01*
X008039Y013679D01*
X007993Y013692D01*
X007459Y013692D01*
X007459Y013198D01*
X008150Y013198D01*
X008150Y013536D01*
X008150Y013377D02*
X013642Y013377D01*
X013483Y013218D02*
X008150Y013218D01*
X008150Y012901D02*
X013166Y012901D01*
X013007Y012743D02*
X008150Y012743D01*
X008084Y012584D02*
X012849Y012584D01*
X012690Y012426D02*
X004883Y012426D01*
X003698Y012426D02*
X003574Y012426D01*
X003265Y012426D02*
X003110Y012426D01*
X003110Y012267D02*
X003265Y012267D01*
X003265Y012109D02*
X003110Y012109D01*
X003110Y011950D02*
X001309Y011950D01*
X003110Y011792D02*
X003265Y011792D01*
X003265Y011633D02*
X003110Y011633D01*
X003110Y011474D02*
X003265Y011474D01*
X004909Y011316D02*
X005866Y011316D01*
X005939Y011157D02*
X004909Y011157D01*
X004909Y010999D02*
X005939Y010999D01*
X005939Y010840D02*
X004909Y010840D01*
X004909Y010682D02*
X005939Y010682D01*
X005939Y010523D02*
X004909Y010523D01*
X004909Y010365D02*
X005939Y010365D01*
X005961Y010206D02*
X004909Y010206D01*
X004909Y010048D02*
X005961Y010048D01*
X005967Y009889D02*
X004909Y009889D01*
X004909Y009730D02*
X006066Y009730D01*
X006430Y009572D02*
X004909Y009572D01*
X004909Y009413D02*
X006430Y009413D01*
X006430Y009255D02*
X004909Y009255D01*
X004909Y009096D02*
X006430Y009096D01*
X006430Y008938D02*
X004909Y008938D01*
X004909Y008779D02*
X006430Y008779D01*
X006430Y008621D02*
X004909Y008621D01*
X004909Y008462D02*
X006430Y008462D01*
X006430Y008304D02*
X004909Y008304D01*
X004909Y008145D02*
X006430Y008145D01*
X006430Y007986D02*
X004939Y007986D01*
X004939Y007828D02*
X006430Y007828D01*
X006363Y007669D02*
X004883Y007669D01*
X004784Y007511D02*
X005304Y007511D01*
X005273Y007352D02*
X004581Y007352D01*
X005690Y007352D02*
X005845Y007352D01*
X005845Y007194D02*
X005690Y007194D01*
X005690Y007035D02*
X001309Y007035D01*
X001309Y005608D02*
X011208Y005608D01*
X011208Y005450D02*
X001309Y005450D01*
X001309Y005291D02*
X011222Y005291D01*
X012190Y006560D02*
X010120Y006560D01*
X010355Y006718D02*
X012190Y006718D01*
X012190Y006877D02*
X010514Y006877D01*
X010672Y007035D02*
X012190Y007035D01*
X012190Y007194D02*
X010831Y007194D01*
X010989Y007352D02*
X012190Y007352D01*
X012190Y007511D02*
X011148Y007511D01*
X011306Y007669D02*
X012190Y007669D01*
X012160Y007828D02*
X011465Y007828D01*
X011623Y007986D02*
X012160Y007986D01*
X012193Y008145D02*
X011782Y008145D01*
X011941Y008304D02*
X012259Y008304D01*
X012099Y008462D02*
X012418Y008462D01*
X012258Y008621D02*
X019901Y008621D01*
X019727Y008462D02*
X013202Y008462D01*
X013360Y008304D02*
X019568Y008304D01*
X019410Y008145D02*
X013426Y008145D01*
X013460Y007986D02*
X019263Y007986D01*
X019197Y007828D02*
X013460Y007828D01*
X013430Y007669D02*
X019192Y007669D01*
X019192Y007511D02*
X013430Y007511D01*
X013430Y007352D02*
X019096Y007352D01*
X020246Y007511D02*
X024109Y007511D01*
X024109Y007352D02*
X021275Y007352D01*
X021274Y007354D02*
X021240Y007387D01*
X021199Y007411D01*
X021153Y007423D01*
X020892Y007423D01*
X020892Y006967D01*
X021309Y006967D01*
X021309Y007267D01*
X021297Y007313D01*
X021274Y007354D01*
X021309Y007194D02*
X024109Y007194D01*
X024109Y007035D02*
X021309Y007035D01*
X020892Y007035D02*
X020737Y007035D01*
X020737Y007194D02*
X020892Y007194D01*
X020892Y007352D02*
X020737Y007352D01*
X020355Y007352D02*
X020328Y007352D01*
X020892Y006877D02*
X024109Y006877D01*
X024109Y006718D02*
X021309Y006718D01*
X021309Y006560D02*
X024109Y006560D01*
X024109Y006401D02*
X021250Y006401D01*
X020892Y006401D02*
X020737Y006401D01*
X020737Y006560D02*
X020892Y006560D01*
X020892Y006718D02*
X020737Y006718D01*
X020379Y006401D02*
X020318Y006401D01*
X020158Y006243D02*
X024109Y006243D01*
X026156Y004816D02*
X018166Y004816D01*
X018166Y004974D02*
X026493Y004974D01*
X027073Y004974D02*
X027233Y004974D01*
X027233Y004816D02*
X027073Y004816D01*
X027073Y004657D02*
X027233Y004657D01*
X027233Y004499D02*
X027073Y004499D01*
X027073Y004340D02*
X027233Y004340D01*
X027233Y004181D02*
X027073Y004181D01*
X027073Y004023D02*
X027233Y004023D01*
X027233Y003864D02*
X027073Y003864D01*
X027073Y003706D02*
X027233Y003706D01*
X027233Y003547D02*
X027073Y003547D01*
X027073Y003389D02*
X027233Y003389D01*
X028804Y004181D02*
X029294Y004181D01*
X029204Y004023D02*
X028894Y004023D01*
X028966Y003864D02*
X029132Y003864D01*
X029076Y003706D02*
X029022Y003706D01*
X030865Y003706D02*
X031025Y003706D01*
X031025Y003864D02*
X030865Y003864D01*
X030865Y004023D02*
X031025Y004023D01*
X031025Y004181D02*
X030865Y004181D01*
X030865Y004340D02*
X031025Y004340D01*
X031025Y004499D02*
X030865Y004499D01*
X030865Y004657D02*
X031025Y004657D01*
X031025Y004816D02*
X030865Y004816D01*
X030865Y004974D02*
X031025Y004974D01*
X031605Y004974D02*
X043816Y004974D01*
X043479Y004816D02*
X031942Y004816D01*
X032170Y004657D02*
X043251Y004657D01*
X043077Y004499D02*
X032344Y004499D01*
X030284Y004974D02*
X027814Y004974D01*
X028150Y004816D02*
X029948Y004816D01*
X029719Y004657D02*
X028379Y004657D01*
X028552Y004499D02*
X029546Y004499D01*
X029406Y004340D02*
X028692Y004340D01*
X030865Y003547D02*
X031025Y003547D01*
X031025Y003389D02*
X030865Y003389D01*
X032820Y002596D02*
X042601Y002596D01*
X042562Y002755D02*
X041251Y002755D01*
X041343Y002913D02*
X042537Y002913D01*
X042654Y002437D02*
X032767Y002437D01*
X032698Y002279D02*
X042723Y002279D01*
X042810Y002120D02*
X032611Y002120D01*
X032504Y001962D02*
X042917Y001962D01*
X043050Y001803D02*
X032370Y001803D01*
X032202Y001645D02*
X043219Y001645D01*
X043433Y001486D02*
X031988Y001486D01*
X031678Y001328D02*
X043743Y001328D01*
X045210Y001328D02*
X061853Y001328D01*
X061543Y001486D02*
X045519Y001486D01*
X045733Y001645D02*
X061329Y001645D01*
X061161Y001803D02*
X045902Y001803D01*
X046035Y001962D02*
X051306Y001962D01*
X051197Y002120D02*
X046142Y002120D01*
X046229Y002279D02*
X051184Y002279D01*
X051184Y002437D02*
X046298Y002437D01*
X046352Y002596D02*
X051184Y002596D01*
X051184Y002755D02*
X046390Y002755D01*
X046416Y002913D02*
X051184Y002913D01*
X056702Y001962D02*
X061027Y001962D01*
X060920Y002120D02*
X056810Y002120D01*
X056824Y002279D02*
X060833Y002279D01*
X060764Y002437D02*
X056824Y002437D01*
X056824Y002596D02*
X060711Y002596D01*
X060672Y002755D02*
X056824Y002755D01*
X056824Y002913D02*
X060647Y002913D01*
X064415Y005291D02*
X035689Y005291D01*
X035749Y005450D02*
X064415Y005450D01*
X064415Y005608D02*
X035749Y005608D01*
X035749Y005767D02*
X064415Y005767D01*
X064415Y005925D02*
X035749Y005925D01*
X035749Y006084D02*
X064415Y006084D01*
X064415Y006243D02*
X035749Y006243D01*
X035749Y006401D02*
X064415Y006401D01*
X064415Y006560D02*
X035749Y006560D01*
X035749Y006718D02*
X061827Y006718D01*
X061275Y006877D02*
X035749Y006877D01*
X035749Y007035D02*
X061275Y007035D01*
X061275Y007194D02*
X035749Y007194D01*
X035749Y007352D02*
X061209Y007352D01*
X061166Y007511D02*
X035749Y007511D01*
X035696Y007669D02*
X061135Y007669D01*
X061135Y007828D02*
X033829Y007828D01*
X033829Y007986D02*
X061135Y007986D01*
X061135Y008145D02*
X033829Y008145D01*
X033829Y008304D02*
X061135Y008304D01*
X061135Y008462D02*
X033829Y008462D01*
X033829Y008621D02*
X061135Y008621D01*
X061135Y008779D02*
X033829Y008779D01*
X033429Y009809D02*
X033429Y006484D01*
X032429Y006484D02*
X032429Y010009D01*
X030869Y011569D01*
X015269Y011569D01*
X014917Y011950D02*
X013685Y011950D01*
X013527Y011792D02*
X014800Y011792D01*
X014751Y011633D02*
X013368Y011633D01*
X013442Y011474D02*
X013210Y011474D01*
X013311Y011316D02*
X013051Y011316D01*
X013251Y011157D02*
X008844Y011157D01*
X008829Y010999D02*
X013251Y010999D01*
X013303Y010840D02*
X008829Y010840D01*
X008829Y010682D02*
X013424Y010682D01*
X013769Y011069D02*
X030569Y011069D01*
X031429Y010209D01*
X031429Y006484D01*
X030429Y006484D02*
X030429Y010409D01*
X030269Y010569D01*
X015269Y010569D01*
X014793Y010365D02*
X010765Y010365D01*
X010765Y010206D02*
X014899Y010206D01*
X014751Y010523D02*
X010735Y010523D01*
X010308Y010523D02*
X010153Y010523D01*
X010153Y010365D02*
X010308Y010365D01*
X010308Y010206D02*
X010153Y010206D01*
X010153Y010048D02*
X008813Y010048D01*
X008813Y010206D02*
X009696Y010206D01*
X009696Y010365D02*
X008829Y010365D01*
X008829Y010523D02*
X009726Y010523D01*
X010308Y010048D02*
X028915Y010048D01*
X028909Y009889D02*
X010765Y009889D01*
X010754Y009730D02*
X028909Y009730D01*
X028909Y009572D02*
X019723Y009572D01*
X019840Y009413D02*
X028909Y009413D01*
X028909Y009255D02*
X019889Y009255D01*
X019889Y009096D02*
X028909Y009096D01*
X028909Y008938D02*
X019827Y008938D01*
X019693Y008779D02*
X028909Y008779D01*
X031169Y012069D02*
X033429Y009809D01*
X033756Y010048D02*
X037189Y010048D01*
X037108Y010206D02*
X033598Y010206D01*
X033656Y010148D02*
X031535Y012269D01*
X031791Y012426D02*
X037540Y012426D01*
X037729Y012584D02*
X031950Y012584D01*
X032108Y012743D02*
X037981Y012743D01*
X038398Y012901D02*
X032267Y012901D01*
X032426Y013060D02*
X061135Y013060D01*
X061135Y013218D02*
X032584Y013218D01*
X032743Y013377D02*
X061135Y013377D01*
X061135Y013536D02*
X032901Y013536D01*
X033060Y013694D02*
X061135Y013694D01*
X061135Y013853D02*
X033218Y013853D01*
X033377Y014011D02*
X061135Y014011D01*
X061135Y014170D02*
X033535Y014170D01*
X035671Y014328D02*
X061135Y014328D01*
X061135Y014487D02*
X035749Y014487D01*
X035749Y014645D02*
X061135Y014645D01*
X061160Y014804D02*
X035749Y014804D01*
X035749Y014962D02*
X061202Y014962D01*
X061275Y015121D02*
X035749Y015121D01*
X035749Y015279D02*
X061275Y015279D01*
X061275Y015438D02*
X035749Y015438D01*
X035749Y015597D02*
X061786Y015597D01*
X061996Y017023D02*
X045066Y017023D01*
X045429Y017182D02*
X061634Y017182D01*
X061392Y017341D02*
X045671Y017341D01*
X045850Y017499D02*
X052422Y017499D01*
X052452Y017487D02*
X056579Y017487D01*
X056697Y017536D01*
X056787Y017626D01*
X056836Y017743D01*
X056836Y019871D01*
X056787Y019988D01*
X056697Y020078D01*
X056579Y020127D01*
X052452Y020127D01*
X052334Y020078D01*
X052244Y019988D01*
X052196Y019871D01*
X052196Y017743D01*
X052244Y017626D01*
X052334Y017536D01*
X052452Y017487D01*
X052231Y017658D02*
X045993Y017658D01*
X046110Y017816D02*
X052196Y017816D01*
X052196Y017975D02*
X046204Y017975D01*
X046279Y018133D02*
X052196Y018133D01*
X052196Y018292D02*
X046337Y018292D01*
X046380Y018450D02*
X052196Y018450D01*
X052196Y018609D02*
X046409Y018609D01*
X046425Y018767D02*
X052196Y018767D01*
X052196Y018926D02*
X044556Y018926D01*
X046241Y019719D02*
X052196Y019719D01*
X052198Y019877D02*
X046157Y019877D01*
X046053Y020036D02*
X052292Y020036D01*
X052196Y019560D02*
X046308Y019560D01*
X046358Y019402D02*
X052196Y019402D01*
X052196Y019243D02*
X046395Y019243D01*
X046418Y019085D02*
X052196Y019085D01*
X056836Y019085D02*
X060645Y019085D01*
X060668Y019243D02*
X056836Y019243D01*
X056836Y019402D02*
X060704Y019402D01*
X060755Y019560D02*
X056836Y019560D01*
X056836Y019719D02*
X060822Y019719D01*
X060905Y019877D02*
X056833Y019877D01*
X056739Y020036D02*
X061009Y020036D01*
X061137Y020194D02*
X045926Y020194D01*
X045764Y020353D02*
X061299Y020353D01*
X061506Y020511D02*
X045557Y020511D01*
X045268Y020670D02*
X061795Y020670D01*
X062506Y018926D02*
X056836Y018926D01*
X056836Y018767D02*
X060638Y018767D01*
X060653Y018609D02*
X056836Y018609D01*
X056836Y018450D02*
X060683Y018450D01*
X060726Y018292D02*
X056836Y018292D01*
X056836Y018133D02*
X060784Y018133D01*
X060859Y017975D02*
X056836Y017975D01*
X056836Y017816D02*
X060953Y017816D01*
X061069Y017658D02*
X056800Y017658D01*
X056609Y017499D02*
X061213Y017499D01*
X062506Y017499D02*
X062666Y017499D01*
X062666Y017341D02*
X062506Y017341D01*
X062506Y017182D02*
X062666Y017182D01*
X062666Y017023D02*
X062506Y017023D01*
X063176Y017023D02*
X064415Y017023D01*
X064415Y017182D02*
X063539Y017182D01*
X063781Y017341D02*
X064415Y017341D01*
X064415Y017499D02*
X063960Y017499D01*
X064104Y017658D02*
X064415Y017658D01*
X064415Y017816D02*
X064220Y017816D01*
X064314Y017975D02*
X064415Y017975D01*
X064415Y018133D02*
X064389Y018133D01*
X062666Y018133D02*
X062506Y018133D01*
X062506Y017975D02*
X062666Y017975D01*
X062666Y017816D02*
X062506Y017816D01*
X062506Y017658D02*
X062666Y017658D01*
X062666Y018292D02*
X062506Y018292D01*
X062506Y018450D02*
X062666Y018450D01*
X062666Y018609D02*
X062506Y018609D01*
X062506Y018767D02*
X062666Y018767D01*
X061135Y012901D02*
X060319Y012901D01*
X059910Y012901D02*
X059751Y012901D01*
X059751Y012743D02*
X059910Y012743D01*
X059910Y012584D02*
X059751Y012584D01*
X059751Y012426D02*
X059910Y012426D01*
X059910Y012267D02*
X059751Y012267D01*
X059751Y012109D02*
X059910Y012109D01*
X059910Y011950D02*
X059751Y011950D01*
X059751Y011792D02*
X059910Y011792D01*
X059910Y011633D02*
X059751Y011633D01*
X059751Y011474D02*
X059910Y011474D01*
X059910Y011316D02*
X059751Y011316D01*
X059751Y011157D02*
X059910Y011157D01*
X060987Y012584D02*
X061135Y012584D01*
X061135Y012743D02*
X060735Y012743D01*
X060951Y009413D02*
X061135Y009413D01*
X061135Y009255D02*
X060681Y009255D01*
X044556Y004974D02*
X044396Y004974D01*
X044396Y004816D02*
X044556Y004816D01*
X044556Y004657D02*
X044396Y004657D01*
X044396Y004499D02*
X044556Y004499D01*
X044556Y004340D02*
X044396Y004340D01*
X044396Y004181D02*
X044556Y004181D01*
X044556Y004023D02*
X044396Y004023D01*
X044396Y003864D02*
X044556Y003864D01*
X044556Y003706D02*
X044396Y003706D01*
X044396Y003547D02*
X044556Y003547D01*
X044556Y003389D02*
X044396Y003389D01*
X042446Y009096D02*
X039262Y009096D01*
X038966Y009096D02*
X038806Y009096D01*
X038806Y009255D02*
X038966Y009255D01*
X038966Y009413D02*
X038806Y009413D01*
X038806Y009572D02*
X038966Y009572D01*
X038966Y009730D02*
X038806Y009730D01*
X038806Y009889D02*
X038966Y009889D01*
X038966Y010048D02*
X038806Y010048D01*
X038806Y010206D02*
X038966Y010206D01*
X038966Y010365D02*
X038806Y010365D01*
X038806Y010523D02*
X038966Y010523D01*
X038966Y010682D02*
X038806Y010682D01*
X038806Y010840D02*
X038966Y010840D01*
X038966Y011316D02*
X038806Y011316D01*
X038806Y011474D02*
X038966Y011474D01*
X038966Y011633D02*
X038806Y011633D01*
X038806Y011792D02*
X038966Y011792D01*
X038966Y011950D02*
X038806Y011950D01*
X038806Y012109D02*
X038966Y012109D01*
X038966Y012267D02*
X038806Y012267D01*
X038806Y012426D02*
X038966Y012426D01*
X038966Y012584D02*
X038806Y012584D01*
X038806Y012743D02*
X038966Y012743D01*
X038966Y012901D02*
X038806Y012901D01*
X039374Y012901D02*
X042335Y012901D01*
X041918Y012743D02*
X039791Y012743D01*
X040042Y012584D02*
X041666Y012584D01*
X041477Y012426D02*
X040232Y012426D01*
X040380Y012267D02*
X041329Y012267D01*
X041208Y012109D02*
X040500Y012109D01*
X040597Y011950D02*
X041111Y011950D01*
X041033Y011792D02*
X040675Y011792D01*
X040736Y011633D02*
X040972Y011633D01*
X040926Y011474D02*
X040782Y011474D01*
X040814Y011316D02*
X040895Y011316D01*
X040876Y011157D02*
X040832Y011157D01*
X040830Y010840D02*
X040879Y010840D01*
X040899Y010682D02*
X040809Y010682D01*
X040775Y010523D02*
X040933Y010523D01*
X040981Y010365D02*
X040727Y010365D01*
X040663Y010206D02*
X041045Y010206D01*
X041126Y010048D02*
X040583Y010048D01*
X040482Y009889D02*
X041226Y009889D01*
X041350Y009730D02*
X040358Y009730D01*
X040206Y009572D02*
X041502Y009572D01*
X041703Y009413D02*
X040006Y009413D01*
X039736Y009255D02*
X041972Y009255D01*
X037044Y010365D02*
X033439Y010365D01*
X033281Y010523D02*
X036996Y010523D01*
X036962Y010682D02*
X033122Y010682D01*
X032964Y010840D02*
X036942Y010840D01*
X033829Y009889D02*
X033768Y010036D01*
X033656Y010148D01*
X031169Y012069D02*
X015669Y012069D01*
X015190Y012267D02*
X014003Y012267D01*
X014161Y012426D02*
X015293Y012426D01*
X015151Y012109D02*
X013844Y012109D01*
X012532Y012267D02*
X006159Y012267D01*
X006318Y012109D02*
X008438Y012109D01*
X008325Y011950D02*
X006476Y011950D01*
X006635Y011792D02*
X008234Y011792D01*
X008075Y011633D02*
X006769Y011633D01*
X006819Y011474D02*
X007975Y011474D01*
X007949Y011316D02*
X006819Y011316D01*
X006819Y011157D02*
X007949Y011157D01*
X007579Y010999D02*
X007179Y010999D01*
X007363Y010840D02*
X007364Y010840D01*
X007363Y010682D02*
X007364Y010682D01*
X007363Y010523D02*
X007364Y010523D01*
X007363Y010365D02*
X007364Y010365D01*
X007364Y010362D02*
X007364Y009789D01*
X007447Y009789D01*
X007447Y009439D01*
X007447Y009264D01*
X007514Y009102D01*
X007859Y008757D01*
X007982Y008634D01*
X008144Y008567D01*
X009582Y008567D01*
X009605Y008510D01*
X009695Y008420D01*
X009812Y008372D01*
X010538Y008372D01*
X009741Y007575D01*
X007463Y007575D01*
X007457Y007590D01*
X007367Y007680D01*
X007310Y007704D01*
X007310Y009789D01*
X007363Y009789D01*
X007363Y010362D01*
X007364Y010362D01*
X007363Y010206D02*
X007364Y010206D01*
X007363Y010048D02*
X007364Y010048D01*
X007363Y009889D02*
X007364Y009889D01*
X007310Y009730D02*
X007447Y009730D01*
X007447Y009572D02*
X007310Y009572D01*
X007310Y009413D02*
X007447Y009413D01*
X007451Y009255D02*
X007310Y009255D01*
X007310Y009096D02*
X007520Y009096D01*
X007678Y008938D02*
X007310Y008938D01*
X007310Y008779D02*
X007837Y008779D01*
X007859Y008757D02*
X007859Y008757D01*
X008013Y008621D02*
X007310Y008621D01*
X007310Y008462D02*
X009653Y008462D01*
X010311Y008145D02*
X007310Y008145D01*
X007310Y007986D02*
X010153Y007986D01*
X009994Y007828D02*
X007310Y007828D01*
X007378Y007669D02*
X009836Y007669D01*
X010470Y008304D02*
X007310Y008304D01*
X006251Y007511D02*
X006232Y007511D01*
X005845Y007511D02*
X005690Y007511D01*
X005690Y006877D02*
X005845Y006877D01*
X005845Y006718D02*
X005690Y006718D01*
X005690Y006560D02*
X005845Y006560D01*
X006197Y006560D02*
X006267Y006560D01*
X010905Y008779D02*
X010945Y008779D01*
X010905Y008938D02*
X011104Y008938D01*
X011263Y009096D02*
X010905Y009096D01*
X010905Y009255D02*
X011421Y009255D01*
X011580Y009413D02*
X010893Y009413D01*
X010787Y009572D02*
X011738Y009572D01*
X009707Y009730D02*
X008708Y009730D01*
X008807Y009889D02*
X009696Y009889D01*
X009674Y009572D02*
X008327Y009572D01*
X008395Y010362D02*
X008389Y010368D01*
X007888Y010362D02*
X007887Y010362D01*
X006871Y010362D02*
X006870Y010362D01*
X007299Y012584D02*
X007459Y012584D01*
X007459Y012743D02*
X007299Y012743D01*
X007299Y012901D02*
X007459Y012901D01*
X007459Y013060D02*
X013325Y013060D01*
X014096Y011474D02*
X014751Y011474D01*
X007459Y013218D02*
X007299Y013218D01*
X007299Y013198D02*
X007299Y013692D01*
X006765Y013692D01*
X006719Y013679D01*
X006678Y013656D01*
X006645Y013622D01*
X006621Y013581D01*
X006609Y013536D01*
X006609Y013377D02*
X001309Y013377D01*
X001309Y013218D02*
X006609Y013218D01*
X006609Y013198D02*
X007299Y013198D01*
X007299Y013060D02*
X001309Y013060D01*
X007299Y013377D02*
X007459Y013377D01*
X007459Y013536D02*
X007299Y013536D01*
X010269Y015269D02*
X010280Y015269D01*
X013430Y007194D02*
X017022Y007194D01*
X016863Y007035D02*
X013430Y007035D01*
X013430Y006877D02*
X016704Y006877D01*
X017019Y004499D02*
X016062Y004499D01*
X016220Y004340D02*
X017019Y004340D01*
X017019Y004181D02*
X016379Y004181D01*
X016538Y004023D02*
X017052Y004023D01*
X016690Y003864D02*
X025341Y003864D01*
X025285Y003706D02*
X016752Y003706D01*
X016752Y003547D02*
X025244Y003547D01*
X025216Y003389D02*
X016752Y003389D01*
X016752Y003230D02*
X025202Y003230D01*
X025400Y002279D02*
X017492Y002279D01*
X017492Y002437D02*
X017337Y002437D01*
X017337Y002596D02*
X017492Y002596D01*
X017492Y002755D02*
X017337Y002755D01*
X015872Y003389D02*
X015466Y003389D01*
X015550Y003547D02*
X015769Y003547D01*
X015610Y003706D02*
X015550Y003706D01*
X017512Y004023D02*
X017672Y004023D01*
X017672Y004181D02*
X017512Y004181D01*
X017512Y004340D02*
X017672Y004340D01*
X017672Y004499D02*
X017512Y004499D01*
X017672Y004657D02*
X025928Y004657D01*
X025754Y004499D02*
X018166Y004499D01*
X018166Y004340D02*
X025615Y004340D01*
X025502Y004181D02*
X018166Y004181D01*
X018133Y004023D02*
X025413Y004023D01*
X017492Y002120D02*
X017337Y002120D01*
X017337Y001962D02*
X017492Y001962D01*
X017492Y001803D02*
X017337Y001803D01*
X017019Y001803D02*
X016907Y001803D01*
X014837Y004735D02*
X014837Y004735D01*
X044396Y017023D02*
X044556Y017023D01*
X044556Y017182D02*
X044396Y017182D01*
X044396Y017341D02*
X044556Y017341D01*
X044556Y017499D02*
X044396Y017499D01*
X044396Y017658D02*
X044556Y017658D01*
X044556Y017816D02*
X044396Y017816D01*
X043685Y020670D02*
X031736Y020670D01*
X035996Y020036D02*
X036231Y020036D01*
D23*
X036169Y016169D03*
X038169Y016169D03*
X040169Y016169D03*
X042169Y016169D03*
X044169Y016169D03*
X046169Y016169D03*
X048169Y016169D03*
X050169Y016169D03*
X052169Y016169D03*
X054169Y016169D03*
X056169Y016169D03*
X058169Y016169D03*
X060169Y016169D03*
X062169Y016169D03*
X064169Y016169D03*
X061169Y015169D03*
X059169Y015169D03*
X058169Y014169D03*
X056169Y014169D03*
X054169Y014169D03*
X052169Y014169D03*
X050169Y014169D03*
X048169Y014169D03*
X046169Y014169D03*
X044169Y014169D03*
X042169Y014169D03*
X040169Y014169D03*
X038169Y014169D03*
X034169Y014169D03*
X032169Y012169D03*
X036169Y012169D03*
X036169Y010169D03*
X034169Y010169D03*
X029429Y009929D03*
X036169Y006169D03*
X038169Y006169D03*
X040169Y006169D03*
X042169Y006169D03*
X044169Y006169D03*
X046169Y006169D03*
X048169Y006169D03*
X050169Y006169D03*
X049169Y005169D03*
X047169Y005169D03*
X048169Y004169D03*
X050169Y004169D03*
X049169Y003169D03*
X047169Y003169D03*
X046269Y002135D03*
X048169Y002169D03*
X050169Y002169D03*
X051169Y003169D03*
X051169Y005169D03*
X054169Y006169D03*
X056169Y006169D03*
X058169Y006169D03*
X060169Y006169D03*
X062169Y006169D03*
X064169Y006169D03*
X061169Y007169D03*
X059169Y007169D03*
X058169Y008169D03*
X056169Y008169D03*
X054169Y008169D03*
X052169Y008169D03*
X051169Y009169D03*
X049169Y009169D03*
X050169Y010169D03*
X052169Y010169D03*
X054169Y010169D03*
X056169Y010169D03*
X058169Y010169D03*
X057169Y009169D03*
X055169Y009169D03*
X053169Y009169D03*
X053169Y007169D03*
X055169Y007169D03*
X057169Y007169D03*
X060169Y008169D03*
X059169Y005169D03*
X058169Y004169D03*
X060169Y004169D03*
X059169Y003169D03*
X058169Y002169D03*
X060169Y002169D03*
X057169Y005169D03*
X055169Y005169D03*
X049169Y007169D03*
X047169Y007169D03*
X042169Y004169D03*
X042169Y002169D03*
X040169Y002169D03*
X038169Y002169D03*
X036169Y002169D03*
X034169Y002169D03*
X034169Y004169D03*
X024169Y004169D03*
X022169Y004169D03*
X020169Y004169D03*
X020169Y002169D03*
X018169Y002169D03*
X014169Y002169D03*
X012169Y002169D03*
X010169Y002169D03*
X008169Y002169D03*
X006169Y002169D03*
X006169Y004169D03*
X008169Y004169D03*
X010169Y004169D03*
X012169Y004169D03*
X010169Y006169D03*
X008169Y006169D03*
X006169Y006169D03*
X004169Y006169D03*
X002169Y006169D03*
X002169Y008169D03*
X006169Y009169D03*
X009169Y010169D03*
X012169Y010169D03*
X014169Y010169D03*
X015269Y010569D03*
X013769Y011069D03*
X015269Y011569D03*
X015669Y012069D03*
X020169Y014169D03*
X020169Y016169D03*
X024169Y018169D03*
X024169Y020169D03*
X008169Y016169D03*
X006169Y016169D03*
X004169Y016169D03*
X002169Y016169D03*
X002169Y014169D03*
X004169Y014169D03*
X006169Y014169D03*
X008169Y014169D03*
X008169Y012169D03*
X002169Y012169D03*
X002169Y010169D03*
X018169Y006169D03*
X020169Y006169D03*
X022169Y006169D03*
X019369Y009191D03*
X022169Y002169D03*
X024169Y002169D03*
X049169Y011169D03*
X051169Y011169D03*
X053169Y011169D03*
X055169Y011169D03*
X057169Y011169D03*
X056169Y012169D03*
X054169Y012169D03*
X052169Y012169D03*
X050169Y012169D03*
X049169Y013169D03*
X051169Y013169D03*
X053169Y013169D03*
X055169Y013169D03*
X057169Y013169D03*
X058169Y012169D03*
X059169Y013169D03*
X060169Y014169D03*
X057169Y015169D03*
X055169Y015169D03*
X053169Y015169D03*
X051169Y015169D03*
X051169Y017169D03*
X049169Y017169D03*
X047169Y017169D03*
X048169Y018169D03*
X050169Y018169D03*
X052169Y018169D03*
X053169Y017169D03*
X055169Y017169D03*
X057169Y017169D03*
X058169Y018169D03*
X060169Y018169D03*
X059169Y017169D03*
X058169Y020169D03*
X060169Y020169D03*
X052169Y020169D03*
X050169Y020169D03*
X048169Y020169D03*
D24*
X029429Y009929D02*
X029429Y008169D01*
X020169Y008169D01*
X019712Y007712D01*
X019712Y006889D01*
X019369Y009191D02*
X012092Y009191D01*
X009956Y007055D01*
X006870Y007055D01*
X008799Y011735D02*
X012735Y011735D01*
X016269Y015269D01*
X014769Y015269D02*
X014600Y015269D01*
X014600Y017223D01*
X019040Y018283D02*
X019540Y017783D01*
X029429Y008169D02*
X029429Y006484D01*
D25*
X019712Y006889D02*
X017339Y006889D01*
X015677Y005227D01*
X014836Y005227D01*
X014836Y005719D02*
X012969Y005719D01*
X012969Y004019D01*
X013285Y003703D01*
X014836Y003703D01*
X014836Y004211D02*
X015727Y004211D01*
X016312Y003626D01*
X016312Y002319D01*
X012969Y005719D02*
X012810Y005719D01*
X006870Y007055D02*
X006870Y010362D01*
X006379Y010362D02*
X006379Y011425D01*
X005899Y011905D01*
X004290Y011905D01*
X007887Y010362D02*
X007887Y009351D01*
X008232Y009007D01*
X010230Y009007D01*
X008389Y010368D02*
X008389Y011325D01*
X008799Y011735D01*
X033759Y017469D02*
X033759Y017969D01*
X034009Y018119D01*
X034009Y017619D01*
X033759Y017469D01*
X034359Y017809D02*
X034359Y018309D01*
X034609Y018419D01*
X034609Y017919D01*
X034359Y017809D01*
X036619Y019319D02*
X036619Y019819D01*
X036869Y019929D01*
X036869Y019429D01*
X036619Y019319D01*
X037219Y019519D02*
X037219Y020019D01*
X037469Y020129D01*
X037469Y019629D01*
X037219Y019519D01*
D26*
X012810Y007935D02*
X012810Y005719D01*
X012805Y005719D01*
X004289Y007935D02*
X004289Y011899D01*
X004269Y011919D01*
X004276Y011919D01*
X004290Y011905D01*
M02*
