%
M48
M72
T01C0.0236
T02C0.0320
T03C0.0354
T04C0.0500
T05C0.0700
T06C0.1181
T07C0.1300
%
T01
X6169Y2169
X8169Y2169
X10169Y3669
X12169Y3669
X14169Y3669
X12169Y5169
X10169Y5169
X8269Y5469
X6898Y6233
X8544Y7019
X9144Y7444
X9969Y7669
X11669Y8169
X11669Y10169
X15169Y11169
X16111Y10419
X18169Y10169
X18169Y9169
X18647Y8589
X19169Y8169
X18269Y7469
X20169Y6169
X22169Y6169
X22169Y8169
X24169Y8169
X26169Y8169
X28169Y8169
X30169Y8169
X32625Y9512
X34169Y10169
X36169Y10169
X36169Y8169
X38169Y8169
X40169Y8169
X42169Y8169
X44169Y8169
X46169Y8169
X48169Y8169
X50169Y8169
X52169Y8169
X54169Y8169
X56169Y8169
X58169Y8169
X60169Y8169
X59169Y7169
X58169Y6169
X56169Y6169
X54169Y6169
X53169Y7169
X51169Y7169
X49169Y7169
X47169Y7169
X47169Y5169
X49169Y5169
X51169Y5169
X50169Y4169
X48169Y4169
X46169Y4169
X47169Y3169
X49169Y3169
X48169Y2169
X46169Y2169
X50169Y2169
X57169Y3169
X58169Y2169
X60169Y2169
X59169Y3169
X58169Y4169
X60169Y4169
X59169Y5169
X60169Y6169
X62169Y6169
X64169Y6169
X57169Y5169
X55169Y5169
X55169Y7169
X57169Y7169
X57169Y9169
X55169Y9169
X53169Y9169
X51169Y9169
X49169Y9169
X50169Y10169
X52169Y10169
X54169Y10169
X56169Y10169
X55169Y11169
X53169Y11169
X51169Y11169
X49169Y11169
X48169Y12169
X50169Y12169
X52169Y12169
X54169Y12169
X56169Y12169
X55169Y13169
X53169Y13169
X51169Y13169
X49169Y13169
X48169Y14169
X46169Y14169
X44169Y14169
X42169Y14169
X40169Y14169
X38169Y14169
X36169Y14169
X34169Y14169
X32169Y14169
X30169Y14169
X28169Y14169
X26169Y14169
X24169Y14169
X22169Y14169
X19969Y14469
X18759Y15951
X17048Y15969
X15869Y15969
X22169Y16169
X24169Y16169
X26169Y16169
X28169Y16169
X30169Y16169
X32169Y16169
X24169Y18169
X22169Y18169
X22169Y20169
X20169Y20169
X24169Y20169
X34169Y20169
X36169Y20169
X38169Y20169
X40169Y20169
X46169Y20169
X48169Y20169
X50169Y20169
X50169Y18169
X48169Y18169
X46169Y18169
X47169Y17169
X49169Y17169
X51169Y17169
X53169Y17169
X55169Y17169
X57169Y17169
X56169Y16169
X54169Y16169
X52169Y16169
X50169Y16169
X48169Y16169
X46169Y16169
X44169Y16169
X42169Y16169
X49169Y15169
X51169Y15169
X53169Y15169
X55169Y15169
X57169Y15169
X56169Y14169
X54169Y14169
X52169Y14169
X50169Y14169
X57169Y13169
X58169Y14169
X60169Y14169
X59169Y13169
X59169Y15169
X61169Y15169
X60169Y16169
X58169Y16169
X59169Y17169
X58169Y18169
X60169Y18169
X60169Y20169
X58169Y20169
X62169Y16169
X64169Y16169
X57169Y11169
X40169Y4169
X40169Y2169
X38169Y2169
X36169Y2169
X34169Y2169
X34169Y4169
X24169Y4169
X20169Y4169
X22169Y2169
X24169Y2169
X34169Y8169
X26625Y9512
X34169Y12169
X32625Y12512
X36169Y12169
X26625Y12512
X18169Y12169
X16169Y12169
X11669Y13169
X9669Y12169
X7669Y12169
X7669Y14169
X8069Y14669
X9069Y14669
X9669Y14169
X5623Y14501
X4169Y16169
X2169Y16169
X2169Y12169
X2169Y8169
X6169Y8169
X4169Y6169
X2169Y6169
X6169Y4169
T02
X15599Y3291
X17499Y3291
T03
X52504Y3216
X53504Y3216
X54504Y3216
X55504Y3216
X17548Y17223
X16468Y17223
X15388Y17223
X14308Y17223
X13228Y17223
X12148Y17223
X11068Y17223
X9988Y17223
X10528Y18343
X11608Y18343
X12688Y18343
X13768Y18343
X14848Y18343
X15928Y18343
X17008Y18343
X53516Y18807
X54516Y18807
X55516Y18807
T04
X22823Y11012
T05
X24223Y12412
X21423Y12412
X21423Y9612
X24223Y9612
T06
X38886Y11012
X42823Y11012
X46760Y11012
X59831Y11012
X62586Y18886
X44476Y18886
X30945Y18886
X27153Y18886
X3138Y18886
X3138Y3138
X27153Y3138
X30945Y3138
X44476Y3138
X62586Y3138
T07
X20328Y17783
X7208Y17783
M30
