G75*
G70*
%OFA0B0*%
%FSLAX24Y24*%
%IPPOS*%
%LPD*%
%AMOC8*
5,1,8,0,0,1.08239X$1,22.5*
%
%ADD10C,0.0060*%
%ADD11C,0.0040*%
%ADD12C,0.0520*%
%ADD13C,0.3543*%
%ADD14C,0.0436*%
%ADD15C,0.0660*%
%ADD16C,0.0750*%
%ADD17C,0.1050*%
%ADD18C,0.2000*%
%ADD19C,0.0160*%
%ADD20C,0.0400*%
%ADD21C,0.0396*%
%ADD22C,0.0400*%
%ADD23C,0.0600*%
%ADD24C,0.0120*%
%ADD25C,0.1181*%
D10*
X034769Y002999D02*
X034769Y003319D01*
X034876Y003426D01*
X034983Y003319D01*
X034983Y002999D01*
X035196Y002999D02*
X035196Y003426D01*
X035089Y003426D01*
X034983Y003319D01*
X035414Y003319D02*
X035520Y003426D01*
X035734Y003426D01*
X035841Y003319D01*
X035841Y003106D01*
X035734Y002999D01*
X035520Y002999D01*
X035414Y003106D01*
X035414Y003319D01*
X036057Y003426D02*
X036270Y003426D01*
X036164Y003533D02*
X036164Y003106D01*
X036057Y002999D01*
X036487Y002999D02*
X036593Y003106D01*
X036593Y003533D01*
X036487Y003426D02*
X036700Y003426D01*
X036918Y003319D02*
X036918Y003106D01*
X037024Y002999D01*
X037238Y002999D01*
X037345Y003106D01*
X037345Y003319D01*
X037238Y003426D01*
X037024Y003426D01*
X036918Y003319D01*
X037562Y003213D02*
X037562Y003106D01*
X037669Y002999D01*
X037989Y002999D01*
X037989Y003640D01*
X037669Y003640D01*
X037562Y003533D01*
X037562Y003426D01*
X037669Y003319D01*
X037989Y003319D01*
X037669Y003319D02*
X037562Y003213D01*
X037610Y018399D02*
X037289Y018399D01*
X037289Y018719D01*
X037396Y018826D01*
X037610Y018826D01*
X037610Y018613D02*
X037289Y018613D01*
X037072Y018826D02*
X036858Y018826D01*
X036965Y018933D02*
X036965Y018506D01*
X036858Y018399D01*
X036642Y018399D02*
X036322Y018399D01*
X036215Y018506D01*
X036215Y018613D01*
X036322Y018719D01*
X036642Y018719D01*
X036642Y018399D02*
X036642Y019040D01*
X036322Y019040D01*
X036215Y018933D01*
X036215Y018826D01*
X036322Y018719D01*
X035998Y018719D02*
X035891Y018826D01*
X035678Y018826D01*
X035571Y018719D01*
X035571Y018613D01*
X035998Y018613D01*
X035998Y018719D02*
X035998Y018506D01*
X035891Y018399D01*
X035678Y018399D01*
X035353Y018506D02*
X035246Y018613D01*
X034926Y018613D01*
X034926Y018719D02*
X034926Y018399D01*
X035246Y018399D01*
X035353Y018506D01*
X035246Y018826D02*
X035033Y018826D01*
X034926Y018719D01*
X034709Y018719D02*
X034602Y018826D01*
X034282Y018826D01*
X034064Y018719D02*
X034064Y018506D01*
X033957Y018399D01*
X033744Y018399D01*
X033637Y018506D01*
X033637Y018719D01*
X033744Y018826D01*
X033957Y018826D01*
X034064Y018719D01*
X034282Y018399D02*
X034602Y018399D01*
X034709Y018506D01*
X034709Y018719D01*
X033420Y018826D02*
X033420Y018399D01*
X032993Y018399D02*
X032993Y018719D01*
X033099Y018826D01*
X033420Y018826D01*
X037610Y018613D02*
X037716Y018506D01*
X037610Y018399D01*
X037934Y018506D02*
X038041Y018399D01*
X038254Y018399D01*
X038361Y018506D01*
X038254Y018719D02*
X038041Y018719D01*
X037934Y018613D01*
X037934Y018506D01*
X038254Y018719D02*
X038361Y018826D01*
X038361Y018933D01*
X038254Y019040D01*
X038041Y019040D01*
X037934Y018933D01*
X038579Y018719D02*
X039006Y018719D01*
X039223Y018826D02*
X039543Y018826D01*
X039650Y018719D01*
X039543Y018613D01*
X039330Y018613D01*
X039223Y018506D01*
X039330Y018399D01*
X039650Y018399D01*
X039868Y018399D02*
X039868Y018826D01*
X040295Y018826D02*
X040295Y018506D01*
X040188Y018399D01*
X039868Y018399D01*
X040512Y018399D02*
X040512Y019040D01*
X040939Y019040D02*
X040939Y018399D01*
X040939Y018719D02*
X040512Y018719D01*
D11*
X040205Y017426D02*
X040205Y017349D01*
X040205Y017196D02*
X040205Y016889D01*
X040282Y016889D02*
X040128Y016889D01*
X039975Y016966D02*
X039975Y017119D01*
X039898Y017196D01*
X039668Y017196D01*
X039668Y016812D01*
X039745Y016736D01*
X039822Y016736D01*
X039898Y016889D02*
X039668Y016889D01*
X039515Y016889D02*
X039515Y017349D01*
X039438Y017196D02*
X039284Y017196D01*
X039208Y017119D01*
X039208Y016889D01*
X038978Y016966D02*
X038901Y016889D01*
X038978Y016966D02*
X038978Y017273D01*
X039054Y017196D02*
X038901Y017196D01*
X038747Y016812D02*
X038441Y016812D01*
X038287Y016889D02*
X037980Y016889D01*
X038134Y016889D02*
X038134Y017349D01*
X038287Y017196D01*
X037827Y017196D02*
X037827Y017273D01*
X037750Y017349D01*
X037597Y017349D01*
X037520Y017273D01*
X037520Y017196D01*
X037597Y017119D01*
X037750Y017119D01*
X037827Y017196D01*
X037750Y017119D02*
X037827Y017043D01*
X037827Y016966D01*
X037750Y016889D01*
X037597Y016889D01*
X037520Y016966D01*
X037520Y017043D01*
X037597Y017119D01*
X037366Y016812D02*
X037059Y016812D01*
X036906Y016889D02*
X036599Y017196D01*
X036599Y017273D01*
X036676Y017349D01*
X036829Y017349D01*
X036906Y017273D01*
X036906Y016889D02*
X036599Y016889D01*
X036446Y016812D02*
X036139Y016812D01*
X035985Y016889D02*
X035678Y016889D01*
X035525Y016889D02*
X035218Y017196D01*
X035218Y017273D01*
X035295Y017349D01*
X035448Y017349D01*
X035525Y017273D01*
X035832Y017349D02*
X035832Y016889D01*
X035525Y016889D02*
X035218Y016889D01*
X035832Y017349D02*
X035985Y017196D01*
X039438Y017196D02*
X039515Y017119D01*
X039898Y016889D02*
X039975Y016966D01*
X040205Y017196D02*
X040282Y017196D01*
X040512Y017349D02*
X040512Y016889D01*
X040589Y016889D02*
X040435Y016889D01*
X040896Y017119D02*
X041049Y017119D01*
X041049Y016889D02*
X041049Y017349D01*
X040742Y017349D01*
X040589Y017349D02*
X040512Y017349D01*
D12*
X017499Y003291D03*
X015599Y003291D03*
D13*
X027153Y003138D03*
X030945Y003138D03*
X044476Y003138D03*
X062586Y003138D03*
X059831Y011012D03*
X046760Y011012D03*
X042823Y011012D03*
X038886Y011012D03*
X044476Y018886D03*
X030945Y018886D03*
X027153Y018886D03*
X003138Y018886D03*
X003138Y003138D03*
X062586Y018886D03*
D14*
X032625Y012512D03*
X026625Y012512D03*
X026625Y009512D03*
X032625Y009512D03*
D15*
X018759Y015951D03*
X017048Y015969D03*
X015869Y015969D03*
X015388Y017223D03*
X016468Y017223D03*
X017548Y017223D03*
X017008Y018343D03*
X015928Y018343D03*
X014848Y018343D03*
X013768Y018343D03*
X012688Y018343D03*
X011608Y018343D03*
X010528Y018343D03*
X011068Y017223D03*
X009988Y017223D03*
X012148Y017223D03*
X013228Y017223D03*
X014308Y017223D03*
X005623Y014501D03*
X052504Y003216D03*
X053504Y003216D03*
X054504Y003216D03*
X055504Y003216D03*
X055516Y018807D03*
X054516Y018807D03*
X053516Y018807D03*
D16*
X022823Y011012D03*
D17*
X024223Y012412D03*
X021423Y012412D03*
X021423Y009612D03*
X024223Y009612D03*
D18*
X020328Y017783D03*
X007208Y017783D03*
D19*
X003885Y001333D02*
X003820Y001309D01*
X026471Y001309D01*
X026406Y001333D01*
X026251Y001405D01*
X026104Y001490D01*
X025964Y001588D01*
X025834Y001697D01*
X025713Y001818D01*
X025604Y001948D01*
X025506Y002088D01*
X025421Y002236D01*
X025349Y002390D01*
X025290Y002550D01*
X025246Y002715D01*
X025217Y002883D01*
X025202Y003052D01*
X025202Y003058D01*
X027073Y003058D01*
X027073Y003218D01*
X027073Y005089D01*
X027068Y005089D01*
X026898Y005074D01*
X026731Y005045D01*
X026566Y005001D01*
X026406Y004942D01*
X026251Y004870D01*
X026104Y004785D01*
X025964Y004687D01*
X025834Y004578D01*
X025713Y004457D01*
X025604Y004327D01*
X025506Y004187D01*
X025421Y004040D01*
X025349Y003885D01*
X025290Y003725D01*
X025246Y003560D01*
X025217Y003393D01*
X025202Y003223D01*
X025202Y003218D01*
X027073Y003218D01*
X027233Y003218D01*
X027233Y005089D01*
X027239Y005089D01*
X027408Y005074D01*
X027576Y005045D01*
X027741Y005001D01*
X027901Y004942D01*
X028055Y004870D01*
X028203Y004785D01*
X028343Y004687D01*
X028473Y004578D01*
X028594Y004457D01*
X028703Y004327D01*
X028801Y004187D01*
X028886Y004040D01*
X028958Y003885D01*
X029016Y003725D01*
X029049Y003603D01*
X029082Y003725D01*
X029140Y003885D01*
X029212Y004040D01*
X029297Y004187D01*
X029395Y004327D01*
X029504Y004457D01*
X029625Y004578D01*
X029755Y004687D01*
X029895Y004785D01*
X030043Y004870D01*
X030197Y004942D01*
X030357Y005001D01*
X030522Y005045D01*
X030690Y005074D01*
X030859Y005089D01*
X030865Y005089D01*
X030865Y003218D01*
X031025Y003218D01*
X031025Y005089D01*
X031030Y005089D01*
X031200Y005074D01*
X031368Y005045D01*
X031532Y005001D01*
X031692Y004942D01*
X031847Y004870D01*
X031994Y004785D01*
X032134Y004687D01*
X032264Y004578D01*
X032385Y004457D01*
X032495Y004327D01*
X032592Y004187D01*
X032677Y004040D01*
X032749Y003885D01*
X032808Y003725D01*
X032852Y003560D01*
X032881Y003393D01*
X032896Y003223D01*
X032896Y003218D01*
X031025Y003218D01*
X031025Y003058D01*
X032896Y003058D01*
X032896Y003052D01*
X032881Y002883D01*
X032852Y002715D01*
X032808Y002550D01*
X032749Y002390D01*
X032677Y002236D01*
X032592Y002088D01*
X032495Y001948D01*
X032385Y001818D01*
X032264Y001697D01*
X032134Y001588D01*
X031994Y001490D01*
X031847Y001405D01*
X031692Y001333D01*
X031627Y001309D01*
X043794Y001309D01*
X043729Y001333D01*
X043574Y001405D01*
X043427Y001490D01*
X043287Y001588D01*
X043156Y001697D01*
X043036Y001818D01*
X042926Y001948D01*
X042829Y002088D01*
X042743Y002236D01*
X042671Y002390D01*
X042613Y002550D01*
X042569Y002715D01*
X042539Y002883D01*
X042525Y003052D01*
X042525Y003058D01*
X044396Y003058D01*
X044396Y003218D01*
X044396Y005089D01*
X044391Y005089D01*
X044221Y005074D01*
X044053Y005045D01*
X043889Y005001D01*
X043729Y004942D01*
X043574Y004870D01*
X043427Y004785D01*
X043287Y004687D01*
X043156Y004578D01*
X043036Y004457D01*
X042926Y004327D01*
X042829Y004187D01*
X042743Y004040D01*
X042671Y003885D01*
X042613Y003725D01*
X042569Y003560D01*
X042539Y003393D01*
X042525Y003223D01*
X042525Y003218D01*
X044396Y003218D01*
X044556Y003218D01*
X044556Y005089D01*
X044561Y005089D01*
X044731Y005074D01*
X044899Y005045D01*
X045064Y005001D01*
X045224Y004942D01*
X045378Y004870D01*
X045526Y004785D01*
X045665Y004687D01*
X045796Y004578D01*
X045916Y004457D01*
X046026Y004327D01*
X046124Y004187D01*
X046209Y004040D01*
X046281Y003885D01*
X046339Y003725D01*
X046383Y003560D01*
X046413Y003393D01*
X046428Y003223D01*
X046428Y003218D01*
X044556Y003218D01*
X044556Y003058D01*
X046428Y003058D01*
X046428Y003052D01*
X046413Y002883D01*
X046383Y002715D01*
X046339Y002550D01*
X046281Y002390D01*
X046209Y002236D01*
X046124Y002088D01*
X046026Y001948D01*
X045916Y001818D01*
X045796Y001697D01*
X045665Y001588D01*
X045526Y001490D01*
X045378Y001405D01*
X045224Y001333D01*
X045158Y001309D01*
X061904Y001309D01*
X061839Y001333D01*
X061684Y001405D01*
X061537Y001490D01*
X061397Y001588D01*
X061267Y001697D01*
X061146Y001818D01*
X061037Y001948D01*
X060939Y002088D01*
X060854Y002236D01*
X060782Y002390D01*
X060723Y002550D01*
X060679Y002715D01*
X060650Y002883D01*
X060635Y003052D01*
X060635Y003058D01*
X062506Y003058D01*
X062506Y003218D01*
X060635Y003218D01*
X060635Y003223D01*
X060650Y003393D01*
X060679Y003560D01*
X060723Y003725D01*
X060782Y003885D01*
X060854Y004040D01*
X060939Y004187D01*
X061037Y004327D01*
X061146Y004457D01*
X061267Y004578D01*
X061397Y004687D01*
X061537Y004785D01*
X061684Y004870D01*
X061839Y004942D01*
X061999Y005001D01*
X062164Y005045D01*
X062331Y005074D01*
X062501Y005089D01*
X062506Y005089D01*
X062506Y003218D01*
X062666Y003218D01*
X062666Y005089D01*
X062672Y005089D01*
X062841Y005074D01*
X063009Y005045D01*
X063174Y005001D01*
X063334Y004942D01*
X063488Y004870D01*
X063636Y004785D01*
X063776Y004687D01*
X063906Y004578D01*
X064027Y004457D01*
X064136Y004327D01*
X064234Y004187D01*
X064319Y004040D01*
X064391Y003885D01*
X064415Y003820D01*
X064415Y006635D01*
X062426Y006635D01*
X062125Y006635D01*
X061835Y006713D01*
X061728Y006775D01*
X061275Y006775D01*
X061275Y007228D01*
X061213Y007335D01*
X061135Y007625D01*
X061135Y009559D01*
X061020Y009462D01*
X060880Y009364D01*
X060733Y009279D01*
X060578Y009207D01*
X060418Y009149D01*
X060253Y009104D01*
X060086Y009075D01*
X059916Y009060D01*
X059910Y009060D01*
X059910Y010931D01*
X059751Y010931D01*
X059751Y009060D01*
X059745Y009060D01*
X059576Y009075D01*
X059408Y009104D01*
X059243Y009149D01*
X059083Y009207D01*
X058929Y009279D01*
X058781Y009364D01*
X058641Y009462D01*
X058511Y009571D01*
X058390Y009692D01*
X058281Y009822D01*
X058183Y009962D01*
X058098Y010110D01*
X058026Y010264D01*
X057967Y010424D01*
X057923Y010589D01*
X057894Y010757D01*
X057879Y010926D01*
X057879Y010932D01*
X059750Y010932D01*
X059750Y011092D01*
X057879Y011092D01*
X057879Y011097D01*
X057894Y011267D01*
X057923Y011434D01*
X057967Y011599D01*
X058026Y011759D01*
X058098Y011914D01*
X058183Y012061D01*
X058281Y012201D01*
X058390Y012331D01*
X058511Y012452D01*
X058641Y012561D01*
X058781Y012659D01*
X058929Y012744D01*
X059083Y012816D01*
X059243Y012875D01*
X059408Y012919D01*
X059576Y012948D01*
X059745Y012963D01*
X059751Y012963D01*
X059751Y011092D01*
X059910Y011092D01*
X059910Y012963D01*
X059916Y012963D01*
X060086Y012948D01*
X060253Y012919D01*
X060418Y012875D01*
X060578Y012816D01*
X060733Y012744D01*
X060880Y012659D01*
X061020Y012561D01*
X061135Y012464D01*
X061135Y014413D01*
X061135Y014713D01*
X061213Y015003D01*
X061275Y015111D01*
X061275Y015563D01*
X061728Y015563D01*
X061835Y015625D01*
X062125Y015703D01*
X064415Y015703D01*
X064415Y018203D01*
X064391Y018138D01*
X064319Y017984D01*
X064234Y017836D01*
X064136Y017696D01*
X064027Y017566D01*
X063906Y017445D01*
X063776Y017336D01*
X063636Y017238D01*
X063488Y017153D01*
X063334Y017081D01*
X063174Y017023D01*
X063009Y016978D01*
X062841Y016949D01*
X062672Y016934D01*
X062666Y016934D01*
X062666Y018805D01*
X062506Y018805D01*
X062506Y016934D01*
X062501Y016934D01*
X062331Y016949D01*
X062164Y016978D01*
X061999Y017023D01*
X061839Y017081D01*
X061684Y017153D01*
X061537Y017238D01*
X061397Y017336D01*
X061267Y017445D01*
X061146Y017566D01*
X061037Y017696D01*
X060939Y017836D01*
X060854Y017984D01*
X060782Y018138D01*
X060723Y018298D01*
X060679Y018463D01*
X060650Y018631D01*
X060635Y018800D01*
X060635Y018806D01*
X062506Y018806D01*
X062506Y018966D01*
X060635Y018966D01*
X060635Y018971D01*
X060650Y019141D01*
X060679Y019308D01*
X060723Y019473D01*
X060782Y019633D01*
X060854Y019788D01*
X060939Y019935D01*
X061037Y020075D01*
X061146Y020205D01*
X061267Y020326D01*
X061397Y020435D01*
X061537Y020533D01*
X061684Y020618D01*
X061839Y020690D01*
X061904Y020714D01*
X045158Y020714D01*
X045224Y020690D01*
X045378Y020618D01*
X045526Y020533D01*
X045665Y020435D01*
X045796Y020326D01*
X045916Y020205D01*
X046026Y020075D01*
X046124Y019935D01*
X046209Y019788D01*
X046281Y019633D01*
X046339Y019473D01*
X046383Y019308D01*
X046413Y019141D01*
X046428Y018971D01*
X046428Y018966D01*
X044556Y018966D01*
X044556Y018806D01*
X046428Y018806D01*
X046428Y018800D01*
X046413Y018631D01*
X046383Y018463D01*
X046339Y018298D01*
X046281Y018138D01*
X046209Y017984D01*
X046124Y017836D01*
X046026Y017696D01*
X045916Y017566D01*
X045796Y017445D01*
X045665Y017336D01*
X045526Y017238D01*
X045378Y017153D01*
X045224Y017081D01*
X045064Y017023D01*
X044899Y016978D01*
X044731Y016949D01*
X044561Y016934D01*
X044556Y016934D01*
X044556Y018805D01*
X044396Y018805D01*
X044396Y016934D01*
X044391Y016934D01*
X044221Y016949D01*
X044053Y016978D01*
X043889Y017023D01*
X043729Y017081D01*
X043574Y017153D01*
X043427Y017238D01*
X043287Y017336D01*
X043156Y017445D01*
X043036Y017566D01*
X042926Y017696D01*
X042829Y017836D01*
X042743Y017984D01*
X042671Y018138D01*
X042613Y018298D01*
X042569Y018463D01*
X042539Y018631D01*
X042525Y018800D01*
X042525Y018806D01*
X044396Y018806D01*
X044396Y018966D01*
X042525Y018966D01*
X042525Y018971D01*
X042539Y019141D01*
X042569Y019308D01*
X042613Y019473D01*
X042671Y019633D01*
X042743Y019788D01*
X042829Y019935D01*
X042926Y020075D01*
X043036Y020205D01*
X043156Y020326D01*
X043287Y020435D01*
X043427Y020533D01*
X043574Y020618D01*
X043729Y020690D01*
X043794Y020714D01*
X031627Y020714D01*
X031692Y020690D01*
X031847Y020618D01*
X031994Y020533D01*
X032134Y020435D01*
X032264Y020326D01*
X032385Y020205D01*
X032495Y020075D01*
X032592Y019935D01*
X032677Y019788D01*
X032749Y019633D01*
X032808Y019473D01*
X032852Y019308D01*
X032881Y019141D01*
X032896Y018971D01*
X032896Y018966D01*
X031025Y018966D01*
X031025Y018806D01*
X032896Y018806D01*
X032896Y018800D01*
X032881Y018631D01*
X032852Y018463D01*
X032808Y018298D01*
X032749Y018138D01*
X032677Y017984D01*
X032592Y017836D01*
X032495Y017696D01*
X032385Y017566D01*
X032264Y017445D01*
X032134Y017336D01*
X031994Y017238D01*
X031847Y017153D01*
X031692Y017081D01*
X031532Y017023D01*
X031368Y016978D01*
X031200Y016949D01*
X031030Y016934D01*
X031025Y016934D01*
X031025Y018805D01*
X030865Y018805D01*
X030865Y016934D01*
X030859Y016934D01*
X030690Y016949D01*
X030522Y016978D01*
X030357Y017023D01*
X030197Y017081D01*
X030043Y017153D01*
X029895Y017238D01*
X029755Y017336D01*
X029625Y017445D01*
X029504Y017566D01*
X029395Y017696D01*
X029297Y017836D01*
X029212Y017984D01*
X029140Y018138D01*
X029082Y018298D01*
X029049Y018420D01*
X029016Y018298D01*
X028958Y018138D01*
X028886Y017984D01*
X028801Y017836D01*
X028703Y017696D01*
X028594Y017566D01*
X028473Y017445D01*
X028343Y017336D01*
X028203Y017238D01*
X028055Y017153D01*
X027901Y017081D01*
X027741Y017023D01*
X027576Y016978D01*
X027408Y016949D01*
X027239Y016934D01*
X027233Y016934D01*
X027233Y018805D01*
X027073Y018805D01*
X027073Y016934D01*
X027068Y016934D01*
X026898Y016949D01*
X026731Y016978D01*
X026566Y017023D01*
X026406Y017081D01*
X026251Y017153D01*
X026104Y017238D01*
X025964Y017336D01*
X025834Y017445D01*
X025713Y017566D01*
X025604Y017696D01*
X025506Y017836D01*
X025421Y017984D01*
X025349Y018138D01*
X025290Y018298D01*
X025246Y018463D01*
X025217Y018631D01*
X025202Y018800D01*
X025202Y018806D01*
X027073Y018806D01*
X027073Y018966D01*
X025202Y018966D01*
X025202Y018971D01*
X025217Y019141D01*
X025246Y019308D01*
X025290Y019473D01*
X025349Y019633D01*
X025421Y019788D01*
X025506Y019935D01*
X025604Y020075D01*
X025713Y020205D01*
X025834Y020326D01*
X025964Y020435D01*
X026104Y020533D01*
X026251Y020618D01*
X026406Y020690D01*
X026471Y020714D01*
X003820Y020714D01*
X003885Y020690D01*
X004040Y020618D01*
X004187Y020533D01*
X004327Y020435D01*
X004457Y020326D01*
X004578Y020205D01*
X004687Y020075D01*
X004785Y019935D01*
X004870Y019788D01*
X004942Y019633D01*
X005001Y019473D01*
X005045Y019308D01*
X005074Y019141D01*
X005089Y018971D01*
X005089Y018966D01*
X003218Y018966D01*
X003218Y018806D01*
X005089Y018806D01*
X005089Y018800D01*
X005074Y018631D01*
X005045Y018463D01*
X005001Y018298D01*
X004942Y018138D01*
X004870Y017984D01*
X004785Y017836D01*
X004687Y017696D01*
X004578Y017566D01*
X004457Y017445D01*
X004327Y017336D01*
X004187Y017238D01*
X004040Y017153D01*
X003885Y017081D01*
X003725Y017023D01*
X003560Y016978D01*
X003393Y016949D01*
X003223Y016934D01*
X003218Y016934D01*
X003218Y018805D01*
X003058Y018805D01*
X003058Y016934D01*
X003052Y016934D01*
X002883Y016949D01*
X002715Y016978D01*
X002550Y017023D01*
X002390Y017081D01*
X002236Y017153D01*
X002088Y017238D01*
X001948Y017336D01*
X001818Y017445D01*
X001697Y017566D01*
X001588Y017696D01*
X001490Y017836D01*
X001405Y017984D01*
X001333Y018138D01*
X001309Y018203D01*
X001309Y003820D01*
X001333Y003885D01*
X001405Y004040D01*
X001490Y004187D01*
X001588Y004327D01*
X001697Y004457D01*
X001818Y004578D01*
X001948Y004687D01*
X002088Y004785D01*
X002236Y004870D01*
X002390Y004942D01*
X002550Y005001D01*
X002715Y005045D01*
X002883Y005074D01*
X003052Y005089D01*
X003058Y005089D01*
X003058Y003218D01*
X003218Y003218D01*
X003218Y005089D01*
X003223Y005089D01*
X003393Y005074D01*
X003560Y005045D01*
X003725Y005001D01*
X003885Y004942D01*
X004040Y004870D01*
X004187Y004785D01*
X004327Y004687D01*
X004457Y004578D01*
X004578Y004457D01*
X004687Y004327D01*
X004785Y004187D01*
X004870Y004040D01*
X004942Y003885D01*
X005001Y003725D01*
X005045Y003560D01*
X005074Y003393D01*
X005089Y003223D01*
X005089Y003218D01*
X003218Y003218D01*
X003218Y003058D01*
X005089Y003058D01*
X005089Y003052D01*
X005074Y002883D01*
X005045Y002715D01*
X005001Y002550D01*
X004942Y002390D01*
X004870Y002236D01*
X004785Y002088D01*
X004687Y001948D01*
X004578Y001818D01*
X004457Y001697D01*
X004327Y001588D01*
X004187Y001490D01*
X004040Y001405D01*
X003885Y001333D01*
X003871Y001328D02*
X026420Y001328D01*
X026110Y001486D02*
X020408Y001486D01*
X020372Y001471D02*
X020600Y001566D01*
X024696Y005661D01*
X032502Y005661D01*
X052162Y005661D01*
X053287Y004536D01*
X051440Y004536D01*
X051322Y004488D01*
X051232Y004398D01*
X051184Y004280D01*
X051184Y002153D01*
X051232Y002035D01*
X051322Y001945D01*
X051440Y001896D01*
X056567Y001896D01*
X056685Y001945D01*
X056775Y002035D01*
X056824Y002153D01*
X056824Y004280D01*
X056775Y004398D01*
X056685Y004488D01*
X056567Y004536D01*
X055034Y004536D01*
X055029Y004548D01*
X054855Y004722D01*
X052945Y006632D01*
X052945Y006633D01*
X052770Y006807D01*
X052542Y006901D01*
X033245Y006901D01*
X033245Y009635D01*
X033151Y009863D01*
X032976Y010037D01*
X032748Y010132D01*
X032502Y010132D01*
X032274Y010037D01*
X032099Y009863D01*
X032005Y009635D01*
X032005Y006901D01*
X024316Y006901D01*
X024088Y006807D01*
X023914Y006633D01*
X023914Y006632D01*
X019992Y002711D01*
X010086Y002711D01*
X007085Y005713D01*
X018613Y005713D01*
X018820Y005713D01*
X019011Y005792D01*
X020451Y007232D01*
X020597Y007378D01*
X020676Y007569D01*
X020676Y012278D01*
X020676Y012485D01*
X020597Y012676D01*
X017620Y015653D01*
X017698Y015840D01*
X017698Y016098D01*
X017629Y016263D01*
X018185Y016263D01*
X018109Y016081D01*
X018109Y015822D01*
X018208Y015583D01*
X018391Y015400D01*
X018630Y015301D01*
X018888Y015301D01*
X019127Y015400D01*
X019310Y015583D01*
X019409Y015822D01*
X019409Y016081D01*
X019310Y016320D01*
X019127Y016502D01*
X018888Y016601D01*
X018630Y016601D01*
X018508Y016551D01*
X018508Y019047D01*
X018459Y019165D01*
X018369Y019255D01*
X018251Y019303D01*
X013057Y019303D01*
X013027Y019377D01*
X012914Y019490D01*
X011946Y020458D01*
X011799Y020519D01*
X011640Y020519D01*
X009315Y020519D01*
X009168Y020458D01*
X009055Y020346D01*
X008205Y019496D01*
X008144Y019349D01*
X008144Y019190D01*
X008144Y018501D01*
X008089Y018571D01*
X007995Y018665D01*
X007891Y018747D01*
X007779Y018818D01*
X007660Y018875D01*
X007535Y018919D01*
X007406Y018948D01*
X007287Y018962D01*
X007287Y017863D01*
X007128Y017863D01*
X007128Y018962D01*
X007010Y018948D01*
X006880Y018919D01*
X006755Y018875D01*
X006636Y018818D01*
X006524Y018747D01*
X006420Y018665D01*
X006326Y018571D01*
X006244Y018467D01*
X006173Y018355D01*
X006116Y018236D01*
X006072Y018110D01*
X006042Y017981D01*
X006029Y017863D01*
X007127Y017863D01*
X007127Y017703D01*
X006029Y017703D01*
X006042Y017585D01*
X006072Y017456D01*
X006116Y017331D01*
X006173Y017212D01*
X006244Y017099D01*
X006326Y016996D01*
X006420Y016902D01*
X006524Y016819D01*
X006636Y016749D01*
X006755Y016691D01*
X006880Y016648D01*
X007010Y016618D01*
X007128Y016605D01*
X007128Y017703D01*
X007287Y017703D01*
X007287Y016605D01*
X007406Y016618D01*
X007535Y016648D01*
X007660Y016691D01*
X007779Y016749D01*
X007891Y016819D01*
X007995Y016902D01*
X008089Y016996D01*
X008144Y017065D01*
X008144Y015187D01*
X007966Y015187D01*
X007776Y015108D01*
X007630Y014963D01*
X007551Y014772D01*
X007551Y014566D01*
X007630Y014376D01*
X007776Y014230D01*
X007966Y014151D01*
X008144Y014151D01*
X008144Y007352D01*
X008105Y007313D01*
X008026Y007122D01*
X008026Y006916D01*
X008094Y006752D01*
X006794Y006752D01*
X006603Y006673D01*
X006457Y006527D01*
X006402Y006395D01*
X004759Y008038D01*
X004759Y013881D01*
X005421Y013881D01*
X005494Y013851D01*
X005752Y013851D01*
X005991Y013950D01*
X006174Y014133D01*
X006273Y014372D01*
X006273Y014631D01*
X006174Y014870D01*
X005991Y015052D01*
X005752Y015151D01*
X005494Y015151D01*
X005421Y015121D01*
X004016Y015121D01*
X003788Y015027D01*
X003614Y014853D01*
X003519Y014625D01*
X003519Y014378D01*
X003519Y007905D01*
X003519Y007658D01*
X003614Y007430D01*
X009478Y001566D01*
X009706Y001471D01*
X009952Y001471D01*
X020126Y001471D01*
X020372Y001471D01*
X020679Y001645D02*
X025896Y001645D01*
X025728Y001803D02*
X020838Y001803D01*
X020996Y001962D02*
X025594Y001962D01*
X025487Y002120D02*
X021155Y002120D01*
X021314Y002279D02*
X025400Y002279D01*
X025331Y002437D02*
X021472Y002437D01*
X021631Y002596D02*
X025278Y002596D01*
X025239Y002755D02*
X021789Y002755D01*
X021948Y002913D02*
X025214Y002913D01*
X025202Y003230D02*
X022265Y003230D01*
X022423Y003389D02*
X025216Y003389D01*
X025244Y003547D02*
X022582Y003547D01*
X022740Y003706D02*
X025285Y003706D01*
X025341Y003864D02*
X022899Y003864D01*
X023057Y004023D02*
X025413Y004023D01*
X025502Y004181D02*
X023216Y004181D01*
X023375Y004340D02*
X025615Y004340D01*
X025754Y004499D02*
X023533Y004499D01*
X023692Y004657D02*
X025928Y004657D01*
X026156Y004816D02*
X023850Y004816D01*
X024009Y004974D02*
X026493Y004974D01*
X027073Y004974D02*
X027233Y004974D01*
X027233Y004816D02*
X027073Y004816D01*
X027073Y004657D02*
X027233Y004657D01*
X027233Y004499D02*
X027073Y004499D01*
X027073Y004340D02*
X027233Y004340D01*
X027233Y004181D02*
X027073Y004181D01*
X027073Y004023D02*
X027233Y004023D01*
X027233Y003864D02*
X027073Y003864D01*
X027073Y003706D02*
X027233Y003706D01*
X027233Y003547D02*
X027073Y003547D01*
X027073Y003389D02*
X027233Y003389D01*
X027233Y003230D02*
X027073Y003230D01*
X027073Y003072D02*
X022106Y003072D01*
X020987Y003706D02*
X017905Y003706D01*
X017828Y003783D02*
X017991Y003620D01*
X018079Y003407D01*
X018079Y003176D01*
X017991Y002963D01*
X017828Y002800D01*
X017614Y002711D01*
X017384Y002711D01*
X017171Y002800D01*
X017007Y002963D01*
X016919Y003176D01*
X016919Y003407D01*
X017007Y003620D01*
X017171Y003783D01*
X017384Y003871D01*
X017614Y003871D01*
X017828Y003783D01*
X017631Y003864D02*
X021145Y003864D01*
X021304Y004023D02*
X008774Y004023D01*
X008616Y004181D02*
X021462Y004181D01*
X021621Y004340D02*
X008457Y004340D01*
X008299Y004499D02*
X021780Y004499D01*
X021938Y004657D02*
X008140Y004657D01*
X007982Y004816D02*
X022097Y004816D01*
X022255Y004974D02*
X007823Y004974D01*
X007665Y005133D02*
X022414Y005133D01*
X022572Y005291D02*
X007506Y005291D01*
X007347Y005450D02*
X022731Y005450D01*
X022889Y005608D02*
X007189Y005608D01*
X005911Y005133D02*
X001309Y005133D01*
X001309Y005291D02*
X005752Y005291D01*
X005594Y005450D02*
X001309Y005450D01*
X001309Y005608D02*
X005435Y005608D01*
X005277Y005767D02*
X001309Y005767D01*
X001309Y005925D02*
X005118Y005925D01*
X004960Y006084D02*
X001309Y006084D01*
X001309Y006243D02*
X004801Y006243D01*
X004643Y006401D02*
X001309Y006401D01*
X001309Y006560D02*
X004484Y006560D01*
X004325Y006718D02*
X001309Y006718D01*
X001309Y006877D02*
X004167Y006877D01*
X004008Y007035D02*
X001309Y007035D01*
X001309Y007194D02*
X003850Y007194D01*
X003691Y007352D02*
X001309Y007352D01*
X001309Y007511D02*
X003580Y007511D01*
X003519Y007669D02*
X001309Y007669D01*
X001309Y007828D02*
X003519Y007828D01*
X003519Y007986D02*
X001309Y007986D01*
X001309Y008145D02*
X003519Y008145D01*
X003519Y008304D02*
X001309Y008304D01*
X001309Y008462D02*
X003519Y008462D01*
X003519Y008621D02*
X001309Y008621D01*
X001309Y008779D02*
X003519Y008779D01*
X003519Y008938D02*
X001309Y008938D01*
X001309Y009096D02*
X003519Y009096D01*
X003519Y009255D02*
X001309Y009255D01*
X001309Y009413D02*
X003519Y009413D01*
X003519Y009572D02*
X001309Y009572D01*
X001309Y009730D02*
X003519Y009730D01*
X003519Y009889D02*
X001309Y009889D01*
X001309Y010048D02*
X003519Y010048D01*
X003519Y010206D02*
X001309Y010206D01*
X001309Y010365D02*
X003519Y010365D01*
X003519Y010523D02*
X001309Y010523D01*
X001309Y010682D02*
X003519Y010682D01*
X003519Y010840D02*
X001309Y010840D01*
X001309Y010999D02*
X003519Y010999D01*
X003519Y011157D02*
X001309Y011157D01*
X001309Y011316D02*
X003519Y011316D01*
X003519Y011474D02*
X001309Y011474D01*
X001309Y011633D02*
X003519Y011633D01*
X003519Y011792D02*
X001309Y011792D01*
X001309Y011950D02*
X003519Y011950D01*
X003519Y012109D02*
X001309Y012109D01*
X001309Y012267D02*
X003519Y012267D01*
X003519Y012426D02*
X001309Y012426D01*
X001309Y012584D02*
X003519Y012584D01*
X003519Y012743D02*
X001309Y012743D01*
X001309Y012901D02*
X003519Y012901D01*
X003519Y013060D02*
X001309Y013060D01*
X001309Y013218D02*
X003519Y013218D01*
X003519Y013377D02*
X001309Y013377D01*
X001309Y013536D02*
X003519Y013536D01*
X003519Y013694D02*
X001309Y013694D01*
X001309Y013853D02*
X003519Y013853D01*
X003519Y014011D02*
X001309Y014011D01*
X001309Y014170D02*
X003519Y014170D01*
X003519Y014328D02*
X001309Y014328D01*
X001309Y014487D02*
X003519Y014487D01*
X003528Y014645D02*
X001309Y014645D01*
X001309Y014804D02*
X003593Y014804D01*
X003723Y014962D02*
X001309Y014962D01*
X001309Y015121D02*
X004015Y015121D01*
X005826Y015121D02*
X007806Y015121D01*
X007630Y014962D02*
X006081Y014962D01*
X006201Y014804D02*
X007564Y014804D01*
X007551Y014645D02*
X006267Y014645D01*
X006273Y014487D02*
X007584Y014487D01*
X007677Y014328D02*
X006255Y014328D01*
X006189Y014170D02*
X007921Y014170D01*
X008144Y014011D02*
X006052Y014011D01*
X005755Y013853D02*
X008144Y013853D01*
X008144Y013694D02*
X004759Y013694D01*
X004759Y013536D02*
X008144Y013536D01*
X008144Y013377D02*
X004759Y013377D01*
X004759Y013218D02*
X008144Y013218D01*
X008144Y013060D02*
X004759Y013060D01*
X004759Y012901D02*
X008144Y012901D01*
X008144Y012743D02*
X004759Y012743D01*
X004759Y012584D02*
X008144Y012584D01*
X008144Y012426D02*
X004759Y012426D01*
X004759Y012267D02*
X008144Y012267D01*
X008144Y012109D02*
X004759Y012109D01*
X004759Y011950D02*
X008144Y011950D01*
X008144Y011792D02*
X004759Y011792D01*
X004759Y011633D02*
X008144Y011633D01*
X008144Y011474D02*
X004759Y011474D01*
X004759Y011316D02*
X008144Y011316D01*
X008144Y011157D02*
X004759Y011157D01*
X004759Y010999D02*
X008144Y010999D01*
X008144Y010840D02*
X004759Y010840D01*
X004759Y010682D02*
X008144Y010682D01*
X008144Y010523D02*
X004759Y010523D01*
X004759Y010365D02*
X008144Y010365D01*
X008144Y010206D02*
X004759Y010206D01*
X004759Y010048D02*
X008144Y010048D01*
X008144Y009889D02*
X004759Y009889D01*
X004759Y009730D02*
X008144Y009730D01*
X008144Y009572D02*
X004759Y009572D01*
X004759Y009413D02*
X008144Y009413D01*
X008144Y009255D02*
X004759Y009255D01*
X004759Y009096D02*
X008144Y009096D01*
X008144Y008938D02*
X004759Y008938D01*
X004759Y008779D02*
X008144Y008779D01*
X008144Y008621D02*
X004759Y008621D01*
X004759Y008462D02*
X008144Y008462D01*
X008144Y008304D02*
X004759Y008304D01*
X004759Y008145D02*
X008144Y008145D01*
X008144Y007986D02*
X004811Y007986D01*
X004969Y007828D02*
X008144Y007828D01*
X008144Y007669D02*
X005128Y007669D01*
X005286Y007511D02*
X008144Y007511D01*
X008144Y007352D02*
X005445Y007352D01*
X005603Y007194D02*
X008056Y007194D01*
X008026Y007035D02*
X005762Y007035D01*
X005921Y006877D02*
X008042Y006877D01*
X008544Y007019D02*
X008544Y014669D01*
X008544Y019269D01*
X009394Y020119D01*
X011719Y020119D01*
X012688Y019151D01*
X012688Y018343D01*
X011608Y018343D02*
X011608Y019031D01*
X011219Y019419D01*
X009544Y019419D01*
X009144Y019019D01*
X009144Y014669D01*
X009144Y007444D01*
X009612Y007669D02*
X019022Y007669D01*
X019066Y007651D02*
X018876Y007730D01*
X018730Y007876D01*
X018651Y008066D01*
X018651Y008071D01*
X018543Y008071D01*
X018353Y008149D01*
X018314Y008189D01*
X014431Y008189D01*
X014272Y008189D01*
X014125Y008250D01*
X010841Y011534D01*
X010728Y011646D01*
X010668Y011793D01*
X010668Y016263D01*
X009544Y016263D01*
X009544Y014876D01*
X009587Y014772D01*
X009587Y014566D01*
X009544Y014462D01*
X009544Y007777D01*
X009583Y007738D01*
X009662Y007547D01*
X009662Y007341D01*
X009583Y007151D01*
X009438Y007005D01*
X009247Y006926D01*
X009062Y006926D01*
X009062Y006916D01*
X008994Y006752D01*
X018501Y006752D01*
X019637Y007888D01*
X019637Y007944D01*
X019608Y007876D01*
X019463Y007730D01*
X019272Y007651D01*
X019066Y007651D01*
X019259Y007511D02*
X009662Y007511D01*
X009662Y007352D02*
X019101Y007352D01*
X018942Y007194D02*
X009601Y007194D01*
X009468Y007035D02*
X018784Y007035D01*
X018625Y006877D02*
X009046Y006877D01*
X006712Y006718D02*
X006079Y006718D01*
X006238Y006560D02*
X006490Y006560D01*
X006405Y006401D02*
X006396Y006401D01*
X006069Y004974D02*
X003798Y004974D01*
X004135Y004816D02*
X006228Y004816D01*
X006387Y004657D02*
X004363Y004657D01*
X004537Y004499D02*
X006545Y004499D01*
X006704Y004340D02*
X004676Y004340D01*
X004789Y004181D02*
X006862Y004181D01*
X007021Y004023D02*
X004878Y004023D01*
X004950Y003864D02*
X007179Y003864D01*
X007338Y003706D02*
X005006Y003706D01*
X005047Y003547D02*
X007496Y003547D01*
X007655Y003389D02*
X005075Y003389D01*
X005089Y003230D02*
X007813Y003230D01*
X007972Y003072D02*
X003218Y003072D01*
X003218Y003230D02*
X003058Y003230D01*
X003058Y003389D02*
X003218Y003389D01*
X003218Y003547D02*
X003058Y003547D01*
X003058Y003706D02*
X003218Y003706D01*
X003218Y003864D02*
X003058Y003864D01*
X003058Y004023D02*
X003218Y004023D01*
X003218Y004181D02*
X003058Y004181D01*
X003058Y004340D02*
X003218Y004340D01*
X003218Y004499D02*
X003058Y004499D01*
X003058Y004657D02*
X003218Y004657D01*
X003218Y004816D02*
X003058Y004816D01*
X003058Y004974D02*
X003218Y004974D01*
X002477Y004974D02*
X001309Y004974D01*
X001309Y004816D02*
X002141Y004816D01*
X001912Y004657D02*
X001309Y004657D01*
X001309Y004499D02*
X001739Y004499D01*
X001599Y004340D02*
X001309Y004340D01*
X001309Y004181D02*
X001487Y004181D01*
X001397Y004023D02*
X001309Y004023D01*
X001309Y003864D02*
X001325Y003864D01*
X005077Y002913D02*
X008131Y002913D01*
X008289Y002755D02*
X005052Y002755D01*
X005013Y002596D02*
X008448Y002596D01*
X008606Y002437D02*
X004960Y002437D01*
X004891Y002279D02*
X008765Y002279D01*
X008923Y002120D02*
X004804Y002120D01*
X004697Y001962D02*
X009082Y001962D01*
X009240Y001803D02*
X004563Y001803D01*
X004395Y001645D02*
X009399Y001645D01*
X009670Y001486D02*
X004181Y001486D01*
X009409Y003389D02*
X015019Y003389D01*
X015019Y003407D02*
X015019Y003176D01*
X015107Y002963D01*
X015271Y002800D01*
X015484Y002711D01*
X015714Y002711D01*
X015928Y002800D01*
X016091Y002963D01*
X016179Y003176D01*
X016179Y003407D01*
X016091Y003620D01*
X015928Y003783D01*
X015714Y003871D01*
X015484Y003871D01*
X015271Y003783D01*
X015107Y003620D01*
X015019Y003407D01*
X015077Y003547D02*
X009250Y003547D01*
X009091Y003706D02*
X015193Y003706D01*
X015467Y003864D02*
X008933Y003864D01*
X009567Y003230D02*
X015019Y003230D01*
X015062Y003072D02*
X009726Y003072D01*
X009884Y002913D02*
X015157Y002913D01*
X015379Y002755D02*
X010043Y002755D01*
X015731Y003864D02*
X017367Y003864D01*
X017093Y003706D02*
X016005Y003706D01*
X016121Y003547D02*
X016977Y003547D01*
X016919Y003389D02*
X016179Y003389D01*
X016179Y003230D02*
X016919Y003230D01*
X016962Y003072D02*
X016136Y003072D01*
X016041Y002913D02*
X017057Y002913D01*
X017279Y002755D02*
X015819Y002755D01*
X017719Y002755D02*
X020036Y002755D01*
X020194Y002913D02*
X017941Y002913D01*
X018036Y003072D02*
X020353Y003072D01*
X020511Y003230D02*
X018079Y003230D01*
X018079Y003389D02*
X020670Y003389D01*
X020828Y003547D02*
X018021Y003547D01*
X018951Y005767D02*
X023048Y005767D01*
X023206Y005925D02*
X019144Y005925D01*
X019303Y006084D02*
X023365Y006084D01*
X023524Y006243D02*
X019462Y006243D01*
X019620Y006401D02*
X023682Y006401D01*
X023841Y006560D02*
X019779Y006560D01*
X019937Y006718D02*
X023999Y006718D01*
X024256Y006877D02*
X020096Y006877D01*
X020254Y007035D02*
X032005Y007035D01*
X032005Y007194D02*
X020413Y007194D01*
X020571Y007352D02*
X032005Y007352D01*
X032005Y007511D02*
X020652Y007511D01*
X020676Y007669D02*
X032005Y007669D01*
X032005Y007828D02*
X020676Y007828D01*
X020676Y007986D02*
X032005Y007986D01*
X032005Y008145D02*
X020676Y008145D01*
X020676Y008304D02*
X032005Y008304D01*
X032005Y008462D02*
X020676Y008462D01*
X020676Y008621D02*
X026397Y008621D01*
X026444Y008601D02*
X026806Y008601D01*
X027141Y008740D01*
X027397Y008996D01*
X027536Y009331D01*
X027536Y009678D01*
X027536Y010040D01*
X027397Y010375D01*
X025988Y011784D01*
X025653Y011922D01*
X025291Y011922D01*
X024730Y011922D01*
X024754Y011946D01*
X024810Y012019D01*
X024856Y012099D01*
X024892Y012185D01*
X024916Y012274D01*
X024923Y012332D01*
X024303Y012332D01*
X024303Y012492D01*
X024923Y012492D01*
X024916Y012549D01*
X024892Y012639D01*
X024856Y012724D01*
X024810Y012804D01*
X024754Y012877D01*
X024689Y012943D01*
X024615Y012999D01*
X024535Y013045D01*
X024450Y013081D01*
X024361Y013105D01*
X024303Y013112D01*
X024303Y012492D01*
X024143Y012492D01*
X024143Y013112D01*
X024085Y013105D01*
X023996Y013081D01*
X023910Y013045D01*
X023830Y012999D01*
X023757Y012943D01*
X023691Y012877D01*
X023635Y012804D01*
X023589Y012724D01*
X023554Y012639D01*
X023530Y012549D01*
X023522Y012492D01*
X024142Y012492D01*
X024142Y012332D01*
X023522Y012332D01*
X023530Y012274D01*
X023554Y012185D01*
X023589Y012099D01*
X023635Y012019D01*
X023691Y011946D01*
X023715Y011922D01*
X022642Y011922D01*
X022307Y011784D01*
X022051Y011527D01*
X021912Y011193D01*
X021912Y010831D01*
X022051Y010496D01*
X022307Y010240D01*
X022642Y010101D01*
X023715Y010101D01*
X023691Y010077D01*
X023635Y010004D01*
X023589Y009924D01*
X023554Y009839D01*
X023530Y009749D01*
X023522Y009692D01*
X024142Y009692D01*
X024142Y009532D01*
X023522Y009532D01*
X023530Y009474D01*
X023554Y009385D01*
X023589Y009299D01*
X023635Y009219D01*
X023691Y009146D01*
X023757Y009080D01*
X023830Y009024D01*
X023910Y008978D01*
X023996Y008943D01*
X024085Y008919D01*
X024143Y008911D01*
X024143Y009531D01*
X024303Y009531D01*
X024303Y008911D01*
X024361Y008919D01*
X024450Y008943D01*
X024535Y008978D01*
X024615Y009024D01*
X024689Y009080D01*
X024754Y009146D01*
X024810Y009219D01*
X024856Y009299D01*
X024892Y009385D01*
X024916Y009474D01*
X024923Y009532D01*
X024303Y009532D01*
X024303Y009692D01*
X024923Y009692D01*
X024916Y009749D01*
X024892Y009839D01*
X024856Y009924D01*
X024810Y010004D01*
X024754Y010077D01*
X024730Y010101D01*
X025095Y010101D01*
X025714Y009482D01*
X025714Y009331D01*
X025853Y008996D01*
X026109Y008740D01*
X026444Y008601D01*
X026853Y008621D02*
X032005Y008621D01*
X032005Y008779D02*
X027180Y008779D01*
X027339Y008938D02*
X032005Y008938D01*
X032005Y009096D02*
X027439Y009096D01*
X027504Y009255D02*
X032005Y009255D01*
X032005Y009413D02*
X027536Y009413D01*
X027536Y009572D02*
X032005Y009572D01*
X032045Y009730D02*
X027536Y009730D01*
X027536Y009889D02*
X032126Y009889D01*
X032299Y010048D02*
X027532Y010048D01*
X027467Y010206D02*
X037108Y010206D01*
X037081Y010264D02*
X037153Y010110D01*
X037238Y009962D01*
X037336Y009822D01*
X037445Y009692D01*
X037566Y009571D01*
X037696Y009462D01*
X037836Y009364D01*
X037984Y009279D01*
X038138Y009207D01*
X038298Y009149D01*
X038463Y009104D01*
X038631Y009075D01*
X038800Y009060D01*
X038806Y009060D01*
X038806Y010931D01*
X038966Y010931D01*
X038966Y009060D01*
X038971Y009060D01*
X039141Y009075D01*
X039308Y009104D01*
X039473Y009149D01*
X039633Y009207D01*
X039788Y009279D01*
X039935Y009364D01*
X040075Y009462D01*
X040205Y009571D01*
X040326Y009692D01*
X040435Y009822D01*
X040533Y009962D01*
X040618Y010110D01*
X040690Y010264D01*
X040749Y010424D01*
X040793Y010589D01*
X040822Y010757D01*
X040837Y010926D01*
X040837Y010932D01*
X038966Y010932D01*
X038966Y011092D01*
X040837Y011092D01*
X040837Y011097D01*
X040822Y011267D01*
X040793Y011434D01*
X040749Y011599D01*
X040690Y011759D01*
X040618Y011914D01*
X040533Y012061D01*
X040435Y012201D01*
X040326Y012331D01*
X040205Y012452D01*
X040075Y012561D01*
X039935Y012659D01*
X039788Y012744D01*
X039633Y012816D01*
X039473Y012875D01*
X039308Y012919D01*
X039141Y012948D01*
X038971Y012963D01*
X038966Y012963D01*
X038966Y011092D01*
X038806Y011092D01*
X038806Y012963D01*
X038800Y012963D01*
X038631Y012948D01*
X038463Y012919D01*
X038298Y012875D01*
X038138Y012816D01*
X037984Y012744D01*
X037836Y012659D01*
X037696Y012561D01*
X037566Y012452D01*
X037445Y012331D01*
X037336Y012201D01*
X037238Y012061D01*
X037153Y011914D01*
X037081Y011759D01*
X037023Y011599D01*
X036978Y011434D01*
X036949Y011267D01*
X036934Y011097D01*
X036934Y011092D01*
X038805Y011092D01*
X038805Y010932D01*
X036934Y010932D01*
X036934Y010926D01*
X036949Y010757D01*
X036978Y010589D01*
X037023Y010424D01*
X037081Y010264D01*
X037044Y010365D02*
X027401Y010365D01*
X027248Y010523D02*
X036996Y010523D01*
X036962Y010682D02*
X027090Y010682D01*
X026931Y010840D02*
X036942Y010840D01*
X036939Y011157D02*
X026614Y011157D01*
X026773Y010999D02*
X038805Y010999D01*
X038806Y011157D02*
X038966Y011157D01*
X038966Y010999D02*
X042742Y010999D01*
X042742Y010932D02*
X042742Y011092D01*
X040871Y011092D01*
X040871Y011097D01*
X040886Y011267D01*
X040915Y011434D01*
X040960Y011599D01*
X041018Y011759D01*
X041090Y011914D01*
X041175Y012061D01*
X041273Y012201D01*
X041382Y012331D01*
X041503Y012452D01*
X041633Y012561D01*
X041773Y012659D01*
X041921Y012744D01*
X042075Y012816D01*
X042235Y012875D01*
X042400Y012919D01*
X042568Y012948D01*
X042737Y012963D01*
X042743Y012963D01*
X042743Y011092D01*
X042903Y011092D01*
X044774Y011092D01*
X044774Y011097D01*
X044759Y011267D01*
X044730Y011434D01*
X044686Y011599D01*
X044627Y011759D01*
X044555Y011914D01*
X044470Y012061D01*
X044372Y012201D01*
X044263Y012331D01*
X044142Y012452D01*
X044012Y012561D01*
X043872Y012659D01*
X043725Y012744D01*
X043570Y012816D01*
X043410Y012875D01*
X043245Y012919D01*
X043078Y012948D01*
X042908Y012963D01*
X042903Y012963D01*
X042903Y011092D01*
X042903Y010932D01*
X044774Y010932D01*
X044774Y010926D01*
X044759Y010757D01*
X044730Y010589D01*
X044686Y010424D01*
X044627Y010264D01*
X044555Y010110D01*
X044470Y009962D01*
X044372Y009822D01*
X044263Y009692D01*
X044142Y009571D01*
X044012Y009462D01*
X043872Y009364D01*
X043725Y009279D01*
X043570Y009207D01*
X043410Y009149D01*
X043245Y009104D01*
X043078Y009075D01*
X042908Y009060D01*
X042903Y009060D01*
X042903Y010931D01*
X042743Y010931D01*
X042743Y009060D01*
X042737Y009060D01*
X042568Y009075D01*
X042400Y009104D01*
X042235Y009149D01*
X042075Y009207D01*
X041921Y009279D01*
X041773Y009364D01*
X041633Y009462D01*
X041503Y009571D01*
X041382Y009692D01*
X041273Y009822D01*
X041175Y009962D01*
X041090Y010110D01*
X041018Y010264D01*
X040960Y010424D01*
X040915Y010589D01*
X040886Y010757D01*
X040871Y010926D01*
X040871Y010932D01*
X042742Y010932D01*
X042743Y010840D02*
X042903Y010840D01*
X042903Y010682D02*
X042743Y010682D01*
X042743Y010523D02*
X042903Y010523D01*
X042903Y010365D02*
X042743Y010365D01*
X042743Y010206D02*
X042903Y010206D01*
X042903Y010048D02*
X042743Y010048D01*
X042743Y009889D02*
X042903Y009889D01*
X042903Y009730D02*
X042743Y009730D01*
X042743Y009572D02*
X042903Y009572D01*
X042903Y009413D02*
X042743Y009413D01*
X042743Y009255D02*
X042903Y009255D01*
X042903Y009096D02*
X042743Y009096D01*
X042446Y009096D02*
X039262Y009096D01*
X038966Y009096D02*
X038806Y009096D01*
X038806Y009255D02*
X038966Y009255D01*
X038966Y009413D02*
X038806Y009413D01*
X038806Y009572D02*
X038966Y009572D01*
X038966Y009730D02*
X038806Y009730D01*
X038806Y009889D02*
X038966Y009889D01*
X038966Y010048D02*
X038806Y010048D01*
X038806Y010206D02*
X038966Y010206D01*
X038966Y010365D02*
X038806Y010365D01*
X038806Y010523D02*
X038966Y010523D01*
X038966Y010682D02*
X038806Y010682D01*
X038806Y010840D02*
X038966Y010840D01*
X038966Y011316D02*
X038806Y011316D01*
X038806Y011474D02*
X038966Y011474D01*
X038966Y011633D02*
X038806Y011633D01*
X038806Y011792D02*
X038966Y011792D01*
X038966Y011950D02*
X038806Y011950D01*
X038806Y012109D02*
X038966Y012109D01*
X038966Y012267D02*
X038806Y012267D01*
X038806Y012426D02*
X038966Y012426D01*
X038966Y012584D02*
X038806Y012584D01*
X038806Y012743D02*
X038966Y012743D01*
X038966Y012901D02*
X038806Y012901D01*
X038398Y012901D02*
X032996Y012901D01*
X032930Y012968D02*
X032732Y013050D01*
X032518Y013050D01*
X032320Y012968D01*
X032169Y012816D01*
X032087Y012619D01*
X032087Y012405D01*
X032169Y012207D01*
X032320Y012055D01*
X032518Y011974D01*
X032732Y011974D01*
X032930Y012055D01*
X033081Y012207D01*
X033163Y012405D01*
X033163Y012619D01*
X033081Y012816D01*
X032930Y012968D01*
X033112Y012743D02*
X037981Y012743D01*
X037729Y012584D02*
X033163Y012584D01*
X033163Y012426D02*
X037540Y012426D01*
X037391Y012267D02*
X033106Y012267D01*
X032983Y012109D02*
X037271Y012109D01*
X037174Y011950D02*
X024757Y011950D01*
X024860Y012109D02*
X032267Y012109D01*
X032144Y012267D02*
X026940Y012267D01*
X026934Y012258D02*
X026978Y012323D01*
X027008Y012396D01*
X027023Y012472D01*
X027023Y012511D01*
X026625Y012511D01*
X026625Y012114D01*
X026664Y012114D01*
X026741Y012129D01*
X026814Y012159D01*
X026879Y012202D01*
X026934Y012258D01*
X027014Y012426D02*
X032087Y012426D01*
X032087Y012584D02*
X027016Y012584D01*
X027023Y012551D02*
X027008Y012628D01*
X026978Y012700D01*
X026934Y012765D01*
X026879Y012821D01*
X026814Y012864D01*
X026741Y012894D01*
X026664Y012910D01*
X026625Y012910D01*
X026586Y012910D01*
X026509Y012894D01*
X026436Y012864D01*
X026371Y012821D01*
X026316Y012765D01*
X026272Y012700D01*
X026242Y012628D01*
X026227Y012551D01*
X026227Y012512D01*
X026625Y012512D01*
X026625Y012910D01*
X026625Y012512D01*
X026625Y012512D01*
X026625Y012511D01*
X026625Y012511D01*
X026625Y012114D01*
X026586Y012114D01*
X026509Y012129D01*
X026436Y012159D01*
X026371Y012202D01*
X026316Y012258D01*
X026272Y012323D01*
X026242Y012396D01*
X026227Y012472D01*
X026227Y012511D01*
X026625Y012511D01*
X026625Y012512D01*
X027023Y012512D01*
X027023Y012551D01*
X026949Y012743D02*
X032138Y012743D01*
X032254Y012901D02*
X026706Y012901D01*
X026625Y012901D02*
X026625Y012901D01*
X026544Y012901D02*
X024730Y012901D01*
X024846Y012743D02*
X026301Y012743D01*
X026234Y012584D02*
X024906Y012584D01*
X024914Y012267D02*
X026310Y012267D01*
X026236Y012426D02*
X024303Y012426D01*
X024303Y012584D02*
X024143Y012584D01*
X024142Y012426D02*
X021503Y012426D01*
X021503Y012492D02*
X021503Y012332D01*
X022123Y012332D01*
X022116Y012274D01*
X022092Y012185D01*
X022056Y012099D01*
X022010Y012019D01*
X021954Y011946D01*
X021889Y011880D01*
X021815Y011824D01*
X021735Y011778D01*
X021650Y011743D01*
X021561Y011719D01*
X021503Y011711D01*
X021503Y012331D01*
X021343Y012331D01*
X021343Y011711D01*
X021285Y011719D01*
X021196Y011743D01*
X021110Y011778D01*
X021030Y011824D01*
X020957Y011880D01*
X020891Y011946D01*
X020835Y012019D01*
X020789Y012099D01*
X020754Y012185D01*
X020730Y012274D01*
X020722Y012332D01*
X021342Y012332D01*
X021342Y012492D01*
X020722Y012492D01*
X020730Y012549D01*
X020754Y012639D01*
X020789Y012724D01*
X020835Y012804D01*
X020891Y012877D01*
X020957Y012943D01*
X021030Y012999D01*
X021110Y013045D01*
X021196Y013081D01*
X021285Y013105D01*
X021343Y013112D01*
X021343Y012492D01*
X021503Y012492D01*
X022123Y012492D01*
X022116Y012549D01*
X022092Y012639D01*
X022056Y012724D01*
X022010Y012804D01*
X021954Y012877D01*
X021889Y012943D01*
X021815Y012999D01*
X021735Y013045D01*
X021650Y013081D01*
X021561Y013105D01*
X021503Y013112D01*
X021503Y012492D01*
X021503Y012584D02*
X021343Y012584D01*
X021342Y012426D02*
X020676Y012426D01*
X020676Y012267D02*
X020731Y012267D01*
X020785Y012109D02*
X020676Y012109D01*
X020676Y011950D02*
X020888Y011950D01*
X021087Y011792D02*
X020676Y011792D01*
X020676Y011633D02*
X022156Y011633D01*
X022029Y011474D02*
X020676Y011474D01*
X020676Y011316D02*
X021963Y011316D01*
X021912Y011157D02*
X020676Y011157D01*
X020676Y010999D02*
X021912Y010999D01*
X021912Y010840D02*
X020676Y010840D01*
X020676Y010682D02*
X021974Y010682D01*
X022039Y010523D02*
X020676Y010523D01*
X020676Y010365D02*
X022182Y010365D01*
X022388Y010206D02*
X021803Y010206D01*
X021815Y010199D02*
X021735Y010245D01*
X021650Y010281D01*
X021561Y010305D01*
X021503Y010312D01*
X021503Y009692D01*
X022123Y009692D01*
X022116Y009749D01*
X022092Y009839D01*
X022056Y009924D01*
X022010Y010004D01*
X021954Y010077D01*
X021889Y010143D01*
X021815Y010199D01*
X021977Y010048D02*
X023669Y010048D01*
X023574Y009889D02*
X022071Y009889D01*
X022118Y009730D02*
X023527Y009730D01*
X023546Y009413D02*
X022099Y009413D01*
X022092Y009385D02*
X022116Y009474D01*
X022123Y009532D01*
X021503Y009532D01*
X021503Y009692D01*
X021343Y009692D01*
X021343Y010312D01*
X021285Y010305D01*
X021196Y010281D01*
X021110Y010245D01*
X021030Y010199D01*
X020957Y010143D01*
X020891Y010077D01*
X020835Y010004D01*
X020789Y009924D01*
X020754Y009839D01*
X020730Y009749D01*
X020722Y009692D01*
X021342Y009692D01*
X021342Y009532D01*
X020722Y009532D01*
X020730Y009474D01*
X020754Y009385D01*
X020789Y009299D01*
X020835Y009219D01*
X020891Y009146D01*
X020957Y009080D01*
X021030Y009024D01*
X021110Y008978D01*
X021196Y008943D01*
X021285Y008919D01*
X021343Y008911D01*
X021343Y009531D01*
X021503Y009531D01*
X021503Y008911D01*
X021561Y008919D01*
X021650Y008943D01*
X021735Y008978D01*
X021815Y009024D01*
X021889Y009080D01*
X021954Y009146D01*
X022010Y009219D01*
X022056Y009299D01*
X022092Y009385D01*
X022031Y009255D02*
X023615Y009255D01*
X023741Y009096D02*
X021904Y009096D01*
X021632Y008938D02*
X024014Y008938D01*
X024143Y008938D02*
X024303Y008938D01*
X024432Y008938D02*
X025911Y008938D01*
X025811Y009096D02*
X024704Y009096D01*
X024831Y009255D02*
X025746Y009255D01*
X025714Y009413D02*
X024899Y009413D01*
X024918Y009730D02*
X025466Y009730D01*
X025624Y009572D02*
X024303Y009572D01*
X024303Y009413D02*
X024143Y009413D01*
X024143Y009255D02*
X024303Y009255D01*
X024303Y009096D02*
X024143Y009096D01*
X024142Y009572D02*
X021503Y009572D01*
X021503Y009730D02*
X021343Y009730D01*
X021342Y009572D02*
X020676Y009572D01*
X020676Y009730D02*
X020727Y009730D01*
X020774Y009889D02*
X020676Y009889D01*
X020676Y010048D02*
X020869Y010048D01*
X021042Y010206D02*
X020676Y010206D01*
X021343Y010206D02*
X021503Y010206D01*
X021503Y010048D02*
X021343Y010048D01*
X021343Y009889D02*
X021503Y009889D01*
X021503Y009413D02*
X021343Y009413D01*
X021343Y009255D02*
X021503Y009255D01*
X021503Y009096D02*
X021343Y009096D01*
X021343Y008938D02*
X021503Y008938D01*
X021214Y008938D02*
X020676Y008938D01*
X020676Y009096D02*
X020941Y009096D01*
X020815Y009255D02*
X020676Y009255D01*
X020676Y009413D02*
X020746Y009413D01*
X020676Y008779D02*
X026070Y008779D01*
X025307Y009889D02*
X024871Y009889D01*
X024777Y010048D02*
X025149Y010048D01*
X026456Y011316D02*
X036958Y011316D01*
X036989Y011474D02*
X026297Y011474D01*
X026139Y011633D02*
X037035Y011633D01*
X037096Y011792D02*
X025969Y011792D01*
X026625Y012267D02*
X026625Y012267D01*
X026625Y012426D02*
X026625Y012426D01*
X026625Y012584D02*
X026625Y012584D01*
X026625Y012743D02*
X026625Y012743D01*
X024500Y013060D02*
X061135Y013060D01*
X061135Y013218D02*
X020055Y013218D01*
X020214Y013060D02*
X021145Y013060D01*
X021343Y013060D02*
X021503Y013060D01*
X021503Y012901D02*
X021343Y012901D01*
X021343Y012743D02*
X021503Y012743D01*
X021700Y013060D02*
X023945Y013060D01*
X024143Y013060D02*
X024303Y013060D01*
X024303Y012901D02*
X024143Y012901D01*
X024143Y012743D02*
X024303Y012743D01*
X023715Y012901D02*
X021930Y012901D01*
X022046Y012743D02*
X023600Y012743D01*
X023539Y012584D02*
X022106Y012584D01*
X022114Y012267D02*
X023531Y012267D01*
X023585Y012109D02*
X022060Y012109D01*
X021957Y011950D02*
X023688Y011950D01*
X022326Y011792D02*
X021759Y011792D01*
X021503Y011792D02*
X021343Y011792D01*
X021343Y011950D02*
X021503Y011950D01*
X021503Y012109D02*
X021343Y012109D01*
X021343Y012267D02*
X021503Y012267D01*
X020739Y012584D02*
X020635Y012584D01*
X020531Y012743D02*
X020800Y012743D01*
X020915Y012901D02*
X020372Y012901D01*
X019219Y012584D02*
X017020Y012584D01*
X017178Y012426D02*
X019377Y012426D01*
X019536Y012267D02*
X017337Y012267D01*
X017495Y012109D02*
X019637Y012109D01*
X019637Y012166D02*
X019637Y008394D01*
X019608Y008463D01*
X019569Y008502D01*
X019569Y009790D01*
X019569Y009949D01*
X019508Y010096D01*
X014708Y014896D01*
X014708Y016263D01*
X016466Y016263D01*
X016398Y016098D01*
X016398Y015840D01*
X016496Y015601D01*
X016528Y015570D01*
X016528Y015387D01*
X016607Y015196D01*
X019637Y012166D01*
X019637Y011950D02*
X017654Y011950D01*
X017812Y011792D02*
X019637Y011792D01*
X019637Y011633D02*
X017971Y011633D01*
X018129Y011474D02*
X019637Y011474D01*
X019637Y011316D02*
X018288Y011316D01*
X018447Y011157D02*
X019637Y011157D01*
X019637Y010999D02*
X018605Y010999D01*
X018764Y010840D02*
X019637Y010840D01*
X019637Y010682D02*
X018922Y010682D01*
X019081Y010523D02*
X019637Y010523D01*
X019637Y010365D02*
X019239Y010365D01*
X019398Y010206D02*
X019637Y010206D01*
X019637Y010048D02*
X019528Y010048D01*
X019569Y009889D02*
X019637Y009889D01*
X019637Y009730D02*
X019569Y009730D01*
X019569Y009572D02*
X019637Y009572D01*
X019637Y009413D02*
X019569Y009413D01*
X019569Y009255D02*
X019637Y009255D01*
X019637Y009096D02*
X019569Y009096D01*
X019569Y008938D02*
X019637Y008938D01*
X019637Y008779D02*
X019569Y008779D01*
X019569Y008621D02*
X019637Y008621D01*
X019637Y008462D02*
X019609Y008462D01*
X019169Y008169D02*
X019169Y009869D01*
X014308Y014731D01*
X014308Y017223D01*
X013228Y017223D02*
X013228Y011673D01*
X014481Y010419D01*
X016111Y010419D01*
X016473Y010048D02*
X018425Y010048D01*
X018266Y010206D02*
X016584Y010206D01*
X016551Y010126D02*
X016630Y010316D01*
X016630Y010522D01*
X016551Y010713D01*
X016405Y010858D01*
X016215Y010937D01*
X016008Y010937D01*
X015818Y010858D01*
X015779Y010819D01*
X014647Y010819D01*
X013628Y011839D01*
X013628Y016263D01*
X013908Y016263D01*
X013908Y014810D01*
X013908Y014651D01*
X013968Y014504D01*
X018769Y009703D01*
X018769Y009099D01*
X018750Y009107D01*
X018687Y009107D01*
X018687Y009272D01*
X018608Y009463D01*
X018463Y009608D01*
X018272Y009687D01*
X018066Y009687D01*
X017876Y009608D01*
X017836Y009569D01*
X014835Y009569D01*
X014373Y010031D01*
X014402Y010019D01*
X014561Y010019D01*
X015779Y010019D01*
X015818Y009980D01*
X016008Y009901D01*
X016215Y009901D01*
X016405Y009980D01*
X016551Y010126D01*
X016630Y010365D02*
X018108Y010365D01*
X017949Y010523D02*
X016629Y010523D01*
X016564Y010682D02*
X017791Y010682D01*
X017632Y010840D02*
X016423Y010840D01*
X015800Y010840D02*
X014626Y010840D01*
X014467Y010999D02*
X017474Y010999D01*
X017315Y011157D02*
X014309Y011157D01*
X014150Y011316D02*
X017157Y011316D01*
X016998Y011474D02*
X013992Y011474D01*
X013833Y011633D02*
X016840Y011633D01*
X016681Y011792D02*
X013675Y011792D01*
X013628Y011950D02*
X016522Y011950D01*
X016364Y012109D02*
X013628Y012109D01*
X013628Y012267D02*
X016205Y012267D01*
X016047Y012426D02*
X013628Y012426D01*
X013628Y012584D02*
X015888Y012584D01*
X015730Y012743D02*
X013628Y012743D01*
X013628Y012901D02*
X015571Y012901D01*
X015413Y013060D02*
X013628Y013060D01*
X013628Y013218D02*
X015254Y013218D01*
X015096Y013377D02*
X013628Y013377D01*
X013628Y013536D02*
X014937Y013536D01*
X014779Y013694D02*
X013628Y013694D01*
X013628Y013853D02*
X014620Y013853D01*
X014461Y014011D02*
X013628Y014011D01*
X013628Y014170D02*
X014303Y014170D01*
X014144Y014328D02*
X013628Y014328D01*
X013628Y014487D02*
X013986Y014487D01*
X013910Y014645D02*
X013628Y014645D01*
X013628Y014804D02*
X013908Y014804D01*
X013908Y014962D02*
X013628Y014962D01*
X013628Y015121D02*
X013908Y015121D01*
X013908Y015279D02*
X013628Y015279D01*
X013628Y015438D02*
X013908Y015438D01*
X013908Y015597D02*
X013628Y015597D01*
X013628Y015755D02*
X013908Y015755D01*
X013908Y015914D02*
X013628Y015914D01*
X013628Y016072D02*
X013908Y016072D01*
X013908Y016231D02*
X013628Y016231D01*
X014708Y016231D02*
X016452Y016231D01*
X016398Y016072D02*
X014708Y016072D01*
X014708Y015914D02*
X016398Y015914D01*
X016433Y015755D02*
X014708Y015755D01*
X014708Y015597D02*
X016501Y015597D01*
X016528Y015438D02*
X014708Y015438D01*
X014708Y015279D02*
X016572Y015279D01*
X016682Y015121D02*
X014708Y015121D01*
X014708Y014962D02*
X016840Y014962D01*
X016999Y014804D02*
X014800Y014804D01*
X014959Y014645D02*
X017158Y014645D01*
X017316Y014487D02*
X015117Y014487D01*
X015276Y014328D02*
X017475Y014328D01*
X017633Y014170D02*
X015434Y014170D01*
X015593Y014011D02*
X017792Y014011D01*
X017950Y013853D02*
X015751Y013853D01*
X015910Y013694D02*
X018109Y013694D01*
X018267Y013536D02*
X016068Y013536D01*
X016227Y013377D02*
X018426Y013377D01*
X018584Y013218D02*
X016385Y013218D01*
X016544Y013060D02*
X018743Y013060D01*
X018902Y012901D02*
X016703Y012901D01*
X016861Y012743D02*
X019060Y012743D01*
X019897Y013377D02*
X061135Y013377D01*
X061135Y013536D02*
X019738Y013536D01*
X019580Y013694D02*
X061135Y013694D01*
X061135Y013853D02*
X019421Y013853D01*
X019262Y014011D02*
X019716Y014011D01*
X019675Y014028D02*
X019866Y013949D01*
X020073Y013949D01*
X020264Y014028D01*
X020984Y014749D01*
X048292Y014749D01*
X048498Y014749D01*
X048690Y014828D01*
X052148Y018287D01*
X052196Y018287D01*
X052196Y017743D01*
X052244Y017626D01*
X052334Y017536D01*
X052452Y017487D01*
X056579Y017487D01*
X056697Y017536D01*
X056787Y017626D01*
X056836Y017743D01*
X056836Y019871D01*
X056787Y019988D01*
X056697Y020078D01*
X056579Y020127D01*
X052452Y020127D01*
X052334Y020078D01*
X052244Y019988D01*
X052196Y019871D01*
X052196Y019327D01*
X051829Y019327D01*
X051638Y019248D01*
X051492Y019101D01*
X048180Y015789D01*
X020666Y015789D01*
X020475Y015710D01*
X020328Y015564D01*
X019528Y014764D01*
X019449Y014573D01*
X019449Y014366D01*
X019528Y014175D01*
X019675Y014028D01*
X019533Y014170D02*
X019104Y014170D01*
X018945Y014328D02*
X019465Y014328D01*
X019449Y014487D02*
X018787Y014487D01*
X018628Y014645D02*
X019479Y014645D01*
X019569Y014804D02*
X018470Y014804D01*
X018311Y014962D02*
X019727Y014962D01*
X019886Y015121D02*
X018153Y015121D01*
X017994Y015279D02*
X020044Y015279D01*
X020203Y015438D02*
X019165Y015438D01*
X019316Y015597D02*
X020361Y015597D01*
X020584Y015755D02*
X019381Y015755D01*
X019409Y015914D02*
X048304Y015914D01*
X048463Y016072D02*
X019409Y016072D01*
X019347Y016231D02*
X048621Y016231D01*
X048780Y016389D02*
X041301Y016389D01*
X041314Y016392D02*
X041344Y016401D01*
X041373Y016413D01*
X041400Y016428D01*
X041427Y016445D01*
X041451Y016465D01*
X041473Y016487D01*
X041493Y016512D01*
X041511Y016538D01*
X041525Y016565D01*
X041537Y016595D01*
X041546Y016625D01*
X041553Y016655D01*
X041556Y016687D01*
X041556Y017551D01*
X041553Y017583D01*
X041546Y017614D01*
X041537Y017644D01*
X041525Y017673D01*
X041511Y017700D01*
X041493Y017727D01*
X041473Y017751D01*
X041451Y017773D01*
X041427Y017793D01*
X041400Y017811D01*
X041373Y017825D01*
X041344Y017837D01*
X041329Y017842D01*
X041339Y017846D01*
X041367Y017861D01*
X041393Y017878D01*
X041418Y017898D01*
X041440Y017921D01*
X041460Y017945D01*
X041477Y017971D01*
X041492Y017999D01*
X041504Y018028D01*
X041513Y018058D01*
X041519Y018089D01*
X041522Y018120D01*
X041522Y019318D01*
X041519Y019349D01*
X041513Y019380D01*
X041504Y019410D01*
X041492Y019439D01*
X041477Y019467D01*
X041460Y019493D01*
X041440Y019518D01*
X041418Y019540D01*
X041393Y019560D01*
X042645Y019560D01*
X042594Y019402D02*
X041507Y019402D01*
X041522Y019243D02*
X042557Y019243D01*
X042535Y019085D02*
X041522Y019085D01*
X041522Y018926D02*
X044396Y018926D01*
X044396Y018767D02*
X044556Y018767D01*
X044556Y018609D02*
X044396Y018609D01*
X044396Y018450D02*
X044556Y018450D01*
X044556Y018292D02*
X044396Y018292D01*
X044396Y018133D02*
X044556Y018133D01*
X044556Y017975D02*
X044396Y017975D01*
X044396Y017816D02*
X044556Y017816D01*
X044556Y017658D02*
X044396Y017658D01*
X044396Y017499D02*
X044556Y017499D01*
X044556Y017341D02*
X044396Y017341D01*
X044396Y017182D02*
X044556Y017182D01*
X044556Y017023D02*
X044396Y017023D01*
X043886Y017023D02*
X041556Y017023D01*
X041556Y016865D02*
X049255Y016865D01*
X049097Y016706D02*
X041556Y016706D01*
X041516Y016548D02*
X048938Y016548D01*
X049414Y017023D02*
X045066Y017023D01*
X045429Y017182D02*
X049573Y017182D01*
X049731Y017341D02*
X045671Y017341D01*
X045850Y017499D02*
X049890Y017499D01*
X050048Y017658D02*
X045993Y017658D01*
X046110Y017816D02*
X050207Y017816D01*
X050365Y017975D02*
X046204Y017975D01*
X046279Y018133D02*
X050524Y018133D01*
X050682Y018292D02*
X046337Y018292D01*
X046380Y018450D02*
X050841Y018450D01*
X050999Y018609D02*
X046409Y018609D01*
X046425Y018767D02*
X051158Y018767D01*
X051317Y018926D02*
X044556Y018926D01*
X046241Y019719D02*
X052196Y019719D01*
X052198Y019877D02*
X046157Y019877D01*
X046053Y020036D02*
X052292Y020036D01*
X052196Y019560D02*
X046308Y019560D01*
X046358Y019402D02*
X052196Y019402D01*
X051634Y019243D02*
X046395Y019243D01*
X046418Y019085D02*
X051475Y019085D01*
X051995Y018133D02*
X052196Y018133D01*
X052196Y017975D02*
X051836Y017975D01*
X051677Y017816D02*
X052196Y017816D01*
X052231Y017658D02*
X051519Y017658D01*
X051360Y017499D02*
X052422Y017499D01*
X051202Y017341D02*
X061392Y017341D01*
X061213Y017499D02*
X056609Y017499D01*
X056800Y017658D02*
X061069Y017658D01*
X060953Y017816D02*
X056836Y017816D01*
X056836Y017975D02*
X060859Y017975D01*
X060784Y018133D02*
X056836Y018133D01*
X056836Y018292D02*
X060726Y018292D01*
X060683Y018450D02*
X056836Y018450D01*
X056836Y018609D02*
X060653Y018609D01*
X060638Y018767D02*
X056836Y018767D01*
X056836Y018926D02*
X062506Y018926D01*
X062506Y018767D02*
X062666Y018767D01*
X062666Y018609D02*
X062506Y018609D01*
X062506Y018450D02*
X062666Y018450D01*
X062666Y018292D02*
X062506Y018292D01*
X062506Y018133D02*
X062666Y018133D01*
X062666Y017975D02*
X062506Y017975D01*
X062506Y017816D02*
X062666Y017816D01*
X062666Y017658D02*
X062506Y017658D01*
X062506Y017499D02*
X062666Y017499D01*
X062666Y017341D02*
X062506Y017341D01*
X062506Y017182D02*
X062666Y017182D01*
X062666Y017023D02*
X062506Y017023D01*
X061996Y017023D02*
X050885Y017023D01*
X050726Y016865D02*
X064415Y016865D01*
X064415Y017023D02*
X063176Y017023D01*
X063539Y017182D02*
X064415Y017182D01*
X064415Y017341D02*
X063781Y017341D01*
X063960Y017499D02*
X064415Y017499D01*
X064415Y017658D02*
X064104Y017658D01*
X064220Y017816D02*
X064415Y017816D01*
X064415Y017975D02*
X064314Y017975D01*
X064389Y018133D02*
X064415Y018133D01*
X061634Y017182D02*
X051043Y017182D01*
X050568Y016706D02*
X064415Y016706D01*
X064415Y016548D02*
X050409Y016548D01*
X050251Y016389D02*
X064415Y016389D01*
X064415Y016231D02*
X050092Y016231D01*
X049933Y016072D02*
X064415Y016072D01*
X064415Y015914D02*
X049775Y015914D01*
X049616Y015755D02*
X064415Y015755D01*
X061786Y015597D02*
X049458Y015597D01*
X049299Y015438D02*
X061275Y015438D01*
X061275Y015279D02*
X049141Y015279D01*
X048982Y015121D02*
X061275Y015121D01*
X061202Y014962D02*
X048824Y014962D01*
X048631Y014804D02*
X061160Y014804D01*
X061135Y014645D02*
X020881Y014645D01*
X020722Y014487D02*
X061135Y014487D01*
X061135Y014328D02*
X020564Y014328D01*
X020405Y014170D02*
X061135Y014170D01*
X061135Y014011D02*
X020222Y014011D01*
X018353Y015438D02*
X017836Y015438D01*
X017677Y015597D02*
X018202Y015597D01*
X018137Y015755D02*
X017662Y015755D01*
X017698Y015914D02*
X018109Y015914D01*
X018109Y016072D02*
X017698Y016072D01*
X017643Y016231D02*
X018171Y016231D01*
X018508Y016706D02*
X019844Y016706D01*
X019875Y016691D02*
X020000Y016648D01*
X020130Y016618D01*
X020248Y016605D01*
X020248Y017703D01*
X020407Y017703D01*
X020407Y016605D01*
X020526Y016618D01*
X020655Y016648D01*
X020780Y016691D01*
X020899Y016749D01*
X021011Y016819D01*
X021115Y016902D01*
X021209Y016996D01*
X021291Y017099D01*
X021362Y017212D01*
X021419Y017331D01*
X021463Y017456D01*
X021493Y017585D01*
X021506Y017703D01*
X020408Y017703D01*
X020408Y017863D01*
X021506Y017863D01*
X021493Y017981D01*
X021463Y018110D01*
X021419Y018236D01*
X021362Y018355D01*
X021291Y018467D01*
X021209Y018571D01*
X021115Y018665D01*
X021011Y018747D01*
X020899Y018818D01*
X020780Y018875D01*
X020655Y018919D01*
X020526Y018948D01*
X020407Y018962D01*
X020407Y017863D01*
X020248Y017863D01*
X020248Y018962D01*
X020130Y018948D01*
X020000Y018919D01*
X019875Y018875D01*
X019756Y018818D01*
X019644Y018747D01*
X019540Y018665D01*
X019446Y018571D01*
X019364Y018467D01*
X019293Y018355D01*
X019236Y018236D01*
X019192Y018110D01*
X019162Y017981D01*
X019149Y017863D01*
X020247Y017863D01*
X020247Y017703D01*
X019149Y017703D01*
X019162Y017585D01*
X019192Y017456D01*
X019236Y017331D01*
X019293Y017212D01*
X019364Y017099D01*
X019446Y016996D01*
X019540Y016902D01*
X019644Y016819D01*
X019756Y016749D01*
X019875Y016691D01*
X019587Y016865D02*
X018508Y016865D01*
X018508Y017023D02*
X019424Y017023D01*
X019312Y017182D02*
X018508Y017182D01*
X018508Y017341D02*
X019232Y017341D01*
X019182Y017499D02*
X018508Y017499D01*
X018508Y017658D02*
X019154Y017658D01*
X019162Y017975D02*
X018508Y017975D01*
X018508Y018133D02*
X019200Y018133D01*
X019263Y018292D02*
X018508Y018292D01*
X018508Y018450D02*
X019353Y018450D01*
X019484Y018609D02*
X018508Y018609D01*
X018508Y018767D02*
X019676Y018767D01*
X020031Y018926D02*
X018508Y018926D01*
X018492Y019085D02*
X025212Y019085D01*
X025235Y019243D02*
X018380Y019243D01*
X020248Y018926D02*
X020407Y018926D01*
X020407Y018767D02*
X020248Y018767D01*
X020248Y018609D02*
X020407Y018609D01*
X020407Y018450D02*
X020248Y018450D01*
X020248Y018292D02*
X020407Y018292D01*
X020407Y018133D02*
X020248Y018133D01*
X020248Y017975D02*
X020407Y017975D01*
X020408Y017816D02*
X025520Y017816D01*
X025426Y017975D02*
X021493Y017975D01*
X021455Y018133D02*
X025351Y018133D01*
X025293Y018292D02*
X021392Y018292D01*
X021302Y018450D02*
X025249Y018450D01*
X025220Y018609D02*
X021171Y018609D01*
X020979Y018767D02*
X025205Y018767D01*
X025271Y019402D02*
X013002Y019402D01*
X012844Y019560D02*
X025322Y019560D01*
X025388Y019719D02*
X012685Y019719D01*
X012527Y019877D02*
X025472Y019877D01*
X025576Y020036D02*
X012368Y020036D01*
X012210Y020194D02*
X025704Y020194D01*
X025866Y020353D02*
X012051Y020353D01*
X011817Y020511D02*
X026073Y020511D01*
X026362Y020670D02*
X003929Y020670D01*
X004218Y020511D02*
X009296Y020511D01*
X009062Y020353D02*
X004425Y020353D01*
X004587Y020194D02*
X008904Y020194D01*
X008745Y020036D02*
X004715Y020036D01*
X004819Y019877D02*
X008587Y019877D01*
X008428Y019719D02*
X004903Y019719D01*
X004969Y019560D02*
X008269Y019560D01*
X008166Y019402D02*
X005020Y019402D01*
X005056Y019243D02*
X008144Y019243D01*
X008144Y019085D02*
X005079Y019085D01*
X005086Y018767D02*
X006556Y018767D01*
X006364Y018609D02*
X005071Y018609D01*
X005041Y018450D02*
X006233Y018450D01*
X006143Y018292D02*
X004998Y018292D01*
X004940Y018133D02*
X006080Y018133D01*
X006042Y017975D02*
X004865Y017975D01*
X004771Y017816D02*
X007127Y017816D01*
X007128Y017658D02*
X007287Y017658D01*
X007287Y017499D02*
X007128Y017499D01*
X007128Y017341D02*
X007287Y017341D01*
X007287Y017182D02*
X007128Y017182D01*
X007128Y017023D02*
X007287Y017023D01*
X007287Y016865D02*
X007128Y016865D01*
X007128Y016706D02*
X007287Y016706D01*
X007691Y016706D02*
X008144Y016706D01*
X008144Y016548D02*
X001309Y016548D01*
X001309Y016706D02*
X006724Y016706D01*
X006467Y016865D02*
X001309Y016865D01*
X001309Y017023D02*
X002548Y017023D01*
X002185Y017182D02*
X001309Y017182D01*
X001309Y017341D02*
X001943Y017341D01*
X001764Y017499D02*
X001309Y017499D01*
X001309Y017658D02*
X001620Y017658D01*
X001504Y017816D02*
X001309Y017816D01*
X001309Y017975D02*
X001410Y017975D01*
X001335Y018133D02*
X001309Y018133D01*
X003058Y018133D02*
X003218Y018133D01*
X003218Y017975D02*
X003058Y017975D01*
X003058Y017816D02*
X003218Y017816D01*
X003218Y017658D02*
X003058Y017658D01*
X003058Y017499D02*
X003218Y017499D01*
X003218Y017341D02*
X003058Y017341D01*
X003058Y017182D02*
X003218Y017182D01*
X003218Y017023D02*
X003058Y017023D01*
X003728Y017023D02*
X006304Y017023D01*
X006192Y017182D02*
X004090Y017182D01*
X004332Y017341D02*
X006112Y017341D01*
X006062Y017499D02*
X004511Y017499D01*
X004655Y017658D02*
X006034Y017658D01*
X007128Y017975D02*
X007287Y017975D01*
X007287Y018133D02*
X007128Y018133D01*
X007128Y018292D02*
X007287Y018292D01*
X007287Y018450D02*
X007128Y018450D01*
X007128Y018609D02*
X007287Y018609D01*
X007287Y018767D02*
X007128Y018767D01*
X007128Y018926D02*
X007287Y018926D01*
X007504Y018926D02*
X008144Y018926D01*
X008144Y018767D02*
X007859Y018767D01*
X008051Y018609D02*
X008144Y018609D01*
X006911Y018926D02*
X003218Y018926D01*
X003218Y018767D02*
X003058Y018767D01*
X003058Y018609D02*
X003218Y018609D01*
X003218Y018450D02*
X003058Y018450D01*
X003058Y018292D02*
X003218Y018292D01*
X001309Y016389D02*
X008144Y016389D01*
X008144Y016231D02*
X001309Y016231D01*
X001309Y016072D02*
X008144Y016072D01*
X008144Y015914D02*
X001309Y015914D01*
X001309Y015755D02*
X008144Y015755D01*
X008144Y015597D02*
X001309Y015597D01*
X001309Y015438D02*
X008144Y015438D01*
X008144Y015279D02*
X001309Y015279D01*
X004759Y013853D02*
X005491Y013853D01*
X009544Y013853D02*
X010668Y013853D01*
X010668Y014011D02*
X009544Y014011D01*
X009544Y014170D02*
X010668Y014170D01*
X010668Y014328D02*
X009544Y014328D01*
X009554Y014487D02*
X010668Y014487D01*
X010668Y014645D02*
X009587Y014645D01*
X009574Y014804D02*
X010668Y014804D01*
X010668Y014962D02*
X009544Y014962D01*
X009544Y015121D02*
X010668Y015121D01*
X010668Y015279D02*
X009544Y015279D01*
X009544Y015438D02*
X010668Y015438D01*
X010668Y015597D02*
X009544Y015597D01*
X009544Y015755D02*
X010668Y015755D01*
X010668Y015914D02*
X009544Y015914D01*
X009544Y016072D02*
X010668Y016072D01*
X010668Y016231D02*
X009544Y016231D01*
X008144Y016865D02*
X007949Y016865D01*
X008111Y017023D02*
X008144Y017023D01*
X011068Y017223D02*
X011068Y011873D01*
X014352Y008589D01*
X018647Y008589D01*
X018364Y008145D02*
X009544Y008145D01*
X009544Y007986D02*
X018684Y007986D01*
X018778Y007828D02*
X009544Y007828D01*
X009544Y008304D02*
X014071Y008304D01*
X013913Y008462D02*
X009544Y008462D01*
X009544Y008621D02*
X013754Y008621D01*
X013596Y008779D02*
X009544Y008779D01*
X009544Y008938D02*
X013437Y008938D01*
X013278Y009096D02*
X009544Y009096D01*
X009544Y009255D02*
X013120Y009255D01*
X012961Y009413D02*
X009544Y009413D01*
X009544Y009572D02*
X012803Y009572D01*
X012644Y009730D02*
X009544Y009730D01*
X009544Y009889D02*
X012486Y009889D01*
X012327Y010048D02*
X009544Y010048D01*
X009544Y010206D02*
X012169Y010206D01*
X012010Y010365D02*
X009544Y010365D01*
X009544Y010523D02*
X011852Y010523D01*
X011693Y010682D02*
X009544Y010682D01*
X009544Y010840D02*
X011534Y010840D01*
X011376Y010999D02*
X009544Y010999D01*
X009544Y011157D02*
X011217Y011157D01*
X011059Y011316D02*
X009544Y011316D01*
X009544Y011474D02*
X010900Y011474D01*
X010742Y011633D02*
X009544Y011633D01*
X009544Y011792D02*
X010668Y011792D01*
X010668Y011950D02*
X009544Y011950D01*
X009544Y012109D02*
X010668Y012109D01*
X010668Y012267D02*
X009544Y012267D01*
X009544Y012426D02*
X010668Y012426D01*
X010668Y012584D02*
X009544Y012584D01*
X009544Y012743D02*
X010668Y012743D01*
X010668Y012901D02*
X009544Y012901D01*
X009544Y013060D02*
X010668Y013060D01*
X010668Y013218D02*
X009544Y013218D01*
X009544Y013377D02*
X010668Y013377D01*
X010668Y013536D02*
X009544Y013536D01*
X009544Y013694D02*
X010668Y013694D01*
X011468Y013694D02*
X011748Y013694D01*
X011748Y013536D02*
X011468Y013536D01*
X011468Y013377D02*
X011748Y013377D01*
X011748Y013218D02*
X011468Y013218D01*
X011468Y013060D02*
X011748Y013060D01*
X011748Y012901D02*
X011468Y012901D01*
X011468Y012743D02*
X011748Y012743D01*
X011748Y012584D02*
X011468Y012584D01*
X011468Y012426D02*
X011748Y012426D01*
X011748Y012267D02*
X011468Y012267D01*
X011468Y012109D02*
X011748Y012109D01*
X011748Y011950D02*
X011556Y011950D01*
X011468Y012039D02*
X011748Y011759D01*
X011748Y011770D01*
X011748Y016263D01*
X011468Y016263D01*
X011468Y012039D01*
X011715Y011792D02*
X011748Y011792D01*
X012148Y011691D02*
X014669Y009169D01*
X018169Y009169D01*
X018629Y009413D02*
X018769Y009413D01*
X018769Y009255D02*
X018687Y009255D01*
X018769Y009572D02*
X018499Y009572D01*
X018742Y009730D02*
X014673Y009730D01*
X014832Y009572D02*
X017839Y009572D01*
X018584Y009889D02*
X014515Y009889D01*
X012148Y011691D02*
X012148Y017223D01*
X011748Y016231D02*
X011468Y016231D01*
X011468Y016072D02*
X011748Y016072D01*
X011748Y015914D02*
X011468Y015914D01*
X011468Y015755D02*
X011748Y015755D01*
X011748Y015597D02*
X011468Y015597D01*
X011468Y015438D02*
X011748Y015438D01*
X011748Y015279D02*
X011468Y015279D01*
X011468Y015121D02*
X011748Y015121D01*
X011748Y014962D02*
X011468Y014962D01*
X011468Y014804D02*
X011748Y014804D01*
X011748Y014645D02*
X011468Y014645D01*
X011468Y014487D02*
X011748Y014487D01*
X011748Y014328D02*
X011468Y014328D01*
X011468Y014170D02*
X011748Y014170D01*
X011748Y014011D02*
X011468Y014011D01*
X011468Y013853D02*
X011748Y013853D01*
X019018Y016548D02*
X035686Y016548D01*
X035692Y016538D02*
X035709Y016512D01*
X035729Y016487D01*
X035752Y016465D01*
X035776Y016445D01*
X035802Y016428D01*
X035830Y016413D01*
X035859Y016401D01*
X035889Y016392D01*
X035920Y016386D01*
X035951Y016382D01*
X041251Y016382D01*
X041283Y016386D01*
X041314Y016392D01*
X041556Y017182D02*
X043524Y017182D01*
X043281Y017341D02*
X041556Y017341D01*
X041556Y017499D02*
X043103Y017499D01*
X042959Y017658D02*
X041532Y017658D01*
X041390Y017816D02*
X042842Y017816D01*
X042749Y017975D02*
X041479Y017975D01*
X041522Y018133D02*
X042674Y018133D01*
X042615Y018292D02*
X041522Y018292D01*
X041522Y018450D02*
X042572Y018450D01*
X042543Y018609D02*
X041522Y018609D01*
X041522Y018767D02*
X042527Y018767D01*
X042711Y019719D02*
X032710Y019719D01*
X032776Y019560D02*
X033542Y019560D01*
X033541Y019560D02*
X033517Y019540D01*
X033495Y019518D01*
X033475Y019493D01*
X033458Y019467D01*
X033443Y019439D01*
X033431Y019410D01*
X033422Y019380D01*
X033415Y019349D01*
X033412Y019318D01*
X033412Y018120D01*
X033415Y018089D01*
X033422Y018058D01*
X033431Y018028D01*
X033443Y017999D01*
X033458Y017971D01*
X033475Y017945D01*
X033495Y017921D01*
X033517Y017898D01*
X033541Y017878D01*
X033568Y017861D01*
X033595Y017846D01*
X033624Y017834D01*
X033654Y017825D01*
X033685Y017819D01*
X033717Y017816D01*
X035812Y017816D01*
X035802Y017811D01*
X035776Y017793D01*
X035752Y017773D01*
X035729Y017751D01*
X035709Y017727D01*
X035692Y017700D01*
X035677Y017673D01*
X035665Y017644D01*
X035656Y017614D01*
X035650Y017583D01*
X035647Y017551D01*
X035647Y016687D01*
X035650Y016655D01*
X035656Y016625D01*
X035665Y016595D01*
X035677Y016565D01*
X035692Y016538D01*
X035647Y016706D02*
X020811Y016706D01*
X021069Y016865D02*
X035647Y016865D01*
X035647Y017023D02*
X031535Y017023D01*
X031897Y017182D02*
X035647Y017182D01*
X035647Y017341D02*
X032140Y017341D01*
X032318Y017499D02*
X035647Y017499D01*
X035671Y017658D02*
X032462Y017658D01*
X032578Y017816D02*
X033713Y017816D01*
X033456Y017975D02*
X032672Y017975D01*
X032747Y018133D02*
X033412Y018133D01*
X033412Y018292D02*
X032805Y018292D01*
X032849Y018450D02*
X033412Y018450D01*
X033412Y018609D02*
X032878Y018609D01*
X032893Y018767D02*
X033412Y018767D01*
X033412Y018926D02*
X031025Y018926D01*
X031025Y018767D02*
X030865Y018767D01*
X030865Y018806D02*
X028993Y018806D01*
X027234Y018806D01*
X027234Y018966D01*
X028993Y018966D01*
X030865Y018966D01*
X030865Y018806D01*
X030865Y018926D02*
X027234Y018926D01*
X027233Y018767D02*
X027073Y018767D01*
X027073Y018609D02*
X027233Y018609D01*
X027233Y018450D02*
X027073Y018450D01*
X027073Y018292D02*
X027233Y018292D01*
X027233Y018133D02*
X027073Y018133D01*
X027073Y017975D02*
X027233Y017975D01*
X027233Y017816D02*
X027073Y017816D01*
X027073Y017658D02*
X027233Y017658D01*
X027233Y017499D02*
X027073Y017499D01*
X027073Y017341D02*
X027233Y017341D01*
X027233Y017182D02*
X027073Y017182D01*
X027073Y017023D02*
X027233Y017023D01*
X027743Y017023D02*
X030355Y017023D01*
X029992Y017182D02*
X028106Y017182D01*
X028348Y017341D02*
X029750Y017341D01*
X029571Y017499D02*
X028527Y017499D01*
X028671Y017658D02*
X029427Y017658D01*
X029311Y017816D02*
X028787Y017816D01*
X028881Y017975D02*
X029217Y017975D01*
X029142Y018133D02*
X028956Y018133D01*
X029014Y018292D02*
X029084Y018292D01*
X030865Y018292D02*
X031025Y018292D01*
X031025Y018450D02*
X030865Y018450D01*
X030865Y018609D02*
X031025Y018609D01*
X031025Y018133D02*
X030865Y018133D01*
X030865Y017975D02*
X031025Y017975D01*
X031025Y017816D02*
X030865Y017816D01*
X030865Y017658D02*
X031025Y017658D01*
X031025Y017499D02*
X030865Y017499D01*
X030865Y017341D02*
X031025Y017341D01*
X031025Y017182D02*
X030865Y017182D01*
X030865Y017023D02*
X031025Y017023D01*
X027073Y018926D02*
X020624Y018926D01*
X020247Y017816D02*
X018508Y017816D01*
X020248Y017658D02*
X020407Y017658D01*
X020407Y017499D02*
X020248Y017499D01*
X020248Y017341D02*
X020407Y017341D01*
X020407Y017182D02*
X020248Y017182D01*
X020248Y017023D02*
X020407Y017023D01*
X020407Y016865D02*
X020248Y016865D01*
X020248Y016706D02*
X020407Y016706D01*
X021231Y017023D02*
X026563Y017023D01*
X026201Y017182D02*
X021343Y017182D01*
X021423Y017341D02*
X025959Y017341D01*
X025780Y017499D02*
X021473Y017499D01*
X021501Y017658D02*
X025636Y017658D01*
X019240Y016389D02*
X035901Y016389D01*
X033412Y019085D02*
X032886Y019085D01*
X032863Y019243D02*
X033412Y019243D01*
X033428Y019402D02*
X032827Y019402D01*
X032626Y019877D02*
X042795Y019877D01*
X042899Y020036D02*
X032522Y020036D01*
X032394Y020194D02*
X043027Y020194D01*
X043189Y020353D02*
X032232Y020353D01*
X032026Y020511D02*
X043395Y020511D01*
X043685Y020670D02*
X031736Y020670D01*
X033541Y019560D02*
X033568Y019577D01*
X033595Y019592D01*
X033624Y019604D01*
X033654Y019613D01*
X033685Y019619D01*
X033717Y019622D01*
X041218Y019622D01*
X041249Y019619D01*
X041280Y019613D01*
X041310Y019604D01*
X041339Y019592D01*
X041367Y019577D01*
X041393Y019560D01*
X045268Y020670D02*
X061795Y020670D01*
X061506Y020511D02*
X045557Y020511D01*
X045764Y020353D02*
X061299Y020353D01*
X061137Y020194D02*
X045926Y020194D01*
X056739Y020036D02*
X061009Y020036D01*
X060905Y019877D02*
X056833Y019877D01*
X056836Y019719D02*
X060822Y019719D01*
X060755Y019560D02*
X056836Y019560D01*
X056836Y019402D02*
X060704Y019402D01*
X060668Y019243D02*
X056836Y019243D01*
X056836Y019085D02*
X060645Y019085D01*
X060319Y012901D02*
X061135Y012901D01*
X061135Y012743D02*
X060735Y012743D01*
X060987Y012584D02*
X061135Y012584D01*
X059910Y012584D02*
X059751Y012584D01*
X059751Y012426D02*
X059910Y012426D01*
X059910Y012267D02*
X059751Y012267D01*
X059751Y012109D02*
X059910Y012109D01*
X059910Y011950D02*
X059751Y011950D01*
X059751Y011792D02*
X059910Y011792D01*
X059910Y011633D02*
X059751Y011633D01*
X059751Y011474D02*
X059910Y011474D01*
X059910Y011316D02*
X059751Y011316D01*
X059751Y011157D02*
X059910Y011157D01*
X059750Y010999D02*
X046840Y010999D01*
X046840Y010932D02*
X046840Y011092D01*
X048711Y011092D01*
X048711Y011097D01*
X048696Y011267D01*
X048667Y011434D01*
X048623Y011599D01*
X048564Y011759D01*
X048492Y011914D01*
X048407Y012061D01*
X048309Y012201D01*
X048200Y012331D01*
X048079Y012452D01*
X047949Y012561D01*
X047809Y012659D01*
X047662Y012744D01*
X047507Y012816D01*
X047347Y012875D01*
X047182Y012919D01*
X047015Y012948D01*
X046845Y012963D01*
X046840Y012963D01*
X046840Y011092D01*
X046680Y011092D01*
X046680Y012963D01*
X046674Y012963D01*
X046505Y012948D01*
X046337Y012919D01*
X046172Y012875D01*
X046012Y012816D01*
X045858Y012744D01*
X045710Y012659D01*
X045570Y012561D01*
X045440Y012452D01*
X045319Y012331D01*
X045210Y012201D01*
X045112Y012061D01*
X045027Y011914D01*
X044955Y011759D01*
X044897Y011599D01*
X044852Y011434D01*
X044823Y011267D01*
X044808Y011097D01*
X044808Y011092D01*
X046679Y011092D01*
X046679Y010932D01*
X044808Y010932D01*
X044808Y010926D01*
X044823Y010757D01*
X044852Y010589D01*
X044897Y010424D01*
X044955Y010264D01*
X045027Y010110D01*
X045112Y009962D01*
X045210Y009822D01*
X045319Y009692D01*
X045440Y009571D01*
X045570Y009462D01*
X045710Y009364D01*
X045858Y009279D01*
X046012Y009207D01*
X046172Y009149D01*
X046337Y009104D01*
X046505Y009075D01*
X046674Y009060D01*
X046680Y009060D01*
X046680Y010931D01*
X046840Y010931D01*
X046840Y009060D01*
X046845Y009060D01*
X047015Y009075D01*
X047182Y009104D01*
X047347Y009149D01*
X047507Y009207D01*
X047662Y009279D01*
X047809Y009364D01*
X047949Y009462D01*
X048079Y009571D01*
X048200Y009692D01*
X048309Y009822D01*
X048407Y009962D01*
X048492Y010110D01*
X048564Y010264D01*
X048623Y010424D01*
X048667Y010589D01*
X048696Y010757D01*
X048711Y010926D01*
X048711Y010932D01*
X046840Y010932D01*
X046840Y010840D02*
X046680Y010840D01*
X046680Y010682D02*
X046840Y010682D01*
X046840Y010523D02*
X046680Y010523D01*
X046680Y010365D02*
X046840Y010365D01*
X046840Y010206D02*
X046680Y010206D01*
X046680Y010048D02*
X046840Y010048D01*
X046840Y009889D02*
X046680Y009889D01*
X046680Y009730D02*
X046840Y009730D01*
X046840Y009572D02*
X046680Y009572D01*
X046680Y009413D02*
X046840Y009413D01*
X046840Y009255D02*
X046680Y009255D01*
X046680Y009096D02*
X046840Y009096D01*
X047136Y009096D02*
X059454Y009096D01*
X059751Y009096D02*
X059910Y009096D01*
X059910Y009255D02*
X059751Y009255D01*
X059751Y009413D02*
X059910Y009413D01*
X059910Y009572D02*
X059751Y009572D01*
X059751Y009730D02*
X059910Y009730D01*
X059910Y009889D02*
X059751Y009889D01*
X059751Y010048D02*
X059910Y010048D01*
X059910Y010206D02*
X059751Y010206D01*
X059751Y010365D02*
X059910Y010365D01*
X059910Y010523D02*
X059751Y010523D01*
X059751Y010682D02*
X059910Y010682D01*
X059910Y010840D02*
X059751Y010840D01*
X057989Y010365D02*
X048601Y010365D01*
X048649Y010523D02*
X057941Y010523D01*
X057907Y010682D02*
X048683Y010682D01*
X048704Y010840D02*
X057886Y010840D01*
X057884Y011157D02*
X048706Y011157D01*
X048688Y011316D02*
X057902Y011316D01*
X057934Y011474D02*
X048656Y011474D01*
X048610Y011633D02*
X057980Y011633D01*
X058041Y011792D02*
X048549Y011792D01*
X048471Y011950D02*
X058119Y011950D01*
X058216Y012109D02*
X048374Y012109D01*
X048254Y012267D02*
X058336Y012267D01*
X058485Y012426D02*
X048106Y012426D01*
X047916Y012584D02*
X058674Y012584D01*
X058926Y012743D02*
X047665Y012743D01*
X047248Y012901D02*
X059342Y012901D01*
X059751Y012901D02*
X059910Y012901D01*
X059910Y012743D02*
X059751Y012743D01*
X058053Y010206D02*
X048537Y010206D01*
X048457Y010048D02*
X058134Y010048D01*
X058234Y009889D02*
X048356Y009889D01*
X048232Y009730D02*
X058358Y009730D01*
X058510Y009572D02*
X048080Y009572D01*
X047880Y009413D02*
X058710Y009413D01*
X058980Y009255D02*
X047610Y009255D01*
X046383Y009096D02*
X043199Y009096D01*
X043673Y009255D02*
X045909Y009255D01*
X045640Y009413D02*
X043943Y009413D01*
X044143Y009572D02*
X045439Y009572D01*
X045287Y009730D02*
X044295Y009730D01*
X044419Y009889D02*
X045163Y009889D01*
X045063Y010048D02*
X044520Y010048D01*
X044600Y010206D02*
X044982Y010206D01*
X044918Y010365D02*
X044664Y010365D01*
X044712Y010523D02*
X044870Y010523D01*
X044836Y010682D02*
X044746Y010682D01*
X044767Y010840D02*
X044816Y010840D01*
X044813Y011157D02*
X044769Y011157D01*
X044751Y011316D02*
X044832Y011316D01*
X044863Y011474D02*
X044719Y011474D01*
X044673Y011633D02*
X044909Y011633D01*
X044970Y011792D02*
X044612Y011792D01*
X044534Y011950D02*
X045048Y011950D01*
X045145Y012109D02*
X044437Y012109D01*
X044317Y012267D02*
X045266Y012267D01*
X045414Y012426D02*
X044169Y012426D01*
X043979Y012584D02*
X045603Y012584D01*
X045855Y012743D02*
X043728Y012743D01*
X043311Y012901D02*
X046272Y012901D01*
X046680Y012901D02*
X046840Y012901D01*
X046840Y012743D02*
X046680Y012743D01*
X046680Y012584D02*
X046840Y012584D01*
X046840Y012426D02*
X046680Y012426D01*
X046680Y012267D02*
X046840Y012267D01*
X046840Y012109D02*
X046680Y012109D01*
X046680Y011950D02*
X046840Y011950D01*
X046840Y011792D02*
X046680Y011792D01*
X046680Y011633D02*
X046840Y011633D01*
X046840Y011474D02*
X046680Y011474D01*
X046680Y011316D02*
X046840Y011316D01*
X046840Y011157D02*
X046680Y011157D01*
X046679Y010999D02*
X042903Y010999D01*
X042903Y011157D02*
X042743Y011157D01*
X042743Y011316D02*
X042903Y011316D01*
X042903Y011474D02*
X042743Y011474D01*
X042743Y011633D02*
X042903Y011633D01*
X042903Y011792D02*
X042743Y011792D01*
X042743Y011950D02*
X042903Y011950D01*
X042903Y012109D02*
X042743Y012109D01*
X042743Y012267D02*
X042903Y012267D01*
X042903Y012426D02*
X042743Y012426D01*
X042743Y012584D02*
X042903Y012584D01*
X042903Y012743D02*
X042743Y012743D01*
X042743Y012901D02*
X042903Y012901D01*
X042335Y012901D02*
X039374Y012901D01*
X039791Y012743D02*
X041918Y012743D01*
X041666Y012584D02*
X040042Y012584D01*
X040232Y012426D02*
X041477Y012426D01*
X041329Y012267D02*
X040380Y012267D01*
X040500Y012109D02*
X041208Y012109D01*
X041111Y011950D02*
X040597Y011950D01*
X040675Y011792D02*
X041033Y011792D01*
X040972Y011633D02*
X040736Y011633D01*
X040782Y011474D02*
X040926Y011474D01*
X040895Y011316D02*
X040814Y011316D01*
X040832Y011157D02*
X040876Y011157D01*
X040879Y010840D02*
X040830Y010840D01*
X040809Y010682D02*
X040899Y010682D01*
X040933Y010523D02*
X040775Y010523D01*
X040727Y010365D02*
X040981Y010365D01*
X041045Y010206D02*
X040663Y010206D01*
X040583Y010048D02*
X041126Y010048D01*
X041226Y009889D02*
X040482Y009889D01*
X040358Y009730D02*
X041350Y009730D01*
X041502Y009572D02*
X040206Y009572D01*
X040006Y009413D02*
X041703Y009413D01*
X041972Y009255D02*
X039736Y009255D01*
X038509Y009096D02*
X033245Y009096D01*
X033245Y008938D02*
X061135Y008938D01*
X061135Y009096D02*
X060207Y009096D01*
X060681Y009255D02*
X061135Y009255D01*
X061135Y009413D02*
X060951Y009413D01*
X061135Y008779D02*
X033245Y008779D01*
X033245Y008621D02*
X061135Y008621D01*
X061135Y008462D02*
X033245Y008462D01*
X033245Y008304D02*
X061135Y008304D01*
X061135Y008145D02*
X033245Y008145D01*
X033245Y007986D02*
X061135Y007986D01*
X061135Y007828D02*
X033245Y007828D01*
X033245Y007669D02*
X061135Y007669D01*
X061166Y007511D02*
X033245Y007511D01*
X033245Y007352D02*
X061209Y007352D01*
X061275Y007194D02*
X033245Y007194D01*
X033245Y007035D02*
X061275Y007035D01*
X061275Y006877D02*
X052602Y006877D01*
X052859Y006718D02*
X061827Y006718D01*
X064415Y006560D02*
X053018Y006560D01*
X053176Y006401D02*
X064415Y006401D01*
X064415Y006243D02*
X053335Y006243D01*
X053493Y006084D02*
X064415Y006084D01*
X064415Y005925D02*
X053652Y005925D01*
X053810Y005767D02*
X064415Y005767D01*
X064415Y005608D02*
X053969Y005608D01*
X054127Y005450D02*
X064415Y005450D01*
X064415Y005291D02*
X054286Y005291D01*
X054445Y005133D02*
X064415Y005133D01*
X064415Y004974D02*
X063247Y004974D01*
X063583Y004816D02*
X064415Y004816D01*
X064415Y004657D02*
X063812Y004657D01*
X063986Y004499D02*
X064415Y004499D01*
X064415Y004340D02*
X064125Y004340D01*
X064237Y004181D02*
X064415Y004181D01*
X064415Y004023D02*
X064327Y004023D01*
X064399Y003864D02*
X064415Y003864D01*
X062666Y003864D02*
X062506Y003864D01*
X062506Y003706D02*
X062666Y003706D01*
X062666Y003547D02*
X062506Y003547D01*
X062506Y003389D02*
X062666Y003389D01*
X062666Y003230D02*
X062506Y003230D01*
X062506Y003072D02*
X056824Y003072D01*
X056824Y003230D02*
X060635Y003230D01*
X060649Y003389D02*
X056824Y003389D01*
X056824Y003547D02*
X060677Y003547D01*
X060718Y003706D02*
X056824Y003706D01*
X056824Y003864D02*
X060774Y003864D01*
X060846Y004023D02*
X056824Y004023D01*
X056824Y004181D02*
X060936Y004181D01*
X061048Y004340D02*
X056799Y004340D01*
X056659Y004499D02*
X061187Y004499D01*
X061361Y004657D02*
X054920Y004657D01*
X054762Y004816D02*
X061590Y004816D01*
X061926Y004974D02*
X054603Y004974D01*
X053167Y004657D02*
X045702Y004657D01*
X045875Y004499D02*
X051349Y004499D01*
X051209Y004340D02*
X046015Y004340D01*
X046127Y004181D02*
X051184Y004181D01*
X051184Y004023D02*
X046217Y004023D01*
X046289Y003864D02*
X051184Y003864D01*
X051184Y003706D02*
X046344Y003706D01*
X046386Y003547D02*
X051184Y003547D01*
X051184Y003389D02*
X046413Y003389D01*
X046427Y003230D02*
X051184Y003230D01*
X051184Y003072D02*
X044556Y003072D01*
X044556Y003230D02*
X044396Y003230D01*
X044396Y003072D02*
X038572Y003072D01*
X038572Y003230D02*
X042525Y003230D01*
X042539Y003389D02*
X038572Y003389D01*
X038572Y003547D02*
X042567Y003547D01*
X042608Y003706D02*
X038572Y003706D01*
X038572Y003864D02*
X042664Y003864D01*
X042736Y004023D02*
X038549Y004023D01*
X038554Y004010D02*
X038542Y004039D01*
X038527Y004067D01*
X038510Y004093D01*
X038490Y004118D01*
X038468Y004140D01*
X038443Y004160D01*
X038417Y004177D01*
X038389Y004192D01*
X038360Y004204D01*
X038330Y004213D01*
X038299Y004219D01*
X038268Y004222D01*
X034603Y004222D01*
X034572Y004219D01*
X034541Y004213D01*
X034511Y004204D01*
X034482Y004192D01*
X034454Y004177D01*
X034428Y004160D01*
X034404Y004140D01*
X034381Y004118D01*
X034361Y004093D01*
X034344Y004067D01*
X034329Y004039D01*
X034317Y004010D01*
X034308Y003980D01*
X034302Y003949D01*
X034299Y003918D01*
X034299Y002720D01*
X034302Y002689D01*
X034308Y002658D01*
X034317Y002628D01*
X034329Y002599D01*
X034344Y002571D01*
X034361Y002545D01*
X034381Y002521D01*
X034404Y002498D01*
X034428Y002478D01*
X034454Y002461D01*
X034482Y002446D01*
X034511Y002434D01*
X034541Y002425D01*
X034572Y002419D01*
X034603Y002416D01*
X038268Y002416D01*
X038299Y002419D01*
X038330Y002425D01*
X038360Y002434D01*
X038389Y002446D01*
X038417Y002461D01*
X038443Y002478D01*
X038468Y002498D01*
X038490Y002521D01*
X038510Y002545D01*
X038527Y002571D01*
X038542Y002599D01*
X038554Y002628D01*
X038563Y002658D01*
X038569Y002689D01*
X038572Y002720D01*
X038572Y003918D01*
X038569Y003949D01*
X038563Y003980D01*
X038554Y004010D01*
X038409Y004181D02*
X042825Y004181D01*
X042937Y004340D02*
X032484Y004340D01*
X032596Y004181D02*
X034462Y004181D01*
X034322Y004023D02*
X032685Y004023D01*
X032757Y003864D02*
X034299Y003864D01*
X034299Y003706D02*
X032813Y003706D01*
X032854Y003547D02*
X034299Y003547D01*
X034299Y003389D02*
X032882Y003389D01*
X032896Y003230D02*
X034299Y003230D01*
X034299Y003072D02*
X031025Y003072D01*
X031025Y003230D02*
X030865Y003230D01*
X030865Y003218D02*
X030865Y003058D01*
X029105Y003058D01*
X027234Y003058D01*
X027234Y003218D01*
X029105Y003218D01*
X030865Y003218D01*
X030865Y003072D02*
X027234Y003072D01*
X029022Y003706D02*
X029076Y003706D01*
X029132Y003864D02*
X028966Y003864D01*
X028894Y004023D02*
X029204Y004023D01*
X029294Y004181D02*
X028804Y004181D01*
X028692Y004340D02*
X029406Y004340D01*
X029546Y004499D02*
X028552Y004499D01*
X028379Y004657D02*
X029719Y004657D01*
X029948Y004816D02*
X028150Y004816D01*
X027814Y004974D02*
X030284Y004974D01*
X030865Y004974D02*
X031025Y004974D01*
X031025Y004816D02*
X030865Y004816D01*
X030865Y004657D02*
X031025Y004657D01*
X031025Y004499D02*
X030865Y004499D01*
X030865Y004340D02*
X031025Y004340D01*
X031025Y004181D02*
X030865Y004181D01*
X030865Y004023D02*
X031025Y004023D01*
X031025Y003864D02*
X030865Y003864D01*
X030865Y003706D02*
X031025Y003706D01*
X031025Y003547D02*
X030865Y003547D01*
X030865Y003389D02*
X031025Y003389D01*
X032859Y002755D02*
X034299Y002755D01*
X034299Y002913D02*
X032884Y002913D01*
X032820Y002596D02*
X034331Y002596D01*
X034503Y002437D02*
X032767Y002437D01*
X032698Y002279D02*
X042723Y002279D01*
X042654Y002437D02*
X038368Y002437D01*
X038541Y002596D02*
X042601Y002596D01*
X042562Y002755D02*
X038572Y002755D01*
X038572Y002913D02*
X042537Y002913D01*
X042810Y002120D02*
X032611Y002120D01*
X032504Y001962D02*
X042917Y001962D01*
X043050Y001803D02*
X032370Y001803D01*
X032202Y001645D02*
X043219Y001645D01*
X043433Y001486D02*
X031988Y001486D01*
X031678Y001328D02*
X043743Y001328D01*
X045210Y001328D02*
X061853Y001328D01*
X061543Y001486D02*
X045519Y001486D01*
X045733Y001645D02*
X061329Y001645D01*
X061161Y001803D02*
X045902Y001803D01*
X046035Y001962D02*
X051306Y001962D01*
X051197Y002120D02*
X046142Y002120D01*
X046229Y002279D02*
X051184Y002279D01*
X051184Y002437D02*
X046298Y002437D01*
X046352Y002596D02*
X051184Y002596D01*
X051184Y002755D02*
X046390Y002755D01*
X046416Y002913D02*
X051184Y002913D01*
X053008Y004816D02*
X045473Y004816D01*
X045137Y004974D02*
X052849Y004974D01*
X052691Y005133D02*
X024167Y005133D01*
X024326Y005291D02*
X052532Y005291D01*
X052374Y005450D02*
X024484Y005450D01*
X024643Y005608D02*
X052215Y005608D01*
X056824Y002913D02*
X060647Y002913D01*
X060672Y002755D02*
X056824Y002755D01*
X056824Y002596D02*
X060711Y002596D01*
X060764Y002437D02*
X056824Y002437D01*
X056824Y002279D02*
X060833Y002279D01*
X060920Y002120D02*
X056810Y002120D01*
X056702Y001962D02*
X061027Y001962D01*
X062506Y004023D02*
X062666Y004023D01*
X062666Y004181D02*
X062506Y004181D01*
X062506Y004340D02*
X062666Y004340D01*
X062666Y004499D02*
X062506Y004499D01*
X062506Y004657D02*
X062666Y004657D01*
X062666Y004816D02*
X062506Y004816D01*
X062506Y004974D02*
X062666Y004974D01*
X044556Y004974D02*
X044396Y004974D01*
X044396Y004816D02*
X044556Y004816D01*
X044556Y004657D02*
X044396Y004657D01*
X044396Y004499D02*
X044556Y004499D01*
X044556Y004340D02*
X044396Y004340D01*
X044396Y004181D02*
X044556Y004181D01*
X044556Y004023D02*
X044396Y004023D01*
X044396Y003864D02*
X044556Y003864D01*
X044556Y003706D02*
X044396Y003706D01*
X044396Y003547D02*
X044556Y003547D01*
X044556Y003389D02*
X044396Y003389D01*
X043251Y004657D02*
X032170Y004657D01*
X032344Y004499D02*
X043077Y004499D01*
X043479Y004816D02*
X031942Y004816D01*
X031605Y004974D02*
X043816Y004974D01*
X038035Y009255D02*
X033245Y009255D01*
X033245Y009413D02*
X037766Y009413D01*
X037565Y009572D02*
X033245Y009572D01*
X033205Y009730D02*
X037413Y009730D01*
X037289Y009889D02*
X033124Y009889D01*
X032951Y010048D02*
X037189Y010048D01*
X019576Y007828D02*
X019561Y007828D01*
X019418Y007669D02*
X019317Y007669D01*
D20*
X020157Y007673D02*
X020157Y012382D01*
X017048Y015491D01*
X017048Y015969D01*
X017048Y017223D01*
X017548Y017223D01*
X017048Y017223D02*
X016468Y017223D01*
X015388Y017223D02*
X015388Y015969D01*
X015869Y015969D01*
X019969Y014469D02*
X020769Y015269D01*
X048395Y015269D01*
X051933Y018807D01*
X053516Y018807D01*
X054516Y018807D02*
X055516Y018807D01*
X055169Y018807D01*
X055169Y017169D01*
X051169Y005169D02*
X051169Y003216D01*
X052504Y003216D01*
X053504Y003216D01*
X054504Y003216D02*
X055504Y003216D01*
X020157Y007673D02*
X018716Y006233D01*
X006898Y006233D01*
X009669Y014169D02*
X009988Y014169D01*
X009988Y017223D01*
X013768Y018343D02*
X013768Y020169D01*
X020169Y020169D01*
X019828Y018283D02*
X020328Y017783D01*
D21*
X022169Y018169D03*
X024169Y018169D03*
X024169Y016169D03*
X022169Y016169D03*
X026169Y016169D03*
X028169Y016169D03*
X030169Y016169D03*
X032169Y016169D03*
X032169Y014169D03*
X030169Y014169D03*
X028169Y014169D03*
X026169Y014169D03*
X024169Y014169D03*
X022169Y014169D03*
X018169Y012169D03*
X016169Y012169D03*
X015169Y011169D03*
X016111Y010419D03*
X018169Y010169D03*
X018169Y009169D03*
X018647Y008589D03*
X019169Y008169D03*
X018269Y007469D03*
X020169Y006169D03*
X022169Y006169D03*
X022169Y008169D03*
X024169Y008169D03*
X026169Y008169D03*
X028169Y008169D03*
X030169Y008169D03*
X034169Y008169D03*
X036169Y008169D03*
X038169Y008169D03*
X040169Y008169D03*
X042169Y008169D03*
X044169Y008169D03*
X046169Y008169D03*
X048169Y008169D03*
X050169Y008169D03*
X052169Y008169D03*
X054169Y008169D03*
X056169Y008169D03*
X058169Y008169D03*
X060169Y008169D03*
X059169Y007169D03*
X058169Y006169D03*
X056169Y006169D03*
X054169Y006169D03*
X053169Y007169D03*
X051169Y007169D03*
X049169Y007169D03*
X047169Y007169D03*
X047169Y005169D03*
X049169Y005169D03*
X051169Y005169D03*
X050169Y004169D03*
X048169Y004169D03*
X046169Y004169D03*
X047169Y003169D03*
X049169Y003169D03*
X048169Y002169D03*
X046169Y002169D03*
X050169Y002169D03*
X057169Y003169D03*
X058169Y002169D03*
X060169Y002169D03*
X059169Y003169D03*
X058169Y004169D03*
X060169Y004169D03*
X059169Y005169D03*
X060169Y006169D03*
X062169Y006169D03*
X064169Y006169D03*
X057169Y005169D03*
X055169Y005169D03*
X055169Y007169D03*
X057169Y007169D03*
X057169Y009169D03*
X055169Y009169D03*
X053169Y009169D03*
X051169Y009169D03*
X049169Y009169D03*
X050169Y010169D03*
X052169Y010169D03*
X054169Y010169D03*
X056169Y010169D03*
X055169Y011169D03*
X053169Y011169D03*
X051169Y011169D03*
X049169Y011169D03*
X048169Y012169D03*
X050169Y012169D03*
X052169Y012169D03*
X054169Y012169D03*
X056169Y012169D03*
X055169Y013169D03*
X053169Y013169D03*
X051169Y013169D03*
X049169Y013169D03*
X048169Y014169D03*
X046169Y014169D03*
X044169Y014169D03*
X042169Y014169D03*
X040169Y014169D03*
X038169Y014169D03*
X036169Y014169D03*
X034169Y014169D03*
X034169Y012169D03*
X036169Y012169D03*
X036169Y010169D03*
X034169Y010169D03*
X049169Y015169D03*
X051169Y015169D03*
X053169Y015169D03*
X055169Y015169D03*
X057169Y015169D03*
X056169Y014169D03*
X054169Y014169D03*
X052169Y014169D03*
X050169Y014169D03*
X050169Y016169D03*
X048169Y016169D03*
X046169Y016169D03*
X044169Y016169D03*
X042169Y016169D03*
X047169Y017169D03*
X049169Y017169D03*
X051169Y017169D03*
X053169Y017169D03*
X055169Y017169D03*
X057169Y017169D03*
X056169Y016169D03*
X054169Y016169D03*
X052169Y016169D03*
X050169Y018169D03*
X048169Y018169D03*
X046169Y018169D03*
X046169Y020169D03*
X048169Y020169D03*
X050169Y020169D03*
X058169Y020169D03*
X060169Y020169D03*
X060169Y018169D03*
X058169Y018169D03*
X059169Y017169D03*
X058169Y016169D03*
X060169Y016169D03*
X062169Y016169D03*
X064169Y016169D03*
X061169Y015169D03*
X059169Y015169D03*
X058169Y014169D03*
X060169Y014169D03*
X059169Y013169D03*
X057169Y013169D03*
X057169Y011169D03*
X040169Y004169D03*
X040169Y002169D03*
X038169Y002169D03*
X036169Y002169D03*
X034169Y002169D03*
X034169Y004169D03*
X024169Y004169D03*
X020169Y004169D03*
X022169Y002169D03*
X024169Y002169D03*
X014169Y003669D03*
X012169Y003669D03*
X010169Y003669D03*
X010169Y005169D03*
X008269Y005469D03*
X006169Y004169D03*
X006169Y002169D03*
X008169Y002169D03*
X012169Y005169D03*
X008544Y007019D03*
X009144Y007444D03*
X009969Y007669D03*
X011669Y008169D03*
X011669Y010169D03*
X009669Y012169D03*
X007669Y012169D03*
X011669Y013169D03*
X009669Y014169D03*
X009069Y014669D03*
X008069Y014669D03*
X007669Y014169D03*
X004169Y016169D03*
X002169Y016169D03*
X002169Y012169D03*
X002169Y008169D03*
X006169Y008169D03*
X004169Y006169D03*
X002169Y006169D03*
X020169Y020169D03*
X022169Y020169D03*
X024169Y020169D03*
X034169Y020169D03*
X036169Y020169D03*
X038169Y020169D03*
X040169Y020169D03*
D22*
X019969Y014469D03*
X006898Y006233D03*
D23*
X004139Y007781D02*
X009829Y002091D01*
X020249Y002091D01*
X024439Y006281D01*
X032625Y006281D01*
X052419Y006281D01*
X054504Y004197D01*
X054504Y003216D01*
X032625Y006281D02*
X032625Y009512D01*
X005623Y014501D02*
X004139Y014501D01*
X004139Y007781D01*
D24*
X008069Y014669D02*
X008544Y014669D01*
X009069Y014669D02*
X009144Y014669D01*
D25*
X022823Y011012D02*
X025472Y011012D01*
X026625Y009859D01*
X026625Y009512D01*
M02*
